<?xml version="1.0" encoding="utf-8"?>
<!-- Generator: Adobe Illustrator 23.0.6, SVG Export Plug-In . SVG Version: 6.00 Build 0)  -->
<svg version="1.1" id="Layer_1" xmlns="http://www.w3.org/2000/svg" xmlns:xlink="http://www.w3.org/1999/xlink" x="0px" y="0px"
	 viewBox="0 0 1000 239.3" style="enable-background:new 0 0 1000 239.3;" xml:space="preserve">
<style type="text/css">
	.st0{fill:#FFFFFF;}
</style>
<path class="st0" d="M472.8,146.1l-12.9,35.8c0,1.4-1.4,1.4-1.4,1.4h-20.1c-1.4,0-1.4,0-1.4-1.4c11.5-30.1,28.7-81.7,41.5-116
	c0-1.4,1.4-4.3,1.4-11.5c0-1.4,0-1.4,1.4-1.4h27.2c1.4-1.4,1.4,0,1.4,0c14.3,41.5,31.5,86,45.8,127.5c0,1.4,0,1.4-1.4,1.4h-22.9
	c-1.4,0-1.4,0-1.4-1.4l-12.9-35.8h-44.4L472.8,146.1z M512.9,126.1c-4.3-12.9-14.3-40.1-17.2-54.4c-2.9,12.9-11.5,35.8-17.2,54.4
	H512.9z M568.8,134.7c0-28.7,21.5-51.6,55.9-51.6c4.3,0,8.6,0,11.5,1.4v-43c0-1.4,0-1.4,1.4-1.4H659c1.4,0,1.4,0,1.4,1.4v130.4
	c0,1.4,0,1.4-1.4,1.4c-12.9,5.7-27.2,10-40.1,10C588.8,184.8,568.8,169.1,568.8,134.7L568.8,134.7z M634.7,104.6
	c-2.9-1.4-7.2-1.4-11.5-1.4c-18.6,0-30.1,11.5-30.1,31.5c0,22.9,12.9,31.5,28.7,31.5c4.3,0,10-1.4,14.3-1.4v-60.2H634.7z
	 M780.8,133.2c0,31.5-20.1,51.6-48.7,51.6c-34.4,0-48.7-25.8-48.7-50.1c0-30.1,20-50.1,50.1-50.1C763.6,83.1,780.8,106,780.8,133.2
	L780.8,133.2z M707.7,133.2c0,20,8.6,32.9,24.3,32.9c12.9,0,22.9-8.6,22.9-32.9c0-18.6-7.2-33-24.4-33
	C717.8,101.7,707.7,113.2,707.7,133.2z M823.8,41.5c1.4,0,1.4,0,1.4,1.4v45.8c7.2-2.9,14.3-4.3,21.5-4.3c27.2,0,44.4,20.1,44.4,45.8
	c0,34.4-27.2,55.9-58.7,55.9c-10,0-20-1.4-30.1-4.3c-1.4,0-1.4-1.4-1.4-1.4V43c0-1.4,0-1.4,1.4-1.4L823.8,41.5z M842.4,103.1
	c-5.7,0-11.5,1.4-15.8,2.9v58.7c2.9,1.4,7.2,1.4,11.5,1.4c14.3,0,31.5-11.5,31.5-34.4C868.2,113.2,856.7,103.1,842.4,103.1z
	 M937,139c0,15.8,10,25.8,30.1,25.8c7.2,0,15.8-1.4,24.4-4.3c0,0,1.4,0,1.4,1.4v15.8c0,1.4,0,1.4-1.4,2.9
	c-7.2,4.3-17.2,5.7-30.1,5.7c-35.8,0-50.1-24.3-50.1-50.1c0-28.6,17.2-51.6,47.3-51.6c30.1,0,41.5,22.9,41.5,41.5
	c0,8.6-1.4,12.9-1.4,12.9L937,139L937,139z M968.5,123.2c7.2,0,8.6-1.4,8.6-1.4v-2.9c0-5.7-4.3-18.6-20.1-18.6
	c-12.9,0-20,10-21.5,22.9L968.5,123.2z"/>
<path class="st0" d="M170.5,0l100.3,239.3V0H170.5z M0,0v239.3L100.3,0H0z M91.7,190.5h45.8l20.1,48.7h41.5L134.7,87.4L91.7,190.5z"
	/>
</svg>
