<?xml version="1.0" encoding="utf-8"?>
<!-- Generator: Adobe Illustrator 23.0.6, SVG Export Plug-In . SVG Version: 6.00 Build 0)  -->
<svg version="1.1"
	 id="Layer_1" inkscape:version="0.91 r13725" sodipodi:docname="Adobe_1993.svg" xmlns:cc="http://creativecommons.org/ns#" xmlns:dc="http://purl.org/dc/elements/1.1/" xmlns:inkscape="http://www.inkscape.org/namespaces/inkscape" xmlns:rdf="http://www.w3.org/1999/02/22-rdf-syntax-ns#" xmlns:sodipodi="http://sodipodi.sourceforge.net/DTD/sodipodi-0.dtd" xmlns:svg="http://www.w3.org/2000/svg"
	 xmlns="http://www.w3.org/2000/svg" xmlns:xlink="http://www.w3.org/1999/xlink" x="0px" y="0px" viewBox="0 0 1720.8 2376.3"
	 style="enable-background:new 0 0 1720.8 2376.3;" xml:space="preserve">
<style type="text/css">
	.st0{fill:#FFFFFF;}
</style>
<sodipodi:namedview  bordercolor="#666666" borderopacity="1" gridtolerance="10" guidetolerance="10" id="namedview21" inkscape:current-layer="Layer_1" inkscape:cx="531.06511" inkscape:cy="643.92575" inkscape:pageopacity="0" inkscape:pageshadow="2" inkscape:window-height="705" inkscape:window-maximized="1" inkscape:window-width="1366" inkscape:window-x="-8" inkscape:window-y="-8" inkscape:zoom="0.35355339" objecttolerance="10" pagecolor="#ffffff" showgrid="false">
	</sodipodi:namedview>
<g id="g4156">
	<path id="path5" inkscape:connector-curvature="0" class="st0" d="M231.1,2159.4L211,2039.8c-5.8-34.5-13.1-88.3-18.7-125.6h-2.2
		c-5.9,37.6-14.1,93-20.2,125.9l-21.7,119.2H231.1z M137.3,2237.3l-26.2,132.7H14.2L135.1,1818h118.7l109.8,551.9h-97.4l-25.6-132.7
		H137.3z"/>
	<path id="path7" inkscape:connector-curvature="0" class="st0" d="M584.1,2123.4c0-7.4,0-16-1.5-23.8
		c-3.9-27.2-18.4-51.8-41.7-51.8c-40,0-54.7,57.6-54.7,125c0,77.4,21,121.5,53.3,121.5c14.8,0,31.8-7.6,41.1-40.1
		c2.3-6.5,3.4-15.1,3.4-25.3V2123.4z M683.6,1803.4v452.1c0,35.8,1.8,79.9,3.3,114.4H601l-5.6-46h-2c-14.4,28.4-45.8,52.5-83.3,52.5
		c-82.2,0-123-90.8-123-205.4c0-139.6,60.8-207.6,127.1-207.6c34.7,0,57.1,17,68.4,41.5h1.7v-201.6L683.6,1803.4L683.6,1803.4z"/>
	<path id="path9" inkscape:connector-curvature="0" class="st0" d="M890.7,2300c38,0,47.4-71.5,47.4-130.8
		c0-56.3-9.4-129.7-49-129.7c-42,0-50.8,73.4-50.8,129.7c0,68,11.1,130.8,51.6,130.8H890.7z M888.8,2376.3
		c-91.6,0-149.1-73.6-149.1-205.3c0-143.7,73.8-207.6,151.5-207.6c90.4,0,147.1,77.2,147.1,205.3c0,164.6-88.8,207.6-148.6,207.6
		H888.8z"/>
	<path id="path11" inkscape:connector-curvature="0" class="st0" d="M1193.2,2227c0,10,1.8,19.3,3.9,25.6
		c10,33.5,26.9,41.7,40.4,41.7c38.5,0,54-48.7,54-126.7c0-71-16.4-119.8-54.4-119.8c-18.9,0-34.7,20.5-40.2,42.5
		c-1.9,6.9-3.7,17.7-3.7,25.1V2227z M1093.8,1803.4h99.4v208.3h1.6c19.6-30.7,45.7-48.3,83.6-48.3c75,0,112.6,85.2,112.6,196.7
		c0,140.8-56.2,216.2-129,216.2c-34.7,0-57.8-15.4-78.6-54.3h-2.1l-5.5,47.9h-85.4c1.5-33.1,3.3-78.5,3.3-114.4V1803.4
		L1093.8,1803.4z"/>
	<path id="path13" inkscape:connector-curvature="0" class="st0" d="M1629.3,2131.8c0.5-56.2-16-95.5-47.5-95.5
		c-36,0-51.3,52.7-52.4,95.5H1629.3z M1529.1,2202.1c1.2,72.3,39.2,95.9,86.4,95.9c29.9,0,55.6-6.6,74.5-13.8l13.4,71.5
		c-26.4,11.4-67.1,18.5-106.2,18.5c-106.7,0-165-72.9-165-197.5c0-133.7,67.6-214,155.9-214c85.3,0,132.6,71,132.6,186.8
		c0,26.5-1.1,41.5-2.8,53.1L1529.1,2202.1L1529.1,2202.1z"/>
</g>
<g id="g4151">
	<polygon id="polygon15" class="st0" points="1084.7,0 1720.8,0 1720.8,1523 	"/>
	<polygon id="polygon17" class="st0" points="636.5,0 0,0 0,1523 	"/>
	<polygon id="polygon19" class="st0" points="582.4,1216.5 860.7,561.2 1265.9,1522.9 1000.4,1522.9 879.2,1216.5 	"/>
</g>
</svg>
