<?xml version="1.0" encoding="utf-8"?>
<!-- Generator: Adobe Illustrator 22.1.0, SVG Export Plug-In . SVG Version: 6.00 Build 0)  -->
<svg version="1.1" id="Layer_1" xmlns="http://www.w3.org/2000/svg" xmlns:xlink="http://www.w3.org/1999/xlink" x="0px" y="0px"
	 viewBox="0 0 54.9 61.3" style="enable-background:new 0 0 54.9 61.3;" xml:space="preserve">
<style type="text/css">
	.st0{fill:#FFFFFF;}
</style>
<title>airbnb</title>
<g id="Layer_2_1_">
	<g id="logos">
		<g id="_2K">
			<g id="airbnb">
				<path class="st0" d="M27,34.7c-1,1.1-2.1,2.1-3.3,3c-1.3,1-2.8,1.7-4.5,2.1c-4.2,0.9-8.4-1.6-9.6-5.7c-0.5-1.7-0.4-3.6,0.3-5.2
					c0.7-1.6,1.4-3.3,2.1-4.9c1.8-3.8,3.6-7.6,5.5-11.4c1.1-2.2,2.2-4.4,3.4-6.6c0.5-1,1.2-1.9,2-2.6c2.7-2.2,6.6-1.9,8.9,0.7
					c0.7,0.8,1.3,1.7,1.7,2.7c1.8,3.6,3.7,7.1,5.3,10.6s3.3,7,4.9,10.5c0.4,0.9,0.7,1.8,0.8,2.8c0.3,1.8-0.1,3.7-1.1,5.3
					c-1.3,2.1-3.5,3.5-5.9,3.8c-1.7,0.2-3.5-0.1-5-0.9c-1.5-0.7-2.8-1.7-4-2.9C28,35.7,27.6,35.2,27,34.7z M25.5,33L25,32.4
					c-1.4-1.8-2.6-3.8-3.5-5.9c-0.7-1.6-1-3.3-0.8-5c0.1-1.3,0.7-2.5,1.5-3.5c1.5-1.6,3.7-2.4,5.9-2c3.1,0.3,5.5,3,5.5,6.1
					c0,1.2-0.2,2.4-0.5,3.5c-0.6,1.9-1.6,3.6-2.7,5.2c-0.5,0.8-1.1,1.5-1.6,2.2l0.7,0.8c1.1,1.1,2.3,2.1,3.6,2.9
					c1.2,0.7,2.5,1,3.8,1c3.1-0.1,5.6-2.7,5.5-5.8c0-0.2,0-0.4-0.1-0.6c-0.1-0.8-0.4-1.6-0.8-2.4c-2.1-4.6-4.3-9.2-6.5-13.7
					c-1.1-2.3-2.3-4.5-3.4-6.7c-0.4-0.8-0.8-1.6-1.4-2.3c-1.2-1.7-3.7-2.1-5.4-0.9c0,0,0,0,0,0c-0.7,0.5-1.2,1.2-1.6,1.9
					c-0.9,1.6-1.7,3.3-2.6,4.9c-1.9,3.8-3.8,7.6-5.6,11.5c-0.9,1.9-1.8,3.9-2.7,5.9c-0.5,1.1-0.7,2.3-0.5,3.5
					c0.4,2.8,2.8,4.9,5.7,4.9c0.9,0,1.8-0.2,2.6-0.6C22.2,36.2,24,34.7,25.5,33z M27.1,31l0.3-0.4c1.2-1.5,2.2-3.1,2.9-4.8
					c0.6-1.2,0.9-2.6,0.8-4c-0.1-1-0.6-2-1.4-2.6c-1.2-0.9-2.7-1.1-4.1-0.6c-1.2,0.4-2.2,1.4-2.4,2.7C23,22.2,23,23.1,23.3,24
					c0.3,1.2,0.7,2.3,1.3,3.3C25.3,28.6,26.1,29.8,27.1,31z"/>
				<path class="st0" d="M23,58V44.7h2.3v5l0.1-0.1c0.7-0.6,1.6-0.9,2.5-0.8c2.2,0.1,4,1.8,4.3,4c0.3,1.6-0.2,3.2-1.4,4.3
					c-1.1,1.2-2.9,1.6-4.4,1.1c-0.4-0.1-0.8-0.4-1.2-0.8v0.4c0,0.2-0.1,0.3-0.3,0.3c0,0,0,0,0,0C24.4,58,23.7,58,23,58z M25.3,53.5
					c0,0.4,0,0.8,0,1.3c0,0.3,0.1,0.5,0.3,0.7c0.8,0.7,2,0.9,2.9,0.4c0.9-0.4,1.5-1.4,1.4-2.4c0-1-0.6-2-1.6-2.3
					c-1-0.4-2.2-0.2-3,0.7c-0.1,0.1-0.1,0.2-0.1,0.3C25.3,52.5,25.3,53,25.3,53.5L25.3,53.5z"/>
				<path class="st0" d="M45,49.6c0.4-0.2,0.8-0.4,1.2-0.6c1.5-0.5,3.1-0.1,4.3,0.9c0.9,0.8,1.5,1.9,1.5,3.2
					c0.1,1.3-0.3,2.6-1.1,3.5c-1.1,1.4-3,1.9-4.7,1.4c-0.4-0.2-0.7-0.4-1-0.6L45,57.3c0,0.2,0,0.3,0,0.4c0,0.2-0.1,0.3-0.3,0.3
					c0,0,0,0,0,0c-0.7,0-1.3,0-2,0V44.7H45L45,49.6z M45,53.5c0,0.5,0,0.9,0,1.4c0,0.1,0.1,0.3,0.2,0.4c0.8,0.9,2.2,1.1,3.2,0.5
					c1.2-0.7,1.6-2.3,0.9-3.6c-0.3-0.5-0.7-0.9-1.3-1.1c-1-0.4-2.2-0.1-2.9,0.7C45,51.8,45,51.9,45,52.1C45,52.5,45,53,45,53.5z"/>
				<path class="st0" d="M9.3,49.6L9.3,49.6c0-0.7,0-0.7,0.6-0.7h1.6v9H9.7c-0.3,0-0.4-0.1-0.4-0.4v-0.2H9.2c-0.7,0.6-1.6,1-2.5,0.9
					c-2.3-0.1-4.2-1.9-4.4-4.2c-0.2-1.4,0.3-2.8,1.2-3.8c1.2-1.2,2.9-1.7,4.6-1.2c0.2,0.1,0.4,0.2,0.6,0.3
					C8.9,49.4,9.1,49.5,9.3,49.6z M9.3,53.5c0-0.5,0-1,0-1.4c0-0.1,0-0.2-0.1-0.3c-0.5-0.5-1.1-0.8-1.8-0.8
					c-1.4-0.1-2.6,0.9-2.8,2.3c0,0.3,0,0.6,0.1,0.9C4.9,55.2,5.9,56,7,56c0.8,0.1,1.6-0.2,2.1-0.8c0.1-0.1,0.1-0.2,0.1-0.3
					C9.3,54.4,9.3,54,9.3,53.5z"/>
				<path class="st0" d="M39.3,58v-5.3c0-0.3,0-0.5-0.1-0.8c-0.1-0.6-0.6-1-1.2-1.1c-0.8-0.1-1.6,0.1-2.2,0.7
					c-0.1,0.1-0.2,0.2-0.2,0.4c0,1.9,0,3.9,0,5.8V58h-2.4v-9H35c0.4,0,0.5,0.1,0.5,0.5v0.2c0.4-0.2,0.8-0.4,1.2-0.6
					c1.5-0.6,3.3-0.1,4.3,1.2c0.4,0.6,0.6,1.2,0.6,1.9c0,2,0,4,0,5.9L39.3,58z"/>
				<path class="st0" d="M16.7,49h2c0.2,0,0.3,0.1,0.3,0.3c0,0,0,0,0,0v0.3c0.8-0.8,2-1.1,3.1-0.8v2.1c-0.5,0-0.9-0.1-1.4,0
					c-0.6,0-1.2,0.3-1.6,0.7C19,51.7,19,51.8,19,51.9c0,1.9,0,3.9,0,5.8V58h-2.3L16.7,49z"/>
				<path class="st0" d="M12.9,49h0.2h2.1v9h-2.3V49z"/>
				<path class="st0" d="M14.1,44.6c0.8,0,1.5,0.7,1.6,1.5c0,0,0,0,0,0.1c0,0.9-0.7,1.6-1.6,1.6c-0.9,0-1.6-0.7-1.6-1.6
					C12.5,45.3,13.2,44.6,14.1,44.6C14.1,44.6,14.1,44.6,14.1,44.6z"/>
			</g>
		</g>
	</g>
</g>
</svg>
