<?xml version="1.0" encoding="utf-8"?>
<!-- Generator: Adobe Illustrator 23.0.6, SVG Export Plug-In . SVG Version: 6.00 Build 0)  -->
<svg version="1.1" id="Layer_1" xmlns="http://www.w3.org/2000/svg" xmlns:xlink="http://www.w3.org/1999/xlink" x="0px" y="0px"
	 viewBox="0 0 468.66 119.76" style="enable-background:new 0 0 468.66 119.76;" xml:space="preserve">
<style type="text/css">
	.st0{fill:#FFFFFF;}
</style>
<g>
	<path class="st0" d="M69.57,0c2.04,7.59,4.09,15.18,6.1,22.79c0.21,0.81,0.61,0.95,1.34,0.95c4.56-0.03,9.11-0.01,13.91-0.01
		c-0.27,0.5-0.45,0.87-0.65,1.22c-2.98,5.2-5.96,10.4-8.97,15.58c-0.41,0.71-0.52,1.32-0.3,2.13c4.64,17.27,9.26,34.55,13.88,51.83
		c0.05,0.19,0.09,0.38,0.16,0.67c-0.41,0.03-0.74,0.09-1.08,0.09c-4.24,0.01-8.48-0.03-12.72,0.03c-0.91,0.01-1.19-0.31-1.42-1.15
		c-2.98-11.19-6.01-22.36-9.02-33.54c-0.09-0.33-0.2-0.66-0.36-1.2c-1.66,2.87-3.22,5.56-4.77,8.25
		c-5.12,8.85-10.24,17.7-15.33,26.57c-0.46,0.8-0.96,1.08-1.88,1.07c-4.68-0.05-9.36-0.02-14.04-0.02c-0.39,0-0.78,0-1.38,0
		c0.58-1.05,1.07-1.94,1.58-2.82c10-17.33,20.01-34.67,29.99-52.01c0.27-0.47,0.47-1.16,0.34-1.66c-1.53-5.91-3.13-11.81-4.72-17.71
		c-0.04-0.14-0.09-0.27-0.23-0.66c-0.4,0.66-0.68,1.11-0.95,1.57C45.15,46,31.27,70.04,17.41,94.1c-0.51,0.89-1.05,1.18-2.05,1.17
		c-4.6-0.06-9.2-0.03-13.8-0.03c-0.43,0-0.85,0-1.5,0c0.3-0.56,0.49-0.94,0.7-1.3c17.95-31.1,35.91-62.2,53.86-93.31
		c0.12-0.2,0.21-0.42,0.32-0.64C59.81,0,64.69,0,69.57,0z"/>
	<path class="st0" d="M149.01,119.76c-1.76-0.24-3.55-0.36-5.29-0.74c-8.4-1.8-14.72-6.23-17.82-14.51
		c-0.65-1.73-0.92-3.61-1.41-5.59c1.05,0,1.79,0,2.54,0c3.68,0.02,7.35,0.07,11.03,0.07c0.81,0,1.24,0.11,1.45,1.08
		c0.52,2.43,2.09,4.11,4.36,5.07c3.23,1.37,6.59,1.6,9.98,0.74c4.12-1.05,6.58-3.81,7.08-7.97c0.33-2.71,0.06-5.48,0.06-8.3
		c-0.29,0.16-0.66,0.36-1.03,0.55c-12.59,6.69-28.78,2.33-34.79-11.5c-5.37-12.37,1.1-30.58,19.34-32.59
		c5.68-0.63,11.06,0.36,16.05,3.24c0.16,0.09,0.35,0.14,0.66,0.26c0-0.87,0-1.6,0-2.45c4.89,0,9.68,0,14.64,0c0,0.41,0,0.88,0,1.34
		c0,15.56,0,31.11,0,46.67c0,12.32-7.86,21.74-19.98,23.92c-1.79,0.32-3.62,0.49-5.42,0.73
		C149.97,119.76,149.49,119.76,149.01,119.76z M161.21,69.55c0-1.6,0.07-3.2-0.03-4.79c-0.04-0.66-0.28-1.42-0.69-1.93
		c-3.25-4.07-7.6-5.33-12.61-4.74c-7.81,0.93-12.37,9.52-8.78,16.52c4.06,7.92,15.65,8.89,21.31,1.75c0.45-0.57,0.71-1.41,0.76-2.15
		C161.29,72.67,161.21,71.11,161.21,69.55z"/>
	<path class="st0" d="M441.35,95.18c-4.83,0-9.6,0-14.47,0c-0.04-0.83-0.08-1.6-0.12-2.51c-6.45,3.66-13.13,4.82-20.2,2.83
		c-5.18-1.46-9.32-4.51-12.5-8.82c-6.98-9.47-6.67-22.66,0.64-31.9c6.05-7.66,18.46-12.74,32.08-5.17c0-8.64,0-17.21,0-25.88
		c4.92,0,9.69,0,14.58,0C441.35,47.52,441.35,71.32,441.35,95.18z M426.81,71.2c0-2.16,0.05-4.32-0.03-6.48
		c-0.02-0.62-0.28-1.34-0.68-1.82c-3.64-4.41-10.75-5.96-15.96-3.55c-4.75,2.2-7.5,7-7.24,12.61c0.25,5.25,3.51,9.73,8.3,11.41
		c4.9,1.72,11.16,0.23,14.42-3.33c0.87-0.95,1.28-1.92,1.21-3.21C426.74,74.96,426.81,73.08,426.81,71.2z"/>
	<path class="st0" d="M310.11,49.68c0.04-0.93,0.07-1.68,0.11-2.53c4.76,0,9.45,0,14.25,0c0,15.92,0,31.88,0,47.97
		c-4.72,0-9.42,0-14.23,0c-0.04-0.72-0.09-1.5-0.14-2.46c-0.58,0.32-1.05,0.59-1.52,0.85c-15.59,8.31-34.28-1.62-35.97-19.23
		c-1.05-10.92,2.86-19.71,12.44-25.33c7.67-4.5,15.66-3.95,23.52-0.11C309.03,49.06,309.47,49.32,310.11,49.68z M310.17,71.22
		c0-2.16,0.04-4.32-0.02-6.48c-0.02-0.55-0.2-1.2-0.54-1.63c-3.94-5.01-12.15-6.37-17.46-2.81c-4.63,3.1-6.33,7.66-5.52,13.02
		c0.79,5.22,3.77,8.96,9.03,10.2c5.37,1.27,10.25,0.15,13.96-4.3c0.34-0.41,0.52-1.08,0.53-1.63
		C310.21,75.46,310.17,73.34,310.17,71.22z"/>
	<path class="st0" d="M182.17,70.49c0.2-16.07,12.36-25.95,26.65-25.63c14.4,0.32,25.62,11.21,25.17,26.57
		c-0.41,13.9-10.85,24.63-25.87,24.61C193.09,96.02,182.15,85.23,182.17,70.49z M219.89,70.34c-0.08-0.72-0.11-1.73-0.32-2.7
		c-0.98-4.6-3.45-8-8.12-9.31c-4.5-1.26-8.6-0.3-11.81,3.21c-2.92,3.18-3.72,7.09-3.09,11.27c1.53,10.16,11.45,12.11,17.33,8.82
		C218.15,79.24,219.69,75.27,219.89,70.34z"/>
	<path class="st0" d="M347.37,95.18c-4.86,0-9.57,0-14.38,0c0-15.99,0-31.96,0-48.02c4.74,0,9.47,0,14.37,0c0,1.06,0,2.11,0,3.33
		c1.34-0.81,2.46-1.56,3.64-2.19c10.98-5.77,29.29-1.86,32.02,16.31c0.22,1.5,0.32,3.02,0.33,4.54c0.03,8.16,0.01,16.32,0.01,24.48
		c0,0.47,0,0.95,0,1.51c-4.72,0-9.32,0-14.08,0c0-0.5,0-0.96,0-1.43c0-7.56,0.01-15.12-0.01-22.68c0-1.19-0.08-2.41-0.3-3.58
		c-1.28-6.86-7.32-10.32-13.99-8.04c-2.88,0.98-5.21,2.78-7.16,5.05c-0.34,0.39-0.43,1.09-0.43,1.65c-0.03,9.2-0.02,18.4-0.02,27.6
		C347.37,94.19,347.37,94.66,347.37,95.18z"/>
	<path class="st0" d="M101.77,23.72c4.84,0,9.65,0,14.52,0c0,23.83,0,47.57,0,71.42c-4.83,0-9.63,0-14.52,0
		C101.77,71.34,101.77,47.57,101.77,23.72z"/>
	<path class="st0" d="M240.48,47.23c4.77,0,9.51,0,14.37,0c0,1.1,0,2.15,0,3.42c4.54-3.49,9.56-4.17,14.93-3.7
		c0,4.15,0,8.17,0,12.25c-1.65,0.27-3.31,0.47-4.94,0.81c-3.6,0.76-6.84,2.24-9.24,5.14c-0.41,0.5-0.71,1.26-0.72,1.9
		c-0.05,8.88-0.03,17.75-0.03,26.63c0,0.47,0,0.94,0,1.49c-4.83,0-9.57,0-14.37,0C240.48,79.18,240.48,63.24,240.48,47.23z"/>
	<path class="st0" d="M463.03,29.79c1.16-1.85,2.28-3.55,3.29-5.31c0.5-0.88,1.11-1.16,2.1-0.85c0,3.4,0,6.82,0,10.33
		c-0.65,0-1.27,0-2.05,0c0-1.7,0-3.42,0-5.15c-0.1-0.03-0.19-0.05-0.29-0.08c-0.65,1.02-1.29,2.05-1.95,3.07
		c-0.69,1.06-1.5,1.05-2.19-0.01c-0.65-1-1.29-2.02-2.16-3.03c0,1.7,0,3.41,0,5.19c-0.81,0-1.42,0-2.14,0c0-3.43,0-6.88,0-10.33
		c0.99-0.33,1.61,0,2.14,0.92C460.77,26.3,461.9,27.98,463.03,29.79z"/>
	<path class="st0" d="M450.57,25.5c-1.26,0-2.36,0-3.53,0c0-0.7,0-1.28,0-1.91c3.07,0,6.08,0,9.15,0c0,0.61,0,1.16,0,1.86
		c-1.09,0-2.18,0-3.44,0c0,2.92,0,5.69,0,8.53c-0.78,0-1.41,0-2.19,0C450.57,31.17,450.57,28.4,450.57,25.5z"/>
</g>
</svg>
