<svg xmlns="http://www.w3.org/2000/svg" viewBox="0 0 118.01 45.57"><defs><style>.cls-1{fill:#fff;}</style></defs><title>altamira</title><g id="Layer_2" data-name="Layer 2"><g id="logos"><g id="_5K" data-name="5K"><g id="altamira"><path class="cls-1" d="M0,45.29c1.59-2.65,2.79-5.49,4.22-8.21.83-1.59,1.61-3.21,2.49-5,2.17,4.34,4.26,8.54,6.37,12.73.29.57.05.61-.46.66-1.19.12-2.15-.06-2.5-1.41-.18-.71-.65-.93-1.4-.9-1.41.06-2.83,0-4.24,0-.54,0-1,.1-1.1.64C3,45.37,2,45.72.58,45.49a2.82,2.82,0,0,0-.58,0ZM8.58,41,6.69,37.2,4.82,41Z"/><path class="cls-1" d="M66.22,20.78a1.9,1.9,0,0,1-.35.34,11.77,11.77,0,0,1-13.56.09c-.22-.16-.49-.29-.6-.53a.6.6,0,0,1,.06-.57c1.13-2.27,2.25-4.55,3.47-7l3.65,5.49c1.24-1.87,2.45-3.68,3.72-5.57a10,10,0,0,1,1.31,2.33c.77,1.5,1.48,3,2.26,4.53C66.38,20.26,66.4,20.52,66.22,20.78Z"/><path class="cls-1" d="M100,45.33c-2,.68-3-.16-3.66-1.79a2.12,2.12,0,0,0-.12-.2C94.86,40.91,94.86,40.93,92,41c-.55,0-.75.15-.72.72,0,1,0,2,0,3s-.47.86-1,.78S89,45.93,89,44.77q0-6,0-11.91c0-.52.19-.68.69-.68,2.16,0,4.32,0,6.48,0a4.4,4.4,0,0,1,2,8c-.62.41-.65.64-.29,1.22C98.6,42.74,99.3,44,100,45.33ZM93.87,34.44c-2.58,0-2.58,0-2.58,2.59,0,.35,0,.71,0,1.06s0,.65.56.64c1.33,0,2.66.06,4,0a2,2,0,0,0,2-2.09,2.17,2.17,0,0,0-2-2.17C95.13,34.41,94.5,34.44,93.87,34.44Z"/><path class="cls-1" d="M73.8,32.05V42c0,.86-.07,1.73,0,2.59.11,1-.54.91-1.17.89s-1.24.23-1.2-.86c.09-2.23,0-4.46,0-7.05-1.39,1.42-2.6,2.61-3.76,3.86-.46.5-.74.45-1.18,0-1.18-1.23-2.41-2.42-3.78-3.79,0,2.45,0,4.67,0,6.89,0,.91-.33,1-1.08,1s-1.24.07-1.23-1c.07-4,0-8.06,0-12.44l4.58,4.59c.66.66,1.32,1.81,2,1.85s1.42-1.19,2.11-1.86C70.68,35.21,72.11,33.74,73.8,32.05Z"/><path class="cls-1" d="M48.34,32.1,55,45.49a7.85,7.85,0,0,0-1.21,0,1.5,1.5,0,0,1-1.92-1.19,1.39,1.39,0,0,0-1.73-1.12,11.17,11.17,0,0,1-2.24,0c-1.55-.09-3.09-.2-3.51,1.85-.08.38-.38.45-.73.44-.61,0-1.23,0-2,0C43.88,41,46,36.69,48.34,32.1Zm0,5.14c-.29.56-.51.89-.65,1.25-.31.82-1,1.49-1,2.44l2.8.08h.11c.48,0,.56-.19.37-.56C49.48,39.44,49,38.44,48.36,37.24Z"/><path class="cls-1" d="M111.32,32.1c2.28,4.58,4.45,8.9,6.69,13.39a8.69,8.69,0,0,0-1.27,0,1.47,1.47,0,0,1-1.84-1.14,1.49,1.49,0,0,0-1.81-1.17c-1.25.09-2.52,0-3.77,0-.64,0-1.19,0-1.35.76-.41,1.85-1.81,1.58-3.31,1.48Zm0,5.14a11.6,11.6,0,0,0-.64,1.24c-.32.82-1.36,1.81-.92,2.35s1.75.11,2.68.18c.55,0,.74-.12.46-.66C112.42,39.39,111.93,38.41,111.34,37.24Z"/><path class="cls-1" d="M35.62,40c0,1.49,0,3,0,4.47,0,.87-.28,1.06-1.07,1s-1.27.13-1.24-1c.07-3.06,0-6.12,0-9.18,0-.68-.11-1-.88-.93s-1.41,0-2.12,0c-1.38,0-1.77-.54-1.42-1.89.1-.39.33-.37.6-.37h9.89c1.07,0,.52.85.6,1.32s.22,1-.6.94c-1,0-2,0-3.06,0-.61,0-.8.16-.78.78C35.65,36.82,35.62,38.43,35.62,40Z"/><path class="cls-1" d="M17.92,38.82c0-1.92.07-3.85,0-5.77,0-1.08.6-.85,1.19-.86s1.21-.15,1.19.89c-.07,3.06,0,6.13-.05,9.19,0,.71.16.94.9.91,1.61-.06,3.22,0,4.83,0,.88,0,1,.36.89,1s.35,1.37-.85,1.33c-2.43-.07-4.87,0-7.3,0-.63,0-.8-.18-.79-.79C18,42.75,17.92,40.78,17.92,38.82Z"/><path class="cls-1" d="M80,38.93c0-1.84.06-3.68,0-5.52,0-.95.2-1.25,1.2-1.27s1.15.47,1.14,1.32c0,3.57,0,7.13,0,10.7,0,.87,0,1.39-1.19,1.39S80,44.88,80,44.1C80,42.38,80,40.65,80,38.93Z"/><path class="cls-1" d="M61.33,11.29,58.89,15c-.85-1.27-1.6-2.43-2.37-3.58a.72.72,0,0,1-.05-.77C57.29,9,58.11,7.35,59,5.53c.87,1.74,1.62,3.27,2.4,4.79A.84.84,0,0,1,61.33,11.29Z"/><path class="cls-1" d="M58.89,15c-.85-1.27-1.6-2.43-2.37-3.58a.72.72,0,0,1-.05-.77C57.29,9,58.11,7.35,59,5.53c.87,1.74,1.62,3.27,2.4,4.79a.84.84,0,0,1-.09,1Z"/><path class="cls-1" d="M66.18,19.87c.2.39.22.65,0,.91a11.63,11.63,0,0,1-14.51-.1.6.6,0,0,1,.06-.57c1.13-2.27,2.25-4.55,3.47-7l3.65,5.49c1.24-1.87,2.45-3.68,3.72-5.57a10,10,0,0,1,1.31,2.33C64.69,16.84,65.4,18.37,66.18,19.87Z"/><path class="cls-1" d="M70.66,11.64v.17a11.65,11.65,0,0,1-2.25,6.71c-.29.27-.46.06-.82-.66l-7.9-15.8L59,.78c-1.56,3.12-3,6.07-4.53,9s-3,5.95-4.59,9.05l-.11-.13h0a11.61,11.61,0,0,1-2.4-6.77v-.42A11.63,11.63,0,0,1,58,.05c.35,0,.71,0,1.06,0a10.6,10.6,0,0,1,1.5.1A11.63,11.63,0,0,1,70.66,11.64Z"/></g></g></g></g></svg>