<svg xmlns="http://www.w3.org/2000/svg" viewBox="0 0 94.5 38.97"><defs><style>.cls-1{fill:#fff;}</style></defs><title>appian</title><g id="Layer_2" data-name="Layer 2"><g id="logos"><g id="_3K_IN_KIND" data-name="3K + IN KIND"><g id="appian"><path class="cls-1" d="M26.58,8.9v1.4a5,5,0,0,1,4.15-1.77c4.06,0,6,2.05,6,6.39v10a9,9,0,0,1-.56,3.59c-.7,1.91-2.57,2.93-5.23,2.93A5.6,5.6,0,0,1,26.86,30V39H22.29V8.9Zm2.89,18.84c1.73,0,2.61-.93,2.61-2.7V14.78c0-1.82-.84-2.71-2.61-2.71s-2.61.89-2.61,2.71V25C26.86,26.81,27.7,27.74,29.47,27.74Z"/><path class="cls-1" d="M43.5,8.9v1.4a5,5,0,0,1,4.15-1.77c4.06,0,6,2.05,6,6.39v10a8.82,8.82,0,0,1-.56,3.59c-.7,1.91-2.57,2.93-5.22,2.93A5.62,5.62,0,0,1,43.78,30V39H39.22V8.9Zm2.89,18.84A2.37,2.37,0,0,0,49,25V14.78c0-1.82-.84-2.71-2.62-2.71s-2.61.89-2.61,2.71V25C43.78,26.81,44.62,27.74,46.39,27.74Z"/><rect class="cls-1" x="56.13" y="8.9" width="4.66" height="22.19"/><path class="cls-1" d="M63.5,16.32V14.68c0-4.1,2.33-6.15,7.09-6.15s6.89,1.91,6.89,6.15V29.23a8.79,8.79,0,0,0,.19,1.87H73.2l0-1.4c-.84,1.21-2.14,1.77-4.29,1.77-3.78,0-5.73-1.73-5.73-5V23.78c0-2.8,1-4.15,3.77-5l6-1.91v-2c0-1.73-.79-2.52-2.42-2.52s-2.57.79-2.57,2.47v1.59Zm6,5.17c-1.3.42-1.72,1.08-1.72,2.61v1.73a2.12,2.12,0,0,0,2.42,2.38c1.82,0,2.66-.89,2.66-2.85V20.42Z"/><path class="cls-1" d="M80.28,8.9h4.38v1.5A5.45,5.45,0,0,1,89,8.48a6.2,6.2,0,0,1,4,1.36,4,4,0,0,1,1,1.44,6.56,6.56,0,0,1,.47,3.26V31.1H89.89V14.78c0-1.82-.84-2.71-2.48-2.71s-2.47.89-2.47,2.71V31.1H80.28Z"/><path class="cls-1" d="M19.57,31.1V0H11L0,31.1H4.88l2.25-6.94c.62-1.36,1.22-1.43,2.33-1.83l5.71-1.83V31.07h.35v.06ZM8.94,18.58,13.37,4.92h1.8V16.58Z"/><polygon class="cls-1" points="61.72 3.69 58.58 0.54 58.32 0.54 55.18 3.68 55.18 3.95 58.33 7.09 58.57 7.09 61.72 3.94 61.72 3.69"/></g></g></g></g></svg>