<svg version="1.1" xmlns="http://www.w3.org/2000/svg" x="0px" y="0px"
	 viewBox="0 0 141 74.9" width="141" height="74.9" preserveAspectRatio="xMinYMax meet">
<style type="text/css">
	.st0{fill:url(#SVGID_1_);stroke:#333333;stroke-width:0.7601;}
	.st1{fill:#FFFFFF;}
	.st2{fill:#FEFEFE;}
	.st3{fill:#FDFDFD;}
	.st4{fill:#FCFCFC;}
	.st5{fill:#FBFBFB;}
	.st6{fill:#FAFAFA;}
	.st7{fill:#F9F9F9;}
	.st8{fill:#F8F8F8;}
	.st9{fill:#F7F7F7;}
	.st10{fill:#F6F6F6;}
	.st11{fill:#F5F5F5;}
	.st12{fill:#F4F4F4;}
	.st13{fill:#F3F3F3;}
	.st14{fill:#F2F2F2;}
	.st15{fill:#F1F1F1;}
	.st16{fill:#F0F0F0;}
	.st17{fill:#EFEFEF;}
	.st18{fill:#EEEEEE;}
	.st19{fill:#EDEDED;}
	.st20{fill:#ECECEC;}
	.st21{fill:#EBEBEB;}
	.st22{fill:#EAEAEA;}
	.st23{fill:#E9E9E9;}
	.st24{fill:#E8E8E8;}
	.st25{fill:#E7E7E7;}
	.st26{fill:#E6E6E6;}
	.st27{fill:#E5E5E5;}
	.st28{fill:#E4E4E4;}
	.st29{fill:#E3E3E3;}
	.st30{fill:#E2E2E2;}
	.st31{fill:#E1E1E1;}
	.st32{fill:#E0E0E0;}
	.st33{fill:#DFDFDF;}
	.st34{fill:#DEDEDE;}
	.st35{fill:#DDDDDD;}
	.st36{fill:#DCDCDC;}
	.st37{fill:#DBDBDB;}
	.st38{fill:#DADADA;}
	.st39{fill:#D9D9D9;}
	.st40{fill:#D8D8D8;}
	.st41{fill:#D7D7D7;}
	.st42{fill:#D6D6D6;}
	.st43{fill:#D5D5D5;}
	.st44{fill:#D4D4D4;}
	.st45{fill:#D3D3D3;}
	.st46{fill:#D2D2D2;}
	.st47{fill:#D1D1D1;}
	.st48{fill:#D0D0D0;}
	.st49{fill:#CFCFCF;}
	.st50{fill:#CECECE;}
	.st51{fill:#CDCDCD;}
	.st52{fill:#CCCCCC;}
	.st53{fill:#CBCBCB;}
	.st54{fill:#CACACA;}
	.st55{fill:#C9CACA;}
	.st56{fill:#C8C9C9;}
	.st57{fill:#C7C8C8;}
	.st58{fill:#C6C7C7;}
	.st59{fill:#C5C6C6;}
	.st60{fill:#C5C5C5;}
	.st61{fill:#C4C4C4;}
	.st62{fill:#C3C3C3;}
	.st63{fill:#C2C2C2;}
	.st64{fill:#C1C1C1;}
	.st65{fill:#C0C0C0;}
	.st66{fill:#BFBFBF;}
	.st67{fill:#BEBEBE;}
	.st68{fill:#BDBDBD;}
	.st69{fill:#BCBCBC;}
	.st70{fill:#BBBBBB;}
	.st71{fill:#BABABA;}
	.st72{fill:#B9B9B9;}
	.st73{fill:#B8B8B8;}
	.st74{fill:#B7B7B7;}
	.st75{fill:#B6B6B6;}
	.st76{fill:#B5B5B5;}
	.st77{fill:#B4B4B4;}
	.st78{fill:#B3B3B3;}
	.st79{fill:#B2B2B2;}
	.st80{fill:#B1B1B1;}
	.st81{fill:#B0B0B0;}
	.st82{fill:#AFAFAF;}
	.st83{fill:#AEAEAE;}
	.st84{fill:#ADADAD;}
	.st85{fill:#ACACAC;}
	.st86{fill:#ABABAB;}
	.st87{fill:#AAAAAA;}
	.st88{fill:#A9A9A9;}
	.st89{fill:#A8A8A8;}
	.st90{fill:#A7A7A7;}
	.st91{fill:#A6A6A6;}
	.st92{fill:#3B4485;stroke:#333333;stroke-width:0.1467;}
	.st93{fill:url(#SVGID_2_);stroke:#333333;stroke-width:0.5068;}
	.st94{fill:url(#SVGID_3_);stroke:#333333;stroke-width:0.5068;}
	.st95{fill:url(#SVGID_4_);stroke:#333333;stroke-width:0.5068;}
	.st96{fill:#B3B3B3;stroke:#333333;stroke-width:0.5068;}
</style>
<g>
	<linearGradient id="SVGID_1_" gradientUnits="userSpaceOnUse" x1="69.1883" y1="57.6758" x2="69.1883" y2="60.38">
		<stop  offset="0" style="stop-color:#FFFFFF"/>
		<stop  offset="0.4663" style="stop-color:#A6A6A6"/>
	</linearGradient>
	<path class="st0" d="M38.6,34.3c0,0,21.2-32.4,21.5-32.9c0.4,0.4,23.8,24.4,23.8,24.4s8.7-11.6,9-12c0.4,0.4,42.3,44.6,43.1,45.4
		c-1.2,0-132.6,0-133.6,0C3,58.4,27,26.2,27.3,25.8c0.4,0.3,11.2,8.7,11.2,8.7L38.6,34.3z"/>
	<g>
		<path class="st1" d="M59.6,4.5L39.6,35l0,0c0,0-0.5,0.7-0.9,1.4c-1.5-1.2-11.2-8.8-11.2-8.8L4.9,57.9H133L93,15.7
			c0,0-7.8,10.4-9,12C82.5,26.2,60.3,3.4,60.3,3.4L59.6,4.5z"/>
		<path class="st2" d="M93,15.8c0,0,39.9,42.1,39.9,42.1c0,0-128,0-128,0c0,0,22.5-30.3,22.5-30.3c0,0,9.8,7.6,11.2,8.8
			c0.4-0.7,0.9-1.4,0.9-1.4l0,0l1.4-2.1l0,0c0,0,18.6-28.4,18.6-28.4c0,0,0.7-1,0.7-1c0,0,22.2,22.7,23.7,24.3
			C85.2,26.2,93,15.8,93,15.8z"/>
		<path class="st3" d="M93,15.8c0,0,39.9,42.1,39.9,42.1c0,0-127.8,0-127.9,0c0,0,22.5-30.2,22.5-30.2c0,0,9.8,7.7,11.2,8.8
			c0.4-0.6,0.9-1.4,0.9-1.4l0,0L41,33l0,0c0,0,18.6-28.4,18.6-28.4c0,0,0.7-1,0.7-1C60.4,3.6,82.5,26.3,84,27.8
			C85.2,26.3,93,15.8,93,15.8z"/>
		<path class="st4" d="M93,15.8c0,0,39.8,42,39.8,42c-0.1,0-127.7,0-127.7,0c0,0,22.4-30.1,22.4-30.2c0,0,9.8,7.7,11.2,8.8
			c0.4-0.6,0.9-1.4,0.9-1.4l0,0L41,33l0,0c0,0,18.6-28.4,18.6-28.4c0,0,0.7-1,0.7-1C60.5,3.7,82.5,26.3,84,27.9
			C85.2,26.3,93,15.9,93,15.8z"/>
		<path class="st5" d="M93,15.9c0,0,39.7,41.9,39.8,41.9c-0.1,0-127.6,0-127.6,0c0,0,22.4-30.1,22.4-30.1c0,0,9.8,7.7,11.2,8.8
			c0.4-0.6,0.9-1.4,0.9-1.4l0,0L41,33l0,0c0,0,18.6-28.4,18.6-28.4c0,0,0.7-1,0.7-1C60.5,3.8,82.5,26.4,84,27.9
			C85.2,26.4,93,15.9,93,15.9z"/>
		<path class="st6" d="M93,15.9c0,0,39.6,41.8,39.7,41.9c-0.1,0-127.4,0-127.5,0c0-0.1,22.3-30,22.3-30c0,0,9.8,7.7,11.2,8.8
			c0.4-0.6,0.9-1.4,0.9-1.4l0,0l1.4-2.1l0,0c0,0,18.6-28.4,18.6-28.4c0,0,0.7-1,0.7-1C60.6,3.9,82.6,26.5,84,28
			C85.1,26.4,93,16,93,15.9z"/>
		<path class="st7" d="M93,16c0,0,39.5,41.7,39.6,41.8c-0.1,0-127.3,0-127.4,0c0.1-0.1,22.3-29.9,22.3-30c0,0,9.8,7.7,11.2,8.8
			c0.4-0.6,0.9-1.4,0.9-1.4l0,0l1.4-2.1l0,0c0,0,18.6-28.4,18.6-28.5c0,0,0.7-1,0.7-0.9C60.6,4,82.6,26.5,84,28
			C85.1,26.5,93,16,93,16z"/>
		<path class="st8" d="M93,16c0,0,39.5,41.6,39.6,41.7c-0.1,0-127.2,0-127.3,0c0.1-0.1,22.2-29.9,22.2-29.9c0,0,9.9,7.7,11.2,8.8
			c0.4-0.6,0.9-1.4,0.9-1.4l0,0l1.4-2.1l0,0c0,0,18.6-28.4,18.6-28.5c0,0,0.7-0.9,0.7-0.9C60.7,4.1,82.6,26.6,84,28
			C85.1,26.6,93,16.1,93,16z"/>
		<path class="st9" d="M93,16c0.1,0.1,39.4,41.6,39.5,41.7c-0.2,0-127,0-127.2,0c0.1-0.1,22.1-29.8,22.2-29.8
			c0.1,0,9.9,7.7,11.2,8.8c0.4-0.6,0.9-1.4,0.9-1.4l0,0l1.4-2.1l0,0c0,0,18.6-28.4,18.6-28.5c0,0,0.7-0.9,0.7-0.9
			C60.8,4.2,82.6,26.6,84,28.1C85.1,26.6,93,16.1,93,16z"/>
		<path class="st10" d="M93,16.1c0.1,0.1,39.3,41.5,39.4,41.6c-0.2,0-126.9,0-127.1,0C5.5,57.6,27.5,28,27.5,27.9
			c0.1,0,9.9,7.8,11.2,8.8c0.4-0.6,0.9-1.4,0.9-1.4l0,0l1.4-2.1l0,0c0,0,18.6-28.4,18.6-28.5c0,0,0.7-0.9,0.7-0.9
			C60.8,4.3,82.6,26.7,84,28.1C85.1,26.7,93,16.2,93,16.1z"/>
		<path class="st11" d="M93,16.1c0.1,0.1,39.2,41.4,39.4,41.5c-0.2,0-126.8,0-126.9,0C5.6,57.5,27.5,28,27.5,28
			c0.1,0.1,9.9,7.8,11.2,8.8c0.4-0.6,0.9-1.4,0.9-1.4l0,0l1.4-2.1l0,0c0,0,18.6-28.4,18.6-28.5c0,0,0.7-0.9,0.7-0.8
			C60.9,4.4,82.7,26.8,84,28.2C85.1,26.7,93,16.2,93,16.1z"/>
		<path class="st12" d="M93,16.2c0.1,0.1,39.2,41.3,39.3,41.5c-0.2,0-126.6,0-126.8,0c0.1-0.1,22-29.6,22-29.6
			c0.1,0.1,9.9,7.8,11.2,8.8c0.4-0.6,0.9-1.4,0.9-1.4l0,0l1.4-2.1l0,0c0,0,18.6-28.4,18.6-28.5c0,0,0.7-0.9,0.7-0.8
			C60.9,4.5,82.7,26.8,84,28.2C85.1,26.8,93,16.3,93,16.2z"/>
		<path class="st13" d="M93,16.2c0.1,0.1,39.1,41.2,39.2,41.4c-0.2,0-126.5,0-126.7,0c0.1-0.1,21.9-29.5,22-29.6
			c0.1,0.1,10,7.8,11.2,8.8c0.4-0.6,0.9-1.4,0.9-1.4l0,0l1.4-2.1l0,0c0,0,18.6-28.4,18.7-28.5c0,0,0.6-0.9,0.7-0.8
			C61,4.6,82.7,26.9,84,28.2C85.1,26.8,93,16.3,93,16.2z"/>
		<path class="st14" d="M93,16.3c0.1,0.1,39,41.2,39.2,41.3c-0.3,0-126.4,0-126.6,0c0.1-0.2,21.9-29.4,21.9-29.5
			c0.1,0.1,10,7.8,11.2,8.8c0.4-0.6,0.9-1.4,0.9-1.4l0,0l1.4-2.1l0,0c0,0,18.6-28.4,18.7-28.5c0,0,0.6-0.9,0.7-0.8
			C61.1,4.7,82.7,26.9,84,28.3C85.1,26.9,93,16.4,93,16.3z"/>
		<path class="st15" d="M93,16.3c0.1,0.1,38.9,41.1,39.1,41.3c-0.3,0-126.2,0-126.5,0c0.1-0.2,21.8-29.4,21.9-29.5
			c0.1,0.1,10,7.8,11.2,8.8c0.4-0.6,0.9-1.4,0.9-1.4l0,0l1.4-2.1l0,0c0,0,18.6-28.4,18.7-28.5c0,0,0.6-0.8,0.7-0.8
			C61.1,4.8,82.7,27,84,28.3C85,27,93,16.4,93,16.3z"/>
		<path class="st16" d="M93,16.3c0.1,0.1,38.8,41,39,41.2c-0.3,0-126.1,0-126.4,0c0.1-0.2,21.8-29.3,21.8-29.4
			c0.1,0.1,10,7.8,11.2,8.8c0.4-0.6,0.9-1.4,0.9-1.4l0,0l1.4-2.1l0,0c0,0,18.6-28.4,18.7-28.5c0,0,0.6-0.8,0.7-0.7
			C61.2,4.9,82.7,27,84,28.4C85,27,93,16.5,93,16.3z"/>
		<path class="st17" d="M93.1,16.4c0.1,0.1,38.8,40.9,39,41.1c-0.3,0-126,0-126.2,0c0.1-0.2,21.7-29.2,21.8-29.3
			c0.1,0.1,10,7.9,11.2,8.8c0.4-0.5,0.9-1.4,0.9-1.4l0,0l1.4-2.1l0,0c0,0,18.6-28.4,18.7-28.5c0,0,0.6-0.8,0.7-0.7
			C61.2,5,82.8,27.1,84,28.4C85,27.1,93,16.5,93.1,16.4z"/>
		<path class="st18" d="M93.1,16.4c0.1,0.1,38.7,40.8,38.9,41.1c-0.3,0-125.9,0-126.1,0C6,57.3,27.5,28.3,27.6,28.2
			c0.1,0.1,10,7.9,11.2,8.8c0.4-0.5,0.9-1.4,0.9-1.4l0,0l1.4-2.1l0,0c0,0,18.6-28.4,18.7-28.5c0,0,0.6-0.8,0.7-0.7
			C61.3,5.1,82.8,27.2,84,28.4C85,27.1,93,16.6,93.1,16.4z"/>
		<path class="st19" d="M93.1,16.5c0.1,0.1,38.6,40.7,38.8,41c-0.3,0-125.7,0-126,0c0.2-0.2,21.6-29.1,21.7-29.2
			c0.1,0.1,10.1,7.9,11.2,8.8c0.3-0.5,0.9-1.4,0.9-1.4l0,0l1.4-2.1l0,0c0,0,18.6-28.4,18.7-28.5c0,0,0.6-0.8,0.7-0.7
			C61.4,5.2,82.8,27.2,84,28.5C85,27.2,93,16.6,93.1,16.5z"/>
		<path class="st20" d="M93.1,16.5c0.1,0.1,38.5,40.7,38.8,40.9c-0.4,0-125.6,0-125.9,0c0.2-0.2,21.6-29,21.7-29.1
			c0.1,0.1,10.1,7.9,11.2,8.8c0.3-0.5,0.9-1.4,0.9-1.4l0,0l1.4-2.1l0,0c0,0,18.6-28.4,18.7-28.5c0,0,0.6-0.8,0.7-0.7
			C61.4,5.3,82.8,27.3,84,28.5C85,27.3,93,16.6,93.1,16.5z"/>
		<path class="st21" d="M93.1,16.5c0.1,0.1,38.5,40.6,38.7,40.9c-0.4,0-125.5,0-125.8,0c0.2-0.2,21.5-28.9,21.6-29.1
			c0.1,0.1,10.1,7.9,11.2,8.8c0.3-0.5,0.9-1.4,0.9-1.4l0,0l1.4-2.1l0,0c0,0,18.6-28.4,18.7-28.5c0,0,0.6-0.7,0.7-0.6
			c0.9,1,22.3,22.9,23.5,24.1C85,27.3,92.9,16.7,93.1,16.5z"/>
		<path class="st22" d="M93.1,16.6c0.1,0.1,38.4,40.5,38.7,40.8c-0.4,0-125.3,0-125.7,0c0.2-0.3,21.5-28.9,21.6-29
			c0.1,0.1,10.1,7.9,11.2,8.8c0.3-0.5,0.9-1.4,0.9-1.4l0,0l1.4-2.1l0,0c0,0,18.6-28.4,18.7-28.6c0,0,0.6-0.7,0.7-0.6
			c1,1,22.3,22.9,23.5,24.1C85,27.4,92.9,16.7,93.1,16.6z"/>
		<path class="st23" d="M93.1,16.6c0.1,0.2,38.3,40.4,38.6,40.7c-0.4,0-125.2,0-125.6,0c0.2-0.3,21.4-28.8,21.5-28.9
			c0.1,0.1,10.1,7.9,11.3,8.8c0.3-0.5,0.9-1.4,0.9-1.4l0,0l1.4-2.1l0,0c0,0,18.6-28.4,18.7-28.6c0,0,0.6-0.7,0.7-0.6
			c1,1.1,22.3,22.9,23.5,24.1C85,27.4,92.9,16.8,93.1,16.6z"/>
		<path class="st24" d="M93.1,16.7c0.2,0.2,38.2,40.3,38.5,40.6c-0.4,0-125.1,0-125.4,0C6.4,57,27.5,28.6,27.6,28.4
			c0.1,0.1,10.2,8,11.3,8.8c0.3-0.5,0.9-1.4,0.9-1.4l0,0l1.4-2.1l0,0c0,0,18.6-28.4,18.7-28.6c0,0,0.6-0.7,0.7-0.6
			c1.1,1.1,22.3,22.9,23.5,24.1C85,27.5,92.9,16.8,93.1,16.7z"/>
		<path class="st25" d="M93.1,16.7c0.2,0.2,38.1,40.3,38.5,40.6c-0.5,0-124.9,0-125.3,0C6.4,57,27.5,28.6,27.6,28.5
			c0.2,0.1,10.2,8,11.3,8.8c0.3-0.5,0.9-1.4,0.9-1.4l0,0l1.4-2.1l0,0c0,0,18.6-28.4,18.7-28.6c0,0,0.6-0.7,0.7-0.5
			c1.1,1.2,22.3,22.9,23.5,24.1C84.9,27.6,92.9,16.9,93.1,16.7z"/>
		<path class="st26" d="M93.1,16.8c0.2,0.2,38.1,40.2,38.4,40.5c-0.5,0-124.8,0-125.2,0C6.5,57,27.5,28.7,27.6,28.5
			c0.2,0.1,10.2,8,11.3,8.8c0.3-0.5,0.9-1.4,0.9-1.4l0,0l1.4-2.1l0,0c0,0,18.6-28.4,18.7-28.6c0,0,0.6-0.7,0.7-0.5
			c1.2,1.2,22.3,22.9,23.4,24C84.9,27.6,92.9,16.9,93.1,16.8z"/>
		<path class="st27" d="M93.1,16.8c0.2,0.2,38,40.1,38.3,40.4c-0.5,0-124.7,0-125.1,0c0.2-0.3,21.2-28.5,21.3-28.7
			c0.2,0.1,10.2,8,11.3,8.8c0.3-0.5,0.9-1.4,0.9-1.4l0,0l1.4-2.1l0,0c0,0,18.6-28.4,18.7-28.6c0,0,0.6-0.6,0.7-0.5
			C61.8,6,83,27.7,84.1,28.8C84.9,27.7,92.9,17,93.1,16.8z"/>
		<path class="st28" d="M93.1,16.8c0.2,0.2,37.9,40,38.3,40.4c-0.5,0-124.5,0-125,0c0.2-0.3,21.1-28.4,21.3-28.6
			c0.2,0.1,10.2,8,11.3,8.8c0.3-0.5,0.9-1.4,0.9-1.4l0,0l1.4-2.1l0,0c0,0,18.6-28.4,18.7-28.6c0,0,0.6-0.6,0.7-0.5
			c1.3,1.3,22.3,22.9,23.4,24C84.9,27.7,92.9,17,93.1,16.8z"/>
		<path class="st29" d="M93.1,16.9c0.2,0.2,37.8,39.9,38.2,40.3c-0.5,0-124.4,0-124.9,0c0.3-0.3,21.1-28.4,21.2-28.5
			c0.2,0.1,10.2,8,11.3,8.8c0.3-0.5,0.9-1.4,0.9-1.4l0,0l1.4-2.1l0,0c0,0,18.6-28.4,18.7-28.6c0,0,0.6-0.6,0.7-0.5
			C62,6.2,83,27.8,84.1,28.9C84.9,27.8,92.9,17.1,93.1,16.9z"/>
		<path class="st30" d="M93.1,16.9c0.2,0.2,37.8,39.8,38.1,40.2c-0.6,0-124.3,0-124.7,0c0.3-0.4,21-28.3,21.2-28.5
			c0.2,0.1,10.3,8,11.3,8.8c0.3-0.5,0.9-1.4,0.9-1.4l0,0l1.4-2.1l0,0c0,0,18.6-28.4,18.7-28.6c0,0,0.6-0.6,0.7-0.4
			C62,6.3,83,27.9,84.1,28.9C84.9,27.8,92.9,17.1,93.1,16.9z"/>
		<path class="st31" d="M93.1,17c0.2,0.2,37.7,39.8,38.1,40.2c-0.6,0-124.1,0-124.6,0c0.3-0.4,21-28.2,21.1-28.4
			c0.2,0.2,10.3,8.1,11.3,8.8c0.3-0.4,0.9-1.4,0.9-1.4l0,0l1.4-2.1l0,0c0,0,18.6-28.4,18.7-28.6c0,0,0.6-0.6,0.7-0.4
			C62.1,6.4,83,27.9,84.1,29C84.9,27.9,92.9,17.2,93.1,17z"/>
		<path class="st32" d="M93.1,17c0.2,0.2,37.6,39.7,38,40.1c-0.6,0-124,0-124.5,0C6.9,56.7,27.5,29,27.7,28.8
			c0.2,0.2,10.3,8.1,11.3,8.8c0.3-0.4,0.9-1.4,0.9-1.4l0,0l1.4-2.1l0,0c0,0,18.6-28.4,18.7-28.6c0,0,0.6-0.6,0.7-0.4
			C62.1,6.5,83.1,28,84.1,29C84.9,28,92.9,17.2,93.1,17z"/>
		<path class="st33" d="M93.1,17c0.2,0.2,37.5,39.6,37.9,40c-0.6,0-123.9,0-124.4,0c0.3-0.4,20.9-28.1,21-28.3
			c0.2,0.2,10.3,8.1,11.3,8.8c0.3-0.4,0.9-1.4,0.9-1.4l0,0l1.4-2.1l0,0c0,0,18.6-28.4,18.7-28.6c0,0,0.6-0.6,0.7-0.4
			c1.5,1.5,22.4,22.9,23.4,24C84.9,28,92.9,17.3,93.1,17z"/>
		<path class="st34" d="M93.1,17.1c0.2,0.2,37.5,39.5,37.9,40c-0.6,0-123.7,0-124.3,0c0.3-0.4,20.8-28,21-28.2
			c0.2,0.2,10.3,8.1,11.3,8.8c0.3-0.4,0.9-1.4,0.9-1.4l0,0l1.4-2.1l0,0c0,0,18.6-28.4,18.7-28.6c0,0,0.6-0.5,0.7-0.4
			c1.5,1.6,22.4,23,23.4,24C84.8,28.1,92.9,17.3,93.1,17.1z"/>
		<path class="st35" d="M93.1,17.1c0.2,0.2,37.4,39.4,37.8,39.9c-0.7,0-123.6,0-124.2,0c0.3-0.4,20.8-27.9,20.9-28.2
			C27.9,29,38,37,38.9,37.7c0.3-0.4,0.9-1.4,0.9-1.4l0,0l1.4-2.1l0,0c0,0,18.6-28.4,18.8-28.6c0,0,0.6-0.5,0.7-0.3
			c1.6,1.6,22.4,23,23.4,23.9C84.8,28.1,92.9,17.4,93.1,17.1z"/>
		<path class="st36" d="M93.1,17.2c0.2,0.2,37.3,39.4,37.7,39.8c-0.7,0-123.5,0-124.1,0c0.3-0.4,20.7-27.9,20.9-28.1
			c0.2,0.2,10.4,8.1,11.3,8.8c0.3-0.4,0.9-1.4,0.9-1.4l0,0l1.4-2.1l0,0c0,0,18.6-28.4,18.8-28.7c0,0,0.6-0.5,0.7-0.3
			c1.6,1.7,22.4,23,23.3,23.9C84.8,28.2,92.9,17.4,93.1,17.2z"/>
		<path class="st37" d="M93.1,17.2c0.2,0.3,37.2,39.3,37.7,39.8c-0.7,0-123.3,0-123.9,0c0.3-0.4,20.7-27.8,20.8-28
			c0.2,0.2,10.4,8.1,11.3,8.8c0.3-0.4,0.9-1.4,0.9-1.4l0,0l1.4-2.1l0,0c0,0,18.6-28.4,18.8-28.7c0,0,0.6-0.5,0.7-0.3
			c1.7,1.7,22.4,23,23.3,23.9C84.8,28.3,92.9,17.5,93.1,17.2z"/>
		<path class="st38" d="M93.1,17.3c0.2,0.3,37.1,39.2,37.6,39.7c-0.7,0-123.2,0-123.8,0c0.3-0.5,20.6-27.7,20.8-28
			c0.2,0.2,10.4,8.2,11.3,8.8c0.3-0.4,0.9-1.4,0.9-1.4l0,0l1.4-2.1l0,0c0,0,18.6-28.4,18.8-28.7c0,0,0.6-0.5,0.7-0.3
			c1.7,1.8,22.4,23,23.3,23.9C84.8,28.3,92.9,17.5,93.1,17.3z"/>
		<path class="st39" d="M93.1,17.3c0.3,0.3,37.1,39.1,37.6,39.6c-0.7,0-123.1,0-123.7,0C7.3,56.4,27.5,29.3,27.7,29
			c0.2,0.2,10.4,8.2,11.3,8.8c0.3-0.4,0.9-1.4,0.9-1.4l0,0l1.4-2.1l0,0c0,0,18.6-28.4,18.8-28.7c0,0,0.6-0.5,0.7-0.3
			c1.8,1.8,22.4,23,23.3,23.9C84.8,28.4,92.9,17.6,93.1,17.3z"/>
		<path class="st40" d="M93.1,17.3c0.3,0.3,37,39,37.5,39.6c-0.8,0-123,0-123.6,0c0.4-0.5,20.5-27.6,20.7-27.8
			c0.3,0.2,10.4,8.2,11.3,8.8c0.2-0.4,0.9-1.4,0.9-1.4l0,0l1.4-2.1l0,0c0,0,18.6-28.3,18.8-28.7c0,0,0.5-0.4,0.8-0.2
			c1.8,1.9,22.4,23,23.3,23.9C84.8,28.4,92.9,17.6,93.1,17.3z"/>
		<path class="st41" d="M93.1,17.4c0.3,0.3,36.9,38.9,37.4,39.5c-0.8,0-122.8,0-123.5,0c0.4-0.5,20.4-27.5,20.6-27.8
			c0.3,0.2,10.5,8.2,11.3,8.8c0.2-0.4,0.9-1.4,0.9-1.4l0,0l1.4-2.1l0,0c0,0,18.6-28.3,18.8-28.7c0,0,0.5-0.4,0.8-0.2
			c1.9,1.9,22.4,23,23.3,23.9C84.8,28.5,92.9,17.7,93.1,17.4z"/>
		<path class="st42" d="M93.1,17.4c0.3,0.3,36.8,38.9,37.4,39.4c-0.8,0-122.7,0-123.4,0c0.4-0.5,20.4-27.4,20.6-27.7
			C28,29.3,38.2,37.3,39,38c0.2-0.4,0.9-1.4,0.9-1.4l0,0l1.4-2.1l0,0c0,0,18.6-28.3,18.8-28.7c0,0,0.5-0.4,0.8-0.2
			c1.9,2,22.4,23,23.3,23.9C84.8,28.6,92.9,17.7,93.1,17.4z"/>
		<path class="st43" d="M93.1,17.5c0.3,0.3,36.8,38.8,37.3,39.4c-0.8,0-122.6,0-123.2,0c0.4-0.5,20.3-27.4,20.5-27.6
			C28,29.4,38.2,37.4,39,38c0.2-0.4,0.9-1.4,0.9-1.4l0,0l1.4-2.1l0,0c0,0,18.6-28.3,18.8-28.7c0,0,0.5-0.4,0.8-0.2
			c2,2,22.4,23,23.3,23.9C84.7,28.6,92.9,17.8,93.1,17.5z"/>
		<path class="st44" d="M93.1,17.5c0.3,0.3,36.7,38.7,37.2,39.3c-0.8,0-122.4,0-123.1,0c0.4-0.5,20.3-27.3,20.5-27.6
			C28,29.4,38.2,37.4,39,38c0.2-0.3,0.9-1.4,0.9-1.4l0,0l1.4-2.1l0,0c0,0,18.6-28.3,18.8-28.7c0,0,0.5-0.4,0.8-0.1
			c2,2.1,22.5,23,23.3,23.8C84.7,28.7,92.9,17.8,93.1,17.5z"/>
		<path class="st45" d="M93.1,17.5c0.3,0.3,36.6,38.6,37.2,39.2c-0.8,0-122.3,0-123,0c0.4-0.5,20.2-27.2,20.5-27.5
			c0.3,0.2,10.5,8.2,11.3,8.8c0.2-0.3,0.9-1.4,0.9-1.4l0,0l1.4-2.1l0,0c0,0,18.6-28.3,18.8-28.7c0,0,0.5-0.4,0.8-0.1
			c2.1,2.1,22.5,23,23.2,23.8C84.7,28.7,92.9,17.9,93.1,17.5z"/>
		<path class="st46" d="M93.1,17.6c0.3,0.3,36.5,38.5,37.1,39.1c-0.9,0-122.2,0-122.9,0c0.4-0.6,20.2-27.2,20.4-27.4
			c0.3,0.2,10.5,8.3,11.3,8.8c0.2-0.3,0.9-1.4,0.9-1.4l0,0l1.4-2.1l0,0c0,0,18.5-28.3,18.8-28.7c0,0,0.5-0.3,0.8-0.1
			c2.1,2.2,22.5,23,23.2,23.8C84.7,28.8,92.9,17.9,93.1,17.6z"/>
		<path class="st47" d="M93.1,17.6c0.3,0.3,36.4,38.5,37,39.1c-0.9,0-122,0-122.8,0c0.4-0.6,20.1-27.1,20.4-27.4
			c0.3,0.2,10.6,8.3,11.3,8.8c0.2-0.3,0.9-1.4,0.9-1.4l0,0l1.4-2.1l0,0c0,0,18.5-28.3,18.8-28.7c0,0,0.5-0.3,0.8-0.1
			C63,8,83.4,28.9,84.1,29.6C84.7,28.8,92.9,18,93.1,17.6z"/>
		<path class="st48" d="M93.1,17.7c0.3,0.3,36.4,38.4,37,39c-0.9,0-121.9,0-122.7,0c0.4-0.6,20.1-27,20.3-27.3
			c0.3,0.2,10.6,8.3,11.3,8.8c0.2-0.3,0.9-1.4,0.9-1.4l0,0l1.4-2.1l0,0c0,0,18.5-28.3,18.8-28.7c0,0,0.5-0.3,0.8-0.1
			c2.2,2.3,22.5,23,23.2,23.8C84.7,28.9,92.9,18,93.1,17.7z"/>
		<path class="st49" d="M93.1,17.7C93.4,18,129.4,56,130,56.7c-0.9,0-121.8,0-122.6,0c0.4-0.6,20-26.9,20.3-27.3
			c0.3,0.2,10.6,8.3,11.3,8.8c0.2-0.3,0.9-1.4,0.9-1.4l0,0l1.4-2.1l0,0c0,0,18.5-28.3,18.8-28.7c0,0,0.5-0.3,0.8,0
			C63.2,8.2,83.4,29,84.1,29.7C84.7,29,92.9,18.1,93.1,17.7z"/>
		<path class="st50" d="M93.1,17.7c0.3,0.3,36.2,38.2,36.8,38.9c-0.9,0-121.6,0-122.4,0C8,56,27.5,29.8,27.7,29.4
			c0.3,0.2,10.6,8.3,11.3,8.8c0.2-0.3,0.9-1.4,0.9-1.4l0,0l1.4-2.1l0,0c0,0,18.5-28.3,18.8-28.8c0,0,0.5-0.3,0.8,0
			C63.2,8.3,83.4,29,84.1,29.8C84.7,29,92.9,18.1,93.1,17.7z"/>
		<path class="st51" d="M93.1,17.8c0.3,0.4,36.1,38.1,36.8,38.8c-1,0-121.5,0-122.3,0C8,56,27.5,29.8,27.8,29.5
			c0.3,0.3,10.6,8.3,11.3,8.8c0.2-0.3,0.9-1.4,0.9-1.4l0,0l1.4-2.1l0,0c0,0,18.5-28.3,18.8-28.8c0,0,0.5-0.3,0.8,0
			c2.3,2.4,22.5,23.1,23.2,23.8C84.7,29.1,92.9,18.2,93.1,17.8z"/>
		<path class="st52" d="M93.1,17.8c0.3,0.4,36.1,38,36.7,38.7c-1,0-121.4,0-122.2,0c0.5-0.6,19.9-26.7,20.1-27.1
			c0.3,0.3,10.6,8.3,11.3,8.8C39.2,38.1,40,37,40,37l0,0l1.4-2.1l0,0c0,0,18.5-28.3,18.8-28.8c0,0,0.5-0.3,0.8,0
			c2.4,2.4,22.5,23.1,23.2,23.8C84.7,29.1,92.8,18.2,93.1,17.8z"/>
		<path class="st53" d="M93.1,17.9c0.3,0.4,36,38,36.7,38.7c-1,0-121.2,0-122.1,0c0.5-0.6,19.8-26.7,20.1-27
			c0.3,0.3,10.7,8.4,11.3,8.8C39.2,38.1,40,37,40,37l0,0l1.4-2.1l0,0c0,0,18.5-28.3,18.8-28.8c0,0,0.5-0.2,0.8,0
			c2.4,2.5,22.5,23.1,23.2,23.7C84.6,29.2,92.8,18.3,93.1,17.9z"/>
		<path class="st54" d="M93.1,17.9c0.4,0.4,35.9,37.9,36.6,38.6c-1,0-121.1,0-122,0c0.5-0.7,19.8-26.6,20-26.9
			c0.3,0.3,10.7,8.4,11.3,8.8C39.2,38.2,40,37,40,37l0,0l1.4-2.1l0,0c0,0,18.5-28.3,18.8-28.8c0,0,0.5-0.2,0.8,0.1
			c2.5,2.5,22.5,23.1,23.1,23.7C84.6,29.3,92.8,18.3,93.1,17.9z"/>
		<path class="st55" d="M93.1,18c0.4,0.4,35.8,37.8,36.5,38.5c-1,0-121,0-121.9,0c0.5-0.7,19.7-26.5,20-26.9
			c0.3,0.3,10.7,8.4,11.3,8.9c0.2-0.3,0.9-1.4,0.9-1.4l0,0l1.4-2.1l0,0c0,0,18.5-28.3,18.8-28.8c0,0,0.5-0.2,0.8,0.1
			C63.5,8.8,83.5,29.3,84.1,30C84.6,29.3,92.8,18.4,93.1,18z"/>
		<path class="st56" d="M93.1,18c0.4,0.4,35.7,37.7,36.5,38.5c-1.1,0-120.8,0-121.7,0C8.4,55.8,27.5,30,27.8,29.7
			c0.4,0.3,10.7,8.4,11.3,8.9c0.2-0.3,0.9-1.4,0.9-1.4l0,0l1.4-2.1l0,0c0,0,18.5-28.3,18.8-28.8c0,0,0.5-0.2,0.8,0.1
			C63.6,8.9,83.5,29.4,84.1,30C84.6,29.4,92.8,18.4,93.1,18z"/>
		<path class="st57" d="M93.1,18c0.4,0.4,35.7,37.6,36.4,38.4c-1.1,0-120.7,0-121.6,0c0.5-0.7,19.6-26.4,19.9-26.7
			c0.4,0.3,10.7,8.4,11.3,8.9c0.2-0.3,0.9-1.4,0.9-1.4l0,0l1.4-2.1l0,0c0,0,18.5-28.3,18.9-28.8c0,0,0.5-0.2,0.8,0.1
			C63.6,9,83.6,29.4,84.1,30C84.6,29.4,92.8,18.5,93.1,18z"/>
		<path class="st58" d="M93.1,18.1c0.4,0.4,35.6,37.6,36.3,38.3c-1.1,0-120.6,0-121.5,0c0.5-0.7,19.5-26.3,19.8-26.7
			c0.4,0.3,10.8,8.4,11.3,8.9c0.2-0.2,0.9-1.4,0.9-1.4l0,0l1.4-2.1l0,0c0,0,18.5-28.3,18.9-28.8c0,0,0.5-0.2,0.8,0.2
			c2.7,2.7,22.5,23.1,23.1,23.7C84.6,29.5,92.8,18.5,93.1,18.1z"/>
		<path class="st59" d="M93.2,18.1c0.4,0.4,35.5,37.5,36.3,38.3c-1.1,0-120.4,0-121.4,0c0.5-0.7,19.5-26.2,19.8-26.6
			c0.4,0.3,10.8,8.4,11.3,8.9c0.2-0.2,0.9-1.4,0.9-1.4l0,0l1.4-2.1l0,0c0,0,18.5-28.3,18.9-28.8c0,0,0.5-0.1,0.8,0.2
			c2.7,2.8,22.5,23.1,23.1,23.7C84.6,29.6,92.8,18.6,93.2,18.1z"/>
		<path class="st60" d="M93.2,18.2c0.4,0.4,35.4,37.4,36.2,38.2c-1.1,0-120.3,0-121.3,0c0.5-0.7,19.4-26.2,19.7-26.5
			c0.4,0.3,10.8,8.5,11.3,8.9c0.1-0.2,0.9-1.4,0.9-1.4l0,0l1.4-2.1l0,0c0,0,18.5-28.3,18.9-28.8c0,0,0.5-0.1,0.8,0.2
			c2.8,2.8,22.6,23.1,23.1,23.7C84.6,29.6,92.8,18.6,93.2,18.2z"/>
		<path class="st61" d="M93.2,18.2c0.4,0.4,35.4,37.3,36.1,38.1c-1.2,0-120.2,0-121.2,0c0.6-0.7,19.4-26.1,19.7-26.5
			c0.4,0.3,10.8,8.5,11.3,8.9c0.1-0.2,0.9-1.4,0.9-1.4l0,0l1.4-2.1l0,0c0,0,18.5-28.3,18.9-28.8c0,0,0.5-0.1,0.8,0.2
			c2.8,2.9,22.6,23.1,23.1,23.7C84.6,29.7,92.8,18.7,93.2,18.2z"/>
		<path class="st62" d="M93.2,18.2c0.4,0.4,35.3,37.2,36.1,38.1c-1.2,0-120.1,0-121.1,0c0.6-0.8,19.3-26,19.6-26.4
			c0.4,0.3,10.8,8.5,11.3,8.9c0.1-0.2,0.9-1.4,0.9-1.4l0,0l1.4-2.1l0,0c0,0,18.5-28.3,18.9-28.8c0,0,0.5-0.1,0.8,0.2
			c2.9,2.9,22.6,23.1,23.1,23.6C84.5,29.7,92.8,18.7,93.2,18.2z"/>
		<path class="st63" d="M93.2,18.3c0.4,0.4,35.2,37.1,36,38c-1.2,0-119.9,0-120.9,0c0.6-0.8,19.3-25.9,19.6-26.3
			c0.4,0.3,10.8,8.5,11.3,8.9c0.1-0.2,0.9-1.4,0.9-1.4l0,0l1.4-2.1l0,0c0,0,18.5-28.3,18.9-28.8c0,0,0.5-0.1,0.8,0.3
			c2.9,3,22.6,23.1,23.1,23.6C84.5,29.8,92.8,18.8,93.2,18.3z"/>
		<path class="st64" d="M93.2,18.3c0.4,0.4,35.1,37.1,35.9,37.9c-1.2,0-119.8,0-120.8,0C8.9,55.5,27.5,30.4,27.8,30
			c0.4,0.3,10.9,8.5,11.3,8.9c0.1-0.2,0.9-1.4,0.9-1.4l0,0l1.4-2.1l0,0c0,0,18.5-28.3,18.9-28.9c0,0,0.5-0.1,0.8,0.3
			c2.9,3,22.6,23.2,23,23.6C84.5,29.9,92.8,18.8,93.2,18.3z"/>
		<path class="st65" d="M93.2,18.4c0.4,0.4,35,37,35.9,37.9c-1.2,0-119.7,0-120.7,0C8.9,55.4,27.5,30.4,27.8,30
			c0.4,0.3,10.9,8.5,11.3,8.9c0.1-0.2,0.9-1.4,0.9-1.4l0,0l1.4-2.1l0,0c0,0,18.5-28.3,18.9-28.9c0,0,0.5,0,0.8,0.3
			c3,3.1,22.6,23.2,23,23.6C84.5,29.9,92.8,18.8,93.2,18.4z"/>
		<path class="st66" d="M93.2,18.4c0.4,0.5,35,36.9,35.8,37.8c-1.3,0-119.5,0-120.6,0C9,55.4,27.5,30.5,27.8,30
			c0.4,0.3,10.9,8.5,11.3,8.9c0.1-0.2,0.9-1.4,0.9-1.4l0,0l1.4-2.1l0,0c0,0,18.5-28.3,18.9-28.9c0,0,0.4,0,0.8,0.3
			c3,3.1,22.6,23.2,23,23.6C84.5,30,92.8,18.9,93.2,18.4z"/>
		<path class="st67" d="M93.2,18.5c0.4,0.5,34.9,36.8,35.7,37.7c-1.3,0-119.4,0-120.5,0C9,55.4,27.5,30.5,27.8,30.1
			c0.4,0.3,10.9,8.6,11.3,8.9c0.1-0.2,0.9-1.4,0.9-1.4l0,0l1.4-2.1l0,0c0,0,18.5-28.3,18.9-28.9c0,0,0.4,0,0.8,0.3
			c3.1,3.2,22.6,23.2,23,23.6C84.5,30,92.8,18.9,93.2,18.5z"/>
		<path class="st68" d="M93.2,18.5c0.4,0.5,34.8,36.7,35.7,37.6c-1.3,0-119.3,0-120.4,0c0.6-0.8,19-25.6,19.3-26
			c0.4,0.3,10.9,8.6,11.3,8.9c0.1-0.2,0.9-1.4,0.9-1.4l0,0l1.4-2.1l0,0c0,0,18.5-28.3,18.9-28.9c0,0,0.4,0,0.8,0.4
			c3.1,3.2,22.6,23.2,23,23.6C84.5,30.1,92.8,19,93.2,18.5z"/>
		<path class="st69" d="M93.2,18.5c0.5,0.5,34.7,36.7,35.6,37.6c-1.3,0-119.1,0-120.2,0c0.6-0.8,19-25.5,19.3-26
			c0.4,0.3,11,8.6,11.3,8.9c0.1-0.2,0.9-1.4,0.9-1.4l0,0l1.4-2.1l0,0c0,0,18.5-28.3,18.9-28.9c0,0.1,0.4,0,0.8,0.4
			c3.2,3.3,22.6,23.2,23,23.6C84.5,30.1,92.8,19,93.2,18.5z"/>
		<path class="st70" d="M93.2,18.6c0.5,0.5,34.7,36.6,35.6,37.5c-1.3,0-119,0-120.1,0c0.6-0.9,18.9-25.4,19.3-25.9
			c0.4,0.3,11,8.6,11.3,8.9c0.1-0.2,0.9-1.4,0.9-1.4l0,0l1.4-2.1l0,0c0,0,18.5-28.3,18.9-28.9c0,0.1,0.4,0,0.8,0.4
			c3.2,3.3,22.6,23.2,23,23.6C84.5,30.2,92.8,19.1,93.2,18.6z"/>
		<path class="st71" d="M93.2,18.6c0.5,0.5,34.6,36.5,35.5,37.4c-1.3,0-118.9,0-120,0c0.6-0.9,18.9-25.4,19.2-25.8
			c0.5,0.4,11,8.6,11.3,8.9c0.1-0.1,0.9-1.4,0.9-1.4l0,0l1.4-2.1l0,0c0,0,18.5-28.3,18.9-28.9c0.1,0.1,0.4,0,0.8,0.4
			c3.3,3.4,22.6,23.2,23,23.5C84.4,30.3,92.8,19.1,93.2,18.6z"/>
		<path class="st72" d="M93.2,18.7c0.5,0.5,34.5,36.4,35.4,37.4c-1.4,0-118.7,0-119.9,0c0.7-0.9,18.8-25.3,19.2-25.8
			c0.5,0.4,11,8.6,11.3,8.9c0.1-0.1,0.9-1.4,0.9-1.4l0,0l1.4-2.1l0,0c0,0,18.5-28.3,18.9-28.9c0.1,0.1,0.4,0.1,0.8,0.4
			c3.3,3.4,22.6,23.2,23,23.5C84.4,30.3,92.8,19.2,93.2,18.7z"/>
		<path class="st73" d="M93.2,18.7c0.5,0.5,34.4,36.3,35.4,37.3c-1.4,0-118.6,0-119.8,0c0.7-0.9,18.8-25.2,19.1-25.7
			c0.5,0.4,11,8.6,11.3,8.9c0.1-0.1,0.9-1.4,0.9-1.4l0,0l1.4-2.1l0,0c0,0,18.5-28.3,18.9-28.9c0.1,0.1,0.4,0.1,0.8,0.5
			c3.4,3.5,22.6,23.2,22.9,23.5C84.4,30.4,92.8,19.2,93.2,18.7z"/>
		<path class="st74" d="M93.2,18.7c0.5,0.5,34.4,36.2,35.3,37.2C127.1,56,10,56,8.8,56c0.7-0.9,18.7-25.2,19.1-25.6
			c0.5,0.4,11,8.7,11.3,8.9c0.1-0.1,0.9-1.4,0.9-1.4l0,0l1.4-2.1l0,0c0,0,18.5-28.3,18.9-28.9c0.1,0.1,0.4,0.1,0.8,0.5
			c3.4,3.5,22.6,23.2,22.9,23.5C84.4,30.4,92.8,19.3,93.2,18.7z"/>
		<path class="st75" d="M93.2,18.8c0.5,0.5,34.3,36.2,35.2,37.2C127,56,10.1,56,8.9,56c0.7-0.9,18.6-25.1,19-25.6
			c0.5,0.4,11.1,8.7,11.3,8.9c0.1-0.1,0.9-1.4,0.9-1.4l0,0l1.4-2.1l0,0c0,0,18.5-28.3,18.9-28.9c0.1,0.1,0.4,0.1,0.8,0.5
			c3.5,3.5,22.7,23.2,22.9,23.5C84.4,30.5,92.8,19.3,93.2,18.8z"/>
		<path class="st76" d="M93.2,18.8c0.5,0.5,34.2,36.1,35.2,37.1c-1.4,0-118.2,0-119.4,0c0.7-0.9,18.6-25,19-25.5
			c0.5,0.4,11.1,8.7,11.3,8.9c0.1-0.1,0.9-1.4,0.9-1.4l0,0l1.4-2.1l0,0c0,0,18.5-28.3,18.9-28.9c0.1,0.1,0.4,0.1,0.8,0.5
			c3.5,3.6,22.7,23.2,22.9,23.5C84.4,30.6,92.8,19.4,93.2,18.8z"/>
		<path class="st77" d="M93.2,18.9c0.5,0.5,34.1,36,35.1,37c-1.5,0-118.1,0-119.3,0C9.7,55,27.5,31,27.9,30.5
			c0.5,0.4,11.1,8.7,11.3,8.9c0.1-0.1,0.9-1.4,0.9-1.4l0,0l1.4-2.1l0,0c0,0,18.5-28.3,18.9-28.9c0.1,0.1,0.4,0.1,0.8,0.6
			C64.8,11,84,30.6,84.2,30.9C84.4,30.6,92.8,19.4,93.2,18.9z"/>
		<path class="st78" d="M93.2,18.9c0.5,0.5,34,35.9,35,37c-1.5,0-117.9,0-119.2,0c0.7-1,18.5-24.9,18.9-25.4
			c0.5,0.4,11.1,8.7,11.3,8.9c0.1-0.1,0.9-1.4,0.9-1.4l0,0l1.4-2.1l0,0c0,0,18.5-28.3,18.9-28.9c0.1,0.1,0.4,0.2,0.8,0.6
			c3.6,3.7,22.7,23.2,22.9,23.5C84.4,30.7,92.8,19.5,93.2,18.9z"/>
		<path class="st79" d="M93.2,18.9c0.5,0.5,34,35.8,35,36.9c-1.5,0-117.8,0-119.1,0c0.7-1,18.4-24.8,18.8-25.3
			c0.5,0.4,11.1,8.7,11.3,8.9c0.1-0.1,0.9-1.4,0.9-1.4l0,0l1.4-2.2l0,0c0,0,18.5-28.3,19-29c0.1,0.1,0.4,0.2,0.8,0.6
			C65,11.2,84,30.7,84.2,30.9C84.4,30.7,92.8,19.5,93.2,18.9z"/>
		<path class="st80" d="M93.2,19c0.5,0.6,33.9,35.8,34.9,36.8c-1.5,0-117.7,0-119,0c0.7-1,18.4-24.7,18.8-25.2
			c0.5,0.4,11.1,8.7,11.3,8.9c0.1-0.1,0.9-1.4,0.9-1.4l0,0l1.4-2.2l0,0c0,0,18.5-28.3,19-29c0.1,0.1,0.4,0.2,0.8,0.6
			C65,11.3,84,30.8,84.2,31C84.3,30.8,92.8,19.6,93.2,19z"/>
		<path class="st81" d="M93.2,19c0.5,0.6,33.8,35.7,34.8,36.8c-1.5,0-117.5,0-118.9,0c0.7-1,18.3-24.7,18.7-25.2
			c0.5,0.4,11.2,8.7,11.3,8.9c0-0.1,0.9-1.4,0.9-1.4l0,0l1.4-2.2l0,0c0,0,18.5-28.3,19-29c0.1,0.1,0.4,0.2,0.8,0.6
			C65.1,11.4,84,30.9,84.2,31C84.3,30.9,92.8,19.6,93.2,19z"/>
		<path class="st82" d="M93.2,19.1c0.5,0.6,33.7,35.6,34.8,36.7c-1.6,0-117.4,0-118.7,0c0.7-1,18.3-24.6,18.7-25.1
			c0.5,0.4,11.2,8.8,11.3,8.9c0-0.1,0.9-1.4,0.9-1.4l0,0l1.4-2.2l0,0c0,0,18.5-28.3,19-29c0.1,0.1,0.4,0.2,0.8,0.7
			c3.8,3.9,22.7,23.3,22.8,23.4C84.3,30.9,92.7,19.7,93.2,19.1z"/>
		<path class="st83" d="M93.2,19.1c0.5,0.6,33.7,35.5,34.7,36.6c-1.6,0-117.3,0-118.6,0c0.8-1,18.2-24.5,18.6-25.1
			c0.5,0.4,11.2,8.8,11.3,8.9c0-0.1,0.9-1.4,0.9-1.4l0,0l1.4-2.2l0,0c0,0,18.5-28.3,19-29c0.1,0.1,0.4,0.2,0.8,0.7
			c3.8,3.9,22.7,23.3,22.8,23.4C84.3,31,92.7,19.7,93.2,19.1z"/>
		<path class="st84" d="M93.2,19.2c0.6,0.6,33.6,35.4,34.6,36.6c-1.6,0-117.1,0-118.5,0c0.8-1,18.2-24.4,18.6-25
			c0.5,0.4,11.2,8.8,11.3,8.9c0-0.1,0.9-1.4,0.9-1.4l0,0l1.4-2.2l0,0c0,0,18.5-28.3,19-29c0.1,0.1,0.4,0.3,0.8,0.7
			c3.9,4,22.7,23.3,22.8,23.4C84.3,31,92.7,19.8,93.2,19.2z"/>
		<path class="st85" d="M93.2,19.2c0.6,0.6,33.5,35.3,34.6,36.5c-1.6,0-117,0-118.4,0c0.8-1,18.1-24.4,18.5-24.9
			c0.5,0.4,11.2,8.8,11.3,8.9c0,0,0.9-1.4,0.9-1.4l0,0l1.4-2.2l0,0c0,0,18.5-28.3,19-29c0.1,0.1,0.4,0.3,0.8,0.7
			c3.9,4,22.7,23.3,22.8,23.4C84.3,31.1,92.7,19.8,93.2,19.2z"/>
		<path class="st86" d="M93.2,19.2c0.6,0.6,33.4,35.3,34.5,36.4c-1.6,0-116.9,0-118.3,0c0.8-1.1,18.1-24.3,18.5-24.9
			c0.5,0.4,11.3,8.8,11.3,8.9c0,0,0.9-1.4,0.9-1.4l0,0l1.4-2.2l0,0c0,0,18.5-28.3,19-29c0.1,0.1,0.4,0.3,0.8,0.7
			c4,4.1,22.7,23.3,22.8,23.4C84.3,31.1,92.7,19.9,93.2,19.2z"/>
		<path class="st87" d="M93.2,19.3c0.6,0.6,33.3,35.2,34.5,36.4c-1.7,0-116.8,0-118.2,0c0.8-1.1,18-24.2,18.4-24.8
			c0.6,0.4,11.3,8.8,11.3,8.9c0,0,0.9-1.4,0.9-1.4l0,0l1.4-2.2l0,0c0,0,18.5-28.3,19-29c0.1,0.1,0.4,0.3,0.8,0.8
			c4,4.1,22.7,23.3,22.8,23.4C84.3,31.2,92.7,19.9,93.2,19.3z"/>
		<path class="st88" d="M93.2,19.3c0.6,0.6,33.3,35.1,34.4,36.3c-1.7,0-116.6,0-118.1,0c0.8-1.1,18-24.2,18.4-24.7
			c0.6,0.4,11.3,8.8,11.3,8.9c0,0,0.9-1.4,0.9-1.4l0,0l1.4-2.2l0,0c0,0,18.5-28.3,19-29C60.7,7.2,61,7.5,61.4,8
			c4.1,4.2,22.7,23.3,22.8,23.4C84.3,31.3,92.7,20,93.2,19.3z"/>
		<path class="st89" d="M93.2,19.4c0.6,0.6,33.2,35,34.3,36.2c-1.7,0-116.5,0-117.9,0c0.8-1.1,17.9-24.1,18.3-24.7
			c0.6,0.4,11.3,8.9,11.3,8.9c0,0,0.9-1.4,0.9-1.4l0,0l1.4-2.2l0,0c0,0,18.5-28.3,19-29C60.7,7.3,61,7.5,61.5,8
			c4.1,4.2,22.7,23.3,22.8,23.4C84.3,31.3,92.7,20,93.2,19.4z"/>
		<path class="st90" d="M93.2,19.4c0.6,0.6,33.1,34.9,34.3,36.2c-1.7,0-116.4,0-117.8,0c0.8-1.1,17.9-24,18.3-24.6
			c0.6,0.5,11.3,8.9,11.3,8.9c0,0,0.9-1.4,0.9-1.4l0,0l1.4-2.2l0,0c0,0,18.5-28.3,19-29c0.1,0.1,0.4,0.4,0.8,0.8
			c4.2,4.3,22.7,23.3,22.8,23.3C84.2,31.4,92.7,20.1,93.2,19.4z"/>
		<path class="st91" d="M60.6,7.3c0.6,0.7,23.6,24.2,23.6,24.2s8.5-11.3,9-12c0.6,0.6,33,34.9,34.2,36.1c-1.7,0-116.2,0-117.7,0
			C10.5,54.4,27.5,31.6,28,31c0.6,0.5,11.3,8.9,11.3,8.9l2.3-3.6l0,0C41.6,36.3,60.1,8,60.6,7.3z"/>
	</g>
	<path class="st92" d="M60.6,7.3c0.6,0.7,23.6,24.2,23.6,24.2s8.5-11.3,9-12c0.6,0.6,33,34.9,34.2,36.1c-1.7,0-116.2,0-117.7,0
		C10.5,54.4,27.5,31.6,28,31c0.6,0.5,11.3,8.9,11.3,8.9l2.3-3.6l0,0C41.6,36.3,60.1,8,60.6,7.3z"/>
	<linearGradient id="SVGID_2_" gradientUnits="userSpaceOnUse" x1="24.0327" y1="45.9616" x2="31.5364" y2="55.8273">
		<stop  offset="0" style="stop-color:#FFFFFF"/>
		<stop  offset="1" style="stop-color:#A6A6A6"/>
	</linearGradient>
	<path class="st93" d="M28.6,35.9c0,1.9-0.1,10.2-0.1,10.2c0,0.1,0.1,0.3,0.2,0.3c0.1,0.1,0.3,0.1,0.4,0c0,0,4.4-3.2,5.4-3.9
		c0,1.3,0,9.7,0,10.4c-0.7,0-16.8,0-18.2,0C17,51.8,27.3,37.5,28.6,35.9z"/>
	<linearGradient id="SVGID_3_" gradientUnits="userSpaceOnUse" x1="52.5906" y1="34.7239" x2="67.1803" y2="55.1496">
		<stop  offset="0" style="stop-color:#FFFFFF"/>
		<stop  offset="1" style="stop-color:#A6A6A6"/>
	</linearGradient>
	<path class="st94" d="M61.3,12.9c0,2.1,0.1,12.7,0.1,12.7c0,0.1,0.1,0.3,0.2,0.3c0.1,0.1,0.3,0.1,0.4,0c0,0,5.3-3.1,6.3-3.7
		c-0.1,1.3-1.5,30-1.5,30.6c-0.7,0-24.5,0-25.8,0c0.6-1,5-8.4,5-8.4c0-0.1,0.1-0.1,0.1-0.2c0,0,0-0.1,0-0.1c0-0.1-0.1-0.2-0.2-0.2
		c0,0-3.4-1.6-4-1.9C42.2,41.3,60,14.8,61.3,12.9z"/>
	<linearGradient id="SVGID_4_" gradientUnits="userSpaceOnUse" x1="86.7338" y1="39.271" x2="88.262" y2="54.1395">
		<stop  offset="0" style="stop-color:#FFFFFF"/>
		<stop  offset="1" style="stop-color:#A6A6A6"/>
	</linearGradient>
	<path class="st95" d="M92.4,26.1c0,2,0,15.4,0,15.4c0,0.2,0.1,0.3,0.2,0.3c0.1,0.1,0.3,0,0.4-0.1c0,0,7-6.8,8.1-7.9
		c0,1.6,0,18.2,0,18.9c-0.7,0-26.5,0-27.9,0C74,51.7,91.1,27.9,92.4,26.1z"/>
	<path class="st96" d="M5.5,62.9h3.6l4.6,11h-3.6l-0.8-2.3H4.8L4,74H0.7L5.5,62.9z M8.6,69.8L7,65.3l-1.6,4.5H8.6z"/>
	<path class="st96" d="M25,65.3L22,66.1c-0.4-0.9-1.2-1.4-2.3-1.4c-0.5,0-0.9,0.1-1.2,0.3c-0.3,0.2-0.5,0.4-0.5,0.7
		c0,0.3,0.2,0.6,0.5,0.8c0.4,0.2,1.1,0.4,2.3,0.7c1,0.3,1.9,0.5,2.5,0.8c0.6,0.3,1.1,0.6,1.4,1.1c0.4,0.4,0.6,1,0.6,1.6
		c0,1-0.5,1.9-1.6,2.5c-1,0.7-2.4,1-4.2,1c-2.9,0-4.8-1-5.6-3l3.1-0.6c0.4,1.1,1.2,1.7,2.6,1.7c0.6,0,1.1-0.1,1.5-0.3
		c0.4-0.2,0.6-0.5,0.6-0.9c0-0.3-0.1-0.5-0.4-0.7c-0.3-0.2-0.9-0.4-1.8-0.7c-1.2-0.3-2.2-0.6-2.8-0.8c-0.6-0.2-1.1-0.6-1.5-1.1
		c-0.4-0.5-0.6-1-0.6-1.6c0-1,0.5-1.8,1.4-2.4c0.9-0.6,2.2-1,3.7-1C22.5,62.8,24.3,63.6,25,65.3z"/>
	<path class="st96" d="M27.5,62.9h5.1c1,0,1.7,0,2.3,0.1c0.5,0.1,1.1,0.2,1.6,0.5c0.5,0.3,1,0.6,1.3,1.1c0.3,0.5,0.5,1,0.5,1.6
		c0,1.4-0.8,2.4-2.3,2.9l3,4.8H35l-2.2-4.4H31V74h-3.6V62.9z M31,64.7v3.1h1.6c1.4,0,2.1-0.5,2.1-1.6c0-0.4-0.1-0.7-0.3-0.9
		c-0.2-0.2-0.4-0.4-0.7-0.5c-0.3-0.1-0.7-0.1-1.2-0.1H31z"/>
	<path class="st96" d="M48.4,69.9l3.3,0.1C51.6,71.3,51,72.3,50,73c-1,0.8-2.3,1.1-3.9,1.1c-2,0-3.5-0.5-4.5-1.5
		c-1-1-1.6-2.4-1.6-4.2c0-1.8,0.5-3.2,1.5-4.2c1-1,2.6-1.5,4.6-1.5c3.4,0,5.2,1.4,5.5,4.3l-3.2,0.2c-0.1-1.6-0.8-2.5-2.2-2.5
		c-0.7,0-1.3,0.3-1.8,0.8c-0.4,0.5-0.7,1.6-0.7,3.1c0,1.4,0.2,2.3,0.6,2.8c0.4,0.5,1,0.8,1.8,0.8C47.4,72.2,48.2,71.4,48.4,69.9z"/>
	<path class="st96" d="M58.3,62.9h9.6v1.9h-6v2.9h4.7v1.9h-4.7V74h-3.6V62.9z"/>
	<path class="st96" d="M69.1,62.9h9.8v1.9h-6.2v2.6h4.8v1.9h-4.8V72h6.2v2h-9.8V62.9z"/>
	<path class="st96" d="M80.6,62.9h3.8c1.7,0,3,0.2,4,0.5c1,0.3,1.9,0.9,2.5,1.7c0.6,0.8,0.9,1.9,0.9,3.3c0,1-0.2,1.9-0.6,2.6
		c-0.4,0.8-0.9,1.4-1.5,1.8c-0.6,0.4-1.3,0.7-2.1,0.9C87,73.9,86,74,84.9,74h-4.2V62.9z M84.2,64.8v7.3h0.6c0.8,0,1.4-0.1,1.9-0.3
		c0.4-0.2,0.8-0.6,1.1-1.1c0.3-0.5,0.4-1.3,0.4-2.3c0-0.9-0.1-1.7-0.4-2.2c-0.3-0.5-0.7-0.9-1.1-1c-0.4-0.2-1-0.3-1.8-0.3H84.2z"/>
	<path class="st96" d="M94.3,62.9h9.8v1.9h-6.2v2.6h4.8v1.9h-4.8V72h6.2v2h-9.8V62.9z"/>
	<path class="st96" d="M105.8,62.9h5.1c1,0,1.7,0,2.3,0.1c0.5,0.1,1.1,0.2,1.6,0.5c0.5,0.3,1,0.6,1.3,1.1c0.3,0.5,0.5,1,0.5,1.6
		c0,1.4-0.8,2.4-2.3,2.9l3,4.8h-3.8l-2.2-4.4h-1.8V74h-3.6V62.9z M109.4,64.7v3.1h1.6c1.4,0,2.1-0.5,2.1-1.6c0-0.4-0.1-0.7-0.3-0.9
		c-0.2-0.2-0.4-0.4-0.7-0.5c-0.3-0.1-0.7-0.1-1.2-0.1H109.4z"/>
	<path class="st96" d="M121.9,62.9h3.6l4.6,11h-3.6l-0.8-2.3h-4.5l-0.8,2.3h-3.3L121.9,62.9z M125,69.8l-1.6-4.5l-1.6,4.5H125z"/>
	<path class="st96" d="M131.4,62.9h3.6v9h5.2v2h-8.7V62.9z"/>
</g>
</svg>
