<svg xmlns="http://www.w3.org/2000/svg" viewBox="0 0 81.71 39.08"><defs><style>.cls-1{fill:#fff;}</style></defs><title>avitae</title><g id="Layer_2" data-name="Layer 2"><g id="logos"><g id="avitae"><path class="cls-1" d="M0,23.23c2.26,0,4.29,1,6.44,1.45A11.16,11.16,0,0,0,7.62,25a3.55,3.55,0,0,1,1.85.33c.47.3,1.36,0,2-.1,2.24-.19,4.14-1.56,6.41-1.59.65,0,1.28-.39,2-.45,1.89-.16,3.55.74,5.35.92.46.69,1.33.17,1.75.5a2.18,2.18,0,0,0,1.62.37c.72,0,1.25.73,2,.45,1.1-.41,2.27-.48,3.4-.78,2.26-.6,4.48-1.51,6.89-1.43,2.25.08,4.29,1,6.43,1.5a10.88,10.88,0,0,0,1.19.27c.62.06,1.29-.21,1.82.42.12.14.58.08.85,0,1.92-.53,4-.58,5.77-1.43,1-.47,2-.34,3-.66a3.07,3.07,0,0,1,3.08.34c1.73-.14,3.19,1,4.77,1.13S71.23,26.17,73,25c2.36-.14,4.52-1.12,6.78-1.66a12.39,12.39,0,0,1,2-.12V36.69a3.77,3.77,0,0,1-2.5.62,1.85,1.85,0,0,0-1,.23c-1.47.7-3.21.65-4.64,1.52a19.07,19.07,0,0,1-6.32-.64,16.26,16.26,0,0,0-4.37-1.13,15.94,15.94,0,0,0-7.79,1,11.79,11.79,0,0,1-8,.13c-1.89-.6-3.84-1-5.73-1.55a1.46,1.46,0,0,0-1.25.09c-.18.12-.26.36-.53.32-2.33-.34-4.24,1.16-6.45,1.45a15.88,15.88,0,0,1-5.19,0,31.52,31.52,0,0,1-4.32-1.26c-.72-.23-1.73.13-2.3-.25-.79-.53-1.29,0-1.88,0a9.62,9.62,0,0,0-3.91.71c-1.15.47-2.49.3-3.49,1.12a16.78,16.78,0,0,1-5.89-.63,14.45,14.45,0,0,0-4.8-1.13c-.49,0-.79-.67-1.36-.44ZM55.76,32.4c-1.15-1.09-.44-2.74-1.4-3.83H53.21c.22,1.27-.68,2.25-.48,3.64l-.84-.84c0-.56.22-1.32-.06-1.68s0-1.53-1.25-1.05c-.15,1.94.73,3.72,1.12,5.59,0,.21.32.49.88.4.08-.08.41-.25.45-.48.21-1.29.81-2.51.76-3.88a29.86,29.86,0,0,0,1.37,4.46c.41-.17.82.1,1.06-.21a54.55,54.55,0,0,1,1.34-5.84,1.15,1.15,0,0,0-1.29,0C56.51,29.94,55.44,31,55.76,32.4ZM19,28.9c-.5-1.07,1.22-.61.75-1.57a2.59,2.59,0,0,0-1.58-.07c-.36.54.15,1.21-.33,1.68-.55,0-.84.15-.6.74L18,30c.19,1.59-.12,3.17.17,4.69.38,0,.6,0,.82-.31V29.85a6.13,6.13,0,0,1,2.22.13v4.57a.69.69,0,0,0,.83-.08v-4.6c.64,0,1-.13.75-.91-.31,0-.85.09-.77-.56s1.36-.13.75-1.14a2.63,2.63,0,0,0-1.69.12V28.9ZM60,31.11c-.63.19-1.6-.31-2,.86v2l.63.64a2.7,2.7,0,0,0,2.14-.53c.37.63.93.78,1.7.29-1.28-1.76.24-4-1.14-5.86H58.67a1.63,1.63,0,0,0-.38,2.24c.91-.2.61-1.29,1.33-1.39.32,0,.72-.16,1,.15A1.33,1.33,0,0,1,60,31.11Zm-47.25-.46c.89.19,1-.64,1.55-.8a1,1,0,0,1,1,.15,1.68,1.68,0,0,1-.07,1,3.92,3.92,0,0,0-2.47,1.15v1.87l.53.53h3.33V30.21l-1-1.24H13.8C13.49,29.53,12.63,29.69,12.79,30.65Zm21.08-.09c0,1.39-.29,2.93,1,4.05h1.5l1.45-1c-.14-.52.22-1.1-.62-1.14-.47.28-.38,1.15-1.12,1.33l-.85,0a3.42,3.42,0,0,1,0-1.74h2.47V30l-1-1h-2Zm-3.61,4.06c.33-1.58-.4-3.32.7-4.76a1.66,1.66,0,0,1,1.19.18v4.63c.5-.07.88.13,1.28-.23-.21-1.79.51-3.75-.6-5.4h-3.3v5.58Zm37.15-.87c0-.61-.71-.89-.55-1.53l.69-.69h2.26a3.44,3.44,0,0,0-.52-2.94H66.88L66,30.14v3.14l1,1.33h1.54l1.4-1c-.09-1.16-.09-1.16-.62-1.16-.45.27-.34,1.15-1,1.29Zm-43.61.81a4.31,4.31,0,0,0,1.68.08l1.38-1.06c-.15-.47.23-1-.59-1.14-.54.24-.36,1.18-1.11,1.34-.28-.06-.68.17-1-.2a3.18,3.18,0,0,1,.11-1.47c.82-.27,1.72.16,2.44-.22V30l-1-1h-2C22.84,30.85,22.25,32.63,23.8,34.56Zm21.77-3.34c-.64-.72.1-1.64-.55-2.31-.32.15-.72-.14-1.09.31v1.86c-.74.19-1.5-.13-2.15.24,0,.38-.14.75.16,1.1.64.2,1.4-.19,2.12.3v1.89h1.09c.36-.7-.11-1.48.35-2.2h1.94V31.22Zm19.15,2.47V29.46c.51-.07,1-.1.76-.81l-.73-.25c-.34-.5.16-1.16-.26-1.59h-1c-.34.57.14,1.22-.33,1.69-.22,0-.46-.09-.6.15-.41.86.5.6.82,1V34a1.74,1.74,0,0,0,2.17.51c0-.27.1-.5-.14-.66ZM8.43,30v3.67l1,1h1.88a4,4,0,0,0,1.08-2c-.54-.22-.94-.3-1.32,0l-.09,1a1.67,1.67,0,0,1-1.09.1,3.23,3.23,0,0,1,0-3.87h1l.29.8c.42-.07.9.3,1.24-.4-.2-.55-.77-.89-1.19-1.32H9.46ZM72,30.14c.61-.56,1.46-.56,2-1.21-.92-.4-.92-.4-1.69,0-.31-.29-.58-.74-1-.27v6H72ZM27.77,29v5.64h.74V29Zm.81-1.59a.52.52,0,0,0-.88,0c0,.2-.09.44.17.59a.53.53,0,0,0,.71-.17Z"/><path class="cls-1" d="M62,18.12v1.32c-.5.22-.89.78-1.58.71-.91-.32-1.87-.57-2.09-1.73-.42,0-.81-.11-1.21.24a5.66,5.66,0,0,1-6.22,1.06,1.28,1.28,0,0,0-.44,0,6.15,6.15,0,0,1-2.06-2.59c0-.53,0-1.26,0-2a2.94,2.94,0,0,1,2-2.91,6.5,6.5,0,0,1,2.93-.85c1.21,0,2.31-.82,3.68-.34L58,9.49V8.56C57,6.89,55.33,6.82,53.49,7c-1.41.81-1.41.81-2.14,2.51h-2A3.49,3.49,0,0,1,50,6.38c1.75-1,3.66-2,5.81-1.56,1.57.34,3.38.56,4.26,2.31,1,2.08.52,4.33.59,6.53,0,1.38,0,2.76,0,4.08C61.05,18.14,61.45,17.82,62,18.12Zm-5.76-.75c2-2,2-2,1.62-4.77a26.24,26.24,0,0,1-3.29.6c-1.2.3-2.69.21-3.45,1.39V17c.26.7,1.2.31,1.45.91A7.28,7.28,0,0,0,56.21,17.37Z"/><path class="cls-1" d="M10.55,20.16C6.4,20.52,4,18.74,4.37,15a8.24,8.24,0,0,1,2.35-3.11,51.44,51.44,0,0,1,6.7-1.06c.63-.73.63-.73.65-2.21-1.48-2.24-3.5-1.84-5.7-1C7.83,8,7.76,8.8,7.31,9.53H5.4c-.13-.08-.14-.3-.12-.52C5.37,7.5,6.76,5.4,8.15,5.28A23.41,23.41,0,0,1,11,4.72a12,12,0,0,1,2.84.62,4.33,4.33,0,0,1,2.83,3V17.9l1.14.09c.41.44,0,1,.26,1.46l-1.52.76c-1-.28-2-.62-2.33-1.91Zm3.5-7.61c-2.27.79-4.59.45-6.56,1.65-.55,1.47-.49,2.62.17,3.28a.89.89,0,0,1,.83.37c2.51.6,4.21-.52,5.56-2.4Z"/><path class="cls-1" d="M66.93,13.12c-.38,2.27.21,3.91,2.55,4.82a5.88,5.88,0,0,0,3.29-.44c1-.61,1.22-1.93,2.15-2.56h1.9c.52.78-.94,1.09-.27,1.71l-3,3a12.35,12.35,0,0,1-3.27.53,6.58,6.58,0,0,1-6.16-5.11,10,10,0,0,1,.13-5.36A6.45,6.45,0,0,1,68.66,5.2a6.4,6.4,0,0,1,8.15,4.1,14.63,14.63,0,0,1,0,3.82H66.93Zm7.42-1.79c-.12-.82.15-1.48-.18-2.09a4,4,0,0,0-.63-1c-.44-.43-1.11-.52-1.6-.83-1.3-.83-2.39-.39-3.43.36a17,17,0,0,0-1.58,1.46v2.14Z"/><path class="cls-1" d="M29.61,5.22h2.5a66.69,66.69,0,0,1-2.63,7.19c-.9,2.4-1.72,4.84-2.79,7.25H24.35a3.33,3.33,0,0,1-1-1.75C22,13.68,20.14,9.61,18.81,5.25h2.8l3.85,11.44C27.08,12.67,27.92,8.84,29.61,5.22Z"/><path class="cls-1" d="M46.09,19.68H42.92a4.19,4.19,0,0,1-1.58-2.23V7.61c-.52-.41-1.05-.06-1.67-.33-.29-.54,0-1.25-.12-1.87.56-.38,1.09-.08,1.72-.32V1.31h2.65V5.16h2.16V7.37h-2V17c.29.9,1.25.43,2,.63Z"/><path class="cls-1" d="M36.87,19.67H34.8V5.31a6.1,6.1,0,0,1,2.07-.08Z"/><path class="cls-1" d="M50.17,3.37v-2h9.09a6.22,6.22,0,0,1,.08,2.05Z"/><path class="cls-1" d="M16.82,0,13,3.84H12c0-.18-.17-.35-.13-.43A12,12,0,0,1,14.18,0Z"/><path class="cls-1" d="M36.9,0V2.49h-2V0Z"/><path class="cls-1" d="M60.61,33.74H59.09c-.33-.46-.1-1-.18-1.54l1.7-.73Z"/><path class="cls-1" d="M15.35,32v1.62c-.55.33-1.09,0-1.59.18-.17-.65-.23-1.07.22-1.5S14.76,32.06,15.35,32Z"/><path class="cls-1" d="M37.07,30.91a3.32,3.32,0,0,1-1.68.23c-.39-.34-.19-.76-.14-1.2C36.17,29.57,36.66,30,37.07,30.91Z"/><path class="cls-1" d="M69.1,31.11H67.43c-.3-.49-.09-1-.16-1.5a1.28,1.28,0,0,1,1.41-.18C69.38,29.67,68.88,30.41,69.1,31.11Z"/><path class="cls-1" d="M25.9,29.9v1.17H24.22V29.9Z"/></g></g></g></svg>