<svg xmlns="http://www.w3.org/2000/svg" viewBox="0 0 64.36 44"><defs><style>.cls-1{fill:#fff;}</style></defs><title>awc</title><g id="Layer_2" data-name="Layer 2"><g id="logos"><g id="SUPPORT"><g id="awc"><path class="cls-1" d="M44.74,42.65c.26-.1.52-.18.77-.3.72-.34,1.43-.71,2.15-1.06a10,10,0,0,1,1-.4c.07,0,.18,0,.27,0s-.05.21-.12.26c-.46.32-.93.62-1.38.94-.2.14-.38.31-.6.48a.62.62,0,0,0,.64,0l2.15-1.06a7.34,7.34,0,0,1,.89-.33c.32-.1.46,0,.55.25.34-.08.66-.18,1-.25.11,0,.29,0,.35,0s0,.24,0,.36c.25,0,.54-.1.84-.12.1,0,.28,0,.32.13s0,.28-.17.38a10.57,10.57,0,0,0-1.07.83l.54-.24a20.87,20.87,0,0,1,2.11-.94,5.47,5.47,0,0,1,1.35-.06c.09,0,.21,0,.26-.08.39-.41.76-.84,1.15-1.25a1.6,1.6,0,0,1,1.52-.61.22.22,0,0,1,.17.36,2.49,2.49,0,0,1-.43.54c-.38.31-.77.6-1.16.9l-1.39,1.06a1.54,1.54,0,0,0-.19.17.66.66,0,0,0-.14.68c0,.1.27.17.43.21a1,1,0,0,0,.43,0l1.67-.43c.17-.05.27-.11.28-.33a1,1,0,0,1,1.2-.71.28.28,0,0,1,.08.47l-.16.16a.41.41,0,0,0-.14.19,1.08,1.08,0,0,0,.36,0l2-.62.63-.16a1.09,1.09,0,0,1,.18,0l0,.08c-.74.27-1.5.52-2.23.81a4.56,4.56,0,0,1-1.59.25,3.65,3.65,0,0,0-1,.27L57,44a1.63,1.63,0,0,1-1.15-.16c-.08,0-.13-.17-.16-.27a3.21,3.21,0,0,1,0-.44c-.25.13-.46.23-.66.35a1.45,1.45,0,0,1-1.06.09c-.23,0-.29-.45-.13-.72a2.51,2.51,0,0,0,.26-.46c-.38.19-.76.41-1.15.58a8.66,8.66,0,0,1-1.21.42c-.1,0-.23-.06-.34-.1,0-.11.07-.25.16-.32.34-.25.69-.47,1-.71a2.42,2.42,0,0,0,.35-.3,3.31,3.31,0,0,0-1.42.56c-.42.26-.84.54-1.27.79-.09.05-.23,0-.34,0a.78.78,0,0,1,.14-.32c.42-.33.86-.65,1.29-1l.36-.28,0-.07a8.16,8.16,0,0,0-.81.34L49,43s-.07.07-.11.07l-.28-.05c0-.08,0-.19.1-.23.25-.18.51-.35.77-.51s.4-.24.59-.37a1.61,1.61,0,0,0,.23-.22l0-.06c-.18.07-.37.12-.54.2-.57.29-1.13.59-1.7.87A1.73,1.73,0,0,1,46.8,43c-.28-.07-.39-.16-.29-.43a3,3,0,0,1,.32-.51c-.34.16-.65.32-1,.46a8.58,8.58,0,0,1-.82.37c-.2.08-.45.13-.6-.06a.46.46,0,0,1,0-.6c.25-.27.54-.5.81-.74a.49.49,0,0,0,.15-.14l-1.2.22a34.43,34.43,0,0,0-3.48.81c-.87.24-1.76.39-2.65.56-1.19.24-2.37.48-3.57.67a6.93,6.93,0,0,1-1.51,0,.37.37,0,0,1-.29-.21.42.42,0,0,1,.12-.35,5.06,5.06,0,0,1,.69-.53A19.56,19.56,0,0,1,37,40.7c.62-.24,1.19-.61,1.81-.86,1.44-.58,2.9-1.12,4.35-1.68a45.36,45.36,0,0,1,4.38-1.38c1.56-.42,3.11-.85,4.64-1.36A37.14,37.14,0,0,1,56,34.51c1-.22,2-.47,3-.66,1.3-.24,2.61-.42,3.91-.64a2.44,2.44,0,0,0,1.23-.43l-.23-.11a12.66,12.66,0,0,0-1.52-.56,12.49,12.49,0,0,0-1.84-.21A21.61,21.61,0,0,0,58,31.77c-1.79.07-3.57.21-5.36.33l-.93.09.34-.26a32.13,32.13,0,0,0-4.83.47c0,.25.06.33.31.28a11.29,11.29,0,0,1,1.3-.18L51,32.29h.44l-.34.19-2.61,1.31c-.13.06-.24.23-.37.24a2.39,2.39,0,0,1-.64-.11s-.06-.08-.07-.12a5.93,5.93,0,0,1-.19-.81c0-.28-.16-.28-.36-.22l-.2.07c.09.46.17.91.29,1.35,0,.15,0,.21-.11.26l-2.49,1.19-1.3.61-1.84.86c-.46.21-.54.16-.85-.23-.5-.62-1-1.23-1.53-1.84a4,4,0,0,0-.37-.45.62.62,0,0,0-.35-.18c-.17,0-.26.11-.32.3-.28,1-.6,2-.88,2.95a8.83,8.83,0,0,0-.24,1.16.7.7,0,0,1-.4.54L33.5,40.78l-4,2.06a.81.81,0,0,1-1.09-.49c-.44-1.71-.9-3.41-1.34-5.12,0-.15-.09-.18-.22-.16s-.17.13-.14.25c.12.45.25.9.37,1.36.38,1.42.75,2.84,1.14,4.26a.54.54,0,0,1-.16.55.48.48,0,0,1-.57,0c-.47-.24-.93-.49-1.39-.74l-1.83-1-3.53-1.94c-.51-.28-1-.53-1.55-.79l-.07,0c-.15-.38-.44-.2-.68-.15-1.06.19-2.12.4-3.18.61a49.75,49.75,0,0,1-5.44.75c-1.26.09-2.52.22-3.78.27a11.46,11.46,0,0,1-4.74-.69,2.3,2.3,0,0,1-1.13-1A1.2,1.2,0,0,1,0,38.41a4.11,4.11,0,0,1,.57-2.7c.46-.73,1-1.43,1.46-2.13a14.29,14.29,0,0,1,3.36-3.13,25.59,25.59,0,0,1,4-2.42c.63-.31,1.22-.68,1.82-1a.9.9,0,0,1,.36-.14.5.5,0,0,0,.41-.34c.53-1.24,1.05-2.48,1.57-3.72l1.76-4.19c.57-1.32,1.14-2.64,1.7-4s1.07-2.54,1.6-3.81c.08-.18.14-.39.4-.39a.76.76,0,0,1,.62.46c.21.75.42,1.51.62,2.26.3,1.13.53,2.28.9,3.39s.5,2,.79,3c.43,1.44.79,2.9,1.18,4.36.05.18.08.38.13.56s.11.33.34.22a.72.72,0,0,1,.17,0c-.41-1.54-.81-3.07-1.21-4.59-.29-1.09-.57-2.18-.85-3.27-.43-1.62-.85-3.24-1.28-4.85-.06-.24-.12-.48-.16-.72a1,1,0,0,1,.64-1.08C22,9.81,23,9.37,24.09,9c.84-.33,1.68-.65,2.51-1l3-1.21a1.42,1.42,0,0,1,.36,0,.38.38,0,0,1,0,.46c-.51.67-1,1.34-1.48,2l-2.27,3.2a.64.64,0,0,0-.13.58c.6,2.12,1.18,4.24,1.77,6.36.38,1.37.76,2.73,1.15,4.1a2.09,2.09,0,0,0,.05.21s.08,0,.12,0c.83-.24,1.65-.49,2.49-.72,1.21-.33,2.44-.64,3.66-1a.44.44,0,0,1,.2,0c.24,0,.29-.13.33-.32s.06-.26.13-.27a.54.54,0,0,1,.4,0,.54.54,0,0,0,.6.11c.84-.31,1.71-.56,2.57-.82.19-.06.4-.07.64-.12-1-4.53-1.9-9.08-2.86-13.62-1-.16-2-.34-3-.48-.59-.08-1.18-.11-1.78-.16A5.11,5.11,0,0,0,32,6.27.23.23,0,0,1,31.77,6c0-.07.11-.18.19-.22l1-.31L37.4,4c.55-.18,1.1-.31,1.64-.52.26-.1.46-.22.62.1a1.72,1.72,0,0,1,.14.4c.15.64.28,1.28.43,1.92.41,1.67.82,3.35,1.22,5,.31,1.28.62,2.57.92,3.85.39,1.6.77,3.21,1.15,4.81,0,.15.08.21.24.18a2.91,2.91,0,0,1,.32,0c-.21-.86-.41-1.72-.61-2.57l-1.29-5.32c-.24-1-.49-2-.74-3.06-.4-1.68-.82-3.35-1.2-5a1.62,1.62,0,0,1,.11-.71c0-.06.13-.1.21-.13l3.3-1.12,4.7-1.6.52-.2a.68.68,0,0,1,.84.43c.18.7.35,1.4.52,2.11s.31,1.39.47,2.09c.22.92.44,1.85.67,2.77.06.24.13.49.21.72s.08.28-.08.39-.27.13-.4,0-.36-.39-.53-.59-.56-.67-.84-1L48.66,5.49a.34.34,0,0,0-.42-.11c-.85.3-1.7.59-2.56.86-.35.11-.35.28-.29.53.16.73.34,1.46.51,2.19.41,1.73.82,3.47,1.24,5.2.23,1,.46,2,.71,3l1.43-.42,0,0c.11-.5.58-.42.91-.51a11.93,11.93,0,0,1,1.58-.31.64.64,0,0,1,.39,0,.54.54,0,0,0,.46,0c1.65-.45,3.29-.91,5-1.32a10.85,10.85,0,0,1,2-.26c1.28-.07,2.56-.09,3.84-.11a1.64,1.64,0,0,1,.62.13.43.43,0,0,1,.2.27c0,.07-.11.19-.2.22-.51.18-1,.36-1.56.52-1.14.33-2.28.65-3.44,1-1,.26-2,.49-3,.75s-1.91.52-2.87.76c-.43.12-.88.2-1.32.31l-1.46.41-2.08.61c.11.46.21.9.32,1.34.4,1.69.81,3.38,1.21,5.08.21.87.42,1.75.62,2.62,0,.24.16.22.32.12l2.11-1.2,1.3-.73a.56.56,0,0,0,.2-.28c.15-.5.29-1,.4-1.51s.18-1,.26-1.49a5,5,0,0,1,.07-.56.3.3,0,0,1,.17-.18c.14,0,.21.05.23.17.07.34.13.68.21,1,.24,1.06.48,2.12.73,3.17.17.71.36,1.42.55,2.13a.8.8,0,0,1-.43.84l-3.75,1.87-.27.15c.47,0,.87-.08,1.28-.1l2.93-.19c.52,0,1-.08,1.55-.06s1.29.1,1.94.16,1.3.11,1.94.2a4.52,4.52,0,0,1,.89.25c.21.07.41.17.62.26s.2.06.29.11a.51.51,0,0,1,.33.48.44.44,0,0,1-.37.38,5.35,5.35,0,0,1-1.05.25,30.26,30.26,0,0,0-4.53.8c-.54.14-1.1.19-1.65.31-1,.19-1.92.37-2.86.63-1.35.36-2.67.81-4,1.17A97.24,97.24,0,0,0,40,39.65c-.86.34-1.69.78-2.53,1.17-.68.31-1.39.6-2.05,1s-1.42.87-2.13,1.31a2.79,2.79,0,0,0-.24.19l.14.06A6.8,6.8,0,0,0,35,43.22c.65-.16,1.32-.21,2-.34.86-.17,1.71-.36,2.56-.56,1.2-.28,2.39-.59,3.59-.86.78-.17,1.58-.29,2.38-.45.6-.12,1.2-.28,1.8-.42a.36.36,0,0,1,.2,0,1,1,0,0,1,.25.16c-.06.06-.12.16-.2.18A7.83,7.83,0,0,0,45.12,42a2.83,2.83,0,0,0-.46.51ZM14.66,36.9l-1-.54c-1.41-.74-2.81-1.5-4.23-2.23a.58.58,0,0,1-.3-.84c.16-.37.3-.74.46-1.1.4-.95.81-1.9,1.22-2.86l.86-2s0-.12,0-.13-.09,0-.14,0l-.15.09c-.62.36-1.22.76-1.86,1.07a25.84,25.84,0,0,0-4,2.41,14,14,0,0,0-3.25,3l-1,1.38A4.55,4.55,0,0,0,.33,38a1.49,1.49,0,0,0,.57,1.2,2.17,2.17,0,0,0,.57.33A9.4,9.4,0,0,0,5,40.18a45.21,45.21,0,0,0,5.07-.28q2.56-.24,5.1-.72l2.27-.47L19,38.46l-1.59-7.09c-.31.63-.58,1.21-.86,1.79s-.66,1.4-1,2.1Zm17.13-3.31h.13l3.77-11.47-6.57,1.81ZM47.91,17.41c.11.46.21.92.31,1.38,0,.12.08.15.2.11.34-.12.68-.24,1-.33.92-.25,1.84-.48,2.76-.72.3-.08.6-.13.9-.21.68-.19,1.35-.41,2-.58,1.14-.29,2.28-.55,3.42-.83l2-.5c.54-.14,1.07-.31,1.61-.46.37-.11.74-.21,1.1-.33s.46-.16.69-.24v-.09a3.31,3.31,0,0,0-.55-.08c-.82,0-1.65,0-2.47.06a21.43,21.43,0,0,0-2.89.29c-1.31.26-2.6.63-3.9,1a9.06,9.06,0,0,0-2.47.86,1.24,1.24,0,0,1-.29.1l-1.58.35a1.51,1.51,0,0,1-.41-.06V17ZM36.77,21.86l5.14,7.5.1,0-1.8-8.59Zm6.88-1.7q.43,1.86.87,3.69c.26,1.11.54,2.22.81,3.33.41,1.7.83,3.4,1.23,5.1,0,.21.13.22.29.18l.27-.06L44.13,20ZM26.92,36.61a1.11,1.11,0,0,0,0-.13c-.52-2-1.05-4-1.58-6-.46-1.78-.93-3.56-1.38-5.34,0-.13-.05-.25-.21-.2s-.27.12-.21.32.1.34.15.51c.31,1.19.63,2.38.94,3.57l1.17,4.38.78,2.87a.22.22,0,0,0,.18.12C26.8,36.74,26.86,36.66,26.92,36.61ZM56.24,42a3.85,3.85,0,0,0-.41-.09A2.06,2.06,0,0,0,54.12,43c-.08.18,0,.25.18.28.46.07.77-.24,1.15-.39S56,42.38,56.24,42Zm.41-.12.06.06A13.88,13.88,0,0,0,59,40c-.38,0-.48,0-.73.2C57.74,40.76,57.2,41.33,56.65,41.89ZM51.2,16.57a1.07,1.07,0,0,0,.76-.4C51.61,16.17,51.26,16.12,51.2,16.57Zm8,26.32.05.07.65-.49A.58.58,0,0,0,59.22,42.89Z"/></g></g></g></g></svg>