<svg xmlns="http://www.w3.org/2000/svg" viewBox="0 0 224.43 28.47"><defs><style>.cls-1{fill:#fff;}</style></defs><title>bankofamerica</title><g id="Layer_2" data-name="Layer 2"><g id="logos"><g id="_5K" data-name="5K"><g id="bankofamericca"><path class="cls-1" d="M224.43,11.23A121.9,121.9,0,0,0,196,28.06l-6.69-4.47c.56-.4,1.12-.8,1.69-1.19A115.37,115.37,0,0,1,218.82,8.48a1.33,1.33,0,0,1,.94.08c1.5.81,3,1.67,4.47,2.52C224.27,11.1,224.31,11.15,224.43,11.23Z"/><path class="cls-1" d="M9.57,18.52l.37.19A4.74,4.74,0,0,1,13,23.58,4.62,4.62,0,0,1,9.2,27.87a9.46,9.46,0,0,1-2.12.26c-2.25,0-4.51,0-6.77,0l-.31,0V9.83c.06,0,.11-.06.16-.06,2.63,0,5.27,0,7.9.06a4.81,4.81,0,0,1,2.86,1.07A4.27,4.27,0,0,1,10.55,18C10.27,18.15,10,18.3,9.57,18.52ZM4.5,24.71a20,20,0,0,0,2.05,0,2,2,0,0,0,1.92-2c.08-1.28-.46-2.21-1.56-2.39a14.85,14.85,0,0,0-2.41,0Zm0-11.62v4a22.68,22.68,0,0,0,2.39-.19,1.78,1.78,0,0,0,1.41-2,1.68,1.68,0,0,0-1.48-1.83A22.37,22.37,0,0,0,4.52,13.09Z"/><path class="cls-1" d="M180.56,18.77c2.81-1.64,5.45-3.27,8.17-4.76A101.71,101.71,0,0,1,211.47,4.9a1.07,1.07,0,0,1,.66,0c1.8.8,3.58,1.62,5.53,2.52-.43.15-.7.26-1,.34a107.58,107.58,0,0,0-29.15,14.12,1,1,0,0,1-1.19,0c-1.67-.94-3.37-1.82-5.06-2.73Z"/><path class="cls-1" d="M105.06,28.12H101V19.87c0-.16,0-.31,0-.46,0-.48,0-1-.58-1.23a1.67,1.67,0,0,0-1.66.59,1.24,1.24,0,0,0-.12.64c0,2.68,0,5.35,0,8v.66h-4.1V15.24h4l.1,1.21c.18-.13.31-.22.43-.32a5.44,5.44,0,0,1,2.8-1.22,2.69,2.69,0,0,1,3,1.71A5.62,5.62,0,0,1,107.79,15a2.88,2.88,0,0,1,3.77,2.93c0,3.3,0,6.59,0,9.89a2.67,2.67,0,0,1,0,.35h-4.08v-8.7c0-.52,0-1.06-.62-1.25a1.69,1.69,0,0,0-1.68.68,1.25,1.25,0,0,0-.08.55v8.72Z"/><path class="cls-1" d="M93.1,28.11H88.59l-.73-3.62H83.62c-.23,1.07-.46,2.17-.72,3.26,0,.15-.23.38-.35.38-1.22,0-2.44,0-3.75,0,.22-1,.43-1.92.64-2.84q1.75-7.45,3.49-14.91c.11-.48.28-.67.81-.65,1.64,0,3.27,0,4.91,0a.57.57,0,0,1,.67.54q1.64,7.8,3.31,15.59C92.78,26.61,92.94,27.34,93.1,28.11ZM85.93,13.88h-.14c-.5,2.41-1,4.82-1.5,7.25H87.2Z"/><path class="cls-1" d="M52.06,28.15c-1.41,0-2.75,0-4.08,0-.14,0-.35-.25-.41-.42C47,26.15,46.43,24.57,45.86,23c0-.14-.11-.28-.18-.46a2,2,0,0,0-.91,1.7c.07,1.27,0,2.55,0,3.87H40.6V9.8h4.18v9.11l.12.05c.22-.26.44-.53.65-.8.7-.88,1.39-1.78,2.09-2.66.11-.13.28-.31.43-.31,1.27,0,2.55,0,4,0-.2.25-.32.41-.45.55-.89,1-1.78,2-2.69,3a.74.74,0,0,0-.16.89c1,2.63,2.07,5.27,3.1,7.91Z"/><path class="cls-1" d="M31.5,28.12H27.35V15.22h4l.09,1.27a5.55,5.55,0,0,1,2.81-1.55c2.15-.41,3.69.75,3.72,2.93,0,3.3,0,6.6,0,9.89a2.8,2.8,0,0,1-.05.36H33.83c0-.22,0-.44,0-.66V19.67c0-.27,0-.53,0-.79a.82.82,0,0,0-.87-.79,1.37,1.37,0,0,0-1.4,1.34v8.69Z"/><path class="cls-1" d="M60.86,14.84a5.58,5.58,0,0,1,5.77,5.38,10.71,10.71,0,0,1-.32,4.29c-1,3.12-3.45,4.16-6.19,3.89-3.37-.35-4.74-2.8-5-5.49a13,13,0,0,1,.21-3.68A5.26,5.26,0,0,1,60.86,14.84Zm1.58,6.63c-.11-1-.16-2-.35-2.93a1.16,1.16,0,0,0-1.74-.91,1.71,1.71,0,0,0-.7,1.07,45,45,0,0,0-.17,4.5,7.14,7.14,0,0,0,.41,2,.93.93,0,0,0,1,.61,1,1,0,0,0,1-.6,2.18,2.18,0,0,0,.24-.69C62.24,23.5,62.33,22.51,62.44,21.47Z"/><path class="cls-1" d="M18.17,19.2l-3.53-.72A3.65,3.65,0,0,1,16,16.07,6.29,6.29,0,0,1,20.87,15a6.77,6.77,0,0,1,1.26.29A3.66,3.66,0,0,1,24.9,19c0,2.3,0,4.6,0,6.89,0,.73.1,1.45.16,2.23-1.24,0-2.57,0-3.9,0-.1,0-.24-.21-.28-.34a5,5,0,0,1-.06-.76l-.48.37a4.18,4.18,0,0,1-3.75.86,3.73,3.73,0,0,1-1.51-6.19,7.38,7.38,0,0,1,3.74-1.84A10.76,10.76,0,0,1,20.22,20c.36,0,.5-.18.47-.54s0-.6,0-.9a.93.93,0,0,0-.72-1,1.06,1.06,0,0,0-1.28.44A7.23,7.23,0,0,0,18.17,19.2ZM20.68,22a2.18,2.18,0,0,0-2.42,2.82,1.09,1.09,0,0,0,1.17.78c.51,0,1.23-.51,1.24-.91C20.7,23.83,20.68,22.93,20.68,22Z"/><path class="cls-1" d="M164.83,28.11h-4.1l-.17-1.05-.58.44a4.2,4.2,0,0,1-3.57.78,3.16,3.16,0,0,1-2.47-2.44,3.75,3.75,0,0,1,1-3.85,8.06,8.06,0,0,1,4.27-1.89c.4-.08.81-.14,1.24-.21,0-.45,0-.86,0-1.27a1,1,0,0,0-.78-1.05,1.15,1.15,0,0,0-1.31.54,2.53,2.53,0,0,0-.22.51,5.39,5.39,0,0,0-.14.6l-3.59-.73A3.61,3.61,0,0,1,155.88,16a6.41,6.41,0,0,1,4.79-1,5.05,5.05,0,0,1,2.6,1,3.15,3.15,0,0,1,1.34,2.55c0,2.39,0,4.78,0,7.18C164.66,26.49,164.77,27.29,164.83,28.11ZM160.44,22a2.19,2.19,0,0,0-2.5,2.54,1.13,1.13,0,0,0,1.1,1.08c.57,0,1.38-.48,1.39-.93C160.47,23.81,160.44,22.92,160.44,22Z"/><path class="cls-1" d="M124.52,22.57h-6.86a2.51,2.51,0,0,0,1.27,3c1.09.35,2-.22,2.64-1.66l2.79,1A5.09,5.09,0,0,1,121.42,28c-2.78,1.13-6.88.39-7.86-4.4a8.44,8.44,0,0,1,.8-6.07,5.18,5.18,0,0,1,5.16-2.66A4.8,4.8,0,0,1,124,18.27,11,11,0,0,1,124.52,22.57Zm-3.85-2.51c0-.92,0-1.84-.84-2.38a1.23,1.23,0,0,0-1.48.06,2.54,2.54,0,0,0-.76,2.32Z"/><path class="cls-1" d="M75.83,9.47v3.24c-2.3-.18-2.36.42-2.18,2.48h2.18c0,.22,0,.37,0,.52,0,.78,0,1.57,0,2.43H73.59v10h-4.2V18.16H67.71V15.21h1.61c.05-.88.07-1.69.15-2.49a3.32,3.32,0,0,1,3.28-3.24C73.77,9.41,74.79,9.47,75.83,9.47Z"/><path class="cls-1" d="M152.8,20h-3.52a14,14,0,0,0-.26-1.49,1.18,1.18,0,0,0-1.15-1,1.16,1.16,0,0,0-1.23.88,4.09,4.09,0,0,0-.27,1.32c0,1.57,0,3.15.18,4.72a1.21,1.21,0,0,0,1.3,1.22,1.43,1.43,0,0,0,1.42-1.28c.08-.38.11-.77.17-1.2l3.12.45A4.56,4.56,0,0,1,149.83,28a5.58,5.58,0,0,1-7.35-2.85A8.12,8.12,0,0,1,144,16.22a5.65,5.65,0,0,1,6-.93C151.93,16.18,152.64,17.87,152.8,20Z"/><path class="cls-1" d="M175.44,14c1.95-1,3.75-2.1,5.63-3,2.9-1.38,5.85-2.64,8.8-3.93a1.24,1.24,0,0,1,.89,0c1.46.58,2.9,1.22,4.49,1.89l-1,.45a106.54,106.54,0,0,0-13.34,6.69,1,1,0,0,1-1.12,0C178.4,15.38,177,14.71,175.44,14Z"/><path class="cls-1" d="M130.45,28.12h-4.19V15.23h4l.1,1.67a4.76,4.76,0,0,1,4-2v4c-.79,0-1.57-.1-2.34-.09a2.24,2.24,0,0,0-.85.28,1.25,1.25,0,0,0-.78,1.29c0,2.35,0,4.7,0,7.06Z"/><path class="cls-1" d="M188.23,6.13c-1.6.64-3.2,1.26-4.77,1.92a82,82,0,0,0-9.55,4.8,1,1,0,0,1-1,.06c-1.32-.55-2.65-1.05-4-1.59a2.86,2.86,0,0,1,.3-.24,83.79,83.79,0,0,1,14.62-6.26,1,1,0,0,1,.6-.05c1.21.39,2.42.81,3.62,1.23A.72.72,0,0,1,188.23,6.13Z"/><path class="cls-1" d="M139.94,28.12h-4.11V15.22h4.11Z"/><path class="cls-1" d="M201.43,6.66l-4,1.45a.69.69,0,0,1-.47,0,92.37,92.37,0,0,0-12.92-5s-.06,0-.17-.14c1-.33,2-.58,2.95-1a4.48,4.48,0,0,1,3.41.07,100,100,0,0,1,10.66,4.28C201,6.43,201.17,6.52,201.43,6.66Z"/><path class="cls-1" d="M208.28,4.61c-1.49.43-2.86.84-4.22,1.22a.77.77,0,0,1-.49-.07A95.81,95.81,0,0,0,191,1a.84.84,0,0,1-.2-.11C191.93.62,193,.38,194,.11a3.69,3.69,0,0,1,2,.07,104.08,104.08,0,0,1,11.61,4.14C207.84,4.39,208,4.48,208.28,4.61Z"/><path class="cls-1" d="M135.82,13.47V9.8h4.11v3.67Z"/><path class="cls-1" d="M200.72,25.75a1.18,1.18,0,1,1-1.21,1.14A1.17,1.17,0,0,1,200.72,25.75Zm1,1.2a1,1,0,0,0-.92-1,1,1,0,0,0-1,.91.94.94,0,0,0,.9,1A1,1,0,0,0,201.68,27Z"/><path class="cls-1" d="M200.52,26.87l-.1.66h-.16a8.65,8.65,0,0,1,0-1.14c0-.07.36-.14.54-.12s.46.15.47.26-.15.36-.26.59l.2.36-.08.08Z"/></g></g></g></g></svg>