<svg xmlns="http://www.w3.org/2000/svg" viewBox="0 0 104.93 25.32"><defs><style>.cls-1{fill:#fff;}</style></defs><title>bitcamp</title><g id="Layer_2" data-name="Layer 2"><g id="logos"><g id="SUPPORT"><g id="bitcamp"><path class="cls-1" d="M64.9,6.5a27.28,27.28,0,0,1,3.74.06c.51.07.94.74,1.32,1.07a20.62,20.62,0,0,1,4-1.29c1.6-.22,2.62.93,3.34,2.39a5.15,5.15,0,0,0,.59-.48A5.44,5.44,0,0,1,84,6.63c1.76.65,2.72,2.29,2.74,4.75,0,1.84,0,3.68,0,5.52,0,.8.2,1.32,1.1,1.35s1.06.73,1.05,1.52-.66.74-1.19.75c-.95,0-1.92,0-2.87,0s-1.21-.25-1.19-1.15c0-2.32,0-4.64,0-7a8.91,8.91,0,0,0-.11-1.55,2.39,2.39,0,0,0-2.26-2.24,2.48,2.48,0,0,0-2.71,2.06,61.82,61.82,0,0,0-.12,6.81c0,.26.64.67,1,.72,1,.12,1,.77,1,1.54s-.64.75-1.18.76c-1,0-2,0-3,0s-1.11-.32-1.1-1.13c0-2.64,0-5.28,0-7.91a2.53,2.53,0,0,0-1.45-2.67,2.75,2.75,0,0,0-3.08.74A2.27,2.27,0,0,0,70,11c-.07,2,0,4,0,6,0,.76.22,1.25,1.06,1.27,1,0,1.1.68,1.09,1.48,0,1-.73.78-1.29.79-1.68,0-3.36,0-5,0-.52,0-1.09.08-1.06-.74,0-.64-.09-1.43.81-1.47,1.25-.06,1.36-.77,1.34-1.77,0-2.16,0-4.32,0-6.48,0-.4-.39-1.11-.67-1.14C64.71,8.72,64.57,7.87,64.9,6.5Z"/><path class="cls-1" d="M95.13,19.53a15.23,15.23,0,0,0,.05,2.66c0,.3.64.67,1,.73,1.1.17,1,.91,1,1.69s-.72.68-1.23.69H91c-.54,0-1.1,0-1.07-.75,0-.61-.22-1.44.71-1.52,1.34-.11,1.44-.9,1.43-2,0-3.56,0-7.12,0-10.68,0-.91-.15-1.55-1.24-1.62s-.9-.81-.9-1.52.55-.75,1.08-.74h1c1.33,0,3-.54,3,1.9l1.21-1a5,5,0,0,1,8.15,2.35,10,10,0,0,1,0,6.81,5.63,5.63,0,0,1-8.49,3.25C95.72,19.78,95.57,19.73,95.13,19.53Zm6.64-6.17a21,21,0,0,0-.66-2.92,2.77,2.77,0,0,0-3.29-1.75,3.08,3.08,0,0,0-2.72,3c0,1.44.06,2.88,0,4.31a2.08,2.08,0,0,0,1.6,2.23,3.28,3.28,0,0,0,4.47-2A21,21,0,0,0,101.77,13.36Z"/><path class="cls-1" d="M5.51,7.86A23.68,23.68,0,0,1,9.1,6.41a4.47,4.47,0,0,1,5.35,2.81,10.33,10.33,0,0,1,.08,7.84,5.32,5.32,0,0,1-5.37,3.66c-1.91,0-3.82-.37-5.73-.52-.85-.07-1.11-.46-1.1-1.31,0-4.92,0-9.84,0-14.75C2.38,3,2.16,2.37,1,2.29-.1,2.23,0,1.43,0,.69S.66.05,1.13,0C2.09,0,3.06.1,4,0S5.5.26,5.45,1.4c-.09,1.75,0,3.51,0,5.27C5.43,7.09,5.49,7.5,5.51,7.86Zm-.08,6.37h0c0,1,0,2,0,3a1.27,1.27,0,0,0,.4.91,4.21,4.21,0,0,0,5.55-1.72,7.81,7.81,0,0,0,.2-5.61A2.83,2.83,0,0,0,8.32,8.66a3.16,3.16,0,0,0-2.89,3.18C5.42,12.64,5.43,13.44,5.43,14.23Z"/><path class="cls-1" d="M58.22,19.23a25.29,25.29,0,0,1-4.69,1.44c-2.79.31-4.45-1.44-4.19-4.05a3.4,3.4,0,0,1,2.61-3,27.86,27.86,0,0,1,4.79-1c.93-.11,1.26-.42,1.18-1.34-.17-2.1-1.6-3.17-3.64-2.59a9.77,9.77,0,0,0-2,.89c-.9.5-1.47.2-2-.62s.17-1.16.66-1.47a8.34,8.34,0,0,1,5.85-1.24,4.55,4.55,0,0,1,4,4.65c.07,1.92,0,3.84,0,5.75,0,.82,0,1.48,1.11,1.61.89.1.78,1,.65,1.54-.07.28-.63.47-1,.65-.16.08-.39,0-.59,0C59.83,20.5,58.39,20.88,58.22,19.23Zm-1.71-4.92c-1.09.32-2.14.55-3.13.93a1.68,1.68,0,0,0-1,2,1.62,1.62,0,0,0,1.56,1.41,3.65,3.65,0,0,0,3.62-1.36,3.9,3.9,0,0,0,.26-2.38C57.78,14.66,57,14.51,56.51,14.31Z"/><path class="cls-1" d="M47.34,18.54a7.05,7.05,0,0,1-7.27,1.92c-2.71-.88-4-2.95-4.32-5.63a10.07,10.07,0,0,1,.07-3.1c.7-3.87,3.78-6,7.73-5.34,3.37.53,3.33.53,3.33,3.91,0,1.07-.51,1.3-1.31,1.06a1.29,1.29,0,0,1-.7-1c0-1.35-.7-1.72-1.86-1.78a3.31,3.31,0,0,0-3.7,2.55,11.58,11.58,0,0,0,0,4.58c.56,2.57,3.22,3.48,5.47,2.12C46.28,16.91,46.28,16.91,47.34,18.54Z"/><path class="cls-1" d="M34.39,8.78c-1.28,0-2.15,0-3,0-.7,0-1,.28-1,1,0,2.31,0,4.63,0,7,0,1.09.81,1.85,1.69,1.49,1.48-.61,1.91.23,2.36,1.44a5.41,5.41,0,0,1-5.17.8c-1.63-.59-2-2-2-3.6,0-2.23,0-4.47,0-6.71,0-.91-.19-1.44-1.25-1.41-.29,0-.73-.49-.85-.83a.74.74,0,0,1,.77-1.05c1.35,0,1.66-.81,1.75-1.92,0-.55.27-1.09.31-1.65.07-1,.69-1.16,1.56-1.14,1.07,0,.78.78.82,1.36.06,1-.25,2.21.24,2.77s1.76.34,2.69.4C34.87,6.78,33.84,7.92,34.39,8.78Z"/><path class="cls-1" d="M22.11,12.26c0,1.6,0,3.19,0,4.79,0,.74.25,1.16,1,1.18,1,0,1.12.67,1.09,1.48s-.69.81-1.28.81c-1.67,0-3.35,0-5,0a1.27,1.27,0,0,1-.93-.73c-.14-.58-.2-1.41.73-1.46,1.17-.07,1.31-.71,1.29-1.68q-.06-3.24,0-6.48c0-.81-.22-1.29-1.1-1.35s-1-.82-1-1.58.71-.7,1.23-.71c1,0,2,0,3,0,.73,0,1,.25,1,1C22.09,9.06,22.11,10.66,22.11,12.26Z"/><path class="cls-1" d="M22.63,2.11a2.07,2.07,0,0,1-4.14.12,2.07,2.07,0,0,1,4.14-.12Z"/></g></g></g></g></svg>