<svg xmlns="http://www.w3.org/2000/svg" viewBox="0 0 101.25 19.83"><defs><style>.cls-1{fill:#fff;}</style></defs><title>bloomberg</title><g id="Layer_2" data-name="Layer 2"><g id="logos"><g id="_2K" data-name="2K"><g id="bloomberg"><path class="cls-1" d="M2.8,8.4H5.36c2.16,0,3.27.49,3.27,2,0,1.94-1.9,2.17-3.28,2.17H2.8V8.4ZM0,14.93H5.39c2.84,0,5.91-1.09,5.91-4.29A3.54,3.54,0,0,0,8.06,7.08V7a3.41,3.41,0,0,0,2.6-3.34C10.66,1,8.34,0,6.07,0H0ZM2.8,2.33H5c2,0,3,.62,3,1.88S7.11,6.07,5.33,6.07H2.8Z"/><rect class="cls-1" x="12.6" width="2.8" height="14.93"/><path class="cls-1" d="M17.27,9.85a5.23,5.23,0,0,0,5.53,5.24,5.25,5.25,0,1,0,0-10.49A5.24,5.24,0,0,0,17.27,9.85Zm2.54,0a3,3,0,1,1,6,0,3,3,0,1,1-6,0Z"/><path class="cls-1" d="M29.46,9.85A5.23,5.23,0,0,0,35,15.09,5.25,5.25,0,1,0,35,4.6,5.23,5.23,0,0,0,29.46,9.85Zm2.54,0a3,3,0,1,1,6,0,3,3,0,1,1-6,0Z"/><path class="cls-1" d="M41.53,4.67h2.8V6.41h0A3.47,3.47,0,0,1,47.62,4.6a3.11,3.11,0,0,1,3.17,1.86A3.66,3.66,0,0,1,54.2,4.6c2.71,0,3.66,1.9,3.66,4.29v6h-2.8V9.27c0-1.24-.25-2.42-1.76-2.42s-2,1.29-2,2.58v5.5H48.53V9a2,2,0,0,0-2-2.13c-1.67,0-2.19,1.21-2.19,2.54v5.54h-2.8V4.67Z"/><path class="cls-1" d="M59.25,14.93h2.81v-1.4h0a4.32,4.32,0,0,0,3.7,1.75c3.13,0,5-2.48,5-5.43A4.94,4.94,0,0,0,65.9,4.6a5,5,0,0,0-3.78,1.53h-.06V0h-2.8V14.93Zm9-5.08a3,3,0,1,1-6,0,3,3,0,1,1,6,0Z"/><path class="cls-1" d="M82.24,10.72V10c0-3.47-1.93-5.44-4.76-5.44a5.25,5.25,0,1,0,0,10.49,5.36,5.36,0,0,0,4.3-2L80,11.74a3.34,3.34,0,0,1-2.72,1.35,2.61,2.61,0,0,1-2.73-2.37ZM74.5,8.85a2.5,2.5,0,0,1,2.62-2.37A2.32,2.32,0,0,1,79.7,8.85Z"/><path class="cls-1" d="M83.52,4.86h2.91V6.44h0a3.22,3.22,0,0,1,3-1.84,3.53,3.53,0,0,1,.91.15V7.17A4.9,4.9,0,0,0,89.16,7,2.53,2.53,0,0,0,86.43,9.5v5.34H83.52v-10Z"/><path class="cls-1" d="M98.92,4.67V6.16l.11.2A3.93,3.93,0,0,0,95.54,4.6c-3.13,0-5,2.3-5,5.25A4.92,4.92,0,0,0,95.58,15a4.09,4.09,0,0,0,3.29-1.45h0v.72c0,2-.76,3.36-3.22,3.36a4.88,4.88,0,0,1-3.46-1.44l-1.53,2a6.73,6.73,0,0,0,4.81,1.64c4,0,5.73-2.29,5.73-5.88V4.67ZM96.06,6.85a2.8,2.8,0,0,1,3,2.93,2.83,2.83,0,0,1-3,2.94,2.92,2.92,0,0,1-3-2.9A2.85,2.85,0,0,1,96.06,6.85Z"/></g></g></g></g></svg>