<?xml version="1.0" encoding="utf-8"?>
<!-- Generator: Adobe Illustrator 19.1.0, SVG Export Plug-In . SVG Version: 6.00 Build 0)  -->
<svg version="1.1" id="Layer_1" xmlns="http://www.w3.org/2000/svg" xmlns:xlink="http://www.w3.org/1999/xlink" x="0px" y="0px"
	 viewBox="0 0 1296 1296" style="enable-background:new 0 0 1296 1296;" xml:space="preserve">
<style type="text/css">
	.st0{fill:none;}
	.st1{fill:#FFFFFF;}
</style>
<rect x="429.5" y="479.5" class="st0" width="480.2" height="100.2"/>
<g>
	<path class="st1" d="M442.1,491.9h10.4c9.5,0,13.6,3,13.6,9.1c0,5.3-4.2,8.9-12.5,8.9h-11.4V491.9z M429.6,551.6H455
		c13.3,0,26.7-4.8,26.7-20.1c0-9.1-6.4-16-15.2-17v-0.2c7.3-2.2,12.2-7.5,12.2-15.4c0-12.8-10.9-17.7-21.6-17.7h-27.5V551.6z
		 M442.1,520.6h12c10.2,0,14.9,2.6,14.9,10c0,9.3-9,10.4-15.4,10.4h-11.5V520.6z"/>
	<path class="st1" d="M489.8,479.5h11.9v72.1h-11.9V479.5z"/>
	<path class="st1" d="M521.7,527.7c0-7.5,5.3-14.3,14-14.3c8.8,0,14,6.9,14,14.3c0,7.5-5.3,14.3-14,14.3
		C527,542.1,521.7,535.2,521.7,527.7z M509.8,527.7c0,15,11.5,25.1,26,25.1c14.4,0,26-10.1,26-25.1c0-15-11.5-25.1-26-25.1
		C521.3,502.7,509.8,512.7,509.8,527.7z"/>
	<path class="st1" d="M579.1,527.7c0-7.5,5.3-14.3,14-14.3c8.8,0,14,6.9,14,14.3c0,7.5-5.3,14.3-14,14.3
		C584.3,542.1,579.1,535.2,579.1,527.7z M567.1,527.7c0,15,11.5,25.1,26,25.1c14.4,0,26-10.1,26-25.1c0-15-11.5-25.1-26-25.1
		C578.7,502.7,567.1,512.7,567.1,527.7z"/>
	<path class="st1" d="M626.4,503.9h11.3v7.5h0.2c2.1-4.5,6.7-8.7,14.6-8.7c7.4,0,12.4,2.9,14.9,8.9c3.5-6.1,8.6-8.9,15.7-8.9
		c12.7,0,17.2,9.1,17.2,20.5v28.5h-11.9v-27.1c0-6-1.8-11.1-8.9-11.1c-7.5,0-10.3,6.2-10.3,12.3v25.9h-11.9v-28.5
		c0-5.9-2.4-9.8-8.2-9.8c-7.9,0-10.9,5.8-10.9,12.1v26.1h-11.9V503.9z"/>
	<path class="st1" d="M749.7,527.7c0,7.5-5.3,14.3-14,14.3c-8.8,0-14-6.9-14-14.3c0-7.5,5.3-14.3,14-14.3
		C744.4,513.4,749.7,520.3,749.7,527.7z M710.1,551.6h11.3v-7.2h0.2c3.5,5.8,9.8,8.4,16.4,8.4c14.7,0,23.6-10.9,23.6-25.1
		c0-14.1-9.5-25.1-23.1-25.1c-9,0-13.7,4.2-16.2,7.3H722v-30.4h-11.9V551.6z"/>
	<path class="st1" d="M779,523c0.9-6.9,5.3-11.3,12.3-11.3c7.5,0,12,4.4,12.1,11.3H779z M815.4,531.9v-3.3c0-16.6-9.1-26-22.4-26
		c-14.4,0-26,10.1-26,25.1c0,15,11.5,25.1,26,25.1c7.6,0,14.6-2.7,20.2-9.6l-8.6-6.5c-3,3.7-6.9,6.5-12.8,6.5
		c-6.7,0-12-4.3-12.8-11.3H815.4z"/>
	<path class="st1" d="M823.2,503.9h11.9v7.6h0.2c2.6-5.5,7.9-8.8,14.1-8.8c1.5,0,2.9,0.3,4.3,0.7v11.5c-2-0.5-3.9-0.9-5.8-0.9
		c-11.2,0-12.8,9.5-12.8,12v25.6h-11.9V503.9z"/>
	<path class="st1" d="M880.5,513.4c8.7,0,14.1,5.8,14.1,14c0,8-5.4,14-14.2,14c-8.1,0-14-6.3-14-13.8
		C866.4,519.2,872.1,513.4,880.5,513.4z M894.6,503.9v7.2h-0.2c-3.5-5.8-9.8-8.4-16.4-8.4c-14.7,0-23.6,11-23.6,25.1
		c0,13.5,9.5,24.5,23.8,24.5c6,0,12.1-2.3,15.6-7h0.2v3.5c0,9.5-3.6,16-15.1,16c-6.7,0-11.6-2.5-16.4-6.9l-7.2,9.8
		c6.8,6,14.8,7.9,23.7,7.9c18.6,0,27-10.9,27-28.2v-43.5H894.6z"/>
</g>
</svg>
