<?xml version="1.0" encoding="utf-8"?>
<!-- Generator: Adobe Illustrator 22.1.0, SVG Export Plug-In . SVG Version: 6.00 Build 0)  -->
<svg version="1.1" id="Layer_1" xmlns="http://www.w3.org/2000/svg" xmlns:xlink="http://www.w3.org/1999/xlink" x="0px" y="0px"
	 viewBox="0 0 2000 322" style="enable-background:new 0 0 2000 322;" xml:space="preserve">
<style type="text/css">
	.st0{fill:#FFFFFF;}
</style>
<g>
	<path class="st0" d="M94.3,88.3c20.5,0.5,40.7-0.3,60.7,1.9c20,2.2,31.7,21.6,25.9,39.6c-3.2,10-10.5,15.9-20.6,19.5
		c1.2,0.6,2,1.1,2.8,1.4c16,6.3,24.4,19.7,22.7,36.4c-1.7,15.9-13.7,29.3-30.3,30.3c-20.2,1.3-40.6,0.3-61.2,0.3
		C94.3,175.3,94.3,132.4,94.3,88.3z M109.8,204.9c14.2,0,27.8,0.6,41.4-0.2c9.8-0.6,16.9-8.3,18.7-17.5c3-15.8-7.6-29.6-23.8-30.1
		c-11.5-0.4-23-0.1-34.5-0.1c-0.6,0-1.2,0.4-1.8,0.6C109.8,173.4,109.8,189.2,109.8,204.9z M109.8,143.9c13.3,0,26.2,0.9,38.8-0.3
		c10.8-1,18.8-12.3,18.1-22.9c-0.8-11.2-8.8-18.5-21.1-18.9c-8.5-0.3-17-0.1-25.4-0.2c-3.4,0-6.8,0-10.4,0
		C109.8,116.4,109.8,130.3,109.8,143.9z"/>
	<path class="st0" d="M1431.8,218.4c-5.2,0-9.6,0-14.4,0c0-31.7,0-63.3,0-95.2c4.2,0,8.5,0,13.4,0c0,4.6,0,9.3,0,14.7
		c21.5-24.8,43.2-23.7,55.6,2.3c1.2-1.9,2.3-3.7,3.4-5.4c6.2-8.8,14.7-13.9,25.5-14.8c15.1-1.1,28.1,9.3,29.5,25.1
		c1.3,15.1,0.9,30.3,1.1,45.4c0.1,9.1,0,18.2,0,27.6c-5.1,0-9.6,0-14.8,0c0-2.1,0-3.9,0-5.6c0-19.5,0-39-0.2-58.5
		c0-2.8-0.4-5.7-1.2-8.4c-2-7.1-6.4-12.1-13.9-13.5c-8.2-1.4-14.7,2-19.8,8.2c-4.8,5.8-7.2,12.6-7.2,20.3c0,17.2,0,34.3-0.1,51.5
		c0,1.8,0,3.6,0,5.9c-4.8,0-9.4,0-14.5,0c-0.1-1.7-0.2-3.4-0.2-5.2c0-20.2,0.2-40.3-0.3-60.5c-0.1-4.7-1.8-10.2-4.7-13.7
		c-9.2-11.1-26.7-8.2-33.3,5.2c-2.3,4.6-3.6,10.2-3.7,15.3c-0.5,17.7-0.2,35.3-0.3,53C1431.8,214.2,1431.8,216,1431.8,218.4z"/>
	<path class="st0" d="M1216.1,143.7c20.3,0,39.9,0,59.9,0c0-18.2,0-36.1,0-54.5c5.3,0,10.2,0,15.5,0c0,42.7,0,85.6,0,128.9
		c-4.7,0-9.6,0-15.1,0c0-20.5,0-41.1,0-61.9c-20.2,0-39.8,0-60,0c0,20.5,0,41.1,0,62c-5,0-9.4,0-14.2,0c0-42.9,0-85.8,0-129
		c4.4,0,9,0,13.9,0C1216.1,107.3,1216.1,125.2,1216.1,143.7z"/>
	<path class="st0" d="M635.4,218.6c3.7-11.3,7.1-21.7,10.5-32.1c10.1-31,20.2-61.9,30.2-93c1.1-3.5,2.6-5,6.5-4.9
		c12.6,0.2,12.5,0.1,16.5,12.3c12.1,37.1,24.2,74.3,36.4,111.4c0.6,1.7,1,3.5,1.9,6.2c-5,0-9.6,0.2-14.1-0.2c-0.9-0.1-2-2-2.4-3.3
		c-3.5-10-7.1-20.1-10.3-30.2c-1-2.9-2.2-4.2-5.5-4.2c-13.3,0.2-26.6,0.2-40,0c-3,0-4.3,0.9-5.2,3.8c-2.9,9.7-6.2,19.3-9,29
		c-1.1,3.8-2.7,5.7-6.9,5.1C641.5,218.3,638.9,218.6,635.4,218.6z M705.3,167.7c-6.6-20.2-13.2-40.1-19.7-59.9
		c-0.4,0-0.7,0.1-1.1,0.1c-6.2,19.9-12.4,39.7-18.7,59.8C679.1,167.7,691.9,167.7,705.3,167.7z"/>
	<path class="st0" d="M1376.6,158.9c3.4-15.2-3.4-25.3-17.8-26.7c-5.1-0.5-10.3,0-15.3,1c-8.1,1.6-13.5,6.7-15.9,15.1
		c-4.3-0.6-8.3-1.2-12.5-1.8c1.4-9.5,6.1-16.3,14.1-20.4c14.3-7.4,29.4-8.3,44.6-3.5c12.7,4,16.4,14.7,17.1,26.7
		c0.5,8.8,0.1,17.6,0.3,26.5c0.3,14.1,0.8,28.2,1.2,42.4c-3.5,0-8.1,0-12.9,0c-0.6-5.5-1.2-10.8-1.9-17.2c-1.3,1.8-2.1,2.8-2.8,3.9
		c-12.4,20.6-41.9,17.6-53.4,7.6c-15.4-13.4-10.9-40.7,8.8-48.3c8.7-3.3,18.4-4.1,27.7-5.3C1364.1,158.3,1370.5,158.9,1376.6,158.9z
		 M1377.1,169.2c-10.2,0.7-20,0.8-29.7,2.2c-4.9,0.7-9.9,3.1-14,6c-6.3,4.3-7.5,11.2-6.2,18.4c1.2,6.7,5.9,10.1,12.2,11.7
		c14,3.6,27.4-2.4,34.1-15.2C1377.1,185.4,1377.9,178.1,1377.1,169.2z"/>
	<path class="st0" d="M916.4,171.7c-24,0-46.8,0-69.5,0c-3.5,13.7,4.1,28.4,17.3,34.2c12.7,5.6,26.6,2.1,33.6-9.9
		c3.1-5.3,6.3-6.2,11.4-5c1.8,0.4,3.6,0.7,5.4,1c-4.7,16.5-23,28.8-41.7,28.2c-23.3-0.7-39.5-16.7-41.9-41.4
		c-1-10.7-0.3-21.3,3.9-31.4c7.6-18.6,24.3-29.1,43.7-27.3c19,1.8,32.4,14.7,36.1,35C915.7,160.4,915.8,165.7,916.4,171.7z
		 M847.4,160.7c17.1,0,33.8,0.1,50.6-0.2c0.9,0,2.5-2.7,2.4-4.1c-0.9-15.3-12.2-26-26.5-25.4C859.1,131.6,847,144.7,847.4,160.7z"/>
	<path class="st0" d="M286.8,169.7c-0.5,10.4-2.6,20.3-7.9,29.3c-9.3,15.8-23.6,22.5-41.6,21.1c-17.1-1.3-27.5-11.6-33.3-26.9
		c-5.4-14.1-5.8-28.6-1-43c6.3-19.2,22.2-30.5,41.8-30.1c18.9,0.4,33.6,12.3,39,32C285.3,157.8,285.8,163.8,286.8,169.7z
		 M215.6,169.9c1.3,6.8,1.9,14.2,4.1,21.1c3.6,11.5,12.1,17.4,23.4,17.4c10.9,0,20.2-6.8,23.8-17.9c4.1-13,4.3-26.2,0.7-39.3
		c-1-3.9-3-7.9-5.7-10.8c-13.6-14.6-36.3-9.3-42.7,10C217.1,156.4,216.8,163,215.6,169.9z"/>
	<path class="st0" d="M341.5,220.3c-11.8,0.1-22.2-4.4-30.1-14.4c-14.5-18.4-14.8-50.4-1-69.4c15.2-21,54.1-24.7,69,5.7
		c8.9,18.3,8.9,37,0.1,55.4C372.4,212.2,359.5,219.7,341.5,220.3z M371.1,169.9c-1.4-7-2.1-14.3-4.4-20.9
		c-3.8-10.8-13.8-17.4-24-17.1c-10.6,0.4-19.8,7-23.2,18.1c-4.4,14.2-4.2,28.6,1,42.6c3.9,10.4,12.4,16,23.1,15.8
		c10.1-0.2,20-6.9,23.1-16.9C368.8,184.6,369.6,177.3,371.1,169.9z"/>
	<path class="st0" d="M1712.3,169.4c2.2-8.4,3.4-17.3,6.8-25.2c7.2-16.7,21.2-24.3,39.1-24.1c17.3,0.2,29.3,9.2,35.8,24.9
		c8.2,20,7.3,39.7-4.6,58.1c-14.3,22.1-54.7,25.5-69.4-5c-4.3-9-6.3-18.5-6.2-28.5C1713.2,169.7,1712.7,169.5,1712.3,169.4z
		 M1784.4,169.7c-1-8.9-1.7-17.5-6.4-25.2c-5.2-8.5-13-12.9-22.9-12.5c-9.4,0.4-16.5,5.1-20.3,13.8c-6.8,15.4-6.3,31.1-0.8,46.7
		c3.7,10.4,12.3,16.1,22.4,15.9c10.8-0.2,20.5-6.7,23.6-16.8C1782.1,184.5,1782.9,177,1784.4,169.7z"/>
	<path class="st0" d="M952,217.7c-0.8,0.5-1,0.7-1.1,0.7c-13.6,1.3-13.6,1.3-13.6-12.1c0-25.8,0-51.6,0-77.5c0-1.8,0-3.6,0-5.7
		c4.7,0,9,0,13.7,0c0,4.9,0,9.6,0,14.3c0.3,0.1,0.7,0.2,1,0.3c0.9-1.2,1.8-2.5,2.7-3.7c13.1-18.4,41.2-18.9,53.2-0.5
		c2.6,4,4.3,9.3,4.4,14c0.4,23.4,0.2,46.9,0.2,70.7c-4.6,0-9.2,0-14.4,0c0-1.9,0-3.7,0-5.4c0-20.2,0-40.3,0-60.5
		c0-14.1-9.8-21.9-23.7-18.9c-11.7,2.6-19.4,11.1-21.5,24c-0.7,4.3-0.9,8.6-1,12.9C951.9,186.2,952,202,952,217.7z"/>
	<path class="st0" d="M1894.6,218.3c-4.9,0-9.5,0-14.5,0c0-2.1,0-3.9,0-5.7c0-17.8,0-35.6,0-53.5c0-1.7,0-3.3,0-5
		c-0.1-7.8-1.5-15-9.5-18.9c-8.3-4-16.3-2.9-23.7,2.1c-10.4,7-13.6,17.7-13.8,29.5c-0.2,15.1-0.1,30.3-0.1,45.5c0,1.8,0,3.6,0,5.9
		c-4.8,0-9.4,0-14.2,0c0-31.7,0-63.3,0-95.1c4.7,0,9.1,0,14.1,0c0,4.5,0,8.9,0,14.6c1.7-2.2,2.6-3.3,3.4-4.4
		c12.7-16.6,38-17.7,51.1-2.4c5.5,6.5,7,14.4,7.1,22.4C1894.8,174.8,1894.6,196.2,1894.6,218.3z"/>
	<path class="st0" d="M467.5,123.1c-2,5-2.9,9.4-5.2,12.9c-14.9,21.9-30.1,43.5-45.2,65.3c-1,1.5-2,3-3.6,5.3c17.9,0,34.9,0,52.1,0
		c0,4.2,0,7.8,0,11.7c-23.4,0-46.7,0-70.3,0c-0.5-6.2-0.6-11.7,3.5-17.3c15-20.4,29.4-41.2,44-61.8c1-1.5,2-3,3.4-5.1
		c-15.7,0-30.7,0-46.1,0c0-3.9,0-7.2,0-10.9C421.9,123.1,443.6,123.1,467.5,123.1z"/>
	<path class="st0" d="M1664.7,98.1c5-0.4,9.3-0.7,14.4-1.1c0,8.2,0,16.3,0,24.8c7.5,0,14.2,0,21.2,0c0,4.1,0,7.7,0,11.8
		c-6.8,0-13.5,0-19.9,0c-0.5,0.8-0.8,1.1-0.8,1.4c0,19.8-0.2,39.6,0.2,59.4c0.2,10.2,6.2,14.7,16.6,13.9c3-0.2,5.9-0.4,9.3-0.6
		c0,3.7,0,7.1,0,10.9c-4.7,0.6-9.2,1.5-13.8,1.6c-16.3,0.5-26.3-9-26.8-26.1c-0.4-17.8-0.2-35.6-0.2-53.4c0-2,0-4,0-6.5
		c-5.5,0-10.7,0-16.3,0c0-4.3,0-7.9,0-12.2c5.3,0,10.5,0,16.2,0C1664.7,113.8,1664.7,106.2,1664.7,98.1z"/>
	<path class="st0" d="M561.4,260.7c-3.9,0-7.4,0-11.2,0c0-66.5,0-132.8,0-199.4c3.8,0,7.4,0,11.2,0
		C561.4,127.8,561.4,194,561.4,260.7z"/>
	<path class="st0" d="M1098.1,61.3c3.7,0,7.1,0,11,0c0,66.4,0,132.8,0,199.4c-3.6,0-7.1,0-11,0
		C1098.1,194.2,1098.1,127.9,1098.1,61.3z"/>
	<path class="st0" d="M752.6,89c4.4,0,8.5,0,13,0c0,43,0,85.9,0,129.2c-4.1,0-8.4,0-13,0C752.6,175.3,752.6,132.4,752.6,89z"/>
	<path class="st0" d="M1631.2,218.3c-4.5,0-8.6,0-13,0c0-43.1,0-86,0-129.2c4.2,0,8.4,0,13,0C1631.2,132,1631.2,174.9,1631.2,218.3z
		"/>
	<path class="st0" d="M796.6,89.1c4.9,0,9,0,13.3,0c0,43.2,0,86,0,129.5c-3.7,0-7.2,0.2-10.6-0.1c-1-0.1-2.2-1.5-2.6-2.6
		c-0.5-1.2-0.1-2.6-0.1-4c0-38.8,0-77.6,0-116.4C796.6,93.4,796.6,91.5,796.6,89.1z"/>
	<path class="st0" d="M1573.1,123.1c4.8,0,9.2,0,13.8,0c0,31.8,0,63.3,0,95.1c-4.7,0-9.1,0-13.8,0
		C1573.1,186.6,1573.1,155.1,1573.1,123.1z"/>
	<path class="st0" d="M1572,104.8c0-5.4,0-10.3,0-15.6c5.3,0,10.4,0,15.9,0c0,5.2,0,10.3,0,15.6
		C1582.6,104.8,1577.6,104.8,1572,104.8z"/>
</g>
</svg>
