<?xml version="1.0" encoding="utf-8"?>
<!-- Generator: Adobe Illustrator 22.1.0, SVG Export Plug-In . SVG Version: 6.00 Build 0)  -->
<svg version="1.1" id="Layer_1" xmlns="http://www.w3.org/2000/svg" xmlns:xlink="http://www.w3.org/1999/xlink" x="0px" y="0px"
	 viewBox="0 0 170.4 39.1" style="enable-background:new 0 0 170.4 39.1;" xml:space="preserve">
<style type="text/css">
	.st0{fill:#3EC5F3;}
	.st1{fill:#EE2C42;}
</style>
<g>
	<g>
		<path class="st0" d="M16.5,28.9H8.8v-19h7.4c3.5,0,5.7,2,5.7,5.2c0,2.1-1.3,3.5-2.6,4c1.5,0.6,2.9,2,2.9,4.4
			C22.2,27,19.8,28.9,16.5,28.9z M15.9,12.4h-4.3v5.4h4.3c1.8,0,3.1-1,3.1-2.7S17.8,12.4,15.9,12.4z M16.2,20.5h-4.5v5.8h4.5
			c2,0,3.1-1.2,3.1-2.9C19.3,21.7,18.2,20.5,16.2,20.5z"/>
		<path class="st0" d="M36.1,28.9l-4-8h-3.6v8h-2.9v-19H33c3.6,0,5.9,2.3,5.9,5.6c0,2.7-1.7,4.5-3.8,5l4.4,8.4H36.1z M32.7,12.4
			h-4.2v6h4.3c1.9,0,3.2-1.1,3.2-3C36,13.6,34.7,12.4,32.7,12.4z"/>
		<path class="st0" d="M42.2,28.9v-19h2.9v19H42.2z"/>
		<path class="st0" d="M60.5,26.9c-1.4,1.5-3.2,2.2-5.2,2.2s-3.7-0.7-5-2c-1.9-1.9-1.8-4-1.8-7.6c0-3.7,0-5.8,1.8-7.6
			c1.3-1.3,3-2,5-2c4,0,6.4,2.6,6.9,5.9h-2.9c-0.5-2.1-1.9-3.3-4-3.3c-1.1,0-2.1,0.5-2.8,1.2c-0.9,1-1.1,2.1-1.1,5.9
			c0,3.8,0.2,4.9,1.1,5.9c0.7,0.7,1.7,1.1,2.8,1.1c1.3,0,2.3-0.5,3.1-1.3c0.7-0.8,1-1.8,1-3v-1.1h-4.1v-2.5h6.9v2.9
			C62.2,24,61.7,25.5,60.5,26.9z"/>
		<path class="st0" d="M76.1,28.9v-8.3h-7.7v8.3h-2.9v-19h2.9V18h7.7V9.9H79v19H76.1z"/>
		<path class="st0" d="M89.5,12.4v16.4h-2.9V12.4h-5.2V9.8h13.3v2.6H89.5z"/>
		<path class="st0" d="M102.2,29c-2.9,0-4.9-0.7-6.7-2.5l1.9-1.9c1.4,1.4,2.9,1.8,4.9,1.8c2.5,0,3.9-1.1,3.9-2.9
			c0-0.8-0.2-1.5-0.7-2s-1-0.6-2.1-0.8l-2.2-0.3c-1.5-0.2-2.8-0.7-3.6-1.5c-0.9-0.9-1.4-2.1-1.4-3.6c0-3.3,2.4-5.6,6.4-5.6
			c2.5,0,4.3,0.6,5.9,2.2l-1.8,1.8c-1.2-1.1-2.5-1.5-4.1-1.5c-2.2,0-3.5,1.3-3.5,3c0,0.7,0.2,1.3,0.7,1.8c0.5,0.4,1.3,0.7,2.1,0.9
			l2.2,0.3c1.8,0.3,2.7,0.7,3.5,1.4c1,0.9,1.5,2.3,1.5,3.9C109.1,26.9,106.2,29,102.2,29z"/>
		<path class="st0" d="M119,21.4h-4.3v7.5h-2.9v-19h7.2c3.7,0,6.1,2.5,6.1,5.8C125.1,18.9,122.7,21.4,119,21.4z M118.8,12.4h-4.2
			v6.3h4.2c2,0,3.4-1.1,3.4-3.1C122.2,13.6,120.8,12.4,118.8,12.4z"/>
		<path class="st0" d="M153.6,12.4v16.4h-2.9V12.4h-5.2V9.8h13.3v2.6H153.6z"/>
	</g>
	<path class="st1" d="M135.9,12.5c3.7,0,6.8,3,6.8,6.8c0,3.7-3,6.8-6.8,6.8c-3.7,0-6.8-3-6.8-6.8C129.1,15.6,132.1,12.5,135.9,12.5
		 M135.9,9.8c-5.2,0-9.5,4.3-9.5,9.5s4.3,9.5,9.5,9.5s9.5-4.3,9.5-9.5S141.1,9.8,135.9,9.8L135.9,9.8z"/>
</g>
<g>
	<path class="st0" d="M165.5,14.1c-0.5,0.5-1.1,0.8-1.8,0.8s-1.3-0.3-1.8-0.8s-0.7-1.1-0.7-1.8s0.2-1.3,0.8-1.8
		c0.5-0.5,1.1-0.7,1.8-0.7c0.7,0,1.3,0.2,1.8,0.7s0.8,1.1,0.8,1.8C166.3,13,166,13.6,165.5,14.1z M162.1,10.7
		c-0.4,0.4-0.6,0.9-0.6,1.6c0,0.6,0.2,1.1,0.6,1.6c0.4,0.4,0.9,0.6,1.6,0.6s1.1-0.2,1.6-0.6s0.6-1,0.6-1.6s-0.2-1.1-0.6-1.6
		c-0.4-0.4-1-0.6-1.6-0.6C163.1,10.1,162.6,10.3,162.1,10.7z M163.7,10.8c0.3,0,0.6,0,0.8,0.1c0.3,0.1,0.4,0.4,0.4,0.7
		s-0.1,0.4-0.3,0.6c-0.1,0.1-0.2,0.1-0.4,0.1c0.2,0,0.4,0.1,0.5,0.3c0.1,0.1,0.2,0.3,0.2,0.4v0.2c0,0.1,0,0.1,0,0.2s0,0.1,0,0.1l0,0
		h-0.5l0,0l0,0v-0.1v-0.2c0-0.3-0.1-0.5-0.3-0.6c-0.1-0.1-0.3-0.1-0.6-0.1h-0.4v1.1h-0.5v-2.8H163.7z M164.2,11.3
		c-0.1-0.1-0.3-0.1-0.6-0.1h-0.4v1h0.4c0.2,0,0.4,0,0.5-0.1c0.2-0.1,0.3-0.2,0.3-0.4S164.3,11.4,164.2,11.3z"/>
</g>
</svg>
