<svg width="430" height="98" xmlns="http://www.w3.org/2000/svg" viewBox="0 0 430 98.06"><title>bsos-black</title><path d="M133.44 12.82a4.75 4.75 0 0 0-4.72-3.15c-3.46 0-5.57 2.52-5.57 5.88 0 3.67 2.63 6.4 5.82 6.4a5.54 5.54 0 0 0 5-3h.42a26.39 26.39 0 0 1-1.26 3c-1.26-.21-2.2.52-4.61.52-4.2 0-7.14-2.72-7.14-6.51 0-4 3-6.79 7.35-6.79 2.63 0 3.67.84 4.3.84.21 0 .31-.11.42-.11h.32l.21 2.91zm14.48 9.75c-4 0-7.35-2.63-7.35-6.4 0-4.09 3.15-6.92 7.45-6.92 3.88 0 7.24 2.63 7.24 6.29a7.11 7.11 0 0 1-7.18 7h-.16zm-.42-12.9c-3.57 0-5 3.35-5 5.82 0 3.88 2.63 6.51 5.88 6.51s4.93-2.91 4.93-5.88c.1-3.72-2.32-6.45-5.78-6.45zm22.76 12.49h-9.12v-.42h.63c1 0 1.26-.31 1.26-1.37v-9c0-1-.31-1.57-1.57-1.57h-.31v-.35h6.09v.42h-.74c-1.37 0-1.68.11-1.68 1.37v9.44c0 .52.21.74.84.74h3c1.26 0 1.57-.42 2.83-2.2h.42zm15.51 0h-9.13v-.42h.63c1 0 1.26-.31 1.26-1.37v-9c0-1-.31-1.57-1.57-1.57h-.31v-.35h6.09v.42H182c-1.37 0-1.68.11-1.68 1.37v9.44c0 .52.21.74.84.74h3c1.26 0 1.57-.42 2.83-2.2h.42zm15.51-4.62h-.42c-.21-1.47-.52-1.57-1.37-1.57H196v4.42c0 1 .31 1.15 1.15 1.15h3.15c1.47 0 1.89-.52 2.41-2.31h.42l-.31 3h-11v-.42h.52c1.68 0 1.89-.42 1.89-1.68v-8.67c0-1.15-.31-1.68-1.68-1.68h-.42v-.33h9.86l.21 2.83h-.42c-.31-1.78-.74-2.09-1.47-2.09h-4.3v5h3.65c.74 0 1-.31 1.15-1.57h.42zm20.25 3.67a13.4 13.4 0 0 1-5.46 1.26 6.32 6.32 0 0 1-6.61-6v-.38a6.79 6.79 0 0 1 6.64-6.93h.5a16.48 16.48 0 0 1 4.09.74c.21 0 .31 0 .42-.11h.31v3.35h-.37a3.94 3.94 0 0 0-4.2-3.41c-3.57 0-5.46 2.91-5.46 6.29 0 4.2 2.91 6.09 5.35 6.09a7.56 7.56 0 0 0 3.15-.74V18.8c0-1.15-.42-1.57-1.68-1.57h-.74v-.52h5.57v.42c-1 .11-1.47.42-1.47 1.26v2.83zm15.74-3.67h-.42c-.21-1.47-.52-1.57-1.37-1.57H232v4.42c0 1 .31 1.15 1.15 1.15h3.15c1.47 0 1.89-.52 2.41-2.31h.42l-.31 3H228v-.42h.52c1.68 0 1.89-.42 1.89-1.68v-8.67c0-1.15-.31-1.68-1.68-1.68h-.42v-.33h9.86l.21 2.83H238c-.31-1.78-.74-2.09-1.47-2.09h-4.3v5h3.67c.74 0 1-.31 1.15-1.57h.42v3.91zm25.47 5c-4 0-7.35-2.63-7.35-6.4 0-4.09 3.15-6.92 7.45-6.92 3.88 0 7.24 2.63 7.24 6.29a7.11 7.11 0 0 1-7.18 7zm-.42-12.9c-3.57 0-5 3.35-5 5.82 0 3.88 2.63 6.51 5.88 6.51s4.93-2.91 4.93-5.88c.06-3.72-2.45-6.45-5.82-6.45zm22.88 7.69h-.31c0-1.15-.42-1.57-1.47-1.57h-3.78v4.51c0 1.15.21 1.57 1.78 1.57v.42h-4.93v-.43c1.26-.11 1.47-.31 1.47-2v-8.06c0-1.26-.11-1.89-1.57-1.89v-.43h9.13v2.41h-.31c0-1.15-.42-1.68-1.68-1.68h-3.88v4.85h4.09c.74 0 1.15-.42 1.15-1.26h.31v3.56zM124.62 37.26c0-2.09-.21-3.15-2.83-3.15h-1.26v-.73l4.51-.21c2-.11 4.72-.11 5.46-.11 3.15 0 6 .42 7.24 1.37a4.53 4.53 0 0 1-1.89 8.4v.11c3.35 1 5.35 3.25 5.35 6.09s-2 6.79-7.76 6.79h-13.22v-.71h.84c2.91 0 3.57-.74 3.57-2.91zm3 5.57h4c3.46 0 5.25-1.37 5.25-4.2 0-2.52-1.47-4.85-6-4.85l-3.15.11v8.92zm0 8.4c0 2.72 1 3.67 4.09 3.67 4.72 0 6.2-2.91 6.2-5.82s-2.09-5.66-6.4-5.66h-3.88zm32.84-3.46h-.74c-.31-2.52-1-2.83-2.41-2.83h-6.11v7.66c0 1.68.63 2 2 2h5.57c2.52 0 3.25-1 4.2-4.09h.63l-.6 5.34h-19.2v-.75h1c2.91 0 3.35-.84 3.35-2.91V37.03c0-2-.42-2.91-2.91-2.91h-.84v-.77h17.32l.31 5h-.63c-.42-3-1.37-3.67-2.63-3.67h-7.66v8.92h6.51c1.26 0 1.89-.63 2.09-2.72h.74zm12.38-2.52v6.78c0 2.31.42 3.15 2.91 3.15h.11v.74h-9v-.74h.21c2.09 0 2.83-.63 2.83-2.63V36.74c0-1.89-.63-2.41-2.63-2.52v-.74h8.6v.74c-2.52 0-3 .74-3 3.46v6.29H187v-7.1c0-1.89-.63-2.63-2.83-2.63h-.74v-.74h9.34v.74c-2.2.11-2.72.74-2.72 2.91v15c0 2.52.74 3.15 2.91 3.15h.31v.63h-10.2v-.74h1.14c2.31 0 2.83-.84 2.83-2.72v-7.34h-14.15zm28.22.74L199 51.64a14.28 14.28 0 0 0-.74 2.31c0 1 1 1.37 2.91 1.37h.63v.63h-8.4v-.74c2.31 0 2.72-.42 3.88-3.57l6.61-17.95-.31-.84h3.15l7.55 20c.74 1.89 1.47 2.31 3.25 2.31v.74h-9.94v-.74h1c2.09 0 2.83-.21 2.83-1.26a2.71 2.71 0 0 0-.42-1.47l-2.41-6.61zm3.67-10.07l-3 8.4H208zm20.56 20.56l-7.87-19.52c-1-2.31-1.37-2.83-3.57-2.83v-.74h10v.74c-3.35.11-4.09.84-3.46 2.52l6.51 16.16 5.66-14.9a7.21 7.21 0 0 0 .63-2.2c0-1-1-1.47-3.35-1.47v-.74h8.4v.74c-1.89 0-2.83.84-3.67 3.15l-7.45 19.3h-1.78zm22-.52h-8.81v-.74c2.2-.11 2.72-.74 2.72-3.15V36.74c0-2-.74-2.52-2.72-2.63v-.73h8.81v.74c-2.31 0-3 .52-3 2.91v15.35c0 2.09.63 2.83 3 2.83zm15.74.52c-7.16 0-13-4.52-13-11.33 0-7.24 5.57-12.27 13.22-12.27 6.79 0 12.69 4.62 12.69 11.12 0 7.44-5.9 12.49-12.93 12.49zm-.74-22.67c-6.4 0-8.92 6-8.92 10.29 0 6.72 4.62 11.54 10.38 11.54s8.73-5.25 8.73-10.38c0-6.72-4.21-11.44-10.18-11.44zm21.81 18.41c0 2.09.84 2.63 2.83 2.63h.84v.63h-10.06v-.63h.63c2.09 0 2.83-.52 2.83-2.91v-15c0-2.2-.63-2.83-2.63-2.83h-.74v-.63c.84 0 3-.11 4.51-.21s2.2-.11 4.51-.11c6.61 0 9.55 2.72 9.55 6.29a6.07 6.07 0 0 1-4.72 5.82 38.78 38.78 0 0 1 4.05 3.64l2.91 2.83c2.09 2.09 4.3 3.46 7 3.57v.63c-6.2.31-7.87-1-11-4.2l-2.34-2.27a23.63 23.63 0 0 0-3.67-3.15c-.84 0-1.47.11-2.41.11a9 9 0 0 1-1.78-.11v6zm0-6.62a15.51 15.51 0 0 0 2.2.11c4 0 6.51-1.68 6.51-6 0-3.35-1.47-5.88-6.92-5.88a10.18 10.18 0 0 0-1.78.11zm28.75.42l-2.09 5.66a14.28 14.28 0 0 0-.76 2.35c0 1 1 1.37 2.91 1.37h.63v.63h-8.4v-.74c2.31 0 2.72-.42 3.88-3.57l6.61-17.95-.31-.84h3.15l7.55 20c.74 1.89 1.47 2.31 3.25 2.31v.74h-9.9v-.75h1c2.09 0 2.83-.21 2.83-1.26a2.71 2.71 0 0 0-.42-1.47l-2.41-6.61zm3.71-10.11l-3 8.4h6.29zm28.75 20h-16.19v-.74h1.15c1.68 0 2.31-.52 2.31-2.41V36.87c0-1.89-.63-2.72-2.83-2.72h-.52v-.77h10.66v.74h-1.33c-2.31 0-2.91.21-2.91 2.52v16.71c0 1 .42 1.37 1.47 1.37h5.35c2.09 0 2.83-.84 5-4h.63l-2.79 5.31zm37.56-15.11v.63c-2 0-2.52.21-3 .74-.74.74-2.52 4.41-5.46 7.76 2 3 2.63 5.25 4.3 5.25a5.32 5.32 0 0 0 2.83-1.26l.31.63a7.25 7.25 0 0 1-4.41 1.89c-2.2 0-2.83-.84-4.85-4.51-2.63 2.83-5.66 4.51-8.29 4.51a5.89 5.89 0 0 1-5.84-5.93v-.09c0-2.91 1.78-4.93 6.29-6.72a6.66 6.66 0 0 1-2.58-4.67c0-2.52 2-4.2 4.93-4.2 2.63 0 4.62 1.47 4.62 3.46 0 1.68-1.47 3.25-4.09 4.62a24.39 24.39 0 0 1 6.29 6.4c1.68-2.09 4.51-6.2 4.51-7.14 0-.52-.42-.74-2-.74v-.63h6.4zm-17.1 13.85a9.29 9.29 0 0 0 6.4-3.25 24.29 24.29 0 0 0-6.79-7.14c-2.72 1.89-3.88 3.57-3.88 5.88a4.25 4.25 0 0 0 4 4.5h.29zm1.15-19.1a2.38 2.38 0 0 0-2.41 2.63c0 1.47 1 3 2.72 4.3a4 4 0 0 0 2.31-3.88c-.02-1.86-1.12-3.02-2.65-3.02zM122.57 84.17a6.22 6.22 0 0 0 6.09 5.14c2.41 0 5-1.37 5-4.3 0-5.25-11.63-6.79-11.63-13.12 0-3 2.72-5.25 6.4-5.25 3 0 3.67 1 4.93 1a.75.75 0 0 0 .63-.31h.63l.63 4.62h-.63a6.46 6.46 0 0 0-5.82-4.3c-2.41 0-4.09 1.37-4.09 3.35 0 5.14 11.63 6.51 11.63 13.12 0 3.57-3.15 6.2-7.35 6.2-2 0-4.51-1-5-1a.88.88 0 0 0-.74.42h-.63l-.74-5.46h.63v-.11zm29.65 6.08c-7.14 0-13-4.51-13-11.33 0-7.24 5.57-12.27 13.22-12.27 6.79 0 12.69 4.62 12.69 11.12-.01 7.34-5.88 12.47-12.91 12.47zm-.74-22.67c-6.4 0-8.92 6-8.92 10.29 0 6.72 4.61 11.54 10.38 11.54s8.73-5.25 8.73-10.38c0-6.71-4.21-11.43-10.18-11.43zm38.78 5.57a8.42 8.42 0 0 0-8.26-5.57c-6.09 0-9.75 4.41-9.75 10.49 0 6.51 4.72 11.33 10.18 11.33a9.49 9.49 0 0 0 8.78-5.37h.79a23.45 23.45 0 0 1-2.31 5.25c-2.31-.31-3.88 1-8.18 1-7.35 0-12.6-4.85-12.6-11.54 0-7 5.46-12.07 13-12.07 4.51 0 6.51 1.47 7.66 1.47.42 0 .63-.11.63-.21h.52l.31 5.25zm13.43 16.58h-8.81v-.7c2.2-.11 2.72-.74 2.72-3.15V70.52c0-2-.74-2.52-2.72-2.63v-.74h8.81v.74c-2.31 0-3 .52-3 2.91v15.32c0 2.09.63 2.83 3 2.83zm10.18-10.07l-2.06 5.7a14.27 14.27 0 0 0-.74 2.31c0 1 1 1.37 2.91 1.37h.63v.74h-8.4v-.75c2.31 0 2.72-.42 3.88-3.57l6.61-17.95-.31-.84h3.15l7.55 20c.74 1.89 1.47 2.31 3.25 2.31v.74h-9.93v-.69h1c2.09 0 2.83-.21 2.83-1.26a2.71 2.71 0 0 0-.42-1.47l-2.41-6.61zm3.67-10l-3 8.4h6.29zm28.75 20h-16.11v-.63h1.15c1.68 0 2.31-.52 2.31-2.41V70.63c0-1.89-.63-2.72-2.83-2.72h-.52v-.74h10.66v.73h-1.37c-2.31 0-2.91.21-2.91 2.52V87.1c0 1 .42 1.37 1.47 1.37h5.35c2.09 0 2.83-.84 5-4h.64zm15.48-5.56a6.22 6.22 0 0 0 6.09 5.14c2.41 0 5-1.37 5-4.3 0-5.25-11.63-6.79-11.63-13.12 0-3 2.72-5.25 6.4-5.25 3 0 3.67 1 4.93 1a.75.75 0 0 0 .63-.31h.63l.63 4.62h-.63a6.46 6.46 0 0 0-5.82-4.3c-2.41 0-4.09 1.37-4.09 3.35 0 5.14 11.63 6.51 11.63 13.12 0 3.57-3.15 6.2-7.35 6.2-2 0-4.51-1-5-1a.88.88 0 0 0-.74.42h-.63l-.74-5.46h.68v-.11zm38.08-11a8.42 8.42 0 0 0-8.29-5.57c-6.09 0-9.75 4.41-9.75 10.49 0 6.51 4.72 11.33 10.18 11.33a9.49 9.49 0 0 0 8.82-5.32h.72a23.45 23.45 0 0 1-2.31 5.25c-2.31-.31-3.88 1-8.18 1-7.35 0-12.6-4.85-12.6-11.54 0-7 5.46-12.07 13-12.07 4.51 0 6.51 1.47 7.66 1.47.42 0 .63-.11.63-.21h.52l.31 5.25zm13.44 16.63h-8.85v-.7c2.2-.11 2.72-.74 2.72-3.15V70.52c0-2-.74-2.52-2.72-2.63v-.74h8.81v.74c-2.31 0-3 .52-3 2.91v15.32c0 2.09.63 2.83 3 2.83zm19.39-8.18h-.74c-.31-2.52-1-2.83-2.41-2.83h-6.09v7.66c0 1.68.63 2 2 2H331c2.52 0 3.25-1 4.2-4.09h.63l-.63 5.35H316v-.74h1c2.91 0 3.35-.84 3.35-2.91V70.74c0-2-.42-2.91-2.91-2.91h-.84v-.74H334l.31 5h-.63c-.42-3-1.37-3.67-2.72-3.67h-7.66v8.92h6.51c1.26 0 1.89-.63 2.09-2.72h.7l.11 6.92zm30.06 8.4L344 70.31v15.51c0 2.63.63 3.15 3.67 3.15v.74h-8.36v-.74h.11c2.2 0 2.91-.74 2.91-2.41V68.74a5.51 5.51 0 0 0-3-1v-.71H345l17 17.73V70.52c0-2.2-.63-2.63-3.57-2.63v-.74h8.5v.74c-2.72 0-3.25.42-3.25 1.89v20.15h-.92zm27-16.8a8.42 8.42 0 0 0-8.29-5.57c-6.09 0-9.75 4.41-9.75 10.49 0 6.51 4.72 11.33 10.18 11.33a9.49 9.49 0 0 0 8.84-5.37h.74a23.45 23.45 0 0 1-2.31 5.25c-2.31-.31-3.88 1-8.18 1-7.35 0-12.6-4.85-12.6-11.54 0-7 5.46-12.07 13-12.07 4.51 0 6.51 1.47 7.66 1.47.42 0 .63-.11.63-.21h.52l.31 5.25h-.75zm20 8.4H409c-.31-2.52-1-2.83-2.41-2.83h-6.09v7.66c0 1.68.63 2 2 2h5.62c2.52 0 3.25-1 4.2-4.09h.68l-.63 5.35h-19.2v-.74h1c2.91 0 3.35-.84 3.35-2.91V70.74c0-2-.42-2.91-2.91-2.91h-.84v-.74h17.45l.31 5H411c-.42-3-1.37-3.67-2.63-3.67h-7.66v8.92h6.51c1.26 0 1.89-.63 2.09-2.72h.69v6.92h-.11zm6.4 2.63a6.22 6.22 0 0 0 6.09 5.14c2.41 0 5-1.37 5-4.3 0-5.25-11.63-6.79-11.63-13.12 0-3 2.72-5.25 6.4-5.25 3 0 3.67 1 4.93 1a.75.75 0 0 0 .63-.31h.63l.63 4.62h-.63a6.46 6.46 0 0 0-5.82-4.3c-2.41 0-4.09 1.37-4.09 3.35.09 5.09 11.72 6.46 11.72 13.02 0 3.57-3.15 6.2-7.35 6.2-2 0-4.51-1-5-1a.88.88 0 0 0-.74.42h-.63l-.74-5.46h.63v-.11z"/><path d="M49.45 83.13a34.49 34.49 0 0 0 34.42-34.42c0-19-16.09-34.22-34.42-34.22a34.32 34.32 0 1 0 0 68.64z" fill="#fff"/><path d="M65.44 27.03a116 116 0 0 1-16.58 1c.1-6.88.19-11.73.29-13.28 6.4 1.07 12.12 5.62 16.29 12.22" fill="#fff"/><path d="M72.91 51.52A169 169 0 0 1 49 53.03c0-9.31 0-18.32.1-25.3a116 116 0 0 0 16.58-1.07 49.78 49.78 0 0 1 7.27 24.82" fill="#d2232a"/><path d="M72.33 51.41c-1.75-.29-3.3-3.3-2.52-6.3-2.52 1.75-5.33-1.84-4.94-5.14.19-1.75 1.36-3.3 3.39-2.62a47.14 47.14 0 0 0-3-7.85c-1.75.19-3.68.39-5.72.58 1.84 2.81 0 5.33-2.52 4.94a3.88 3.88 0 0 1-3.11-4.52c-1.45 1.07-4.56.68-4.85-2.71a107.34 107.34 0 0 0 16.58-1.07c4.75 8 6.79 14.83 7.37 24.82l-.68-.1M31.22 74.68c-3.49-.58-5.91-1.36-6.69-2.23s-2-2.33-2.81-3.39a41.88 41.88 0 0 1-2.91-4.56 29 29 0 0 1-2.13-5 52.84 52.84 0 0 1-1.36-5.47 51.09 51.09 0 0 1-.39-5.43v-1.45c-.1 1.45 3.49 2.81 9.5 3.88v1.45c.1 9 2.62 16.77 6.79 22.2m18.13 8.43H47.9a29.69 29.69 0 0 1-5.24-.68 20.05 20.05 0 0 1-11.44-7.85 100.58 100.58 0 0 0 11.44 1.07c2.13.1 4.27.1 6.4.1.1 4.65.19 7.37.29 7.37" fill="#fff"/><path d="M49.06 75.86c-2.13 0-4.27 0-6.4-.1a100.58 100.58 0 0 1-11.44-1.08c-4.07-5.53-6.59-13.28-6.59-22.2v-1.16a121 121 0 0 0 15.61 1.45c2.91.1 5.82.19 8.73.19v1.17c-.1 9 0 16.58.1 21.72m-.1.48c-.29 1.16-1.94 2.33-4.27 1.36 1.07 1.45.19 2.71-1.75 2.33-1.55-.29-3.3-1.45-3.39-2.71-1.84-.1-3.59-.29-5-.48a20.8 20.8 0 0 0 4.75 4.07c.19-.1.48-.1 1.55.29l3.84 1.64c-1.07-.19-1.16-.19-1.84-.29a19.89 19.89 0 0 1-11.44-7.85 115.62 115.62 0 0 0 17.84 1.26c-.19 0-.19.19-.29.39" fill="#d2232a"/><path d="M31.22 74.6c-4.75-6.79-6.59-13.38-6.69-23.27 2.71.87 3.39 4.85 2.71 7 2.52-1 5.72 3.39 4.65 6.4-.48 1.36-1.84 1.75-3.3.87a32.83 32.83 0 0 0 2.91 7c1.84.29 3.78.48 6 .68-1.75-2.23-.39-4 2-3.88 2 .1 4.75 1.84 4.17 4.17 1.84-.87 4.94-.19 5.33 2.23-2.23 0-5.62 0-9.89-.39-2.71 0-5.33-.58-8-.78" fill="#fff"/><path d="M31.22 74.6c-3.88-.68-5.62-1.26-6.69-2.23-.78-.87-1.84-2.13-2.62-3.1a2.61 2.61 0 0 0 .58.68c-.39-.48-2.13-2.71-2.23-3.78 1-.19 4.07 4.75 4.17 4.85a22.15 22.15 0 0 0 3.68 1 34.34 34.34 0 0 1-3.49-7.08c-2.13 1.07-4.85-4.56-4-7 .19-.48.78-1.55 2.23-.39-1.07-2.52-.78-6.3 1.84-6.3-.1 8.53 1.07 15.61 6.5 23.37" fill="#d2232a"/><path d="M72.72 57.44c.1-1.65.19-3.2.19-4.85v-1.18H73v1.16c-.1 1.65-.1 3.3-.29 4.85m-18 25.31c9.4-1.45 16.68-11.54 18-25.4v.1c-1.36 13.77-8.63 23.85-18 25.3m11.34-4a44.6 44.6 0 0 1-5.33 2.42c-.78.19-1.75.58-2.42.78a25.7 25.7 0 0 0 12.41-7.85c-.71 1.58-1.19 2.55-3.71 4.2a4.53 4.53 0 0 1-1 .48"/><path d="M67 78.28c2-1.45 2.91-2.33 3.68-4.17 4.94-5.62 8-13.57 8-22.59v-1.16a15.64 15.64 0 0 0 3.63-1.33v1.16A32.6 32.6 0 0 1 67 78.28" fill="#f3c727"/><path d="M56.72 69.36c-2.33-2.33-2.33-2.33-7.72-7.56v-8.82c3 0 5.91-.1 8.73-.19v1.16a137.73 137.73 0 0 1-1 15.42"/><path d="M50.8 83.13h-1.45c-.19 0-.39-8.53-.48-21.33 5.14 4.85 5.62 5.43 7.76 7.56-1.08 8.34-3.21 13.67-5.83 13.77" fill="#f3c727"/><path d="M52.45 83.03c-.29 0-.68.1-.87.1h-.68c2.52-.1 4.65-5.33 5.91-13.77a29.77 29.77 0 0 1 4.75 5.82c-2.42 4.65-5.62 7.47-9.11 7.85"/><path d="M61.47 75.27a33.58 33.58 0 0 0-4.75-5.82 117.93 117.93 0 0 0 1-15.42v-1.15c2.81-.1 5.53-.29 8-.48v1.16c0 8.82-1.65 16.39-4.27 21.72" fill="#f3c727"/><path d="M62.15 79.44c.39-1.36.39-2.13-.68-4.27 2.62-5.24 4.27-12.89 4.27-21.72V52.3l2.81-.27c1.26 1.45 2.81 3.39 4.17 5.33-1 9.89-4.94 17.84-10.57 22.11"/><path d="M54.68 82.74l-.87.1a7 7 0 0 1-1.26.1h-.1c3.59-.29 6.69-3.2 9-7.76 1 1.84 1.26 2.71.68 4.27a15.72 15.72 0 0 1-7.47 3.3m3.59-.78l-.87.19c-1.36.29-1.36.29-2.13.48l-.68.1c6.69-1.07 12.31-6.4 15.51-14.35.87 2.33 1.16 3.49.58 5.72a25.27 25.27 0 0 1-12.41 7.85" fill="#f3c727"/><path d="M57.49 82.16c-1.36.29-1.36.29-2.13.48l-.68.1a15.72 15.72 0 0 0 7.47-3.3c-.78 1.16-1.36 1.65-3.88 2.52l-.78.19m13.19-8c.48-1.94.48-3.1-.58-5.72a42.16 42.16 0 0 0 2.81-15.8v-1.22a39.56 39.56 0 0 0 5.72-1.16v1.16c0 9.11-3 17.06-8 22.69"/><path d="M66 78.77a3.93 3.93 0 0 1 .87-.48l-.39.19-.48.29" fill="#f3c727"/><path d="M82.51 50.03c0 12.31-6.3 22.88-15.9 28.41l.39-.19a32.68 32.68 0 0 0 15.41-28.09v-1.13l.19-.1a4.72 4.72 0 0 0-.1 1.16"/><path d="M70.1 68.39c-1.16-2.52-2-3.78-4.85-7.17a65.33 65.33 0 0 0 .39-7.66v-1.18a69.25 69.25 0 0 0 7.17-.87v1.16a40.17 40.17 0 0 1-2.71 15.71" fill="#f3c727"/><path d="M65.25 61.22c-1.94-2.33-3-3.39-7.66-8.34 2.62-.1 4.75-.19 8-.58v1.16a50.07 50.07 0 0 1-.39 7.76m-40.57-9.89a40.77 40.77 0 0 1 .48-6v.1a40.55 40.55 0 0 0-.48 5.91m.48-5.91c2-14.25 10.28-26.27 20.55-30-10.28 3.68-18.52 15.8-20.55 30m20.55-30a17.25 17.25 0 0 1 3.68-1 22.83 22.83 0 0 0-3.68 1"/><path d="M28.8 25.54a13.57 13.57 0 0 1 4.65-6.21 34.69 34.69 0 0 1 15.9-4.85A31.28 31.28 0 0 0 28.8 25.54" fill="#f3c727"/><path d="M19.29 50.16a18.27 18.27 0 0 1-3.2-1.26 36.22 36.22 0 0 1 17.26-29.57 16.14 16.14 0 0 0-4.65 6.21 40.16 40.16 0 0 0-9.4 24.63"/><path d="M48.86 53.03c-2.91 0-5.82-.1-8.73-.19h-.29a122.59 122.59 0 0 1 1.37-17.41c2.52 3.1 3.78 4.65 7.66 8.73v8.87m-7.57-17.7a25.69 25.69 0 0 1-4.27-8c3.2-6.79 7.56-11.54 12.31-12.89C46 16.42 43 24.67 41.3 35.33" fill="#f3c727"/><path d="M39.94 52.78c-3-.1-5.82-.29-8.34-.58A62 62 0 0 1 37 27.28a23.84 23.84 0 0 0 4.27 8 112.06 112.06 0 0 0-1.36 17.55"/><path d="M31.61 52.3l-2.72-.27a48.12 48.12 0 0 1-3.78-6.5c1.45-10.08 6-19 12.22-24.72a10.27 10.27 0 0 0-.33 6.67 59.25 59.25 0 0 0-5.43 24.82" fill="#f3c727"/><path d="M36.94 27.38c-.58-2.81-.68-4.27.29-6.69a23.15 23.15 0 0 1 12.12-6.21c-4.85 1.26-9.21 6.11-12.41 12.89m-8.63 6.4a15.86 15.86 0 0 1 .48-8.24 30.87 30.87 0 0 1 20.56-11.05 12 12 0 0 0-3.68 1c-7.37 2.55-13.58 9.48-17.36 18.3"/><path d="M37.23 20.69c1.16-2 1.94-3 4.85-4.46a26.43 26.43 0 0 1 7.27-1.66 22.64 22.64 0 0 0-12.12 6.11m-12.7 30.65q-3.05-.58-5.24-1.16a39.67 39.67 0 0 1 9.5-24.63 15.4 15.4 0 0 0-.48 8.24 45.88 45.88 0 0 0-3.78 17.55" fill="#f3c727"/><path d="M33.45 19.33a20.51 20.51 0 0 1 7.85-3.88 37.28 37.28 0 0 1 8-1 34 34 0 0 0-15.9 4.85"/><path d="M16.09 48.9c-.68-.48-1.07-1-1.07-1.36l.1-1.16A34.08 34.08 0 0 1 41.3 15.54a24.76 24.76 0 0 0-7.85 3.88 35.51 35.51 0 0 0-17.36 29.47" fill="#f3c727"/><path d="M31.61 52.3q-3.93-.44-7-.87a45.88 45.88 0 0 1 3.78-17.55 30.23 30.23 0 0 0 4 9.5 52.66 52.66 0 0 0-.78 8.92"/><path d="M31.61 52.3a54.73 54.73 0 0 1 .78-9 69.81 69.81 0 0 0 7.56 9.6c-2.91-.19-4.94-.29-8.34-.58" fill="#f3c727"/><path d="M42.08 16.13a19.14 19.14 0 0 1 7.27-1.65 26.43 26.43 0 0 0-7.27 1.65"/><path d="M83.77 48.51a34.77 34.77 0 0 1-1.07 8.62 29.65 29.65 0 0 1-3 7.66 34.61 34.61 0 0 1-13.09 13.67" fill="none"/><path d="M82.51 48.9c.87-.48 1.26-1.07 1.26-1.55a34.63 34.63 0 0 1-17.16 31.12l.39-.19a32.38 32.38 0 0 0 15.31-28.12v-1.13a.3.3 0 0 1 .19-.1v1.1"/><path d="M65.64 26.7c.39-.1.68-.1 1-.19 1.94-.39 6.21-1.26 6.21-2.62A16.62 16.62 0 0 1 76 28.03a2.91 2.91 0 0 1 .39.78 2.28 2.28 0 0 1 .19.78v.44c-.1.78-.48.78-1 .58-.1 0-.1 0-.19-.1a5.92 5.92 0 0 1-2.71-3.1 22.3 22.3 0 0 1-3.59 1.16c-.1 0-.39.1-.58.1a43.76 43.76 0 0 1 3.78 8c1.75-1.75 4.46 1.55 4.56 4.75.1 1.84-.78 3.59-2.42 2.91 1.36 2.52 1 6.3-1.65 7.08-.39-8.34-1.75-15.71-7.17-24.72m.29-6.4c0-.1 0-.19.1-.19h.1s.29-1.07 4.17 1.65a34.9 34.9 0 0 0-17.45-7.17 5 5 0 0 1 1 .39 2.12 2.12 0 0 1 .48.29c.48.1 1 .1 1.36.19l.39.19h.1a.74.74 0 0 1 .39.19h.1c.1 0 .19.1.39.19h.1l.48.19c1.16.58 2.23 1.26 2.23 1.75-.19.1-.19.1-.78 0a44.6 44.6 0 0 1 6.69 6.21 32.31 32.31 0 0 0 3.78-.78c-.3.21-3.21-2.03-3.6-3.09z" fill="#d2232a"/><path d="M72.81 23.89c-.87-.78-1.65-1.55-2.52-2.23a13.74 13.74 0 0 0-3.2-1.75s-1.94-.68-.87.87a18.32 18.32 0 0 0 3 2.71c-.78.29-2.52.48-3.78.78a44.6 44.6 0 0 0-6.69-6.24c.48.1.58.1.78 0 0-.48-1-1.16-2.23-1.75l-.48-.19h-.1c-.1-.1-.19-.1-.39-.19h-.1l-.39-.19h-.1l-.39-.19a5.72 5.72 0 0 0-1.35-.16l.1.1-.1-.1h.1a2.12 2.12 0 0 0-.48-.29 5 5 0 0 0-1-.39 22.83 22.83 0 0 0-2.42-.1h-1.04l.19.1h-.29c.19 0 .39.1.68.1.58.19 1.65.48 2.52.68 5.14 1.84 9.79 5.91 13.38 11.34h.19A25.21 25.21 0 0 0 72 25.03c.91-.56.81-1.14.81-1.14z" fill="#fff"/><path d="M65.54 26.7c-5.62-8.24-10.66-10.76-15.42-11.93.1 0 .19.1.39.1l-.68-.19c-.1 0-.1 0-.19-.1l.39.1-.48-.1h-.1l-.29-.1a6.7 6.7 0 0 0 2.71 1.65c-.1.39 0 1.26 1.45 2.33a2.43 2.43 0 0 0 .68.39c2.23 1.16 2.71.29 2.81-.1a21.44 21.44 0 0 1 3.49 3.2 25.57 25.57 0 0 1 2.23 2.81c-1.36.19-3.2.29-5 .48a4 4 0 0 0-2.71-3.68c-2.13-.78-2.91 1.75-1.94 3.59-1.75-1-3.78-.1-4.07 2.62a105.18 105.18 0 0 0 16.77-1.07" fill="#d2232a"/><path d="M8.14 23.11l.19.1a1 1 0 0 0 .48 1.45l2.82 1.37c1.26.68 2.23 2.13 1.16 4.36-1 1.94-2.62 2.42-4.07 1.75l-3-1.55c-.68-.29-.87-.19-1.26.48l-.19-.1 1.36-2.71.19.1v.1c-.29.58-.29.87.39 1.16l2.9 1.41a2.34 2.34 0 0 0 3.39-1.26 2.35 2.35 0 0 0-1.07-3.49L9 25.15c-1-.48-1.26-.39-1.75.39l-.19-.1zm11.93-3.39l-8.63.58 3.78 3.2c.68.58.87.48 1.55-.29l.19.1-1.75 2-.19-.1c.48-.58.39-.87 0-1.26l-4.36-3.68a2.29 2.29 0 0 0-.87.58l-.1-.1 1.16-1.37 7.85-.48-3.49-3c-.58-.48-.78-.39-1.36.29l-.19-.1 1.75-2 .19.1c-.58.68-.58.87-.19 1.16l4.94 4.17zm4.17-3.69l-2.13 1.84-.1-.29c.48-.48.48-.68 0-1.36l-3.1-3.78c-.39-.48-.68-.48-1.16-.1l-.1-.19 2.13-1.84.1.19c-.58.48-.68.78-.19 1.36l3.1 3.78c.39.48.68.58 1.36.1zm4.27-2.71l-5.34-4.17c-.58-.48-.78-.58-1.45-.19l-.1-.2 2.71-1.65.1.19c-.87.58-1 .87-.58 1.26l4.36 3.39-.87-5c-.1-.39-.1-.58-.19-.68 0-.29-.29-.19-1 .19l-.1-.19 2.33-1.36.1.19c-.48.29-.68.68-.48 1.45l1.09 6.48zm8.43-6.79l-.19.1c-.39-.78-.58-.78-1.07-.58l-1.75.58.78 2.33c.19.48.39.58.78.39l1.65-.59c.78-.29.87-.68.87-1.65l.19-.08.39 1.65-5.82 2-.1-.19.29-.1c.87-.29 1-.58.68-1.26l-1.55-4.64c-.09-.58-.39-.78-1.09-.46l-.19.1-.1-.19 5.16-1.91.58 1.45-.19.1c-.48-.87-.78-1-1.16-.87l-2.33.78 1 2.71 1.94-.68c.39-.1.48-.39.39-1.07l.19-.1zM41.4.91l.6-.1c1.75-.19 2.33.58 2.42 1.65.19 1.36-.58 2-1.84 2.13l-.68.1zm.39 4h.58l.78-.1c.29.19.78.48 1.26.87l.87.68a3.88 3.88 0 0 0 3.68 1v-.25a3.88 3.88 0 0 1-2.42-.87l-1-.78a10.9 10.9 0 0 0-1.45-1.07 1.94 1.94 0 0 0 1.26-2c-.1-1.16-1.16-1.94-3.3-1.65-.78.1-1 .1-1.45.19a10.08 10.08 0 0 1-1.45.19v.19h.29c.68-.1.87.1 1 .78L41 6.91c.1.78-.1 1-.78 1.07H40v.19l3.2-.39v-.19H43c-.68.1-1-.1-1-.78zm8.92.68a1.88 1.88 0 0 0 1.84 1.75 1.34 1.34 0 0 0 1.65-1.31c.1-1.65-3.49-2.42-3.39-4.46A1.83 1.83 0 0 1 52.87.03h.06c1 .1 1.16.39 1.55.39.1 0 .1 0 .19-.1h.19L55 1.77h-.19A2.18 2.18 0 0 0 53 .23c-.78-.1-1.36.29-1.36 1-.1 1.84 3.59 2.62 3.39 4.75a2 2 0 0 1-2.23 1.76h-.25A4.78 4.78 0 0 1 51 7.21c-.1 0-.19 0-.19.1h-.19l-.1-1.75zm8.82 3.1l-2.72-.66v-.15c.68.1.87 0 1.07-.78l1.07-4.85c.1-.58 0-.87-.68-1V1.1l2.81.48v.19c-.68-.19-1-.1-1.16.68L58.85 7.3c-.1.68 0 1 .78 1.07zm5.82.78c-.19.58-.1.87.58 1.16l.39.19-.1.19-3.39-1.38.1-.19.39.19c.68.29 1 .1 1.16-.48l2.13-5.33-1.94-.79c-.39-.19-.68 0-1.26.87l-.19-.1.87-1.65.19.1c0 .1 0 .1.1.19l.19.1 5.14 2c.19.1.29.1.39 0l.19.1-.48 1.75-.19-.1c.19-1 .1-1.36-.29-1.55l-1.85-.71zm11.73.78c.68-.29.58-.58 0-1.07l.1-.19 2.13 1.45-.1.19a1.62 1.62 0 0 0-1.75 0l-3.39 1.65-1 1.45c-.39.48-.29.87.29 1.26l.1.1-.1.19-2.62-1.74.1-.19.19.1c.58.39.87.29 1.26-.19l.87-1.36.1-3.78c0-1.07-.1-1.36-.68-1.75l.1-.29 2.52 1.74-.1.1c-.78-.48-.87-.39-1 .29v3.39zm9.5 13.77c-1.26 1-3.2 1.26-4.27-.19a3.4 3.4 0 0 1 .74-4.8l.13-.09a3 3 0 0 1 4.25.16l.12.13c1.16 1.46.78 3.5-1 4.76zm1 .68a3.82 3.82 0 0 0 .42-5.43 3.93 3.93 0 0 0-5.49-1.24l-.29.21c-1.75 1.36-1.75 3.68-.39 5.53a4.07 4.07 0 0 0 5.69.91zM90 31.93l-.1-.19a.8.8 0 0 0 .48-1.16l-.87-1.94-2.23 1.08c-.58.29-.78.48-.39 1.26l-.29.19-1.16-2.52.19-.1c.39.58.58.68 1.36.29L91 26.9c.68-.29 1-.48.58-1.26l.19-.1L94 30.19l-1.26.58-.1-.19c.58-.29.78-.58.48-1.26l-1-1.94-2.42 1.16 1 2c.19.39.48.48 1 .29l.1.19-1.8.92zM9.31 77.21l4.17-7.66-5.63 3.59c-.68.39-.48 1-.1 1.55l-.19.1-1.84-2.52.19-.24c.68.87.87.87 2 .1l4.89-3.1c.78-.48 1.07-.68.48-1.45l.19-.19 1.26 1.84-3.88 7.27 8-1.55 1.26 1.75-.19.19c-.48-.58-.68-.78-1.07-.48l-5.14 4.36c-1.07.87-1 1-.39 1.84l-.19.19L11 79.73l.19-.19c.39.58 1 1 1.55.48l5-4.27-8.53 1.66zm14.54 8l-2-1.55 3-2zm-.1.68L23 88.65a1.38 1.38 0 0 1-.19.58c-.29.29-.58.19-1.26-.29l-.29-.19-.19.19 3.3 2.42.19-.19c-.58-.48-.78-.78-.48-1.55l2.33-8.43-1.16-.78-.1.39-6.5 4.36c-1.16.78-1.36.78-2.13.19l-.19.19 2.71 2 .19-.19-.19-.1c-.58-.58-.87-.87-.58-1.26.1-.19.58-.39.78-.58l2-1.36zm9.4-.19a6.18 6.18 0 0 1 .68.19c2.13.78 2.33 1.94 1.94 3.3-.58 1.65-1.84 1.94-3.39 1.45a9.15 9.15 0 0 0-.87-.29zm-1.75 4.85a4.73 4.73 0 0 0 .68.29l1 .29a8.57 8.57 0 0 1 1 1.75l.58 1.26c.78 1.65 1.26 2.42 3.68 3.2l.1-.29a4.24 4.24 0 0 1-2.23-2.42l-.58-1.45a13 13 0 0 0-1.07-2 2.47 2.47 0 0 0 2.62-1.65c.48-1.45-.29-2.91-2.81-3.78l-1.75-.58a12.13 12.13 0 0 1-1.75-.58l-.1.29.29.1c.78.29 1 .58.68 1.45l-2 5.91c-.29 1-.68 1.07-1.55.78l-.19-.1-.1.29 4 1.36.1-.29-.29-.1c-.78-.29-1.07-.58-.78-1.45l.58-2.23zm16.77-.29c.58-.78.29-1.07-.68-1.16v-.29l3.3.29v.29a2.26 2.26 0 0 0-1.94 1l-2.81 4-.19 2.23c-.1.78.19 1.16 1.07 1.16h.19v.25L43 97.67v-.29h.29c.87.1 1.16-.19 1.26-1l.19-2-2.18-4.35c-.58-1.16-1-1.45-1.94-1.55v-.29l3.88.29v.29c-1.16-.1-1.26.19-.87.87l2 3.88zM60.4 96.9l-6.5 1.06v-.29l.48-.1c.68-.1.87-.39.78-1.16l-1.07-6.5c-.1-.78-.39-1.07-1.36-.87h-.19v-.29l4.27-.78v.29l-.58.29c-1 .19-1.16.29-1.07 1.16l1.16 6.69c.1.39.29.48.68.48l2.13-.39c.87-.19 1.07-.48 1.75-1.94h.29zm7.08-7.37l-2.33 1-.15-3.72zm.52.5l1.94 2.13a2.11 2.11 0 0 1 .39.48c.19.39-.1.58-.87.87l-.39.19.1.29 3.78-1.55-.19-.3c-.68.29-1.07.29-1.55-.39l-6-6.4-1.21.48.29.29.39 7.85c.1 1.36 0 1.55-.87 1.94l.1.29L67 94.85l-.1-.29-.19.1c-.78.29-1.16.29-1.36 0a3 3 0 0 1-.1-1l-.1-2.52L68 90.03zm15.9-5.72l-10.99-1.28L77 87.98c.68.78 1 .87 1.94 0l.19.19-2.73 2.13-.19-.19c.68-.58.78-1 .29-1.55l-4.66-5.63a2 2 0 0 0-1.16.48l-.19-.19 1.75-1.45 10 1.16-3.78-4.56c-.58-.68-.87-.68-1.84.1v-.29l2.62-2.23.19.19c-.87.68-.87 1-.58 1.45l5.21 6.44-.19.29zm-2.17-11.46c.1-.19.29-.48.58-1.07 1.16-1.75 2.13-2.33 3.1-2.52a4 4 0 0 1 3.3.78 5 5 0 0 1 2 2.81c.29 1.26.1 2.13-1 3.78-.68 1-.87.87-1.36.58zm5.72 5.24c.68.48.68.87.29 1.55l-.1.19.19.19 2.52-4a5.11 5.11 0 0 0-1-7.16l-.16-.12c-2-1.36-4.65-1-6.79 2.33l-1.26 2.13s-.78 1.36-1.07 1.84l.19.19.19-.29c.48-.78.78-.78 1.65-.29l5.33 3.39zM2.13 45.8v6.3c0 .39.1.39.48.39h.59v.19H.48v-.19h.58c.39 0 .39-.1.39-.39v-5.43a10.66 10.66 0 0 1-1.36.86L0 47.34a5.82 5.82 0 0 0 1.75-1.65h.39zm6.3 5.43a1.45 1.45 0 0 1-1.35 1.55H7a1.48 1.48 0 0 1-1.46-1.5v-.15a1.94 1.94 0 0 1 1.07-1.66c1.36.49 1.84 1 1.84 1.75zm.48-3.88A1.77 1.77 0 0 0 7 45.8a1.85 1.85 0 0 0-2 1.75c0 .78.48 1.26 1.45 1.75-1.07.39-1.55 1.07-1.55 1.75a2 2 0 0 0 2.13 1.84 2 2 0 0 0 2.18-1.86v-.14c0-.87-.48-1.45-1.65-1.94a1.71 1.71 0 0 0 1.36-1.6zm-.68 0a1.86 1.86 0 0 1-.87 1.55c-1.45-.58-1.75-1.07-1.75-1.65A1.31 1.31 0 0 1 7 46.03a1.25 1.25 0 0 1 1.25 1.2s-.01.08-.01.12zm81.54-.79h2.63c.19 0 .29 0 .29-.1h.19l-.1.87h-2.71L90 49.28a2.31 2.31 0 0 1 1.14-.25 2.26 2.26 0 0 1 2.23 2.23A2.35 2.35 0 0 1 91 53.55h-.16c-.87 0-1.55-.29-1.55-.68a.42.42 0 0 1 .39-.39c.58 0 .78.78 1.45.78a1.74 1.74 0 0 0 1.45-1.84A1.66 1.66 0 0 0 91 49.67h-.08a1.79 1.79 0 0 0-1.16.48l-.1-.1zm8.34 4.85c0 1.26-.48 1.94-1.26 1.94s-1.45-.58-1.45-2.42a1.25 1.25 0 0 1 .1-.68 2.26 2.26 0 0 1 1.5-.68c.54.01 1.12.69 1.12 1.84zm0-5c-2.23.68-3.68 2.23-3.68 4.27 0 1.65 1 2.81 2.23 2.81a2.17 2.17 0 0 0 2.13-2.21 1.94 1.94 0 0 0-1.84-2h-.1a2.22 2.22 0 0 0-1.55.68 4.17 4.17 0 0 1 2.81-3.39zM48.88 44.15a112.08 112.08 0 0 1-7.66-8.73c1.65-10.66 4.65-18.91 8-20.85-.1 2.52-.29 14.83-.39 29.57"/></svg>