<?xml version="1.0" encoding="utf-8"?>
<!-- Generator: Adobe Illustrator 23.0.6, SVG Export Plug-In . SVG Version: 6.00 Build 0)  -->
<svg version="1.1" id="Layer_1" xmlns="http://www.w3.org/2000/svg" xmlns:xlink="http://www.w3.org/1999/xlink" x="0px" y="0px"
	 viewBox="0 0 430 98" style="enable-background:new 0 0 430 98;" xml:space="preserve">
<style type="text/css">
	.st0{fill:#FFFFFF;}
	.st1{fill:#D2232A;}
	.st2{fill:#F3C727;}
	.st3{fill:none;}
</style>
<title>bsos-black</title>
<path class="st0" d="M133.49,12.81c-0.7-1.98-2.62-3.26-4.72-3.15c-3.46,0-5.57,2.52-5.57,5.88c0,3.67,2.63,6.4,5.82,6.4
	c2.1,0.03,4.03-1.13,5-3h0.42c-0.36,1.02-0.78,2.03-1.26,3c-1.26-0.21-2.2,0.52-4.61,0.52c-4.2,0-7.14-2.72-7.14-6.51
	c0-4,3-6.79,7.35-6.79c2.63,0,3.67,0.84,4.3,0.84c0.21,0,0.31-0.11,0.42-0.11h0.32l0.21,2.91L133.49,12.81z M147.96,22.56
	c-4,0-7.35-2.63-7.35-6.4c0-4.09,3.15-6.92,7.45-6.92c3.88,0,7.24,2.63,7.24,6.29c-0.06,3.91-3.27,7.03-7.18,7h-0.16V22.56z
	 M147.54,9.66c-3.57,0-5,3.35-5,5.82c0,3.88,2.63,6.51,5.88,6.51c3.25,0,4.93-2.91,4.93-5.88c0.1-3.72-2.32-6.45-5.78-6.45
	L147.54,9.66z M170.29,22.15h-9.11v-0.42h0.63c1,0,1.26-0.31,1.26-1.37v-8.99c0-1-0.31-1.57-1.57-1.57h-0.31V9.44h6.09v0.42h-0.74
	c-1.37,0-1.68,0.11-1.68,1.37v9.43c0,0.52,0.21,0.74,0.84,0.74h3c1.26,0,1.57-0.42,2.83-2.2h0.42L170.29,22.15z M185.79,22.15h-9.12
	v-0.42h0.63c1,0,1.26-0.31,1.26-1.37v-8.99c0-1-0.31-1.57-1.57-1.57h-0.31V9.44h6.09v0.42h-0.74c-1.37,0-1.68,0.11-1.68,1.37v9.43
	c0,0.52,0.21,0.74,0.84,0.74h3c1.26,0,1.57-0.42,2.83-2.2h0.42L185.79,22.15z M201.29,17.53h-0.42c-0.21-1.47-0.52-1.57-1.37-1.57
	h-3.49v4.42c0,1,0.31,1.15,1.15,1.15h3.15c1.47,0,1.89-0.52,2.41-2.31h0.42l-0.31,3h-10.99V21.8h0.52c1.68,0,1.89-0.42,1.89-1.68
	v-8.66c0-1.15-0.31-1.68-1.68-1.68h-0.42V9.44H202l0.21,2.83h-0.42c-0.31-1.78-0.74-2.09-1.47-2.09h-4.3v5h3.65
	c0.74,0,1-0.31,1.15-1.57h0.42L201.29,17.53z M221.53,21.2c-1.71,0.8-3.57,1.23-5.46,1.26c-3.48,0.16-6.43-2.52-6.61-6v-0.38
	c-0.08-3.74,2.89-6.84,6.64-6.93h0.5c1.39,0.07,2.76,0.32,4.09,0.74c0.21,0,0.31,0,0.42-0.11h0.31v3.35h-0.37
	c-0.27-2.07-2.12-3.56-4.2-3.41c-3.57,0-5.46,2.91-5.46,6.29c0,4.2,2.91,6.09,5.35,6.09c1.09-0.02,2.16-0.27,3.15-0.74v-2.57
	c0-1.15-0.42-1.57-1.68-1.57h-0.74V16.7h5.57v0.42c-1,0.11-1.47,0.42-1.47,1.26v2.83L221.53,21.2z M237.26,17.53h-0.42
	c-0.21-1.47-0.52-1.57-1.37-1.57h-3.48v4.42c0,1,0.31,1.15,1.15,1.15h3.15c1.47,0,1.89-0.52,2.41-2.31h0.42l-0.31,3h-10.81V21.8
	h0.52c1.68,0,1.89-0.42,1.89-1.68v-8.66c0-1.15-0.31-1.68-1.68-1.68h-0.42V9.44h9.85l0.21,2.83h-0.38
	c-0.31-1.78-0.74-2.09-1.47-2.09h-4.3v5h3.67c0.74,0,1-0.31,1.15-1.57h0.42v3.91L237.26,17.53z M262.71,22.53
	c-4,0-7.35-2.63-7.35-6.4c0-4.09,3.15-6.92,7.45-6.92c3.88,0,7.24,2.63,7.24,6.29c-0.06,3.91-3.27,7.03-7.18,7L262.71,22.53z
	 M262.29,9.63c-3.57,0-5,3.35-5,5.82c0,3.88,2.63,6.51,5.88,6.51c3.25,0,4.93-2.91,4.93-5.88c0.06-3.72-2.45-6.45-5.82-6.45
	L262.29,9.63z M285.16,17.32h-0.31c0-1.15-0.42-1.57-1.47-1.57h-3.78v4.51c0,1.15,0.21,1.57,1.78,1.57v0.42h-4.93v-0.43
	c1.26-0.11,1.47-0.31,1.47-2v-8.06c0-1.26-0.11-1.89-1.57-1.89V9.44h9.12v2.41h-0.31c0-1.15-0.42-1.68-1.68-1.68h-3.88v4.85h4.09
	c0.74,0,1.15-0.42,1.15-1.26h0.31C285.16,13.76,285.16,17.32,285.16,17.32z M124.68,37.24c0-2.09-0.21-3.15-2.83-3.15h-1.26v-0.73
	l4.51-0.21c2-0.11,4.72-0.11,5.46-0.11c3.15,0,6,0.42,7.24,1.37c2.15,1.28,2.85,4.06,1.57,6.21c-0.74,1.24-2.02,2.05-3.46,2.19v0.11
	c3.35,1,5.35,3.25,5.35,6.09c0,2.84-2,6.79-7.76,6.79h-13.21v-0.71h0.84c2.91,0,3.57-0.74,3.57-2.91L124.68,37.24z M127.67,42.8h4
	c3.46,0,5.25-1.37,5.25-4.2c0-2.52-1.47-4.85-6-4.85l-3.15,0.11v8.91L127.67,42.8z M127.67,51.2c0,2.72,1,3.67,4.09,3.67
	c4.72,0,6.2-2.91,6.2-5.82s-2.09-5.66-6.4-5.66h-3.88L127.67,51.2z M160.49,47.74h-0.74c-0.31-2.52-1-2.83-2.41-2.83h-6.11v7.66
	c0,1.68,0.63,2,2,2h5.57c2.52,0,3.25-1,4.2-4.09h0.63l-0.6,5.34h-19.19v-0.75h1c2.91,0,3.35-0.84,3.35-2.91V37.01
	c0-2-0.42-2.91-2.91-2.91h-0.84v-0.77h17.31l0.31,5h-0.63c-0.42-3-1.37-3.67-2.63-3.67h-7.66v8.91h6.51c1.26,0,1.89-0.63,2.09-2.72
	h0.74L160.49,47.74z M172.87,45.22V52c0,2.31,0.42,3.15,2.91,3.15h0.11v0.74h-8.99v-0.74h0.21c2.09,0,2.83-0.63,2.83-2.63v-15.8
	c0-1.89-0.63-2.41-2.63-2.52v-0.74h8.59v0.74c-2.52,0-3,0.74-3,3.46v6.29h14.12v-7.1c0-1.89-0.63-2.63-2.83-2.63h-0.74v-0.74h9.33
	v0.74c-2.2,0.11-2.72,0.74-2.72,2.91v14.99c0,2.52,0.74,3.15,2.91,3.15h0.31v0.63h-10.19v-0.74h1.14c2.31,0,2.83-0.84,2.83-2.72
	V45.1h-14.14L172.87,45.22z M201.07,45.96l-2.06,5.65c-0.31,0.75-0.56,1.52-0.74,2.31c0,1,1,1.37,2.91,1.37h0.63v0.63h-8.39v-0.74
	c2.31,0,2.72-0.42,3.88-3.57l6.61-17.94l-0.31-0.84h3.15l7.55,19.99c0.74,1.89,1.47,2.31,3.25,2.31v0.74h-9.93v-0.74h1
	c2.09,0,2.83-0.21,2.83-1.26c0-0.52-0.14-1.03-0.42-1.47l-2.41-6.61L201.07,45.96z M204.74,35.9l-3,8.39H208L204.74,35.9z
	 M225.28,56.45l-7.87-19.51c-1-2.31-1.37-2.83-3.57-2.83v-0.74h9.99v0.74c-3.35,0.11-4.09,0.84-3.46,2.52l6.51,16.15l5.66-14.89
	c0.33-0.69,0.54-1.44,0.63-2.2c0-1-1-1.47-3.35-1.47v-0.74h8.39v0.74c-1.89,0-2.83,0.84-3.67,3.15l-7.45,19.29h-1.78L225.28,56.45z
	 M247.27,55.93h-8.8v-0.74c2.2-0.11,2.72-0.74,2.72-3.15V36.72c0-2-0.74-2.52-2.72-2.63v-0.73h8.8v0.74c-2.31,0-3,0.52-3,2.91v15.34
	c0,2.09,0.63,2.83,3,2.83V55.93z M263,56.45c-7.16,0-12.99-4.52-12.99-11.32c0-7.24,5.57-12.26,13.21-12.26
	c6.79,0,12.68,4.62,12.68,11.11c0,7.44-5.9,12.48-12.92,12.48L263,56.45z M262.26,33.79c-6.4,0-8.91,6-8.91,10.28
	c0,6.72,4.62,11.53,10.37,11.53c5.76,0,8.72-5.25,8.72-10.37c0-6.72-4.21-11.43-10.17-11.43L262.26,33.79z M284.06,52.19
	c0,2.09,0.84,2.63,2.83,2.63h0.84v0.63h-10.05v-0.63h0.63c2.09,0,2.83-0.52,2.83-2.91V36.92c0-2.2-0.63-2.83-2.63-2.83h-0.74v-0.63
	c0.84,0,3-0.11,4.51-0.21c1.51-0.1,2.2-0.11,4.51-0.11c6.61,0,9.54,2.72,9.54,6.29c-0.05,2.79-1.99,5.2-4.72,5.82
	c1.43,1.12,2.79,2.33,4.05,3.64l2.91,2.83c2.09,2.09,4.3,3.46,7,3.57v0.63c-6.2,0.31-7.87-1-10.99-4.2l-2.34-2.27
	c-1.11-1.17-2.34-2.23-3.67-3.15c-0.84,0-1.47,0.11-2.41,0.11c-0.6,0.02-1.19-0.01-1.78-0.11v6L284.06,52.19z M284.06,45.57
	c0.73,0.09,1.46,0.13,2.2,0.11c4,0,6.51-1.68,6.51-6c0-3.35-1.47-5.88-6.92-5.88c-0.6-0.02-1.19,0.02-1.78,0.11L284.06,45.57z
	 M312.79,45.99l-2.09,5.66c-0.32,0.76-0.57,1.55-0.76,2.35c0,1,1,1.37,2.91,1.37h0.63V56h-8.39v-0.74c2.31,0,2.72-0.42,3.88-3.57
	l6.61-17.94l-0.31-0.84h3.15l7.55,19.99c0.74,1.89,1.47,2.31,3.25,2.31v0.74h-9.89V55.2h1c2.09,0,2.83-0.21,2.83-1.26
	c0-0.52-0.14-1.03-0.42-1.47l-2.41-6.61L312.79,45.99z M316.5,35.89l-3,8.39h6.29L316.5,35.89z M345.23,55.88h-16.18v-0.74h1.15
	c1.68,0,2.31-0.52,2.31-2.41V36.85c0-1.89-0.63-2.72-2.83-2.72h-0.52v-0.77h10.65v0.74h-1.33c-2.31,0-2.91,0.21-2.91,2.52v16.7
	c0,1,0.42,1.37,1.47,1.37h5.35c2.09,0,2.83-0.84,5-4h0.63L345.23,56L345.23,55.88z M382.77,40.78v0.63c-2,0-2.52,0.21-3,0.74
	c-0.74,0.74-2.52,4.41-5.46,7.76c2,3,2.63,5.25,4.3,5.25c1.05-0.13,2.03-0.57,2.83-1.26l0.31,0.63c-1.21,1.11-2.77,1.78-4.41,1.89
	c-2.2,0-2.83-0.84-4.85-4.51c-2.63,2.83-5.66,4.51-8.28,4.51c-3.25-0.03-5.86-2.68-5.84-5.93v-0.09c0-2.91,1.78-4.93,6.29-6.72
	c-1.47-1.13-2.41-2.82-2.58-4.67c0-2.52,2-4.2,4.93-4.2c2.63,0,4.62,1.47,4.62,3.46c0,1.68-1.47,3.25-4.09,4.62
	c2.47,1.72,4.6,3.89,6.29,6.4c1.68-2.09,4.51-6.2,4.51-7.14c0-0.52-0.42-0.74-2-0.74v-0.63h6.4H382.77z M365.68,54.62
	c2.48-0.18,4.79-1.35,6.4-3.25c-1.75-2.82-4.06-5.25-6.79-7.14c-2.72,1.89-3.88,3.57-3.88,5.88c-0.14,2.34,1.64,4.35,3.98,4.5
	c0,0,0.01,0,0.01,0h0.29L365.68,54.62z M366.83,35.53c-1.31-0.02-2.4,1.02-2.42,2.33c0,0.1,0,0.2,0.01,0.29c0,1.47,1,3,2.72,4.3
	c1.5-0.69,2.41-2.23,2.31-3.88c-0.02-1.86-1.12-3.02-2.65-3.02L366.83,35.53z M122.63,84.12c0.52,2.96,3.08,5.12,6.09,5.14
	c2.41,0,5-1.37,5-4.3c0-5.25-11.62-6.79-11.62-13.11c0-3,2.72-5.25,6.4-5.25c3,0,3.67,1,4.93,1c0.25,0.01,0.48-0.11,0.63-0.31h0.63
	l0.63,4.62h-0.63c-0.88-2.49-3.18-4.19-5.82-4.3c-2.41,0-4.09,1.37-4.09,3.35c0,5.14,11.62,6.51,11.62,13.11
	c0,3.57-3.15,6.2-7.35,6.2c-2,0-4.51-1-5-1c-0.3,0-0.58,0.16-0.74,0.42h-0.63l-0.74-5.46h0.63v-0.11L122.63,84.12z M152.26,90.19
	c-7.14,0-12.99-4.51-12.99-11.32c0-7.24,5.57-12.26,13.21-12.26c6.79,0,12.68,4.62,12.68,11.11
	C165.15,85.06,159.28,90.18,152.26,90.19L152.26,90.19z M151.52,67.54c-6.4,0-8.91,6-8.91,10.28c0,6.72,4.61,11.53,10.37,11.53
	c5.77,0,8.72-5.25,8.72-10.37c0-6.71-4.21-11.42-10.17-11.42L151.52,67.54z M190.28,73.11c-1.24-3.46-4.58-5.71-8.25-5.57
	c-6.09,0-9.74,4.41-9.74,10.48c0,6.51,4.72,11.32,10.17,11.32c3.73,0.09,7.16-2.01,8.77-5.37h0.79c-0.55,1.84-1.33,3.6-2.31,5.25
	c-2.31-0.31-3.88,1-8.18,1c-7.35,0-12.59-4.85-12.59-11.53c0-7,5.46-12.06,12.99-12.06c4.51,0,6.51,1.47,7.66,1.47
	c0.42,0,0.63-0.11,0.63-0.21h0.52l0.31,5.25L190.28,73.11z M203.7,89.68h-8.8v-0.7c2.2-0.11,2.72-0.74,2.72-3.15V70.48
	c0-2-0.74-2.52-2.72-2.63v-0.74h8.8v0.74c-2.31,0-3,0.52-3,2.91v15.31c0,2.09,0.63,2.83,3,2.83V89.68z M213.87,79.61l-2.06,5.7
	c-0.31,0.75-0.56,1.52-0.74,2.31c0,1,1,1.37,2.91,1.37h0.63v0.74h-8.39v-0.75c2.31,0,2.72-0.42,3.88-3.57l6.61-17.94l-0.31-0.84
	h3.15l7.55,19.99c0.74,1.89,1.47,2.31,3.25,2.31v0.74h-9.92v-0.69h1c2.09,0,2.83-0.21,2.83-1.26c0-0.52-0.14-1.03-0.42-1.47
	l-2.41-6.61L213.87,79.61z M217.54,69.62l-3,8.39h6.29L217.54,69.62z M246.27,89.61h-16.1v-0.63h1.15c1.68,0,2.31-0.52,2.31-2.41
	V70.59c0-1.89-0.63-2.72-2.83-2.72h-0.52v-0.74h10.65v0.73h-1.37c-2.31,0-2.91,0.21-2.91,2.52v16.67c0,1,0.42,1.37,1.47,1.37h5.35
	c2.09,0,2.83-0.84,5-4h0.64L246.27,89.61z M261.74,84.05c0.52,2.96,3.08,5.12,6.09,5.14c2.41,0,5-1.37,5-4.3
	c0-5.25-11.62-6.79-11.62-13.11c0-3,2.72-5.25,6.4-5.25c3,0,3.67,1,4.93,1c0.25,0.01,0.48-0.11,0.63-0.31h0.63l0.63,4.62h-0.63
	c-0.88-2.49-3.18-4.19-5.82-4.3c-2.41,0-4.09,1.37-4.09,3.35c0,5.14,11.62,6.51,11.62,13.11c0,3.57-3.15,6.2-7.35,6.2
	c-2,0-4.51-1-5-1c-0.3,0-0.58,0.16-0.74,0.42h-0.63l-0.74-5.46h0.68L261.74,84.05L261.74,84.05z M299.8,73.06
	c-1.24-3.47-4.6-5.73-8.28-5.57c-6.09,0-9.74,4.41-9.74,10.48c0,6.51,4.72,11.32,10.17,11.32c3.73,0.12,7.18-1.97,8.81-5.32h0.72
	c-0.55,1.84-1.33,3.6-2.31,5.25c-2.31-0.31-3.88,1-8.17,1c-7.35,0-12.59-4.85-12.59-11.53c0-7,5.46-12.06,12.99-12.06
	c4.51,0,6.51,1.47,7.66,1.47c0.42,0,0.63-0.11,0.63-0.21h0.52l0.31,5.25L299.8,73.06z M313.23,89.68h-8.84v-0.7
	c2.2-0.11,2.72-0.74,2.72-3.15V70.48c0-2-0.74-2.52-2.72-2.63v-0.74h8.8v0.74c-2.31,0-3,0.52-3,2.91v15.31c0,2.09,0.63,2.83,3,2.83
	L313.23,89.68z M332.61,81.5h-0.74c-0.31-2.52-1-2.83-2.41-2.83h-6.09v7.66c0,1.68,0.63,2,2,2h5.56c2.52,0,3.25-1,4.2-4.09h0.63
	l-0.63,5.35h-19.19v-0.74h1c2.91,0,3.35-0.84,3.35-2.91V70.7c0-2-0.42-2.91-2.91-2.91h-0.84v-0.74h17.39l0.31,5h-0.63
	c-0.42-3-1.37-3.67-2.72-3.67h-7.66v8.91h6.51c1.26,0,1.89-0.63,2.09-2.72h0.7l0.11,6.92L332.61,81.5z M362.65,89.89l-18.73-19.63
	v15.5c0,2.63,0.63,3.15,3.67,3.15v0.74h-8.35v-0.74h0.11c2.2,0,2.91-0.74,2.91-2.41V68.7c-0.88-0.62-1.92-0.97-3-1v-0.71h5.67
	l16.99,17.72V70.48c0-2.2-0.63-2.63-3.57-2.63v-0.74h8.49v0.74c-2.72,0-3.25,0.42-3.25,1.89v20.14h-0.92L362.65,89.89z
	 M389.63,73.11c-1.24-3.47-4.6-5.73-8.28-5.57c-6.09,0-9.74,4.41-9.74,10.48c0,6.51,4.72,11.32,10.17,11.32
	c3.75,0.11,7.21-1.99,8.83-5.37h0.74c-0.55,1.84-1.33,3.6-2.31,5.25c-2.31-0.31-3.88,1-8.17,1c-7.35,0-12.59-4.85-12.59-11.53
	c0-7,5.46-12.06,12.99-12.06c4.51,0,6.51,1.47,7.66,1.47c0.42,0,0.63-0.11,0.63-0.21h0.52l0.31,5.25h-0.75L389.63,73.11z
	 M409.62,81.5h-0.74c-0.31-2.52-1-2.83-2.41-2.83h-6.09v7.66c0,1.68,0.63,2,2,2H408c2.52,0,3.25-1,4.2-4.09h0.68l-0.63,5.35h-19.19
	v-0.74h1c2.91,0,3.35-0.84,3.35-2.91V70.7c0-2-0.42-2.91-2.91-2.91h-0.84v-0.74h17.44l0.31,5h-0.53c-0.42-3-1.37-3.67-2.63-3.67
	h-7.66v8.91h6.51c1.26,0,1.89-0.63,2.09-2.72h0.69v6.92h-0.11L409.62,81.5z M416.02,84.13c0.52,2.96,3.08,5.12,6.09,5.14
	c2.41,0,5-1.37,5-4.3c0-5.25-11.62-6.79-11.62-13.11c0-3,2.72-5.25,6.4-5.25c3,0,3.67,1,4.93,1c0.25,0.01,0.48-0.11,0.63-0.31h0.63
	l0.63,4.62h-0.63c-0.88-2.49-3.18-4.19-5.82-4.3c-2.41,0-4.09,1.37-4.09,3.35c0.09,5.09,11.71,6.46,11.71,13.01
	c0,3.57-3.15,6.2-7.35,6.2c-2,0-4.51-1-5-1c-0.3,0-0.58,0.16-0.74,0.42h-0.63l-0.74-5.46h0.63v-0.11L416.02,84.13z"/>
<path class="st0" d="M49.55,83.08c18.98-0.04,34.36-15.42,34.4-34.4c0-18.99-16.08-34.2-34.4-34.2c-18.94,0-34.3,15.35-34.31,34.29
	c0,18.94,15.35,34.3,34.29,34.31C49.54,83.08,49.55,83.08,49.55,83.08z"/>
<path class="st0" d="M65.53,27.01c-5.49,0.73-11.03,1.06-16.57,1c0.1-6.88,0.19-11.72,0.29-13.27c6.4,1.07,12.11,5.62,16.28,12.21"
	/>
<path class="st1" d="M73,51.49c-7.92,1.07-15.9,1.57-23.9,1.51c0-9.3,0-18.31,0.1-25.28c5.54,0.04,11.08-0.32,16.57-1.07
	c4.56,7.48,7.07,16.04,7.27,24.8"/>
<path class="st0" d="M72.42,51.38c-1.75-0.29-3.3-3.3-2.52-6.3c-2.52,1.75-5.33-1.84-4.94-5.14c0.19-1.75,1.36-3.3,3.39-2.62
	c-0.76-2.7-1.77-5.32-3-7.85c-1.75,0.19-3.68,0.39-5.72,0.58c1.84,2.81,0,5.33-2.52,4.94c-2.11-0.39-3.5-2.41-3.11-4.52
	c-1.45,1.07-4.56,0.68-4.85-2.71c5.54,0.07,11.08-0.29,16.57-1.07c4.75,8,6.79,14.82,7.37,24.8l-0.68-0.1 M31.33,74.63
	c-3.49-0.58-5.91-1.36-6.69-2.23s-2-2.33-2.81-3.39c-1.07-1.45-2.04-2.98-2.91-4.56c-0.86-1.6-1.58-3.27-2.13-5
	c-0.55-1.8-1-3.62-1.36-5.47c-0.23-1.8-0.36-3.61-0.39-5.43v-1.45c-0.1,1.45,3.49,2.81,9.49,3.88v1.45
	C24.65,61.44,27.16,69.21,31.33,74.63 M49.45,83.06H48c-1.76-0.07-3.51-0.3-5.24-0.68c-4.62-1.17-8.68-3.95-11.43-7.85
	c3.79,0.57,7.6,0.93,11.43,1.07c2.13,0.1,4.27,0.1,6.4,0.1C49.26,80.35,49.35,83.07,49.45,83.06"/>
<path class="st1" d="M49.16,75.81c-2.13,0-4.27,0-6.4-0.1c-3.83-0.14-7.65-0.5-11.43-1.08c-4.07-5.53-6.59-13.27-6.59-22.19v-1.16
	c5.16,0.82,10.37,1.3,15.6,1.45c2.91,0.1,5.82,0.19,8.72,0.19v1.17C48.97,63.09,49.07,70.67,49.16,75.81 M49.07,76.28
	c-0.29,1.16-1.94,2.33-4.27,1.36c1.07,1.45,0.19,2.71-1.75,2.33c-1.55-0.29-3.3-1.45-3.39-2.71c-1.84-0.1-3.59-0.29-5-0.48
	c1.37,1.59,2.97,2.96,4.75,4.07c0.19-0.1,0.48-0.1,1.55,0.29l3.84,1.64c-1.07-0.19-1.16-0.19-1.84-0.29
	c-4.63-1.16-8.69-3.94-11.43-7.85c5.9,0.88,11.86,1.3,17.83,1.26C49.17,75.9,49.17,76.09,49.07,76.28"/>
<path class="st0" d="M31.33,74.55c-4.75-6.79-6.59-13.37-6.69-23.26c2.71,0.87,3.39,4.85,2.71,7c2.52-1,5.72,3.39,4.65,6.4
	c-0.48,1.36-1.84,1.75-3.3,0.87c0.7,2.44,1.67,4.78,2.91,7c1.84,0.29,3.78,0.48,6,0.68c-1.75-2.23-0.39-4,2-3.88
	c2,0.1,4.75,1.84,4.17,4.17c1.84-0.87,4.94-0.19,5.33,2.23c-2.23,0-5.62,0-9.88-0.39c-2.71,0-5.33-0.58-8-0.78"/>
<path class="st1" d="M31.33,74.55c-3.88-0.68-5.62-1.26-6.69-2.23c-0.78-0.87-1.84-2.13-2.62-3.1c0.15,0.26,0.35,0.49,0.58,0.68
	c-0.39-0.48-2.13-2.71-2.23-3.78c1-0.19,4.07,4.75,4.17,4.85c1.19,0.44,2.43,0.77,3.68,1c-1.43-2.22-2.6-4.59-3.49-7.08
	c-2.13,1.07-4.85-4.56-4-7c0.19-0.48,0.78-1.55,2.23-0.39c-1.07-2.52-0.78-6.3,1.84-6.3c-0.1,8.52,1.07,15.6,6.5,23.36"/>
<path d="M72.81,57.4c0.1-1.65,0.19-3.2,0.19-4.85v-1.18h0.09v1.16c-0.1,1.65-0.1,3.3-0.29,4.85 M54.81,82.68
	c9.39-1.45,16.67-11.53,17.99-25.38v0.1C71.44,71.16,64.17,81.23,54.81,82.68 M66.14,78.68c-1.72,0.92-3.5,1.73-5.33,2.42
	c-0.78,0.19-1.75,0.58-2.42,0.78c4.81-1.35,9.12-4.08,12.4-7.85c-0.71,1.58-1.19,2.55-3.71,4.2c-0.31,0.2-0.65,0.36-1,0.48"/>
<path class="st2" d="M67.09,78.23c2-1.45,2.91-2.33,3.68-4.17c4.94-5.62,8-13.56,8-22.58v-1.16c1.26-0.29,2.48-0.74,3.63-1.33v1.16
	C82.55,61.55,76.75,72.19,67.09,78.23"/>
<path d="M56.82,69.32c-2.33-2.33-2.33-2.33-7.72-7.56v-8.81c3,0,5.91-0.1,8.72-0.19v1.16C57.78,59.07,57.45,64.21,56.82,69.32"/>
<path class="st2" d="M50.9,83.08h-1.45c-0.19,0-0.39-8.52-0.48-21.32c5.14,4.85,5.62,5.43,7.76,7.56
	C55.65,77.65,53.52,82.98,50.9,83.08"/>
<path d="M52.55,82.98c-0.29,0-0.68,0.1-0.87,0.1H51c2.52-0.1,4.65-5.33,5.91-13.76c1.82,1.73,3.42,3.68,4.75,5.82
	C59.24,79.78,56.04,82.6,52.55,82.98"/>
<path class="st2" d="M61.56,75.22c-1.36-2.11-2.95-4.06-4.75-5.82c0.67-5.11,1-10.26,1-15.41v-1.15c2.81-0.1,5.53-0.29,8-0.48v1.16
	c0,8.81-1.65,16.38-4.27,21.71"/>
<path d="M62.24,79.39c0.39-1.36,0.39-2.13-0.68-4.27c2.62-5.24,4.27-12.88,4.27-21.71v-1.15L68.64,52c1.26,1.45,2.81,3.39,4.17,5.33
	c-1,9.88-4.94,17.83-10.56,22.1"/>
<path class="st2" d="M54.78,82.69l-0.87,0.1c-0.42,0.07-0.84,0.1-1.26,0.1h-0.1c3.59-0.29,6.69-3.2,8.99-7.76
	c1,1.84,1.26,2.71,0.68,4.27c-2.15,1.74-4.73,2.88-7.47,3.3 M58.35,81.92l-0.87,0.19c-1.36,0.29-1.36,0.29-2.13,0.48l-0.68,0.1
	c6.69-1.07,12.3-6.4,15.5-14.34c0.87,2.33,1.16,3.49,0.58,5.72C67.48,77.85,63.17,80.58,58.35,81.92"/>
<path d="M57.59,82.11c-1.36,0.29-1.36,0.29-2.13,0.48l-0.68,0.1c2.74-0.42,5.31-1.56,7.47-3.3c-0.78,1.16-1.36,1.65-3.88,2.52
	L57.59,82.11 M70.77,74.1c0.48-1.94,0.48-3.1-0.58-5.72c1.94-5.04,2.89-10.4,2.81-15.79v-1.22c1.93-0.25,3.84-0.63,5.72-1.16v1.16
	c0,9.1-3,17.05-8,22.68"/>
<path class="st2" d="M66.09,78.72c0.27-0.2,0.56-0.36,0.87-0.48l-0.39,0.19L66.09,78.72"/>
<path d="M82.59,50c0,12.3-6.3,22.87-15.89,28.39l0.39-0.19c9.68-6.03,15.52-16.67,15.4-28.07V49l0.19-0.1
	c-0.08,0.38-0.11,0.77-0.1,1.16"/>
<path class="st2" d="M70.19,68.35c-1.16-2.52-2-3.78-4.85-7.17c0.28-2.54,0.41-5.1,0.39-7.66v-1.18c2.4-0.16,4.79-0.46,7.17-0.87
	v1.16C73.05,58,72.13,63.34,70.19,68.35"/>
<path d="M65.34,61.18c-1.94-2.33-3-3.39-7.66-8.33c2.62-0.1,4.75-0.19,8-0.58v1.16c0.07,2.59-0.06,5.18-0.39,7.76 M24.75,51.3
	c0.01-2.01,0.17-4.01,0.48-6v0.1C24.92,47.36,24.76,49.33,24.75,51.3 M25.23,45.4c2-14.24,10.27-26.25,20.54-29.98
	C35.49,19.1,27.25,31.21,25.23,45.4 M45.76,15.42c1.19-0.47,2.42-0.8,3.68-1C48.19,14.65,46.96,14.99,45.76,15.42"/>
<path class="st2" d="M28.91,25.52c0.91-2.48,2.53-4.63,4.65-6.21c4.83-2.88,10.28-4.54,15.89-4.85
	C41.44,15.37,34.08,19.33,28.91,25.52"/>
<path d="M19.41,50.13c-1.1-0.32-2.17-0.74-3.2-1.26c0.44-12.12,6.91-23.21,17.25-29.55c-2.03,1.66-3.63,3.79-4.65,6.21
	C23,32.44,19.69,41.11,19.41,50.13"/>
<path class="st2" d="M48.96,53c-2.91,0-5.82-0.1-8.72-0.19h-0.29c0.04-5.82,0.5-11.64,1.37-17.4c2.52,3.1,3.78,4.65,7.66,8.72
	L48.96,53 M41.41,35.31c-1.89-2.39-3.33-5.1-4.27-8c3.2-6.79,7.56-11.53,12.3-12.88C46.1,16.41,43.11,24.65,41.41,35.31"/>
<path d="M40.05,52.75c-3-0.1-5.82-0.29-8.33-0.58c0.05-8.59,1.89-17.07,5.4-24.9c0.9,2.91,2.35,5.63,4.27,8
	c-0.91,5.8-1.37,11.67-1.36,17.54"/>
<path class="st2" d="M31.72,52.27L29,52c-1.43-2.06-2.69-4.24-3.78-6.5c1.45-10.07,6-18.99,12.21-24.7
	c-0.85,2.12-0.97,4.47-0.33,6.67c-3.58,7.78-5.43,16.24-5.43,24.8"/>
<path d="M37.05,27.36c-0.58-2.81-0.68-4.27,0.29-6.69c3.32-3.24,7.54-5.4,12.11-6.21C44.6,15.73,40.25,20.58,37.05,27.36
	 M28.42,33.75c-0.57-2.74-0.4-5.58,0.48-8.23c5.14-6.23,12.52-10.19,20.55-11.04c-1.27,0.13-2.51,0.47-3.68,1
	C38.41,18.02,32.2,24.94,28.42,33.75"/>
<path class="st2" d="M37.34,20.68c1.16-2,1.94-3,4.85-4.46c2.33-0.89,4.78-1.45,7.27-1.66C44.88,15.31,40.66,17.44,37.34,20.68
	 M24.65,51.3c-2.03-0.39-3.78-0.77-5.24-1.16c0.26-9.05,3.61-17.73,9.49-24.61c-0.91,2.65-1.07,5.5-0.48,8.23
	C26.02,39.3,24.74,45.26,24.65,51.3"/>
<path d="M33.56,19.32c2.31-1.84,4.98-3.16,7.85-3.88c2.62-0.62,5.3-0.96,8-1c-5.62,0.28-11.08,1.94-15.89,4.85"/>
<path class="st2" d="M16.21,48.87c-0.68-0.48-1.07-1-1.07-1.36l0.1-1.16c1.02-14.9,11.63-27.39,26.16-30.82
	c-2.82,0.82-5.48,2.13-7.85,3.88C23.12,25.61,16.57,36.72,16.21,48.87"/>
<path d="M31.72,52.27c-2.62-0.29-4.95-0.58-7-0.87c0.09-6.04,1.38-12,3.78-17.54c0.78,3.37,2.13,6.58,4,9.49
	C31.99,46.3,31.73,49.28,31.72,52.27"/>
<path class="st2" d="M31.72,52.27c0.01-3.01,0.27-6.02,0.78-8.99c2.23,3.41,4.76,6.62,7.56,9.59c-2.91-0.19-4.94-0.29-8.33-0.58"/>
<path d="M42.19,16.12c2.29-1.02,4.76-1.58,7.27-1.65C46.96,14.67,44.52,15.23,42.19,16.12"/>
<path class="st3" d="M83.85,48.48c0.01,2.9-0.35,5.8-1.07,8.61c-0.64,2.68-1.65,5.26-3,7.66c-3.01,5.68-7.54,10.41-13.08,13.66"/>
<path d="M82.59,48.87c0.87-0.48,1.26-1.07,1.26-1.55C84.29,60.05,77.71,72,66.7,78.42l0.39-0.19c9.7-6.01,15.51-16.69,15.3-28.1V49
	c0.05-0.06,0.12-0.09,0.19-0.1V50"/>
<path class="st1" d="M65.73,26.68c0.39-0.1,0.68-0.1,1-0.19c1.94-0.39,6.21-1.26,6.21-2.62c1.26,1.21,2.32,2.6,3.15,4.14
	c0.17,0.24,0.3,0.5,0.39,0.78c0.11,0.25,0.17,0.51,0.19,0.78v0.44c-0.1,0.78-0.48,0.78-1,0.58c-0.1,0-0.1,0-0.19-0.1
	c-1.24-0.68-2.21-1.77-2.71-3.1c-1.16,0.49-2.36,0.87-3.59,1.16c-0.1,0-0.39,0.1-0.58,0.1c1.53,2.53,2.79,5.21,3.78,8
	c1.75-1.75,4.46,1.55,4.56,4.75c0.1,1.84-0.78,3.59-2.42,2.91c1.36,2.52,1,6.3-1.65,7.08c-0.39-8.33-1.75-15.7-7.17-24.7
	 M65.99,20.28c0-0.1,0-0.19,0.1-0.19h0.1c0,0,0.29-1.07,4.17,1.65c-5.05-3.94-11.08-6.42-17.44-7.17c0.35,0.09,0.68,0.22,1,0.39
	c0.17,0.07,0.33,0.17,0.48,0.29c0.48,0.1,1,0.1,1.36,0.19l0.39,0.19h0.1c0.15,0.02,0.28,0.09,0.39,0.19h0.1
	c0.1,0,0.19,0.1,0.39,0.19h0.1l0.48,0.19c1.16,0.58,2.23,1.26,2.23,1.75c-0.19,0.1-0.19,0.1-0.78,0c2.44,1.83,4.68,3.91,6.69,6.21
	c1.27-0.18,2.54-0.44,3.78-0.78c-0.3,0.21-3.21-2.03-3.6-3.09L65.99,20.28z"/>
<path class="st0" d="M72.9,23.88c-0.87-0.78-1.65-1.55-2.52-2.23c-0.98-0.72-2.06-1.31-3.2-1.75c0,0-1.94-0.68-0.87,0.87
	c0.9,1.01,1.9,1.92,3,2.71c-0.78,0.29-2.52,0.48-3.78,0.78c-2.01-2.3-4.25-4.39-6.69-6.24c0.48,0.1,0.58,0.1,0.78,0
	c0-0.48-1-1.16-2.23-1.75l-0.48-0.19h-0.1c-0.1-0.1-0.19-0.1-0.39-0.19h-0.1l-0.39-0.19h-0.1l-0.39-0.19
	c-0.44-0.11-0.89-0.16-1.35-0.16l0.1,0.1l-0.1-0.1h0.1c-0.15-0.12-0.31-0.21-0.48-0.29c-0.32-0.17-0.65-0.3-1-0.39
	c-0.8-0.08-1.61-0.11-2.42-0.1h-1.04l0.19,0.1h-0.29c0.19,0,0.39,0.1,0.68,0.1c0.58,0.19,1.65,0.48,2.52,0.68
	c5.14,1.84,9.78,5.91,13.37,11.33h0.19c2.12-0.32,4.19-0.92,6.17-1.77C73,24.46,72.9,23.88,72.9,23.88z"/>
<path class="st1" d="M65.63,26.68c-5.62-8.23-10.65-10.75-15.41-11.92c0.1,0,0.19,0.1,0.39,0.1l-0.68-0.19c-0.1,0-0.1,0-0.19-0.1
	l0.39,0.1l-0.48-0.1h-0.1l-0.29-0.1c0.76,0.76,1.69,1.32,2.71,1.65c-0.1,0.39,0,1.26,1.45,2.33c0.2,0.17,0.43,0.3,0.68,0.39
	c2.23,1.16,2.71,0.29,2.81-0.1c1.28,0.93,2.45,2.01,3.49,3.2c0.81,0.88,1.55,1.82,2.23,2.81c-1.36,0.19-3.2,0.29-5,0.48
	c-0.04-1.67-1.13-3.14-2.71-3.68c-2.13-0.78-2.91,1.75-1.94,3.59c-1.75-1-3.78-0.1-4.07,2.62c5.61,0.09,11.21-0.27,16.76-1.07"/>
<path d="M8.27,23.1l0.19,0.1c-0.29,0.47-0.14,1.09,0.33,1.37c0.05,0.03,0.1,0.05,0.15,0.07l2.82,1.37c1.26,0.68,2.23,2.13,1.16,4.36
	c-1,1.94-2.62,2.42-4.07,1.75l-3-1.55c-0.68-0.29-0.87-0.19-1.26,0.48l-0.19-0.1l1.36-2.71l0.19,0.1v0.1
	c-0.29,0.58-0.29,0.87,0.39,1.16l2.9,1.41c1.12,0.65,2.55,0.27,3.2-0.84c0.08-0.13,0.14-0.27,0.19-0.42
	c0.72-1.08,0.44-2.54-0.64-3.26c-0.14-0.09-0.28-0.17-0.43-0.23l-2.43-1.13c-1-0.48-1.26-0.39-1.75,0.39l-0.19-0.1L8.27,23.1z
	 M20.19,19.71l-8.62,0.58l3.78,3.2c0.68,0.58,0.87,0.48,1.55-0.29l0.19,0.1l-1.75,2l-0.19-0.1c0.48-0.58,0.39-0.87,0-1.26
	l-4.36-3.68c-0.33,0.12-0.63,0.32-0.87,0.58l-0.1-0.1l1.16-1.37l7.85-0.48l-3.49-3c-0.58-0.48-0.78-0.39-1.36,0.29l-0.19-0.1l1.75-2
	l0.19,0.1c-0.58,0.68-0.58,0.87-0.19,1.16l4.94,4.17L20.19,19.71z M24.36,16.02l-2.13,1.84l-0.1-0.29c0.48-0.48,0.48-0.68,0-1.36
	l-3.1-3.78c-0.39-0.48-0.68-0.48-1.16-0.1l-0.1-0.19l2.13-1.84l0.1,0.19c-0.58,0.48-0.68,0.78-0.19,1.36l3.1,3.78
	c0.39,0.48,0.68,0.58,1.36,0.1L24.36,16.02z M28.62,13.31l-5.34-4.17c-0.58-0.48-0.78-0.58-1.45-0.19l-0.1-0.2l2.71-1.65l0.1,0.19
	c-0.87,0.58-1,0.87-0.58,1.26l4.36,3.39l-0.87-5c-0.1-0.39-0.1-0.58-0.19-0.68c0-0.29-0.29-0.19-1,0.19l-0.1-0.19l2.33-1.36
	l0.1,0.19c-0.48,0.29-0.68,0.68-0.48,1.45l1.09,6.48L28.62,13.31z M37.05,6.53l-0.19,0.1c-0.39-0.78-0.58-0.78-1.07-0.58l-1.75,0.58
	l0.78,2.33c0.19,0.48,0.39,0.58,0.78,0.39l1.65-0.59c0.78-0.29,0.87-0.68,0.87-1.65l0.19-0.08l0.39,1.65l-5.82,2l-0.1-0.19l0.29-0.1
	c0.87-0.29,1-0.58,0.68-1.26L32.2,4.49c-0.09-0.58-0.39-0.78-1.09-0.46l-0.19,0.1l-0.1-0.19l5.16-1.91l0.58,1.45l-0.19,0.1
	c-0.48-0.87-0.78-1-1.16-0.87l-2.33,0.78l1,2.71l1.94-0.68c0.39-0.1,0.48-0.39,0.39-1.07l0.19-0.1L37.05,6.53z M41.51,0.91l0.6-0.1
	c1.75-0.19,2.33,0.58,2.42,1.65c0.19,1.36-0.58,2-1.84,2.13l-0.68,0.1L41.51,0.91z M41.9,4.91h0.58l0.78-0.1
	c0.29,0.19,0.78,0.48,1.26,0.87l0.87,0.68c0.97,0.95,2.36,1.33,3.68,1V7.11c-0.88-0.01-1.73-0.31-2.42-0.87l-1-0.78
	c-0.45-0.4-0.94-0.75-1.45-1.07c0.82-0.3,1.34-1.12,1.26-2c-0.1-1.16-1.16-1.94-3.3-1.65c-0.78,0.1-1,0.1-1.45,0.19
	c-0.48,0.1-0.96,0.16-1.45,0.19v0.19h0.29c0.68-0.1,0.87,0.1,1,0.78l0.56,4.82c0.1,0.78-0.1,1-0.78,1.07h-0.22v0.19l3.2-0.39V7.59
	h-0.2c-0.68,0.1-1-0.1-1-0.78L41.9,4.91z M50.81,5.59c0.07,0.97,0.87,1.73,1.84,1.75c0.72,0.17,1.44-0.27,1.61-0.99
	c0.02-0.1,0.04-0.21,0.04-0.32c0.1-1.65-3.49-2.42-3.39-4.46c0.15-0.99,1.07-1.68,2.06-1.54h0.06c1,0.1,1.16,0.39,1.55,0.39
	c0.1,0,0.1,0,0.19-0.1h0.19l0.14,1.45h-0.19c-0.25-0.83-0.95-1.43-1.81-1.54c-0.78-0.1-1.36,0.29-1.36,1
	c-0.1,1.84,3.59,2.62,3.39,4.75c-0.12,1.1-1.11,1.89-2.21,1.76c-0.01,0-0.01,0-0.02,0h-0.25c-0.54-0.09-1.07-0.27-1.55-0.53
	c-0.1,0-0.19,0-0.19,0.1h-0.19l-0.1-1.75L50.81,5.59z M59.63,8.68l-2.72-0.66V7.88c0.68,0.1,0.87,0,1.07-0.78l1.07-4.85
	c0.1-0.58,0-0.87-0.68-1V1.1l2.81,0.48v0.19c-0.68-0.19-1-0.1-1.16,0.68L58.95,7.3c-0.1,0.68,0,1,0.78,1.07L59.63,8.68z M65.44,9.46
	c-0.19,0.58-0.1,0.87,0.58,1.16l0.39,0.19L66.31,11l-3.39-1.38l0.1-0.19l0.39,0.19c0.68,0.29,1,0.1,1.16-0.48l2.13-5.33l-1.94-0.79
	c-0.39-0.19-0.68,0-1.26,0.87l-0.19-0.1l0.87-1.65l0.19,0.1c0,0.1,0,0.1,0.1,0.19l0.19,0.1l5.14,2c0.19,0.1,0.29,0.1,0.39,0
	l0.19,0.1L69.9,6.39l-0.19-0.1c0.19-1,0.1-1.36-0.29-1.55l-1.85-0.71L65.44,9.46z M77.16,10.24c0.68-0.29,0.58-0.58,0-1.07l0.1-0.19
	l2.13,1.45l-0.1,0.19c-0.53-0.34-1.22-0.34-1.75,0l-3.39,1.65l-1,1.45c-0.39,0.48-0.29,0.87,0.29,1.26l0.1,0.1l-0.1,0.19l-2.62-1.74
	l0.1-0.19l0.19,0.1c0.58,0.39,0.87,0.29,1.26-0.19l0.87-1.36l0.1-3.78c0-1.07-0.1-1.36-0.68-1.75l0.1-0.29l2.52,1.74l-0.1,0.1
	c-0.78-0.48-0.87-0.39-1,0.29v3.39L77.16,10.24z M86.66,24.01c-1.26,1-3.2,1.26-4.27-0.19c-1.12-1.5-0.82-3.63,0.68-4.76
	c0.02-0.01,0.04-0.03,0.06-0.04l0.13-0.09c1.21-1.13,3.11-1.06,4.24,0.15c0,0,0.01,0.01,0.01,0.01l0.12,0.13
	c1.16,1.46,0.78,3.5-1,4.76L86.66,24.01z M87.66,24.68c1.61-1.36,1.82-3.77,0.46-5.38c-0.01-0.02-0.03-0.03-0.04-0.05
	c-1.13-1.85-3.55-2.43-5.4-1.29c-0.03,0.02-0.06,0.04-0.08,0.05l-0.29,0.21c-1.75,1.36-1.75,3.68-0.39,5.53
	c1.32,1.82,3.86,2.23,5.68,0.91c0,0,0,0,0.01-0.01L87.66,24.68z M90.08,31.91l-0.1-0.19c0.42-0.12,0.67-0.56,0.55-0.99
	c-0.02-0.06-0.04-0.12-0.07-0.17l-0.87-1.94l-2.23,1.08c-0.58,0.29-0.78,0.48-0.39,1.26l-0.29,0.19l-1.16-2.52l0.19-0.1
	c0.39,0.58,0.58,0.68,1.36,0.29l4.01-1.94c0.68-0.29,1-0.48,0.58-1.26l0.19-0.1l2.23,4.65l-1.26,0.58l-0.1-0.19
	c0.58-0.29,0.78-0.58,0.48-1.26l-1-1.94l-2.42,1.16l1,2c0.19,0.39,0.48,0.48,1,0.29l0.1,0.19L90.08,31.91L90.08,31.91z M9.44,77.16
	l4.17-7.66L7.98,73.1c-0.68,0.39-0.48,1-0.1,1.55l-0.19,0.1l-1.84-2.52l0.19-0.24c0.68,0.87,0.87,0.87,2,0.1l4.89-3.1
	c0.78-0.48,1.07-0.68,0.48-1.45l0.19-0.19l1.26,1.84l-3.88,7.27l8-1.55l1.26,1.75l-0.19,0.19c-0.48-0.58-0.68-0.78-1.07-0.48
	l-5.14,4.36c-1.07,0.87-1,1-0.39,1.84l-0.19,0.19l-2.13-3.07l0.19-0.19c0.39,0.58,1,1,1.55,0.48l5-4.27l-8.52,1.66L9.44,77.16z
	 M23.97,85.16l-2-1.55l3-2L23.97,85.16z M23.87,85.84l-0.75,2.76c-0.02,0.2-0.08,0.4-0.19,0.58c-0.29,0.29-0.58,0.19-1.26-0.29
	l-0.29-0.19l-0.19,0.19l3.3,2.42l0.19-0.19c-0.58-0.48-0.78-0.78-0.48-1.55l2.33-8.42l-1.16-0.78l-0.1,0.39l-6.5,4.36
	c-1.16,0.78-1.36,0.78-2.13,0.19l-0.19,0.19l2.71,2l0.19-0.19l-0.19-0.1c-0.58-0.58-0.87-0.87-0.58-1.26
	c0.1-0.19,0.58-0.39,0.78-0.58l2-1.36L23.87,85.84z M33.26,85.65c0.23,0.05,0.46,0.11,0.68,0.19c2.13,0.78,2.33,1.94,1.94,3.3
	c-0.58,1.65-1.84,1.94-3.39,1.45c-0.28-0.11-0.57-0.21-0.87-0.29L33.26,85.65z M31.51,90.49c0.22,0.11,0.45,0.21,0.68,0.29l1,0.29
	c0.4,0.54,0.74,1.13,1,1.75l0.58,1.26c0.78,1.65,1.26,2.42,3.68,3.2l0.1-0.29c-1.04-0.47-1.84-1.35-2.23-2.42l-0.58-1.45
	c-0.3-0.7-0.66-1.36-1.07-2c1.15,0.13,2.24-0.55,2.62-1.65c0.48-1.45-0.29-2.91-2.81-3.78l-1.75-0.58c-0.6-0.15-1.18-0.34-1.75-0.58
	l-0.1,0.29l0.29,0.1c0.78,0.29,1,0.58,0.68,1.45l-2,5.91c-0.29,1-0.68,1.07-1.55,0.78l-0.19-0.1l-0.1,0.29l4,1.36l0.1-0.29
	l-0.29-0.1c-0.78-0.29-1.07-0.58-0.78-1.45l0.58-2.23L31.51,90.49z M48.27,90.2c0.58-0.78,0.29-1.07-0.68-1.16v-0.29l3.3,0.29v0.29
	c-0.77-0.02-1.51,0.36-1.94,1l-2.81,4l-0.19,2.23c-0.1,0.78,0.19,1.16,1.07,1.16h0.19v0.25l-4.11-0.36v-0.29h0.29
	c0.87,0.1,1.16-0.19,1.26-1l0.19-2l-2.18-4.35c-0.58-1.16-1-1.45-1.94-1.55v-0.29l3.88,0.29v0.29c-1.16-0.1-1.26,0.19-0.87,0.87
	l2,3.88L48.27,90.2z M60.49,96.84L54,97.9v-0.29l0.48-0.1c0.68-0.1,0.87-0.39,0.78-1.16l-1.07-6.5c-0.1-0.78-0.39-1.07-1.36-0.87
	h-0.19V88.7l4.27-0.78v0.29l-0.58,0.29c-1,0.19-1.16,0.29-1.07,1.16l1.16,6.69c0.1,0.39,0.29,0.48,0.68,0.48l2.13-0.39
	c0.87-0.19,1.07-0.48,1.75-1.94h0.29L60.49,96.84z M67.57,89.48l-2.33,1l-0.15-3.72L67.57,89.48z M68.09,89.97l1.94,2.13
	c0.15,0.14,0.28,0.3,0.39,0.48c0.19,0.39-0.1,0.58-0.87,0.87l-0.39,0.19l0.1,0.29l3.78-1.55l-0.19-0.3
	c-0.68,0.29-1.07,0.29-1.55-0.39l-6-6.4l-1.21,0.48l0.29,0.29l0.39,7.85c0.1,1.36,0,1.55-0.87,1.94l0.1,0.29l3.09-1.35l-0.1-0.29
	l-0.19,0.1c-0.78,0.29-1.16,0.29-1.36,0c-0.09-0.33-0.12-0.66-0.1-1l-0.1-2.52L68.09,89.97z M83.98,84.26L73,82.98l4.09,4.95
	c0.68,0.78,1,0.87,1.94,0l0.19,0.19l-2.73,2.13l-0.19-0.19c0.68-0.58,0.78-1,0.29-1.55l-4.66-5.63c-0.43,0.03-0.83,0.2-1.16,0.48
	l-0.19-0.19l1.75-1.45l9.99,1.16l-3.78-4.56c-0.58-0.68-0.87-0.68-1.84,0.1v-0.29l2.62-2.23l0.19,0.19c-0.87,0.68-0.87,1-0.58,1.45
	l5.21,6.44l-0.19,0.29L83.98,84.26z M81.81,72.81c0.1-0.19,0.29-0.48,0.58-1.07c1.16-1.75,2.13-2.33,3.1-2.52
	c1.16-0.24,2.37,0.04,3.3,0.78c0.98,0.67,1.69,1.66,2,2.81c0.29,1.26,0.1,2.13-1,3.78c-0.68,1-0.87,0.87-1.36,0.58L81.81,72.81z
	 M87.53,78.04c0.68,0.48,0.68,0.87,0.29,1.55l-0.1,0.19l0.19,0.19l2.52-4c1.7-2.25,1.25-5.45-1-7.15c0,0,0,0,0,0l-0.16-0.12
	c-2-1.36-4.65-1-6.79,2.33l-1.26,2.13c0,0-0.78,1.36-1.07,1.84l0.19,0.19l0.19-0.29c0.48-0.78,0.78-0.78,1.65-0.29l5.33,3.39
	L87.53,78.04z M2.26,45.77v6.3c0,0.39,0.1,0.39,0.48,0.39h0.59v0.19H0.61v-0.19h0.58c0.39,0,0.39-0.1,0.39-0.39v-5.43
	c-0.43,0.32-0.89,0.61-1.36,0.86l-0.09-0.19c0.69-0.42,1.29-0.98,1.75-1.65h0.39L2.26,45.77z M8.56,51.2
	c0.06,0.8-0.54,1.49-1.34,1.55c0,0,0,0-0.01,0H7.13c-0.82-0.01-1.47-0.68-1.46-1.5c0,0,0,0,0,0V51.1c0.03-0.71,0.44-1.34,1.07-1.66
	c1.36,0.49,1.84,1,1.84,1.75L8.56,51.2z M9.04,47.32c-0.11-0.95-0.96-1.63-1.91-1.55c-1.02-0.08-1.91,0.67-1.99,1.69
	c0,0.02,0,0.04,0,0.06c0,0.78,0.48,1.26,1.45,1.75c-1.07,0.39-1.55,1.07-1.55,1.75c0.09,1.09,1.03,1.91,2.13,1.84
	c1.1,0.1,2.07-0.71,2.17-1.81c0-0.02,0-0.04,0-0.05v-0.14c0-0.87-0.48-1.45-1.65-1.94C8.45,48.76,9.01,48.1,9.04,47.32L9.04,47.32z
	 M8.36,47.32c-0.01,0.63-0.34,1.21-0.87,1.55c-1.45-0.58-1.75-1.07-1.75-1.65C5.79,46.5,6.41,45.96,7.13,46
	c0.67,0,1.22,0.53,1.25,1.2C8.38,47.2,8.37,47.28,8.36,47.32L8.36,47.32z M89.85,46.53h2.63c0.19,0,0.29,0,0.29-0.1h0.19l-0.1,0.87
	h-2.71l-0.07,1.95c0.35-0.18,0.74-0.27,1.14-0.25c1.22,0.02,2.21,1,2.23,2.23c-0.03,1.28-1.09,2.3-2.37,2.29h-0.16
	c-0.87,0-1.55-0.29-1.55-0.68c0.01-0.21,0.18-0.38,0.39-0.39c0.58,0,0.78,0.78,1.45,0.78c0.89-0.15,1.51-0.94,1.45-1.84
	c0.05-0.91-0.65-1.7-1.56-1.75c0,0-0.01,0-0.01,0H91c-0.43,0.01-0.84,0.19-1.16,0.48l-0.1-0.1L89.85,46.53z M98.18,51.38
	c0,1.26-0.48,1.94-1.26,1.94c-0.78,0-1.45-0.58-1.45-2.42c-0.03-0.23,0-0.47,0.1-0.68c0.4-0.41,0.93-0.65,1.5-0.68
	C97.61,49.55,98.19,50.23,98.18,51.38L98.18,51.38z M98.18,46.38c-2.23,0.68-3.68,2.23-3.68,4.27c0,1.65,1,2.81,2.23,2.81
	c1.2-0.02,2.15-1.01,2.13-2.21c0,0,0,0,0,0c0.03-1.06-0.78-1.94-1.84-2h-0.1c-0.59,0.01-1.14,0.26-1.55,0.68
	c0.21-1.57,1.3-2.89,2.81-3.39V46.38z M48.98,44.12c-2.7-2.77-5.26-5.69-7.66-8.72c1.65-10.65,4.65-18.9,8-20.84
	c-0.1,2.52-0.29,14.82-0.39,29.55"/>
</svg>
