<svg xmlns="http://www.w3.org/2000/svg" viewBox="0 0 103.5 36.95"><defs><style>.cls-1{fill:#fff;}</style></defs><title>capitalone</title><g id="Layer_2" data-name="Layer 2"><g id="logos"><g id="_5K" data-name="5K"><g id="capital_one" data-name="capital one"><path class="cls-1" d="M71,28.37h0"/><path class="cls-1" d="M57.12,35.9c5.47-2.47,10-4.64,14.25-6.91a2.43,2.43,0,0,1-.42-.62L69.67,29c-3.72,2-7.36,4-10.76,5.8Z"/><path class="cls-1" d="M86.15,20.29h.1C97,13.67,102.92,9.46,99.91,4.5a2.2,2.2,0,0,1,.12.67v.31c-.21,3.61-6,8.67-13.94,13.94L86,19.25l-.09.11C86.05,19.67,86.05,20,86.15,20.29Z"/><path class="cls-1" d="M71,28.3a5.26,5.26,0,0,1-.82-1.55c-4.44,3.1-9.61,6.4-15.29,9.81l-.2.1c-.11,0-.11.21,0,.21s.2.1.2,0l.21-.1,3.8-2,4.51-2.88L69.67,29l1.24-.66Z"/><path class="cls-1" d="M99.78,4.29l.13.21a3.67,3.67,0,0,0-.61-1.09C97,.94,90.73,0,82.58,0,65.75-.2,41.27,3.93,28.47,6.72l-.41.1C28,6.82,28,6.93,28,7s.11.1.21.1l.41-.1C44.37,4.24,77.1.32,84.12,7.34c2.17,2.17,1.66,4.85-.82,8.16A6.84,6.84,0,0,1,86,19.25l6.73-8.36Z"/><path class="cls-1" d="M58.91,34.76C62.31,33,66,31,69.67,29l-6.25,2.92Z"/><path class="cls-1" d="M58.91,34.76C62.31,33,66,31,69.67,29l-6.25,2.92Z"/><path class="cls-1" d="M100,5.48V5.17a2.2,2.2,0,0,0-.12-.67l-.13-.21-7,6.6L86,19.25l.06.17C94,14.15,99.82,9.09,100,5.48Z"/><path class="cls-1" d="M100,5.48V5.17a2.2,2.2,0,0,0-.12-.67l-.13-.21-7,6.6L86,19.25l.06.17C94,14.15,99.82,9.09,100,5.48Z"/><path class="cls-1" d="M103.5,22c0-1.34-1.14-1.86-2.38-1.86-2.89,0-6.3,3.41-6.19,7.12a2.45,2.45,0,0,0,0,.27h0c-.31.51-1,1.65-1.55,1.65-.2,0-.31-.1-.41-.41a3.16,3.16,0,0,1,.31-1.35l1-3.92a8.32,8.32,0,0,0,.42-2.17c0-.72-.42-1-1.14-1-1-.1-2.58.72-5.68,4.34l.41-1.76a15.73,15.73,0,0,1,.52-2.68,23.91,23.91,0,0,1-3.53,1c-.11-3.5-2.38-5.87-5.89-5.87a8.85,8.85,0,0,0-8.67,9.29c.1,3.61,2.38,5.88,5.89,5.88a8.58,8.58,0,0,0,8.68-8.82v.05c.31,0,.72-.1.93-.1s.62.1.62.41a14.55,14.55,0,0,1-.41,1.76l-.62,2.89c-.31,1.24-.52,2.48-.83,3.41h1.65l.93-4.65c2.89-3,4-4,4.75-4a.49.49,0,0,1,.52.52A9.93,9.93,0,0,1,92.46,24l-.93,3.51a9.19,9.19,0,0,0-.41,1.85,1,1,0,0,0,1.14,1c1.17,0,2.07-1.12,2.77-2.37a3,3,0,0,0,3,2.42,5.22,5.22,0,0,0,4.54-3.09l-.31-.21A4.27,4.27,0,0,1,99,29.18,2.09,2.09,0,0,1,96.68,27a3.34,3.34,0,0,1,.11-1.14C99.47,25.77,103.6,24.94,103.5,22Zm-2.79-1.34a1,1,0,0,1,1.14,1.13c.1,2-2.07,3.62-5.06,3.62C97.1,24,99,20.61,100.71,20.61Zm-23.65,9c-2.27,0-3.92-2.27-4-5-.1-3.51,2.27-8.77,6-8.77,2.27,0,3.93,2.16,4,4.85C83.26,24.36,81.4,29.63,77.06,29.63Z"/><polygon class="cls-1" points="70.14 15.36 65.91 15.26 63.74 27.34 68.08 27.34 70.14 15.36"/><path class="cls-1" d="M51.71,26.83c.51.52,1.34.62,2.78.62a6.76,6.76,0,0,0,2.17-.31,7.61,7.61,0,0,0,2.17-.93v1.14h4.44v-.1c-.41-.31-.52-.52-.41-.93L63.58,22a10.16,10.16,0,0,0,.21-1.44c0-1.14-1-2.07-4.13-2.07a39,39,0,0,0-6,.52l-.83,2.27a17.6,17.6,0,0,1,6.09-.62c.62.1.73.31.73.83-.11.2-.21.3-.62.51a6.46,6.46,0,0,1-1.45.31c-1.44.21-2.48.31-3.3.41a6.17,6.17,0,0,0-1.76.52,2.91,2.91,0,0,0-1.13.83,1.9,1.9,0,0,0-.52,1.24A1.7,1.7,0,0,0,51.71,26.83Zm4-2.68a5.53,5.53,0,0,1,1.14-.31,9.3,9.3,0,0,0,1.65-.31,4.6,4.6,0,0,0,.72-.21c-.1.62-.2.93-.2,1.14a1.09,1.09,0,0,1-.42.52,1.92,1.92,0,0,1-1,.41,3.14,3.14,0,0,1-1,.21,2.21,2.21,0,0,1-1-.21.75.75,0,0,1-.21-.62A2.22,2.22,0,0,1,55.73,24.15Z"/><polygon class="cls-1" points="49.14 27.33 50.48 20.41 52.55 20.41 52.96 18.65 50.79 18.65 51.31 15.97 46.87 16.9 46.56 18.65 44.91 18.65 44.49 20.41 46.15 20.41 44.91 27.33 49.14 27.33"/><path class="cls-1" d="M44.78,16.7c.11-.62-.82-1.24-2.06-1.24s-2.38.52-2.48,1.24.83,1.24,2.07,1.24S44.68,17.43,44.78,16.7Z"/><polygon class="cls-1" points="38.49 27.34 42.72 27.34 44.27 18.66 40.03 18.66 38.49 27.34"/><path class="cls-1" d="M25.2,30.33h4.13l.72-3.92a3.79,3.79,0,0,1,.72.62,7.6,7.6,0,0,0,.83.3,4.34,4.34,0,0,0,1.24.11,5.56,5.56,0,0,0,3.61-1A5,5,0,0,0,38.52,23a4.54,4.54,0,0,0-.21-2.38A2.81,2.81,0,0,0,36.86,19a5.23,5.23,0,0,0-2.27-.41,6.1,6.1,0,0,0-2.37.51,3.77,3.77,0,0,0-1.55,1.14L31,18.76H27.26Zm5.37-7.64a2.72,2.72,0,0,1,.72-1.45,3,3,0,0,1,1.55-.51,1.56,1.56,0,0,1,1.65,2.06A2.29,2.29,0,0,1,34,23.93a1.89,1.89,0,0,1-.82.72,2.67,2.67,0,0,1-1,.21,1.78,1.78,0,0,1-1.34-.52C30.46,24,30.46,23.51,30.57,22.69Z"/><path class="cls-1" d="M21,22a7,7,0,0,1-1.44.31c-1.45.2-2.48.31-3.31.41a5.7,5.7,0,0,0-1.75.52A2.84,2.84,0,0,0,13.4,24a1.92,1.92,0,0,0-.52,1.24,1.72,1.72,0,0,0,.83,1.55c.52.52,1.34.62,2.79.62a6.54,6.54,0,0,0,2.06-.31,8.22,8.22,0,0,0,2.17-.93v1.14h4.44v-.21c-.41-.21-.52-.41-.41-.83L25.48,22a10.07,10.07,0,0,0,.21-1.45c0-1.13-1-2.06-4.13-2.06a39,39,0,0,0-6,.51l-.83,2.27a17.59,17.59,0,0,1,6.09-.61c.62.1.73.31.73.82A1.28,1.28,0,0,1,21,22Zm-.1,2.48a1.06,1.06,0,0,1-.42.51,3.85,3.85,0,0,1-.92.42,4.63,4.63,0,0,1-1.14.2,2.24,2.24,0,0,1-1-.2.76.76,0,0,1-.21-.62,2.08,2.08,0,0,1,.41-.62,5,5,0,0,1,1.14-.31,10.35,10.35,0,0,0,1.65-.31c.31-.11.52-.11.72-.21A9.51,9.51,0,0,0,20.94,24.45Z"/><path class="cls-1" d="M.05,21.86c-.62,4.55,5,5.68,7.43,5.68,1.45,0,2.89-.1,4.24-.2l.51-3.1a13.58,13.58,0,0,1-3.51.41c-2.06,0-3.61-1-3.51-2.89.1-1.24,1.55-3.82,5.16-3.82a6,6,0,0,1,3.31.93l.51-3a10.55,10.55,0,0,0-4.13-.73C5.21,15.26.56,17.42.05,21.86Z"/></g></g></g></g></svg>