<?xml version="1.0" encoding="utf-8"?>
<!-- Generator: Adobe Illustrator 23.0.6, SVG Export Plug-In . SVG Version: 6.00 Build 0)  -->
<svg version="1.1" id="Layer_1" xmlns="http://www.w3.org/2000/svg" xmlns:xlink="http://www.w3.org/1999/xlink" x="0px" y="0px"
	 viewBox="0 0 792 612" style="enable-background:new 0 0 792 612;" xml:space="preserve">
<style type="text/css">
	.st0{fill:#FFFFFF;}
</style>
<g>
	<path id="Icon" class="st0" d="M518.2,364.5c0,0-0.1,0.1-0.1,0.1c-32.4,22.9-70.8,47-112,72.3l-1.6,1c-0.6,0.4-0.7,1.2-0.3,1.7
		c0.4,0.6,1.2,0.7,1.7,0.3l1.4-0.7c35-18.3,75.2-40,115.7-62.2c0.2-0.1,0.4-0.2,0.6-0.4C521.3,372.8,519.5,368.8,518.2,364.5z
		 M730.8,192.4c-51.1-56.3-379.5-5.7-519.2,24.9l-3.3,0.7c-0.7,0.1-1.1,0.8-1,1.4c0.1,0.7,0.8,1.1,1.4,1l3.2-0.6
		c115.7-20.6,356.4-49.2,408.2,2.2c15.8,15.7,12,35.9-6.3,59.7c9.9,6.3,16.9,16.3,20.1,28.8C705.4,262.8,753.5,217.5,730.8,192.4z"
		/>
	<g id="Wordmark">
		<path class="st0" d="M538.8,349.7c0.7,19.8,13.2,36,29.5,36c31.7,0,45.2-38.9,44.2-64.9c-0.7-19.9-13.5-36-29.9-36
			C555.5,284.8,537.9,323.5,538.8,349.7z M522.1,348.6c-1.2-33.8,25.3-68.4,63.8-68.4c25.7,0,42.6,17.1,43.5,43.4
			c1.2,35.7-23.5,68.4-63.8,68.4C539.9,392,523,374.9,522.1,348.6z"/>
		<path class="st0" d="M157.6,339.7c-1.4,0.5-3.2,1-5.4,1.5c-2.2,0.5-6.2,1.2-12,2.1c-4,0.6-6.8,1.5-8.4,2.6
			c-1.5,1.1-2.4,2.5-2.7,4.1c-0.3,1.7,0.3,3.1,1.8,4.2c1.5,1.1,4.1,1.6,7.8,1.6c2.7,0,5.4-0.4,8-1.3c2.6-0.9,4.8-2,6.5-3.5
			c1.2-1.1,2.1-2.4,2.8-4.1C156.4,345.9,157,343.5,157.6,339.7z M191.1,318.9c-0.1,3.1-0.7,5.8-1.5,10.6l-5.7,31.8
			c-0.5,2.8,0.6,5,3.2,6.5l-0.2,1.2l-32.4,0l-0.3-8.1c-4.7,2.8-10.4,5.2-15.6,6.7c-5.1,1.3-9.3,1.9-15.5,1.9
			c-10.5,0-16.5-1.1-20.6-4.7c-4.2-3.7-6.2-6.2-6-11.4c0.2-3,1.7-6.8,3.9-9.4c2.2-2.7,5.3-4.5,8.6-6c3.3-1.6,7.3-2.7,13-3.6
			c5.7-0.9,13.7-1.9,24.4-2.8c5.6-0.5,9-1.8,10.6-2.4c2.2-0.9,3.1-1.8,3.4-3.6c0.6-3.3-0.4-5.1-4.8-6c-11.7-2.3-33.6,1.5-44.8,4.3
			l6.1-16.5c14.9-2.2,28.8-3.6,43.5-3.6C183.8,303.7,191.3,310.3,191.1,318.9z"/>
		<path class="st0" d="M285,369l11.2-63.5h31L316,369H285z M298,290.8c0.9-5.2,9.2-9.5,18.4-9.5c9.2,0,15.9,4.2,15,9.5
			c-1,5.2-9.2,9.4-18.4,9.4C303.7,300.3,297,296.1,298,290.8z"/>
		<path class="st0" d="M437.4,339.8c-1.4,0.5-3.2,1-5.4,1.5c-2.2,0.5-6.2,1.2-12.1,2.1c-4,0.6-6.8,1.5-8.4,2.6
			c-1.5,1.1-2.4,2.4-2.7,4.1c-0.3,1.8,0.3,3.2,1.8,4.2c1.6,1.1,4.2,1.6,7.8,1.6c2.7,0,5.4-0.4,8-1.2c2.6-0.9,4.8-2,6.6-3.5
			c1.2-1.1,2.1-2.5,2.8-4.1C436.2,346.1,436.8,343.6,437.4,339.8z M470.9,319c-0.1,3.1-0.7,5.9-1.5,10.6l-5.6,31.8
			c-0.5,2.8,0.6,5,3.2,6.6l-0.2,1.1l-32.4,0.1l-0.2-8.1c-4.7,2.9-10.5,5.3-15.6,6.6c-5.2,1.4-9.3,1.9-15.6,1.9
			c-10.5,0-16.4-1-20.6-4.7c-4.2-3.8-6.3-6.2-6-11.4c0.1-3,1.7-6.8,3.9-9.4c2.2-2.7,5.3-4.5,8.6-6c3.3-1.6,7.3-2.7,12.9-3.7
			c5.8-0.9,13.8-1.9,24.4-2.8c5.6-0.5,9-1.7,10.6-2.3c2.3-0.9,3.2-1.9,3.5-3.7c0.6-3.2-0.4-5.1-4.8-6c-11.7-2.3-33.6,1.5-44.8,4.3
			l6.1-16.5c14.9-2.2,28.8-3.6,43.5-3.6C463.6,303.8,471.1,310.5,470.9,319z"/>
		<path class="st0" d="M92.2,346.2c-10.1,2-15.8,2.8-25.8,2.8c-14.8,0-26.6-7.4-26-20.8c0.5-9,11.1-27.9,38.1-27.9
			c8.5,0,15.2,1.5,24.1,6.6l3.9-22c-12.2-4.6-20.2-5.3-30.7-5.2c-35.4,0.4-69.5,16.5-73.7,49.3c-4.3,33.3,36.4,41.7,54.4,41.6
			c10.4,0,21.3-0.5,31.4-1.5L92.2,346.2z"/>
		<path class="st0" d="M344.4,305.2l2.2-12.9l32.4-7.1l-3.5,20h15.9l-3,12.8l-15.4,0l-9.4,51c0,0-31.2-0.2-31.4,0l9.3-50.9h-11.8
			l2.4-12.9H344.4z"/>
		<polygon class="st0" points="502.4,369 470.8,369 486.7,280.5 517.5,281.3 		"/>
		<path class="st0" d="M244,320.4c-4.1,0-7.7,1.2-11,3.7c-3.2,2.5-5.3,6.1-6.1,10.9c-1,5.5-0.4,9.5,1.8,12c2.2,2.4,5.4,3.7,9.6,3.7
			c2.8,0,5.7-0.5,7.9-1.6c2.7-1.4,4.5-2.9,6.1-5.2c1.7-2.5,2.8-5.2,3.4-8.4c0.9-5,0.1-8.8-2.2-11.2C251.1,321.7,248,320.4,244,320.4
			z M187.5,390.9l15.1-85.1h27.2l-2.1,10.9c2.4-3.2,6.1-5.9,11.4-8.1c5.3-2.1,11.2-3.7,17.6-3.7c7.1,0,11.5,0.4,16.8,3.1
			c5.3,2.8,9,6.8,11,12c2,5.2,2.5,11,1.4,17.3c-1.8,10.5-7,18.8-15.3,24.8c-8.3,6.1-15.8,7.7-26.5,7.7c-3.8,0-6.9-0.4-9.6-1
			c-2.6-0.7-4.6-1.5-6.2-2.5c-1.5-1-3.1-2.4-5.1-4.6l-5.1,29.2H187.5z"/>
		<path class="st0" d="M750.7,328.2c-0.2-5.1-2.7-8.6-8-8.6c-12.7,0-26.3,24.9-28.6,35C735,354.6,751.2,342.2,750.7,328.2z
			 M753.4,367.3l2.5,1.7c-6.2,12.6-18.9,22.8-33.7,22.8c-12.1,0-22.1-8.1-22.6-23.3c-1-27.2,24.5-52.5,45.4-52.5
			c9,0,17.3,3.9,17.6,13.5c0.8,21.6-29.6,28.2-49.6,28.7c-0.7,2.3-0.9,4.5-0.8,8c0.3,9,5.8,16.5,17,16.5
			C738.8,382.8,748.5,375,753.4,367.3z"/>
		<path class="st0" d="M629,327.5c2.2-0.3,5.6-0.7,7.1-0.7c2.3,0,4.4,0.4,4.5,2.7c0,1.3-2.4,11-2.9,13.2l-4.8,21.3
			c-2,8.7-4.1,17.9-6,25.1h12.4l7-33.8c21.3-22.2,29.5-29.5,34.6-29.5c2.3,0,3.8,1.2,3.9,3.9c0.1,3.9-2.3,12.8-3.1,15.3l-7.1,24.7
			c-1.6,5.5-2.8,10.5-2.7,14.1c0.2,5.4,3.5,7.8,8.3,7.8c9.1,0,15.7-9.5,21.4-18.8l-1.7-3.1c-2.3,3.7-7.7,11.9-12,11.9
			c-1.3,0-2.6-0.9-2.7-3.1c-0.1-2.9,1.1-7.2,1.9-10l7.9-28.9c2.1-8,3.1-13.1,3.1-15.8c-0.2-5.4-3.3-7.9-8.2-7.9c-8.2,0-19,6-42,32.4
			h-0.3l2.9-12.9c1.6-7.1,3.1-14.4,4.6-19.5c-7.9,2.9-19.4,6.1-26.4,7.4L629,327.5z"/>
	</g>
	<path id="Trademark" class="st0" d="M764.5,304.5c0-6.3,5.1-11,11.2-11c6,0,11.1,4.7,11.1,11c0,6.4-5.1,11.1-11.1,11.1
		C769.6,315.6,764.5,310.9,764.5,304.5z M775.7,313.8c5,0,8.9-3.9,8.9-9.3c0-5.2-3.9-9.2-8.9-9.2c-5.1,0-9,3.9-9,9.2
		C766.7,309.9,770.6,313.8,775.7,313.8z M773.4,310.9h-2v-12.7h4.9c3,0,4.5,1.1,4.5,3.6c0,2.3-1.4,3.3-3.3,3.5l3.6,5.6h-2.2
		l-3.3-5.5h-2.2V310.9z M775.6,303.8c1.7,0,3.1-0.1,3.1-2.1c0-1.6-1.4-1.9-2.8-1.9h-2.6v4H775.6z"/>
</g>
</svg>
