<svg xmlns="http://www.w3.org/2000/svg" viewBox="0 0 121.5 17.24"><defs><style>.cls-1{fill:#fff;}</style></defs><title>carlylegroup</title><g id="Layer_2" data-name="Layer 2"><g id="logos"><g id="_1K" data-name="1K"><g id="caryle"><g id="g3011"><g id="g3021"><path id="path3023" class="cls-1" d="M6.41,11a2.34,2.34,0,0,1-.11.93c-.08.12-.23.17-.52.18l-.6,0v.37c.65,0,1.23,0,1.84,0s1.15,0,1.79,0V12.1l-.6,0c-.29,0-.44-.06-.51-.18A2.11,2.11,0,0,1,7.58,11V5.71c0-.47,0-.86,0-1.23H9.55c.37,0,.47.11.5.4l0,1h.38a18.57,18.57,0,0,1,.09-2c-.89,0-1.79,0-2.68,0H6.1c-.89,0-1.78,0-2.67,0,.06.64.08,1.32.08,2H3.9l.05-1c0-.29.12-.4.49-.4H6.36a11.44,11.44,0,0,1,0,1.23Z"/></g><g id="g3025"><path id="path3027" class="cls-1" d="M12.13,11.29c0,.7-.15.83-1.11.83v.35c.52,0,1,0,1.56,0s1.17,0,1.73,0v-.35c-.89,0-1.06-.06-1.06-.83V9.45l1.59,0,1.6,0v1.84c0,.77-.18.83-1.07.83v.35c.56,0,1.15,0,1.74,0s1,0,1.55,0v-.35c-1,0-1.11-.13-1.11-.83V7.51c0-.73.17-.76,1.16-.76V6.41l-1.64,0c-.57,0-1.05,0-1.7,0v.34c.93,0,1.07,0,1.07.76V9l-1.6,0L13.25,9V7.51c0-.73.13-.76,1.06-.76V6.41l-1.69,0L11,6.41v.34c1,0,1.16,0,1.16.76Z"/></g><g id="g3029"><path id="path3031" class="cls-1" d="M20.94,11.1c0,.87-.08,1-1.07,1v.35c.61,0,1,0,1.6,0s1.2,0,1.92,0,1.19,0,1.68-.06c.05-.49.09-1.05.1-1.69h-.32a5.93,5.93,0,0,1-.27,1.12,6.11,6.11,0,0,1-1.39.15c-.42,0-.75,0-1.09-.05,0-.58-.05-1.4-.05-2.39.2,0,.4,0,.71,0,1.07,0,1.17.15,1.17.93h.37c0-.34,0-.76,0-1.15s0-.72,0-1.05h-.37c0,.69-.1.83-.69.83s-.9,0-1.19,0c0-.71,0-1.52,0-2.16a4.26,4.26,0,0,1,.78-.08,9.6,9.6,0,0,1,1.67.13,5.89,5.89,0,0,1,.12,1H25a9.56,9.56,0,0,1,.15-1.49,11.43,11.43,0,0,0-1.5-.1c-.45,0-.91,0-1.35,0s-.89.05-1.35.05-.78,0-1.16,0v.33c.93,0,1.15,0,1.15.87Z"/></g><g id="g3033"><path id="path3035" class="cls-1" d="M37.55,11.39l-.11-.12a4.71,4.71,0,0,1-2.51.74,3.81,3.81,0,0,1-4.07-4c0-2.11,1.22-3.8,3.55-3.8a4.43,4.43,0,0,1,1.38.21c.57.21,1.07.42,1.07.77v.89h.38a9.39,9.39,0,0,1,.23-1.88,9,9,0,0,0-2.85-.51A5.57,5.57,0,0,0,31,4.85a4.14,4.14,0,0,0-1.51,3.33c0,2.81,2,4.5,5,4.5A6.12,6.12,0,0,0,37.2,12Z"/></g><g id="g3037"><path id="path3039" class="cls-1" d="M40.77,7.61l1,2.42c-.41,0-.73,0-1.13,0s-.68,0-1,0Zm.06-1.34-2,4.52c-.56,1.26-.76,1.33-1.31,1.33v.35c.55,0,.84,0,1.21,0s.88,0,1.28,0v-.35c-.63,0-.91-.09-.91-.44a2.81,2.81,0,0,1,.42-1.13l1.25,0,1.27,0a5,5,0,0,1,.5,1.24c0,.24-.19.33-.92.33v.35c.55,0,1,0,1.52,0s1.28,0,1.48,0v-.35c-.47,0-.73,0-1.12-1L41.3,6.27Z"/></g><g id="g3041"><path id="path3043" class="cls-1" d="M45.17,12.47c.57,0,1.13,0,1.68,0,.91,0,1.34,0,1.64,0v-.35c-1,0-1.09,0-1.09-.6V6.94a2,2,0,0,1,.79-.13c.89,0,1.31.36,1.31,1.17a1.26,1.26,0,0,1-1.31,1.28l-.45,0-.05.2,2.48,3H51.7v-.31c-.38,0-.48-.1-.73-.39L49.08,9.41c.59-.22,1.66-.52,1.66-1.67s-.82-1.33-1.92-1.33l-2,0c-.59,0-1.1,0-1.63,0v.34c1,0,1.11.09,1.11.73v3.89c0,.73-.22.75-1.11.75Z"/></g><g id="g3045"><path id="path3047" class="cls-1" d="M53.8,11.15c0,.81-.17.89-.72,1v.35c.44,0,.77,0,1.29,0s.94,0,2.13,0c.54,0,1.11,0,1.52,0a11.89,11.89,0,0,1,.21-1.63h-.37l-.25,1a6.69,6.69,0,0,1-1.8.17L55,12c0-.4-.05-.73-.05-1.15V7.52c0-.76.28-.77,1.07-.77V6.41l-1.71,0c-.57,0-1,0-1.58,0v.34c.91,0,1.11,0,1.11.58Z"/></g><g id="g3049"><path id="path3051" class="cls-1" d="M59.54,12.47c.54,0,1,0,1.62,0,.44,0,1.09,0,1.63,0v-.35c-.74,0-1.06,0-1.06-.86V10a21.26,21.26,0,0,1,2.2-3.36V6.44h-.84c-.45.86-1.34,2.44-1.61,2.92l-1.11-2a1.92,1.92,0,0,0-.92-1,12,12,0,0,1-1.27.21v.35c.44,0,.58.07,1.1.8.33.47.78,1.22,1.34,2.22v1.62c0,.41-.18.59-1.08.59Z"/></g><g id="g3053"><path id="path3055" class="cls-1" d="M66,11.15c0,.81-.18.89-.72,1v.35c.43,0,.77,0,1.28,0s.95,0,2.13,0c.55,0,1.12,0,1.53,0a9.43,9.43,0,0,1,.21-1.63H70l-.24,1A6.78,6.78,0,0,1,68,12l-.84,0a10.82,10.82,0,0,1,0-1.15V7.52c0-.76.27-.77,1.06-.77V6.41l-1.7,0c-.57,0-1,0-1.59,0v.34c.92,0,1.12,0,1.12.58Z"/></g><g id="g3057"><path id="path3059" class="cls-1" d="M71.93,11.1c0,.87-.08,1-1.07,1v.35c.61,0,1,0,1.6,0s1.2,0,1.92,0,1.18,0,1.68-.06c0-.49.09-1.05.1-1.69h-.32a5.92,5.92,0,0,1-.28,1.12,6,6,0,0,1-1.38.15c-.42,0-.76,0-1.09-.05,0-.58,0-1.4,0-2.39.2,0,.4,0,.7,0,1.08,0,1.18.15,1.18.93h.37c0-.34,0-.76,0-1.15s0-.72,0-1.05h-.37c0,.69-.1.83-.69.83s-.91,0-1.19,0c0-.71,0-1.52,0-2.16a4.46,4.46,0,0,1,.78-.08,9.63,9.63,0,0,1,1.68.13,5.89,5.89,0,0,1,.12,1H76a12.84,12.84,0,0,1,.15-1.49,11.15,11.15,0,0,0-1.49-.1c-.45,0-.91,0-1.35,0s-.89.05-1.35.05-.78,0-1.16,0v.33c.92,0,1.15,0,1.15.87Z"/></g><g id="g3061"><path id="path3063" class="cls-1" d="M87.37,11.22a1.21,1.21,0,0,1-.06.51c-.07.22-.78.43-1.73.43-2.55,0-4-1.77-4-4.23,0-2.2,1.23-3.75,3.58-3.75a5.53,5.53,0,0,1,1.73.22c.58.21,1,.41,1,1v.66h.38a7.62,7.62,0,0,1,.25-1.88,9.8,9.8,0,0,0-3.07-.51c-3,0-5.22,1.76-5.22,4.48,0,3.1,2.23,4.54,5,4.54a13.91,13.91,0,0,0,3.25-.63V10c0-.36,0-.41.14-.46L89,9.39l0-.31-1.53,0-1.51,0v.37l1,.09c.32,0,.42.15.42.43Z"/></g><g id="g3065"><path id="path3067" class="cls-1" d="M90.19,12.47c.57,0,1.13,0,1.69,0,.9,0,1.34,0,1.63,0v-.35c-.94,0-1.09,0-1.09-.6V6.94a2,2,0,0,1,.8-.13c.89,0,1.31.36,1.31,1.17a1.27,1.27,0,0,1-1.31,1.28l-.45,0,0,.2,2.47,3h1.54v-.31c-.39,0-.49-.1-.73-.39L94.11,9.41c.59-.22,1.65-.52,1.65-1.67S95,6.41,93.85,6.41l-2,0c-.6,0-1.1,0-1.64,0v.34c1,0,1.12.09,1.12.73v3.89c0,.73-.23.75-1.12.75Z"/></g><g id="g3069"><path id="path3071" class="cls-1" d="M100.5,6.69c1.54,0,2.18,1.29,2.18,2.82,0,1.19-.37,2.6-1.83,2.6-1.73,0-2.25-1.61-2.25-3,0-1.56.84-2.45,1.9-2.45m.24-.42a3.17,3.17,0,1,0-.19,6.34,3.34,3.34,0,0,0,3.37-3.38,2.92,2.92,0,0,0-3.18-3"/></g><g id="g3073"><path id="path3075" class="cls-1" d="M106.65,7.25c0-.36.15-.5.94-.52V6.41l-1.51,0-1.59,0v.34c.72,0,1.05.06,1.05.62v2.9c0,1.49.46,2.34,2.52,2.34s2.44-1.18,2.44-2.45V7.49c0-.65.16-.74,1-.74V6.41c-.32,0-.73,0-1.28,0l-1.32,0v.34c1,0,1,.11,1,.79v2.68c0,1.26-.61,1.74-1.68,1.74-1.28,0-1.67-.65-1.67-1.72Z"/></g><g id="g3077"><path id="path3079" class="cls-1" d="M113.54,11.37c0,.57-.23.75-1.12.75v.35c.57,0,1.13,0,1.69,0,.9,0,1.33,0,1.63,0v-.35c-.94,0-1.09-.18-1.09-.75V6.91a2.56,2.56,0,0,1,.77-.15A1.23,1.23,0,0,1,116.75,8a1.13,1.13,0,0,1-1.23,1.28.82.82,0,0,1-.4-.09l.07.37a1.54,1.54,0,0,0,.55.1,2,2,0,0,0,2.18-1.81c0-.84-.42-1.49-2.09-1.49-.32,0-.65,0-1,0s-.6.05-.92.05l-1.53,0v.34c1,0,1.12.09,1.12.73Z"/></g></g><path id="path3081" class="cls-1" d="M0,.45H121.5V0H0V.45Z"/><path id="path3083" class="cls-1" d="M0,17.24H121.5v-.45H0v.45Z"/></g></g></g></g></svg>