<?xml version="1.0" encoding="utf-8"?>
<!-- Generator: Adobe Illustrator 23.0.6, SVG Export Plug-In . SVG Version: 6.00 Build 0)  -->
<svg version="1.1" id="Layer_1" xmlns="http://www.w3.org/2000/svg" xmlns:xlink="http://www.w3.org/1999/xlink" x="0px" y="0px"
	 viewBox="0 0 417.2 59.8" style="enable-background:new 0 0 417.2 59.8;" xml:space="preserve">
<style type="text/css">
	.st0{fill:#FFFFFF;}
</style>
<title>logo_lg</title>
<path class="st0" d="M80.2,17.9V38h-2V16.2h3.2L86,28.6c0.6,1.8,1.2,3.6,1.8,5.4c-0.1-1.6-0.2-3.2-0.2-4.8v-13h2V38h-2.2l-5.5-15.1
	C81.2,21.1,80.7,19.4,80.2,17.9z"/>
<path class="st0" d="M101.2,32.9c-0.2,3.5-1.9,5.5-4.4,5.5c-3.3,0-4.8-2.7-4.8-8.2s1.5-8.2,4.8-8.2c3,0,4.5,2.4,4.5,7.2
	c0,0.4,0,0.8,0,1.2h-7.2c0,4.1,0.7,6.1,2.7,6.1c1.5,0,2.3-1.2,2.4-3.7L101.2,32.9z M99.2,28.7v-0.6c0-2.9-0.6-4.3-2.4-4.3
	s-2.5,1.6-2.6,4.9C94.2,28.7,99.2,28.7,99.2,28.7z"/>
<path class="st0" d="M102.6,24.2v-1.8h2.1v-5.2h2v5.2h2.8v1.8h-2.8v10c0,1.6,0.2,2.3,1.4,2.3c0.5,0,0.9-0.1,1.4-0.2V38
	c-0.7,0.2-1.3,0.3-2,0.3c-1.9,0-2.8-1-2.8-3V24.2H102.6z"/>
<path class="st0" d="M111,22.4h2l1.9,10.3c0.1,0.5,0.2,1.3,0.3,2.3c0.1-0.8,0.2-1.5,0.3-2.3l2.2-10.3h1.9l2.3,10.3
	c0.1,0.8,0.2,1.5,0.2,2.3c0.1-1.3,0.2-2.1,0.2-2.3l1.9-10.3h2l-3,15.6h-1.8l-2.5-11.6c-0.1-0.6-0.1-1.2-0.2-1.8
	c-0.1,0.6-0.1,1.2-0.3,1.8L115.9,38h-1.8L111,22.4z"/>
<path class="st0" d="M132.5,22c3.1,0,4.6,2.7,4.6,8.2s-1.5,8.2-4.6,8.2c-3.3,0-4.8-2.7-4.8-8.2S129.2,22,132.5,22z M132.5,36.5
	c1.8,0,2.5-2,2.5-6.3s-0.7-6.4-2.5-6.4s-2.6,2-2.6,6.4S130.5,36.5,132.5,36.5L132.5,36.5z"/>
<path class="st0" d="M139,22.4h2.1v1.8c0.7-1.3,2.1-2.1,3.6-2.2h0.4v2c-0.1,0-0.3,0-0.4,0c-1.6,0-3,1-3.6,2.4V38H139V22.4z"/>
<path class="st0" d="M153.5,22.4h2.1l-2.8,5.1l3.6,10.5h-2.2l-2.7-8.4l-2,3.7V38h-2.2V16.2h2.1v13.6L153.5,22.4z"/>
<path class="st0" d="M169.6,17.8c-0.3-0.1-0.6-0.1-0.9-0.1c-1.5,0-1.7,0.8-1.7,2.6v2.1h2.5v1.8H167V38h-2.1V24.2h-2.4v-1.8h2.4v-1.8
	c0-3.2,0.6-4.6,3.1-4.6c0.5,0,1.1,0,1.6,0.2L169.6,17.8z"/>
<path class="st0" d="M175.2,22c3.1,0,4.6,2.7,4.6,8.2s-1.5,8.2-4.6,8.2c-3.3,0-4.8-2.7-4.8-8.2S171.9,22,175.2,22z M175.2,36.5
	c1.8,0,2.5-2,2.5-6.3s-0.7-6.4-2.5-6.4c-2,0-2.6,2-2.6,6.4S173.2,36.5,175.2,36.5L175.2,36.5z"/>
<path class="st0" d="M182.4,22.4h2.1v1.8c0.7-1.3,2.1-2.1,3.6-2.2h0.4v2c-0.1,0-0.3,0-0.4,0c-1.6,0-3,1-3.6,2.4V38h-2.1V22.4z"/>
<path class="st0" d="M194.5,16.9h4c2.3,0,3.9,0.1,5.4,1.6c0.9,1,1.4,2.4,1.3,3.7c0.2,2.2-1.1,4.2-3.1,4.9c2.4,0.9,3.6,2.6,3.6,5.4
	c0,4.1-2.3,6.1-6.9,6.1h-4.3V16.9z M198.8,26.3c2.8,0,4.2-1.4,4.2-4s-1.4-3.5-4.6-3.5h-1.8v7.5H198.8z M199,36.7
	c3.1,0,4.5-1.2,4.5-4.2s-1.5-4.3-4.7-4.3h-2.1v8.4L199,36.7z"/>
<path class="st0" d="M217.1,38.7H215V37c-0.9,1.2-2.2,1.9-3.7,2c-2,0-3-1.3-3-4V23h2.1v11.3c0,2,0.4,2.9,1.8,2.9
	c1.2-0.1,2.3-0.9,2.9-2V23h2.1L217.1,38.7z"/>
<path class="st0" d="M221.7,34.4c0.3,1.8,1.4,2.9,2.7,2.9c1.2,0,2.3-1,2.3-2.2c0-0.1,0-0.1,0-0.2c0-1.6-1.2-2.4-2.9-3.5
	c-2.3-1.6-3.7-2.7-3.7-4.8c-0.1-2.1,1.6-3.8,3.7-3.9c0.1,0,0.2,0,0.2,0c2.4,0,3.8,1.2,4.4,3.7l-1.8,0.5c-0.4-1.7-1.3-2.6-2.5-2.6
	c-1-0.1-1.9,0.7-2,1.7c0,0.1,0,0.1,0,0.2c0,1.8,2.1,2.6,4.6,4.5c1.3,0.9,2,2.4,2,3.9c0,2.6-1.8,4.3-4.5,4.3c-2.4,0-4.4-1.8-4.6-4.2
	L221.7,34.4z"/>
<path class="st0" d="M231.5,16.9h2.1v2.5h-2.1V16.9z M231.5,23h2.1v15.6h-2.1V23z"/>
<path class="st0" d="M237,23h2v1.6c0.9-1.2,2.2-1.9,3.7-2c2,0,3,1.3,3,4v12h-2.1V27.4c0-2-0.4-2.9-1.8-2.9c-1.2,0.1-2.3,0.9-2.9,2
	v12.2h-2V23H237z"/>
<path class="st0" d="M257.5,33.5c-0.2,3.5-1.9,5.5-4.4,5.5c-3.3,0-4.8-2.7-4.8-8.2s1.5-8.2,4.8-8.2c3,0,4.5,2.4,4.5,7.2
	c0,0.4,0,0.8,0,1.2h-7.1c0,4.1,0.7,6.1,2.6,6.1c1.5,0,2.3-1.2,2.4-3.7L257.5,33.5z M255.5,29.4v-0.6c0-2.9-0.6-4.3-2.4-4.3
	s-2.5,1.6-2.6,4.9H255.5z"/>
<path class="st0" d="M261.5,34.4c0.3,1.8,1.4,2.9,2.7,2.9c1.2,0,2.3-1,2.3-2.2c0-0.1,0-0.1,0-0.2c0-1.6-1.2-2.4-2.9-3.5
	c-2.3-1.6-3.7-2.7-3.7-4.8c-0.1-2.1,1.6-3.8,3.7-3.9c0.1,0,0.2,0,0.2,0c2.4,0,3.8,1.2,4.4,3.7l-1.8,0.5c-0.4-1.7-1.3-2.6-2.5-2.6
	c-1-0.1-1.9,0.7-2,1.7c0,0.1,0,0.1,0,0.2c0,1.8,2.1,2.6,4.6,4.5c1.3,0.9,2,2.4,2,3.9c0,2.6-1.8,4.3-4.5,4.3c-2.4,0-4.4-1.8-4.5-4.2
	L261.5,34.4z"/>
<path class="st0" d="M272.5,34.7c0.3,1.8,1.4,2.9,2.7,2.9c1.2,0,2.3-1,2.3-2.2c0-0.1,0-0.1,0-0.2c0-1.6-1.2-2.4-2.9-3.5
	c-2.3-1.6-3.7-2.7-3.7-4.8c-0.1-2.1,1.6-3.8,3.7-3.9c0.1,0,0.1,0,0.2,0c2.4,0,3.8,1.2,4.4,3.7l-1.8,0.5c-0.4-1.7-1.3-2.6-2.5-2.6
	c-1-0.1-1.9,0.7-2,1.7c0,0.1,0,0.1,0,0.2c0,1.8,2.1,2.6,4.6,4.5c1.3,0.9,2,2.4,2,3.9c0,2.6-1.8,4.3-4.5,4.3c-2.4,0-4.4-1.8-4.5-4.2
	L272.5,34.7z"/>
<path class="st0" d="M289.7,32.9c0.1,2.8,1.2,4.2,3.5,4.2c1.9,0,3.2-1.4,3.2-3.6c0-2.4-1.6-3.7-4.2-5.7s-4.2-3.4-4.2-6.4
	c-0.1-2.6,2-4.8,4.6-4.9c0.1,0,0.2,0,0.3,0c3.2,0,5.2,2.1,5.3,5.9H296c-0.2-2.7-1.2-4-3.2-4c-1.5-0.1-2.8,1.1-2.9,2.6
	c0,0.1,0,0.2,0,0.4c0,1,0.4,1.9,1.1,2.6c1.3,1.2,2.6,2.3,4.1,3.3c2.3,1.9,3.4,3.6,3.4,6.2c0,3.5-2.2,5.7-5.4,5.7
	c-3.4,0-5.5-2.2-5.5-6.2L289.7,32.9z"/>
<path class="st0" d="M310,38.7h-2.1V37c-0.9,1.2-2.2,1.9-3.7,2c-2,0-3-1.3-3-4V23h2.1v11.3c0,2,0.4,2.9,1.8,2.9
	c1.2-0.1,2.3-0.9,2.9-2V23h2.1v15.7H310z"/>
<path class="st0" d="M314.2,34.4c0.3,1.8,1.4,2.9,2.7,2.9c1.2,0,2.3-1,2.3-2.2c0-0.1,0-0.1,0-0.2c0-1.6-1.2-2.4-2.9-3.5
	c-2.3-1.6-3.7-2.7-3.7-4.8c-0.1-2.1,1.6-3.8,3.7-3.9c0.1,0,0.2,0,0.2,0c2.4,0,3.8,1.2,4.4,3.7l-1.8,0.5c-0.4-1.7-1.3-2.6-2.5-2.6
	c-1-0.1-1.9,0.7-2,1.7c0,0.1,0,0.1,0,0.2c0,1.8,2.1,2.6,4.6,4.5c1.3,0.9,2,2.4,2,3.9c0,2.6-1.8,4.3-4.5,4.3c-2.4,0-4.4-1.8-4.5-4.2
	L314.2,34.4z"/>
<path class="st0" d="M322.4,24.8V23h2.1v-5.2h2V23h2.8v1.8h-2.8v10c0,1.6,0.2,2.3,1.4,2.3c0.5,0,1,0,1.4-0.1v1.8
	c-0.7,0.2-1.3,0.3-2,0.3c-1.9,0-2.8-1-2.8-3V24.8H322.4z"/>
<path class="st0" d="M334,38.8c-2,0.1-3.7-1.4-3.8-3.4c0-0.2,0-0.4,0-0.6c0-3,2.5-5.4,7.4-6.6c0-0.4,0.1-0.7,0.1-1
	c0-1.9-0.7-2.8-2.4-2.8c-1.5,0-2.2,0.9-2.5,3l-2-0.3c0.5-2.9,2.1-4.4,4.5-4.4c3.2,0,4.5,1.7,4.5,5.2V35c0,1.2,0.1,2.4,0.3,3.6h-2.2
	l-0.2-1.4C336.6,38.3,335.3,38.8,334,38.8z M332.3,34.9c-0.1,1.1,0.8,2,1.9,2.1c0.1,0,0.1,0,0.2,0c1.2-0.1,2.4-0.7,3.2-1.7v-5.1
	C334.1,31,332.2,32.8,332.3,34.9L332.3,34.9z"/>
<path class="st0" d="M343,16.9h2.1v2.5H343V16.9z M343,23h2.1v15.7H343V23z"/>
<path class="st0" d="M348.5,23h2.1v1.6c0.9-1.2,2.2-1.9,3.7-2c2,0,3,1.3,3,4v12h-2.1V27.4c0-2-0.4-2.9-1.8-2.9
	c-1.2,0.1-2.3,0.9-2.9,2v12.2h-2.1L348.5,23z"/>
<path class="st0" d="M363.6,38.8c-2,0.1-3.7-1.4-3.8-3.4c0-0.2,0-0.4,0-0.6c0-3,2.5-5.4,7.4-6.6c0-0.4,0.1-0.7,0.1-1
	c0-1.9-0.7-2.8-2.4-2.8c-1.5,0-2.2,0.9-2.5,3l-2-0.3c0.5-2.9,2.1-4.4,4.5-4.4c3.2,0,4.5,1.7,4.5,5.2V35c0,1.2,0.1,2.4,0.3,3.6h-2.1
	l-0.2-1.4C366.2,38.3,364.9,38.8,363.6,38.8z M361.9,34.9c-0.1,1.1,0.8,2,1.9,2.1c0.1,0,0.1,0,0.2,0c1.2-0.1,2.4-0.7,3.2-1.7v-5.1
	C363.7,31,361.9,32.8,361.9,34.9L361.9,34.9z"/>
<path class="st0" d="M372.6,16.9h2.1v7.6c0.7-1,1.8-1.7,3.1-1.8c2.6,0,4.2,2.8,4.2,8.2s-1.6,8.2-4.3,8.2c-1.2-0.1-2.3-0.8-3-1.8v1.5
	h-2.1L372.6,16.9z M377.3,37.1c1.8,0,2.5-2.1,2.5-6.5s-0.7-6.2-2.5-6.2c-0.9,0-1.8,0.7-2.6,2v8.7C375.5,36.5,376.4,37.1,377.3,37.1z
	"/>
<path class="st0" d="M384.6,16.9h2.1v2.5h-2.1V16.9z M384.6,23h2.1v15.6h-2.1V23z"/>
<path class="st0" d="M390.1,16.9h2.1v21.8h-2.1V16.9z"/>
<path class="st0" d="M395.5,16.9h2.1v2.5h-2.1V16.9z M395.5,23h2.1v15.6h-2.1V23z"/>
<path class="st0" d="M399.3,24.8V23h2.1v-5.2h2V23h2.8v1.8h-2.8v10c0,1.6,0.2,2.3,1.4,2.3c0.5,0,0.9-0.1,1.4-0.2v1.8
	c-0.7,0.2-1.3,0.3-2,0.3c-1.9,0-2.8-1-2.8-3V24.8H399.3z"/>
<path class="st0" d="M409.8,23l2.7,11.8l2.7-11.8h2.1l-3.6,15.6c-0.9,3.7-2.2,5.3-5.2,5.3c-0.2,0-0.4,0-0.7,0V42c0.2,0,0.4,0,0.5,0
	c1.9,0,2.9-1.1,3.3-3.5l-4-15.5H409.8z"/>
<path class="st0" d="M5.5,23.7C9.4,15.4,16.6,9,25.3,6c2.9,1.3,5.5,3,7.9,5.1C20.6,12.9,10.6,22.5,8.4,35l0,0
	c-0.1,0.5-0.1,0.9-0.2,1.4l0,0c-0.5,4.4-0.1,8.9,1.1,13.1C9.3,49.5-1.4,40.3,5.5,23.7z"/>
<path class="st0" d="M50.2,37.4c1.5-8.7-0.3-17.6-5.2-24.9C33.7-2.8,19.7,2.7,19.7,2.7c1.2,0.3,2.3,0.6,3.4,1c3.2,1.1,6.3,2.7,9,4.8
	l0,0c0.4,0.3,0.7,0.5,1.1,0.9l0,0c9.6,8.1,13,21.3,8.6,33C41.8,42.3,47.5,40.4,50.2,37.4z"/>
<path class="st0" d="M33.2,53.1c-2.1,1.3-4.4,2.2-6.9,2.7c-11,2-21.7-5.2-23.9-16.2l0,0c2,12.9,15.1,22.3,27.9,19.8
	c6.1-1.2,11.5-4.7,15-9.8C41.7,51.9,37.5,53.1,33.2,53.1z"/>
<path class="st0" d="M5.5,21c0-2.5,0.4-4.9,1.3-7.3c4-10.5,15.7-15.9,26.3-12l0,0c-12.3-5-27,1.4-31.6,13.6
	c-2.2,5.8-2,12.2,0.6,17.9C2.1,28.9,3.3,24.7,5.5,21z"/>
<path class="st0" d="M9.2,42.8c7,6.5,16.5,9.7,26,9C55,48.6,55.9,32.7,55.9,32.7c-1,1.5-2.2,3-3.5,4.3l0,0c-2.3,2.3-4.9,4.2-7.9,5.6
	l0,0c-0.4,0.2-0.8,0.4-1.3,0.5l0,0c-12,4.4-25.5,0.5-33.3-9.6C9.1,36.5,8.9,39.7,9.2,42.8z"/>
<path class="st0" d="M47,13.1c2.1,1.2,4.1,2.9,5.6,4.8c7,8.8,5.8,21.5-2.9,28.7l0,0c10.4-7.9,12.4-23.9,4.2-34
	C50,7.8,44.4,4.7,38.2,4C41.9,6.2,44.9,9.3,47,13.1z"/>
</svg>
