<?xml version="1.0" encoding="utf-8"?>
<!-- Generator: Adobe Illustrator 23.0.6, SVG Export Plug-In . SVG Version: 6.00 Build 0)  -->
<svg version="1.1"
	 id="logo_1_" xmlns:cc="http://creativecommons.org/ns#" xmlns:dc="http://purl.org/dc/elements/1.1/" xmlns:rdf="http://www.w3.org/1999/02/22-rdf-syntax-ns#" xmlns:svg="http://www.w3.org/2000/svg"
	 xmlns="http://www.w3.org/2000/svg" xmlns:xlink="http://www.w3.org/1999/xlink" x="0px" y="0px" viewBox="0 0 2000 2000"
	 style="enable-background:new 0 0 3101.2 2185.3;" xml:space="preserve">
<style type="text/css">
	.st0{fill:#049FD9;}
</style>
<path id="logo" class="st0" d="M3072.2,567.2c0-36.8-29.6-65.7-65.7-65.7c-36.8,0-66.5,29.6-66.5,65.7v138.5
	c0,36.8,29.6,66.5,66.5,66.5c36,0,65.7-29.6,65.7-66.5V567.2z M2708.7,384.7c0-36-29.6-65.7-66.5-65.7s-65.7,29.6-65.7,65.7v321.1
	c0,36.8,29.6,66.5,65.7,66.5c37.6,0,66.5-29.6,66.5-66.5C2708.7,705.7,2708.7,384.7,2708.7,384.7z M2344.4,135.7
	c0-36.8-29.6-65.7-65.7-65.7c-36.8,0-65.7,29.6-65.7,65.7v702.2c0,36.8,29.6,66.5,65.7,66.5c36.8,0,65.7-29.6,65.7-66.5V135.7z
	 M1980.9,384.7c0-36-29.6-65.7-65.7-65.7c-36,0-65.7,29.6-65.7,65.7v321.1c0,36.8,29.6,66.5,65.7,66.5c36.8,0,65.7-29.6,65.7-66.5
	C1980.9,705.7,1980.9,384.7,1980.9,384.7z M1616.6,567.2c0-36.8-29.6-65.7-65.7-65.7c-36.8,0-66.5,29.6-66.5,65.7v138.5
	c0,36.8,29.6,66.5,66.5,66.5c36,0,65.7-29.6,65.7-66.5C1616.6,705.7,1616.6,567.2,1616.6,567.2z M1253.1,384.7
	c0-36-29.6-65.7-66.5-65.7c-36.8,0-66.5,29.6-66.5,65.7v321.1c0,36.8,29.6,66.5,66.5,66.5c36.8,0,66.5-29.6,66.5-66.5
	C1253.1,705.7,1253.1,384.7,1253.1,384.7z M889.6,135.7c0-36.8-29.6-65.7-66.5-65.7s-66.5,29.6-66.5,65.7v702.2
	c0,36.8,29.6,66.5,66.5,66.5s66.5-29.6,66.5-66.5V135.7z M525.3,384.7c0-36-29.6-65.7-66.5-65.7s-66.5,29.6-66.5,65.7v321.1
	c0,36.8,29.6,66.5,66.5,66.5s66.5-29.6,66.5-66.5V384.7z M161.9,567.2c0-36.8-29.6-65.7-66.5-65.7c-36.8,0-66.5,29.6-66.5,65.7
	v138.5c0,36.8,29.6,66.5,66.5,66.5c36.8,0,66.5-29.6,66.5-66.5V567.2L161.9,567.2z M1529.3,1142.1c-4-0.8-64.9-16.8-129.7-16.8
	c-123.3,0-197,66.5-197,164.9c0,87.3,61.6,131.3,136.1,154.5c8,2.4,20,6.4,28.8,8.8c32.8,10.4,59.2,25.6,59.2,52.8
	c0,29.6-30.4,49.6-96.9,49.6c-58.4,0-114.5-16.8-125.7-20v121.7c6.4,1.6,72.9,14.4,144.1,14.4c102.5,0,218.6-44.8,218.6-177.7
	c0-64.1-39.2-124.1-125.7-151.3l-36.8-12c-21.6-7.2-60.8-18.4-60.8-50.4c0-25.6,28.8-43.2,82.5-43.2c46.4,0,102.5,15.2,104.1,16
	v-111.3H1529.3z M2656.6,1399.1c0,76.9-59.2,139.3-137.7,139.3c-79.3,0-137.7-62.4-137.7-139.3c0-76.9,58.4-139.3,137.7-139.3
	C2597.4,1260.5,2656.6,1323,2656.6,1399.1 M2518.9,1126c-162.5,0-279.4,122.5-279.4,273.8s116.9,273.8,279.4,273.8
	c162.5,0,279.4-122.5,279.4-273.8S2681.5,1126,2518.9,1126 M706.3,1144.5c-12.8-4-59.2-19.2-121.7-19.2
	c-162.5,0-281.8,116.1-281.8,273.8c0,170.5,131.3,273.8,281.8,273.8c59.2,0,104.9-14.4,121.7-19.2v-141.7c-5.6,3.2-49.6,28-112.1,28
	c-88.9,0-146.5-62.4-146.5-140.9c0-80.9,60-140.9,146.5-140.9c64.1,0,106.5,25.6,112.1,28V1144.5z M2098.6,1144.5
	c-12.8-4-59.2-19.2-121.7-19.2c-162.5,0-281.8,116.1-281.8,273.8c0,170.5,132.1,273.8,281.8,273.8c59.2,0,104.9-14.4,121.7-19.2
	v-141.7c-5.6,3.2-49.6,28-112.1,28c-88.9,0-145.7-62.4-145.7-140.9c0-80.9,60-140.9,145.7-140.9c64.1,0,106.5,25.6,112.1,28V1144.5z
	 M1023.3,1664.1H889.6v-528.4h133.7V1664.1z"/>
</svg>
