<svg id="Layer_1" data-name="Layer 1" xmlns="http://www.w3.org/2000/svg" viewBox="0 0 138.56 27.02"><defs><style>.cls-1{fill:#9e9ea2;}.cls-2{fill:#005073;}</style></defs><title>ciscosecurity</title><path class="cls-1" d="M51.26,35a3.3,3.3,0,0,0-1.59-.4,2,2,0,1,0,0,4,3.34,3.34,0,0,0,1.59-.4v2a6,6,0,0,1-1.73.27,3.88,3.88,0,1,1,0-7.77,5.76,5.76,0,0,1,1.73.27Z" transform="translate(-21.9 -17.7)"/><path class="cls-1" d="M31.51,35a3.29,3.29,0,0,0-1.59-.4,2,2,0,1,0,0,4,3.32,3.32,0,0,0,1.59-.4v2a6,6,0,0,1-1.73.27,3.88,3.88,0,1,1,0-7.77,5.75,5.75,0,0,1,1.73.27Z" transform="translate(-21.9 -17.7)"/><path class="cls-1" d="M61.18,36.57a4,4,0,1,1-4-3.88,3.85,3.85,0,0,1,4,3.88m-4-2a2,2,0,1,0,2,2,1.94,1.94,0,0,0-2-2" transform="translate(-21.9 -17.7)"/><path class="cls-1" d="M43.18,34.52a6.48,6.48,0,0,0-1.48-.23c-.76,0-1.17.25-1.17.61s.56.62.87.71l.52.17a2.26,2.26,0,0,1,1.79,2.15c0,1.88-1.66,2.52-3.1,2.52a11.42,11.42,0,0,1-2-.2V38.52a7.11,7.11,0,0,0,1.79.28c.94,0,1.38-.27,1.38-.7s-.37-.6-.84-.75l-.4-.13c-1.06-.33-1.93-1-1.93-2.19,0-1.4,1-2.34,2.79-2.34a8.08,8.08,0,0,1,1.85.24Z" transform="translate(-21.9 -17.7)"/><path class="cls-1" d="M23.78,24.76a.94.94,0,0,0-1.88,0v2a.94.94,0,0,0,1.88,0Z" transform="translate(-21.9 -17.7)"/><path class="cls-1" d="M28.94,22.18a.94.94,0,0,0-1.88,0v4.55a.94.94,0,0,0,1.88,0Z" transform="translate(-21.9 -17.7)"/><path class="cls-1" d="M34.1,18.64a.94.94,0,0,0-1.88,0v10a.94.94,0,0,0,1.88,0Z" transform="translate(-21.9 -17.7)"/><path class="cls-1" d="M39.26,22.18a.94.94,0,0,0-1.88,0v4.55a.94.94,0,0,0,1.88,0Z" transform="translate(-21.9 -17.7)"/><path class="cls-1" d="M44.42,24.76a.94.94,0,0,0-1.87,0v2a.94.94,0,1,0,1.87,0Z" transform="translate(-21.9 -17.7)"/><path class="cls-1" d="M49.58,22.18a.94.94,0,1,0-1.87,0v4.55a.94.94,0,1,0,1.87,0Z" transform="translate(-21.9 -17.7)"/><path class="cls-1" d="M54.75,18.64a.94.94,0,0,0-1.87,0v10a.94.94,0,1,0,1.87,0Z" transform="translate(-21.9 -17.7)"/><path class="cls-1" d="M59.91,22.18a.94.94,0,0,0-1.89,0v4.55a.94.94,0,0,0,1.89,0Z" transform="translate(-21.9 -17.7)"/><path class="cls-1" d="M65.06,24.76a.94.94,0,0,0-1.87,0v2a.94.94,0,1,0,1.87,0Z" transform="translate(-21.9 -17.7)"/><rect class="cls-1" x="12.21" y="15.11" width="1.89" height="7.5"/><path class="cls-2" d="M82.62,31.51c-3.88-.86-5.28-2.31-5.28-4.71s2-4.21,5.9-4.21c3.38,0,5.93,1.59,6.45,4.28H88.3c-.43-2-2.29-3.14-5-3.14-3.12,0-4.57,1.26-4.57,3s.9,2.83,4.86,3.71c4.57,1,6.14,2.55,6.14,5.21s-2.26,4.78-6.4,4.78c-3.55,0-6.14-1.71-6.69-4.74H78c.45,2.36,2.52,3.57,5.28,3.57,3.26,0,5-1.45,5-3.57S87.26,32.54,82.62,31.51Z" transform="translate(-21.9 -17.7)"/><path class="cls-2" d="M102.87,36.7a5,5,0,0,1-5.14,3.74c-3.36,0-5.88-2.31-5.88-6.55s2.45-6.55,5.64-6.55,5.59,2.14,5.59,6.86H93.16c.12,3.52,2.12,5.14,4.59,5.14a3.69,3.69,0,0,0,3.76-2.64Zm-9.69-3.57h8.57c-.17-3.17-2-4.74-4.26-4.74S93.42,30,93.18,33.13Z" transform="translate(-21.9 -17.7)"/><path class="cls-2" d="M115.82,36.44a4.89,4.89,0,0,1-5.12,4c-3.07,0-5.5-2.24-5.5-6.45,0-4.38,2.45-6.64,5.52-6.64,2.64,0,4.62,1.48,5,3.78h-1.4a3.39,3.39,0,0,0-3.57-2.71c-2.38,0-4.24,1.81-4.24,5.62,0,3.64,1.93,5.31,4.21,5.31a3.57,3.57,0,0,0,3.71-2.9Z" transform="translate(-21.9 -17.7)"/><path class="cls-2" d="M119.69,27.7v8.38a2.94,2.94,0,0,0,3.24,3.26,3.77,3.77,0,0,0,3.69-4V27.7h1.29V40.08h-1l-.17-2a4.56,4.56,0,0,1-4,2.33c-2.43,0-4.24-1.43-4.24-4.36V27.7Z" transform="translate(-21.9 -17.7)"/><path class="cls-2" d="M131.33,40.08V27.7h1l.19,2.38A3.59,3.59,0,0,1,136,27.35a4.44,4.44,0,0,1,1.29.19V28.8a4.91,4.91,0,0,0-1.36-.21c-1.81,0-3.36,1.76-3.36,4.74v6.76Z" transform="translate(-21.9 -17.7)"/><path class="cls-2" d="M139.09,24.7V22.94h1.55V24.7Zm.12,15.38V27.7h1.29V40.08Z" transform="translate(-21.9 -17.7)"/><path class="cls-2" d="M145.68,28.82v8.78c0,1.19.62,1.74,1.62,1.74a5.37,5.37,0,0,0,1.5-.19v1a5.49,5.49,0,0,1-1.57.24,2.58,2.58,0,0,1-2.83-2.86V28.82h-1.79V27.7h1.79l.07-3h1.21v3h2.88v1.12Z" transform="translate(-21.9 -17.7)"/><path class="cls-2" d="M156.11,40.18c-1.19,3.38-1.67,4.55-3.45,4.55a4.09,4.09,0,0,1-1.29-.24v-1a3.85,3.85,0,0,0,1.21.21c1.07,0,1.38-.88,2.29-3.57h-.5L149.44,27.7h1.38l4.43,11.38,3.93-11.38h1.29Z" transform="translate(-21.9 -17.7)"/></svg>