<svg xmlns="http://www.w3.org/2000/svg" viewBox="0 0 198 35.38"><defs><style>.cls-1{fill:#fff;}</style></defs><title>Asset 11</title><g id="Layer_2" data-name="Layer 2"><g id="logos"><g id="_20-22K" data-name="20-22K"><g id="engineering"><path class="cls-1" d="M10.33,8.15H5.89l2.18-6Zm.43,1.11L12.48,14A2.86,2.86,0,0,1,12.76,15c0,.72-.54.88-2,.88h-.67v.47h7.06v-.47a2,2,0,0,1-2.33-1.63L9.45,0H7.21l.23.57L2.77,13.33C2,15.57,1.67,15.85,0,15.88v.47H5.94v-.47H5.53c-1.41,0-2.08-.26-2.08-1A7.14,7.14,0,0,1,4,13.3l1.49-4Z"/><path class="cls-1" d="M21.44,15.43a1.2,1.2,0,0,1-1.3,1.21,1.21,1.21,0,1,1,1.3-1.21Z"/><path class="cls-1" d="M36.11,13.7c0,5.16-2.1,8.62-5.31,8.62-1.42,0-2.49-.58-2.49-1.37a1,1,0,0,1,.92-1c.87,0,1.57,1.21,2.65,1.21,1.23,0,2.1-.93,2.1-3.78V3.63C34,1.37,33.75.85,31.9.85h-.28V.39h6.5V.85c-1.65.06-2,.52-2,1.88Z"/><path class="cls-1" d="M49.82,8.15H45.38l2.18-6Zm.42,1.11L52,14A2.86,2.86,0,0,1,52.25,15c0,.72-.54.88-2,.88h-.66v.47h7.06v-.47a2,2,0,0,1-2.34-1.63L48.93,0H46.7l.23.57L42.26,13.33c-.82,2.24-1.1,2.52-2.77,2.55v.47h5.94v-.47H45c-1.42,0-2.08-.26-2.08-1a7.14,7.14,0,0,1,.51-1.63l1.49-4Z"/><path class="cls-1" d="M67.19,16.35,60.64,2.65h0L59.9,14.23c-.07,1.31.89,1.6,2.05,1.65v.47H56.63v-.47c1.87,0,2.1-.42,2.23-2.76l.62-10c.1-1.69.05-2.16-1.55-2.26V.39h3.86l6.19,13,6.17-13h3.77V.85c-1.25.1-1.74.13-1.69,1l.82,11.65c.15,2.37.36,2.37,2.24,2.37v.47H72.68v-.47c1.21,0,2.39-.34,2.29-1.7L74.23,2.65h-.06l-6.39,13.7Z"/><path class="cls-1" d="M91.22,10.56h-.47c-.2-1.82-.69-2-1.75-2H84.65V14c0,1.18.44,1.41,1.39,1.41h4c1.78,0,2.32-.69,3-2.88h.46L93,16.35H79.38v-.47h.72c2.06,0,2.42-.57,2.42-2.12V2.91c0-1.44-.34-2.06-2.06-2.06H79.9V.39H92.23L92.43,4H92c-.34-2.17-1-2.63-1.89-2.63H84.65V7.6h4.61c.93,0,1.37-.43,1.49-1.91h.47Z"/><path class="cls-1" d="M95.7,12.43A4.45,4.45,0,0,0,100,16.05c1.73,0,3.55-1,3.55-3,0-3.7-8.24-4.82-8.24-9.32,0-2.13,2-3.7,4.57-3.7,2.15,0,2.59.62,3.49.62a.49.49,0,0,0,.46-.23h.41l.43,3.24h-.43a4.53,4.53,0,0,0-4.13-3c-1.7,0-2.88,1-2.88,2.41,0,3.65,8.24,4.62,8.24,9.34,0,2.52-2.23,4.38-5.23,4.38a21.21,21.21,0,0,1-3.57-.68.57.57,0,0,0-.51.3h-.44l-.54-3.92Z"/><path class="cls-1" d="M128.3,4.57a6,6,0,0,0-5.85-4c-4.29,0-7,3.12-7,7.44,0,4.67,3.33,8.09,7.24,8.09A6.8,6.8,0,0,0,129,12.32h.49a17.58,17.58,0,0,1-1.65,3.76c-1.64-.23-2.77.65-5.8.65-5.22,0-9-3.41-9-8.17,0-5,3.86-8.56,9.23-8.56,3.24,0,4.63,1,5.42,1,.29,0,.41-.08.46-.16h.39l.23,3.72Z"/><path class="cls-1" d="M142.47,16.35H131v-.47h.85c1.18,0,1.62-.39,1.62-1.7V2.78c0-1.36-.41-1.93-2-1.93h-.36V.39h7.58V.85h-.95c-1.67,0-2.11.19-2.11,1.78V14.46c0,.7.28.95,1,.95h3.77c1.52,0,2-.59,3.6-2.8h.46Z"/><path class="cls-1" d="M155.06,8.15h-4.44l2.18-6Zm.43,1.11L157.21,14a2.86,2.86,0,0,1,.28,1.05c0,.72-.54.88-2,.88h-.67v.47h7.06v-.47a2,2,0,0,1-2.34-1.63L154.18,0h-2.24l.23.57L147.5,13.33c-.82,2.24-1.1,2.52-2.77,2.55v.47h5.94v-.47h-.41c-1.41,0-2.08-.26-2.08-1a7.14,7.14,0,0,1,.51-1.63l1.49-4Z"/><path class="cls-1" d="M166.64.65A10.7,10.7,0,0,1,167.92.6c4,0,5,1.86,5,4.26,0,3.1-1.88,4.32-4.73,4.32a12.18,12.18,0,0,1-1.59,0Zm0,9c.41,0,.74.05,1.31.05s1.1,0,1.74-.05a18.09,18.09,0,0,1,2.65,2.29l1.7,1.7c2.29,2.28,3.45,3.26,7.94,3.05v-.46a7.74,7.74,0,0,1-5.06-2.6l-2-2A28.66,28.66,0,0,0,172,8.89a4.4,4.4,0,0,0,3.42-4.18c0-2.64-2.14-4.58-6.89-4.58-1.68,0-2.19,0-3.24.07s-2.62.19-3.24.19V.85h.57c1.49,0,1.93.47,1.93,2.07V13.74c0,1.72-.54,2.14-2.06,2.14H162v.47h7.27v-.47h-.59c-1.44,0-2.05-.39-2.05-1.93Z"/><path class="cls-1" d="M190.48,16.35v-.47c1.18,0,1.67-.23,1.67-.72s-.57-1.32-3.16-3.92c-2.06-2.06-2.68-2.44-3.81-2.32v4.82c0,1.62.46,2.14,2.06,2.14h.33v.47h-7v-.47H181c1.64,0,2.05-.57,2.05-1.88V2.71c0-1.55-.69-1.86-2.05-1.86h-.47V.39h6.94V.85h-.23c-1.54,0-2.06.49-2.06,2V8.45a4.62,4.62,0,0,0,2.88-1.65c2-2,3.57-4.32,3.57-5.15,0-.59-.39-.8-1.77-.8V.39h6.76V.85c-1.83,0-2.63.29-3.4,1.06s-2.41,4-5.11,6.08c.46.07.93.46,2.06,1.57,2.69,2.71,4.13,4.72,5,5.57.44.44,1.1.75,2.85.75v.47Z"/><path class="cls-1" d="M.26,33.1A2.36,2.36,0,0,0,2.56,35,1.71,1.71,0,0,0,4.44,33.4c0-1.95-4.37-2.55-4.37-4.94a2.17,2.17,0,0,1,2.42-2,9.49,9.49,0,0,1,1.86.33.25.25,0,0,0,.24-.14h.22L5,28.43H4.81a2.4,2.4,0,0,0-2.19-1.61A1.36,1.36,0,0,0,1.09,28.1c0,1.93,4.37,2.45,4.37,4.95a2.51,2.51,0,0,1-2.78,2.33A11,11,0,0,1,.79,35a.32.32,0,0,0-.27.15H.29L0,33.1Z"/><path class="cls-1" d="M15.75,28.92a3.18,3.18,0,0,0-3.11-2.1A3.62,3.62,0,0,0,9,30.77a4.05,4.05,0,0,0,3.84,4.29,3.61,3.61,0,0,0,3.33-2h.25a8.72,8.72,0,0,1-.87,2c-.87-.12-1.47.35-3.08.35-2.76,0-4.75-1.81-4.75-4.34a4.55,4.55,0,0,1,4.89-4.54,10.36,10.36,0,0,1,2.87.53c.15,0,.22,0,.25-.08h.2l.13,2Z"/><path class="cls-1" d="M20.47,31.11V33.7c0,.89.18,1.21,1.09,1.21h0v.25H18.18v-.25h.08c.81,0,1.08-.22,1.08-1v-6c0-.7-.23-.91-1-1v-.26H21.6V27c-1,0-1.13.26-1.13,1.3v2.37h5.36V27.94c0-.72-.24-1-1.08-1h-.26v-.26H28V27c-.82,0-1,.27-1,1.11v5.66c0,1,.27,1.19,1.09,1.19h.13v.25H24.32v-.25h.43c.89,0,1.08-.32,1.08-1V31.11Z"/><path class="cls-1" d="M38.67,31.15c0,1.94-1.06,3.91-3.28,3.91a4.06,4.06,0,0,1-3.93-4.36c0-1.64,1-3.88,3.36-3.88C37.06,26.82,38.67,28.61,38.67,31.15ZM40,30.7c0-2.46-2.2-4.2-4.78-4.2-2.9,0-5,1.9-5,4.62,0,2.56,2.25,4.26,4.92,4.26A4.67,4.67,0,0,0,40,30.7Z"/><path class="cls-1" d="M50.77,31.15c0,1.94-1.06,3.91-3.29,3.91a4.06,4.06,0,0,1-3.92-4.36c0-1.64.95-3.88,3.35-3.88S50.77,28.61,50.77,31.15Zm1.28-.45c0-2.46-2.21-4.2-4.78-4.2-2.91,0-5,1.9-5,4.62,0,2.56,2.25,4.26,4.92,4.26A4.68,4.68,0,0,0,52.05,30.7Z"/><path class="cls-1" d="M60,35.16H53.92v-.25h.45c.63,0,.86-.21.86-.9V28c0-.72-.22-1-1.08-1H54v-.26h4V27h-.5c-.89,0-1.12.09-1.12.94v6.28c0,.36.15.5.54.5h2c.8,0,1.05-.31,1.9-1.5h.25Z"/><path class="cls-1" d="M75.94,31.15c0,1.94-1.06,3.91-3.28,3.91a4.06,4.06,0,0,1-3.93-4.36c0-1.64,1-3.88,3.36-3.88C74.34,26.82,75.94,28.61,75.94,31.15Zm1.28-.45c0-2.46-2.2-4.2-4.78-4.2-2.9,0-5,1.9-5,4.62,0,2.56,2.25,4.26,4.92,4.26A4.67,4.67,0,0,0,77.22,30.7Z"/><path class="cls-1" d="M85.29,31.91h-.23c0-.79-.32-1-1-1H81.55v3c0,.76.17,1,1.19,1v.25H79.43v-.25c.84-.06,1-.24,1-1.34V28.23c0-.87-.06-1.27-1-1.28v-.26h6.12V28.3h-.23c0-.79-.29-1.12-1.14-1.12h-2.6v3.2h2.71c.51,0,.75-.28.8-.87h.23Z"/><path class="cls-1" d="M97.93,32.1h-.26c-.1-1-.36-1.08-.92-1.08h-2.3v2.9c0,.63.23.75.74.75h2.09c1,0,1.24-.37,1.58-1.54h.24l-.22,2H91.66v-.25H92c1.09,0,1.28-.3,1.28-1.12V28c0-.77-.18-1.09-1.09-1.09h-.3v-.26h6.53l.11,1.89h-.25c-.17-1.15-.51-1.4-1-1.4H94.45v3.35h2.44c.48,0,.72-.23.78-1h.26Z"/><path class="cls-1" d="M109.84,35.27l-7-7.4v5.85c0,1,.22,1.19,1.37,1.19v.25H101v-.25h.06c.84,0,1.11-.29,1.11-.92v-6.7A2,2,0,0,0,101,27v-.26h2.14l6.41,6.7V28c0-.84-.25-1-1.34-1v-.26h3.19V27c-1,0-1.24.17-1.24.71v7.61Z"/><path class="cls-1" d="M121.34,34.53a9.2,9.2,0,0,1-3.64.85,4.2,4.2,0,0,1-4.38-4.28,4.53,4.53,0,0,1,4.76-4.6,12,12,0,0,1,2.71.44.55.55,0,0,0,.32-.08h.19v2.2H121a2.59,2.59,0,0,0-2.8-2.24c-2.39,0-3.62,2-3.62,4.2a3.7,3.7,0,0,0,3.53,4,4.51,4.51,0,0,0,2.08-.53V32.81c0-.78-.27-1-1.09-1h-.5v-.24h3.68v.24c-.69,0-1,.27-1,.86Z"/><path class="cls-1" d="M127.45,35.16h-3.31v-.25c.84,0,1-.26,1-1.18v-5.8c0-.74-.26-.94-1-1v-.26h3.31V27c-.86,0-1.16.19-1.16,1.1v5.78c0,.8.22,1.08,1.16,1.08Z"/><path class="cls-1" d="M138.18,35.27l-7-7.4v5.85c0,1,.21,1.19,1.37,1.19v.25h-3.16v-.25h.05c.85,0,1.12-.29,1.12-.92v-6.7a2,2,0,0,0-1.14-.34v-.26h2.14l6.4,6.7V28c0-.84-.24-1-1.33-1v-.26h3.19V27c-1,0-1.24.17-1.24.71v7.61Z"/><path class="cls-1" d="M147.22,32.1H147c-.11-1-.37-1.08-.92-1.08h-2.3v2.9c0,.63.23.75.73.75h2.1c1,0,1.23-.37,1.57-1.54h.25l-.22,2h-7.23v-.25h.39c1.09,0,1.28-.3,1.28-1.12V28c0-.77-.18-1.09-1.09-1.09h-.3v-.26h6.53l.11,1.89h-.25c-.18-1.15-.52-1.4-1-1.4h-2.87v3.35h2.43c.49,0,.72-.23.79-1h.26Z"/><path class="cls-1" d="M156.19,32.1h-.25c-.11-1-.37-1.08-.93-1.08h-2.3v2.9c0,.63.23.75.74.75h2.09c1,0,1.24-.37,1.58-1.54h.24l-.21,2h-7.23v-.25h.38c1.09,0,1.29-.3,1.29-1.12V28c0-.77-.18-1.09-1.1-1.09h-.3v-.26h6.53l.11,1.89h-.24c-.18-1.15-.52-1.4-1-1.4h-2.87v3.35h2.44c.49,0,.72-.23.79-1h.25Z"/><path class="cls-1" d="M161.57,26.85a4.93,4.93,0,0,1,.67,0c2.1,0,2.67,1,2.67,2.25,0,1.63-1,2.27-2.5,2.27a7.85,7.85,0,0,1-.84,0Zm0,4.72c.21,0,.39,0,.69,0s.58,0,.92,0a10.14,10.14,0,0,1,1.41,1.22l.9.9c1.21,1.22,1.82,1.73,4.2,1.62v-.23A4.1,4.1,0,0,1,167,33.69l-1.08-1.08a15.14,15.14,0,0,0-1.55-1.42A2.31,2.31,0,0,0,166.19,29c0-1.39-1.12-2.42-3.65-2.42-.88,0-1.15,0-1.71,0s-1.39.09-1.72.09V27h.3c.79,0,1,.24,1,1.08v5.74c0,.92-.28,1.14-1.09,1.14h-.23v.25H163v-.25h-.32c-.76,0-1.08-.21-1.08-1Z"/><path class="cls-1" d="M174.6,35.16h-3.32v-.25c.85,0,1-.26,1-1.18v-5.8c0-.74-.26-.94-1-1v-.26h3.32V27c-.86,0-1.16.19-1.16,1.1v5.78c0,.8.22,1.08,1.16,1.08Z"/><path class="cls-1" d="M185.33,35.27l-7.05-7.4v5.85c0,1,.22,1.19,1.38,1.19v.25H176.5v-.25h.05c.84,0,1.12-.29,1.12-.92v-6.7a2,2,0,0,0-1.15-.34v-.26h2.14l6.41,6.7V28c0-.84-.25-1-1.33-1v-.26h3.18V27c-1,0-1.23.17-1.23.71v7.61Z"/><path class="cls-1" d="M196.84,34.53a9.24,9.24,0,0,1-3.65.85,4.19,4.19,0,0,1-4.37-4.28,4.52,4.52,0,0,1,4.75-4.6,12.25,12.25,0,0,1,2.72.44.51.51,0,0,0,.31-.08h.2v2.2h-.28a2.6,2.6,0,0,0-2.8-2.24c-2.4,0-3.63,2-3.63,4.2a3.7,3.7,0,0,0,3.54,4,4.54,4.54,0,0,0,2.08-.53V32.81c0-.78-.27-1-1.09-1h-.51v-.24h3.68v.24c-.68,0-.95.27-.95.86Z"/></g></g></g></g></svg>