<?xml version="1.0" encoding="utf-8"?>
<!-- Generator: Adobe Illustrator 23.0.6, SVG Export Plug-In . SVG Version: 6.00 Build 0)  -->
<svg version="1.1" id="Layer_1" xmlns="http://www.w3.org/2000/svg" xmlns:xlink="http://www.w3.org/1999/xlink" x="0px" y="0px"
	 viewBox="0 0 320.33 67.33" style="enable-background:new 0 0 320.33 67.33;" xml:space="preserve">
<style type="text/css">
	.st0{fill:#FFFFFF;}
	.st1{fill:url(#SVGID_1_);}
	.st2{fill:#D1D3D4;}
	.st3{fill:#FFD200;}
	.st4{fill:#E31933;}
</style>
<g>
	<g>
		<g>
			<path class="st0" d="M71.18,21.94c0-1.04-0.27-1.3-1.22-1.3h-0.32v-0.3c0.59-0.03,1.38-0.06,2.26-0.1
				c0.88-0.03,1.86-0.05,2.69-0.05c4.23,0,6.1,2.15,6.1,4.79c0,2.42-1.87,5.31-5.92,5.31h-5.12v-0.3h0.27
				c0.87,0,1.26-0.24,1.26-1.17V21.94z M72.51,29.11c0,0.66,0.05,0.88,1.31,0.88c2.14,0,3.04-0.3,4.03-1.3
				c0.59-0.58,1.33-1.81,1.33-3.46c0-1.18-0.34-2.5-1.28-3.44c-0.74-0.74-1.87-1.3-4.11-1.3c-0.66,0-1.09,0.05-1.28,0.06V29.11z"/>
			<path class="st0" d="M90.29,26.69h-0.3c-0.13-1.14-0.43-1.26-1.09-1.26h-2.71v3.41c0,0.74,0.27,0.88,0.86,0.88h2.46
				c1.12,0,1.46-0.43,1.86-1.81h0.29l-0.26,2.38h-8.5v-0.3h0.45c1.28,0,1.5-0.35,1.5-1.31v-6.75c0-0.9-0.21-1.28-1.28-1.28h-0.35
				v-0.3h7.68l0.13,2.23h-0.29c-0.21-1.36-0.61-1.65-1.18-1.65h-3.38v3.94h2.87c0.58,0,0.85-0.27,0.93-1.2h0.3L90.29,26.69
				L90.29,26.69z"/>
			<path class="st0" d="M97.25,28.76c0,0.9,0.27,1.23,1.28,1.23h0.53v0.3h-4.43v-0.3h0.22c0.83,0,1.07-0.18,1.07-0.93v-7.57
				c0-0.59-0.19-0.85-0.75-0.85h-0.8v-0.3c0.45-0.02,1.23-0.06,2.02-0.1c0.78-0.03,1.55-0.05,1.98-0.05c3.35,0,4.11,1.6,4.11,2.83
				c0,1.87-1.5,3.06-3.87,3.06c-0.48,0-0.88-0.03-1.36-0.13C97.25,25.95,97.25,28.76,97.25,28.76z M97.25,25.65
				c0.21,0.05,0.56,0.13,0.86,0.13c1.75,0,2.87-1.18,2.87-2.8c0-1.25-0.5-2.48-2.62-2.48c-0.37,0-0.72,0-1.1,0.06v5.09H97.25z"/>
			<path class="st0" d="M107.05,25.88l-0.93,2.51c-0.11,0.3-0.32,0.78-0.32,1.01c0,0.43,0.42,0.59,1.3,0.59h0.26v0.3h-3.7v-0.3
				c1.04-0.02,1.22-0.19,1.73-1.58l2.91-7.96l-0.14-0.35h1.39l3.35,8.88c0.32,0.85,0.66,1.01,1.46,1.01v0.3h-4.4v-0.3h0.42
				c0.91,0,1.25-0.1,1.25-0.54c0-0.26-0.11-0.5-0.18-0.66l-1.07-2.91H107.05z M108.69,21.44l-1.36,3.73h2.77L108.69,21.44z"/>
			<path class="st0" d="M126.9,30.5c-1.18,0-2.21-0.21-3.63-2.4c-0.21-0.32-1.1-1.74-1.33-2h-2.13v2.15c0,1.39,0.11,1.76,1.71,1.76
				v0.29h-4.58v-0.29c1.54,0,1.54-0.42,1.54-1.79v-6.43c0-0.8-0.24-1.1-1.55-1.1V20.4c1.34-0.11,2.71-0.18,4.07-0.18
				c1.26,0,1.99,0.14,2.67,0.48c0.66,0.32,1.6,1.04,1.6,2.37c0,0.43-0.14,1.92-2.1,2.59l1.95,2.96c0.74,1.12,1.25,1.52,1.78,1.6
				C126.9,30.22,126.9,30.5,126.9,30.5z M119.81,25.81h0.64c0.7,0,1.22-0.02,1.78-0.18c1.1-0.32,1.52-1.55,1.52-2.51
				c0-0.64-0.21-1.76-1.28-2.27c-0.77-0.37-1.78-0.34-2.66-0.32C119.81,20.53,119.81,25.81,119.81,25.81z"/>
			<path class="st0" d="M134.33,28.82c0,0.86,0.29,1.17,1.26,1.17h0.59v0.3h-5.04v-0.3h0.59c0.98,0,1.26-0.3,1.26-1.17v-7.91h-2.79
				c-0.64,0-0.93,0.37-1.17,1.78h-0.29L129,20.1h0.3c0.02,0.1,0.08,0.16,0.18,0.19c0.1,0.03,0.21,0.05,0.32,0.05h7.7
				c0.22,0,0.46-0.05,0.5-0.24h0.3l0.26,2.59h-0.29c-0.24-1.41-0.53-1.78-1.17-1.78h-2.79v7.91H134.33z"/>
			<path class="st0" d="M147.44,30.29l-4.08-8.53h-0.03l-0.43,7.2c-0.05,0.82,0.56,0.99,1.28,1.02v0.3h-3.33v-0.3
				c1.17,0,1.31-0.26,1.39-1.71l0.38-6.23c0.06-1.06,0.03-1.34-0.96-1.41v-0.29h2.42l3.86,8.07l3.84-8.07h2.35v0.29
				c-0.78,0.06-1.09,0.08-1.06,0.62l0.51,7.25c0.1,1.47,0.22,1.47,1.39,1.47v0.3h-4.11v-0.3c0.75,0,1.49-0.21,1.42-1.06l-0.46-7.17
				h-0.03l-3.99,8.53h-0.36V30.29z"/>
			<path class="st0" d="M164.98,26.69h-0.3c-0.13-1.14-0.43-1.26-1.09-1.26h-2.71v3.41c0,0.74,0.27,0.88,0.86,0.88h2.47
				c1.12,0,1.46-0.43,1.86-1.81h0.29l-0.26,2.38h-8.5v-0.3h0.45c1.28,0,1.5-0.35,1.5-1.31v-6.75c0-0.9-0.21-1.28-1.28-1.28h-0.35
				v-0.3h7.68l0.13,2.23h-0.29c-0.21-1.36-0.61-1.65-1.18-1.65h-3.38v3.94h2.87c0.58,0,0.85-0.27,0.93-1.2h0.3L164.98,26.69
				L164.98,26.69z"/>
			<path class="st0" d="M179.65,30.41l-8.29-8.68v6.87c0,1.15,0.26,1.39,1.62,1.39v0.3h-3.71v-0.3h0.06c0.99,0,1.31-0.34,1.31-1.07
				v-7.88c-0.37-0.26-0.78-0.38-1.34-0.4v-0.3h2.51l7.54,7.86v-6.37c0-0.98-0.29-1.15-1.57-1.18v-0.3h3.75v0.3
				c-1.2,0-1.46,0.21-1.46,0.83v8.93C180.07,30.41,179.65,30.41,179.65,30.41z"/>
			<path class="st0" d="M189.82,28.82c0,0.86,0.29,1.17,1.26,1.17h0.59v0.3h-5.04v-0.3h0.59c0.98,0,1.26-0.3,1.26-1.17v-7.91h-2.79
				c-0.64,0-0.93,0.37-1.17,1.78h-0.29l0.26-2.59h0.3c0.02,0.1,0.08,0.16,0.18,0.19c0.1,0.03,0.21,0.05,0.32,0.05h7.7
				c0.22,0,0.46-0.05,0.5-0.24h0.3l0.26,2.59h-0.29c-0.24-1.41-0.53-1.78-1.17-1.78h-2.79v7.91H189.82z"/>
			<path class="st0" d="M208.85,30.55c-3.14,0-5.78-2.02-5.78-5.01c0-3.19,2.45-5.44,5.86-5.44c3.03,0,5.62,2.06,5.62,4.95
				C214.54,28.28,211.95,30.55,208.85,30.55z M208.51,20.5c-2.82,0-3.94,2.62-3.94,4.55c0,2.99,2.03,5.11,4.61,5.11
				c2.61,0,3.86-2.31,3.86-4.58C213.04,22.6,211.15,20.5,208.51,20.5z"/>
			<path class="st0" d="M224.33,26.47h-0.27c-0.03-0.93-0.37-1.22-1.14-1.22h-2.96v3.51c0,0.9,0.19,1.23,1.39,1.23v0.3h-3.89v-0.3
				c0.99-0.06,1.17-0.27,1.17-1.57v-6.27c0-1.02-0.08-1.49-1.2-1.5v-0.3h7.17v1.89h-0.27c-0.02-0.93-0.34-1.31-1.33-1.31h-3.04v3.76
				h3.17c0.59,0,0.88-0.34,0.93-1.02h0.27L224.33,26.47L224.33,26.47z"/>
			<path class="st0" d="M84.89,40.3c-0.79-2.23-2.86-3.7-5.47-3.7c-4.01,0-6.5,2.9-6.5,6.94c0,4.34,3.12,7.54,6.77,7.54
				c1.9,0,4.22-0.65,5.86-3.55h0.46c-0.31,1.08-0.96,2.57-1.54,3.5c-1.54-0.22-2.59,0.65-5.42,0.65c-4.87,0-8.38-3.22-8.38-7.66
				c0-4.66,3.6-8.02,8.62-8.02c3.02,0,4.32,0.96,5.06,0.96c0.26,0,0.38-0.07,0.43-0.14h0.36l0.22,3.48H84.89z"/>
			<path class="st0" d="M96.84,51.68c-4.7,0-8.66-3.02-8.66-7.51c0-4.78,3.67-8.16,8.78-8.16c4.54,0,8.42,3.1,8.42,7.42
				C105.38,48.27,101.5,51.68,96.84,51.68z M96.34,36.61c-4.22,0-5.9,3.94-5.9,6.82c0,4.49,3.05,7.66,6.91,7.66
				c3.91,0,5.79-3.46,5.79-6.87C103.13,39.75,100.3,36.61,96.34,36.61z"/>
			<path class="st0" d="M116.25,51.29l-6.12-12.79h-0.05l-0.65,10.8c-0.07,1.22,0.84,1.49,1.92,1.54v0.46h-4.99v-0.46
				c1.75,0,1.97-0.38,2.09-2.57l0.58-9.34c0.1-1.58,0.05-2.02-1.44-2.11v-0.43h3.62l5.79,12.1l5.76-12.1h3.53v0.43
				c-1.18,0.1-1.63,0.12-1.58,0.94l0.77,10.87c0.14,2.21,0.34,2.21,2.09,2.21v0.46h-6.17v-0.46c1.13,0,2.23-0.31,2.14-1.58
				l-0.7-10.75h-0.05l-5.98,12.79L116.25,51.29L116.25,51.29z"/>
			<path class="st0" d="M132.86,48.99c0,1.34,0.41,1.85,1.92,1.85h0.79v0.46h-6.65v-0.46h0.34c1.25,0,1.61-0.26,1.61-1.39V38.09
				c0-0.89-0.29-1.27-1.13-1.27h-1.2v-0.46c0.67-0.02,1.85-0.1,3.02-0.14c1.18-0.05,2.33-0.07,2.98-0.07c5.02,0,6.17,2.4,6.17,4.25
				c0,2.81-2.26,4.58-5.81,4.58c-0.72,0-1.32-0.05-2.04-0.19V48.99z M132.86,44.33c0.31,0.07,0.84,0.19,1.3,0.19
				c2.62,0,4.3-1.78,4.3-4.2c0-1.87-0.74-3.72-3.94-3.72c-0.55,0-1.08,0-1.66,0.1V44.33z"/>
			<path class="st0" d="M160.29,36.36v0.46c-1.61,0.02-2.18,0.67-2.18,2.21v6.48c0,2.98-1.9,6.17-7.1,6.17
				c-4.58,0-6.94-2.62-6.94-6.05v-7.01c0-1.54-0.43-1.78-2.06-1.8v-0.46h6.17v0.46h-0.22c-1.32,0-1.9,0.36-1.9,1.75v6.67
				c0,3.24,1.9,5.18,5.47,5.18c2.71,0,5.47-1.13,5.47-5.21v-5.59c0-2.3-0.36-2.71-2.35-2.81v-0.46L160.29,36.36L160.29,36.36z"/>
			<path class="st0" d="M169.7,49.09c0,1.3,0.43,1.75,1.9,1.75h0.89v0.46h-7.56v-0.46h0.89c1.46,0,1.9-0.46,1.9-1.75V37.23h-4.18
				c-0.96,0-1.39,0.55-1.75,2.66h-0.43l0.38-3.89h0.46c0.02,0.14,0.12,0.24,0.26,0.29s0.31,0.07,0.48,0.07h11.54
				c0.34,0,0.7-0.07,0.74-0.36h0.46l0.38,3.89h-0.43c-0.36-2.11-0.79-2.66-1.75-2.66h-4.18L169.7,49.09L169.7,49.09z"/>
			<path class="st0" d="M187.97,45.89h-0.46c-0.19-1.7-0.65-1.9-1.63-1.9h-4.06v5.11c0,1.1,0.41,1.32,1.3,1.32h3.7
				c1.68,0,2.18-0.65,2.78-2.71h0.43l-0.38,3.58H176.9v-0.46h0.67c1.92,0,2.26-0.53,2.26-1.97V38.74c0-1.34-0.31-1.92-1.92-1.92
				h-0.53v-0.46h11.52l0.19,3.34h-0.43c-0.31-2.04-0.91-2.47-1.78-2.47h-5.06v5.9h4.3c0.86,0,1.27-0.41,1.39-1.8h0.46L187.97,45.89
				L187.97,45.89z"/>
			<path class="st0" d="M206.42,51.61c-1.78,0-3.31-0.31-5.45-3.6c-0.31-0.48-1.66-2.62-1.99-3h-3.19v3.22
				c0,2.09,0.17,2.64,2.57,2.64v0.43h-6.86v-0.43c2.3,0,2.3-0.62,2.3-2.69v-9.65c0-1.2-0.36-1.66-2.33-1.66v-0.43
				c2.02-0.17,4.06-0.26,6.1-0.26c1.9,0,2.98,0.22,4.01,0.72c0.98,0.48,2.4,1.56,2.4,3.55c0,0.65-0.22,2.88-3.14,3.89l2.93,4.44
				c1.1,1.68,1.87,2.28,2.66,2.4L206.42,51.61L206.42,51.61z M195.79,44.57h0.96c1.06,0,1.82-0.02,2.67-0.26
				c1.66-0.48,2.28-2.33,2.28-3.77c0-0.96-0.31-2.64-1.92-3.41c-1.15-0.55-2.66-0.5-3.98-0.48v7.92H195.79z"/>
			<path class="st0" d="M214.22,47.65c0.5,2.14,2.18,3.38,4.06,3.38c1.61,0,3.31-0.94,3.31-2.83c0-3.46-7.71-4.51-7.71-8.71
				c0-1.99,1.82-3.48,4.27-3.48c2.02,0,2.42,0.6,3.26,0.6c0.19,0,0.29-0.05,0.43-0.24h0.38l0.41,3.05h-0.41
				c-0.67-1.73-2.21-2.83-3.87-2.83c-1.58,0-2.69,0.91-2.69,2.26c0,3.41,7.7,4.32,7.7,8.74c0,2.35-2.09,4.1-4.9,4.1
				c-1.32,0-3-0.65-3.34-0.65c-0.22,0-0.38,0.12-0.48,0.26h-0.41l-0.5-3.65C213.73,47.65,214.22,47.65,214.22,47.65z"/>
			<path class="st0" d="M239.35,40.3c-0.79-2.23-2.86-3.7-5.47-3.7c-4.01,0-6.5,2.9-6.5,6.94c0,4.34,3.12,7.54,6.77,7.54
				c1.9,0,4.22-0.65,5.86-3.55h0.46c-0.31,1.08-0.96,2.57-1.54,3.5c-1.54-0.22-2.59,0.65-5.42,0.65c-4.87,0-8.38-3.22-8.38-7.66
				c0-4.66,3.6-8.02,8.62-8.02c3.02,0,4.32,0.96,5.06,0.96c0.26,0,0.38-0.07,0.43-0.14h0.36l0.22,3.48H239.35z"/>
			<path class="st0" d="M248.28,51.29h-5.83v-0.46c1.49-0.07,1.8-0.46,1.8-2.06V38.55c0-1.3-0.46-1.66-1.8-1.73v-0.46h5.83v0.46
				c-1.51,0-2.04,0.34-2.04,1.94v10.18c0,1.42,0.38,1.9,2.04,1.9V51.29z"/>
			<path class="st0" d="M260.49,45.89h-0.46c-0.19-1.7-0.65-1.9-1.63-1.9h-4.06v5.11c0,1.1,0.41,1.32,1.3,1.32h3.7
				c1.68,0,2.18-0.65,2.78-2.71h0.43l-0.38,3.58h-12.75v-0.46h0.67c1.92,0,2.26-0.53,2.26-1.97V38.74c0-1.34-0.31-1.92-1.92-1.92
				h-0.53v-0.46h11.52l0.19,3.34h-0.43c-0.31-2.04-0.91-2.47-1.78-2.47h-5.06v5.9h4.3c0.86,0,1.27-0.41,1.39-1.8h0.46V45.89z"/>
			<path class="st0" d="M279.91,51.46l-12.43-13.01v10.3c0,1.73,0.38,2.09,2.42,2.09v0.46h-5.57v-0.46h0.1
				c1.49,0,1.97-0.5,1.97-1.61V37.42c-0.55-0.38-1.18-0.58-2.02-0.6v-0.46h3.77l11.31,11.78V38.6c0-1.46-0.43-1.73-2.35-1.78v-0.46
				h5.62v0.46c-1.8,0-2.18,0.31-2.18,1.25v13.39H279.91z"/>
			<path class="st0" d="M297.41,40.3c-0.79-2.23-2.86-3.7-5.47-3.7c-4.01,0-6.5,2.9-6.5,6.94c0,4.34,3.12,7.54,6.77,7.54
				c1.9,0,4.22-0.65,5.86-3.55h0.46c-0.31,1.08-0.96,2.57-1.54,3.5c-1.54-0.22-2.59,0.65-5.42,0.65c-4.87,0-8.38-3.22-8.38-7.66
				c0-4.66,3.6-8.02,8.62-8.02c3.02,0,4.32,0.96,5.06,0.96c0.26,0,0.38-0.07,0.43-0.14h0.36l0.22,3.48H297.41z"/>
			<path class="st0" d="M310.56,45.89h-0.46c-0.19-1.7-0.65-1.9-1.63-1.9h-4.06v5.11c0,1.1,0.41,1.32,1.3,1.32h3.7
				c1.68,0,2.18-0.65,2.78-2.71h0.43l-0.38,3.58h-12.75v-0.46h0.67c1.92,0,2.26-0.53,2.26-1.97V38.74c0-1.34-0.31-1.92-1.92-1.92
				h-0.53v-0.46h11.52l0.19,3.34h-0.43c-0.31-2.04-0.91-2.47-1.78-2.47h-5.06v5.9h4.3c0.86,0,1.27-0.41,1.39-1.8h0.46V45.89z"/>
		</g>
	</g>
	<g>
		<g>
			<g>
				<g>
					
						<radialGradient id="SVGID_1_" cx="35.9307" cy="36.4503" r="18.95" gradientTransform="matrix(1 0 0 -1 -0.7207 70.0003)" gradientUnits="userSpaceOnUse">
						<stop  offset="0" style="stop-color:#FFFFFF"/>
						<stop  offset="0.5149" style="stop-color:#FCFCFC"/>
						<stop  offset="0.7003" style="stop-color:#F5F5F5"/>
						<stop  offset="0.8325" style="stop-color:#EBEBEC"/>
						<stop  offset="0.9387" style="stop-color:#DDDEDF"/>
						<stop  offset="1" style="stop-color:#D1D3D4"/>
					</radialGradient>
					<path class="st1" d="M35.21,52.5c-10.45,0-18.95-8.5-18.95-18.95s8.5-18.95,18.95-18.95s18.95,8.5,18.95,18.95
						S45.66,52.5,35.21,52.5z"/>
				</g>
				<g>
					<path class="st2" d="M35.21,52.5c-10.45,0-18.95-8.5-18.95-18.95s8.5-18.95,18.95-18.95s18.95,8.5,18.95,18.95
						S45.66,52.5,35.21,52.5z M35.21,14.86c-10.31,0-18.7,8.39-18.7,18.7s8.39,18.7,18.7,18.7s18.7-8.39,18.7-18.7
						C53.91,23.24,45.52,14.86,35.21,14.86z"/>
				</g>
				<path class="st3" d="M54.03,33.14c0,0.08-0.33,0.36-0.69,0.58c-0.01,0-0.02,0.01-0.03,0.01c-0.49,0.27-1.17,0.51-2.03,0.74
					c-0.88,0.23-1.96,0.44-3.15,0.62c-1.19,0.18-2.52,0.32-3.95,0.45l0,0c-1.83,0.16-2.99,0.23-4.44,0.31
					c-1.55,0.06-3.16,0.1-4.8,0.1c0,0.21,0,0.42,0,0.62c0,1.47,0.01,2.87,0.01,4.19c0.04,7.23,0.05,7.22,0.26,11.62
					c10.4,0,18.82-8.43,18.82-18.82C54.04,33.56,54.03,33.28,54.03,33.14z"/>
				<g>
					<path d="M34.93,36.57c0,1.47,0.01,2.87,0.01,4.19c3.02,2.86,3.02,2.86,4.27,4.12c0.33-2.39,0.52-5.24,0.51-8.41
						c0-0.21,0-0.42,0-0.62c-1.91,0.08-3.16,0.1-4.8,0.1C34.93,36.15,34.93,36.36,34.93,36.57z"/>
					<path d="M41.84,48.09c-0.66-1.07-1.26-1.77-2.62-3.2c-0.64,4.58-1.78,7.41-3.19,7.47c0.12-0.01,0.3-0.02,0.42-0.02
						c0.15-0.01,0.33-0.03,0.48-0.04C38.88,52.12,40.56,50.63,41.84,48.09z"/>
					<path d="M43.95,40.41c0-0.03-1.08,5.65-2.11,7.68c0.59,1.14,0.62,1.59,0.38,2.34c1.83-1.39,3.33-3.48,4.37-6.07
						C45.93,43,45.47,42.28,43.95,40.41z"/>
					<path d="M38.56,52.08c0.41-0.07,0.39-0.08,1.15-0.25l0.45-0.13c1.39-0.43,1.63-0.65,2.07-1.29c-1.24,0.93-2.57,1.51-4.05,1.74
						L38.56,52.08z"/>
					<path d="M46.93,47.47c2.71-3.07,4.37-7.42,4.37-12.37c0-0.21,0-0.42-0.01-0.62c-0.88,0.23-1.96,0.44-3.15,0.62
						c0.02,0.21,0.02,0.42,0.02,0.63c0.01,3.22-0.54,6.15-1.54,8.62C47.18,45.78,47.19,46.39,46.93,47.47z"/>
					<path d="M44.18,35.54c-1.83,0.16-2.99,0.23-4.44,0.31c2.58,2.68,3.13,3.31,4.22,4.56c0.15-1.33,0.23-2.74,0.23-4.22
						C44.18,35.98,44.18,35.75,44.18,35.54z"/>
				</g>
				<path d="M31.08,15.7c1.05-0.42,2.06-0.86,4.09-0.98l0,0C33.8,14.85,32.36,15.23,31.08,15.7"/>
				<g>
					<path class="st4" d="M47.82,35.09c-0.98-0.13-1.8-1.79-1.37-3.47c-1.38,0.95-2.93-1.01-2.7-2.82c0.12-0.96,0.75-1.81,1.85-1.42
						c-0.45-1.53-1-2.98-1.66-4.32c-0.97,0.12-2.04,0.23-3.17,0.31c1.01,1.52,0.02,2.93-1.38,2.71c-1.02-0.16-1.97-1.23-1.7-2.5
						c-0.82,0.57-2.52,0.35-2.68-1.46c-0.04,3.83-0.07,8.72-0.06,13.82c5,0.05,10.86-0.48,13.2-0.85c0,0,0,0.01,0,0
						C48.04,35.1,47.91,35.1,47.82,35.09z"/>
				</g>
				<g>
					<path class="st4" d="M23.05,38.87c1.4-0.54,3.16,1.88,2.54,3.5c-0.28,0.75-1.02,0.95-1.79,0.5c0.42,1.41,0.96,2.7,1.6,3.85
						c0.99,0.14,2.1,0.25,3.32,0.35c-0.98-1.2-0.19-2.19,1.11-2.12c1.12,0.06,2.6,0.99,2.28,2.26c1.01-0.45,2.71-0.08,2.91,1.23
						c-0.05-2.82-0.08-6.97-0.09-11.86c0-0.21,0-0.41,0-0.62c-1.59,0-3.2-0.06-4.8-0.12c-3.4-0.14-5.72-0.34-8.57-0.82
						c0,0.01,0-0.01,0,0C23.03,35.49,23.43,37.67,23.05,38.87z"/>
				</g>
				<path class="st4" d="M44.13,21.53L44.13,21.53L44.13,21.53C44.14,21.53,44.14,21.53,44.13,21.53L44.13,21.53h0.02
					c0.18-0.03,0.35-0.06,0.52-0.09c1.08-0.2,3.52-0.78,3.52-1.5c0,0,0.96,0.96,1.66,2.3c0.08,0.15,0.14,0.28,0.21,0.49
					c0.08,0.24,0.14,0.51,0.13,0.64c-0.03,0.41-0.29,0.41-0.56,0.29c-0.03-0.01-0.06-0.02-0.09-0.04c-0.97-0.44-1.28-1.32-1.47-1.69
					c-0.49,0.16-1.3,0.51-1.98,0.64c-0.08,0.02-0.22,0.05-0.3,0.06c0.8,1.31,1.56,2.88,2.1,4.39c0.95-0.97,2.43,0.83,2.5,2.58
					c0.04,1.03-0.42,1.94-1.36,1.61c0.75,1.39,0.51,3.43-0.91,3.87c-0.24-4.57-1.01-8.62-4.02-13.56l0,0l0,0"/>
				<path class="st4" d="M44.11,21.54L44.11,21.54L44.11,21.54L44.11,21.54L44.11,21.54c-2.4-3.66-4.29-4.99-6.72-5.95
					c-0.48-0.19-2.13-0.84-2.22-0.86l0.01,0.02l0,0c0.43,0.63,1.29,1,1.47,1.06c-0.05,0.23-0.01,0.68,0.78,1.26
					c0.12,0.09,0.24,0.16,0.36,0.22c1.22,0.64,1.49,0.14,1.55-0.06c0.01-0.01,0.01-0.01,0.02-0.02c0.37,0.28,1.1,0.86,1.9,1.77
					c0.46,0.56,0.9,1.04,1.23,1.53c-0.76,0.1-1.76,0.18-2.75,0.26c-0.06-1.2-0.92-1.8-1.47-2c-1.19-0.44-1.58,0.96-1.07,1.95
					c-0.94-0.51-2.06-0.06-2.22,1.44C38.72,22.1,41.28,21.94,44.11,21.54L44.11,21.54L44.11,21.54"/>
				<path class="st4" d="M44.35,18.13c-0.01-0.02-0.02-0.08-0.01-0.13c0.01-0.05,0.05-0.09,0.05-0.09s0.02-0.05,0.09-0.09
					c0.19-0.11,0.76-0.17,2.34,0.92c-3.26-2.57-6.78-3.62-9.76-3.92c-0.42-0.05-1.2-0.08-1.2-0.08c0.95,0.08,1.59,0.34,1.75,0.39
					c0.12,0.04,0.22,0.11,0.28,0.16c0.01,0,0.01,0,0.01,0c0.19,0.02,0.4,0.06,0.67,0.14c0.29,0.08,0.78,0.26,1.21,0.47
					c0.43,0.2,1.08,0.66,1.08,0.92c-0.1,0.06-0.13,0.08-0.42,0c1.11,0.79,2.71,2.29,3.65,3.39c0.65-0.12,1.62-0.26,2.06-0.41
					C46.11,19.82,44.67,18.74,44.35,18.13z"/>
				<path class="st4" d="M25.21,47.76c-1.61-0.29-2.54-0.54-3.16-0.85c-0.1-0.05-0.14-0.05-0.16-0.06c-0.01,0-0.92-0.93-1.71-1.96
					c-0.58-0.75-1.07-1.6-1.12-1.68c0.01,0.01,0.13,0,0.21,0.03c0.85,0.28,2.17,2.59,2.18,2.61c0.52,0.19,1.2,0.38,2.03,0.54
					c-0.77-1.16-1.42-2.47-1.92-3.9c-1.17,0.59-2.67-2.51-2.2-3.82c0.1-0.27,0.41-0.82,1.2-0.22c-0.6-1.38-0.44-3.46,1.01-3.45
					C21.6,39.57,22.23,43.52,25.21,47.76"/>
				<path class="st4" d="M35,48.69c-0.16,0.65-1.08,1.28-2.37,0.75c0.6,0.8,0.08,1.49-0.98,1.29c-0.83-0.15-1.81-0.82-1.89-1.48
					c-1.02-0.08-1.96-0.18-2.79-0.29c0.79,0.92,1.67,1.67,2.62,2.22c0.11-0.05,0.29-0.03,0.85,0.16c0.72,0.25,1.41,0.59,2.13,0.85
					l-0.15-0.02c-0.55-0.08-0.68-0.11-0.99-0.17c-1.39-0.27-3.8-1.06-6.23-4.24l0,0l0,0l0,0c2.92,0.45,5.77,0.65,9.82,0.67
					C35.02,48.51,35.02,48.62,35,48.69"/>
				<path class="st3" d="M35.17,14.72c-10.09,0-18.59,8.24-18.78,18.47l0.01,0.02c0.01,0.03,0.1,0.22,0.5,0.47l0,0l0,0
					c0.4,0.25,0.98,0.51,1.76,0.71c0.96,0.25,1.96,0.45,2.9,0.61h0.02c2.85,0.48,5.16,0.68,8.57,0.82c1.6,0.07,3.21,0.13,4.8,0.12
					c0-0.96-0.01-6.43,0.04-11.71c0.01-0.68,0.01-1.39,0.02-2.11C35.03,18.69,35.11,15.18,35.17,14.72L35.17,14.72z"/>
				<path d="M44.19,50.1c-1.06,0.6-1.27,0.61-2.7,1.2c-0.4,0.16-0.77,0.26-1.18,0.38c2.54-0.68,6.01-3.53,6.62-4.22
					c-0.31,0.68-0.54,1.14-1.29,1.74C45.43,49.37,44.54,49.91,44.19,50.1z"/>
				<path d="M18.65,34.39c-0.78-0.19-1.36-0.46-1.76-0.71c0.21-6.81,3.99-12.85,9.51-16.16c-1.3,1.16-1.88,1.85-2.54,3.41
					C20.77,24.48,18.79,29.25,18.65,34.39"/>
				<path d="M26.42,17.5c1.38-1,2.17-1.72,4.36-2.25c1.53-0.37,2.88-0.53,4.4-0.53l0,0C32,14.86,29.02,15.94,26.42,17.5"/>
				<path d="M25.41,35.52c-1.38-0.13-2.68-0.32-3.85-0.52c0.08-3.41,0.79-6.69,2.03-9.58c0.48,1.9,0.88,2.93,2.23,5.18
					C25.58,32.19,25.44,33.84,25.41,35.52"/>
				<path d="M35,22.13c-0.02,2.07-0.04,4.2-0.04,5.85c-0.01,1.63-0.02,2.81-0.02,3.04c-1.85-1.94-2.84-3.03-4.2-4.75
					c0.91-5.85,2.55-10.48,4.43-11.54l0,0l0,0C35.11,15.28,35.04,18.6,35,22.13z"/>
				<g>
					<path d="M28.39,21.9c-1.18,2.5-2.07,5.48-2.55,8.69c1.15,1.71,1.86,2.71,4.15,5.22c0.03-3.37,0.3-6.63,0.76-9.57
						C29.37,24.37,28.93,23.48,28.39,21.9z"/>
				</g>
				<path d="M53.31,33.73c0.01,0.21,0.01,0.42,0.01,0.62c0.01,6.66-3.24,12.19-8.32,15.26l-0.13,0.1c2.39-1.47,5.41-3.95,7.33-8.06
					c2.06-4.05,1.83-8.52,1.83-8.52C53.93,33.32,53.63,33.55,53.31,33.73z"/>
				<g>
					<path d="M31.08,15.7c-2.75,1.08-5.22,2.92-7.22,5.22c-0.55,1.71-0.55,2.67-0.27,4.5c1.22-2.85,2.93-5.33,4.94-7.17
						C29.16,17.17,29.55,16.52,31.08,15.7z"/>
				</g>
				<path d="M28.38,21.92c-0.34-1.54-0.37-2.32,0.15-3.66c1.96-1.81,4.23-3.15,6.64-3.53C32.53,15.43,30.14,18.2,28.38,21.92"/>
			</g>
			<g>
				<g>
					<path d="M14.27,21.26l-1.54-0.77c-0.35-0.17-0.41-0.36-0.24-0.71l0.02-0.05l-0.21-0.1l-0.72,1.44l0.21,0.1l0.03-0.05
						c0.16-0.28,0.25-0.37,0.4-0.37c0.1,0,0.24,0.05,0.48,0.16l1.33,0.66c0.98,0.49,0.85,1.27,0.57,1.85
						c-0.27,0.55-0.67,0.84-1.14,0.84c-0.21,0-0.44-0.06-0.67-0.18l-1.59-0.79c-0.28-0.14-0.32-0.27-0.17-0.59l0.05-0.1l-0.21-0.1
						l-0.78,1.57l0.21,0.1l0.02-0.05c0.13-0.26,0.21-0.34,0.33-0.34c0.07,0,0.15,0.03,0.27,0.09l1.67,0.83
						c0.25,0.12,0.51,0.19,0.76,0.19c0.65,0,1.2-0.41,1.57-1.15C15.56,22.47,15,21.62,14.27,21.26z"/>
					<path d="M16.24,15.18c-0.01-0.09,0.06-0.21,0.24-0.42l0.04-0.04l-0.18-0.15l-1.03,1.23l0.17,0.15l0.04-0.04
						c0.21-0.23,0.31-0.31,0.41-0.31c0.07,0,0.15,0.04,0.27,0.14l1.84,1.55l-4.22,0.27l-0.7,0.82l0.18,0.15l0.04-0.04
						c0.14-0.15,0.26-0.24,0.42-0.28l2.38,2.01c0.18,0.15,0.24,0.3-0.02,0.6l-0.05,0.06l0.18,0.15l1.03-1.22l-0.18-0.15l-0.04,0.04
						c-0.2,0.23-0.31,0.32-0.42,0.32l0,0c-0.09,0-0.19-0.05-0.35-0.19l-1.99-1.68l4.66-0.29l0.16-0.19l-2.77-2.33
						C16.28,15.28,16.25,15.23,16.24,15.18z"/>
					<path d="M21.15,15.62C21,15.74,20.89,15.8,20.8,15.8s-0.18-0.06-0.31-0.22l-1.73-2.08c-0.25-0.31-0.21-0.43,0.08-0.67
						l0.04-0.04l-0.15-0.18l-1.28,1.06l0.15,0.18l0.04-0.03c0.14-0.1,0.23-0.14,0.31-0.14c0.09,0,0.17,0.06,0.28,0.18l1.74,2.09
						c0.26,0.31,0.26,0.41-0.01,0.65l-0.04,0.04l0.15,0.18l1.28-1.06l-0.15-0.18L21.15,15.62z"/>
					<path d="M23.62,9.77l0.05-0.03l-0.12-0.2l-1.37,0.8l0.11,0.2l0.05-0.03c0.2-0.12,0.34-0.17,0.43-0.17
						c0.06,0,0.1,0.03,0.14,0.09c0.04,0.06,0.07,0.18,0.1,0.38l0.44,2.65l-2.33-1.8c-0.08-0.08-0.12-0.14-0.12-0.2
						c0-0.1,0.14-0.24,0.42-0.41l0.05-0.03l-0.12-0.2l-1.61,0.94l0.12,0.2l0.05-0.03c0.14-0.08,0.23-0.11,0.31-0.11
						c0.12,0,0.23,0.07,0.42,0.23l2.97,2.3l0.34-0.2l-0.59-3.64C23.29,10.11,23.36,9.92,23.62,9.77z"/>
					<path d="M28.82,10.82v0.04c0.03,0.58-0.05,0.74-0.43,0.87l-0.93,0.32c-0.07,0.02-0.12,0.04-0.17,0.04
						c-0.08,0-0.14-0.04-0.2-0.22l-0.43-1.23l0.97-0.33c0.08-0.03,0.14-0.04,0.18-0.04c0.1,0,0.19,0.06,0.33,0.35l0.02,0.04
						l0.21-0.07l-0.43-1.25L27.73,9.4l0.01,0.05c0.09,0.35,0.02,0.45-0.16,0.51l-1.03,0.35l-0.48-1.38l1.22-0.42
						c0.05-0.02,0.09-0.02,0.13-0.02c0.1,0,0.25,0.05,0.47,0.47L27.91,9l0.21-0.07l-0.38-0.92l-3,1.04l0.08,0.22l0.19-0.06
						c0.11-0.04,0.19-0.05,0.26-0.05c0.15,0,0.23,0.08,0.32,0.34l0.88,2.55c0.06,0.19,0.07,0.29,0.03,0.37
						c-0.05,0.09-0.17,0.17-0.4,0.25l-0.22,0.08l0.08,0.22l3.31-1.14l-0.24-1.04L28.82,10.82z"/>
					<path d="M34.97,10.77c-0.45,0.03-0.83-0.12-1.29-0.48l-0.56-0.44c-0.28-0.22-0.49-0.38-0.72-0.52
						c0.46-0.24,0.72-0.67,0.66-1.14c-0.09-0.74-0.8-1.1-1.9-0.97c-0.41,0.05-0.54,0.07-0.8,0.11c-0.08,0.01-0.17,0.03-0.26,0.04
						c-0.21,0.04-0.43,0.07-0.53,0.09l-0.05,0.01l0.02,0.23l0.2-0.02c0.05-0.01,0.09-0.01,0.13-0.01c0.2,0,0.3,0.06,0.34,0.41
						l0.32,2.67c0.05,0.4-0.06,0.48-0.4,0.53l-0.16,0.02L30,11.52l1.91-0.23l-0.03-0.23l-0.2,0.02c-0.06,0.01-0.11,0.01-0.15,0.01
						c-0.2,0-0.32-0.06-0.35-0.38L31.06,9.7c0.08,0,0.16-0.01,0.27-0.02c0.17-0.02,0.26-0.04,0.41-0.06l0,0
						c0.12,0.06,0.35,0.2,0.69,0.47l0.47,0.37c0.64,0.5,0.96,0.72,2.09,0.53l0.05-0.01l-0.02-0.22L34.97,10.77z M32.36,8.31
						c0.04,0.32-0.02,0.57-0.16,0.76c-0.16,0.21-0.44,0.33-0.83,0.38l-0.08,0.01c-0.09,0.01-0.16,0.02-0.25,0.02L30.79,7.5
						c0.09-0.02,0.16-0.03,0.26-0.04C31.86,7.36,32.28,7.63,32.36,8.31z"/>
					<path d="M37.35,8.74c-0.44-0.32-0.85-0.63-0.82-1.02c0.02-0.32,0.31-0.52,0.7-0.49c0.42,0.03,0.78,0.34,0.92,0.79l0.01,0.04
						l0.21,0.02l-0.05-0.93l-0.18-0.02l-0.02,0.02c-0.03,0.04-0.04,0.04-0.06,0.04h-0.01c-0.08-0.01-0.14-0.03-0.22-0.07
						c-0.13-0.06-0.3-0.13-0.63-0.16c-0.68-0.05-1.22,0.34-1.27,0.89c-0.05,0.61,0.49,1.02,1.02,1.41c0.45,0.34,0.88,0.65,0.85,1.06
						c-0.04,0.47-0.49,0.66-0.88,0.63c-0.5-0.04-0.87-0.41-0.96-0.93l-0.01-0.04l-0.23-0.02l0.06,1.09l0.18,0.01l0.02-0.02
						C36,11.02,36.03,11,36.07,11l0,0c0.02,0,0.1,0.03,0.18,0.06c0.18,0.07,0.45,0.16,0.69,0.18c0.05,0,0.1,0.01,0.14,0.01l0,0
						c0.72,0,1.25-0.43,1.3-1.04C38.44,9.54,37.86,9.12,37.35,8.74z"/>
					<path d="M40.05,7.64l0.05,0.01c0.33,0.09,0.4,0.19,0.33,0.49l-0.58,2.66c-0.08,0.35-0.15,0.41-0.33,0.41
						c-0.05,0-0.11-0.01-0.19-0.02l-0.05-0.01l-0.05,0.23l1.62,0.35l0.05-0.23l-0.05-0.01c-0.2-0.04-0.32-0.1-0.37-0.18
						c-0.05-0.07-0.05-0.18-0.01-0.36l0.58-2.65c0.07-0.32,0.17-0.38,0.34-0.38c0.06,0,0.14,0.01,0.24,0.03L41.67,8l0.05-0.23
						L40.1,7.42L40.05,7.64z"/>
					<path d="M46.63,9.43c0,0-0.01,0.02-0.04,0.02c-0.03,0-0.06-0.01-0.11-0.03L43.62,8.3c-0.04-0.01-0.07-0.03-0.1-0.06
						C43.5,8.22,43.5,8.21,43.5,8.2l0.01-0.05l-0.2-0.08l-0.53,1.02L43,9.18l0.02-0.04c0.21-0.36,0.35-0.49,0.5-0.49
						c0.04,0,0.08,0.01,0.13,0.03l0.98,0.39l-1.14,2.88c-0.09,0.23-0.19,0.28-0.29,0.28c-0.07,0-0.16-0.02-0.27-0.07l-0.27-0.1
						l-0.09,0.21l1.97,0.78l0.08-0.22l-0.27-0.11c-0.18-0.07-0.27-0.14-0.31-0.22c-0.03-0.08-0.02-0.18,0.04-0.33l1.14-2.88
						l0.98,0.39c0.19,0.08,0.26,0.21,0.14,0.77l-0.01,0.05l0.21,0.08l0.32-1.11l-0.2-0.08L46.63,9.43z"/>
					<path d="M50.44,12.03l0.05,0.03c0.17,0.11,0.25,0.2,0.25,0.27c0,0.06-0.08,0.13-0.22,0.2L49,13.27l0.03-1.79
						c0-0.27,0.06-0.27,0.09-0.27c0.07,0,0.17,0.05,0.33,0.16l0.05,0.03l0.13-0.19l-1.5-1.01L48,10.39l0.04,0.03
						c0.31,0.22,0.39,0.35,0.37,0.93l-0.04,2.09l-0.49,0.73c-0.18,0.27-0.32,0.28-0.6,0.08l-0.15-0.1l-0.12,0.19l1.55,1.04
						l0.13-0.19l-0.11-0.08c-0.15-0.1-0.23-0.19-0.25-0.28c-0.02-0.08,0.02-0.18,0.1-0.31l0.52-0.78l1.87-0.9
						c0.18-0.08,0.3-0.12,0.43-0.12c0.14,0,0.29,0.05,0.46,0.14l0.04,0.03l0.13-0.19l-1.29-0.86L50.44,12.03z"/>
					<path d="M56.6,17.52c-0.49-0.65-1.18-1.02-1.89-1.02c-0.47,0-0.93,0.16-1.33,0.47c-0.93,0.71-1.02,2.05-0.2,3.12
						c0.46,0.61,1.14,0.95,1.86,0.95l0,0c0.48,0,0.95-0.16,1.35-0.47C57.28,19.88,57.38,18.54,56.6,17.52z M56.62,18.79
						c-0.07,0.51-0.37,0.98-0.85,1.35c-0.38,0.29-0.81,0.45-1.21,0.45c-0.44,0-0.82-0.19-1.09-0.55c-0.62-0.81-0.4-1.93,0.49-2.62
						c0.35-0.27,0.8-0.43,1.2-0.43c0.45,0,0.84,0.2,1.12,0.56C56.56,17.92,56.68,18.35,56.62,18.79z"/>
					<path d="M58.73,20.91l-0.21,0.1l0.02,0.05c0.17,0.36,0.06,0.44-0.31,0.62l-2.26,1.08c-0.21,0.1-0.32,0.14-0.41,0.14
						c-0.1,0-0.17-0.06-0.29-0.27l-0.03-0.05l-0.21,0.1l0.71,1.5l0.21-0.1l-0.02-0.05c-0.1-0.2-0.13-0.33-0.1-0.42
						c0.03-0.08,0.1-0.14,0.27-0.22l1.21-0.58l0.49,1.02c0.11,0.23,0.11,0.38-0.22,0.55l-0.05,0.02l0.09,0.2l1.11-0.53l-0.09-0.19
						l-0.05,0.02c-0.23,0.09-0.37,0.05-0.46-0.13l-0.52-1.09l1.26-0.6l0.5,1.04c0.15,0.32,0.09,0.47-0.22,0.63l-0.05,0.02l0.09,0.2
						l0.78-0.37L58.73,20.91z"/>
				</g>
				<path d="M12.97,49.52l2.3-4.24l-0.01-0.01l-3.1,1.98c-0.35,0.22-0.24,0.53-0.04,0.84l-0.13,0.09l-1-1.38l0.13-0.09
					c0.35,0.48,0.5,0.46,1.12,0.06l2.69-1.7c0.46-0.29,0.56-0.39,0.29-0.82l0.12-0.09l0.72,1l-2.17,4.01l4.48-0.83l0.7,0.97
					l-0.12,0.09c-0.26-0.31-0.36-0.43-0.58-0.25l-2.84,2.38c-0.58,0.48-0.54,0.53-0.19,1.02l-0.13,0.09l-1.23-1.7l0.13-0.09
					c0.22,0.31,0.53,0.55,0.86,0.27l2.82-2.34l-0.01-0.01l-4.72,0.91L12.97,49.52z"/>
				<path d="M21.05,53.94l-1.14-0.84l1.69-1.12L21.05,53.94z M20.95,54.31l-0.44,1.52c-0.02,0.08-0.05,0.22-0.12,0.32
					c-0.14,0.19-0.3,0.12-0.68-0.15l-0.17-0.13L19.45,56l1.81,1.33l0.09-0.13c-0.33-0.24-0.42-0.41-0.29-0.85l1.31-4.66l-0.57-0.42
					l-0.05,0.19l-3.6,2.39c-0.63,0.42-0.76,0.44-1.19,0.13l-0.09,0.13l1.52,1.11l0.09-0.12l-0.11-0.08
					c-0.36-0.26-0.48-0.46-0.35-0.63c0.07-0.09,0.3-0.23,0.44-0.32l1.14-0.75L20.95,54.31z"/>
				<path d="M26.19,54.19c0.14,0.04,0.24,0.07,0.39,0.12c1.18,0.42,1.31,1.09,1.06,1.81c-0.33,0.92-1.02,1.08-1.87,0.78
					c-0.18-0.06-0.3-0.1-0.47-0.18L26.19,54.19z M25.24,56.86c0.12,0.05,0.22,0.09,0.39,0.15c0.21,0.07,0.33,0.11,0.53,0.17
					c0.14,0.19,0.33,0.51,0.55,0.97l0.33,0.69c0.44,0.93,0.68,1.34,2.05,1.76l0.05-0.14c-0.58-0.25-0.95-0.7-1.24-1.31l-0.39-0.82
					c-0.23-0.49-0.39-0.79-0.59-1.11c0.7,0.04,1.26-0.31,1.46-0.88c0.28-0.79-0.15-1.6-1.58-2.1c-0.5-0.18-0.66-0.22-0.98-0.32
					s-0.8-0.23-0.99-0.3l-0.05,0.15l0.17,0.06c0.45,0.16,0.53,0.34,0.36,0.82l-1.15,3.24c-0.18,0.51-0.39,0.58-0.84,0.42l-0.13-0.05
					l-0.05,0.15l2.18,0.77l0.05-0.15l-0.18-0.06c-0.43-0.15-0.57-0.33-0.41-0.8L25.24,56.86z"/>
				<path d="M34.5,56.69c0.3-0.43,0.16-0.58-0.36-0.62l0.01-0.15l1.84,0.16l-0.01,0.15c-0.56-0.01-0.81,0.19-1.07,0.56l-1.54,2.17
					l-0.1,1.22c-0.04,0.43,0.1,0.62,0.6,0.66l0.11,0.01L33.97,61l-2.24-0.19l0.01-0.15l0.15,0.01c0.51,0.04,0.67-0.13,0.7-0.53
					l0.1-1.15l-1.25-2.39c-0.34-0.66-0.52-0.79-1.05-0.85l0.01-0.15l2.16,0.19l-0.01,0.15c-0.63-0.06-0.69,0.1-0.47,0.49l1.13,2.12
					L34.5,56.69z"/>
				<path d="M41.28,60.35l-3.6,0.61l-0.02-0.15l0.26-0.04c0.37-0.06,0.49-0.21,0.42-0.62l-0.6-3.57c-0.07-0.43-0.23-0.58-0.74-0.5
					l-0.11,0.02l-0.03-0.15l2.37-0.4l0.03,0.15l-0.3,0.05c-0.52,0.09-0.65,0.17-0.57,0.67l0.63,3.71c0.04,0.21,0.14,0.28,0.37,0.24
					l1.18-0.2c0.47-0.08,0.59-0.29,0.98-1.08l0.15-0.03L41.28,60.35z"/>
				<path d="M45.18,56.28l-1.3,0.54l-0.09-2.02L45.18,56.28z M45.45,56.56l1.08,1.16c0.06,0.06,0.16,0.15,0.21,0.28
					c0.09,0.21-0.05,0.32-0.48,0.5l-0.2,0.08l0.06,0.14l2.07-0.86l-0.06-0.14c-0.38,0.16-0.57,0.15-0.88-0.19L43.93,54l-0.66,0.27
					l0.14,0.14l0.19,4.31c0.03,0.76-0.02,0.87-0.5,1.09l0.06,0.14l1.74-0.73l-0.06-0.14l-0.12,0.05c-0.41,0.17-0.64,0.18-0.73-0.02
					c-0.04-0.11-0.04-0.37-0.05-0.54l-0.06-1.37L45.45,56.56z"/>
				<path d="M54.28,53.39l-6.08-0.72l2.23,2.7c0.37,0.45,0.55,0.46,1.09,0.02l0.1,0.12l-1.46,1.21l-0.1-0.12l0.02-0.02
					c0.39-0.32,0.41-0.56,0.17-0.85l-2.56-3.09c-0.23,0.02-0.43,0.1-0.66,0.28l-0.1-0.12l0.99-0.82l5.52,0.64l-2.07-2.51
					c-0.32-0.38-0.49-0.36-1,0.05l-0.1-0.12l1.47-1.22l0.1,0.12c-0.47,0.39-0.5,0.56-0.3,0.8l2.9,3.51L54.28,53.39z"/>
				<path d="M53.08,47.11c0.05-0.09,0.15-0.28,0.33-0.57c0.62-0.96,1.17-1.29,1.69-1.4c0.67-0.14,1.32,0.07,1.83,0.4
					c0.71,0.45,1.03,1.11,1.11,1.52c0.15,0.7,0.03,1.17-0.56,2.09c-0.35,0.54-0.46,0.5-0.74,0.32L53.08,47.11z M56.25,49.97
					c0.4,0.26,0.39,0.49,0.15,0.86l-0.08,0.12l0.13,0.08l1.42-2.19c1.12-1.73,0.4-3.34-0.64-4.01c-1.13-0.73-2.57-0.52-3.74,1.29
					c-0.23,0.36-0.49,0.78-0.72,1.17s-0.43,0.73-0.58,0.99l0.13,0.08l0.09-0.14c0.26-0.4,0.45-0.45,0.89-0.16L56.25,49.97z"/>
				<path d="M9.01,32.17v3.5c0,0.18,0.04,0.23,0.22,0.23h0.34v0.11H8.06V35.9h0.33c0.19,0,0.23-0.06,0.23-0.24v-3.01
					c-0.19,0.17-0.53,0.39-0.75,0.5l-0.05-0.08c0.35-0.24,0.85-0.69,0.99-0.89h0.2V32.17z"/>
				<path d="M12.5,35.15c0,0.47-0.35,0.83-0.8,0.83c-0.46,0-0.8-0.38-0.8-0.89c0-0.39,0.21-0.69,0.62-0.92
					C12.22,34.5,12.5,34.75,12.5,35.15z M12.77,33.04c0-0.48-0.48-0.87-1.09-0.87c-0.6,0-1.09,0.45-1.09,0.98
					c0,0.41,0.26,0.72,0.82,0.97c-0.59,0.24-0.88,0.57-0.88,0.99c0,0.55,0.52,0.99,1.17,0.99c0.67,0,1.19-0.48,1.19-1.11
					c0-0.46-0.27-0.78-0.91-1.07C12.51,33.71,12.77,33.43,12.77,33.04z M12.4,33.03c0,0.34-0.17,0.62-0.5,0.83
					c-0.78-0.33-0.96-0.57-0.96-0.9c0-0.38,0.32-0.68,0.74-0.68C12.1,32.28,12.4,32.6,12.4,33.03z"/>
				<path d="M57.57,32.6H59c0.11,0,0.14-0.02,0.18-0.08h0.11l-0.07,0.47H57.7l-0.05,1.08c0.19-0.1,0.4-0.15,0.65-0.15
					c0.68,0,1.24,0.56,1.24,1.24c0,0.73-0.61,1.29-1.41,1.29c-0.48,0-0.88-0.17-0.88-0.38c0-0.1,0.09-0.19,0.2-0.19
					c0.33,0,0.44,0.42,0.82,0.42c0.45,0,0.83-0.47,0.83-1.02c0-0.56-0.38-0.97-0.9-0.97c-0.22,0-0.46,0.09-0.64,0.24l-0.06-0.04
					L57.57,32.6z"/>
				<path d="M62.16,35.29c0,0.68-0.29,1.06-0.71,1.06c-0.38,0-0.82-0.33-0.82-1.35c0-0.2,0.01-0.29,0.03-0.37
					c0.37-0.3,0.64-0.36,0.8-0.36C61.86,34.27,62.16,34.64,62.16,35.29z M62.2,32.53c-1.26,0.36-2.02,1.24-2.02,2.36
					c0,0.93,0.52,1.57,1.26,1.57c0.64,0,1.17-0.55,1.17-1.22c0-0.62-0.48-1.11-1.07-1.11c-0.3,0-0.53,0.1-0.86,0.35
					c0.13-0.88,0.63-1.47,1.57-1.86L62.2,32.53z"/>
			</g>
		</g>
	</g>
</g>
</svg>
