<svg xmlns="http://www.w3.org/2000/svg" viewBox="0 0 180 43.74"><defs><style>.cls-1{fill:#fff;}</style></defs><title>compsci</title><g id="Layer_2" data-name="Layer 2"><g id="logos"><g id="_20-22K" data-name="20-22K"><g id="cs"><path class="cls-1" d="M52.78,13a2,2,0,0,0-1.65.77A3.53,3.53,0,0,0,50.55,16c0,1.93.74,2.89,2.23,2.89a7.35,7.35,0,0,0,2.27-.46v1.53a6.4,6.4,0,0,1-2.45.45,3.84,3.84,0,0,1-3-1.14,4.79,4.79,0,0,1-1-3.28,5.15,5.15,0,0,1,.51-2.35A3.57,3.57,0,0,1,50.56,12a4.4,4.4,0,0,1,2.22-.54,6.06,6.06,0,0,1,2.6.61l-.6,1.48a10.58,10.58,0,0,0-1-.4A3.22,3.22,0,0,0,52.78,13Z"/><path class="cls-1" d="M65.64,15.92a4.54,4.54,0,0,1-1.09,3.28,4.83,4.83,0,0,1-6.28,0,4.57,4.57,0,0,1-1.1-3.29,4.56,4.56,0,0,1,1.1-3.29,4.2,4.2,0,0,1,3.15-1.13,4.14,4.14,0,0,1,3.14,1.14A4.61,4.61,0,0,1,65.64,15.92Zm-6.49,0a3.47,3.47,0,0,0,.56,2.17,2,2,0,0,0,1.7.74c1.5,0,2.26-1,2.26-2.91S62.92,13,61.42,13a2,2,0,0,0-1.7.73A3.52,3.52,0,0,0,59.15,15.92Z"/><path class="cls-1" d="M71.88,20.24l-2.15-6.76h0c.08,1.37.12,2.29.12,2.75v4H68.11V11.62h2.57l2.1,6.59h0l2.23-6.59h2.57v8.62H75.86V16.16c0-.19,0-.41,0-.67s0-.91.08-2h0l-2.3,6.75Z"/><path class="cls-1" d="M86.63,14.31a2.58,2.58,0,0,1-.89,2.12,3.94,3.94,0,0,1-2.56.74h-.81v3.07H80.49V11.62h2.84a3.86,3.86,0,0,1,2.46.68A2.42,2.42,0,0,1,86.63,14.31Zm-4.26,1.36H83a2.06,2.06,0,0,0,1.3-.33,1.13,1.13,0,0,0,.43-1,1.16,1.16,0,0,0-.36-.94,1.73,1.73,0,0,0-1.14-.31h-.86v2.55Z"/><path class="cls-1" d="M96.18,11.62V17.2a3.18,3.18,0,0,1-.44,1.67A2.82,2.82,0,0,1,94.46,20a4.59,4.59,0,0,1-2,.38,3.83,3.83,0,0,1-2.66-.85,3,3,0,0,1-1-2.33V11.62h1.88v5.27a2.21,2.21,0,0,0,.41,1.47,1.81,1.81,0,0,0,1.37.46,1.7,1.7,0,0,0,1.34-.47,2.15,2.15,0,0,0,.42-1.47V11.62Z"/><path class="cls-1" d="M102.42,20.24h-1.89v-7.1H98.11V11.62h6.72v1.52h-2.41Z"/><path class="cls-1" d="M112,20.24h-5.12V11.62H112v1.5h-3.24V15h3V16.5h-3v2.23H112Z"/><path class="cls-1" d="M116.32,16.93v3.31h-1.89V11.62H117a4.61,4.61,0,0,1,2.69.64,2.26,2.26,0,0,1,.87,1.94,2.26,2.26,0,0,1-.44,1.36,2.77,2.77,0,0,1-1.22.92q2,2.91,2.62,3.76h-2.1l-2.12-3.31Zm0-1.48h.61a2.44,2.44,0,0,0,1.32-.29,1,1,0,0,0,.42-.91.92.92,0,0,0-.43-.87,2.75,2.75,0,0,0-1.35-.26h-.57v2.33Z"/><path class="cls-1" d="M132.4,17.84a2.19,2.19,0,0,1-.87,1.84,3.84,3.84,0,0,1-2.41.68,5.91,5.91,0,0,1-2.52-.52v-1.7a11.28,11.28,0,0,0,1.52.55,5,5,0,0,0,1.14.16,1.72,1.72,0,0,0,1-.23.79.79,0,0,0,.33-.69.72.72,0,0,0-.15-.45,1.64,1.64,0,0,0-.43-.38,12.49,12.49,0,0,0-1.15-.58,6.08,6.08,0,0,1-1.23-.71,2.93,2.93,0,0,1-.65-.8A2.21,2.21,0,0,1,126.7,14a2.22,2.22,0,0,1,.8-1.8,3.42,3.42,0,0,1,2.21-.65,5.32,5.32,0,0,1,1.33.16,10.21,10.21,0,0,1,1.31.45l-.6,1.42a8.39,8.39,0,0,0-1.18-.39,3.69,3.69,0,0,0-.92-.12,1.23,1.23,0,0,0-.82.24.79.79,0,0,0-.29.63.74.74,0,0,0,.12.42,1.14,1.14,0,0,0,.37.35,12.11,12.11,0,0,0,1.19.61,4.72,4.72,0,0,1,1.71,1.15A2.21,2.21,0,0,1,132.4,17.84Z"/><path class="cls-1" d="M138.41,13a2,2,0,0,0-1.65.77,3.53,3.53,0,0,0-.58,2.16c0,1.93.74,2.89,2.23,2.89a7.35,7.35,0,0,0,2.27-.46v1.53a6.35,6.35,0,0,1-2.44.45,3.81,3.81,0,0,1-3-1.14,4.74,4.74,0,0,1-1-3.28,5.15,5.15,0,0,1,.5-2.35A3.53,3.53,0,0,1,136.2,12a4.33,4.33,0,0,1,2.21-.54,6.07,6.07,0,0,1,2.61.61l-.61,1.48a10.58,10.58,0,0,0-1-.4A3.12,3.12,0,0,0,138.41,13Z"/><path class="cls-1" d="M143.2,20.24V11.62h1.89v8.62Z"/><path class="cls-1" d="M153.07,20.24H148V11.62h5.12v1.5h-3.23V15h3V16.5h-3v2.23h3.23Z"/><path class="cls-1" d="M163.45,20.24h-2.4l-3.87-6.52h-.06q.12,1.72.12,2.46v4.06h-1.69V11.62h2.38l3.87,6.45h0q-.09-1.68-.09-2.37V11.62h1.7v8.62Z"/><path class="cls-1" d="M170.09,13a2,2,0,0,0-1.65.77,3.53,3.53,0,0,0-.58,2.16c0,1.93.74,2.89,2.23,2.89a7.35,7.35,0,0,0,2.27-.46v1.53a6.37,6.37,0,0,1-2.45.45,3.84,3.84,0,0,1-3-1.14,4.79,4.79,0,0,1-1-3.28,5.15,5.15,0,0,1,.5-2.35A3.57,3.57,0,0,1,167.87,12a4.4,4.4,0,0,1,2.22-.54,6.1,6.1,0,0,1,2.61.61l-.61,1.48a10.58,10.58,0,0,0-1-.4A3.17,3.17,0,0,0,170.09,13Z"/><path class="cls-1" d="M180,20.24h-5.12V11.62H180v1.5h-3.23V15h3V16.5h-3v2.23H180Z"/><path class="cls-1" d="M53.08,26.44v3.71a2,2,0,0,1-.59,1.55,2.34,2.34,0,0,1-1.65.56,2.18,2.18,0,0,1-1.61-.57,2,2,0,0,1-.58-1.55v-3.7h.42v3.71a1.73,1.73,0,0,0,.47,1.29,1.86,1.86,0,0,0,1.35.46,1.81,1.81,0,0,0,1.31-.45,1.67,1.67,0,0,0,.47-1.26V26.44Z"/><path class="cls-1" d="M60.51,32.18h-.42l-3.52-5.1h0c0,.61.05,1.07.05,1.37v3.73h-.4V26.43h.42l3.51,5.09h0c0-.47,0-.91,0-1.34V26.43h.4v5.75Z"/><path class="cls-1" d="M63.68,32.18V26.43h.41v5.75Z"/><path class="cls-1" d="M70.78,26.44h.45L69,32.18h-.37l-2.21-5.74h.44l1.5,3.9a13.65,13.65,0,0,1,.46,1.33,8.8,8.8,0,0,1,.32-.91Z"/><path class="cls-1" d="M76.81,32.18H73.56V26.43h3.25v.37H74V29h2.67v.36H74v2.47h2.83Z"/><path class="cls-1" d="M80.06,29.67v2.51h-.42V26.44h1.42a2.76,2.76,0,0,1,1.63.39A1.4,1.4,0,0,1,83.21,28a1.48,1.48,0,0,1-.31,1,1.7,1.7,0,0,1-1,.57l1.62,2.62h-.5l-1.53-2.51Zm0-.34h1.13A1.86,1.86,0,0,0,82.35,29a1.15,1.15,0,0,0,.42-1,1.09,1.09,0,0,0-.41-.95A2.26,2.26,0,0,0,81,26.8h-1Z"/><path class="cls-1" d="M89.35,30.7a1.37,1.37,0,0,1-.54,1.14,2.33,2.33,0,0,1-1.45.42A4.8,4.8,0,0,1,85.69,32v-.41a4.26,4.26,0,0,0,1.64.27,1.89,1.89,0,0,0,1.15-.32,1,1,0,0,0,.43-.85.91.91,0,0,0-.14-.54,1.23,1.23,0,0,0-.46-.4,7.75,7.75,0,0,0-.94-.38,3.28,3.28,0,0,1-1.26-.65,1.3,1.3,0,0,1-.35-.94,1.27,1.27,0,0,1,.53-1,2.1,2.1,0,0,1,1.34-.4,4.14,4.14,0,0,1,1.57.3l-.15.35a3.73,3.73,0,0,0-1.41-.3,1.74,1.74,0,0,0-1,.29,1,1,0,0,0-.39.8,1,1,0,0,0,.12.53,1.16,1.16,0,0,0,.39.37,6.47,6.47,0,0,0,.94.38,5.05,5.05,0,0,1,1,.46,1.5,1.5,0,0,1,.51.49A1.38,1.38,0,0,1,89.35,30.7Z"/><path class="cls-1" d="M92.1,32.18V26.43h.42v5.75Z"/><path class="cls-1" d="M97.24,32.18h-.42V26.81H94.89v-.38h4.28v.38H97.24Z"/><path class="cls-1" d="M102.91,29.58l1.73-3.14h.45l-2,3.52v2.22h-.42V30l-2-3.56h.48Z"/><path class="cls-1" d="M116.07,29.3a3.14,3.14,0,0,1-.71,2.16,2.76,2.76,0,0,1-3.89,0,3.15,3.15,0,0,1-.71-2.17,3.14,3.14,0,0,1,.71-2.16,2.53,2.53,0,0,1,2-.79,2.44,2.44,0,0,1,1.94.8A3.12,3.12,0,0,1,116.07,29.3Zm-4.86,0a2.84,2.84,0,0,0,.57,1.9,2,2,0,0,0,1.63.68,2,2,0,0,0,1.64-.67,2.85,2.85,0,0,0,.57-1.91,2.82,2.82,0,0,0-.57-1.9,2,2,0,0,0-1.63-.67,2.05,2.05,0,0,0-1.63.67A2.8,2.8,0,0,0,111.21,29.3Z"/><path class="cls-1" d="M119.34,32.18h-.41V26.43h3.25v.37h-2.84v2.44H122v.38h-2.68Z"/><path class="cls-1" d="M130.86,32.18l-2.22-5.31h0c0,.33,0,.66,0,1v4.31h-.39V26.43h.64l2.1,5.05h0l2.1-5.05h.62v5.75h-.42V27.83c0-.31,0-.62.05-.95h0l-2.22,5.3Z"/><path class="cls-1" d="M139.77,30.15h-2.41l-.83,2h-.46l2.39-5.77h.26l2.34,5.77h-.47Zm-2.26-.36h2.12l-.8-2.07c-.07-.16-.15-.39-.25-.68a5,5,0,0,1-.24.69Z"/><path class="cls-1" d="M143.81,29.67v2.51h-.41V26.44h1.41a2.74,2.74,0,0,1,1.63.39A1.41,1.41,0,0,1,147,28a1.49,1.49,0,0,1-.32,1,1.71,1.71,0,0,1-1,.57l1.61,2.62h-.5l-1.52-2.51Zm0-.34h1.13a1.91,1.91,0,0,0,1.17-.32,1.17,1.17,0,0,0,.41-1,1.11,1.11,0,0,0-.4-.95,2.31,2.31,0,0,0-1.33-.3h-1Z"/><path class="cls-1" d="M151.19,29.58l1.74-3.14h.45l-2,3.52v2.22H151V30l-2-3.56h.47Z"/><path class="cls-1" d="M155.71,32.18V26.43h.42V31.8H159v.38Z"/><path class="cls-1" d="M164.33,30.15h-2.41l-.83,2h-.46L163,26.41h.26l2.34,5.77h-.47Zm-2.26-.36h2.12l-.81-2.07c-.06-.16-.15-.39-.24-.68a5,5,0,0,1-.24.69Z"/><path class="cls-1" d="M172.27,32.18h-.42l-3.51-5.1h0c0,.61,0,1.07,0,1.37v3.73H168V26.43h.41l3.51,5.09h0c0-.47,0-.91,0-1.34V26.43h.4v5.75Z"/><path class="cls-1" d="M180,29.25a2.88,2.88,0,0,1-.78,2.19,3.26,3.26,0,0,1-2.3.74h-1.43V26.43h1.61a3,3,0,0,1,2.16.72A2.81,2.81,0,0,1,180,29.25Zm-.45,0a2.47,2.47,0,0,0-.65-1.86,2.65,2.65,0,0,0-1.9-.62h-1.09v5h1C178.61,31.82,179.5,31,179.5,29.27Z"/><polygon class="cls-1" points="0.04 13.16 0 33.38 17.69 43.74 17.73 34.7 7.71 28.85 7.71 26.43 17.73 32.29 17.73 23.65 0.04 13.16"/><polygon class="cls-1" points="0.18 11.89 18.51 22.65 27.44 17.76 27.44 19.73 19.25 24.51 19.25 43.74 36.38 31.99 36.38 11.34 29.04 6.75 20.32 12.02 18.61 11.22 27.43 5.73 19.17 0 0.18 11.89"/></g></g></g></g></svg>