<?xml version="1.0" encoding="utf-8"?>
<!-- Generator: Adobe Illustrator 23.0.6, SVG Export Plug-In . SVG Version: 6.00 Build 0)  -->
<svg version="1.1" id="Layer_1" xmlns="http://www.w3.org/2000/svg" xmlns:xlink="http://www.w3.org/1999/xlink" x="0px" y="0px"
	 viewBox="0 0 468.66 119.76" style="enable-background:new 0 0 468.66 119.76;" xml:space="preserve">
<style type="text/css">
	.st0{display:none;}
	.st1{display:inline;fill:#FFBE00;}
	.st2{fill:#FCFCFC;}
	.st3{fill:#FFFFFF;}
</style>
<g class="st0">
	<path class="st1" d="M151.73,18.66h23.05l-47.57,68.7h-7.19l-48.66-68.7h23.28L123.7,61.2L151.73,18.66z"/>
	<path class="st1" d="M268.22,54.39h-75.74c0.54,5.66,4.76,10.96,10.83,14.11c6.42,3.33,14.41,4.13,24.6,4.13
		c15.08,0,26.3-3.66,38.3-8.99v15.93c-6.62,2.71-13.18,4.65-19.69,5.81c-6.5,1.16-13.11,1.74-21.86,1.74
		c-11.99,0-23.28-1.61-30.69-4.7c-7.41-3.08-11.62-6.63-15.9-12c-4.27-5.36-5.95-11.64-5.95-18.49c0-10.29,4.44-19.15,12.07-25.09
		c8.98-6.99,22.57-9.67,37.57-9.67c14.44,0,25.68,3.1,33.96,9.78c8.12,6.55,12.5,15.25,12.5,25.75V54.39z M193.43,42.56h53.39
		c-1.14-4.33-4.13-7.18-8.53-9.74c-4.4-2.55-9.13-3.83-16.57-3.83s-13.21,1.03-18.54,3.79C198.39,35.25,195.15,38.19,193.43,42.56z"
		/>
	<path class="st1" d="M301.68,18.66v8.5c9.5-6.66,21.29-9.99,33.36-9.99c6.7,0,12.92,1.09,18.69,3.27c5.76,2.18,9.37,5,12.14,8.97
		c2.95,4.22,4.5,9.81,4.5,18.05v38.66h-19.24V50.65c0-6.9-2.76-11.86-6.11-14.83c-3.35-2.96-8.91-4.87-16.78-4.87
		c-10.06,0-19.56,3.66-26.58,9.99v45.18h-19.74V18.66H301.68z"/>
	<path class="st1" d="M373.75,27.08l33.61-32.11l1.17-0.01v19.36h29.33v15.21h-29.33v28.4c0,8.51,6.16,12.75,14.4,12.75
		c5.92,0,10.21-1.74,17.89-5.21v15.67c-7.42,3.17-13.5,4.75-22.26,4.75c-8.83,0-12.89-1.49-18.75-5.42
		c-1.84-1.19-3.47-2.74-4.67-4.22s-2.38-3.67-3.19-6.06s-1.22-6.96-1.22-13.69V29.54h-16.98V27.08z"/>
	<path class="st1" d="M66.15,67.66v15.95c-10.72,2.5-21.2,3.75-31.44,3.75c-16.89,0-29.37-3.14-39.42-9.42S-19.35,63.25-19.35,52.7
		c0-10.65,4.29-19.52,14.08-26.04c9.79-6.52,21.83-9.5,37.81-9.5c5.56,0,10.55,0.33,14.97,1c4.42,0.66,9.88,1.9,16.39,3.72v16.77
		c-10.83-4.33-19.67-6.49-30.13-6.49c-8.94,0-17.96,2.2-23.73,5.68c-6.43,3.89-8.61,9.43-8.61,14.44c0,5.86,3.61,10.88,9.52,14.4
		c6.3,3.76,16.95,5.5,26.88,5.5C46.05,72.16,55.49,70.66,66.15,67.66z"/>
</g>
<g>
	<path class="st2" d="M169.69,36.8h21.23l-43.87,65.16h-6.92L95.22,36.8h21.44l27.01,40.95L169.69,36.8z"/>
	<path class="st3" d="M282.07,71.02l-71.76,0.06c0,5.76,4.79,11.36,11.03,14.02c8.83,3.76,14.04,4.09,24.19,4.09
		c13.37,0,24.19-2.54,35.02-7.96v13.44c-7.07,4.74-20.47,8.62-38.29,8.62c-11.95,0-22.41-1.26-29.76-4.7
		c-7.23-3.37-10.93-6-14.71-11.61c-3.59-5.32-5.91-11.49-5.91-18.21c0-10.09,4.12-17.76,11.65-24.45
		c8.42-7.48,20.89-9.65,35.85-9.65c14.4,0,25.2,4.15,32.96,11.28c8.01,7.36,9.72,15.86,9.72,23.41L282.07,71.02L282.07,71.02z
		 M211.91,59.13l51.17-0.06c-1.06-3.97-4.01-7.14-8.11-9.48c-4.11-2.35-9.28-3.98-16.22-3.98c-6.94,0-12.32,1.15-17.29,3.68
		C217,51.54,213.52,55.11,211.91,59.13z"/>
	<path class="st3" d="M315.95,36.8v8.18c9.14-6.41,20.37-9.62,31.61-9.62c6.23,0,12.03,1.05,17.4,3.15c5.36,2.1,8.72,4.81,11.3,8.63
		c2.75,4.06,4.2,9.45,4.2,17.37v37.21h-18.63V67.57c0-6.64-2.56-11.42-5.68-14.27c-3.12-2.85-8.29-4.69-15.62-4.69
		c-9.36,0-17.81,3.52-24.56,9.62v43.48h-18.99V36.79L315.95,36.8L315.95,36.8z"/>
	<path class="st3" d="M388.2,47.19l32.35-30.91l1.13-0.01v18.64h25.34v14.64h-25.34v26.38c0,8.18,4.97,12.27,12.9,12.27
		c5.7,0,10.16-1.34,15.66-5.02v15.09c-6.58,3.26-11.43,4.57-19.86,4.57c-7.66,0-11.52-1.25-17.16-5.04
		c-1.77-1.14-3.27-2.82-4.43-4.25c-1.16-1.43-2.29-3.53-3.07-5.84c-0.78-2.3-1.17-6.7-1.17-13.18V49.54H388.2V47.19z"/>
	<path class="st3" d="M88.81,84.28v15.55c-10.45,2.44-20.67,3.66-30.66,3.66c-16.48,0-28.64-3.07-37.94-9.19S6.66,79.98,6.66,69.69
		c0-10.38,3.97-19.03,13.03-25.39s20.77-9.26,36.35-9.26c5.42,0,10.28,0.32,14.6,0.97c4.31,0.65,9.64,1.86,15.97,3.62v15.86
		c-10.56-4.22-19.18-5.84-29.38-5.84c-8.72,0-18.04,2.14-23.37,5.54c-5.95,3.79-7.98,9.2-7.98,14.07c0,5.72,3.34,10.6,8.81,14.05
		c5.84,3.67,16.81,5.36,26.5,5.36C69.22,88.66,78.41,87.2,88.81,84.28z"/>
</g>
</svg>
