<svg xmlns="http://www.w3.org/2000/svg" viewBox="0 0 254.15 80.27"><defs><style>.cls-1{isolation:isolate;}.cls-2,.cls-5{fill:#fff;}.cls-3{fill:none;stroke:#fff;stroke-miterlimit:6;stroke-width:0.37px;}.cls-4,.cls-5{mix-blend-mode:multiply;}</style></defs><title>dingman horizallwhite</title><g class="cls-1"><g id="Layer_1" data-name="Layer 1"><path class="cls-2" d="M80.06,69.18H77.59V59h2.47c2.24,0,3.21,2,3.21,5S82.2,69.18,80.06,69.18Zm0-8.75H79v7.36h1c1.36,0,1.75-1.94,1.75-3.73S81.43,60.43,80,60.43Z" transform="translate(-16.85 -3.01)"/><path class="cls-2" d="M85.51,69.18V59h1.42V69.18Z" transform="translate(-16.85 -3.01)"/><path class="cls-2" d="M94,69.18l-2.45-5.43c-.2-.44-.58-1.38-.71-1.67,0,.38,0,1.53,0,2v5.07H89.51V59h1.42l2.19,4.83c.2.44.58,1.38.71,1.67,0-.38,0-1.54,0-2V59h1.39V69.18Z" transform="translate(-16.85 -3.01)"/><path class="cls-2" d="M100.46,69.34c-2.16,0-3.06-2.33-3.06-5.23,0-3.06,1-5.24,3.1-5.24,1.65,0,2.42,1,2.71,2.48l-1.42.38c-.23-1-.61-1.42-1.33-1.42-1.12,0-1.6,1.62-1.6,3.8,0,1.72.37,3.8,1.7,3.8,1,0,1.31-.58,1.31-1.83v-.73h-1.14V64h2.58v2.25C103.31,67.92,102.5,69.34,100.46,69.34Z" transform="translate(-16.85 -3.01)"/><path class="cls-2" d="M111.11,69.18V65.09c0-.63,0-2.11,0-2.5-.11.4-.55,1.88-.78,2.62l-1.3,4.25-1.31-4.25c-.23-.74-.67-2.22-.78-2.62,0,.39,0,1.87,0,2.5v4.09h-1.34V59h1.5l1.3,4.22c.19.61.54,1.86.62,2.22.11-.38.45-1.67.64-2.26L111,59h1.47V69.18Z" transform="translate(-16.85 -3.01)"/><path class="cls-2" d="M119.3,69.18l-.59-2.68H116.5l-.58,2.68h-1.5L116.91,59h1.46l2.48,10.15ZM118,63.44c-.15-.67-.36-1.84-.43-2.22-.08.38-.29,1.54-.44,2.22l-.38,1.71h1.63Z" transform="translate(-16.85 -3.01)"/><path class="cls-2" d="M127.29,69.18l-2.45-5.43c-.21-.44-.58-1.38-.71-1.67,0,.38,0,1.53,0,2v5.07h-1.39V59h1.42l2.19,4.83c.21.44.58,1.38.71,1.67,0-.38,0-1.54,0-2V59h1.39V69.18Z" transform="translate(-16.85 -3.01)"/><path class="cls-2" d="M137.45,69.34c-2.19,0-3-2.33-3-5.22s.88-5.25,3-5.25c1.7,0,2.4,1,2.64,2.48l-1.43.37c-.19-.92-.47-1.41-1.25-1.41-1.23,0-1.52,2-1.52,3.78s.39,3.82,1.62,3.82c.68,0,1-.47,1.28-1.56l1.32.43C139.83,68.3,139.12,69.34,137.45,69.34Z" transform="translate(-16.85 -3.01)"/><path class="cls-2" d="M142.19,69.18V59H147v1.38h-3.35v2.71h2.19v1.37h-2.19V67.8h3.53v1.38Z" transform="translate(-16.85 -3.01)"/><path class="cls-2" d="M153.63,69.18l-2.45-5.43c-.2-.44-.58-1.38-.71-1.67,0,.38,0,1.53,0,2v5.07h-1.39V59h1.42l2.19,4.83c.2.44.58,1.38.71,1.67,0-.38,0-1.54,0-2V59h1.39V69.18Z" transform="translate(-16.85 -3.01)"/><path class="cls-2" d="M160.05,60.43v8.75h-1.42V60.43h-1.87V59h5.16v1.4Z" transform="translate(-16.85 -3.01)"/><path class="cls-2" d="M163.88,69.18V59h4.76v1.38H165.3v2.71h2.19v1.37H165.3V67.8h3.53v1.38Z" transform="translate(-16.85 -3.01)"/><path class="cls-2" d="M174.93,69.18l-1.54-4.42h-1.17v4.42h-1.43V59h2.86a2.61,2.61,0,0,1,2.83,2.82,2.56,2.56,0,0,1-1.6,2.66l1.63,4.67Zm-1.4-8.77h-1.31v3h1.31a1.5,1.5,0,0,0,0-3Z" transform="translate(-16.85 -3.01)"/><path class="cls-2" d="M184,60.41V63.2h2.19v1.36H184v4.62h-1.42V59h4.84v1.38Z" transform="translate(-16.85 -3.01)"/><path class="cls-2" d="M191.85,69.34c-2.15,0-3-2.27-3-5.22s.91-5.25,3.05-5.25,3.08,2.28,3.08,5.22S194,69.34,191.85,69.34Zm0-9c-1.23,0-1.58,1.91-1.58,3.79s.41,3.83,1.64,3.83,1.6-1.91,1.6-3.8S193.07,60.3,191.83,60.3Z" transform="translate(-16.85 -3.01)"/><path class="cls-2" d="M201.28,69.18l-1.54-4.42h-1.17v4.42h-1.42V59H200a2.61,2.61,0,0,1,2.83,2.82,2.56,2.56,0,0,1-1.6,2.66l1.63,4.67Zm-1.39-8.77h-1.32v3h1.32a1.5,1.5,0,0,0,0-3Z" transform="translate(-16.85 -3.01)"/><path class="cls-2" d="M78,83.12V73h4.77v1.37H79.38v2.71h2.19v1.37H79.38v3.32h3.54v1.37Z" transform="translate(-16.85 -3.01)"/><path class="cls-2" d="M89.4,83.12,87,77.69c-.2-.44-.58-1.38-.71-1.67,0,.38,0,1.54,0,2v5.07H84.88V73H86.3l2.19,4.82c.2.44.58,1.38.71,1.67,0-.38,0-1.54,0-2V73h1.39V83.12Z" transform="translate(-16.85 -3.01)"/><path class="cls-2" d="M95.82,74.37v8.75H94.4V74.37H92.53V73h5.16v1.39Z" transform="translate(-16.85 -3.01)"/><path class="cls-2" d="M103.78,83.12l-1.53-4.42h-1.18v4.42H99.65V73h2.86a2.59,2.59,0,0,1,2.82,2.81,2.55,2.55,0,0,1-1.59,2.66l1.62,4.67Zm-1.39-8.77h-1.32v3h1.32a1.5,1.5,0,0,0,0-3Z" transform="translate(-16.85 -3.01)"/><path class="cls-2" d="M107.51,83.12V73h4.77v1.37h-3.35v2.71h2.19v1.37h-2.19v3.32h3.54v1.37Z" transform="translate(-16.85 -3.01)"/><path class="cls-2" d="M117,79h-1.19v4.13h-1.42V73h2.68a2.71,2.71,0,0,1,2.86,3A2.83,2.83,0,0,1,117,79Zm0-4.62h-1.16v3.24h1.2c.83,0,1.45-.53,1.45-1.63A1.42,1.42,0,0,0,117,74.37Z" transform="translate(-16.85 -3.01)"/><path class="cls-2" d="M126,83.12l-1.54-4.42h-1.17v4.42h-1.43V73h2.86a2.6,2.6,0,0,1,2.83,2.81,2.56,2.56,0,0,1-1.6,2.66l1.63,4.67Zm-1.4-8.77h-1.31v3h1.31a1.5,1.5,0,0,0,0-3Z" transform="translate(-16.85 -3.01)"/><path class="cls-2" d="M129.74,83.12V73h4.77v1.37h-3.35v2.71h2.19v1.37h-2.19v3.32h3.54v1.37Z" transform="translate(-16.85 -3.01)"/><path class="cls-2" d="M141.18,83.12l-2.45-5.43c-.2-.44-.58-1.38-.71-1.67,0,.38,0,1.54,0,2v5.07h-1.39V73h1.42l2.19,4.82c.2.44.58,1.38.71,1.67,0-.38,0-1.54,0-2V73h1.39V83.12Z" transform="translate(-16.85 -3.01)"/><path class="cls-2" d="M144.9,83.12V73h4.77v1.37h-3.35v2.71h2.19v1.37h-2.19v3.32h3.54v1.37Z" transform="translate(-16.85 -3.01)"/><path class="cls-2" d="M154.54,83.28a2.82,2.82,0,0,1-2.84-3.08V73h1.42v7.16c0,.84.36,1.71,1.42,1.71s1.44-.92,1.44-1.7V73h1.4v7.13C157.38,82.08,156.28,83.28,154.54,83.28Z" transform="translate(-16.85 -3.01)"/><path class="cls-2" d="M164,83.12,162.5,78.7h-1.17v4.42h-1.42V73h2.85a2.6,2.6,0,0,1,2.83,2.81,2.56,2.56,0,0,1-1.6,2.66l1.63,4.67Zm-1.39-8.77h-1.32v3h1.32a1.5,1.5,0,0,0,0-3Z" transform="translate(-16.85 -3.01)"/><path class="cls-2" d="M169.91,83.28a3,3,0,0,1-2.68-1.65l1.12-.9c.55.87,1,1.13,1.65,1.13a1.14,1.14,0,0,0,1.22-1.29c0-.78-.34-1.23-1.7-2.13-1.14-.75-2-1.49-2-3.09A2.4,2.4,0,0,1,170,72.82a2.74,2.74,0,0,1,2.47,1.37l-1,.93c-.49-.65-.82-.88-1.46-.88a1,1,0,0,0-1.06,1.07c0,.75.35,1.17,1.48,1.9s2.26,1.59,2.26,3.29A2.58,2.58,0,0,1,169.91,83.28Z" transform="translate(-16.85 -3.01)"/><path class="cls-2" d="M179,83.12V78.43h-2.85v4.69h-1.42V73h1.42v4H179V73h1.42V83.12Z" transform="translate(-16.85 -3.01)"/><path class="cls-2" d="M183,83.12V73h1.42V83.12Z" transform="translate(-16.85 -3.01)"/><path class="cls-2" d="M189.6,79h-1.19v4.13H187V73h2.68a2.72,2.72,0,0,1,2.86,3A2.83,2.83,0,0,1,189.6,79Zm0-4.62h-1.16v3.24h1.2c.83,0,1.45-.53,1.45-1.63A1.42,1.42,0,0,0,189.57,74.37Z" transform="translate(-16.85 -3.01)"/><line class="cls-3" x1="61.75" y1="49.15" x2="251.88" y2="49.15"/><path class="cls-2" d="M80.61,20.66c.46,0,.83.06,1.45.06s1.21,0,1.92-.06a21.56,21.56,0,0,1,2.91,2.64l1.87,2c2.52,2.63,3.79,3.76,8.74,3.53v-.54a8.37,8.37,0,0,1-5.57-3l-2.24-2.34a35.16,35.16,0,0,0-3.23-3.1A5,5,0,0,0,90.23,15c0-3-2.35-5.32-7.58-5.32-1.84,0-2.4,0-3.57.1s-2.89.18-3.57.18v.57h.62c1.65,0,2.13.54,2.13,2.39V25.44c0,2-.6,2.46-2.26,2.46h-.49v.58h8V27.9h-.65c-1.59,0-2.27-.45-2.27-2.23Zm0-10.35A11,11,0,0,1,82,10.25c4.35,0,5.53,2.15,5.53,4.92,0,3.58-2.06,5-5.19,5a11.61,11.61,0,0,1-1.76-.05Z" transform="translate(-16.85 -3.01)"/><path class="cls-2" d="M106,19.28a5.8,5.8,0,0,0-6.07-5.63,6,6,0,0,0-6.33,6.2c0,3.41,2.85,5.69,6.24,5.69A6.09,6.09,0,0,0,106,19.28m-1.63.6c0,2.6-1.35,5.23-4.17,5.23s-5-2.41-5-5.83c0-2.19,1.21-5.19,4.26-5.19,2.85,0,4.89,2.39,4.89,5.79" transform="translate(-16.85 -3.01)"/><path class="cls-2" d="M111.5,20.2h2.43a3.7,3.7,0,0,1,4,3.69c0,1.84-.86,3.78-3.84,3.78-1.9,0-2.57-.63-2.57-2.43Zm-1.87,5.72c0,1.48-.36,1.93-2.21,1.93h-.52v.46h8.25c3.64,0,4.88-2.63,4.88-4.5s-1.24-3.28-3.36-3.95v0a3,3,0,0,0,1.18-5.53c-.8-.62-2.54-.92-4.53-.92-.42,0-2.14,0-3.38.07-.65,0-2.2.11-2.83.14V14h.79c1.57,0,1.73.71,1.73,2.07Zm1.87-12c.56,0,1.49-.07,2-.07,2.78,0,3.73,1.52,3.73,3.18,0,1.84-1.09,2.75-3.25,2.75H111.5Z" transform="translate(-16.85 -3.01)"/><path class="cls-2" d="M130.82,23h-.42c-.18-1.69-.61-1.88-1.53-1.88h-3.8v5.07c0,1.1.38,1.31,1.22,1.31h3.46c1.57,0,2-.64,2.6-2.7h.4l-.35,3.55H120.46v-.46h.63c1.8,0,2.12-.52,2.12-1.94v-10c0-1.31-.3-1.88-1.81-1.88h-.49v-.46H131.7l.18,3.28h-.41c-.29-2-.85-2.43-1.66-2.43h-4.74v5.82h4c.81,0,1.19-.41,1.31-1.78h.42Z" transform="translate(-16.85 -3.01)"/><path class="cls-2" d="M138.26,22.09c.36,0,.65.05,1.14.05s1,0,1.53-.05a16.86,16.86,0,0,1,2.32,2.1l1.49,1.56c2,2.1,3,3,6.95,2.81v-.43a6.68,6.68,0,0,1-4.43-2.38l-1.78-1.87a29,29,0,0,0-2.56-2.46,4,4,0,0,0,3-3.84c0-2.41-1.87-4.21-6-4.21-1.46,0-1.91,0-2.84.07s-2.29.14-2.83.14V14h.49c1.31,0,1.69.43,1.69,1.9v10c0,1.59-.47,2-1.8,2h-.38v.46h6.37v-.46h-.52c-1.26,0-1.8-.35-1.8-1.77Zm0-8.23a10.3,10.3,0,0,1,1.12,0c3.47,0,4.41,1.7,4.41,3.91,0,2.84-1.64,3.95-4.14,3.95a9.34,9.34,0,0,1-1.39,0Z" transform="translate(-16.85 -3.01)"/><path class="cls-2" d="M156.24,26.12c0,1.28.4,1.73,1.78,1.73h.83v.46h-7.09v-.46h.83c1.37,0,1.78-.45,1.78-1.73V14.42h-3.92c-.9,0-1.3.54-1.64,2.63h-.41l.37-3.83h.42a.34.34,0,0,0,.25.28,1.33,1.33,0,0,0,.45.07h10.82c.32,0,.66-.07.7-.35h.43l.36,3.83h-.41c-.33-2.09-.74-2.63-1.64-2.63h-3.91Z" transform="translate(-16.85 -3.01)"/><path class="cls-2" d="M173.06,19.57v5.65c0,1.94.37,2.62,2.26,2.62h.08v.57h-7.1v-.57h.17c1.67,0,2.24-.48,2.24-2.17V12.57c0-1.54-.49-2-2-2.11V9.89h6.73v.57c-2,0-2.34.57-2.34,2.86v5.17h11.06V12.63c0-1.58-.48-2.17-2.23-2.17h-.53V9.89h7.27v.57c-1.7.06-2.15.59-2.15,2.44V25.25c0,2.11.57,2.59,2.26,2.59H189v.57h-8v-.57h.87c1.84,0,2.23-.68,2.23-2.23v-6Z" transform="translate(-16.85 -3.01)"/><path class="cls-2" d="M194.64,27.48a1.08,1.08,0,0,1-1.15,1.11,1.11,1.11,0,1,1,1.15-1.11" transform="translate(-16.85 -3.01)"/><path class="cls-2" d="M200.06,23.91a5,5,0,0,0,4.77,4.2c1.9,0,3.9-1.16,3.9-3.51,0-4.29-9.07-5.6-9.07-10.81,0-2.47,2.15-4.3,5-4.3,2.37,0,2.85.73,3.84.73a.53.53,0,0,0,.51-.3h.45L210,13.7h-.49A5,5,0,0,0,205,10.19c-1.87,0-3.17,1.13-3.17,2.8,0,4.23,9.08,5.36,9.08,10.83,0,2.92-2.47,5.09-5.77,5.09a22.38,22.38,0,0,1-3.93-.8.65.65,0,0,0-.57.35h-.48l-.59-4.55Z" transform="translate(-16.85 -3.01)"/><path class="cls-2" d="M221.16,28.31l-5.74-12.65h0l-.61,10.67c-.07,1.21.79,1.48,1.8,1.52v.46h-4.68v-.46c1.64,0,1.85-.38,2-2.53l.54-9.24c.09-1.56,0-2-1.35-2.08v-.43h3.4l5.42,12,5.4-12h3.31V14c-1.11.09-1.53.12-1.49.92l.72,10.75c.14,2.18.32,2.18,2,2.18v.46H226v-.46c1.06,0,2.09-.31,2-1.56l-.65-10.63h-.05l-5.6,12.65Z" transform="translate(-16.85 -3.01)"/><path class="cls-2" d="M238.67,28.31H233.2v-.46c1.39-.07,1.69-.45,1.69-2V15.73c0-1.27-.43-1.63-1.69-1.7v-.45h5.47V14c-1.42,0-1.91.33-1.91,1.92V26c0,1.4.36,1.87,1.91,1.87Z" transform="translate(-16.85 -3.01)"/><path class="cls-2" d="M247.67,26.12c0,1.28.4,1.73,1.77,1.73h.83v.46h-7.08v-.46H244c1.37,0,1.78-.45,1.78-1.73V14.42h-3.92c-.9,0-1.3.54-1.64,2.63h-.41l.36-3.83h.43a.33.33,0,0,0,.25.28,1.29,1.29,0,0,0,.45.07h10.82c.32,0,.66-.07.7-.35h.43l.36,3.83h-.41c-.33-2.09-.74-2.63-1.64-2.63h-3.91Z" transform="translate(-16.85 -3.01)"/><path class="cls-2" d="M258.25,21.26v4.51c0,1.54.3,2.08,1.81,2.08h.07v.46h-5.66v-.46h.14c1.32,0,1.78-.38,1.78-1.73V15.71c0-1.23-.39-1.59-1.62-1.68v-.45h5.36V14c-1.61,0-1.88.45-1.88,2.27v4.11h8.85V15.75c0-1.25-.38-1.72-1.78-1.72h-.43v-.45h5.79V14c-1.35.05-1.71.47-1.71,1.94v9.82c0,1.68.45,2.06,1.8,2.06H271v.46h-6.38v-.46h.7c1.47,0,1.78-.54,1.78-1.77V21.26Z" transform="translate(-16.85 -3.01)"/><path class="cls-2" d="M78,41.88a2.78,2.78,0,0,0,2.71,2.25A2,2,0,0,0,83,42.24c0-2.3-5.14-3-5.14-5.81,0-1.33,1.22-2.32,2.85-2.32,1.34,0,1.61.4,2.18.4a.29.29,0,0,0,.28-.16h.26l.27,2h-.27A2.82,2.82,0,0,0,80.8,34.5,1.58,1.58,0,0,0,79,36c0,2.27,5.14,2.88,5.14,5.83,0,1.57-1.39,2.73-3.27,2.73a13,13,0,0,1-2.22-.43.37.37,0,0,0-.32.18h-.28l-.33-2.43Z" transform="translate(-16.85 -3.01)"/><path class="cls-2" d="M96.34,37a3.73,3.73,0,0,0-3.65-2.47c-2.67,0-4.33,1.94-4.33,4.63a4.74,4.74,0,0,0,4.51,5,4.23,4.23,0,0,0,3.9-2.36h.31a11,11,0,0,1-1,2.33c-1-.14-1.73.43-3.62.43-3.25,0-5.59-2.14-5.59-5.1s2.4-5.35,5.75-5.35a12.64,12.64,0,0,1,3.38.64.34.34,0,0,0,.28-.09h.24L96.65,37Z" transform="translate(-16.85 -3.01)"/><path class="cls-2" d="M102,39.55V42.6c0,1,.2,1.4,1.28,1.4h0v.31h-4V44h.09c1,0,1.27-.25,1.27-1.16V35.79c0-.83-.27-1.07-1.15-1.13v-.31h3.8v.31c-1.13,0-1.32.3-1.32,1.53V39h6.27V35.82c0-.84-.27-1.16-1.26-1.16h-.31v-.31h4.12v.31c-1,0-1.22.32-1.22,1.31v6.64c0,1.14.32,1.39,1.28,1.39h.16v.31h-4.53V44h.5c1,0,1.26-.36,1.26-1.2V39.55Z" transform="translate(-16.85 -3.01)"/><path class="cls-2" d="M119.19,44.56c-3.14,0-5.78-2-5.78-5,0-3.18,2.45-5.44,5.86-5.44,3,0,5.62,2.07,5.62,5A5.51,5.51,0,0,1,119.19,44.56Zm-.34-10.05c-2.82,0-3.94,2.63-3.94,4.55,0,3,2,5.1,4.61,5.1s3.86-2.3,3.86-4.57C123.38,36.61,121.49,34.51,118.85,34.51Z" transform="translate(-16.85 -3.01)"/><path class="cls-2" d="M133.6,44.56c-3.14,0-5.78-2-5.78-5,0-3.18,2.45-5.44,5.86-5.44,3,0,5.62,2.07,5.62,5A5.51,5.51,0,0,1,133.6,44.56Zm-.34-10.05c-2.82,0-3.94,2.63-3.94,4.55,0,3,2,5.1,4.61,5.1s3.86-2.3,3.86-4.57C137.79,36.61,135.9,34.51,133.26,34.51Z" transform="translate(-16.85 -3.01)"/><path class="cls-2" d="M148.65,44.31h-7.16V44H142c.74,0,1-.24,1-1V35.86c0-.85-.26-1.2-1.26-1.2h-.23v-.31h4.72v.31h-.59c-1,0-1.31.11-1.31,1.1v7.38c0,.43.17.59.64.59h2.35c1,0,1.23-.37,2.24-1.76h.29Z" transform="translate(-16.85 -3.01)"/><path class="cls-2" d="M163.61,44.56c-3.14,0-5.78-2-5.78-5,0-3.18,2.45-5.44,5.86-5.44,3,0,5.62,2.07,5.62,5A5.51,5.51,0,0,1,163.61,44.56Zm-.34-10.05c-2.82,0-3.94,2.63-3.94,4.55,0,3,2,5.1,4.61,5.1s3.86-2.3,3.86-4.57C167.8,36.61,165.91,34.51,163.27,34.51Z" transform="translate(-16.85 -3.01)"/><path class="cls-2" d="M178.76,40.48h-.27c0-.93-.37-1.21-1.14-1.21h-3v3.5c0,.9.19,1.23,1.39,1.23v.31h-3.89V44c1-.06,1.17-.27,1.17-1.56V36.16c0-1-.08-1.49-1.2-1.5v-.31H179v1.89h-.27c0-.93-.34-1.31-1.33-1.31h-3v3.76h3.17c.59,0,.88-.34.93-1h.27Z" transform="translate(-16.85 -3.01)"/><path class="cls-2" d="M188.58,36.05c0-.91-.11-1.39-1.23-1.39h-.56v-.31c.44,0,1.55-.08,2-.09.88,0,2.1,0,2.4,0a6.31,6.31,0,0,1,3.22.62,2,2,0,0,1,1,1.78,2.1,2.1,0,0,1-1.83,2v0A2.89,2.89,0,0,1,196,41.27a3.11,3.11,0,0,1-3.46,3h-5.86V44H187c1.31,0,1.57-.3,1.57-1.31Zm1.33,2.46h1.74c1.54,0,2.31-.6,2.31-1.85s-.67-2.15-2.64-2.15c-.36,0-1,0-1.41.05Zm0,3.72c0,1.21.48,1.65,1.82,1.65a2.39,2.39,0,0,0,2.72-2.56,2.56,2.56,0,0,0-2.81-2.5h-1.73Z" transform="translate(-16.85 -3.01)"/><path class="cls-2" d="M210.33,34.35v.31c-1.07,0-1.46.44-1.46,1.47v4.32c0,2-1.26,4.11-4.73,4.11-3.06,0-4.63-1.74-4.63-4V35.86c0-1-.29-1.19-1.38-1.2v-.31h4.12v.31h-.15c-.88,0-1.26.24-1.26,1.16v4.46c0,2.16,1.26,3.45,3.65,3.45,1.81,0,3.65-.75,3.65-3.47V36.53c0-1.54-.24-1.81-1.57-1.87v-.31Z" transform="translate(-16.85 -3.01)"/><path class="cls-2" d="M212.81,41.88a2.78,2.78,0,0,0,2.71,2.25,2,2,0,0,0,2.2-1.89c0-2.3-5.13-3-5.13-5.81,0-1.33,1.21-2.32,2.85-2.32a10.73,10.73,0,0,1,2.17.4.31.31,0,0,0,.29-.16h.26l.27,2h-.27a2.83,2.83,0,0,0-2.58-1.89c-1.06,0-1.79.6-1.79,1.5,0,2.27,5.13,2.88,5.13,5.83,0,1.57-1.39,2.73-3.26,2.73a13.37,13.37,0,0,1-2.23-.43.39.39,0,0,0-.32.18h-.27l-.33-2.43Z" transform="translate(-16.85 -3.01)"/><path class="cls-2" d="M225.36,44.31h-3.89V44c1,0,1.2-.3,1.2-1.37V35.81c0-.87-.3-1.11-1.2-1.15v-.31h3.89v.31c-1,0-1.36.22-1.36,1.29v6.79c0,.94.26,1.26,1.36,1.26Z" transform="translate(-16.85 -3.01)"/><path class="cls-2" d="M238.41,44.42l-8.29-8.68v6.87c0,1.15.26,1.39,1.62,1.39v.31H228V44h.06c1,0,1.31-.33,1.31-1.07V35.06a2.27,2.27,0,0,0-1.34-.4v-.31h2.51l7.54,7.86V35.84c0-1-.29-1.15-1.57-1.18v-.31h3.75v.31c-1.2,0-1.46.2-1.46.83v8.93Z" transform="translate(-16.85 -3.01)"/><path class="cls-2" d="M249.75,40.71h-.3c-.13-1.14-.43-1.27-1.09-1.27h-2.71v3.41c0,.74.28.88.87.88H249c1.12,0,1.46-.43,1.86-1.81h.29l-.26,2.39h-8.5V44h.45c1.28,0,1.51-.35,1.51-1.31V35.94c0-.9-.21-1.28-1.28-1.28h-.36v-.31h7.69l.13,2.23h-.29c-.21-1.36-.61-1.65-1.19-1.65h-3.38v3.94h2.87c.58,0,.85-.28.93-1.2h.3Z" transform="translate(-16.85 -3.01)"/><path class="cls-2" d="M254.3,41.88a2.76,2.76,0,0,0,2.7,2.25,2,2,0,0,0,2.21-1.89c0-2.3-5.14-3-5.14-5.81,0-1.33,1.22-2.32,2.85-2.32a10.72,10.72,0,0,1,2.18.4.31.31,0,0,0,.29-.16h.25l.27,2h-.27a2.82,2.82,0,0,0-2.58-1.89,1.58,1.58,0,0,0-1.79,1.5c0,2.27,5.14,2.88,5.14,5.83,0,1.57-1.39,2.73-3.27,2.73a13.2,13.2,0,0,1-2.22-.43.38.38,0,0,0-.32.18h-.27L254,41.88Z" transform="translate(-16.85 -3.01)"/><path class="cls-2" d="M263.54,41.88a2.78,2.78,0,0,0,2.71,2.25,2,2,0,0,0,2.21-1.89c0-2.3-5.14-3-5.14-5.81,0-1.33,1.22-2.32,2.85-2.32a10.88,10.88,0,0,1,2.18.4.29.29,0,0,0,.28-.16h.26l.27,2h-.27a2.82,2.82,0,0,0-2.58-1.89,1.58,1.58,0,0,0-1.79,1.5c0,2.27,5.14,2.88,5.14,5.83,0,1.57-1.39,2.73-3.27,2.73a13,13,0,0,1-2.22-.43.37.37,0,0,0-.32.18h-.27l-.34-2.43Z" transform="translate(-16.85 -3.01)"/><path class="cls-2" d="M42.82,46.18a18,18,0,1,1,18-18A18,18,0,0,1,42.82,46.18Zm0-35.68A17.72,17.72,0,1,0,60.54,28.22,17.74,17.74,0,0,0,42.82,10.5Z" transform="translate(-16.85 -3.01)"/><path class="cls-2" d="M42.71,31.23c0,1.39,0,2.72,0,4,2.86,2.71,2.86,2.71,4.05,3.9a58,58,0,0,0,.49-8c0-.2,0-.4,0-.59-1.8.07-3,.09-4.54.09Z" transform="translate(-16.85 -3.01)"/><path class="cls-2" d="M49.25,42.15a16.63,16.63,0,0,0-2.48-3c-.61,4.34-1.69,7-3,7.07l.4,0,.45,0C46.45,46,48,44.55,49.25,42.15Z" transform="translate(-16.85 -3.01)"/><path class="cls-2" d="M51.25,34.87s-1,5.36-2,7.28a2.42,2.42,0,0,1,.36,2.22,13.46,13.46,0,0,0,4.15-5.76A16.54,16.54,0,0,0,51.25,34.87Z" transform="translate(-16.85 -3.01)"/><path class="cls-2" d="M46.14,45.94c.39-.07.37-.08,1.09-.24l.43-.12c1.31-.41,1.55-.62,2-1.23A8.53,8.53,0,0,1,45.78,46Z" transform="translate(-16.85 -3.01)"/><path class="cls-2" d="M54.07,41.56a17.53,17.53,0,0,0,4.14-11.73c0-.2,0-.39,0-.59a28.78,28.78,0,0,1-3,.59q0,.3,0,.6a22,22,0,0,1-1.46,8.17A4.06,4.06,0,0,1,54.07,41.56Z" transform="translate(-16.85 -3.01)"/><path class="cls-2" d="M51.47,30.26c-1.74.15-2.83.22-4.22.29,2.45,2.54,3,3.13,4,4.32a32,32,0,0,0,.22-4Z" transform="translate(-16.85 -3.01)"/><g class="cls-4"><path class="cls-2" d="M54.79,29.6c-.93-.12-1.71-1.69-1.3-3.29-1.31.9-2.78-.95-2.56-2.67.11-.91.71-1.72,1.75-1.34a25.15,25.15,0,0,0-1.57-4.09c-.93.11-1.94.21-3,.29.95,1.44,0,2.78-1.31,2.56a2,2,0,0,1-1.62-2.37,1.63,1.63,0,0,1-2.53-1.38c0,3.63-.07,8.27-.06,13.1a91.14,91.14,0,0,0,12.51-.81h-.3Z" transform="translate(-16.85 -3.01)"/></g><g class="cls-4"><path class="cls-2" d="M31.22,33.34c1.32-.52,3,1.78,2.4,3.31a1.07,1.07,0,0,1-1.69.48,16.65,16.65,0,0,0,1.52,3.64c.93.13,2,.24,3.14.33-.93-1.14-.18-2.07,1-2,1.06,0,2.46.94,2.16,2.14,1-.43,2.57-.08,2.77,1.16,0-2.67-.08-6.6-.09-11.24v-.59c-1.51,0-3,0-4.55-.11a60,60,0,0,1-8.12-.78h0C31.19,30.13,31.57,32.19,31.22,33.34Z" transform="translate(-16.85 -3.01)"/></g><path class="cls-5" d="M51.27,16.82h0l.5-.09c1-.19,3.33-.74,3.33-1.42a10.1,10.1,0,0,1,1.58,2.18,2.53,2.53,0,0,1,.2.46,1.89,1.89,0,0,1,.12.61c0,.39-.27.39-.53.28l-.08,0a3,3,0,0,1-1.4-1.6,17.31,17.31,0,0,1-1.87.6l-.29.06a24.64,24.64,0,0,1,2,4.17c.9-.92,2.31.79,2.37,2.44,0,1-.39,1.84-1.28,1.53.71,1.32.48,3.25-.87,3.67a25.09,25.09,0,0,0-3.81-12.85h0" transform="translate(-16.85 -3.01)"/><path class="cls-5" d="M51.25,16.83h0c-2.27-3.47-4.06-4.73-6.37-5.64-.46-.18-2-.8-2.1-.82v0h0a3.14,3.14,0,0,0,1.4,1c0,.21,0,.64.74,1.19a2.42,2.42,0,0,0,.33.2c1.16.61,1.42.14,1.47,0l0,0a11.61,11.61,0,0,1,1.81,1.68c.44.53.85,1,1.16,1.45-.71.09-1.66.17-2.6.24a2.12,2.12,0,0,0-1.4-1.9c-1.13-.42-1.5.91-1,1.85-.89-.49-2-.06-2.1,1.36a60.09,60.09,0,0,0,8.64-.56h0" transform="translate(-16.85 -3.01)"/><path class="cls-5" d="M51.47,13.6a.55.55,0,0,1,0-.13.15.15,0,0,1,.05-.08.22.22,0,0,1,.08-.09c.19-.1.72-.16,2.22.87a17.75,17.75,0,0,0-9.25-3.71c-.4,0-1.14-.07-1.14-.07a6.22,6.22,0,0,1,1.65.37.68.68,0,0,1,.26.15h0A4,4,0,0,1,46,11a7.83,7.83,0,0,1,1.15.45c.41.19,1,.62,1,.87-.1.05-.12.07-.4,0a23.16,23.16,0,0,1,3.46,3.21,19.12,19.12,0,0,0,2-.39A6.86,6.86,0,0,1,51.47,13.6Z" transform="translate(-16.85 -3.01)"/><path class="cls-5" d="M33.34,41.68a11.23,11.23,0,0,1-3-.8c-.1-.06-.13-.06-.15-.06A19.69,19.69,0,0,1,28.56,39a16.49,16.49,0,0,1-1.06-1.59s.13,0,.2,0c.8.27,2.05,2.46,2.07,2.48a12.48,12.48,0,0,0,1.92.52,16.34,16.34,0,0,1-1.82-3.7c-1.11.57-2.53-2.38-2.08-3.62.09-.25.38-.78,1.14-.21-.57-1.31-.42-3.27,1-3.27,0,4.34.62,8.08,3.45,12.09" transform="translate(-16.85 -3.01)"/><path class="cls-5" d="M42.62,42.57c-.16.62-1,1.21-2.25.71.57.75.08,1.41-.93,1.22-.79-.14-1.72-.77-1.79-1.4-1-.07-1.86-.17-2.65-.28a10,10,0,0,0,2.49,2.11c.11,0,.27,0,.81.16s1.33.56,2,.8l-.15,0c-.51-.08-.64-.11-.93-.17a9.59,9.59,0,0,1-5.9-4h0a59.71,59.71,0,0,0,9.3.64,2.11,2.11,0,0,1,0,.25" transform="translate(-16.85 -3.01)"/><path class="cls-2" d="M26.89,29.16a5.55,5.55,0,0,1-1.66-.67,18.62,18.62,0,0,1,9-15.32,7.61,7.61,0,0,0-2.41,3.23,20.46,20.46,0,0,0-4.94,12.76" transform="translate(-16.85 -3.01)"/><path class="cls-2" d="M33.3,30.23c-1.3-.12-2.53-.3-3.64-.49a24.64,24.64,0,0,1,1.92-9.08,15.37,15.37,0,0,0,2.11,4.91,35.57,35.57,0,0,0-.39,4.66" transform="translate(-16.85 -3.01)"/><path class="cls-2" d="M42.38,17.54c0,2,0,4,0,5.54s0,2.67,0,2.88a56.34,56.34,0,0,1-4-4.5c.86-5.55,2.42-9.93,4.2-10.93h0C42.49,11.05,42.42,14.2,42.38,17.54Z" transform="translate(-16.85 -3.01)"/><path class="cls-2" d="M36.12,17.33a29.91,29.91,0,0,0-2.42,8.24,34.43,34.43,0,0,0,3.94,4.95,62.62,62.62,0,0,1,.71-9.07A13.11,13.11,0,0,1,36.12,17.33Z" transform="translate(-16.85 -3.01)"/><path class="cls-2" d="M38.68,11.45a17.81,17.81,0,0,0-6.85,4.95,8,8,0,0,0-.25,4.26,19.74,19.74,0,0,1,4.68-6.8A5.06,5.06,0,0,1,38.68,11.45Z" transform="translate(-16.85 -3.01)"/><path class="cls-2" d="M36.12,17.34a5,5,0,0,1,.14-3.47,12.35,12.35,0,0,1,6.29-3.34c-2.5.67-4.77,3.29-6.43,6.81" transform="translate(-16.85 -3.01)"/><path class="cls-2" d="M23,16.56l-1.46-.72c-.33-.17-.39-.34-.23-.67l0-.05-.2-.1-.68,1.37.2.1,0,0c.15-.26.24-.35.38-.35a1.2,1.2,0,0,1,.45.16l1.26.63a1.15,1.15,0,0,1,.54,1.74,1.21,1.21,0,0,1-1.07.8,1.44,1.44,0,0,1-.64-.16l-1.51-.75c-.27-.13-.3-.26-.16-.56l.05-.09-.2-.1L19,19.25l.2.1,0-.05c.13-.25.21-.32.31-.32a.57.57,0,0,1,.26.08l1.59.79a1.57,1.57,0,0,0,2.21-.92A1.61,1.61,0,0,0,23,16.56Z" transform="translate(-16.85 -3.01)"/><path class="cls-2" d="M24.84,10.81c0-.09.06-.21.22-.4l0,0-.17-.14-1,1.16.17.14,0,0c.19-.21.3-.29.39-.29a.45.45,0,0,1,.26.13l1.74,1.47-4,.26-.66.78.17.15,0,0a.84.84,0,0,1,.4-.27l2.25,1.9c.17.15.22.29,0,.57l0,.06.16.14,1-1.16-.17-.14,0,0c-.18.22-.29.3-.39.3h0a.57.57,0,0,1-.33-.18L23,13.63l4.43-.28.15-.18L24.94,11C24.87,10.9,24.84,10.86,24.84,10.81Z" transform="translate(-16.85 -3.01)"/><path class="cls-2" d="M29.49,11.22a.57.57,0,0,1-.33.17c-.09,0-.18-.06-.3-.2l-1.64-2c-.24-.29-.19-.4.08-.63l0,0-.14-.17L26,9.38l.14.17,0,0a.6.6,0,0,1,.3-.14c.08,0,.16.06.26.18l1.65,2c.24.3.24.39,0,.62l0,0,.14.17,1.21-1-.14-.17Z" transform="translate(-16.85 -3.01)"/><path class="cls-2" d="M31.83,5.67l.05,0-.11-.19-1.3.76.1.19.05,0A.94.94,0,0,1,31,6.22a.13.13,0,0,1,.13.08,1,1,0,0,1,.1.36l.41,2.51-2.2-1.71a.24.24,0,0,1-.12-.18c0-.1.13-.22.4-.39l0,0-.11-.19-1.53.89.12.19,0,0a.59.59,0,0,1,.29-.11c.11,0,.22.07.4.21L31.82,10l.33-.18-.57-3.46C31.52,6,31.58,5.82,31.83,5.67Z" transform="translate(-16.85 -3.01)"/><path class="cls-2" d="M36.76,6.67v0c0,.55,0,.7-.41.83l-.88.3-.15,0c-.08,0-.14,0-.2-.21l-.4-1.16.91-.32a.49.49,0,0,1,.18,0c.09,0,.18.06.31.33l0,0,.2-.07-.41-1.18-.2.06v0c.08.34,0,.43-.15.48l-1,.34-.45-1.31,1.16-.4.12,0c.1,0,.24,0,.44.44l0,0,.2-.07L35.74,4,32.9,5l.07.2.18-.06a.93.93,0,0,1,.24,0c.15,0,.22.08.3.32l.84,2.42a.45.45,0,0,1,0,.35c0,.09-.16.16-.38.23L34,8.47l.08.2,3.13-1.08-.23-1Z" transform="translate(-16.85 -3.01)"/><path class="cls-2" d="M42.59,6.63a1.77,1.77,0,0,1-1.22-.45l-.54-.42a7.24,7.24,0,0,0-.68-.5,1.07,1.07,0,0,0,.63-1.08c-.09-.7-.76-1-1.8-.92-.39,0-.51.06-.76.1L38,3.41l-.51.08h0l0,.22.18,0h.13c.18,0,.28.06.32.39l.3,2.53c0,.39-.05.46-.37.5l-.16,0,0,.22,1.8-.22,0-.21-.19,0h-.14c-.19,0-.3-.06-.34-.36l-.11-1,.25,0,.39-.06h0a3.78,3.78,0,0,1,.66.45l.45.35a2,2,0,0,0,2,.5h0l0-.2ZM40.11,4.3A.9.9,0,0,1,40,5a1.11,1.11,0,0,1-.79.36h-.08l-.24,0-.22-1.87.24,0C39.64,3.4,40,3.65,40.11,4.3Z" transform="translate(-16.85 -3.01)"/><path class="cls-2" d="M44.84,4.7c-.41-.3-.81-.59-.78-1a.55.55,0,0,1,.67-.47A1,1,0,0,1,45.6,4v0l.2,0-.05-.88h-.17l0,0s0,0-.06,0h0a.61.61,0,0,1-.21-.06,1.53,1.53,0,0,0-.6-.16,1,1,0,0,0-1.2.84c0,.59.47,1,1,1.34s.83.62.8,1a.72.72,0,0,1-.83.6,1,1,0,0,1-.91-.89v0l-.21,0,.06,1h.17l0,0a.09.09,0,0,1,.08,0h0l.16,0a2.44,2.44,0,0,0,.66.18h.14a1.13,1.13,0,0,0,1.23-1C45.88,5.46,45.33,5.06,44.84,4.7Z" transform="translate(-16.85 -3.01)"/><path class="cls-2" d="M47.4,3.66l.05,0c.31.08.37.18.31.46l-.55,2.52c-.07.33-.14.39-.31.39l-.18,0h0l-.05.21,1.54.34.05-.22h-.05c-.19,0-.3-.09-.35-.17a.46.46,0,0,1,0-.34l.54-2.51c.07-.3.17-.36.32-.36l.23,0h0L49,3.79l-1.54-.34Z" transform="translate(-16.85 -3.01)"/><path class="cls-2" d="M53.64,5.36a0,0,0,0,1,0,0l-.1,0L50.79,4.28a.24.24,0,0,1-.09-.06s0,0,0,0v0l-.19-.07L50,5l.2.08,0,0c.2-.34.33-.47.47-.47l.12,0,.93.37L50.66,7.74c-.09.22-.18.26-.28.26a.78.78,0,0,1-.26-.06l-.26-.1-.08.2,1.87.74.08-.2-.25-.1c-.17-.07-.26-.13-.29-.21a.44.44,0,0,1,0-.31l1.09-2.73.93.37c.18.07.24.19.13.72v0l.2.07.3-1-.19-.08Z" transform="translate(-16.85 -3.01)"/><path class="cls-2" d="M57.25,7.82l0,0c.16.1.24.19.23.25s-.07.12-.21.19L55.88,9l0-1.69C55.91,7,56,7,56,7a.75.75,0,0,1,.32.15l0,0L56.47,7l-1.42-1-.13.18,0,0c.29.21.36.33.35.88l0,2-.46.7c-.17.25-.31.26-.58.08l-.14-.09L54,10l1.47,1,.12-.18-.1-.07a.51.51,0,0,1-.24-.27.37.37,0,0,1,.1-.3l.49-.74,1.77-.86A1.09,1.09,0,0,1,58,8.47a.83.83,0,0,1,.44.14l0,0,.12-.18-1.22-.82Z" transform="translate(-16.85 -3.01)"/><path class="cls-2" d="M63.09,13a2.29,2.29,0,0,0-1.8-1,2,2,0,0,0-1.45,3.4,2.23,2.23,0,0,0,1.76.9h0a2.09,2.09,0,0,0,1.28-.44A2,2,0,0,0,63.09,13Zm0,1.21a2,2,0,0,1-.8,1.27,1.91,1.91,0,0,1-1.15.43,1.25,1.25,0,0,1-1-.53,1.75,1.75,0,0,1,.47-2.48,2,2,0,0,1,1.14-.4,1.3,1.3,0,0,1,1.06.53A1.54,1.54,0,0,1,63.11,14.23Z" transform="translate(-16.85 -3.01)"/><path class="cls-2" d="M65.11,16.24l-.2.09,0,.05c.16.34.06.42-.29.58L62.5,18a1.12,1.12,0,0,1-.39.13c-.1,0-.16-.07-.27-.26l0,0-.2.09.68,1.43.2-.1,0,0c-.1-.2-.12-.32-.09-.4s.1-.14.26-.21L63.79,18l.46,1c.11.22.1.36-.2.52l0,0,.09.19,1.06-.51L65.06,19l0,0c-.21.09-.35.05-.43-.13l-.49-1,1.19-.57.47,1c.14.29.09.44-.21.59l-.05,0,.09.19.74-.35Z" transform="translate(-16.85 -3.01)"/><path class="cls-2" d="M21.73,43.35l2.18-4h0L21,41.2c-.33.21-.22.5,0,.79l-.12.09-.95-1.31.12-.08c.33.45.47.44,1.07.05l2.54-1.61c.43-.28.54-.37.28-.78l.11-.08.69.95L22.61,43l4.24-.79.67.92-.11.08c-.25-.29-.34-.4-.55-.23l-2.69,2.25c-.54.46-.51.51-.18,1l-.12.09-1.16-1.61.12-.08c.21.29.5.52.81.25l2.68-2.21v0l-4.47.87Z" transform="translate(-16.85 -3.01)"/><path class="cls-2" d="M29.4,47.54l-1.08-.79,1.6-1.07Zm-.1.35-.41,1.44a.94.94,0,0,1-.12.31c-.13.17-.29.11-.64-.15L28,49.37l-.08.12,1.71,1.26.09-.12a.6.6,0,0,1-.28-.81l1.24-4.41L30.1,45l-.05.18-3.41,2.26c-.6.4-.72.41-1.12.12l-.09.12,1.44,1.06.08-.12-.1-.07c-.34-.25-.46-.44-.33-.6a2.08,2.08,0,0,1,.41-.31L28,46.94Z" transform="translate(-16.85 -3.01)"/><path class="cls-2" d="M34.27,47.78l.37.11c1.12.41,1.24,1,1,1.72a1.22,1.22,0,0,1-1.77.74,2.82,2.82,0,0,1-.45-.18Zm-.9,2.53.37.15.5.16a6.17,6.17,0,0,1,.52.92l.31.65A2.49,2.49,0,0,0,37,53.85l.05-.13a2.32,2.32,0,0,1-1.18-1.24l-.37-.78A8.33,8.33,0,0,0,35,50.64a1.32,1.32,0,0,0,1.39-.83c.26-.75-.15-1.52-1.5-2l-.92-.3L33,47.23l-.05.14.16.05c.42.15.5.33.34.78l-1.09,3.07c-.18.49-.37.55-.8.4l-.12-.05-.05.14,2.06.74.05-.14-.17-.06c-.41-.15-.54-.32-.39-.76Z" transform="translate(-16.85 -3.01)"/><path class="cls-2" d="M42.14,50.15c.29-.4.15-.55-.34-.59v-.15l1.74.15v.15a1,1,0,0,0-1,.52l-1.47,2.06L41,53.45c0,.41.1.58.57.62h.1v.15l-2.12-.18V53.9h.15c.48,0,.63-.12.66-.5l.09-1.09-1.18-2.26c-.33-.62-.5-.74-1-.8v-.15l2,.18v.14c-.6,0-.65.09-.45.47l1.07,2Z" transform="translate(-16.85 -3.01)"/><path class="cls-2" d="M48.57,53.62l-3.41.58,0-.15.25,0c.35-.06.46-.19.4-.58l-.57-3.38c-.07-.41-.22-.55-.7-.47l-.11,0,0-.15,2.25-.38,0,.15-.28,0c-.5.09-.62.16-.54.64l.6,3.51c0,.21.13.27.35.23l1.12-.18c.45-.08.56-.28.93-1l.13,0Z" transform="translate(-16.85 -3.01)"/><path class="cls-2" d="M52.27,49.76,51,50.27l-.09-1.91Zm.25.26,1,1.1a.94.94,0,0,1,.2.26c.08.2-.05.31-.45.48l-.19.07.06.14,2-.82-.06-.14a.61.61,0,0,1-.83-.17L51.08,47.6l-.62.26.13.13.18,4.09c0,.71,0,.83-.48,1l.06.13L52,52.55l-.06-.13-.11,0c-.39.16-.61.17-.69,0a2,2,0,0,1,0-.51L51,50.64Z" transform="translate(-16.85 -3.01)"/><path class="cls-2" d="M60.89,47l-5.76-.69,2.11,2.56c.36.43.53.44,1,0l.1.12L57,50.18l-.09-.11,0,0c.37-.31.39-.53.16-.81l-2.42-2.93a1.22,1.22,0,0,0-.63.26l-.09-.11.94-.77,5.23.6-2-2.37c-.3-.36-.46-.34-1,0l-.09-.11,1.4-1.15.09.11c-.45.37-.48.53-.29.76L61,46.9Z" transform="translate(-16.85 -3.01)"/><path class="cls-2" d="M59.76,41.07a4.44,4.44,0,0,1,.31-.54,2.59,2.59,0,0,1,1.6-1.33A2.33,2.33,0,0,1,63.93,43c-.33.51-.44.47-.7.3Zm3,2.71c.38.24.37.46.14.81l-.07.12.13.07L64.3,42.7a2.64,2.64,0,0,0-.6-3.79c-1.08-.69-2.44-.5-3.55,1.22-.22.34-.47.74-.68,1.1l-.56.94.13.08.08-.13c.25-.38.42-.42.85-.15Z" transform="translate(-16.85 -3.01)"/><path class="cls-2" d="M18,26.91v3.31c0,.18,0,.22.21.22h.32v.11H17.08v-.11h.31c.18,0,.22-.05.22-.22V27.37a4,4,0,0,1-.72.47l0-.08a5.44,5.44,0,0,0,.94-.85Z" transform="translate(-16.85 -3.01)"/><path class="cls-2" d="M21.29,29.74a.76.76,0,0,1-.75.79.78.78,0,0,1-.76-.85,1,1,0,0,1,.58-.87C21,29.11,21.29,29.36,21.29,29.74Zm.25-2a.94.94,0,0,0-1-.82,1,1,0,0,0-1,.93c0,.39.25.67.78.92-.56.22-.83.53-.83.93a1,1,0,0,0,1.11.94,1.08,1.08,0,0,0,1.13-1.05c0-.44-.26-.74-.86-1C21.3,28.37,21.54,28.1,21.54,27.73Zm-.34,0a.88.88,0,0,1-.48.78c-.74-.31-.91-.54-.91-.85a.67.67,0,0,1,.7-.64A.68.68,0,0,1,21.2,27.73Z" transform="translate(-16.85 -3.01)"/><path class="cls-2" d="M64,27.32h1.35c.1,0,.14,0,.17-.07h.11l-.07.44H64.13l0,1a1.31,1.31,0,0,1,.61-.14,1.18,1.18,0,0,1,1.17,1.18A1.26,1.26,0,0,1,64.53,31c-.46,0-.83-.16-.83-.36a.18.18,0,0,1,.18-.18c.31,0,.42.4.78.4a.9.9,0,0,0,.78-1,.86.86,0,0,0-.85-.92.92.92,0,0,0-.6.23l-.06,0Z" transform="translate(-16.85 -3.01)"/><path class="cls-2" d="M68.36,29.86c0,.65-.27,1-.67,1s-.78-.31-.78-1.28a1.33,1.33,0,0,1,0-.35,1.25,1.25,0,0,1,.75-.34C68.08,28.9,68.36,29.25,68.36,29.86Zm0-2.61a2.34,2.34,0,0,0-1.91,2.23c0,.88.49,1.49,1.2,1.49a1.14,1.14,0,0,0,1.11-1.16,1,1,0,0,0-1-1,1.22,1.22,0,0,0-.81.33,2.17,2.17,0,0,1,1.49-1.76Z" transform="translate(-16.85 -3.01)"/></g></g></svg>