<svg xmlns="http://www.w3.org/2000/svg" viewBox="0 0 146.09 27"><defs><style>.cls-1{fill:#fff;}</style></defs><title>dingman</title><g id="Layer_2" data-name="Layer 2"><g id="logos"><g id="_1K" data-name="1K"><g id="dingman"><path class="cls-1" d="M7.08,5a6.42,6.42,0,0,1-.36,2.28,4.18,4.18,0,0,1-1,1.56,3.79,3.79,0,0,1-1.49.87A5.77,5.77,0,0,1,2.4,10H0V.15H2.6A5.42,5.42,0,0,1,4.39.44a3.64,3.64,0,0,1,1.42.87,4.11,4.11,0,0,1,.93,1.51A6.2,6.2,0,0,1,7.08,5ZM6,5A4.22,4.22,0,0,0,5.1,2.15a3.29,3.29,0,0,0-2.59-1H1.1V9H2.54A4.31,4.31,0,0,0,4,8.77a2.57,2.57,0,0,0,1.08-.69,3.19,3.19,0,0,0,.69-1.23A6.33,6.33,0,0,0,6,5Z"/><path class="cls-1" d="M9.31,10V.15h1.1V10Z"/><path class="cls-1" d="M19.13,10,14.82,3.26,14.64,3c-.07-.12-.13-.24-.2-.35s-.13-.23-.19-.33-.1-.19-.13-.26v8H13.06V.15h1.07L18.39,7a2.64,2.64,0,0,1,.18.3c.07.12.13.24.2.35s.13.23.19.33l.13.26V.15h1.07V10Z"/><path class="cls-1" d="M29.65,7.85a3.48,3.48,0,0,1-.77,1.28,3,3,0,0,1-1.16.76,4,4,0,0,1-1.44.25,3.53,3.53,0,0,1-1.63-.38A3.88,3.88,0,0,1,23.39,8.7a5,5,0,0,1-.8-1.61,6.72,6.72,0,0,1-.28-2,6.91,6.91,0,0,1,.29-2,4.9,4.9,0,0,1,.83-1.61A3.7,3.7,0,0,1,24.7.39,3.44,3.44,0,0,1,26.33,0a3.65,3.65,0,0,1,3.13,1.57l-.87.66a3.45,3.45,0,0,0-1-.94A2.61,2.61,0,0,0,26.3,1a2.37,2.37,0,0,0-1.17.3,2.79,2.79,0,0,0-.91.84,4.4,4.4,0,0,0-.6,1.27,6.1,6.1,0,0,0-.22,1.65,5.72,5.72,0,0,0,.23,1.65A4.28,4.28,0,0,0,24.24,8a2.82,2.82,0,0,0,.92.84,2.23,2.23,0,0,0,1.15.31A2.36,2.36,0,0,0,28.2,8.4a3.22,3.22,0,0,0,.66-2.19V6.13H27.09v-1h2.83v1A5.31,5.31,0,0,1,29.65,7.85Z"/><path class="cls-1" d="M39.42,10V2.28c0,.09-.06.2-.11.34s-.09.28-.14.42L39,3.48c-.06.15-.11.29-.17.43l-2.62,6.33L33.63,3.91c-.06-.13-.11-.26-.17-.42L33.3,3c0-.14-.1-.28-.14-.42s-.08-.25-.1-.34V10H32V.15h1.22L35.53,6c.06.15.12.32.19.49l.21.54c.06.17.12.34.18.49s.1.29.13.39l.12-.39.19-.51c.06-.18.13-.35.2-.53s.14-.34.19-.48L39.29.15h1.2V10Z"/><path class="cls-1" d="M49.39,10l-.84-2.5H44.49L43.63,10H42.51L45.92.15h1.21L50.55,10ZM47.13,3.26,47,2.74q-.09-.29-.18-.54c-.06-.17-.1-.34-.15-.49s-.07-.29-.1-.39c0,.1-.07.23-.11.38s-.09.31-.14.49-.12.37-.19.56-.12.37-.18.54l-1.08,3.2h3.38Z"/><path class="cls-1" d="M58.65,10,54.34,3.26q-.09-.13-.18-.3c-.07-.12-.13-.24-.2-.35l-.19-.33A1.55,1.55,0,0,1,53.64,2v8H52.58V.15h1.07L57.91,7l.18.3a4,4,0,0,0,.2.35c.06.12.13.23.19.33s.1.19.13.26V.15h1.07V10Z"/><path class="cls-1" d="M71.34,9.69a3.8,3.8,0,0,1-1.89.45,3.56,3.56,0,0,1-1.63-.38A3.88,3.88,0,0,1,66.56,8.7a5,5,0,0,1-.8-1.61,6.72,6.72,0,0,1-.28-2,6.91,6.91,0,0,1,.29-2,4.9,4.9,0,0,1,.83-1.61A3.7,3.7,0,0,1,67.87.39,3.44,3.44,0,0,1,69.5,0a3.65,3.65,0,0,1,3.13,1.57l-.87.66a3.56,3.56,0,0,0-1-.94A2.67,2.67,0,0,0,69.47,1a2.37,2.37,0,0,0-1.17.3,2.79,2.79,0,0,0-.91.84,4.4,4.4,0,0,0-.6,1.27,6.1,6.1,0,0,0-.22,1.65,6.1,6.1,0,0,0,.22,1.65A4.28,4.28,0,0,0,67.4,8a3.07,3.07,0,0,0,.93.84,2.23,2.23,0,0,0,1.15.31,2.74,2.74,0,0,0,1.38-.34,3.63,3.63,0,0,0,1-1l.76.66A4.08,4.08,0,0,1,71.34,9.69Z"/><path class="cls-1" d="M74.72,10V.15h6v1H75.82V4.24h2.81v1H75.82V9h5.06v1Z"/><path class="cls-1" d="M89,10,84.73,3.26,84.54,3l-.19-.35-.19-.33c-.06-.11-.11-.19-.14-.26v8H83V.15H84L88.29,7c.06.08.12.19.19.3l.19.35.19.33c.06.11.11.19.14.26V.15h1.06V10Z"/><path class="cls-1" d="M96,1.15V10h-1.1V1.15H92v-1h6.88v1Z"/><path class="cls-1" d="M100.89,10V.15h6v1H102V4.24h2.81v1H102V9h5.06v1Z"/><path class="cls-1" d="M116.1,2.94a2.68,2.68,0,0,1-.64,1.85,3,3,0,0,1-1.68.93L115.94,10h-1.26L112.57,5.8h-2.33V10h-1.1V.15H113a4.26,4.26,0,0,1,1.21.17,2.74,2.74,0,0,1,1,.52,2.45,2.45,0,0,1,.65.86A3,3,0,0,1,116.1,2.94ZM115,3a1.73,1.73,0,0,0-.51-1.36,2.16,2.16,0,0,0-1.5-.46h-2.75V4.81h2.61a2.45,2.45,0,0,0,1.62-.46A1.72,1.72,0,0,0,115,3Z"/><path class="cls-1" d="M123,1.15V4.41h2.7v1H123V10h-1.09V.15h5.77v1Z"/><path class="cls-1" d="M137,5.06a6.93,6.93,0,0,1-.29,2,5,5,0,0,1-.84,1.61,3.77,3.77,0,0,1-1.3,1,3.6,3.6,0,0,1-1.67.38,3.62,3.62,0,0,1-3-1.42,4.75,4.75,0,0,1-.82-1.6,6.51,6.51,0,0,1-.29-2,7,7,0,0,1,.29-2,5.21,5.21,0,0,1,.83-1.61,3.77,3.77,0,0,1,1.3-1A3.69,3.69,0,0,1,132.9,0a3.65,3.65,0,0,1,1.66.37,3.83,3.83,0,0,1,1.29,1,5.16,5.16,0,0,1,.83,1.6A6.93,6.93,0,0,1,137,5.06Zm-1.1,0a5.51,5.51,0,0,0-.23-1.68A3.9,3.9,0,0,0,135,2.12a2.76,2.76,0,0,0-.95-.83,2.45,2.45,0,0,0-1.2-.29,2.36,2.36,0,0,0-1.17.29,2.76,2.76,0,0,0-.93.81,3.91,3.91,0,0,0-.62,1.28,5.83,5.83,0,0,0-.23,1.68,5.5,5.5,0,0,0,.24,1.68A4.08,4.08,0,0,0,130.77,8a2.77,2.77,0,0,0,.95.83,2.57,2.57,0,0,0,2.37,0A2.72,2.72,0,0,0,135,8a4,4,0,0,0,.62-1.28A5.82,5.82,0,0,0,135.87,5.09Z"/><path class="cls-1" d="M146.09,2.94a2.68,2.68,0,0,1-.63,1.85,3.1,3.1,0,0,1-1.69.93L145.93,10h-1.26L142.56,5.8h-2.33V10h-1.1V.15H143a4.19,4.19,0,0,1,1.2.17,2.74,2.74,0,0,1,1,.52,2.34,2.34,0,0,1,.65.86A3,3,0,0,1,146.09,2.94ZM145,3a1.73,1.73,0,0,0-.51-1.36,2.16,2.16,0,0,0-1.5-.46h-2.75V4.81h2.61a2.48,2.48,0,0,0,1.63-.46A1.72,1.72,0,0,0,145,3Z"/><path class="cls-1" d="M5.8,26.85V17h5.94v1H6.9V21.1H9.71v1H6.9v3.75H12v1Z"/><path class="cls-1" d="M20.12,26.85l-4.31-6.73-.19-.31-.19-.35c-.07-.11-.13-.22-.19-.33a1.34,1.34,0,0,1-.14-.25v8h-1V17h1.07l4.25,6.86a3.23,3.23,0,0,1,.19.3l.19.35.19.33.14.25V17h1.06v9.84Z"/><path class="cls-1" d="M27.1,18v8.84H26V18H23.11V17H30v1Z"/><path class="cls-1" d="M38.93,19.79a2.69,2.69,0,0,1-.63,1.86,3,3,0,0,1-1.69.92l2.16,4.28H37.51L35.4,22.66H33.07v4.19H32V17h3.9a4.19,4.19,0,0,1,1.2.17,2.57,2.57,0,0,1,1,.51,2.37,2.37,0,0,1,.65.87A2.9,2.9,0,0,1,38.93,19.79Zm-1.1,0a1.75,1.75,0,0,0-.51-1.37,2.2,2.2,0,0,0-1.5-.45H33.07v3.65h2.61a2.5,2.5,0,0,0,1.63-.45A1.74,1.74,0,0,0,37.83,19.83Z"/><path class="cls-1" d="M41.11,26.85V17h5.94v1H42.2V21.1H45v1H42.2v3.75h5.06v1Z"/><path class="cls-1" d="M56.17,20a3.31,3.31,0,0,1-.25,1.3,2.54,2.54,0,0,1-.68.95,3,3,0,0,1-1.05.59,4.54,4.54,0,0,1-1.35.19H50.45v3.87h-1.1V17H53a4.15,4.15,0,0,1,1.25.18,2.65,2.65,0,0,1,1,.54,2.5,2.5,0,0,1,.66.92A3.24,3.24,0,0,1,56.17,20Zm-1.1,0a2,2,0,0,0-.53-1.47A2.16,2.16,0,0,0,53,18H50.45v4h2.4C54.33,22,55.07,21.32,55.07,20Z"/><path class="cls-1" d="M65,19.79a2.69,2.69,0,0,1-.63,1.86,3,3,0,0,1-1.69.92l2.16,4.28H63.57l-2.11-4.19H59.13v4.19H58V17h3.9a4.19,4.19,0,0,1,1.2.17,2.57,2.57,0,0,1,1,.51,2.49,2.49,0,0,1,.65.87A2.9,2.9,0,0,1,65,19.79Zm-1.1,0a1.75,1.75,0,0,0-.51-1.37,2.2,2.2,0,0,0-1.5-.45H59.13v3.65h2.61a2.5,2.5,0,0,0,1.63-.45A1.74,1.74,0,0,0,63.89,19.83Z"/><path class="cls-1" d="M67.17,26.85V17h5.94v1H68.26V21.1h2.81v1H68.26v3.75h5.06v1Z"/><path class="cls-1" d="M81.48,26.85l-4.31-6.73a2.84,2.84,0,0,1-.18-.31,4,4,0,0,1-.2-.35c-.07-.11-.13-.22-.19-.33a1.21,1.21,0,0,1-.13-.25v8H75.41V17h1.07l4.26,6.86.18.3c.06.12.13.23.2.35a2.59,2.59,0,0,0,.19.33c.06.1.1.19.13.25V17h1.07v9.84Z"/><path class="cls-1" d="M85.08,26.85V17H91v1H86.17V21.1H89v1H86.17v3.75h5.06v1Z"/><path class="cls-1" d="M99.46,25.94A3.21,3.21,0,0,1,96.81,27,3.32,3.32,0,0,1,94.14,26a4.67,4.67,0,0,1-.89-3.09V17h1.1v5.82c0,2.11.84,3.17,2.51,3.17a2.07,2.07,0,0,0,1.83-.77,4.11,4.11,0,0,0,.55-2.37V17h1.09v5.82A4.8,4.8,0,0,1,99.46,25.94Z"/><path class="cls-1" d="M109.8,19.79a2.69,2.69,0,0,1-.63,1.86,3,3,0,0,1-1.69.92l2.17,4.28h-1.27l-2.1-4.19h-2.34v4.19h-1.09V17h3.89a4.31,4.31,0,0,1,1.21.17,2.65,2.65,0,0,1,1,.51,2.46,2.46,0,0,1,.64.87A2.9,2.9,0,0,1,109.8,19.79Zm-1.09,0a1.72,1.72,0,0,0-.52-1.37A2.19,2.19,0,0,0,106.7,18h-2.76v3.65h2.62a2.45,2.45,0,0,0,1.62-.45A1.75,1.75,0,0,0,108.71,19.83Z"/><path class="cls-1" d="M118,24.26a2.61,2.61,0,0,1-.22,1.08,2.29,2.29,0,0,1-.64.87,3,3,0,0,1-1,.58,4.21,4.21,0,0,1-1.38.21,4.43,4.43,0,0,1-1.86-.39,4.67,4.67,0,0,1-1.44-1l.73-.82a5.16,5.16,0,0,0,1.21.86,3,3,0,0,0,1.4.32,2.45,2.45,0,0,0,1.56-.45,1.5,1.5,0,0,0,.56-1.23,1.56,1.56,0,0,0-.11-.62,1.32,1.32,0,0,0-.38-.52,3.69,3.69,0,0,0-.73-.47,8.42,8.42,0,0,0-1.12-.47,10,10,0,0,1-1.34-.57,3.6,3.6,0,0,1-.87-.62,2,2,0,0,1-.48-.74,2.69,2.69,0,0,1-.15-.94,2.38,2.38,0,0,1,.23-1.05,2.19,2.19,0,0,1,.62-.8,2.86,2.86,0,0,1,1-.49,4.18,4.18,0,0,1,1.26-.17,4.48,4.48,0,0,1,1.68.28,5.3,5.3,0,0,1,1.31.77l-.7.86a4.29,4.29,0,0,0-1.08-.68,3.6,3.6,0,0,0-2.15-.12,1.7,1.7,0,0,0-.6.32,1.09,1.09,0,0,0-.34.46,1.42,1.42,0,0,0-.1.55,1.65,1.65,0,0,0,.08.56,1.19,1.19,0,0,0,.34.47,2.81,2.81,0,0,0,.71.46,11.57,11.57,0,0,0,1.2.49,11.65,11.65,0,0,1,1.36.59,3.53,3.53,0,0,1,.88.65,2,2,0,0,1,.47.77A3.2,3.2,0,0,1,118,24.26Z"/><path class="cls-1" d="M126.28,26.85V22.21h-4.89v4.64H120.3V17h1.09v4.2h4.89V17h1.1v9.84Z"/><path class="cls-1" d="M130,26.85V17h1.1v9.84Z"/><path class="cls-1" d="M140.6,20a3.31,3.31,0,0,1-.25,1.3,2.54,2.54,0,0,1-.68.95,3,3,0,0,1-1.06.59,4.43,4.43,0,0,1-1.34.19h-2.39v3.87h-1.1V17h3.68a4.15,4.15,0,0,1,1.25.18,2.73,2.73,0,0,1,1,.54,2.5,2.5,0,0,1,.66.92A3.24,3.24,0,0,1,140.6,20Zm-1.1,0a2,2,0,0,0-.53-1.47,2.18,2.18,0,0,0-1.55-.51h-2.54v4h2.4C138.76,22,139.5,21.32,139.5,20Z"/></g></g></g></g></svg>