<?xml version="1.0" encoding="utf-8"?>
<!-- Generator: Adobe Illustrator 19.1.0, SVG Export Plug-In . SVG Version: 6.00 Build 0)  -->
<svg version="1.1" xmlns="http://www.w3.org/2000/svg" xmlns:xlink="http://www.w3.org/1999/xlink" x="0px" y="0px"
	 viewBox="0 0 504 504" style="enable-background:new 0 0 504 504;" xml:space="preserve">
<style type="text/css">
	.Arched_x0020_Green{fill:url(#SVGID_1_);stroke:#FFFFFF;stroke-width:0.25;stroke-miterlimit:1;}
	.st0{display:none;}
	.st1{display:inline;}
	.st2{fill:#FFFFFF;}
	.st3{fill:#E31837;}
</style>
<linearGradient id="SVGID_1_" gradientUnits="userSpaceOnUse" x1="27.0596" y1="1080" x2="27.7667" y2="1079.2928">
	<stop  offset="0" style="stop-color:#20AC4B"/>
	<stop  offset="0.9831" style="stop-color:#19361A"/>
</linearGradient>
<g id="white_gap_color" class="st0">
	<g class="st1">
		<g>
			<path class="st2" d="M352.5,246.9c-0.6-18.6-4.5-36.2-11-51.8l-6.7-2.1l2.7-6.5c-9.3-18.5-22.4-33.7-37.9-44l-8.1,1.4l-1.9-7.3
				c-11.6-5.8-24.3-9-37.6-9c-13.3,0-26,3.2-37.6,9l-1.9,7.2l-8.1-1.4c-15.5,10.3-28.6,25.6-37.9,44l2.7,6.6l-6.7,2.1
				c-6.5,15.6-10.4,33.2-11,51.8l4.9,5.1l-4.9,5.1c0.6,18.6,4.5,36.2,11,51.8l6.7,2.1l-2.7,6.6c9.3,18.5,22.4,33.7,37.9,44l8.1-1.4
				l1.9,7.2c11.6,5.8,24.3,9,37.6,9c13.3,0,26-3.2,37.6-9l1.9-7.2l8.1,1.4c15.5-10.3,28.6-25.6,37.9-44l-2.7-6.6l6.7-2.1
				c6.5-15.6,10.4-33.2,11-51.8l-4.9-5.1L352.5,246.9z"/>
		</g>
	</g>
</g>
<g id="white_gap_color_copy">
	<g>
		<g>
			<path class="st2" d="M348.6,247.1c-0.6-18.2-4.3-35.3-10.6-50.6l-6.4-2.1l2.6-6.4c-8.9-18-21.5-32.9-36.4-43l-7.8,1.4l-1.9-7.1
				c-11.2-5.7-23.4-8.8-36.2-8.8c-12.8,0-25,3.1-36.1,8.8l-1.9,7.1l-7.8-1.4c-14.9,10.1-27.5,25-36.5,43l2.6,6.4l-6.4,2.1
				c-6.3,15.3-10,32.4-10.6,50.6l4.8,4.9l-4.8,4.9c0.6,18.2,4.3,35.3,10.6,50.6l6.4,2.1l-2.6,6.4c8.9,18,21.5,32.9,36.4,43l7.8-1.4
				l1.9,7.1c11.2,5.7,23.4,8.8,36.1,8.8c12.8,0,25-3.2,36.2-8.8l1.9-7.1l7.8,1.4c14.9-10.1,27.5-25,36.4-43l-2.6-6.4l6.4-2.1
				c6.3-15.3,10-32.4,10.6-50.6l-4.8-4.9L348.6,247.1z"/>
		</g>
	</g>
</g>
<g id="shell">
	<g>
		<path class="st3" d="M234.5,170.7h34.9l2.6-1.4l9.4-13.3l-1.3-4.8c-8.8-4.1-18.3-6.4-28.2-6.4c-9.9,0-19.4,2.3-28.2,6.4l-1.3,4.8
			l9.4,13.3L234.5,170.7z M269.5,223.5l2.6-1.4l14.9-21.1v-3.7l-14.9-21.1l-2.6-1.4h-34.9l-2.6,1.4L217,197.3v3.7l14.9,21.1l2.6,1.4
			H269.5z M277.6,174.6l14.9,21.1l2.6,1.4h23.7l1.9-4.7c-7.5-14.5-17.7-26.5-29.7-34.9l-4.5,0.8l-8.9,12.6V174.6z M208.9,249.9
			l2.6-1.4l14.9-21.1v-3.7l-14.9-21.1l-2.6-1.4h-24.3l-6.2,2.1c-5.1,12.9-8.2,27.3-8.8,42.6l3.9,4.1H208.9z M287,250.1L272.1,229
			l-2.6-1.4h-34.9l-2.6,1.4L217,250.1v3.7l14.9,21.1l2.6,1.4h34.9l2.6-1.4l14.9-21.1V250.1z M234.5,280.5l-2.6,1.4L217,302.9v3.7
			l14.9,21.1l2.6,1.4h34.9l2.6-1.4l14.9-21.1v-3.7l-14.9-21.1l-2.6-1.4H234.5z M208.9,197.1l2.6-1.4l14.9-21.1v-3.7l-8.9-12.6
			l-4.5-0.8c-12,8.4-22.2,20.4-29.7,34.9l1.9,4.7H208.9z M295.1,254.1l-2.6,1.4l-14.9,21.1v3.7l14.9,21.1l2.6,1.4h24.3l6.2-2.1
			c5.1-12.9,8.2-27.3,8.8-42.6l-3.9-4.1H295.1z M295.1,306.9l-2.6,1.4l-14.9,21.1v3.7l8.9,12.6l4.5,0.8c12-8.4,22.2-20.4,29.7-34.9
			l-1.9-4.7H295.1z M208.9,302.8l2.6-1.4l14.9-21.1v-3.7l-14.9-21.1l-2.6-1.4h-35.4l-3.9,4.1c0.7,15.3,3.8,29.7,8.8,42.6l6.2,2.1
			H208.9z M295.1,201.2l-2.6,1.4l-14.9,21.1v3.7l14.9,21.1l2.6,1.4h35.4l3.9-4.1c-0.7-15.3-3.8-29.7-8.8-42.6l-6.2-2.1H295.1z
			 M269.5,333.3h-34.9l-2.6,1.4l-9.4,13.3l1.3,4.8c8.8,4.1,18.3,6.4,28.2,6.4c9.9,0,19.4-2.3,28.2-6.4l1.3-4.8l-9.4-13.3
			L269.5,333.3z M226.4,329.3l-14.9-21.1l-2.6-1.4h-23.7l-1.9,4.7c7.5,14.5,17.7,26.5,29.7,34.9l4.5-0.8l8.9-12.6V329.3z"/>
		<g>
			<g>
				<path class="st3" d="M348.7,247.1c-0.6-18.2-4.3-35.3-10.6-50.6l-6.4-2.1l2.6-6.4c-8.9-18-21.5-32.9-36.4-43l-7.8,1.4l-1.9-7.1
					c-11.2-5.7-23.4-8.8-36.2-8.8c-12.8,0-25,3.1-36.1,8.8l-1.9,7.1l-7.8-1.4c-14.9,10.1-27.5,25-36.5,43l2.6,6.4l-6.4,2.1
					c-6.3,15.3-10,32.4-10.6,50.6l4.8,4.9l-4.8,4.9c0.6,18.2,4.3,35.3,10.6,50.6l6.4,2.1l-2.6,6.4c8.9,18,21.5,32.9,36.4,43l7.8-1.4
					l1.9,7.1c11.2,5.7,23.4,8.8,36.1,8.8c12.8,0,25-3.2,36.2-8.8l1.9-7.1l7.8,1.4c14.9-10.1,27.5-25,36.4-43l-2.6-6.4l6.4-2.1
					c6.3-15.3,10-32.4,10.6-50.6l-4.8-4.9L348.7,247.1z M338.9,256c-0.5,17.2-4,33.3-9.8,47.7l-5.7,1.9l2.3,5.7
					c-8.3,16.8-19.9,30.7-33.8,39.8l-6.4-1.1l-1.5,5.8c-9.9,5-20.7,7.8-32,7.8c-11.3,0-22.1-2.8-32-7.8l-1.5-5.8l-6.4,1.1
					c-13.8-9.2-25.5-23-33.8-39.8l2.3-5.7l-5.7-1.9c-5.9-14.3-9.3-30.5-9.8-47.7l3.8-4l-3.8-4c0.5-17.2,4-33.3,9.8-47.7l5.7-1.9
					l-2.3-5.7c8.3-16.8,19.9-30.7,33.8-39.8l6.4,1.1l1.5-5.8c9.9-5,20.7-7.8,32-7.8c11.3,0,22.1,2.8,32,7.8l1.5,5.8l6.4-1.1
					c13.8,9.2,25.5,23,33.8,39.8l-2.3,5.7l5.7,1.9c5.9,14.3,9.3,30.5,9.8,47.7l-3.8,4L338.9,256z"/>
			</g>
		</g>
	</g>
</g>
<g id="blocks">
	<polygon class="st3" points="163.6,210.6 161.9,223.3 161.9,273.2 166.1,293.4 335.9,293.4 340.3,277.7 340.3,244.7 342.1,225.1 
		337.3,210.6 163.6,210.6 	"/>
</g>
<g id="text">
	<g>
		<path class="st2" d="M186.3,214.2l2.6,16h0.1l2.2-16h7.2l2.8,27.1h-5.5l-1.3-19.5h-0.1l-0.9,6.7l-2.3,12.8H187l-2.6-13l-0.9-6
			v-0.5h-0.1l-0.8,19.5h-5.8l2.4-27.1H186.3z"/>
		<path class="st2" d="M214.5,214.2l6.5,27.1h-5.7l-1-4.6h-5.4l-1,4.6h-5.3l6.3-27.1H214.5z M212.1,225.3l-0.6-4.1h-0.1l-0.6,4.1
			l-1.2,7.2h3.8L212.1,225.3z"/>
		<path class="st2" d="M222.8,241.3v-27.1h5.4c3.4,0,9.5,0.4,9.5,7.8c0,3-1.2,5.5-3.9,7l4.7,12.3h-5.6l-4.7-12.5h-0.1v12.5H222.8z
			 M228.1,225.8l0.9,0c2.4,0,3.4-1.7,3.4-3.9c0-1.9-0.9-3.5-3.6-3.4h-0.7V225.8z"/>
		<path class="st2" d="M244.3,214.2l2.8,7.4l0.4,1.3h0.1l0.6-2l2.4-6.7h6l-6.3,14.1v13h-5.4v-13l-6.5-14.1H244.3z"/>
		<path class="st2" d="M263.6,214.2v22.1h5.6v5h-11v-27.1H263.6z"/>
		<path class="st2" d="M282.2,214.2l6.5,27.1H283l-1-4.6h-5.4l-1,4.6h-5.3l6.3-27.1H282.2z M279.9,225.3l-0.6-4.1h-0.1l-0.6,4.1
			l-1.2,7.2h3.8L279.9,225.3z"/>
		<path class="st2" d="M295.7,214.2l6.7,16.4l0.1-0.1c-0.3-1.3-0.4-2.7-0.4-4.1v-12.2h5.4v27.1h-5.1l-6.6-16.4l-0.1,0.1l0.3,2.7
			l0,1.1v12.4h-5.4v-27.1H295.7z"/>
		<path class="st2" d="M310.8,241.3v-27.1h4.1c0.9,0,12.2-1.4,12.2,13.8c0,7.7-3,13.3-11.4,13.3H310.8z M321.6,227.9
			c0-3.5-1.1-8.9-5.5-8.9v17.5C320.4,236.7,321.6,231.3,321.6,227.9z"/>
		<path class="st2" d="M177.1,289.3v-44.1h6.6c1.5,0,19.8-2.2,19.8,22.4c0,12.6-4.9,21.7-18.6,21.7H177.1z M194.8,267.5
			c0-5.6-1.8-14.5-9-14.5v28.4C192.9,281.8,194.8,273,194.8,267.5z"/>
		<path class="st2" d="M216,245.2v44.1h-8.7v-44.1H216z"/>
		<path class="st2" d="M229.4,245.2l10.9,26.6l0.1-0.1c-0.5-2.1-0.7-4.4-0.7-6.7v-19.8h8.7v44.1h-8.2l-10.8-26.6l-0.1,0.1l0.4,4.4
			l0.1,1.8v20.2h-8.7v-44.1H229.4z"/>
		<path class="st2" d="M262.3,245.2v44.1h-8.7v-44.1H262.3z"/>
		<path class="st2" d="M275.8,245.2l10.9,26.6l0.1-0.1c-0.5-2.1-0.7-4.4-0.7-6.7v-19.8h8.7v44.1h-8.2l-10.8-26.6l-0.1,0.1l0.4,4.4
			l0.1,1.8v20.2h-8.7v-44.1H275.8z"/>
		<path class="st2" d="M328.5,264.7v3.5c0,9.4-2.3,21.8-14.2,21.8c-11.9,0-15.7-12.8-15.7-22.5c0-10.2,3.3-23,15.7-23
			c6.7,0,11.1,4.2,13,10.5l-8.5,3.3c-0.4-2.2-1.1-5.7-4.4-5.7c-5.9-0.4-6.5,10.5-6.5,14.7c0,4.6,0.3,14.7,6.7,14.7
			c4.4,0,5.1-6,5.1-9h-5.6v-8.2H328.5z"/>
	</g>
</g>
</svg>
