<svg xmlns="http://www.w3.org/2000/svg" viewBox="0 0 51.85 64.92"><defs><style>.cls-1{fill:#fff;}</style></defs><title>dining</title><g id="Layer_2" data-name="Layer 2"><g id="logos"><g id="_3K_IN_KIND" data-name="3K + IN KIND"><g id="dining"><path class="cls-1" d="M28.2,0C29.81.43,31.42.83,33,1.31s3,.87,3,3c2.65-1.07,4,.79,5.35,2.24,2,2.17,3.73,4.59,5.51,7,.76,1,1.44,2.12.21,3.52,2.36.33,2.55,2.18,2.91,3.74.69,3,1.25,6,1.68,9.11.11.83-.47,1.77-.79,2.87,1.77,1.27.73,3.34.5,5.12a55.87,55.87,0,0,1-1.72,7.4c-.51,1.87-.59,1.84-2.4,2.71,1.2,1.72-.08,3-.89,4.33A27.22,27.22,0,0,1,39,60.38a2.76,2.76,0,0,1-1.85.42c-.87-.13-1.2.14-1.47.94A2.28,2.28,0,0,1,34.61,63,20.74,20.74,0,0,1,17.1,63a2.23,2.23,0,0,1-1-1.28c-.26-.86-.68-1-1.51-.88a2.57,2.57,0,0,1-1.74-.38,27.8,27.8,0,0,1-8.53-10.2c-.31-.61,0-1.5,0-2.43C2.6,47.71,2.32,46.19,2,44.85,1.35,42.23.85,39.57.28,36.93.21,36.6.09,36.29,0,36V33.64l1.35-1.18L0,31.31V29a33.55,33.55,0,0,1,.85-4.51c.87-2.67.4-6,3.6-7.58-.54-1.68-.66-1.77.43-3.29a72.43,72.43,0,0,1,5.47-7C11.7,5.15,13.1,3.25,15.79,4.3c0-2.06,1.42-2.53,2.83-2.95C20.25.85,21.9.45,23.55,0ZM6.81,46.77A2.33,2.33,0,0,0,7,49.89c1.69,2.22,3.29,4.53,5.16,6.59,1.21,1.32,2.48,3,4.71,2.31.51,1.51.51,1.51,2,2.1a18.22,18.22,0,0,0,13.37.31c1.25-.44,2.61-.74,2.75-2.61,1.63.87,2.54-.19,3.53-1a27.24,27.24,0,0,0,6.26-7.51c.58-1,1.26-2,.22-3.37,1.76,0,2-1.19,2.3-2.31a63.81,63.81,0,0,0,1.63-7.16c.2-1.57,1.16-3.41-.38-4.56.26-.92.75-1.7.63-2.38-.55-3.3-1.24-6.58-1.92-9.85-.23-1.12-.62-2.19-1.79-2.26a7,7,0,0,0-.23-2.38A25.21,25.21,0,0,0,39,7.87C37.87,6.86,36.8,5.5,35,6.21c-.61-1.6-.6-1.61-2.19-2.24A18.49,18.49,0,0,0,19,3.93C18,4.34,17,4.76,16.91,6.1c-2.14,0-2.14,0-3.86,1.46a27.37,27.37,0,0,0-5.83,7c-.65,1.1-1.51,2.16-.44,3.58a2.3,2.3,0,0,0-2.16,2.08c-.59,2.46-1.37,4.9-1.71,7.4-.21,1.57-1.18,3.42.32,4.55a8,8,0,0,0-.57,2.65c.56,3.3,1.28,6.57,2,9.84A2.25,2.25,0,0,0,6.81,46.77Z"/><path class="cls-1" d="M35.32,46c-.31,2.11-2,3.31-2.82,5a3.66,3.66,0,0,1-4,2.11c-2.18-.18-4.4,0-6.59-.09a3,3,0,0,1-1.88-1,41.91,41.91,0,0,1-2.86-4,15.76,15.76,0,0,1-.93-2H8.85c-2.23,0-2.81-.3-3.3-2.4-.66-2.84-1.17-5.72-1.61-8.6-.2-1.33.44-1.89,1.78-1.9,2.63,0,5.26-.07,7.89,0a3,3,0,0,1,1.88,1c1,1.1,1.71,2.37,2.57,3.56.68.94.72.94,2.21.58l-2.74-3.91c-.27-.39-.77-.78-.77-1.17,0-1.65-1.16-1.36-2.15-1.36H5.81c-1.45,0-2.1-.54-1.86-1.94.56-3.25,1.26-6.48,2-9.69C6.25,19,7.51,19,8.5,19c2.62-.06,5.25,0,7.84,0,.77-2.63,2.71-4.42,4.13-6.53.21-.32.9-.45,1.38-.46,2.67,0,5.35-.08,8,0a2.85,2.85,0,0,1,1.79.93,42.88,42.88,0,0,1,2.78,3.89,20.43,20.43,0,0,1,1.07,2.15h3.31c1.51,0,3,0,4.53,0,1.32,0,2.43.39,2.73,2,.55,2.95,1.26,5.88,1.72,8.84.25,1.6-.35,2.09-2,2.1H35.38l.24.29-4.11,6.22a1.68,1.68,0,0,0,2.26-.73,34.53,34.53,0,0,1,2.55-3.57A2.6,2.6,0,0,1,38,33.14c2.71-.1,5.43-.06,8.14,0,1.19,0,1.75.57,1.7,1.75a32,32,0,0,1-2,9.95C45.36,46,44.27,46,43.31,46c-2.24.06-4.48,0-6.73,0ZM19.63,20V30.47c1.75.33,1.81.28,1.82-1.28,0-1.3,0-2.6,0-3.9a18.92,18.92,0,0,1,1.68,4.07c.34,1.26,1,1.55,2.16,1.12V19.89H23.54v5A17.27,17.27,0,0,1,22,21.14C21.62,19.93,21,19.55,19.63,20ZM36.78,30.5V20C35,19.66,35,19.7,35,21.26c0,1.07,0,2.14,0,3.21a11.8,11.8,0,0,1-1.51-3.36c-.35-1.36-1.14-1.52-2.34-1.14V30.55h1.8V25.07a23.24,23.24,0,0,1,1.69,4.22C34.91,30.4,35.44,30.93,36.78,30.5ZM8.12,19.88c0,.54-.07,1-.07,1.46,0,2.11,0,4.21,0,6.32,0,3.31,0,3.31,3.34,2.94a2.32,2.32,0,0,0,2.36-2.28,60,60,0,0,0,0-6.29,2.16,2.16,0,0,0-2.06-2.13A35,35,0,0,0,8.12,19.88ZM28.49,44.35l-.31-.28c.37-1.53-.59-3.2.86-4.81H24.77L24.46,41H24l-.28-1.88-1.9.16c1.95,1.59,2.48,3.46,1.48,5.45H25.7A2,2,0,0,1,25,41.65c.46-.86.75-2.28,2.34-1.64.3,2.63.17,3.76-.58,4.75H32.2V43.35c1.89-.16,1.89-.16,1.8,1.4h3.5l-.3-3.58c1.22,1.34,1.51,2.91,2.74,3.91.78-2-.51-4,1.14-5.79H39.2l.34,3.37a9.11,9.11,0,0,1-1.67-2.28c-.83-1.44-1-1.51-2-.92,1.24,1.44.38,3.1.62,4.6-1,.39-1.5.1-1.71-.82s-.52-2-.81-3c-.36-1.28-1-1.5-2.25-.78.56.68-.07,4.46-.78,4.65l-.51-.62ZM42.14,26.79c0,.39.08.64,0,.81-.25.46-.56.89-.84,1.34-.27-.45-.74-.88-.78-1.35a32.16,32.16,0,0,1,0-4.39c0-.57.39-1.56.7-1.61,1-.14.8.85,1,1.47a1.13,1.13,0,0,0,.14.22h1.79A12.7,12.7,0,0,0,44,21.76a2.71,2.71,0,0,0-2.85-2.12,2.41,2.41,0,0,0-2.59,2.19,65,65,0,0,0,0,6.84,2.39,2.39,0,0,0,3.24,2c.55-.21,1.05-.78,1.67-.09,0,0,.7-.36.71-.57.06-1.62,0-3.24,0-4.88H41.13C41,26,40.84,26.82,42.14,26.79ZM27.28,19.9V30.56h1.9V19.9Zm-11.47,0V30.54H17.6V19.86Zm10.33,18,.37-.36c-.32-1.78-.61-3.55-1-5.31a1.16,1.16,0,0,0-.81-.59c-.24,0-.73.24-.77.45-.39,1.84-.7,3.68-1,5.52l.35.3c.29-.23.59-.44.86-.69s.4-.46.6-.69a7.44,7.44,0,0,0,.59.67C25.57,37.45,25.86,37.67,26.14,37.9Zm-9.08,6.84c-.32-.73-.64-1.35-.86-2-.28-.86-.46-1.74-.72-2.6-.37-1.22-1.18-1.43-2.09-.75.59,2.06-.31,3.65-1.25,5.36h1.67V43.3c1.93-.07,1.93-.06,1.76,1.44Zm.29-5.48c1,1.1,1,4.31-.07,5.45h2l-.44-2.12c1.43-.37,1.42.69,1.75,1.29.6,1.13.61,1.16,1.65.67-1.16-1.06-1.24-1.37-.8-3.09S21.12,39,19.32,39.3c-.26.05-.55-.11-.83-.12A10.92,10.92,0,0,0,17.35,39.26Zm-7,1.77.27.06-.37,3.66H12c-1.05-1.09-1.12-4.4.05-5.37-.34-.11-.7-.34-.82-.25-.75.56-1.44,1.19-2.15,1.8-1.71-2-1.71-2-2.63-1.44,1,1.06,1,3.92,0,5.26H8.16l-.37-3.64.28-.06,1.1,1.31Zm31.17,3.84h2.91a1,1,0,0,0,1.17-1.19c0-1.08,0-2.16,0-3.23S45,39.06,44,39.12c-.57,0-1.14,0-1.71,0a7.76,7.76,0,0,0-1,.22C42.41,40.49,42.44,43.65,41.48,44.87ZM27.81,31.61v0c-.34,0-.78-.13-1,0s-.23.62-.34.95c1.09.25.68,1.14.72,1.79.05.86,0,1.73.05,2.59,0,.28.38.53.58.8.23-.28.62-.55.65-.85.08-1,0-2.07.06-3.1,0-.4.4-.78.61-1.17.11-.21.31-.46.26-.63a.79.79,0,0,0-.55-.41A5,5,0,0,0,27.81,31.61Z"/><path class="cls-1" d="M25.82,10.76a8.46,8.46,0,0,0-1.67,0c-3.07.68-4.57-1.22-5.82-3.5a1.24,1.24,0,0,1,.58-1.93,17.29,17.29,0,0,1,13.9,0,1.24,1.24,0,0,1,.55,2A18.8,18.8,0,0,1,31.48,10a2.75,2.75,0,0,1-1.66.76C28.5,10.83,27.16,10.76,25.82,10.76Z"/><path class="cls-1" d="M25.91,54.19a8.88,8.88,0,0,0,1.93,0c3.12-.71,4.36,1.51,5.63,3.6a1.2,1.2,0,0,1-.61,1.83,17.31,17.31,0,0,1-13.91,0,1.24,1.24,0,0,1-.57-2A18,18,0,0,1,20.26,55a2.74,2.74,0,0,1,1.65-.77C23.23,54.11,24.57,54.19,25.91,54.19Z"/><path class="cls-1" d="M40.46,17.8c-2.68.69-4.32-.59-5.5-2.84a17.21,17.21,0,0,0-1.4-2c-.15-.21-.3-.42-.44-.64-.65-1,.23-3.23,1.87-4.62,1-.81,1.72-.19,2.49.43a25.88,25.88,0,0,1,6.36,7.72c.67,1.21.21,1.95-1.18,2Z"/><path class="cls-1" d="M40.53,47.15c.81,0,1.63,0,2.45,0a1.09,1.09,0,0,1,1,1.67,25,25,0,0,1-7.17,8.51,1.32,1.32,0,0,1-2-.33A15,15,0,0,1,33,54.45a2.08,2.08,0,0,1,.08-1.74A51.87,51.87,0,0,1,36.46,48a2.77,2.77,0,0,1,1.62-.79A15.39,15.39,0,0,1,40.53,47.15Z"/><path class="cls-1" d="M11.37,17.8c-.86,0-1.72,0-2.58,0a1.09,1.09,0,0,1-1-1.64,24.76,24.76,0,0,1,7.16-8.52,1.32,1.32,0,0,1,2,.3,14.36,14.36,0,0,1,1.75,2.54,2.1,2.1,0,0,1-.05,1.75A51.87,51.87,0,0,1,15.3,17a2.82,2.82,0,0,1-1.61.81A13.79,13.79,0,0,1,11.37,17.8Z"/><path class="cls-1" d="M11.35,47.15c2.64-.71,4.23.58,5.4,2.79a20,20,0,0,0,1.48,2.11c.17.24.36.48.51.74.51.87-.59,3.39-2,4.5-.92.72-1.65.18-2.4-.42a25.87,25.87,0,0,1-6.44-7.82c-.63-1.14-.17-1.89,1.15-1.9Z"/><path class="cls-1" d="M10.18,28.85V21.59c1.16-.23,1.67.23,1.67,1.34,0,1.54,0,3.09,0,4.63C11.84,28.6,11.36,29.07,10.18,28.85Z"/><path class="cls-1" d="M18.91,41.4c0-.65-.4-1.52.89-1.51.77,0,1,.55.73,1s-.85.64-1.3.95Z"/><path class="cls-1" d="M43.09,40h1.63a24.91,24.91,0,0,1-.06,3.57c0,.35-.85.59-1.57,1Z"/></g></g></g></g></svg>