<svg xmlns="http://www.w3.org/2000/svg" viewBox="0 0 1280 512"><defs><style>.cls-1{fill:#fff;}</style></defs><title>ebay_white</title><g id="Layer_2" data-name="Layer 2"><g id="Layer_1-2" data-name="Layer 1"><path class="cls-1" d="M0,271v-8c1.32-12.39,1.87-24.92,4.09-37.15C13.36,175,41.87,139.9,91.3,123.51c42.22-14,85.37-15.18,128.58-4.74,33.82,8.17,61.42,26,80.66,55.53,12,18.45,18.47,38.88,21.13,60.66.26-2.7.26-5.35.26-8Q322,113.48,322,0h65V160.26a25.37,25.37,0,0,0,2.06-2,98.66,98.66,0,0,1,36.1-28.6c35-16.74,71.9-20,109.73-13.8,68.44,11.12,113,63.34,119,130.28,1.28,14.41.19,29,.19,43-.19.23.21-.1.4-.53,9.41-21,26.24-33.94,46.76-42.73,28.64-12.25,59-15.9,89.71-16.7,30.3-.8,60.65-.3,91-.37H888V217.12c0-26.16-12-44.45-36.38-54.17-25.84-10.29-52.4-10.76-78.82-2.61-17.06,5.27-30,15.87-35.26,33.76-1,3.39-2.21,4.42-5.66,4.39-19.33-.16-38.66-.07-58-.09-1.58,0-3.15-.18-5-.29.23-2.3.33-4,.58-5.6,3.21-20.62,13.7-36.95,29.84-49.74,23.31-18.48,50.91-25.58,79.71-28.62,31.58-3.33,63-3,94.1,5.13,19,5,36.3,12.93,50.74,26.47,3,2.82,5.68,6,9.45,10l-17.59-32.68c24.06,0,47.36.13,70.66-.11,4.78,0,7.42,1.43,9.56,5.73q47.83,96.18,95.93,192.23c3.21,6.42,6.39,12.85,10,20.14,10-19.82,19.65-38.68,29.08-57.65,10.74-21.56,21.22-43.25,32-64.82,8.15-16.37,16.61-32.6,24.78-49,6.74-13.51,13.28-27.13,19.87-40.71,2.05-4.25,4.77-6.3,10.05-6,15.56.89,31.16,1.22,46.75,1.44,5.2.07,10.41-.87,15.61-1.35v2a16.25,16.25,0,0,0-1.68,2.25q-25.17,49.31-50.3,98.62-26.26,51.56-52.53,103.1-27.46,53.92-54.9,107.85c-8.72,17.11-17.52,34.17-26.16,51.32-4,7.87-7.63,15.9-11.43,23.86h-74l56.73-107.45L947.31,182.07a3.24,3.24,0,0,0,0,1.22c4.75,14.4,5.89,29.27,5.86,44.31,0,23.16-.14,46.32,0,69.48q.29,44.73,1,89.44c.09,6.26.81,12.51,1.26,19.08h-60c-.58-13.29-1.15-26.39-1.75-40.29-15.76,20.66-36,33.27-59.32,41.29-24.73,8.52-50.29,11.16-76.32,9.83-20-1-39.33-4.76-57.5-13.39-27.44-13-45.58-33.63-50.92-64.14-1.29-7.37-1.37-14.94-2.07-23.14-1,2.8-1.74,5-2.55,7.11-15,39.78-42.24,67.68-82.07,82.76-29.52,11.18-60.07,12.71-91,7.81-25.78-4.08-49.47-13.27-69.61-30.29-5.34-4.52-10-9.9-15.4-15.38-.85,13.24-1.64,25.56-2.42,37.83H321.25V281.38H66.54c.54,30,11.33,54.69,35.44,72.39,27,19.81,57.53,23.19,89.46,16.33,25.34-5.44,44.7-19.16,55.83-43.29.59-1.29,2.94-2.5,4.49-2.51,19.83-.17,39.66-.12,59.48-.08a20.75,20.75,0,0,1,3.52.63,49.1,49.1,0,0,1-1.06,5.66,124.89,124.89,0,0,1-4.25,12.77c-13.26,31-37.32,50.4-68.53,60.59-49.61,16.19-99.87,15.51-149.44.15C42.17,388.74,13,354.48,3.88,303.64,1.94,292.87,1.26,281.88,0,271Zm587.35,1.43c.19-66.57-35.29-111.5-92.8-115-41.65-2.51-78.64,15.22-96.9,56.21-11.88,26.66-13.9,54.44-6.5,82.53,9.55,36.24,31.05,62.18,68.28,71.86s70.9,2.19,98.38-25.68C579.17,320.72,587.2,293.49,587.35,272.43ZM887.62,271a20.74,20.74,0,0,0-2.6-.26c-31.47.8-63,1.12-94.41,2.62-17.44.84-34.77,3.82-50.83,11.51-11.3,5.42-19.81,13.37-22.89,26.06-6.12,25.18,7.56,49,33.75,57.91,20.58,7,41.69,6.39,62.73,2.68,23.57-4.16,43.93-14.25,58.53-34S889.54,295.27,887.62,271ZM254.34,237.8c-.63-29-10.9-52.89-35.77-67.43C180.22,148,141.33,150.22,103.68,173c-14.78,8.94-25.22,22.07-31.13,38.48a67.76,67.76,0,0,0-4.41,26.32Z"/></g></g></svg>