<svg xmlns="http://www.w3.org/2000/svg" viewBox="0 0 123.02 23.82"><defs><style>.cls-1{fill:#fff;}</style></defs><title>facebook</title><g id="Layer_2" data-name="Layer 2"><g id="logos"><g id="_5K" data-name="5K"><g id="facebook"><path class="cls-1" d="M9.62,3.73c-1.44,0-1.86.65-1.86,2.06V8.14h3.86l-.39,3.8H7.76V23.47H3.12V11.94H0V8.14H3.12V5.86C3.12,2,4.67,0,9,0a21.37,21.37,0,0,1,2.71.16V3.73Z"/><path class="cls-1" d="M11.94,15.32c0-4.28,2-7.5,6.28-7.5a4.55,4.55,0,0,1,4.41,2.67V8.14h4.44V23.47H22.63V21.15a4.5,4.5,0,0,1-4.41,2.64c-4.25,0-6.28-3.22-6.28-7.5Zm4.64,1c0,2.29.83,3.8,3,3.8,1.9,0,2.87-1.38,2.87-3.57V15c0-2.19-1-3.57-2.87-3.57-2.16,0-3,1.51-3,3.8Z"/><path class="cls-1" d="M36.73,7.82a8.49,8.49,0,0,1,4.44,1l-1,3.29a7.22,7.22,0,0,0-3.09-.71c-2.51,0-3.61,1.45-3.61,3.92v.91c0,2.47,1.1,3.92,3.61,3.92a7.38,7.38,0,0,0,3.09-.7l1,3.28a8.49,8.49,0,0,1-4.44,1c-5.44,0-7.92-2.93-7.92-7.63v-.71C28.81,10.75,31.29,7.82,36.73,7.82Z"/><path class="cls-1" d="M41.78,16.38V15c0-4.34,2.48-7.21,7.53-7.21,4.77,0,6.86,2.9,6.86,7.15v2.44H46.42c.09,2.1,1,3,3.6,3A13.2,13.2,0,0,0,55,19.51l.83,3.18a14.81,14.81,0,0,1-6,1.13C44,23.82,41.78,20.89,41.78,16.38Zm4.64-2H52V14c0-1.67-.68-3-2.71-3S46.42,12.33,46.42,14.39Z"/><path class="cls-1" d="M73.36,16.29c0,4.28-2.06,7.5-6.31,7.5a4.74,4.74,0,0,1-4.57-2.64v2.32H58.1V.45L62.73,0V10.27a4.64,4.64,0,0,1,4.32-2.45c4.25,0,6.31,3.22,6.31,7.5Zm-4.64-1.06c0-2.16-.83-3.77-3.06-3.77-1.9,0-2.93,1.35-2.93,3.54v1.61c0,2.19,1,3.54,2.93,3.54,2.23,0,3.06-1.61,3.06-3.77Z"/><path class="cls-1" d="M74.9,16.19v-.77c0-4.41,2.51-7.6,7.63-7.6s7.63,3.19,7.63,7.6v.77c0,4.41-2.51,7.6-7.63,7.6S74.9,20.6,74.9,16.19ZM85.52,15.1c0-2-.83-3.64-3-3.64s-3,1.61-3,3.64v1.41c0,2,.83,3.64,3,3.64s3-1.61,3-3.64Z"/><path class="cls-1" d="M91.7,16.19v-.77c0-4.41,2.51-7.6,7.63-7.6S107,11,107,15.42v.77c0,4.41-2.51,7.6-7.63,7.6S91.7,20.6,91.7,16.19Zm10.63-1.09c0-2-.84-3.64-3-3.64s-3,1.61-3,3.64v1.41c0,2,.84,3.64,3,3.64s3-1.61,3-3.64Z"/><path class="cls-1" d="M113.33,15.45l4.58-7.31h4.92L118,15.71l5,7.76H118.1L113.33,16v7.5H108.7V.45L113.33,0Z"/></g></g></g></g></svg>