<?xml version="1.0" encoding="utf-8"?>
<!-- Generator: Adobe Illustrator 19.1.0, SVG Export Plug-In . SVG Version: 6.00 Build 0)  -->
<svg version="1.1" id="Artwork" xmlns="http://www.w3.org/2000/svg" xmlns:xlink="http://www.w3.org/1999/xlink" x="0px" y="0px"
	 viewBox="0 0 423 126" style="enable-background:new 0 0 423 126;" xml:space="preserve">
<style type="text/css">
	.st0{fill:none;}
	.st1{fill:#FFFFFF;}
</style>
<g id="Logo_with_TM_with_Clearspace">
</g>
<g>
	<polygon id="Clearspace" class="st0" points="423,126 0,126 0,0 423,0 	"/>
	<g id="Logo_with_TM">
		<path id="Wordmark" class="st1" d="M126,81v-3.3h5.1V48.4H126V45h27.7V56h-3.8v-7.6h-14.4v13.4h7.2v-5.3h3.5v14h-3.5v-5.4h-7.2
			v12.7h6V81H126z M171.6,75.9c-1.8,3.9-4.3,5.5-8.6,5.5c-3.7,0-7.2-1.6-8.1-5.5c-0.3-1.3-0.3-2.1-0.3-2.5c0-5.9,4.8-8.1,10-8.1
			c1,0,1.9,0,2.9,0h4.1v-2.4c-0.2-1.9-0.4-3-1.8-4.4c-1-1-2.6-1.4-3.9-1.4c-2.2,0-3.7,0.3-5.2,2.1c-0.7,0.9-0.9,2.1-1,3.1h-4.2
			c0.2-3.8,2.1-6.5,5.7-7.7c1.5-0.5,2.9-0.6,4.5-0.6c2.8,0,5,0.5,7.2,2.3c2.1,1.7,2.5,4,2.5,6.5v15.1h4.2V81h-7.9V75.9z M163.6,78.4
			c6,0,7.9-5,8.1-10.1c-1.3-0.2-2.8-0.2-4-0.2c-4,0-8.6,0.2-8.6,5.4C159,76.4,160.6,78.4,163.6,78.4z M190.8,59.5
			c1.4-3.8,3.8-5.5,7.9-5.5c4,0,6.7,1.7,7.9,5.5c0.2,1.2,0.2,2.2,0.2,3.4v15h4.1V81h-12.3v-3.2h4.1V64.3c0-3.6-0.8-7.1-5.2-7.1
			c-1.6,0-2.3,0-3.6,0.9c-1.1,0.7-1.7,1.5-2.2,2.6c-1.1,2.1-1.1,4.5-1.1,6.7v10.5h4.1V81h-12.5v-3.2h4.4V57.8h-4.3v-3h8.3V59.5z
			 M222.2,59.5c1.4-3.8,3.8-5.5,7.9-5.5c4,0,6.7,1.7,7.9,5.5c0.2,1.2,0.2,2.2,0.2,3.4v15h4.1V81h-12.3v-3.2h4.1V64.3
			c0-3.6-0.8-7.1-5.2-7.1c-1.6,0-2.3,0-3.6,0.9c-1.1,0.7-1.7,1.5-2.2,2.6c-1.1,2.1-1.1,4.5-1.1,6.7v10.5h4.1V81h-12.5v-3.2h4.4V57.8
			h-4.3v-3h8.3V59.5z M257.3,81h-12.3v-3.2h4.2V57.8H245v-3h8.2v23h4.1V81z M253.6,45v4.2h-4.7V45H253.6z M283.7,68.7h-19.5
			c0.2,2.6,0.6,5,2.3,7c1.8,2.1,3.5,2.6,6.3,2.6c3.2,0,6.3-2.4,6.6-5.5h3.9c-1,5.7-5.5,8.5-11.3,8.5c-8.6,0-12.2-5.7-12.2-13.5
			c0-2.8,0.6-5.8,2-8.2c2-3.6,6.1-5.6,10.3-5.6c2.4,0,5.3,0.8,7.2,2.3c2.1,1.7,3.2,4,3.8,6.5c0.4,1.9,0.6,3.3,0.6,5.2V68.7z
			 M279.3,65.7c-0.1-4.2-2.4-8.7-7.2-8.7c-4.9,0-7.4,4.4-7.7,8.7H279.3z M298.8,81v-3.3h5.2V48.4h-5.2V45h12.8l9.3,30.8l9.6-30.8
			h12.7v3.3h-5.1v29.4h5.1V81h-14v-3.3h4.6V48.4h-0.4L322.8,81h-3.9l-10.7-32.7h-0.4v29.4h4.7V81H298.8z M362.5,75.9
			c-1.8,3.9-4.3,5.5-8.6,5.5c-3.7,0-7.2-1.6-8.1-5.5c-0.3-1.3-0.3-2.1-0.3-2.5c0-5.9,4.8-8.1,10-8.1c1,0,1.9,0,2.9,0h4.1v-2.4
			c-0.2-1.9-0.4-3-1.8-4.4c-1-1-2.6-1.4-3.9-1.4c-2.2,0-3.7,0.3-5.2,2.1c-0.7,0.9-0.9,2.1-1,3.1h-4.2c0.2-3.8,2.1-6.5,5.7-7.7
			c1.5-0.5,2.9-0.6,4.5-0.6c2.8,0,5,0.5,7.2,2.3c2.1,1.7,2.5,4,2.5,6.5v15.1h4.2V81h-7.9V75.9z M354.4,78.4c6,0,7.9-5,8.1-10.1
			c-1.3-0.2-2.8-0.2-4-0.2c-4,0-8.6,0.2-8.6,5.4C349.9,76.4,351.5,78.4,354.4,78.4z M396,68.7h-19.3c0.2,2.6,0.6,5,2.3,7
			c1.8,2.1,3.5,2.6,6.2,2.6c3.2,0,6.2-2.4,6.6-5.5h3.9c-1,5.7-5.5,8.5-11.1,8.5c-8.5,0-12-5.7-12-13.5c0-2.8,0.6-5.8,2-8.2
			c2-3.6,6.1-5.6,10.2-5.6c2.4,0,5.3,0.8,7.1,2.3c2.1,1.7,3.2,4,3.7,6.5c0.4,1.9,0.6,3.3,0.6,5.2V68.7z M391.7,65.7
			c-0.1-4.2-2.4-8.7-7.2-8.7c-4.9,0-7.3,4.4-7.6,8.7H391.7z"/>
		<path id="Symbol" class="st1" d="M63,29.9c18.3,0,33.1,14.9,33.1,33.1c0,18.3-14.9,33.1-33.1,33.1c-18.3,0-33.1-14.9-33.1-33.1
			C29.9,44.7,44.7,29.9,63,29.9 M63,27c-19.9,0-36,16.1-36,36c0,19.9,16.1,36,36,36c19.9,0,36-16.1,36-36C99,43.1,82.9,27,63,27
			L63,27z M75.6,38.2l-19.1,6.6V40h-8.5v7.8L41.2,50l-6.6,15c0.1,0.2,0.7,4,0.7,4c3.3-0.9,6.7-1.3,10.3-1.3
			c14.6,0,27.4,7.9,34.3,19.6l1.9-1.2c-1.2-2-2.5-3.9-4-5.6V67.8l-8.4-1.5v6.6c-5.9-4.1-12.9-6.7-20.5-7.2
			c11.7-3.5,21.4-11.8,26.4-22.7l9.9,22.7l2.6,0.5L75.6,38.2z M71.6,68.9l4,0.7v8.4c-1.3-1.3-2.6-2.5-4-3.6V68.9z M36.9,65.3
			l5.9-13.5l7.3-2.5v-7.2h4.1v5.7l19.3-6.7C67.5,55.3,53.2,65,36.9,65.3z M73.7,56.8l1.9,0.3V61l-1.9-0.3V56.8 M71.5,54.2v8.3
			l6.3,1.1v-8.3L71.5,54.2L71.5,54.2z"/>
	</g>
	<g>
		<path class="st1" d="M399,45c0.5,0,1,0.1,1.5,0.4s0.8,0.6,1.1,1.1s0.4,1,0.4,1.5c0,0.5-0.1,1-0.4,1.5s-0.6,0.8-1.1,1.1
			s-1,0.4-1.5,0.4s-1-0.1-1.5-0.4s-0.8-0.6-1.1-1.1s-0.4-1-0.4-1.5c0-0.5,0.1-1,0.4-1.5s0.6-0.8,1.1-1.1S398.5,45,399,45z M399,45.6
			c-0.4,0-0.8,0.1-1.2,0.3s-0.7,0.5-0.9,0.9s-0.3,0.8-0.3,1.2c0,0.4,0.1,0.8,0.3,1.2s0.5,0.7,0.9,0.9s0.8,0.3,1.2,0.3
			c0.4,0,0.8-0.1,1.2-0.3s0.7-0.5,0.9-0.9s0.3-0.8,0.3-1.2c0-0.4-0.1-0.8-0.3-1.2s-0.5-0.7-0.9-0.9S399.4,45.6,399,45.6z
			 M397.6,49.6v-3.2h0.6c0.6,0,0.9,0,1,0c0.2,0,0.4,0.1,0.5,0.1s0.2,0.2,0.3,0.3s0.1,0.3,0.1,0.5c0,0.2-0.1,0.4-0.2,0.6
			s-0.4,0.3-0.6,0.3c0.1,0,0.2,0.1,0.2,0.1s0.1,0.1,0.2,0.2c0,0,0.1,0.2,0.2,0.4l0.4,0.6h-0.8l-0.3-0.5c-0.2-0.3-0.3-0.6-0.4-0.7
			s-0.3-0.1-0.4-0.1h-0.2v1.3H397.6z M398.3,47.8h0.3c0.4,0,0.6,0,0.7,0s0.2-0.1,0.2-0.2s0.1-0.2,0.1-0.2c0-0.1,0-0.2-0.1-0.2
			s-0.1-0.1-0.2-0.1s-0.3,0-0.7,0h-0.3V47.8z"/>
	</g>
</g>
</svg>
