<?xml version="1.0" encoding="utf-8"?>
<!-- Generator: Adobe Illustrator 22.1.0, SVG Export Plug-In . SVG Version: 6.00 Build 0)  -->
<svg version="1.1" id="Layer_1" xmlns="http://www.w3.org/2000/svg" xmlns:xlink="http://www.w3.org/1999/xlink" x="0px" y="0px"
	 viewBox="0 0 291.3 111.8" style="enable-background:new 0 0 291.3 111.8;" xml:space="preserve">
<style type="text/css">
	.st0{fill:#FFFFFF;}
</style>
<g>
	<g>
		<rect x="50.5" y="57.1" class="st0" width="8.3" height="47.4"/>
		<path class="st0" d="M160.7,96.3c-3.1,0-4.9-2-4.9-4.5c0-2.3,1.4-4.1,4.9-5.1l17.8-4.9v14.5H160.7z M187,69.2
			c0-6-3.8-12.2-13.2-12.2h-17.6c-2.9,0-3.9,1.2-4.1,3.6c-0.1,1-0.5,4.5-0.5,4.5h20.8c4.4,0,6.1,2.1,6.1,5.4v2.8l-17.6,4.8
			c-9.4,2.6-13.9,6.7-13.9,13.8c0,7.7,6,12.6,13.1,12.6H187V69.2z"/>
		<path class="st0" d="M125.8,70.5c0-3.3,1.7-5.4,6.1-5.4H146c0,0-0.4-3.5-0.5-4.5c-0.3-2.4-1.3-3.6-4.1-3.6h-10.9
			c-9.3,0-13.2,6.1-13.2,12.2v35.2h8.5L125.8,70.5L125.8,70.5z"/>
		<path class="st0" d="M93.1,65.1c4.4,0,6.1,2.1,6.1,5.4v33.9h8.5V69.2c0-6-3.8-12.2-13.2-12.2H68.7v47.4H77V65.1L93.1,65.1
			L93.1,65.1z"/>
		<path class="st0" d="M39.1,79.5c-0.3-2.4-1.3-3.6-4.1-3.6H18.4v-5.4c0-3.3,1.7-5.4,6.1-5.4h20c0,0-0.4-3.5-0.5-4.5
			c-0.3-2.4-1.3-3.6-4.1-3.6H23.1c-9.3,0-13.2,6.1-13.2,12.2v35.2h8.5V84h21.2C39.6,84,39.2,80.5,39.1,79.5z"/>
	</g>
	<g>
		<path class="st0" d="M226,89.6c0.6,0,1.3,0.2,1.9,0.5s1.1,0.8,1.4,1.4s0.5,1.2,0.5,1.9c0,0.6-0.2,1.3-0.5,1.9s-0.8,1.1-1.4,1.4
			s-1.2,0.5-1.9,0.5s-1.3-0.2-1.9-0.5s-1.1-0.8-1.4-1.4s-0.5-1.2-0.5-1.9c0-0.7,0.2-1.3,0.5-1.9s0.8-1.1,1.4-1.4
			C224.8,89.8,225.4,89.6,226,89.6z M226,90.2c-0.5,0-1,0.1-1.5,0.4s-0.9,0.7-1.2,1.2c-0.3,0.5-0.4,1-0.4,1.6c0,0.5,0.1,1.1,0.4,1.6
			s0.7,0.9,1.2,1.2c0.5,0.3,1,0.4,1.6,0.4c0.5,0,1.1-0.1,1.6-0.4s0.9-0.7,1.2-1.2c0.3-0.5,0.4-1,0.4-1.6c0-0.5-0.1-1.1-0.4-1.6
			s-0.7-0.9-1.2-1.2C227.1,90.4,226.6,90.2,226,90.2z M224.4,95.5v-4.1h1.4c0.5,0,0.8,0,1,0.1s0.4,0.2,0.5,0.4
			c0.1,0.2,0.2,0.4,0.2,0.6c0,0.3-0.1,0.6-0.3,0.8c-0.2,0.2-0.5,0.3-0.8,0.4c0.1,0.1,0.3,0.1,0.3,0.2c0.2,0.2,0.4,0.4,0.6,0.8
			l0.5,0.8H227l-0.4-0.6c-0.3-0.5-0.5-0.8-0.7-0.9c-0.1-0.1-0.3-0.1-0.5-0.1H225v1.7L224.4,95.5L224.4,95.5z M225,93.2h0.8
			c0.4,0,0.6-0.1,0.8-0.2c0.1-0.1,0.2-0.3,0.2-0.4s0-0.2-0.1-0.3c-0.1-0.1-0.2-0.2-0.3-0.2c-0.1,0-0.3-0.1-0.7-0.1H225L225,93.2
			L225,93.2z"/>
	</g>
	<path class="st0" d="M225.4,58.6l-9-5l-2.6,7.2l5.8,6.4L225.4,58.6z M211,68.5l2.7,7.4l4.9-7.2l-5.5-6L211,68.5z M210.2,71l-1.4,4
		v8.3l3.9-5.7L210.2,71z M232.9,47.5l-13-3.7L217,52l9.4,5.2L232.9,47.5z M211.9,61.1l-3.1-3.5v4.5l1.4,3.8L211.9,61.1z M214.9,52.7
		l-6.1-3.4v5.8l3.8,4.2L214.9,52.7z M241.2,35.1l-17.5-2l-3.2,9.1l13.4,3.8L241.2,35.1z M208.7,66.9V70l0.6-1.6L208.7,66.9z
		 M242.3,33.5l8.3-12.3H228l-3.7,10.3L242.3,33.5z M235.6,46.5l16.8,4.8c4.6-4.7,9-9.3,12.9-13.4l-22.2-2.5L235.6,46.5z M227.8,58
		l11.8,6.5c3.8-3.9,7.7-7.9,11.4-11.9l-16.5-4.7L227.8,58z M220.8,68.4l7.3,8.1c3.3-3.4,6.7-7,10.3-10.7l-11.5-6.4L220.8,68.4z
		 M226.1,21.2h-17.4v8.5l13.8,1.6L226.1,21.2z M252.6,21.2l-8.5,12.5l22.6,2.6c8.1-8.3,13.9-14.4,14.6-15.1H252.6z M218.2,43.3
		l-9.5-2.7v6.8l6.7,3.7L218.2,43.3z M214.5,77.8l3.4,9.3c2.6-2.7,5.7-5.9,9-9.3l-7.1-7.8L214.5,77.8z M221.9,32.9l-13.2-1.5v7.4
		l10.1,2.9L221.9,32.9z M208.7,86.3v10.3c0.5-0.6,3.5-3.6,7.9-8.2l-3.3-8.9L208.7,86.3z"/>
	<path class="st0" d="M188.7,8.1l4.2,11.5h14c0-5.4,0-9.7,0-11.5H188.7z M178,21.2l5,5.5l11.3,1.3l-2.5-6.8H178z M201.9,43.6
		l5.2,2.9c0-2,0-4.1,0-6.3l-7.2-2.1L201.9,43.6z M191.2,19.5L187,8h-20.9l10.4,11.5H191.2z M199.1,36.1l7.9,2.3c0-2.4,0-4.8,0-7.2
		L196.8,30L199.1,36.1z M197.8,37.5l-6.8-1.9l3.6,4l5,2.8L197.8,37.5z M196.2,28.3l10.8,1.2c0-3.1,0-5.9,0-8.3h-13.4L196.2,28.3z
		 M197.1,35.6l-2.1-5.7l-10.3-1.2l4.1,4.6L197.1,35.6z M207,57.7c0,0,0-0.7,0-2l-1.2-1.4L207,57.7z M197.9,43.3l3.5,3.8l-0.9-2.4
		L197.9,43.3z M204.3,50.3l2.7,3c0-1.4,0-3,0-4.9l-4.3-2.4L204.3,50.3z M175.7,21.2h-13.2c0.4,0.2,0.8,0.4,1.2,0.6
		c2.6,1.2,5.1,2.4,7.5,3.6l9.2,1.1L175.7,21.2z M185.9,34.1c1.5,1,2.9,2,4.2,3.1l0.1,0.1l-2.3-2.6L185.9,34.1z M163.8,8.1h-38.3
		c6.6,1.9,12.9,3.9,18.7,5.9c5.1,1.8,9.9,3.6,14.4,5.5h15.6L163.8,8.1z M175.4,27.6c1.2,0.6,2.3,1.3,3.4,1.9
		c0.9,0.5,1.8,1.1,2.6,1.6l4.4,1.2l-3.6-4L175.4,27.6z"/>
</g>
</svg>
