<svg xmlns="http://www.w3.org/2000/svg" version="1.0" width="7519.000000" height="1194.000000" preserveAspectRatio="xMidYMid meet"><rect id="backgroundrect" width="100%" height="100%" x="0" y="0" fill="none" stroke="none"/>
<metadata>
Created by potrace 1.15, written by Peter Selinger 2001-2017
</metadata>

<g class="currentLayer" style=""><title>Layer 1</title><g transform="translate(0,1194) scale(0.10000000149011612,-0.10000000149011612) " fill="#b6b6b6" stroke="none" id="svg_1" class="selected" fill-opacity="1">
<path d="M9177 11926 c-72 -26 -114 -62 -144 -123 l-28 -58 0 -1055 c0 -1188 -4 -1120 74 -1201 82 -84 11 -80 1207 -77 l1051 3 49 30 c52 33 86 76 106 134 10 27 13 283 16 1075 2 916 1 1046 -13 1100 -19 72 -55 122 -116 156 l-44 25 -1060 2 c-874 2 -1067 0 -1098 -11z" id="svg_2" fill="#b6b6b6" fill-opacity="1"/>
<path d="M185 11866 c-90 -29 -134 -67 -166 -146 -12 -30 -14 -845 -14 -5675 l0 -5640 21 -45 c28 -61 77 -106 138 -127 48 -17 123 -18 1151 -18 850 0 1109 3 1141 12 63 20 118 65 145 120 l24 48 3 2062 2 2063 2073 2 2072 3 42 22 c22 12 55 39 72 60 64 76 62 40 59 1124 l-3 984 -21 40 c-28 51 -65 88 -112 112 -36 17 -119 18 -2109 21 l-2073 2 0 1275 0 1275 2418 2 c2302 3 2419 4 2457 21 22 10 57 34 77 54 72 70 69 12 66 1159 l-3 1029 -25 45 c-33 58 -96 105 -160 119 -79 17 -7221 14 -7275 -3z" id="svg_3" fill="#b6b6b6" fill-opacity="1"/>
<path d="M37655 11866 c-65 -20 -102 -44 -130 -81 -59 -77 -55 255 -55 -4479 0 -2824 4 -4398 10 -4486 86 -1156 546 -1977 1367 -2439 499 -281 1173 -411 1917 -372 308 17 742 69 843 102 48 16 101 83 124 159 19 63 19 92 17 960 l-3 895 -28 56 c-17 36 -41 66 -65 82 -72 48 -89 50 -410 37 -327 -13 -472 -6 -616 31 -308 79 -508 295 -596 642 -57 228 -54 -53 -59 4502 l-6 4220 -21 45 c-11 25 -37 59 -57 77 -74 65 -33 63 -1166 62 -798 0 -1035 -3 -1066 -13z" id="svg_4" fill="#b6b6b6" fill-opacity="1"/>
<path d="M43265 11866 c-90 -29 -134 -67 -166 -146 -12 -30 -14 -845 -14 -5675 l0 -5640 21 -45 c28 -61 77 -106 138 -127 48 -17 123 -18 1146 -18 l1095 0 58 29 c68 33 109 88 128 170 15 68 6 3469 -10 3831 -57 1283 -120 2228 -216 3215 -13 134 -21 248 -19 252 3 4 13 8 22 8 12 0 26 -23 46 -73 43 -107 299 -680 414 -927 428 -921 897 -1841 1279 -2510 52 -91 588 -986 1191 -1990 1211 -2015 1155 -1928 1287 -1981 l60 -24 1165 0 c929 0 1174 3 1208 13 58 18 114 71 143 135 l24 52 0 5625 c0 4705 -2 5632 -14 5665 -22 68 -56 109 -112 140 l-54 30 -1110 0 c-915 0 -1117 -2 -1149 -14 -55 -19 -110 -73 -137 -134 l-24 -52 1 -1865 c1 -1773 6 -2219 34 -2990 27 -715 70 -1513 120 -2194 24 -328 24 -313 1 -319 -15 -4 -25 10 -56 82 -142 328 -641 1346 -1040 2121 -511 995 -716 1370 -1750 3216 -598 1066 -1098 1958 -1111 1980 -39 68 -117 131 -191 154 -64 20 -90 20 -1217 19 -899 0 -1160 -3 -1191 -13z" id="svg_5" fill="#b6b6b6" fill-opacity="1"/>
<path d="M62583 10730 c-80 -17 -146 -69 -180 -145 -17 -38 -18 -202 -21 -3740 -2 -2488 1 -3771 8 -3918 27 -566 126 -985 330 -1402 439 -896 1287 -1405 2490 -1495 368 -27 949 -1 1308 60 172 29 234 74 273 201 18 58 19 103 19 933 0 964 1 942 -62 1003 -63 61 -105 65 -406 39 -356 -31 -598 -19 -784 40 -354 112 -553 359 -645 801 -15 70 -17 243 -20 1680 l-4 1602 768 3 c639 3 775 6 808 18 55 20 138 104 153 156 18 63 16 1734 -2 1787 -21 58 -62 105 -119 135 l-52 27 -787 3 c-530 2 -788 6 -788 13 0 5 -45 460 -100 1011 -110 1096 -105 1065 -178 1129 -77 68 -10 64 -1037 66 -511 0 -949 -3 -972 -7z" id="svg_6" fill="#b6b6b6" fill-opacity="1"/>
<path d="M16385 8923 c-1123 -52 -1970 -348 -2526 -881 -382 -366 -607 -824 -691 -1407 -8 -59 -13 -198 -13 -400 0 -277 3 -323 23 -435 94 -522 301 -917 666 -1268 212 -204 444 -362 761 -522 468 -236 969 -391 1685 -521 519 -94 741 -154 931 -251 117 -60 229 -157 272 -237 37 -67 60 -179 51 -250 -39 -332 -349 -535 -899 -592 -167 -17 -553 -6 -755 21 -624 83 -1205 299 -1738 647 -184 119 -228 135 -312 113 -92 -24 -120 -65 -560 -815 -222 -379 -412 -712 -422 -740 -36 -103 -11 -201 68 -277 86 -80 510 -341 759 -466 695 -348 1419 -549 2245 -624 198 -18 799 -15 1040 6 849 71 1495 265 1991 595 179 119 271 195 415 342 419 429 638 966 685 1679 44 678 -123 1252 -493 1695 -335 402 -826 706 -1503 930 -361 120 -662 191 -1188 280 -882 151 -1148 265 -1249 540 -31 86 -31 273 0 359 62 168 178 269 393 340 197 65 473 92 790 75 562 -28 1086 -164 1611 -416 192 -92 251 -107 337 -83 93 25 116 58 547 790 219 371 403 694 411 719 16 53 17 112 2 165 -18 65 -80 115 -245 198 -949 481 -1860 705 -2829 696 -110 -1 -227 -3 -260 -5z" id="svg_7" fill="#b6b6b6" fill-opacity="1"/>
<path d="M24540 8923 c-159 -8 -362 -26 -495 -44 -885 -117 -1626 -457 -2155 -989 -451 -452 -748 -1052 -865 -1744 -56 -332 -58 -366 -62 -1516 -6 -1340 4 -1548 87 -1960 236 -1168 972 -2011 2103 -2408 757 -266 1767 -333 2647 -176 650 116 1247 360 1818 742 122 83 175 132 198 188 20 47 17 145 -5 203 -19 51 -911 1382 -965 1440 -70 75 -192 102 -293 63 -27 -10 -99 -48 -160 -85 -475 -282 -951 -419 -1463 -420 -382 -1 -674 74 -922 239 -198 132 -353 345 -433 596 -72 228 -70 184 -70 1428 l0 1115 23 113 c12 62 37 152 53 200 157 444 526 717 1074 794 130 18 444 15 590 -6 321 -46 631 -144 930 -294 169 -84 222 -102 307 -102 79 0 125 19 175 72 17 18 236 343 487 721 320 484 460 704 471 740 33 111 8 214 -71 289 -85 80 -559 326 -859 446 -610 244 -1262 367 -1910 360 -99 -1 -205 -3 -235 -5z" id="svg_8" fill="#b6b6b6" fill-opacity="1"/>
<path d="M31865 8919 c-735 -39 -1476 -199 -2135 -461 -304 -121 -780 -368 -867 -451 -65 -62 -79 -135 -44 -245 17 -56 674 -1322 730 -1407 15 -21 46 -53 69 -70 41 -28 49 -30 135 -30 l92 0 136 67 c522 258 1304 428 1975 428 755 0 1162 -240 1304 -770 40 -152 51 -240 57 -483 l6 -238 -24 5 c-36 8 -369 43 -574 60 -715 60 -1363 41 -1935 -55 -1281 -215 -2081 -829 -2325 -1783 -108 -425 -106 -969 5 -1423 184 -753 677 -1316 1451 -1657 858 -379 2042 -490 3555 -336 577 59 1219 170 1724 299 262 67 426 117 477 147 56 32 109 96 130 158 17 48 18 175 18 2486 0 1937 -3 2467 -13 2590 -66 767 -250 1365 -570 1845 -356 534 -843 899 -1494 1116 -524 175 -1168 246 -1883 208z m805 -5250 c224 -15 476 -46 623 -75 l27 -6 0 -713 0 -713 -137 -26 c-904 -171 -1560 -126 -1943 134 -30 21 -87 71 -127 113 -148 156 -214 372 -184 601 49 366 309 583 802 667 223 38 556 45 939 18z" id="svg_9" fill="#b6b6b6" fill-opacity="1"/>
<path d="M56995 8920 c-1099 -68 -1985 -420 -2600 -1035 -451 -451 -749 -1043 -864 -1720 -56 -324 -54 -276 -58 -1620 -5 -1302 -2 -1413 38 -1690 185 -1285 965 -2202 2221 -2614 708 -231 1596 -299 2423 -185 1707 235 2800 1247 3024 2799 40 277 43 388 38 1690 -4 1330 -3 1294 -53 1595 -143 854 -551 1545 -1201 2034 -552 415 -1256 660 -2118 736 -163 15 -678 20 -850 10z m617 -2235 c364 -48 647 -197 825 -433 104 -137 168 -281 216 -485 21 -91 21 -103 24 -1277 4 -1294 5 -1279 -54 -1480 -83 -288 -266 -511 -528 -642 -382 -193 -1004 -207 -1415 -33 -118 49 -224 119 -317 208 -173 166 -271 361 -320 637 -17 98 -18 181 -18 1270 0 1279 -3 1218 61 1436 115 397 413 670 840 770 189 44 480 56 686 29z" id="svg_10" fill="#b6b6b6" fill-opacity="1"/>
<path d="M71265 8923 c-38 -2 -146 -10 -240 -18 -1559 -142 -2647 -906 -3065 -2155 -49 -147 -106 -379 -134 -550 -55 -329 -56 -366 -56 -1764 0 -821 4 -1333 11 -1406 60 -666 276 -1236 649 -1720 96 -123 347 -375 479 -479 480 -380 1084 -636 1766 -751 709 -120 1498 -100 2217 54 703 152 1368 449 1937 868 185 136 216 179 215 298 0 54 -6 88 -21 122 -20 44 -872 1187 -937 1256 -51 56 -99 75 -175 70 -61 -3 -76 -9 -171 -66 -390 -234 -855 -416 -1292 -506 -303 -63 -744 -92 -983 -67 -667 72 -1057 399 -1155 969 -16 88 -20 161 -20 318 l0 204 2348 2 c2197 3 2350 4 2390 20 65 26 99 54 129 106 l28 47 0 1030 c0 1109 0 1120 -56 1445 -212 1239 -923 2076 -2094 2462 -498 164 -1129 239 -1770 211z m553 -2097 c191 -35 378 -108 506 -200 146 -104 287 -286 357 -461 76 -190 98 -333 106 -672 l6 -263 -1252 0 -1251 0 0 253 c0 368 31 546 131 756 63 133 117 209 222 307 186 175 387 255 747 298 69 8 347 -4 428 -18z" id="svg_11" fill="#b6b6b6" fill-opacity="1"/>
<path d="M9164 8310 c-61 -24 -110 -70 -138 -130 l-21 -45 0 -3860 0 -3860 28 -57 c30 -61 72 -99 139 -126 40 -16 125 -17 1083 -17 826 0 1049 3 1083 13 58 18 114 71 143 135 l24 52 3 3834 c2 3431 1 3841 -13 3895 -19 72 -55 122 -116 156 l-44 25 -1060 2 c-1031 2 -1061 2 -1111 -17z" id="svg_12" fill="#b6b6b6" fill-opacity="1"/>
</g></g></svg>