<svg xmlns="http://www.w3.org/2000/svg" viewBox="0 0 229.45 27.17"><defs><style>.cls-1{fill:#fff;}</style></defs><title>generaldynamics</title><g id="Layer_2" data-name="Layer 2"><g id="logos"><g id="_5K" data-name="5K"><g id="gdms"><path class="cls-1" d="M193.62.06V9.9h-3.15V2.74l-.12,0c-.21.35-.43.69-.63,1-1.08,1.91-2.16,3.83-3.22,5.76a.69.69,0,0,1-.7.43c-.78,0-1.56,0-2.34,0a.71.71,0,0,1-.74-.44c-.55-1-1.11-2-1.67-3.07-.69-1.27-1.4-2.55-2.21-3.79V9.9h-3.16V.09l.37,0h4.49a.57.57,0,0,1,.58.36c1.15,2.16,2.32,4.32,3.52,6.54a2.86,2.86,0,0,0,.29-.36l2.36-4.41c.34-.63.69-1.27,1.05-1.9a.46.46,0,0,1,.31-.21C190.29.05,191.93.06,193.62.06Z"/><path class="cls-1" d="M14.32,3.82V9.93H5A4.89,4.89,0,0,1,.12,6.11,4.79,4.79,0,0,1,1.41,1.55a4.3,4.3,0,0,1,3-1.39c3.27,0,6.55,0,9.86,0V2.48H6.17A3.1,3.1,0,0,0,4.4,3a2.43,2.43,0,0,0,0,4,3.78,3.78,0,0,0,1.71.57c1.59.07,3.18,0,4.81,0V6H7.46V3.82Z"/><path class="cls-1" d="M111.44,9.9V.06H112c3,0,6,0,9.07,0a5.08,5.08,0,0,1,3.82,1.61,4.81,4.81,0,0,1,1.23,4.05,5,5,0,0,1-4.21,4.19,1.31,1.31,0,0,1-.28,0h-9.8Zm3.28-2.24c2-.06,4,0,5.93-.18a2.45,2.45,0,0,0,2.14-2.28,2.57,2.57,0,0,0-2.71-2.72c-1.32,0-2.64,0-4,0h-1.4Z"/><path class="cls-1" d="M229.08.1V2.38h-8.79c-.55,0-.95.29-.94.67s.4.64.91.64h1.87c1.38,0,2.77,0,4.15,0a3,3,0,0,1,3,2.25,3.06,3.06,0,0,1-2.94,4H216.29V7.7h8.51a3.41,3.41,0,0,0,.84-.12A.58.58,0,0,0,226.1,7a.59.59,0,0,0-.47-.63,3.32,3.32,0,0,0-.83-.11c-1.87,0-3.73,0-5.59,0a2.88,2.88,0,0,1-2.76-1.57,3,3,0,0,1,.17-3.27A2.65,2.65,0,0,1,218.91.08c3.33,0,6.66,0,10,0A1.3,1.3,0,0,1,229.08.1Z"/><path class="cls-1" d="M72.39,9.93c-1.27,0-2.45,0-3.62,0a.7.7,0,0,1-.41-.28c-.6-.81-1.17-1.63-1.77-2.44-.1-.14-.28-.31-.42-.31-1.26,0-2.52,0-3.84,0v3H59.08V.08l.48,0c3,0,6,0,9.08,0a4.25,4.25,0,0,1,3,1.16C73,2.48,73.05,5.54,70.52,6.39c-.09,0-.18.07-.27.09-.32.08-.33.21-.13.46C70.86,7.9,71.58,8.87,72.39,9.93ZM62.33,4.6a1.59,1.59,0,0,0,.23,0c1.72,0,3.43,0,5.15,0a2.42,2.42,0,0,0,.93-.27,1,1,0,0,0,.45-1.16c-.19-.63-.68-.89-1.57-.91-1.59,0-3.18,0-4.77,0l-.42,0Z"/><path class="cls-1" d="M40.49,6.29V.1h3V9.91l-.44,0c-1,0-2,0-3,0a.78.78,0,0,1-.71-.35c-.6-.77-1.27-1.49-1.9-2.23L34.62,4.12c-.51-.58-1-1.14-1.63-1.81V9.89H29.83V.09c.14,0,.27,0,.41,0,1.45,0,2.9,0,4.35,0a1,1,0,0,1,.64.29c1.58,1.81,3.14,3.63,4.7,5.45.15.17.29.36.44.53Z"/><path class="cls-1" d="M153.17,6.39V.09h3V9.9l-.41,0c-1.07,0-2.14,0-3.2,0a1.08,1.08,0,0,1-.65-.29c-.57-.59-1.09-1.23-1.66-1.82-1.17-1.25-2.35-2.49-3.53-3.74a5.5,5.5,0,0,0-.92-.87V9.9H142.7V.06h2.54a3.2,3.2,0,0,0,.62,0c1.19-.25,1.87.44,2.51,1.29a18.79,18.79,0,0,0,1.28,1.4l3.27,3.46A2.11,2.11,0,0,0,153.17,6.39Z"/><path class="cls-1" d="M27.88,2.48H19.82v1.3h8.06V6H19.82V7.59h8.05V9.9H16.45V.09H27.88Z"/><path class="cls-1" d="M57,6H49V7.59h8v2.3H45.69V.09H57V2.46H49V3.77H57Z"/><path class="cls-1" d="M90.83,9.93c-1.35,0-2.61,0-3.86,0-.12,0-.27-.15-.35-.27-.26-.37-.5-.76-.73-1.15a.66.66,0,0,0-.67-.39H78.39a.67.67,0,0,0-.68.38c-.21.38-.43.77-.67,1.13-.09.13-.25.29-.38.3-1.17,0-2.34,0-3.59,0l2.4-3.64C76.74,4.34,78,2.4,79.28.45A.74.74,0,0,1,80,.05c1.34,0,2.68,0,4,0a.69.69,0,0,1,.52.27C86.62,3.5,88.69,6.67,90.83,9.93ZM84.24,5.66,81.82,1.84,79.45,5.66Z"/><path class="cls-1" d="M157,9.93l4.31-6.56c.67-1,1.33-2,2-3.07a.54.54,0,0,1,.4-.23c1.44,0,2.89,0,4.34,0a.53.53,0,0,1,.37.2c1.52,2.31,3,4.63,4.54,6.94.51.78,1,1.55,1.54,2.32a2.8,2.8,0,0,1,.17.4c-1.3,0-2.55,0-3.8,0-.1,0-.24-.13-.31-.23-.29-.41-.53-.86-.84-1.25a.84.84,0,0,0-.57-.31q-3.45,0-6.92,0a.88.88,0,0,0-.55.31,2,2,0,0,0-.36.61,1.39,1.39,0,0,1-1.63.9A27,27,0,0,0,157,9.93Zm11.17-4.26-2.42-3.84-2.39,3.84Z"/><path class="cls-1" d="M214.16.06V2.48h-.53c-2.28,0-4.56,0-6.83,0a2.61,2.61,0,0,0-2.55,1.74,2.45,2.45,0,0,0,2.17,3.26c2.38.11,4.77.09,7.15.12h.59V9.93h-.54c-2.62,0-5.25,0-7.88,0a4.71,4.71,0,0,1-4.46-2.66A4.79,4.79,0,0,1,204,.45a7.81,7.81,0,0,1,2.26-.38c2.45,0,4.9,0,7.35,0Z"/><path class="cls-1" d="M135.21,9.9H132c0-1,0-1.9,0-2.83a1.09,1.09,0,0,0-.35-.88c-1.91-1.88-3.79-3.78-5.69-5.66a2.06,2.06,0,0,0-.46-.27l.14-.2h1.74a6.19,6.19,0,0,0,1.14,0,2.44,2.44,0,0,1,2.32,1l3,3c1.23-1.24,2.43-2.45,3.64-3.64a1.14,1.14,0,0,1,.69-.3c1.15,0,2.29,0,3.56,0-.17.19-.27.31-.39.43l-5.74,5.74a1,1,0,0,0-.33.79c0,.81,0,1.62,0,2.44C135.24,9.61,135.22,9.76,135.21,9.9Z"/><path class="cls-1" d="M91.86.08h3.22V7.59h8V9.9H91.86Z"/><path class="cls-1" d="M2.51,15.21v9.16h-1V13.89c.47,0,1,0,1.44,0,.09,0,.2.18.24.3Q4.59,17.46,6,20.73c.3.68.61,1.36,1,2.13l4-8.95h1.44V24.35h-.91V15.12l-.1,0c-.18.44-.37.87-.55,1.3L8,23c-.1.26-.24.51-.34.77-.25.61-.51.77-1.12.61A.67.67,0,0,1,6.26,24c-.58-1.39-1.15-2.79-1.73-4.19S3.24,16.74,2.59,15.2Z"/><path class="cls-1" d="M199.05,9.91h-3.3V.09h3.3Z"/><path class="cls-1" d="M97,24.38h-1V19.63a1.81,1.81,0,0,0-1.75-1.9,2,2,0,0,0-2,1.46,10.55,10.55,0,0,0-.2,1.68c0,1.16,0,2.32,0,3.5h-.92v-7.3h.89v1.06a2.72,2.72,0,0,1,2.47-1.28,2.53,2.53,0,0,1,2.22,1.46,3.42,3.42,0,0,1,2-1.4c1.45-.24,2.82.4,3,1.95.15,1.81,0,3.64,0,5.5H101c0-1.51,0-3,0-4.49a3.55,3.55,0,0,0-.09-.79,1.66,1.66,0,0,0-1.65-1.34,1.74,1.74,0,0,0-1.71.89,5.73,5.73,0,0,0-.45,1.74C97,21.69,97,23,97,24.38Z"/><path class="cls-1" d="M55.52,21.65h1.07a1.84,1.84,0,0,0,.65,1.5,2.74,2.74,0,0,0,1.72.5,3.13,3.13,0,0,0,1.79-.45,1.69,1.69,0,0,0,.83-1.76,1.65,1.65,0,0,0-1.21-1.35c-.81-.3-1.65-.55-2.46-.87a2.92,2.92,0,0,1-2-1.8A2.62,2.62,0,0,1,57.53,14a4.56,4.56,0,0,1,3.35,0,2.52,2.52,0,0,1,1.63,2.25h-1a2.13,2.13,0,0,0-2.79-1.54A2.18,2.18,0,0,0,57,15.76a1.47,1.47,0,0,0,.57,2A29.77,29.77,0,0,0,60.37,19a4.4,4.4,0,0,1,1.84,1.13,2.84,2.84,0,0,1,.08,3.17,2.6,2.6,0,0,1-1.54,1.08,5.2,5.2,0,0,1-3.44.05A2.88,2.88,0,0,1,55.52,21.65Z"/><path class="cls-1" d="M89.28,22.05a2.89,2.89,0,0,1-2.51,2.54,3.61,3.61,0,0,1-2.35-.36A3.22,3.22,0,0,1,83,22.07a4.83,4.83,0,0,1,.62-4,3.15,3.15,0,0,1,3.11-1.23,2.79,2.79,0,0,1,2.22,1.48A4.45,4.45,0,0,1,89.37,21H83.89c-.11,2,1.38,3.17,3.06,2.68a1.68,1.68,0,0,0,1.19-1.06C88.34,21.9,88.76,22,89.28,22.05Zm-5.4-2h4.44a2.2,2.2,0,0,0-2.14-2.33C85.28,17.68,84.21,18.17,83.88,20.07Z"/><path class="cls-1" d="M38.5,16.85A3.39,3.39,0,0,1,42,20.06a5,5,0,0,1-.44,2.82,2.9,2.9,0,0,1-2.08,1.66,3.39,3.39,0,0,1-2.62-.36,3.6,3.6,0,0,1-1.63-2.87A4.29,4.29,0,0,1,36.14,18,3.17,3.17,0,0,1,38.5,16.85Zm-2.33,3.89a8.2,8.2,0,0,0,.39,1.57,2.15,2.15,0,0,0,3.62.76,3.57,3.57,0,0,0,.35-4.2,2.16,2.16,0,0,0-3.49-.4A3.89,3.89,0,0,0,36.17,20.74Z"/><path class="cls-1" d="M109.26,18.94a3.26,3.26,0,0,0-.45,0c-.36,0-.59,0-.73-.45a1.57,1.57,0,0,0-1.66-.74,2.82,2.82,0,0,0-1.16.41.78.78,0,0,0,.18,1.44c.72.28,1.48.47,2.23.68,1.19.34,1.67.77,1.78,1.65a2.12,2.12,0,0,1-1.63,2.46,4.29,4.29,0,0,1-2.83,0c-.78-.27-1.51-1.28-1.3-2h.93c.27,1.33,1.49,1.46,2.57,1.23a1.72,1.72,0,0,0,1-.58c.54-.71.18-1.52-.75-1.82-.63-.2-1.29-.34-1.94-.49a1.91,1.91,0,0,1-1.67-2,1.93,1.93,0,0,1,1.42-1.75,4.18,4.18,0,0,1,2.5-.05A2,2,0,0,1,109.26,18.94Z"/><path class="cls-1" d="M23.19,18.94a5.42,5.42,0,0,0-.57,0c-.27,0-.45,0-.55-.36a1.12,1.12,0,0,0-.86-.72,2,2,0,0,0-2,.31.86.86,0,0,0,.32,1.53c.58.19,1.18.29,1.75.5a7.74,7.74,0,0,1,1.67.79c.81.54.66,2.25-.28,2.92a3.68,3.68,0,0,1-4,.29,1.67,1.67,0,0,1-1-1.82h.56c.26,0,.4,0,.48.36a1.34,1.34,0,0,0,1.19.92A2.27,2.27,0,0,0,22,23.19a1,1,0,0,0-.29-1.77c-.6-.26-1.28-.36-1.91-.57a5.87,5.87,0,0,1-1.41-.6,1.81,1.81,0,0,1,.45-3,3.58,3.58,0,0,1,3.5.12A1.75,1.75,0,0,1,23.19,18.94Z"/><path class="cls-1" d="M24.78,22.41h1a2.2,2.2,0,0,0,3.17,1.07,1.31,1.31,0,0,0,.74-1.11,1.11,1.11,0,0,0-.91-1.05c-.85-.27-1.71-.49-2.55-.75a1.45,1.45,0,0,1-1.1-1.2,1.82,1.82,0,0,1,.69-2,3.66,3.66,0,0,1,3.9,0,1.76,1.76,0,0,1,.72,1.51h-1A2,2,0,0,0,26.51,18a.89.89,0,0,0,.12,1.57c.62.25,1.28.38,1.91.59s1.34.29,1.76.9a2.1,2.1,0,0,1-.79,3.07,3.76,3.76,0,0,1-3.87-.08A2,2,0,0,1,24.78,22.41Z"/><path class="cls-1" d="M70.68,22.39a3.37,3.37,0,0,0,.45,0,.57.57,0,0,1,.75.48.93.93,0,0,0,.37.47A2.38,2.38,0,0,0,75.33,23a1,1,0,0,0-.42-1.59c-.62-.27-1.32-.37-2-.58a5.06,5.06,0,0,1-1.4-.62,1.8,1.8,0,0,1,.34-3,3.67,3.67,0,0,1,3.63.07,1.61,1.61,0,0,1,.75,1.61,2.82,2.82,0,0,1-.65,0,.6.6,0,0,1-.36-.26,1.7,1.7,0,0,0-1.82-.92,8.06,8.06,0,0,0-.84.24.83.83,0,0,0-.59.91.86.86,0,0,0,.72.82c.76.22,1.51.47,2.28.66a2,2,0,0,1,1.08,3.28,2.51,2.51,0,0,1-1.61.87,3.75,3.75,0,0,1-3-.49A2.29,2.29,0,0,1,70.68,22.39Z"/><path class="cls-1" d="M63.24,17.07c1.08-.08,1.08-.08,1.43.79.66,1.66,1.34,3.32,2,5,0,0,.07.06.12.11.73-1.84,1.48-3.67,2.18-5.51.25-.67.76-.28,1.25-.46l-1,2.47q-1.45,3.66-2.9,7.34c-.11.26-.24.42-.56.38a5.16,5.16,0,0,0-.69,0c.25-.62.42-1.2.7-1.73a2.27,2.27,0,0,0,0-2.16c-.88-2-1.69-4.05-2.53-6.08A.38.38,0,0,1,63.24,17.07Z"/><path class="cls-1" d="M44.65,17.07v1a3,3,0,0,1,1.8-1.18,2.39,2.39,0,0,1,3,1.79,3.63,3.63,0,0,1,.1.93c0,1.56,0,3.12,0,4.72h-.95v-4.7a1.82,1.82,0,0,0-1.77-1.93,2,2,0,0,0-2,1.51,11.7,11.7,0,0,0-.19,1.67c0,1.15,0,2.29,0,3.46h-.91V17.07Z"/><path class="cls-1" d="M81.75,23.68a3.83,3.83,0,0,1,0,.59c0,.1-.11.29-.17.29a7.92,7.92,0,0,1-1.69-.08c-.61-.14-.8-.67-.8-1.25V18H77.69v-1h1.39c0-.36,0-.69,0-1s0-.64.46-.73a2.93,2.93,0,0,0,.48-.21V17h1.62V18H80v4.81c0,.71.24.95,1,.95C81.23,23.73,81.46,23.7,81.75,23.68Z"/><path class="cls-1" d="M15.77,24.38h-.88V17.07h.88Z"/><path class="cls-1" d="M32.57,17.05h.88v7.31h-.88Z"/><path class="cls-1" d="M33.55,15H32.47V13.92h1.08Z"/><path class="cls-1" d="M15.86,15h-1v-1.1h1Z"/></g></g></g></g></svg>