<?xml version="1.0" encoding="utf-8"?>
<!-- Generator: Adobe Illustrator 23.0.6, SVG Export Plug-In . SVG Version: 6.00 Build 0)  -->
<svg version="1.1" id="Layer_1" xmlns="http://www.w3.org/2000/svg" xmlns:xlink="http://www.w3.org/1999/xlink" x="0px" y="0px"
	 viewBox="0 0 272 92" style="enable-background:new 0 0 272 92;" xml:space="preserve">
<style type="text/css">
	.st0{fill:#FFFFFF;}
</style>
<path class="st0" d="M115.75,47.18c0,12.77-9.99,22.18-22.25,22.18s-22.25-9.41-22.25-22.18C71.25,34.32,81.24,25,93.5,25
	S115.75,34.32,115.75,47.18z M106.01,47.18c0-7.98-5.79-13.44-12.51-13.44S80.99,39.2,80.99,47.18c0,7.9,5.79,13.44,12.51,13.44
	S106.01,55.07,106.01,47.18z"/>
<path class="st0" d="M163.75,47.18c0,12.77-9.99,22.18-22.25,22.18s-22.25-9.41-22.25-22.18c0-12.85,9.99-22.18,22.25-22.18
	S163.75,34.32,163.75,47.18z M154.01,47.18c0-7.98-5.79-13.44-12.51-13.44s-12.51,5.46-12.51,13.44c0,7.9,5.79,13.44,12.51,13.44
	S154.01,55.07,154.01,47.18z"/>
<path class="st0" d="M209.75,26.34v39.82c0,16.38-9.66,23.07-21.08,23.07c-10.75,0-17.22-7.19-19.66-13.07l8.48-3.53
	c1.51,3.61,5.21,7.87,11.17,7.87c7.31,0,11.84-4.51,11.84-13v-3.19h-0.34c-2.18,2.69-6.38,5.04-11.68,5.04
	c-11.09,0-21.25-9.66-21.25-22.09c0-12.52,10.16-22.26,21.25-22.26c5.29,0,9.49,2.35,11.68,4.96h0.34v-3.61h9.25L209.75,26.34z
	 M201.19,47.26c0-7.81-5.21-13.52-11.84-13.52c-6.72,0-12.35,5.71-12.35,13.52c0,7.73,5.63,13.36,12.35,13.36
	C195.98,60.62,201.19,54.99,201.19,47.26z"/>
<path class="st0" d="M225,3v65h-9.5V3H225z"/>
<path class="st0" d="M262.02,54.48l7.56,5.04c-2.44,3.61-8.32,9.83-18.48,9.83c-12.6,0-22.01-9.74-22.01-22.18
	c0-13.19,9.49-22.18,20.92-22.18c11.51,0,17.14,9.16,18.98,14.11l1.01,2.52L240.35,53.9c2.27,4.45,5.8,6.72,10.75,6.72
	C256.06,60.62,259.5,58.18,262.02,54.48L262.02,54.48z M238.75,46.5l19.82-8.23c-1.09-2.77-4.37-4.7-8.23-4.7
	C245.39,33.57,238.5,37.94,238.75,46.5z"/>
<path class="st0" d="M35.29,41.41V32H67c0.31,1.64,0.47,3.58,0.47,5.68c0,7.06-1.93,15.79-8.15,22.01
	c-6.05,6.3-13.78,9.66-24.02,9.66c-18.98,0-34.94-15.46-34.94-34.44S16.32,0.47,35.3,0.47c10.5,0,17.98,4.12,23.6,9.49l-6.64,6.64
	c-4.03-3.78-9.49-6.72-16.97-6.72c-13.86,0-24.7,11.17-24.7,25.03s10.84,25.03,24.7,25.03c8.99,0,14.11-3.61,17.39-6.89
	c2.66-2.66,4.41-6.46,5.1-11.65L35.29,41.41z"/>
</svg>
