<?xml version="1.0" encoding="utf-8"?>
<!-- Generator: Adobe Illustrator 23.0.6, SVG Export Plug-In . SVG Version: 6.00 Build 0)  -->
<svg version="1.1" id="Layer_1" xmlns="http://www.w3.org/2000/svg" xmlns:xlink="http://www.w3.org/1999/xlink" x="0px" y="0px"
	 viewBox="0 0 30000 30000" style="enable-background:new 0 0 16306.6 16306.6;" xml:space="preserve">
<style type="text/css">
	.st0{fill:#FFFFFF;}
</style>
<g transform="scale(0.230000,-0.230000)">
	<path class="st0" d="M96412.8-12637c-1887.8-440.5-3712.6-1132.6-4090.1-1573.1c-755.1-818-629.2-755.1,3397.9,377.5
		c2076.5,566.3,12647.9,440.5,13088.4-188.8c188.8-314.6,1761.9-881,3523.8-1258.5c2768.7-629.2,3020.4-629.2,1950.7,188.8
		C110004.6-12007.8,102957-11001,96412.8-12637z"/>
	<path class="st0" d="M35249.7-13140.4l-3460.9-755.1l5663.3-818c3146.2-440.5,6921.8-1384.3,8431.9-2076.5
		c3083.3-1384.3,3398-1447.3,2894.6-629.2c-188.8,314.6-62.9,755.1,251.7,943.9c251.7,188.8,503.4-251.7,440.5-1006.8
		c0-755.1,314.6-1447.3,818-1636c566.3-188.8,692.2,0,377.5,503.4c-314.6,566.3-251.7,692.2,251.7,377.5
		c377.5-251.7,566.3-692.2,377.5-1006.8c-188.8-251.7,440.5-943.9,1321.4-1573.1c1510.2-1006.8,1636.1-1006.8,2517,125.9
		c440.5,629.2,881,1447.3,881,1824.8c0,943.9-3083.3,3712.6-5663.3,5034C47583-12448.2,40032-12133.6,35249.7-13140.4z"/>
	<path class="st0" d="M93958.8-15154c-5852-1824.8-10256.8-5726.2-10256.8-9124.1c0-2768.7,566.3-3146.2,2705.8-1887.8
		c1699,1069.7,3712.6,1636.1,10319.7,2894.6c1006.8,188.8,1321.4,566.3,1006.8,1384.3s-125.9,755.1,818-251.7
		c692.2-881,2202.4-1510.2,3838.4-1699c3272.1-377.5,4530.6,818,5034,4719.4l377.5,2705.8l-2139.4-1636.1
		c-1195.6-880.9-2831.6-1950.7-3712.6-2391.2c-1573.1-755.1-1573.1-755.1-251.7,377.6c692.2,629.2,2202.4,1824.8,3272.1,2642.8
		c3398,2517,2705.8,3209.2-3146.2,3146.3C98929.8-14273.1,95406-14650.6,93958.8-15154z"/>
	<path class="st0" d="M29964-17041.8c-251.7-1258.5-818-2202.4-1321.4-2202.4c-440.5,0-1636.1-314.6-2642.9-692.2l-1761.9-692.2
		l1510.2-1195.6c943.9-755.1,2013.6-1069.7,2831.6-881c1006.8,314.6,1069.7,251.7,440.5-188.8c-692.2-503.4-62.9-880.9,2454.1-1636
		c4216-1258.5,3838.4-1258.5,8369,377.5l3838.4,1384.4l-1887.8,818c-1006.8,440.5-2517,629.2-3397.9,440.5
		c-1069.7-188.8-1321.4-125.9-755.1,251.7c1258.5,818-188.8,1258.5-3523.8,1132.7c-1699-125.8-2642.8,125.8-2642.8,629.2
		c0,1069.7,4278.9,503.4,9438.8-1195.6c3272.1-1069.7,10697.3-1950.7,10697.3-1258.5c0,125.9-1069.7,881-2328.2,1699
		c-2517,1636.1-11011.9,4341.8-15983,5034l-2957.5,440.5L29964-17041.8z M32732.7-22705c0-125.8-377.6-314.6-818-503.4
		c-503.4-188.8-880.9,62.9-880.9,503.4s377.5,692.2,880.9,503.4C32355.2-22390.4,32732.7-22579.2,32732.7-22705z"/>
	<path class="st0" d="M108746.1-18300.3l-251.7-2265.3l3775.5,251.7c4404.8,251.7,9501.7,2265.3,7551,2957.5
		c-692.2,251.7-3335,629.2-5977.9,818l-4845.2,440.5L108746.1-18300.3z"/>
	<path class="st0" d="M56015-21509.4c-1195.6-3020.4-692.2-5977.9,1699-10382.6c2076.5-3838.4,2202.4-4467.7,1510.2-5977.9
		c-377.6-943.9-629.2-1761.9-566.3-1824.8c125.9-125.9,2265.3-314.6,4719.4-440.5c3460.9-188.8,4656.5,0,4908.1,629.2
		c692.2,1950.7,251.7,4404.8-1321.4,6481.3c-3838.4,5096.9-4719.4,8432-3083.3,12081.6c377.6,943.9,0,1069.7-3397.9,1069.7
		C56895.9-19873.4,56581.3-19999.2,56015-21509.4z"/>
	<path class="st0" d="M75773.4-20502.7c-2957.5-1195.6-2328.2-5537.4,1573.1-10319.7c2391.1-3020.4,2894.5-4782.3,2076.5-7299.3
		l-692.2-1887.8H81185c1321.4,0,2831.6-125.9,3335-377.6c566.3-188.8,1132.6,314.6,1573.1,1447.3
		c1510.2,4090.1,1447.3,5096.9-377.6,7236.4c-1006.8,1132.7-2139.4,2705.8-2579.9,3460.9c-881,1699-943.9,6292.5-62.9,6795.9
		C85275.1-20125.1,78793.8-19244.1,75773.4-20502.7z"/>
	<path class="st0" d="M23294-22264.6c62.9-1761.9,2265.3-5977.9,3964.3-7613.9l1636.1-1510.2l2768.7,2517l2705.8,2517l-2705.8,755.1
		c-1447.3,440.5-3964.3,1636.1-5537.4,2642.9C23734.4-21446.5,23294-21320.7,23294-22264.6z"/>
	<path class="st0" d="M109815.9-21572.4c-2454.1-629.2-4593.5-3335-2579.9-3335c440.5,0,1195.6-440.5,1636-943.9
		c440.5-566.3,943.9-818,1069.7-692.2c440.5,440.5,7110.5-5663.2,7110.5-6544.2c0-251.7,1887.8-755.1,4278.9-1132.6
		c2328.2-377.6,4845.2-881,5663.2-1132.7c3460.9-1006.8,377.5,4782.3-5222.8,9690.5c-1824.8,1573.1-4278.9,3020.4-6166.7,3586.7
		C112332.9-21131.9,111955.3-21069,109815.9-21572.4z"/>
	<path class="st0" d="M43430-24215.2c-5663.2-1824.8-9627.5-4153.1-12773.8-7551c-4341.8-4656.5-6103.7-9753.4-5159.9-15164.9
		c503.4-2957.5,1824.8-3838.4,7362.2-4971.1c4908.2-1069.7,7488.1-188.8,13528.9,4656.4c2705.8,2139.5,6292.5,4656.5,7928.6,5600.3
		c4467.7,2642.9,5474.5,5537.4,2957.5,8746.6L56015-31325.8l-3586.7-943.9c-4153.1-1069.7-11767-4467.7-14850.3-6544.2
		l-2013.6-1384.4l1761.9,1887.8c943.9,1006.8,3460.9,2705.8,5663.2,3649.7c2139.5,1006.8,4027.2,1950.7,4153.1,2013.6
		c125.9,62.9-125.8,566.3-566.3,1132.7c-692.2,818-503.4,943.9,1447.3,943.9c1195.6,0,2705.8,188.8,3272.1,440.5
		c943.9,314.6,943.9,503.4-377.5,1573.1c-1132.7,943.9-1195.6,1132.7-377.6,880.9c3712.6-1195.6,4341.8-1195.6,4027.2,0
		c-251.7,692.2-566.3,1950.7-818,2957.5c-377.6,1573.1-629.2,1699-3649.7,1636.1C48338.1-23082.6,45317.7-23586,43430-24215.2z
		 M50981-41519.6c0-125.8-503.4-629.2-1069.7-1069.7c-1006.8-818-1069.7-755.1-251.7,251.7
		C50477.6-41330.8,50981-41016.2,50981-41519.6z"/>
	<path class="st0" d="M90875.4-25159.1c-3586.7-1132.6-4341.8-1699-3397.9-2265.3c503.4-314.6,440.5-566.3-314.6-818
		c-629.2-314.6-881-188.8-566.3,251.7c251.7,440.5,62.9,629.2-377.5,440.5c-1887.8-629.2-1195.6-1636,1384.3-2076.5
		c4090.1-629.2,17430.2-6229.6,16675.1-6984.7c-188.8-188.8-1384.4,188.8-2768.7,880.9c-2454.1,1258.5-8557.8,3398-11578.2,4153.1
		c-1636,377.5-1699,251.7-2013.6-3272.1c-188.8-1950.7-503.4-4216-755.1-4971.1c-377.6-1195.6,0-1699,2454.1-3272.1
		c6607.1-4153.1,18562.9-5034,24792.5-1824.8c2705.8,1384.4,2957.5,1761.9,3146.2,4027.2c377.5,3964.3-881,6795.9-4153.1,9816.3
		c-5222.8,4656.5-9061.2,6355.4-14913.2,6607.1C95469-24341.1,92448.6-24655.7,90875.4-25159.1z"/>
	<path class="st0" d="M19015.1-29752.6c-1132.7-566.3-3083.3-2139.4-4278.9-3586.7l-2202.4-2579.9l4530.6-188.8
		c2517-125.8,4971.1,0,5537.4,251.7c566.3,251.7,1636.1,440.5,2454.1,503.4c1384.3,125.9,2642.9,1258.5,2642.9,2517
		c0,314.6-1761.9,377.6-3901.4,188.8c-3398-314.6-3586.7-251.7-1447.3,251.7c4216,1006.8,4216,1006.8,3335,2454.1
		C24678.3-28368.3,21909.6-28305.4,19015.1-29752.6z"/>
	<path class="st0" d="M119443.4-39506c125.9-2139.4,566.3-4216,1006.8-4593.5c440.5-314.6,1258.5-1510.2,1887.8-2517
		c629.2-1069.7,2768.7-3146.2,4845.2-4656.4c2013.6-1510.2,3712.6-2831.6,3712.6-2957.5c0-125.8-1573.1,755.1-3460.9,1950.7
		s-3586.7,2202.4-3775.5,2202.4c-503.4,0,377.5-3272.1,1321.4-4845.2c2076.5-3335,10886-5411.6,12836.7-3020.4
		c1132.7,1384.3,440.5,10193.9-1006.8,13214.2c-1824.8,3964.3-8431.9,7865.6-14787.4,8809.5l-2831.6,440.5L119443.4-39506z
		 M135552.2-44917.6c188.8-314.6-62.9-566.3-566.3-566.3c-503.4,0-755.1,251.7-566.3,566.3c188.8,251.7,440.5,503.4,566.3,503.4
		C135111.7-44414.2,135363.4-44665.9,135552.2-44917.6z"/>
	<path class="st0" d="M15176.6-39317.2c-2642.9-1824.8-5096.9-4467.7-5096.9-5537.4c0-440.5-251.7-818-566.3-818
		c-314.6,0-1006.8-1132.6-1573.1-2517c-1195.6-2957.5-1384.4-10697.2-314.6-10697.2c377.6,0,3272.1,2076.5,6481.3,4593.5
		c3146.3,2579.9,6670.1,5348.6,7865.6,6229.6c1887.8,1447.3,2202.4,2013.6,2265.3,4719.4c62.9,1636.1,314.6,3649.7,566.3,4467.7
		c440.5,1384.4,377.5,1384.4-3460.9,1258.5C18448.7-37744.1,16875.6-38184.6,15176.6-39317.2z"/>
	<path class="st0" d="M116108.4-45672.7c-188.8-314.6-1887.8-1069.7-3775.5-1573.1l-3335-1006.8l3523.8-4971.1
		c4971.1-6984.7,6544.2-9879.2,5474.5-9879.2c-503.4,0-755.1,251.7-629.2,503.4c377.6,566.3-8872.4,13277.2-10193.9,13969.4
		c-503.4,314.6-2013.6,440.5-3335,314.6c-1321.4-125.9-2265.3,0-2139.5,188.8c125.9,251.7-880.9,566.3-2265.3,692.2
		c-1384.4,125.8-2517,125.8-2517,0c0-566.3,4782.3-8117.3,7047.6-11263.6c3901.4-5411.6,9061.2-8494.9,15353.7-9312.9
		c3146.2-440.5,3209.2-440.5,4027.2,1510.2c1195.6,3020.4,503.4,12836.7-1195.6,16738.1c-755.1,1761.9-1824.8,3523.8-2391.1,3964.3
		C118499.5-44917.6,116674.7-44791.7,116108.4-45672.7z M116989.3-52153.9c0-566.3-125.9-566.3-314.6,0
		c-188.8,440.5-818,566.3-1384.4,377.5c-880.9-251.7-880.9-188.8-125.9,314.6C116171.3-50706.7,117052.2-51021.3,116989.3-52153.9z"
		/>
	<path class="st0" d="M19707.2-50832.5c-5034-3586.7-10005.1-8054.4-8935.4-8054.4c503.4,0,2454.1,377.6,4404.8,880.9
		c3838.4,880.9,7551,3901.4,8746.6,7047.6C25307.6-47371.6,24678.3-47371.6,19707.2-50832.5z"/>
	<path class="st0" d="M66838.1-49762.8c-7739.8-2391.1-13591.8-10382.6-13591.8-18562.9c-62.9-6166.7,1636.1-10319.7,5852-14472.8
		c4216-4153,7991.5-5663.2,13969.4-5663.2c5663.2,0,9375.8,1447.3,13403,5096.9c4656.5,4216,6292.5,8180.2,6355.4,14724.5
		c0,4278.9-251.7,5600.3-1761.9,8620.7C86722.4-51210.1,76339.8-46805.3,66838.1-49762.8z M73130.6-55300.2
		c1258.5-125.8,2831.6-629.2,3523.8-1258.5c755.1-692.2,2202.4-1069.7,4278.9-1069.7c4782.3,0,7613.9-2831.6,5034-4971.1
		c-503.4-440.5-881-1761.9-818-3020.4c62.9-1699-314.6-2579.9-1636.1-3712.6c-943.9-818-1699-1887.8-1699-2391.1
		c0-1069.7-2139.5-5159.9-3586.7-6795.9c-1006.8-1069.7-629.2-4530.6,503.4-5222.8c314.6-251.7,566.3-943.9,566.3-1636
		c0-1636.1-2076.5-1573.1-3964.3,251.7c-1510.2,1384.4-5474.5,10571.4-5474.5,12647.9c0,566.3-503.4,1195.6-1069.7,1384.4
		c-629.2,188.8-1573.1,629.2-2076.5,943.9s-1824.8,1195.6-2957.5,1887.8c-2139.5,1384.4-3460.9,4090.1-2894.6,6166.7
		c188.8,755.1,62.9,1321.4-377.6,1321.4c-1132.7,0-755.1,1447.3,818,3397.9s5096.9,3020.4,7928.6,2454.1
		C70110.2-55048.5,71872.1-55237.3,73130.6-55300.2z"/>
	<path class="st0" d="M24300.8-52468.6c-503.4-943.9-1447.3-2391.2-2202.4-3209.2c-692.2-818-1132.7-1761.9-943.9-2076.5
		c188.8-251.7,125.9-440.5-188.8-377.6c-818,188.8-3335-818-3335-1321.4c0-2139.4,4341.8-12773.8,5096.9-12333.3
		c251.7,188.8,440.5-62.9,377.5-503.4c-62.9-2957.5,0-2957.5,4530.6-755.1c4467.7,2202.4,9816.3,7425.2,9187.1,8935.4
		c-125.9,440.5,62.9,755.1,440.5,629.2c881-125.9,5537.4,8557.8,5537.4,10382.6c0,943.9-251.7,1132.6-1069.7,818
		c-629.2-251.7-2957.5-629.2-5159.8-880.9l-4027.2-377.6l-2517-6795.9c-1384.3-3712.6-2642.8-6670.1-2705.8-6544.2
		c-125.8,125.9,755.1,3209.2,1887.8,6921.8c1195.6,3712.6,1887.8,6921.8,1573.1,7047.6c-251.7,188.8-1636.1,755.1-3020.4,1258.5
		C25244.6-50769.6,25181.7-50769.6,24300.8-52468.6z M23294-63543.4c0-188.8-251.7-503.4-629.2-692.2
		c-314.6-188.8-629.2-62.9-629.2,251.7c0,377.5,314.6,692.2,629.2,692.2C23042.3-63291.7,23294-63417.5,23294-63543.4z"/>
	<path class="st0" d="M125043.7-62284.9c-188.8-2579.9-692.2-5285.7-1069.7-6040.8c-629.2-1195.6-1069.7-1321.4-3460.9-1006.8
		l-2705.8,440.5l-5726.2-7676.9c-3146.2-4153.1-5726.2-7299.3-5726.2-6984.7c0,377.6,2139.5,3523.8,4719.4,6984.7
		c4656.5,6292.5,5096.9,7299.3,2328.2,5348.6c-818-566.3-1636-880.9-1761.9-692.2c-188.8,188.8,503.4,818,1573.1,1447.3
		s1950.7,1321.4,1950.7,1510.2c0,188.8-1321.4,818-2894.5,1510.2c-2768.7,1132.6-2831.6,1132.6-3775.5,0
		c-503.4-692.2-1824.8-3020.4-2957.5-5285.7c-1636-3460.9-2013.6-4971.1-2202.4-9879.2c-188.8-3209.2-125.9-5852,125.9-5852
		c188.8,0,3146.2,440.5,6544.2,1006.8c7865.6,1258.5,9438.8,2202.4,13088.4,8369c1321.4,2202.4,1510.2,2831.6,818,3335
		c-692.2,503.4-692.2,566.3,125.9,314.6c566.3-188.8,1195.6,314.6,1636,1384.4c1069.7,2454.1,2642.9,8117.3,2328.2,8369
		c-125.8,125.9-251.7,1761.9-314.6,3586.7c-125.8,2328.2-440.5,3460.9-1195.6,3838.4
		C125547.1-57754.3,125358.3-58194.7,125043.7-62284.9z"/>
	<path class="st0" d="M129888.9-62159c503.4-1510.2,1321.4-3775.5,1887.8-5096.9c629.2-1384.3,943.9-2768.7,818-3146.2
		c-62.9-314.6-692.2,755.1-1384.4,2454.1c-943.9,2517-1258.5,2831.6-1636,1824.8c-943.9-2454.1-566.3-6040.8,1006.8-9124.1
		c818-1699,1824.8-3209.2,2202.4-3460.9c1699-1069.7,2642.9,9312.9,1258.5,14284c-629.2,2076.5-3146.2,4908.2-4467.7,4908.2
		C129322.6-59516.2,129448.5-60711.7,129888.9-62159z"/>
	<path class="st0" d="M11338.2-62159c-3712.6-3775.5-4656.5-6858.8-4656.5-14787.4c0-3901.4,125.9-7173.5,314.6-7362.2
		c188.8-188.8,3460.9,566.3,7362.2,1636l7047.6,2013.6l-62.9,3523.8c0,2202.4-566.3,4593.5-1447.3,6607.1l-1384.3,3146.2
		l-4216-6418.4c-2265.3-3586.7-4341.8-6481.3-4593.5-6481.3c-377.5,0-125.8,503.4,3901.4,6607.1
		c1132.7,1761.9,2517,4216,3083.3,5537.4l943.9,2328.2h-1699h-1699l1384.4,1006.8c881,629.2,1384.3,1573.1,1384.3,2831.6
		c0,1573.1-251.7,1824.8-1824.8,1824.8C13981.1-60145.4,12722.6-60837.6,11338.2-62159z"/>
	<path class="st0" d="M104152.6-64613.1c-251.7-2076.5-818-5411.6-1258.5-7362.2c-503.4-1950.7-755.1-3649.6-692.2-3775.5
		c125.8-62.9,1510.2,2139.5,3083.3,4908.2l2894.6,5096.9l-1761.9,2517l-1824.8,2454.1L104152.6-64613.1z"/>
	<path class="st0" d="M38962.3-63795.1l-1699-2328.2l3083.3-3460.9L43430-73045l-943.9,2517
		c-440.5,1384.3-1069.7,3964.3-1384.4,5789.1l-503.4,3272.1L38962.3-63795.1z"/>
	<path class="st0" d="M34054.1-69898.8c-1069.7-1258.5-1950.7-2768.7-1950.7-3398c0-1321.4,2013.6-7613.9,3775.5-11704.1
		c692.2-1636,1258.5-3146.2,1258.5-3335c0-755.1-4908.2,8369-6040.8,11263.6c-629.2,1510.2-1195.6,2894.5-1258.5,3020.4
		c-125.8,125.9-1573.1-440.5-3209.2-1258.5c-1699-818-3083.3-1573.1-3209.2-1573.1c-188.8-125.9,943.9-4908.1,1573.1-6544.2
		c188.8-503.4,440.5-1510.2,503.4-2202.4c314.6-2265.3,692.2-3146.2,1824.8-4845.2c629.2-943.9,1384.3-1573.1,1699-1384.4
		c314.6,188.8,566.3-125.8,566.3-755.1c0-881,188.8-881,943.9-251.7c818,692.2,880.9,629.2,566.3-188.8
		c-251.7-692.2,314.6-1447.3,1761.9-2328.2c1636.1-1069.7,2705.8-1258.5,5222.8-1006.8c1950.7,251.7,3460.9,755.1,3964.3,1447.3
		c377.6,566.3,755.1,818,755.1,503.4c0-1069.7,2957.5,3712.6,3712.6,6040.8c943.9,2831.6,0,7991.5-2139.4,11578.2
		c-2328.2,4027.2-6544.2,9124.1-7488.1,9124.1C36382.4-67696.4,35123.9-68703.2,34054.1-69898.8z"/>
	<path class="st0" d="M125232.5-77764.4c-1510.2-2579.9-3398-5537.4-4153.1-6607.1c-755.1-1006.8-2265.3-4027.2-3398-6607.1
		c-1069.7-2579.9-2202.4-4971.1-2579.9-5348.6c-440.5-440.5,943.9,3335,3020.4,8432c314.6,692.2,0,818-1132.6,503.4
		c-818-188.8-2957.5-692.2-4782.3-1069.7l-3209.2-692.2l314.6-3901.4c377.5-4341.8,1824.8-7299.3,4278.9-8620.7
		c2642.9-1384.4,7865.6,125.9,10571.4,3083.3c4404.8,4908.2,6733,15983,4719.4,22715.9l-881,2831.6L125232.5-77764.4z"/>
	<path class="st0" d="M99747.9-79778c-4153.1-5600.3-5096.9-6984.7-6795.9-10005.1c-943.9-1573.1-1510.2-3083.3-1258.5-3272.1
		c188.8-251.7,62.9-440.5-314.6-440.5c-1699,0-2831.6-13591.8-1384.4-17304.4c629.2-1636.1,818-1699,3586.7-1321.4
		c3209.2,440.5,8809.5,2768.7,11326.5,4782.3c881,692.2,2454.1,2391.1,3460.9,3712.6l1761.9,2454.1l-943.9,3649.6
		c-503.4,2013.6-943.9,4593.5-943.9,5726.2c0,2517-1132.6,3146.2-3523.8,1950.7c-1195.6-566.3-2894.6-2894.5-5285.7-7299.3
		c-4908.1-8809.5-5285.7-8872.4-943.9-125.9l3649.6,7236.4l62.9,6733c0,3775.5,62.9,6795.9,62.9,6795.9
		C102201.9-76505.9,101132.2-78016.1,99747.9-79778z"/>
	<path class="st0" d="M21657.9-83868.1c-566.3-1321.4-1258.5-3083.3-1573.1-3901.4c-1069.7-2705.8-1384.3-818-314.6,2202.4
		c566.3,1636,1006.8,3083.3,1006.8,3146.2c0,188.8-2328.2-377.6-4845.2-1132.7c-2013.6-566.3-2076.5-692.2-2013.6-3838.4
		c62.9-1824.8,251.7-4719.4,440.5-6544.2l440.5-3209.2l2517,818c1510.2,566.3,3523.8,2076.5,5159.9,3901.4
		c2957.5,3335,3083.3,3586.7,1887.8,4719.4c-503.4,377.5-692.2,1447.3-566.3,2265.3c188.8,943.9,62.9,1447.3-314.6,1195.6
		s-503.4,188.8-314.6,1132.6C23608.6-80784.8,22853.5-81225.3,21657.9-83868.1z"/>
	<path class="st0" d="M48464-86385.1c0-3083.3,4971.1-10823.1,13151.3-20513.6l2831.6-3272.1l-2768.7,2517
		c-2957.5,2705.8-6292.5,6166.6-7865.6,8180.2c-566.3,692.2-818,880.9-629.2,440.5c1006.8-1950.7,377.5-9564.6-1321.4-15353.7
		c-251.7-755.1,440.5-1258.5,2768.7-2013.6c2768.7-943.9,3460.9-943.9,7739.8-62.9c2579.9,566.3,5159.8,1132.7,5789.1,1321.4
		c1258.5,377.5,1384.4,2517,440.5,6040.8c-503.4,1824.8-943.9,2265.3-1950.7,2076.5c-692.2-125.9-1069.7,0-881,377.5
		c251.7,314.6,692.2,440.5,1006.8,251.7c2013.6-1258.5-1887.8,5789.1-5789.1,10382.6c-1384.3,1636-3838.4,3901.4-5474.5,5096.9
		c-1636.1,1132.7-3209.2,2391.2-3586.7,2768.7c-314.6,377.5-1258.5,1195.6-2013.6,1824.8C48464-85126.6,48464-85126.6,48464-86385.1
		z"/>
	<path class="st0" d="M45128.9-94187.8c-1950.7-2139.5-3586.7-4153.1-3586.7-4530.6c0-377.6,1510.2-2076.5,3335-3775.5
		c3083.3-3020.4,2768.7-2957.5-1887.8,62.9c-1699,1069.7-1636,1510.2-503.4-6733c503.4-3586.7,818-6670.1,692.2-6795.9
		c-377.6-377.6-1636.1,5726.2-2076.5,10130.9l-377.5,3712.6l-1195.6-2328.2c-755.1-1447.3-2454.1-3146.2-4278.9-4278.9
		c-2894.6-1761.9-3020.4-1950.7-2454.1-3838.4c881-3209.2,3523.8-6355.4,6984.7-8432c5159.9-3083.3,4971.1-3146.2,7551,1258.5
		c2894.6,4908.2,4278.9,8683.7,4278.9,11892.8c0,3146.2-1824.8,15605.4-2454.1,16675.1
		C48841.5-90601.1,47645.9-91545,45128.9-94187.8z"/>
	<path class="st0" d="M83764.9-96138.5c-4278.9-3398-8243.2-7236.4-9942.1-9501.7l-2768.7-3838.4l3964.3-1447.3
		c2202.4-755.1,4027.2-1447.3,4153.1-1447.3c62.9,0,125.8,440.5,125.8,1006.8c0,503.4,1699,2705.8,3775.5,4782.3
		c2076.5,2076.5,3586.7,4090.1,3397.9,4404.8c-251.7,440.5-125.9,503.4,251.7,251.7c566.3-314.6,755.1,440.5,755.1,2579.9
		c0,1699,377.5,3586.7,818,4278.9c1887.8,2768.7,3083.3,4719.4,2894.5,4719.4C91064.2-90412.3,87729.2-92992.3,83764.9-96138.5z"/>
	<path class="st0" d="M23482.7-94187.8c-3272.1-3020.4-3335-4090.1-943.9-11011.9l1761.9-4971.1l2768.7,377.5
		c1573.1,251.7,4027.2,943.9,5537.4,1510.2c2957.5,1195.6,6607.1,5285.7,6040.8,6795.9c-188.8,503.4-62.9,1132.6,314.6,1384.4
		c1384.4,818,629.2,1636-1195.6,1321.4c-1006.8-125.9-1887.8,0-1887.8,314.6s-377.6,566.3-818,566.3
		c-440.5,0-1824.8,566.3-3083.3,1258.5l-2265.3,1195.6l-943.9-3901.4l-943.9-3901.4l314.6,4719.4
		c314.6,4090.1,188.8,4845.2-818,5789.1C26188.5-91733.8,25999.7-91859.6,23482.7-94187.8z"/>
	<path class="st0" d="M64887.4-98844.3c125.9-314.6,1384.3-2705.8,2705.8-5285.7c2265.3-4153,2579.9-4467.7,3335-3460.9
		c1258.5,1699,1006.8,2642.9-1195.6,4845.2C66838.1-99914,64572.8-98089.2,64887.4-98844.3z"/>
	<path class="st0" d="M108620.3-104948l-2391.2-3209.2l1258.5-1636c1195.6-1699,4908.2-4467.7,5852-4467.7
		c314.6,0,566.3,314.6,566.3,692.2c0,377.5,692.2,1573.1,1447.3,2642.9c818,1132.6,2139.4,3272.1,2894.5,4782.3l1384.4,2705.8
		l-2831.6-377.5c-1699-251.7-2957.5-188.8-3209.2,188.8c-188.8,377.6-880.9,943.9-1510.2,1258.5
		C111200.2-101864.7,110571-102368.1,108620.3-104948z"/>
	<path class="st0" d="M84331.2-107716.7c-1132.7-1321.4-2517-3523.8-3146.2-4908.1c-943.9-2265.3-2517-8306.1-2517-9753.4
		c0-314.6,2139.5-1069.7,4719.4-1636.1c5852-1384.4,10005.1-1006.8,15102,1510.2c4153,2076.5,9753.4,6858.8,9753.4,8369
		c0,566.3-818,1887.8-1824.8,2957.5c-943.9,1006.8-1636.1,2076.5-1384.4,2265.3c188.8,251.7-377.6,125.8-1195.6-188.8
		c-2391.1-880.9-7928.5-4278.9-13403-8117.3c-2705.8-1887.8-5096.9-3272.1-5285.7-3083.3c-251.7,188.8-62.9,377.5,377.5,377.5
		s566.3,314.6,377.6,629.2c-251.7,377.6-125.9,566.3,188.8,503.4c314.6-125.8,1761.9,881,3272.1,2202.4
		c1447.3,1258.5,2957.5,2328.2,3335,2328.2s503.4,188.8,314.6,377.6c-251.7,188.8-943.9,62.9-1699-314.6
		c-1573.1-881-2139.4,0-3209.2,5159.9c-377.6,1950.7-943.9,3586.7-1258.5,3586.7
		C86596.5-105451.4,85463.9-106458.2,84331.2-107716.7z"/>
	<path class="st0" d="M70739.4-113883.4c125.9-2328.2,629.2-3272.1,3083.3-6040.8c1887.8-2076.5,3020.4-2957.5,3209.2-2454.1
		c566.3,1636,1761.9,8243.2,1510.2,8369c-503.4,377.5-6984.7,2894.5-7425.2,2894.5
		C70865.3-111114.7,70676.5-112373.2,70739.4-113883.4z"/>
	<path class="st0" d="M50351.7-118288.1c0-2328.2,4845.2-8369,7362.2-9250c1195.6-377.6,2265.3-566.3,2391.2-440.5
		c62.9,62.9,314.6,2265.3,440.5,4782.3l251.7,4530.6h-1699c-943.9,0-2894.6,440.5-4341.8,943.9
		C51106.8-116400.4,50351.7-116526.2,50351.7-118288.1z M55448.7-122252.4c818-1006.8,755.1-1069.7-188.8-251.7
		c-629.2,440.5-1132.6,943.9-1132.6,1069.7C54127.2-120931,54630.6-121245.6,55448.7-122252.4z"/>
	<path class="st0" d="M64384-117533c-2013.6-692.2-2076.5-818-2076.5-4027.2c0-3272.1,62.9-3460.9,2579.9-5034
		c3964.3-2454.1,7299.3-3460.9,13025.5-3838.4l5159.9-377.5v2013.6c0,3083.3-1006.8,4467.7-3272.1,4467.7h-1887.8l1069.7-1636
		c566.3-881,881-1761.9,692.2-2013.6c-188.8-188.8-377.6,0-377.6,440.5c0,440.5-314.6,566.3-755.1,314.6
		c-440.5-251.7-503.4-188.8-251.7,251.7s188.8,755.1-188.8,755.1c-314.6,0-1699,1132.6-3020.4,2579.9
		C68159.5-116211.6,68285.4-116274.5,64384-117533z M69229.2-123951.4c0-188.8-251.7-503.4-629.2-692.2
		c-314.6-188.8-629.2-62.9-629.2,251.7c0,377.5,314.6,692.2,629.2,692.2C68977.5-123699.7,69229.2-123825.5,69229.2-123951.4z"/>
</g>
</svg>