<svg xmlns="http://www.w3.org/2000/svg" viewBox="0 0 47.29 47.21"><defs><style>.cls-1{fill:#fff;}</style></defs><title>insomnia</title><g id="Layer_2" data-name="Layer 2"><g id="logos"><g id="_3K_IN_KIND" data-name="3K + IN KIND"><g id="insomia"><path class="cls-1" d="M47.17,23.73a6,6,0,0,1,0,1.7c-.4,1.33-.3,2.73-.73,4A27.87,27.87,0,0,1,44.68,34a42.44,42.44,0,0,1-2.22,3.72,24.55,24.55,0,0,1-2.17,2.51,6.55,6.55,0,0,1-1,1,41.15,41.15,0,0,1-5.23,3.46,4.85,4.85,0,0,1-.65.31,29.92,29.92,0,0,1-4.32,1.51,23.51,23.51,0,0,1-6.09.67,5.58,5.58,0,0,1-1.23,0c-1.32-.43-2.73-.31-4-.74a27.53,27.53,0,0,1-4.55-1.74,38.83,38.83,0,0,1-3.72-2.22,28.33,28.33,0,0,1-2.62-2.28A6.1,6.1,0,0,1,6,39.3a42.18,42.18,0,0,1-3.45-5.23,4.85,4.85,0,0,1-.31-.65A29.92,29.92,0,0,1,.7,29.1,24.25,24.25,0,0,1,0,22.85a4.74,4.74,0,0,1,0-1.07c.44-1.32.31-2.74.74-4a28,28,0,0,1,1.73-4.55A41.11,41.11,0,0,1,4.75,9.47,28.33,28.33,0,0,1,7,6.85,6.1,6.1,0,0,1,7.91,6a42.18,42.18,0,0,1,5.23-3.45,4.85,4.85,0,0,1,.65-.31A29.92,29.92,0,0,1,18.11.7,24.22,24.22,0,0,1,24.35,0a4.83,4.83,0,0,1,1.08,0c1.32.44,2.73.31,4,.74A28.77,28.77,0,0,1,34,2.52a41.11,41.11,0,0,1,3.72,2.23A29.7,29.7,0,0,1,40.36,7a5.56,5.56,0,0,1,.87.88,41.15,41.15,0,0,1,3.46,5.23,4.85,4.85,0,0,1,.31.65,35.74,35.74,0,0,1,1.52,4.32c.4,1.84.53,3.74.77,5.61ZM23.6,46.24c.83,0,1.66,0,2.48,0s1.53-.51,2.36-.33c.15,0,.34-.17.52-.22a29.62,29.62,0,0,0,3.16-1,27.06,27.06,0,0,0,4.68-2.53,25.42,25.42,0,0,0,3.72-3.39,16.28,16.28,0,0,0,3-4.2,8.64,8.64,0,0,0,1.15-2.15c.16-.87.94-1.55.71-2.51.77-1,.63-2.34.85-3.51s0-2.58.08-3.86-.41-2.59-.34-3.91c0-.08-.07-.17-.1-.26-.38-1.14-.69-2.3-1.15-3.4A26.14,26.14,0,0,0,42,10.2a30.14,30.14,0,0,0-3.2-3.48,17.67,17.67,0,0,0-4.18-3,24.83,24.83,0,0,0-5.31-2.18,8.57,8.57,0,0,0-1.74-.3A12.72,12.72,0,0,0,25.7.94c-1.45.07-2.9,0-4.34,0a9.84,9.84,0,0,0-2.93.41c-1.08.39-2.2.64-3.27,1.09A23.11,23.11,0,0,0,8.84,6.29c-.74.64-1.39,1.39-2.1,2.07a18.89,18.89,0,0,0-3.29,4.69,23.35,23.35,0,0,0-1.88,4.8,5.73,5.73,0,0,0-.3,1.74c0,.64-.38,1.19-.33,1.89.09,1.44,0,2.89,0,4.33a12.84,12.84,0,0,0,.61,3.47c.29.91.55,1.82.89,2.73a25.32,25.32,0,0,0,2.78,5.05A28.68,28.68,0,0,0,8.9,41a7.38,7.38,0,0,0,1.84,1.52c2.13,1.08,4.11,2.51,6.56,2.89.51.08,1,.41,1.48.54s1-.08,1.6.27,1.11.05,1.67.05Z"/><path class="cls-1" d="M23.49,45.67l-2.65-.36A10.93,10.93,0,0,1,18.19,45c-.8-.31-1.65-.5-2.42-.87s-1.59-.67-2.35-1.06a18.67,18.67,0,0,1-2.25-1.32A21.4,21.4,0,0,1,9.11,40c-.69-.63-1.35-1.29-2-2a21.42,21.42,0,0,1-1.74-2.07A9.36,9.36,0,0,1,4.1,33.66a12,12,0,0,1-1-2.39c-.12-.83-.67-1.59-.87-2.41a12.56,12.56,0,0,1-.32-2.66c0-.91-.49-1.73-.34-2.67s.18-2.08.34-3.12a12.44,12.44,0,0,1,.65-3.13,16.08,16.08,0,0,1,1.13-2.8c.54-.84.82-1.83,1.43-2.66a20.83,20.83,0,0,1,2-2.58C7.89,8.48,8.61,7.66,9.43,7A22.65,22.65,0,0,1,12,5a18.89,18.89,0,0,1,2.66-1.43,19.53,19.53,0,0,1,2.83-1,15.33,15.33,0,0,1,3.15-.65c1.05,0,2.09-.27,3.13-.27a19.28,19.28,0,0,1,3.12.3A17.22,17.22,0,0,1,30,2.62a13.13,13.13,0,0,1,2.79,1.12c.84.56,1.84.81,2.66,1.45A25.21,25.21,0,0,1,38,7.08c.79.82,1.64,1.58,2.39,2.43A19.56,19.56,0,0,1,42.2,12a20.07,20.07,0,0,1,1.43,2.66,20.82,20.82,0,0,1,1,2.82,28.28,28.28,0,0,1,.62,3.15,20.72,20.72,0,0,1,.3,3.13,20.72,20.72,0,0,1-.3,3.13A14.24,14.24,0,0,1,44.61,30a14.19,14.19,0,0,1-1.13,2.79c-.56.83-.78,1.84-1.44,2.66a27.85,27.85,0,0,1-1.89,2.47c-.81.79-1.57,1.65-2.42,2.4a22.27,22.27,0,0,1-2.48,1.86,20.67,20.67,0,0,1-2.67,1.42,18.69,18.69,0,0,1-2.81,1.07,25.44,25.44,0,0,1-3.15.63C25.59,45.47,24.54,45.55,23.49,45.67ZM9.34,10,8.55,9c-.64.9-.64.9.17,1.57a18.28,18.28,0,0,0,2.82,2.88l.88-.88c-.82-.82-1.6-1.63-2.41-2.4A2,2,0,0,0,9.34,10ZM34.77,7.82,33.66,7.2a10.26,10.26,0,0,0-2,3l.75,1A6.38,6.38,0,0,0,33.84,6.7l.94,1,.79-1-1.18-.55C34.15,6.4,34,6.54,34.77,7.82ZM23.58,37.55a11.65,11.65,0,0,0,5.71-1.17,14.46,14.46,0,0,0,6.11-5.27,14.26,14.26,0,0,0,2.13-5.78,14.36,14.36,0,0,0-.6-5.93,13.91,13.91,0,0,0-5.49-7.57,14.89,14.89,0,0,0-3.36-1.62,17,17,0,0,0-3.83-.82,9.64,9.64,0,0,0-4.68.61,12.84,12.84,0,0,0-3.17,1.34,21.53,21.53,0,0,0-3.65,3.13,10.74,10.74,0,0,0-2.5,4.23c-.3.94-.37,1.94-.67,2.82a11.34,11.34,0,0,0-.23,2.69A6.65,6.65,0,0,0,9.8,27a15.8,15.8,0,0,0,2.55,5.15A14,14,0,0,0,16.94,36,12,12,0,0,0,23.58,37.55ZM27.11,4.32l-1.85.28L24.11,4l-1.47.51c.32,1.2-.66,2.33-.16,3.52h1c.72-1,.25-2.08.51-3.1l.5.1c.1,1.14-.06,2.26.09,3.29h1.19c0-.66,0-1.28,0-1.89a1.1,1.1,0,0,1,.93-1.22l-.37,3.14h1.18c.7-1,.33-2.16.44-3.22ZM22,39.05a16,16,0,0,1,.33,1.77c.06.71,0,1.44,0,2.16,0,.26,0,.52,0,.78a.77.77,0,0,0,.11.28h1.14V42.6L24.74,44h1.32c0-1-.86-1.44-1.25-2.06l1-1.57H24.64l-.22-.19L23.6,41V38.6A1.21,1.21,0,0,0,22,39.05Zm-7.66-.2c-.77,1.83-.77,1.83-.27,3l1.52.73c1.76-.7,2.43-1.68,2-2.78S16.27,38,14.36,38.85Zm7.34,2.24c-1.06-1.77-2.16-1.83-3.68-.19,0,.87-.18,1.8.59,2.66l1.95.26A2.63,2.63,0,0,0,21.7,41.09Zm-10.88-32a20.63,20.63,0,0,0,1.93,2.81l1.06-.64L12.2,8.81l.45-.46,2,2.63.94-1a16.74,16.74,0,0,0-1.1-1.57c-.4-.44-.62-1.08-1.19-1.2l-.85.26ZM31.29,10c.25-1.23,1.23-2.24,1-3.51a5.8,5.8,0,0,0-1.12-.81,5.66,5.66,0,0,0-1.35-.2,1.83,1.83,0,0,0-1,1.45A6.64,6.64,0,0,1,28,8.66L29,9.28c1-.66.44-2.38,2-2.79.22,1.21-.93,1.9-.88,3a2.22,2.22,0,0,0,.51.44A1.76,1.76,0,0,0,31.29,10ZM21.55,8.15c.29-.55.75-1.11.47-1.68s-.3-1.5-1.35-1.85L18.77,5c-.59,1.51-.71,2.11.16,3.28A1.91,1.91,0,0,0,21.55,8.15Zm7.06,33.42,1.05,1.23h1.69l1-1.56-.5-.62-1,1-1.21-.14,2-1.31v-.71l-1.37-.73a2.79,2.79,0,0,0-2,1.89Zm6.87-28.51,2.08-2c-.22-1.25-.56-1.75-1.44-2a4.18,4.18,0,0,0-1,0c-.1.6,0,1,.24,1.1L36.57,10l-.69.88A2.12,2.12,0,0,0,34,10.31c-.35.4-.94.69-.79,1.11l1.63,1.64Zm-2.1,28.23a2.62,2.62,0,0,0,2-1.1c-.07-.57.25-1.25-.6-1.77H32.92v-.17l1.25-.15,0-.84H33l-1.37,1.3.47,1.21h2.36a4.18,4.18,0,0,1-1.31.29c-.2,0-.37.28-.56.43ZM16.13,9.5,16,9.74l1.92-.39.46-1.26-.84-1H16.26l-.39-.48L16,6.5l.91.42.54-.73c-.94-.81-1.14-.79-2.51.15V7.65c.27.51.74.48,1.2.44s.71.15,1,.74L16,8.38l-.72.76ZM11.87,39V37.79l1.1-.28c.11.59.08,1.14.71,1.29a1.3,1.3,0,0,0,.63-1.09l-1.18-1h-1.5l-.93.92-.42,1.29a2,2,0,0,0,2.35,1.43c.42-.37.66-.72.29-1.17l-.51.36Zm16.44,4.22c-.12-.78-.18-1.62-.38-2.43a22.57,22.57,0,0,0-.8-2.31c-.83.1-1,.24-1,.8l.95.61-.64.22a11.19,11.19,0,0,0,.7,3.62h.7Z"/><path class="cls-1" d="M23.56,10.6c1.77-.31,3.51.38,5.18,1a9.06,9.06,0,0,1,2.94,1.89,14.88,14.88,0,0,1,3.6,4.87,12.91,12.91,0,0,1,.78,2.47,13.47,13.47,0,0,1,.26,2.52,13.63,13.63,0,0,1-2.24,7.27,12.15,12.15,0,0,1-5.4,4.47,10.46,10.46,0,0,1-3.34,1,13.7,13.7,0,0,1-2,.24A17.44,17.44,0,0,1,20.8,36a14,14,0,0,1-2.46-.77A11.12,11.12,0,0,1,16.21,34a11.7,11.7,0,0,1-5-6.87c-.62-.56,0-1.5-.6-2.07a14.78,14.78,0,0,1,.71-6,11.41,11.41,0,0,1,2.83-4.41,11.83,11.83,0,0,1,9.44-4Zm-3.37,6.49.31-.23-.31-.39V15.25l-.52-.37c.08-1.06,1.39-1,1.48-2-.11-.07-.19-.16-.27-.16a1.27,1.27,0,0,0-.59.06c-1.74.91-3.52,1.75-4.53,3.59-.37.67-.73,1.35-1.16,2a5.53,5.53,0,0,0-.88,2.26A12.57,12.57,0,0,1,13.38,23c-.23.66.25,1.24.32,1.88A7.23,7.23,0,0,0,16,29.81h.62l.45.45V31c.32.22.68.48,1.05.72a7.52,7.52,0,0,0,4.59,1.24,13.53,13.53,0,0,0,2.47,0,14.53,14.53,0,0,0,4.61-2,11.62,11.62,0,0,0,3.5-4l-.68-.61a12.53,12.53,0,0,1-5.21,1l-.53-.59c-.76.67-1.39.14-2-.14v-.64a1.6,1.6,0,0,0,.38.36,2.44,2.44,0,0,0,.67.12c-.56-.54-.56-.54-1.05-.32A2.56,2.56,0,0,1,22.39,25a9.1,9.1,0,0,1-.65-1.1.8.8,0,0,1,.93.58,1.63,1.63,0,0,0,1.4,1.06L21.43,22.4v-1l-.93-.77c0-.54,0-1,0-1.46,0-.08-.19-.16-.3-.24Zm10.32,6.13c-.22-.59.28-1.1-.28-1.16l-.86.46Zm-1.28-6.77-.12-.61-.89.07.1.54Z"/><path class="cls-1" d="M16.05,39.31a1.86,1.86,0,0,1-.55,2.07C15.11,40.26,15.14,40.12,16.05,39.31Z"/><path class="cls-1" d="M20.13,40.63v1.8l-.39.36C19,42.54,19.11,41.8,20.13,40.63Z"/><path class="cls-1" d="M19.7,5.42l.76.58V7.89A2.25,2.25,0,0,1,19.7,5.42Z"/><path class="cls-1" d="M29.59,40.22l.4-.65C30.05,40.32,30.05,40.32,29.59,40.22Z"/><path class="cls-1" d="M34.44,12.05a.81.81,0,0,1,.86-.86Z"/><path class="cls-1" d="M9,10.27,9.34,10Z"/><path class="cls-1" d="M8.72,10.58,9,10.27Z"/><path class="cls-1" d="M20.19,16.47v.62a1.07,1.07,0,0,0-.59,1.15c.06.27.39.48.59.71a1.4,1.4,0,0,1-.11.56.82.82,0,0,0,0,1.07A17.59,17.59,0,0,1,21,22.3l-.26.34,1,1.27-2.55-.76,1.28-.86L19.6,21c-.11-.67.09-1.36-.3-2a1.45,1.45,0,0,1,0-1.33c.53-.63.08-1.09-.18-1.88Z"/><path class="cls-1" d="M19.85,25.27l.38.39a5,5,0,0,0-.22.46c-.08.17-.15.35-.19.44L18,26.31c-.07-.55.25-.76.75-.85Z"/><path class="cls-1" d="M26,29,24.9,30.2,24,29.84c0-.16,0-.26.05-.3l1-1Z"/><path class="cls-1" d="M15.91,21.56l-.07-1.24.2.14.24-.63a.93.93,0,0,1,.8,1.15Z"/><path class="cls-1" d="M20.84,30.89v-1h1.64c-.19.26-.27.48-.42.55A11.13,11.13,0,0,1,20.84,30.89Z"/><path class="cls-1" d="M18.57,17.05v1.23l-.39.07C17.8,17.8,18.07,17.43,18.57,17.05Z"/><path class="cls-1" d="M30.4,28.81c.07.74-.28.92-.81,1.05C29.39,29.18,29.74,29,30.4,28.81Z"/></g></g></g></g></svg>