<svg xmlns="http://www.w3.org/2000/svg" viewBox="0 0 254.25 16.85"><defs><style>.cls-1{fill:#fff;}</style></defs><title>jpmorganchase</title><g id="Layer_2" data-name="Layer 2"><g id="logos"><g id="_10K" data-name="10K"><g id="jp"><g id="layer1"><path id="path29" class="cls-1" d="M205.53,0a3.29,3.29,0,0,0-2.45,1,3.12,3.12,0,0,0-1,2.25,6.4,6.4,0,0,0,1.43,3.59,15.27,15.27,0,0,0-3.22,2.63A4,4,0,0,0,199.5,12a4.16,4.16,0,0,0,.68,2.35,4.61,4.61,0,0,0,1.71,1.6,4.9,4.9,0,0,0,2.26.58,6.21,6.21,0,0,0,4.55-2.4,5.21,5.21,0,0,0,4.18,2.4,3.2,3.2,0,0,0,1.94-.63,2.83,2.83,0,0,0,1.09-1.62h-.58a2,2,0,0,1-1.77,1.11,2.7,2.7,0,0,1-1.57-.51,9.7,9.7,0,0,1-2.06-2.37,11.11,11.11,0,0,0,1.21-2.28,7.39,7.39,0,0,1,1.53-2.56,4,4,0,0,1,1.71-1V6.17h-5.22v.58c1.28.15,1.91.67,1.91,1.6a5.12,5.12,0,0,1-.41,1.62,9.4,9.4,0,0,1-1.09,2q-1.94-2.73-4.09-5.66C207.81,5.14,209,3.94,209,2.69a2.26,2.26,0,0,0-1-2A4.06,4.06,0,0,0,205.53,0Zm22.22.07a7.87,7.87,0,0,0-3.93,1A6.68,6.68,0,0,0,221,4.14a10,10,0,0,0-1,4.4,7.76,7.76,0,0,0,2.15,5.74,7.55,7.55,0,0,0,5.59,2.16,6.77,6.77,0,0,0,5.3-2.35,4.32,4.32,0,0,1,.76,1.67h.53V10.21h-.53a8.14,8.14,0,0,1-.92,2.86,4.52,4.52,0,0,1-2.09,2.08,6.08,6.08,0,0,1-2.59.61,5,5,0,0,1-4-1.89,8.31,8.31,0,0,1-1.57-5.45,9.79,9.79,0,0,1,1.45-5.78,4.58,4.58,0,0,1,3.92-2,5.77,5.77,0,0,1,3.64,1.26,6.79,6.79,0,0,1,2.13,4.43h.53l-.15-6h-.53a5.55,5.55,0,0,1-.61,2.06A6.41,6.41,0,0,0,230.94.8,7,7,0,0,0,227.75.07ZM134.8.12a8,8,0,0,0-3.92,1,6.83,6.83,0,0,0-2.79,3.08,10,10,0,0,0-1,4.4,7.75,7.75,0,0,0,2.16,5.74,7.51,7.51,0,0,0,5.56,2.15,6.75,6.75,0,0,0,5.3-2.32,4.22,4.22,0,0,1,.78,1.67h.53V10.26h-.53a8.14,8.14,0,0,1-.92,2.86,4.46,4.46,0,0,1-2.08,2.08,6.19,6.19,0,0,1-2.59.63,5,5,0,0,1-4-1.91,8.28,8.28,0,0,1-1.58-5.45,9.67,9.67,0,0,1,1.46-5.76,4.6,4.6,0,0,1,3.92-2,5.74,5.74,0,0,1,3.63,1.26c1.07.83,1.78,2.3,2.13,4.43h.53l-.14-6h-.54a5.33,5.33,0,0,1-.63,2A6.33,6.33,0,0,0,138,.85,6.87,6.87,0,0,0,134.8.12ZM19.65.17c-.89,0-2.13,0-3.72.1l-2,.07V.87h.29a3.73,3.73,0,0,1,1.58.22,1,1,0,0,1,.46.75,16.34,16.34,0,0,1,.12,2.44V12a17.24,17.24,0,0,1-.12,2.54,1.17,1.17,0,0,1-.49.8,2.89,2.89,0,0,1-1.43.24h-.41v.54h7.29v-.54H20.7a2.77,2.77,0,0,1-1.46-.26,1.28,1.28,0,0,1-.48-.88A21.74,21.74,0,0,1,18.69,12V8.69h1.74a9.85,9.85,0,0,0,3.8-.51,3.7,3.7,0,0,0,1.65-1.5,4.57,4.57,0,0,0,.58-2.3,3.69,3.69,0,0,0-.85-2.47A4.4,4.4,0,0,0,23.43.56,14.07,14.07,0,0,0,19.65.17ZM4.67.34V.87H5a3.5,3.5,0,0,1,1.55.22,1.09,1.09,0,0,1,.49.75,17.93,17.93,0,0,1,.09,2.44V9.66A28.76,28.76,0,0,1,7,13.46a3.44,3.44,0,0,1-1.12,2,3.1,3.1,0,0,1-2.23.85,2.47,2.47,0,0,1-1.08-.22.63.63,0,0,1-.44-.58,1.15,1.15,0,0,1,.12-.41,1.4,1.4,0,0,0,.15-.61,1.11,1.11,0,0,0-.34-.82,1.23,1.23,0,0,0-.87-.34,1.12,1.12,0,0,0-.85.39,1.29,1.29,0,0,0-.34.92,1.9,1.9,0,0,0,1,1.57,4.77,4.77,0,0,0,2.73.66,6.81,6.81,0,0,0,2.81-.54,4.67,4.67,0,0,0,1.94-1.52,4.74,4.74,0,0,0,.87-2.06,23.48,23.48,0,0,0,.14-3.05V4.28a14.66,14.66,0,0,1,.13-2.49,1,1,0,0,1,.48-.72,3.75,3.75,0,0,1,1.52-.2H12V.34Zm23.92,0V.87H29a3.53,3.53,0,0,1,1.55.22,1.07,1.07,0,0,1,.49.75,17.93,17.93,0,0,1,.09,2.44v6.88A16.91,16.91,0,0,1,31,13.85a2,2,0,0,1-.8,1.23,2.84,2.84,0,0,1-1.64.53v.54h5.68v-.54A2.71,2.71,0,0,1,32.58,15a2,2,0,0,1-.73-1.21,19.75,19.75,0,0,1-.12-2.59V2L38,16.15h.55L44.8,2V12.05a18.61,18.61,0,0,1-.09,2.52,1.23,1.23,0,0,1-.51.8,2.8,2.8,0,0,1-1.41.24h-.55v.54h7.6v-.54h-.7a2.77,2.77,0,0,1-1.46-.26,1.27,1.27,0,0,1-.48-.85A20.19,20.19,0,0,1,47.1,12V4.28a15.1,15.1,0,0,1,.12-2.49,1,1,0,0,1,.49-.72,3.9,3.9,0,0,1,1.55-.2h.58V.34H45L39.21,13.43,33.4.34Zm177,.27a1.82,1.82,0,0,1,1.43.6,2.28,2.28,0,0,1,.56,1.57c0,1.1-.83,2.13-2.45,3.08a6.25,6.25,0,0,1-1.47-3.25,2,2,0,0,1,.53-1.42A1.8,1.8,0,0,1,205.57.61ZM19.9.73A4.38,4.38,0,0,1,23,1.65a3.82,3.82,0,0,1,1,2.88,4,4,0,0,1-.56,2.17A2.56,2.56,0,0,1,22,7.84a7,7,0,0,1-2.21.29H18.69V.77C19,.74,19.37.73,19.9.73Zm156.51,3a3.15,3.15,0,0,0-2.28.84,2.94,2.94,0,0,0-.92,2.18,3.24,3.24,0,0,0,.44,1.6,3.45,3.45,0,0,0,1.13,1.24A17.48,17.48,0,0,0,177,10.67,7.82,7.82,0,0,1,179.26,12a2.07,2.07,0,0,1,.61,1.53,2.3,2.3,0,0,1-.7,1.64,2.62,2.62,0,0,1-2,.73q-2.85,0-3.61-3.83h-.46V16h.46a3.09,3.09,0,0,1,.44-1.19,4.24,4.24,0,0,0,3.34,1.52,3.89,3.89,0,0,0,2.78-1,3.33,3.33,0,0,0,1.05-2.55,3.43,3.43,0,0,0-.44-1.74A3.1,3.1,0,0,0,179.6,9.9a24.38,24.38,0,0,0-2.3-1.14,8.7,8.7,0,0,1-2.25-1.33A1.81,1.81,0,0,1,174.4,6a1.94,1.94,0,0,1,.51-1.29,2,2,0,0,1,1.59-.58,3,3,0,0,1,2,.8,4.2,4.2,0,0,1,1.21,2.16h.38V4h-.38A2,2,0,0,1,179.29,5a3.81,3.81,0,0,0-1.41-1A4.2,4.2,0,0,0,176.41,3.73Zm-119.12,0a6.65,6.65,0,0,0-4.67,1.7A5.83,5.83,0,0,0,50.73,10,6.06,6.06,0,0,0,52.6,14.6a7.33,7.33,0,0,0,9.53,0A6,6,0,0,0,64,10.05,5.85,5.85,0,0,0,62,5.45,6.9,6.9,0,0,0,57.29,3.75Zm28.11,0a5.52,5.52,0,0,0-4.48,2,6.93,6.93,0,0,0-1.67,4.58,5.91,5.91,0,0,0,6.07,6.07,8.06,8.06,0,0,0,2.81-.58A5.47,5.47,0,0,1,90,15.37a2.62,2.62,0,0,1,.38,0V14.11a11,11,0,0,1,.1-2,.91.91,0,0,1,.41-.61A2.88,2.88,0,0,1,92,11.35v-.41H86.78v.41h.29a3,3,0,0,1,1,.12.75.75,0,0,1,.39.44,4.33,4.33,0,0,1,.14,1.31,3,3,0,0,1-.29,1.38,2.17,2.17,0,0,1-1,.92,3.75,3.75,0,0,1-1.69.38,3.93,3.93,0,0,1-3-1.33c-.82-.9-1.21-2.44-1.21-4.6s.43-3.65,1.28-4.5a4.08,4.08,0,0,1,3-1.28A4,4,0,0,1,88.4,5.28a4.8,4.8,0,0,1,1.42,3h.42V4.16h-.42a4.21,4.21,0,0,1-.38,1.38A5.21,5.21,0,0,0,85.4,3.75Zm158.51,0a6.67,6.67,0,0,0-4.67,1.7A5.83,5.83,0,0,0,237.35,10a6.07,6.07,0,0,0,1.84,4.63,7.34,7.34,0,0,0,9.54,0,6,6,0,0,0,1.84-4.55,5.82,5.82,0,0,0-1.91-4.6A6.9,6.9,0,0,0,243.91,3.75Zm-78.76,0-3.53,8.42c-.26.6-.42,1-.46,1a6.85,6.85,0,0,1-.95,1.86,2,2,0,0,1-1.21.59v.41h3.66v-.41a1.56,1.56,0,0,1-1-.3.93.93,0,0,1-.36-.82,7.7,7.7,0,0,1,.7-2.18l.31-.77h4.6l.95,2.25A5.45,5.45,0,0,1,168.3,15a.52.52,0,0,1-.32.53,3.42,3.42,0,0,1-1.18.13v.41h4.77v-.41a1.83,1.83,0,0,1-.95-.32,1.72,1.72,0,0,1-.51-.68l-.55-1.26-4.05-9.65Zm-95.08,0c-.68,0-1.6,0-2.76.08L65.6,4v.41h.19A2.88,2.88,0,0,1,67,4.55a.82.82,0,0,1,.37.58A14.25,14.25,0,0,1,67.46,7v6a15.07,15.07,0,0,1-.07,1.94.91.91,0,0,1-.39.61,2.18,2.18,0,0,1-1.09.19h-.39v.41h5.84v-.41h-.58a2.1,2.1,0,0,1-1.14-.22,1,1,0,0,1-.37-.65c0-.29,0-.92,0-1.87V10.31h.48a1.16,1.16,0,0,1,.7.17,5.09,5.09,0,0,1,.85.9c.41.5.8,1,1.19,1.57a14.31,14.31,0,0,0,2.66,3.17h3.24v-.41a3.12,3.12,0,0,1-1.84-.61,12.3,12.3,0,0,1-2.15-2.42,9.51,9.51,0,0,0-2.47-2.63A4.29,4.29,0,0,0,74.45,9a2.74,2.74,0,0,0,.88-2,2.48,2.48,0,0,0-.68-1.75,3.79,3.79,0,0,0-1.74-1.06A10.14,10.14,0,0,0,70.07,3.82Zm29,0-3.56,8.4c-.26.61-.4,1-.44,1a6.62,6.62,0,0,1-1,1.89,1.88,1.88,0,0,1-1.18.56v.41h3.65v-.41a1.52,1.52,0,0,1-1-.27,1,1,0,0,1-.37-.84,8,8,0,0,1,.7-2.18l.32-.78h4.6l.92,2.25a6.36,6.36,0,0,1,.43,1.19.49.49,0,0,1-.31.51,3.86,3.86,0,0,1-1.19.12v.41h4.77v-.41a1.83,1.83,0,0,1-.94-.29,1.63,1.63,0,0,1-.51-.68l-.56-1.28-4-9.64ZM144.26,4v.41h.24a2.66,2.66,0,0,1,1.19.17.79.79,0,0,1,.36.58,11,11,0,0,1,.1,1.86v6a12.22,12.22,0,0,1-.1,2,.87.87,0,0,1-.38.6,2.16,2.16,0,0,1-1.09.2h-.32v.41h5.52v-.41h-.31a2.15,2.15,0,0,1-1.14-.22.92.92,0,0,1-.36-.66,14,14,0,0,1-.08-1.88V10h6.34v2.93a13.26,13.26,0,0,1-.07,1.93.92.92,0,0,1-.39.63,2,2,0,0,1-1.06.2h-.41v.41h5.49v-.41h-.26a2.07,2.07,0,0,1-1.12-.22,1,1,0,0,1-.36-.66,14.76,14.76,0,0,1-.07-1.88V7a11.81,11.81,0,0,1,.09-1.91.81.81,0,0,1,.37-.56,3,3,0,0,1,1.18-.14h.17V4H152.3v.41h.31a2.69,2.69,0,0,1,1.19.17.79.79,0,0,1,.36.58A12.43,12.43,0,0,1,154.23,7V9.39h-6.34V7a11.36,11.36,0,0,1,.1-1.91.8.8,0,0,1,.39-.56,2.87,2.87,0,0,1,1.16-.14h.24V4Zm39.21,0v.41a2.53,2.53,0,0,1,1.17.17.83.83,0,0,1,.36.6A14.31,14.31,0,0,1,185.07,7v6a14.28,14.28,0,0,1-.07,1.91,1.07,1.07,0,0,1-.34.6,1.77,1.77,0,0,1-1.14.25h-.26v.41h10l.26-3.78h-.41a5.88,5.88,0,0,1-.89,2.13,2.69,2.69,0,0,1-1.17,1,4.63,4.63,0,0,1-1.57.22h-.89q-1.23,0-1.5-.39a6.18,6.18,0,0,1-.27-2.54V9.85h1.31a4,4,0,0,1,1.11.12.77.77,0,0,1,.48.44,3.39,3.39,0,0,1,.17,1.35h.41V7.62h-.41a3.92,3.92,0,0,1-.12,1.21.79.79,0,0,1-.46.47,3.55,3.55,0,0,1-1.23.14h-1.26V4.36h1.67a8.49,8.49,0,0,1,1.81.14,1.81,1.81,0,0,1,1,.66A4.83,4.83,0,0,1,192,7h.41l-.29-3ZM107,4v.41a3.47,3.47,0,0,1,1.26.15.85.85,0,0,1,.41.6A8,8,0,0,1,108.85,7v6.46a6,6,0,0,1-.1,1.38,1,1,0,0,1-.53.55,3,3,0,0,1-1.31.32v.41h4.51v-.41a2.83,2.83,0,0,1-1.43-.27,1.22,1.22,0,0,1-.61-.6,5.91,5.91,0,0,1-.09-1.38V5l8.64,11.4h.36V6.34a3.45,3.45,0,0,1,.12-1.09,1.15,1.15,0,0,1,.56-.58,3.25,3.25,0,0,1,1.21-.29V4H115.8v.41a3.61,3.61,0,0,1,1.21.19,1.19,1.19,0,0,1,.67.51,2.76,2.76,0,0,1,.17,1.14v7.26L110.67,4Zm-49.71.22a4.06,4.06,0,0,1,3.39,1.52,7,7,0,0,1,1.16,4.34,6.89,6.89,0,0,1-1.19,4.38,3.91,3.91,0,0,1-3.22,1.47A4.15,4.15,0,0,1,54,14.43a6.94,6.94,0,0,1-1.16-4.38A7,7,0,0,1,54,5.66,4,4,0,0,1,57.32,4.19Zm186.62,0a4.06,4.06,0,0,1,3.39,1.52,7,7,0,0,1,1.16,4.34,6.89,6.89,0,0,1-1.19,4.38,3.91,3.91,0,0,1-3.22,1.47,4.23,4.23,0,0,1-3.51-1.47,7,7,0,0,1-1.16-4.38,7.07,7.07,0,0,1,1.16-4.39A4.06,4.06,0,0,1,243.94,4.19ZM70,4.26c1.41,0,2.33.26,2.76.77a3.19,3.19,0,0,1,.63,2.06,3.46,3.46,0,0,1-.2,1.24,2.12,2.12,0,0,1-.51.82,2.06,2.06,0,0,1-.84.46,4.9,4.9,0,0,1-1.24.19c-.47,0-.91,0-1.35,0V4.28C69.51,4.26,69.76,4.26,70,4.26ZM164.64,6l2.13,5.13h-4.23Zm-66.1,0,2.13,5.16H96.41ZM203.9,7.33c1.24,1.62,2.72,3.72,4.43,6.32a4.16,4.16,0,0,1-3.14,1.7A3.68,3.68,0,0,1,202.43,14a4.21,4.21,0,0,1-1.21-2.86,3.6,3.6,0,0,1,.7-2A6.14,6.14,0,0,1,203.9,7.33Zm49,6.47a1.3,1.3,0,0,0-1.33,1.33,1.34,1.34,0,0,0,.38.94,1.26,1.26,0,0,0,.95.39,1.29,1.29,0,0,0,.94-.39,1.24,1.24,0,0,0,.39-.94,1.3,1.3,0,0,0-.39-1A1.27,1.27,0,0,0,252.92,13.8Z"/></g></g></g></g></g></svg>