<svg xmlns="http://www.w3.org/2000/svg" viewBox="0 0 153.9 45.01"><defs><style>.cls-1{fill:#fff;}</style></defs><title>lts</title><g id="Layer_2" data-name="Layer 2"><g id="logos"><g id="_5K" data-name="5K"><g id="lts"><path class="cls-1" d="M0,20.37A39.84,39.84,0,0,1,.89,16.3c2.9-9,9-14.56,18.35-16a22.49,22.49,0,0,1,7.05,44.41c-.55.09-1.1.22-1.65.33H20.36a3.7,3.7,0,0,0-.57-.16c-9.17-1.4-15.37-6.49-18.58-15.17a42.36,42.36,0,0,1-1.21-5ZM44.09,21.9C43.47,9.34,33.53.18,21,.89a21.67,21.67,0,1,0,23.05,21Z"/><path class="cls-1" d="M103.91,26.18h-1.23V22.61l-.17-.05c-.3.59-.57,1.2-.92,1.76a1,1,0,0,1-.69.44.88.88,0,0,1-.61-.42,15.64,15.64,0,0,0-1-1.71v3.53H97.92V19.45c.84-.31,1.34,0,1.67.82S100.41,22,100.9,23c.46-1,.92-1.81,1.27-2.7s.78-1.21,1.74-.88Z"/><path class="cls-1" d="M91.36,22.63v3.52H90V19.44a1.18,1.18,0,0,1,1.68.79A30.82,30.82,0,0,0,93,23c.47-1,.95-1.84,1.29-2.74a1.19,1.19,0,0,1,1.74-.82v6.68H94.84V22.63l-.19-.06c-.3.59-.57,1.19-.91,1.75a1,1,0,0,1-.7.44.88.88,0,0,1-.61-.42c-.34-.56-.6-1.15-.89-1.74Z"/><path class="cls-1" d="M75.45,31a1.26,1.26,0,0,1,1.7.71,19.84,19.84,0,0,0,2.1,2.94V31h1.4v6.7A1.25,1.25,0,0,1,79,37.06C78.37,36,77.66,35,76.83,33.75v4H75.45Z"/><path class="cls-1" d="M152.54,23.09V19.4h1.36v6.72a1.27,1.27,0,0,1-1.69-.62c-.6-1.06-1.32-2.06-2.14-3.3v3.94h-1.41v-6.7a1.27,1.27,0,0,1,1.68.66c.6,1.06,1.31,2,2,3.06Z"/><path class="cls-1" d="M70.56,11.22a1.85,1.85,0,0,1,.74,2.22,1.65,1.65,0,0,1-1.69,1.19,23.25,23.25,0,0,1-2.64,0,.78.78,0,0,1-.49-.56c0-1.91,0-3.81,0-5.71,0-.43.13-.63.59-.61.68,0,1.36,0,2,0a2,2,0,0,1,2.06,1.08C71.51,9.68,71.37,10.26,70.56,11.22Zm-2.64,2.35a16,16,0,0,0,2-.6,1.36,1.36,0,0,0,0-.89,15.24,15.24,0,0,0-2-.39Zm0-2.76a18,18,0,0,0,1.94-.61c.1,0,.08-.77,0-.8a13.84,13.84,0,0,0-1.92-.47Z"/><path class="cls-1" d="M116.16,19.38h1.35v6.76a1.36,1.36,0,0,1-1.78-.74c-.58-1-1.29-2-2.09-3.24v4h-1.33V19.45a1.27,1.27,0,0,1,1.71.68c.6,1.06,1.32,2.05,2.14,3.3Z"/><path class="cls-1" d="M134,14.56c-1,.28-1.58.12-1.89-.81a7.56,7.56,0,0,0-.55-1.15c-.34-.69-.34-.69-1.27-.57V14.6h-1.37V7.72c1.14.06,2.25,0,3.33.2a1.82,1.82,0,0,1,1.52,1.65,1.88,1.88,0,0,1-1.21,2.13ZM130.3,11a16.72,16.72,0,0,0,2-.59c.11-.05.13-.69,0-.91-.5-.75-1.26-.37-2-.4Z"/><path class="cls-1" d="M102.87,7.78c.88,0,1.72,0,2.57,0a2.11,2.11,0,0,1,2.19,1.55c.28,1,0,1.55-1.12,2.4l1.38,2.76c-1.17.36-1.31.3-1.81-.71-.19-.38-.41-.75-.56-1.14a.9.9,0,0,0-1.31-.62V14.6h-1.34ZM104.22,11a20.23,20.23,0,0,0,2.06-.72c.1-.05.07-.68-.1-.89-.53-.66-1.26-.34-2-.32Z"/><path class="cls-1" d="M84.27,14.58c-.9.18-1.57.21-1.86-.77-.12-.42-.43-.8-.59-1.22-.22-.6-.59-.77-1.27-.55v2.57h-1.3a3.33,3.33,0,0,1-.1-.55c0-1.85,0-3.71,0-5.56,0-.54.14-.78.72-.74s1.2,0,1.79,0A2.27,2.27,0,0,1,84,9.3c.27,1,0,1.63-1.14,2.45ZM80.61,8.84V11a19.55,19.55,0,0,0,2-.66,1,1,0,0,0,0-.83A17.56,17.56,0,0,0,80.61,8.84Z"/><path class="cls-1" d="M75.74,23.43H73.11V25h3.15v1.24H71.82V19.42h4.43v1.13H73.11v1.6h2.63Z"/><path class="cls-1" d="M64.68,25v1.25H60.27V19.43h4.41v1.13H61.61v1.58h2.61v1.28H61.6V25Z"/><path class="cls-1" d="M96.34,11.25c0-.37,0-.74,0-1.11a2.43,2.43,0,0,1,2.52-2.35A2.4,2.4,0,0,1,101.42,10a13.12,13.12,0,0,1-.13,2.8,2.23,2.23,0,0,1-2.6,1.9,2.39,2.39,0,0,1-2.33-2.18c0-.42,0-.85,0-1.28Zm3.64,0h0a10.11,10.11,0,0,0,0-1.35,1,1,0,0,0-1.15-1,1,1,0,0,0-1.08,1,17.76,17.76,0,0,0,0,2.63,1,1,0,0,0,1.08,1,1.06,1.06,0,0,0,1.12-1.05A11.71,11.71,0,0,0,100,11.24Z"/><path class="cls-1" d="M147.15,22.86c0,.34,0,.68,0,1a2.43,2.43,0,0,1-2.38,2.42,2.4,2.4,0,0,1-2.65-2,11.18,11.18,0,0,1,0-2.89,2.54,2.54,0,0,1,5,.36C147.16,22.12,147.15,22.49,147.15,22.86Zm-1.31-.07c-.06-.52-.08-1-.17-1.48a1,1,0,0,0-1.1-.85,1,1,0,0,0-1,.93,13.68,13.68,0,0,0,0,2.79,1.31,1.31,0,0,0,1,.79,1.42,1.42,0,0,0,1.05-.72A4.42,4.42,0,0,0,145.84,22.79Z"/><path class="cls-1" d="M88.45,22.9c0,.34,0,.68,0,1a2.56,2.56,0,0,1-5.1.06,17.34,17.34,0,0,1,0-2.39,2.56,2.56,0,0,1,5.08,0c0,.42,0,.85,0,1.28Zm-1.3-.14a5.19,5.19,0,0,0-.24-1.51,1.36,1.36,0,0,0-1-.74c-.38,0-1,.42-1.06.71a12.88,12.88,0,0,0,0,3,1.23,1.23,0,0,0,1,.71,1.52,1.52,0,0,0,1.06-.71A4.76,4.76,0,0,0,87.15,22.76Z"/><path class="cls-1" d="M122.34,11.24c0-.34,0-.68,0-1A2.36,2.36,0,0,1,124.7,7.8,2.43,2.43,0,0,1,127.41,10a12.88,12.88,0,0,1,0,2.56,2.42,2.42,0,0,1-2.75,2.2,2.39,2.39,0,0,1-2.33-2.44C122.32,11.93,122.34,11.59,122.34,11.24Zm1.31-.17a4.53,4.53,0,0,0,.17,1.49,1.78,1.78,0,0,0,1.06.89A.92.92,0,0,0,126,12.5a13.61,13.61,0,0,0,0-2.71c0-.34-.57-.75-1-.86a.89.89,0,0,0-1.13.77C123.73,10.16,123.71,10.65,123.65,11.07Z"/><path class="cls-1" d="M72.65,11.27c0-.44,0-.81,0-1.18A2.36,2.36,0,0,1,75.09,7.8a2.29,2.29,0,0,1,2.59,1.94,11.89,11.89,0,0,1-.13,3.37c-.22,1.16-1.32,1.72-2.66,1.6a2.37,2.37,0,0,1-2.16-2.07C72.67,12.16,72.67,11.68,72.65,11.27Zm1.46-.11h0a9.61,9.61,0,0,0,0,1.2,1.1,1.1,0,0,0,1.16,1.12,1,1,0,0,0,1.07-1.09c0-.82,0-1.65,0-2.47a1,1,0,0,0-1-1,1.06,1.06,0,0,0-1.17,1A7.81,7.81,0,0,0,74.11,11.16Z"/><path class="cls-1" d="M89.71,32.15V33.7h2.63V35H89.7v1.64h3.16v1.17H88.41V31h4.45v1.14Z"/><path class="cls-1" d="M70.87,32.13v1.58H73.5V35H70.87v1.66H74v1.17H69.56V31H74v1.11Z"/><path class="cls-1" d="M109.36,19.39h1.32c0,1.71.1,3.38,0,5A2.43,2.43,0,0,1,108,26.31a2.28,2.28,0,0,1-2.37-2c-.11-1.6,0-3.22,0-4.88H107v3c0,.48,0,1,0,1.45.06.83.52,1.29,1.21,1.27s1.12-.5,1.13-1.33C109.37,22.38,109.36,20.94,109.36,19.39Z"/><path class="cls-1" d="M90.93,14.56c-.91.22-1.56.22-1.75-.77,0-.13-.31-.3-.49-.32a8.69,8.69,0,0,0-1.53,0c-.21,0-.53.22-.56.37-.18,1-.82.9-1.63.74.27-.78.52-1.52.79-2.26.49-1.36,1-2.72,1.51-4.07a.83.83,0,0,1,.58-.45c.22,0,.64.1.7.26C89.37,10.2,90.13,12.35,90.93,14.56Zm-3.87-2.29h1.61L87.9,9.88Z"/><path class="cls-1" d="M65.6,14.59c-.88.15-1.57.24-1.76-.78,0-.14-.3-.32-.47-.34a11,11,0,0,0-1.62,0c-.18,0-.46.2-.48.35-.17,1-.8.94-1.58.77A4.44,4.44,0,0,1,59.8,14c.67-1.87,1.34-3.74,2.05-5.6a1.27,1.27,0,0,1,.73-.63c.5-.17.64.25.79.65C64.09,10.46,64.84,12.48,65.6,14.59Zm-3-4.71-.82,2.39h1.6Z"/><path class="cls-1" d="M133.52,26.12c-.89.19-1.58.22-1.77-.81,0-.13-.32-.28-.5-.3a9.9,9.9,0,0,0-1.54,0c-.18,0-.47.19-.5.33-.16,1-.84.95-1.66.79.57-1.59,1.14-3.16,1.7-4.73.21-.56.38-1.14.64-1.67a.88.88,0,0,1,.65-.35.91.91,0,0,1,.64.36,3.75,3.75,0,0,1,.37,1C132.2,22.47,132.84,24.26,133.52,26.12Zm-2.27-2.32-.76-2.34-.83,2.34Z"/><path class="cls-1" d="M98.59,31.58c-.39.53-.75,1-1.46.47a1.64,1.64,0,0,0-.75-.09c-.53,0-1,.12-1.06.73s.41.79.93.86c.28,0,.56.11.84.16a1.8,1.8,0,0,1,1.63,1.69,2,2,0,0,1-1.36,2.28,3.8,3.8,0,0,1-3.66-.76l1-.65a16.71,16.71,0,0,0,1.79.35c.52,0,1.06-.22,1-.78,0-.31-.5-.64-.84-.85a3.49,3.49,0,0,0-1-.22A1.8,1.8,0,0,1,94,32.94a2,2,0,0,1,1.52-2A3.09,3.09,0,0,1,98.59,31.58Z"/><path class="cls-1" d="M54,37l.8-.7a11.13,11.13,0,0,0,2.12.32c.3,0,.6-.47.89-.73A4.12,4.12,0,0,0,57,35,3.73,3.73,0,0,0,56,34.77C54.82,34.52,54.3,34,54.27,33a2,2,0,0,1,1.51-2,3.13,3.13,0,0,1,3.11.65c-.37.56-.75.88-1.48.62a2,2,0,0,0-1.25,0,1,1,0,0,0-.51.75c0,.21.28.54.52.65a7,7,0,0,0,1.24.27,2,2,0,0,1,.25,3.79A3.69,3.69,0,0,1,54,37Z"/><path class="cls-1" d="M65.17,33.1c-.66,0-1.24.25-1.62-.56-.12-.25-.8-.4-1.18-.33a1.1,1.1,0,0,0-.73.78,14.54,14.54,0,0,0,0,2.72,1.07,1.07,0,0,0,.66.74c.4.06,1.07,0,1.21-.29.43-.75,1-.53,1.61-.53a2.19,2.19,0,0,1-2.23,2.21,2.32,2.32,0,0,1-2.65-2,14.52,14.52,0,0,1,0-2.72A2.24,2.24,0,0,1,62.49,31,2.31,2.31,0,0,1,65.17,33.1Z"/><path class="cls-1" d="M87.09,35.7a2.22,2.22,0,0,1-2.21,2.13,2.33,2.33,0,0,1-2.71-1.78,14.66,14.66,0,0,1,0-3.31,2.52,2.52,0,0,1,4.89.32c-.61.11-1.15.28-1.57-.47a1.13,1.13,0,0,0-1-.36,1.28,1.28,0,0,0-.82.8,12.4,12.4,0,0,0,0,2.79,1.11,1.11,0,0,0,.75.75,1.29,1.29,0,0,0,1.11-.35C85.9,35.5,86.45,35.64,87.09,35.7Z"/><path class="cls-1" d="M126.92,24.14a2.31,2.31,0,0,1-2.38,2.17,2.37,2.37,0,0,1-2.54-2,13.2,13.2,0,0,1,0-2.81,2.49,2.49,0,0,1,4.92.05c-.64.06-1.24.25-1.68-.53-.13-.24-.78-.35-1.12-.26a1.16,1.16,0,0,0-.71.8,12.94,12.94,0,0,0,0,2.64A1.11,1.11,0,0,0,124,25c.4.07,1.09,0,1.23-.25C125.69,23.92,126.29,24.14,126.92,24.14Z"/><path class="cls-1" d="M82.42,24.15A2.41,2.41,0,0,1,79.8,26.3,2.43,2.43,0,0,1,77.41,24a11.78,11.78,0,0,1,0-2.3,2.52,2.52,0,0,1,5-.16c-.62,0-1.22.3-1.67-.5-.13-.25-.77-.39-1.1-.3a1.23,1.23,0,0,0-.75.85,10.87,10.87,0,0,0,0,2.55,1.15,1.15,0,0,0,.64.84c.39.09,1.08,0,1.22-.27C81.18,23.92,81.77,24.14,82.42,24.15Z"/><path class="cls-1" d="M118.43,9v1.59h2.65v1.29H118.4v2.76h-1.32V7.93h4.37V9Z"/><path class="cls-1" d="M108.4,7.89c1-.34,1.57-.06,1.87.85a16.11,16.11,0,0,0,.81,1.73,13.91,13.91,0,0,0,.78-1.65,1.28,1.28,0,0,1,1.9-.94c-.28.58-.52,1.2-.86,1.76a6.47,6.47,0,0,0-1.06,4.29c.07.54-.13.76-.71.76s-.81-.17-.72-.74a6.46,6.46,0,0,0-1.17-4.42C108.93,9,108.7,8.48,108.4,7.89Z"/><path class="cls-1" d="M93.78,14.68H92.4V9.09L90.68,9V7.84h4.8V9l-1.7.07Z"/><path class="cls-1" d="M59,19.43v1.11H57.32v5.73h-1.4V20.63l-1.76-.09V19.43Z"/><path class="cls-1" d="M136.39,26.28H135V20.64l-1.77-.11V19.39H138v1.17h-1.65Z"/><path class="cls-1" d="M66.2,26.32V19.41h1.36v5.64c.88,0,1.67,0,2.46,0,.53,0,.61.24.61.68s-.13.62-.59.61C68.79,26.31,67.54,26.32,66.2,26.32Z"/><path class="cls-1" d="M59.09,14.68H54.65V7.85h1.29v5.63h3.15Z"/><path class="cls-1" d="M120.51,26.17h-1.3V19.39h1.3Z"/><path class="cls-1" d="M66.53,31h1.3v6.78h-1.3Z"/><path class="cls-1" d="M140.6,26.17h-1.31V19.41h1.31Z"/><path class="cls-1" d="M37.7,22.6A15.25,15.25,0,1,1,22.46,7.32,15.21,15.21,0,0,1,37.7,22.6ZM16.14,34.06c5.61-1.16,8.9-3,12.16-6.81a1.7,1.7,0,0,0,.45-.87A15.07,15.07,0,0,0,26,16.31a.9.9,0,0,0-.59-.38,19.59,19.59,0,0,0-3.07.08c-3.91.58-6.81,2.8-9.25,5.78a2.65,2.65,0,0,0-.58,2.13A26.54,26.54,0,0,0,16.14,34.06ZM32.58,18.2a17.18,17.18,0,0,1-3,8.63,1.49,1.49,0,0,0-.18.64,27.19,27.19,0,0,1-2,7.29c-.19.45-.37.91-.56,1.37.1,0,.13.06.15,0a14.12,14.12,0,0,0,9.63-14.9,1,1,0,0,0-.36-.61C35.12,19.86,33.93,19.09,32.58,18.2Zm-.75-1.36a16.58,16.58,0,0,0-.72-5.69c-.06-.21-.34-.36-.55-.5a14.36,14.36,0,0,0-8.63-2.49A3,3,0,0,0,19.48,9.3a43,43,0,0,1,4.72,3.79,7.86,7.86,0,0,0,4.68,2.71A16.58,16.58,0,0,1,31.83,16.84ZM8.8,27.08q1.38-2.29,2.75-4.59a1,1,0,0,0,.08-.49,15.73,15.73,0,0,1,3.55-9.51c.77-1,1.64-1.94,2.46-2.9l0-.24a4.15,4.15,0,0,0-1.19.12A14.4,14.4,0,0,0,8.8,27.08ZM25,15.09a20.15,20.15,0,0,0-6-4.86.86.86,0,0,0-.77.18,17.75,17.75,0,0,0-4.53,6.25c-.56,1.37-.91,2.83-1.36,4.25l.26.16C15.76,17.25,19.65,14.9,25,15.09Zm3.53,13.68a53.47,53.47,0,0,1-5.44,3.81,54,54,0,0,1-6.26,2.47A1.69,1.69,0,0,0,18.1,36.3c.58.12,1.15.32,1.73.43a11.09,11.09,0,0,0,5.31.08,1.31,1.31,0,0,0,.81-.59,34.07,34.07,0,0,0,1.44-3.54C27.83,31.38,28.15,30,28.51,28.77ZM11.7,24l-.26,0c-.7,1.38-1.4,2.76-2.07,4.16a.77.77,0,0,0,.08.62,14.62,14.62,0,0,0,4.16,5.11,1.48,1.48,0,0,0,1.63.2A27.53,27.53,0,0,1,11.7,24Zm18,1a14.9,14.9,0,0,0,2.15-6.82c0-.17-.08-.46-.19-.5-1.5-.57-3-1.11-4.5-1.66l-.18.26A16.58,16.58,0,0,1,29.69,25Zm6.74-5.45c-.18-2.45-2.64-6.64-4.13-7.26.12,1.48.23,3,.38,4.53a1,1,0,0,0,.33.68C34.11,18.21,35.24,18.86,36.43,19.56Z"/></g></g></g></g></svg>