<svg xmlns="http://www.w3.org/2000/svg" viewBox="0 0 159.75 29.27"><defs><style>.cls-1{fill:#fff;}</style></defs><title>math</title><g id="Layer_2" data-name="Layer 2"><g id="logos"><g id="_1K" data-name="1K"><g id="math"><path class="cls-1" d="M159.75,26.76c-2.05,3.35-5.19,2.57-8.44,1.85-.12-.79-.29-1.93-.45-3.06l.3-.12c.15.28.32.54.45.83a3.72,3.72,0,0,0,4.75,2.09,2.32,2.32,0,0,0,.9-4,23.16,23.16,0,0,0-2.54-1.92c-.86-.64-1.78-1.2-2.57-1.91a3.09,3.09,0,0,1-1-3.39,3.19,3.19,0,0,1,2.74-2.26,14,14,0,0,1,3,.13c.59.05,1.18.14,2,.24l.36,2.58-.27.14c-.21-.28-.43-.57-.63-.86a3.55,3.55,0,0,0-3.6-1.67,1.92,1.92,0,0,0-1.44,3.16,12.16,12.16,0,0,0,2.73,2.19,10.53,10.53,0,0,1,3.84,3.54Z"/><path class="cls-1" d="M82.65,17.71c-.2,3.11-.44,6.23-.55,9.35,0,.41.59.87,1,1.25.18.17.51.19.68.54H79.11c.12-.22.16-.39.21-.39,1.47,0,1.68-1,1.74-2.13q.24-4.36.55-8.71c.08-1.06.06-2-1.43-2.12l.13-.41a16.58,16.58,0,0,0,2.23,0c1-.13,1.38.43,1.76,1.24,1.5,3.23,3.07,6.43,4.7,9.84l3.22-6.74c.58-1.2,1.19-2.38,1.71-3.59a1,1,0,0,1,1.16-.74,18.32,18.32,0,0,1,2.57.19c-2.2.36-1.43,1.89-1.37,3,.15,2.68.4,5.36.56,8,.1,1.69.07,1.69,1.68,2.07.09,0,.15.15.36.39H92.71c.43-.25.59-.42.76-.43,1.2-.05,1.55-.7,1.47-1.83-.22-2.92-.38-5.85-.57-9.09a9.27,9.27,0,0,0-.57.92c-1.5,3.2-3,6.4-4.49,9.59a5.86,5.86,0,0,1-.77,1,6.54,6.54,0,0,1-.74-1c-1.65-3.41-3.27-6.82-4.91-10.23Z"/><path class="cls-1" d="M15,17.73c-1.49,3.2-3,6.39-4.49,9.57a15.28,15.28,0,0,1-1,1.64,12.54,12.54,0,0,1-1.11-1.65c-1.55-3.16-3-6.35-4.81-9.53,0,.36-.13.71-.15,1.08-.16,2.5-.28,5-.46,7.49-.09,1.14.09,2,1.46,2.08.1,0,.2.17.47.43H0c.13-.2.2-.4.27-.4,1.36,0,1.6-.85,1.66-2q.22-4.37.57-8.71c.09-1.1.16-2.09-1.39-2.28l.12-.38a17.86,17.86,0,0,1,3,.06c.37.07.71.74.94,1.2,1.47,3,2.9,6,4.35,9.05.1.19.21.37.39.68,1.57-3.3,3.12-6.46,4.57-9.66.45-1,1-1.54,2.13-1.35a12.12,12.12,0,0,0,1.81,0,2.06,2.06,0,0,1-.06.41c-1.22.09-1.37.81-1.28,1.88.28,3.23.47,6.46.7,9.7.05.78.3,1.37,1.26,1.31.21,0,.43.12.61.44H13.87c.15-.22.19-.36.27-.39,1.77-.6,1.8-.6,1.7-2.4-.16-2.75-.37-5.5-.55-8.24Z"/><path class="cls-1" d="M59.1,15.16h5.68a1.18,1.18,0,0,1,0,.22c-1.79.39-1.57,1.76-1.56,3.08,0,2.65,0,5.31,0,8,0,1.61,0,1.65,1.66,2,.12,0,.22.14.62.41H58.86l-.07-.21a5.09,5.09,0,0,1,.85-.23c1.3-.09,1.58-.37,1.59-1.7s0-2.79,0-4.27h-8.5c0,1.62-.07,3.27.05,4.9,0,.37.66.72,1,1,.17.13.43.15.63.46H48.65c.3-.23.42-.41.54-.41,1.27,0,1.51-.71,1.49-1.79,0-2.62,0-5.24,0-7.86,0-2.29,0-2.29-1.62-3.57h5.49c-.1.2-.12.3-.17.32-1.71.67-1.71.67-1.71,2.58v3.34h8.56c0-1.59.07-3.2-.05-4.8,0-.35-.7-.71-1.14-1a3,3,0,0,0-1-.15Z"/><path class="cls-1" d="M114.09,28.83H108l-.06-.3c.41-.05.8-.12,1.21-.15,1-.07,1.24-.39.94-1.33-.09-.32-.23-.62-.35-.93-.45-1.08-.61-2.63-1.41-3.1s-2.43-.2-3.68-.15a1.19,1.19,0,0,0-.84.61c-.48,1.11-.87,2.26-1.27,3.41s-.18,1.37,1,1.49a9.12,9.12,0,0,1,.91.17l-.05.28h-5.1c0-.16,0-.22,0-.23,1.78-.28,2.11-1.77,2.6-3.12,1.12-3.07,2.25-6.14,3.36-9.21a14.1,14.1,0,0,0,.37-1.39c1.71-.36,1.74-.34,2.34,1.27,1.13,3,2.24,6,3.41,9,.56,1.42.58,3.3,2.87,3.45Zm-7.84-12-1.76,4.87h3.57C107.48,20.09,106.92,18.6,106.25,16.8Z"/><path class="cls-1" d="M35,28.87H29l-.06-.33c.4-.06.8-.13,1.2-.16,1-.08,1.23-.37.89-1.35-.41-1.18-.81-2.37-1.31-3.51-.13-.3-.61-.46-.93-.68,0,0-.07,0-.11,0L25,22.92c-.57,1.48-1.16,2.94-1.69,4.43-.24.67.21.92.81,1,.41.06.82.14,1.23.21l-.05.3H20.18a2,2,0,0,1,0-.29c1.61-.11,2-1.35,2.45-2.57,1.18-3.25,2.38-6.49,3.55-9.74.16-.44.25-.91.37-1.38,1.72-.31,1.72-.32,2.34,1.3,1.14,3,2.23,6,3.41,9,.57,1.42.54,3.33,2.92,3.39Zm-6-7.19-1.84-4.86-1.75,4.86Z"/><path class="cls-1" d="M78,25.58c-.11,1.09-.21,2.18-.32,3.28H65.81l0-.29a6.91,6.91,0,0,1,1-.19c1.31-.07,1.69-.38,1.7-1.63,0-3.17,0-6.35,0-9.52,0-1.07-.46-1.66-1.6-1.61a.74.74,0,0,1-.64-.42H76.9l.22,3-.34.09c-.1-.29-.23-.58-.31-.88A1.68,1.68,0,0,0,74.56,16c-1.35.07-2.7,0-4.12,0v5.3c1.39,0,2.74,0,4.09,0,.3,0,.62-.42.85-.72s.21-.56.56-.81V24c-.21-.23-.43-.36-.44-.5-.12-1.12-.84-1.37-1.79-1.34s-2.5-.31-3.07.24-.26,2-.27,3.05c0,2.64,0,2.64,2.62,2.64a8.61,8.61,0,0,1,.88,0c1.78.15,3.15-.3,3.56-2.28,0-.11.17-.2.26-.29Z"/><path class="cls-1" d="M149.16,25.55c-.41.92-.81,1.85-1.24,2.76a.66.66,0,0,1-.39.35c-2.47.27-4.91,1-7.43.3a6.92,6.92,0,0,1-5.2-6.74,7.1,7.1,0,0,1,4.93-7,10.64,10.64,0,0,1,6.51,0c.61.18,1.25.28,2,.45v3.14c-2.88-4.11-6.31-5-9.92-1.28-2.21,2.24-1.78,6.61.42,9.05a5.89,5.89,0,0,0,5.38,1.94c2.1-.25,3.42-1.62,4.54-3.33Z"/><path class="cls-1" d="M126.52,14.92c.09,1.09.2,2.23.3,3.37l-.36.09c-.13-.42-.25-.83-.37-1.24A1.45,1.45,0,0,0,124.47,16c-1.1.05-2.2,0-3.4,0,0,.39-.08.7-.08,1,0,3.13,0,6.27,0,9.4,0,1.71.18,1.89,1.87,2a.81.81,0,0,1,.66.42h-6.91l-.06-.24a8,8,0,0,1,1.09-.18c.75,0,1.37-.25,1.37-1.09,0-3.72,0-7.44,0-11.3a33.71,33.71,0,0,0-3.91,0c-.43.05-.84.7-1.14,1.15a4.46,4.46,0,0,0-.36,1.19l-.37-.06c.1-1.15.19-2.31.28-3.4Z"/><path class="cls-1" d="M34.15,18.29l.32-3.37h13l.3,3.4-.29.05a3.6,3.6,0,0,1-.26-.52C46.58,16,46.59,16,44.68,16H42v7c0,1.26,0,2.51,0,3.76s.23,1.6,1.58,1.68c.3,0,.59.08.89.12l0,.31H37.48l-.06-.28c.41-.05.81-.14,1.22-.15.85,0,1.33-.45,1.33-1.29,0-3.65,0-7.3,0-11.1-1.37,0-2.69-.07-4,0-.38,0-.78.58-1,1a5.71,5.71,0,0,0-.4,1.33Z"/><path class="cls-1" d="M78.14.53c-1.06.11-1.07.73-1,1.42.16,1.91.29,3.83.42,5.74,0,.77,0,1.6,1,1.79H75.08c1.31-.38,1.18-1.32,1.07-2.36-.17-1.61-.21-3.23-.5-4.93L72.14,9.61h-.33L68.26,2.26l-.21.05c-.14,1.94-.32,3.87-.36,5.81,0,.44.53.88.81,1.33H65.86C66.92,9.12,67,8.25,67,7.36c.07-1.77.13-3.54.3-5.3.07-.77,0-1.3-.91-1.54,1.65-.62,2.27-.4,2.94,1,1,2,1.89,3.91,2.83,5.86,0,0,.06,0,.21,0,.93-2,1.87-3.94,2.82-5.92C75.87.1,76.3-.07,78.14.53Z"/><path class="cls-1" d="M101.14,7.24c0-2,.07-3.8,0-5.6,0-.46-.7-.87-1-1.26h3.12C101.57.55,102,1.77,102,2.76q0,3.42,0,6.84l-.3.2L94,1.84c0,2.38,0,4.53.05,6.67,0,.33.73.62,1.18,1H92c1.14-.32,1.13-1.16,1.1-2.09,0-1.73,0-3.46,0-5.19,0-.87-.1-1.53-1.21-1.63A2.44,2.44,0,0,1,95,1c1.84,1.92,3.67,3.84,5.51,5.75C100.64,6.86,100.83,7,101.14,7.24Z"/><path class="cls-1" d="M128.48,28.83c.09-.18.12-.35.17-.35,1.41-.14,1.49-1.1,1.47-2.22-.05-2.66,0-5.31,0-8,0-2,0-2-1.81-3.1H134c-.24.2-.37.41-.51.41-1.21.05-1.42.83-1.42,1.82,0,3,0,6,0,9.06,0,1.1.23,1.91,1.54,1.92a.27.27,0,0,1,.18.1s0,.13.13.32Z"/><path class="cls-1" d="M.16,9.46c1.16-.24,1.34-1,1.31-2-.05-1.73,0-3.47,0-5.2C1.47,1.32,1.34.52,0,.62.14.44.19.32.25.32a45.19,45.19,0,0,1,6.16,0,4.09,4.09,0,0,1,3.87,4.44A4.85,4.85,0,0,1,6.11,9.42C4.14,9.61,2.14,9.46.16,9.46ZM2.76.55V7.62c0,1.52.21,1.71,1.7,1.57l.66-.08A4,4,0,0,0,8.77,5.23C8.9,2.84,7.74,1.1,5.62.7A21.22,21.22,0,0,0,2.76.55Z"/><path class="cls-1" d="M46.48,5.82C46.1,8.4,46.22,8.7,48,9.49H43.8c1.67-.3,1.25-1.59,1.27-2.66,0-1.4,0-2.8,0-4.2,0-1,.13-2.1-1.5-2.16,2.2-.16,4.33-.72,6.35.18a2.35,2.35,0,0,1,.37,4.2l-.78.55,3,4.17A1.62,1.62,0,0,1,50.68,9a15,15,0,0,1-1.62-2.09C48.18,5.57,48.2,5.56,46.48,5.82Zm0-5.2V5.29c1.14,0,2.3.28,3-.86a2.47,2.47,0,0,0,.09-2.8C48.83.46,47.66.56,46.43.62Z"/><path class="cls-1" d="M127.84,9.77a4.84,4.84,0,0,1-4.31-2.69A4.49,4.49,0,0,1,124.15,2,5.42,5.42,0,0,1,130,.27a4.54,4.54,0,0,1,3.68,3.8C134.24,7.1,131.72,9.8,127.84,9.77Zm.89-.47A3,3,0,0,0,131.4,8,5.2,5.2,0,0,0,131,1.7a3.9,3.9,0,0,0-4.76-.58,4.8,4.8,0,0,0-1.42,5.2A4.11,4.11,0,0,0,128.73,9.3Z"/><path class="cls-1" d="M19.8,2.33C18.88.71,18.61.62,15.46,1V4.27c2,.48,2.93.25,3.56-1.13V6.38c-.76-2.09-2.3-1-3.64-1.38,0,1.16-.05,2.18,0,3.19a1,1,0,0,0,.73.67,6,6,0,0,0,2.42,0A6.49,6.49,0,0,0,20.33,7.5a12.32,12.32,0,0,1-.12,1.59.79.79,0,0,1-.61.44c-2.39,0-4.79,0-7.21-.17A3.55,3.55,0,0,1,13,9.19a1.06,1.06,0,0,0,1-1.18c0-2.06.08-4.13-.05-6.19,0-.52-.73-1-1.12-1.5.15,0,.6,0,1-.06,1.52,0,3,.06,4.54,0,1-.06,1.44.25,1.33,1.27A7.48,7.48,0,0,0,19.8,2.33Z"/><path class="cls-1" d="M81,9.46c2-.57,2-.57,2-2.41,0-1.51,0-3,0-4.54,0-1.1,0-2-1.48-2.14h7.13V2.3c-.78-2.47-2.77-1-4.28-1.45V4.26c1.84.48,2.85.25,3.61-.93V6.48C87.15,4.27,85.6,5.34,84.26,5c0,1.18,0,2.24,0,3.28,0,.22.46.57.73.59a10.7,10.7,0,0,0,2.53,0,2.34,2.34,0,0,0,1.1-.76c.2-.2.28-.52.65-.73l-.23,2.1Z"/><path class="cls-1" d="M41,9.5H37.37l0-.16L38.84,9a31.17,31.17,0,0,0-1.23-3.17c-.13-.25-.84-.28-1.28-.28-.6,0-1.53-.08-1.74.24a8.67,8.67,0,0,0-1,2.88c0,.19.73.55,1.15.85H31.54C32.69,9.05,32.89,8,33.24,7L35.75.11c.77-.3,1.22,0,1.53.89.79,2.25,1.62,4.49,2.51,6.7A10,10,0,0,0,41,9.5ZM37.26,4.72,36.05,1.54,34.92,4.72Z"/><path class="cls-1" d="M25.56,5.7a16,16,0,0,1,0,1.7c-.1,1.1.1,1.92,1.45,2H23.21c1.38-.23,1-1.3,1.05-2.19,0-1.74,0-3.47,0-5.2,0-1-.17-1.64-1.36-1.4a1.48,1.48,0,0,1,0-.27,45.61,45.61,0,0,1,5.36,0,2.23,2.23,0,0,1,2.08,2.33,2.72,2.72,0,0,1-2,2.7A7.36,7.36,0,0,1,27,5.7C26.61,5.74,26.16,5.7,25.56,5.7Zm.06-.51C27.1,5.39,28,5,28.55,4.07a2.39,2.39,0,0,0-.12-2.79C27.69.36,26.64.52,25.56.69V4.48C25.57,4.69,25.6,4.91,25.62,5.19Z"/><path class="cls-1" d="M142.72,3.36V5.87c-.9-1.07-1.46-1.19-4-.85a25,25,0,0,0,0,3.24c.06.44.65.8,1,1.19h-3.56C137.72,9,137.4,8,137.41,7.08c0-1.59,0-3.17,0-4.75,0-.87,0-1.6-1-2.07h5.23c1.61,0,1.64,0,1.31,1.79-1-2-2.71-.82-4.17-1.15V4.25C140.08,4,141.52,4.91,142.72,3.36Z"/><path class="cls-1" d="M114.64.26l.18,2.06c-.53-.48-1-1.13-1.56-1.35a7.29,7.29,0,0,0-2.26,0c0,2.59-.06,5.05.07,7.51,0,.38.86.72,1.3,1.06H108c.59-.3,1.26-.44,1.5-.84a3.69,3.69,0,0,0,.18-1.72c0-1.73,0-3.46,0-5.19,0-.62-.2-.89-.83-.82a2.53,2.53,0,0,1-.55,0c-1.2-.16-2.14.08-2.22,1.63l-.32-.13L106,.26h8.69Z"/><path class="cls-1" d="M58.4,1.05C55.76.66,55.58.73,54.58,2.4L54.72.26H63.4l.29,2.17c-.55-.54-1-1.24-1.54-1.45A7.8,7.8,0,0,0,59.76.92c0,2.55-.07,5,.06,7.38,0,.43.87.82,1.27,1.16H56.94l0-.12a2,2,0,0,0,.71-.19c.3-.25.75-.58.76-.88C58.43,5.88,58.4,3.49,58.4,1.05Z"/></g></g></g></g></svg>