<svg xmlns="http://www.w3.org/2000/svg" viewBox="0 0 170.45 18.81"><defs><style>.cls-1{fill:#fff;}</style></defs><title>mcwic</title><g id="Layer_2" data-name="Layer 2"><g id="logos"><g id="_2K" data-name="2K"><g id="mcwic"><path class="cls-1" d="M0,9.68H3.67c0,.13,0,.21,0,.21-1.08.33-1.08.33-.66,1.4L5.2,16.88c0,.09.08.17.16.35l1.41-3.48c0-.06.06-.15,0-.2-.46-1.08-.89-2.18-1.44-3.22-.15-.28-.71-.33-1.07-.59h5.79a1.43,1.43,0,0,1-.05.17c-.92.07-1.25.7-1.61,1.45a3,3,0,0,0,0,3.11,27.07,27.07,0,0,1,1.17,2.72c.13-.27.23-.44.3-.62.71-1.86,1.42-3.71,2.12-5.57.3-.79.29-.79-.58-1a.41.41,0,0,1-.28-.24h3c-.17.12-.24.22-.33.22a1.27,1.27,0,0,0-1.06.92q-1.48,3.94-3,7.89H9l-1.67-4.2-.19,0L5.55,18.78H4.69c-1-2.52-2-5-2.95-7.57A1.65,1.65,0,0,0,0,10ZM7.45,12c.23-.57.39-1,.57-1.39s0-.68-.43-.68a8.4,8.4,0,0,0-1,.1Z"/><path class="cls-1" d="M17.92,18.78c-.38-.13-.76-.24-1.13-.38a4.27,4.27,0,0,1-3-3.5,4.54,4.54,0,0,1,1.78-4.39,5.75,5.75,0,0,1,7,.25A4.14,4.14,0,0,1,23.91,15a4.76,4.76,0,0,1-3.55,3.6,4,4,0,0,0-.45.16Zm4.72-4.72a4.33,4.33,0,0,0-1-2.77,3.61,3.61,0,0,0-3.59-1.36,3.22,3.22,0,0,0-2.61,2.41,4.85,4.85,0,0,0-.05,3.06,4,4,0,0,0,4.37,2.94C21.49,18.07,22.64,16.46,22.64,14.06Z"/><path class="cls-1" d="M96.55,18.78c-.19-.08-.38-.17-.57-.23a4.4,4.4,0,0,1-3.41-4.88,4.78,4.78,0,0,1,4-4.13,5.73,5.73,0,0,1,4,.63,4.08,4.08,0,0,1,2.22,4.12,4.7,4.7,0,0,1-3.1,4.14c-.32.13-.66.23-1,.35ZM93.8,13.92a16.63,16.63,0,0,0,.74,2.33,3.82,3.82,0,0,0,3.93,2.1,3.38,3.38,0,0,0,2.8-3,5.73,5.73,0,0,0,.1-1.55,4.12,4.12,0,0,0-3-3.84C95.85,9.43,94,11.12,93.8,13.92Z"/><path class="cls-1" d="M128.4,18.78a3.57,3.57,0,0,0-.46-.16,3.4,3.4,0,0,1-2.65-3.43c0-1.32,0-2.65,0-4,0-.72-.13-1.21-1-1.23-.06,0-.13-.09-.34-.24h3.76c0,.09,0,.15,0,.16-1.15.34-1.15.34-1.15,1.55s0,2.37,0,3.56c0,1.91,1.17,3,3.21,3s3.18-1,3.21-3q0-1.81,0-3.63c0-1-.13-1.13-1.13-1.39a.33.33,0,0,1-.22-.23h3.31c-1.51.28-1.26,1.44-1.26,2.46s0,1.9,0,2.85a3.43,3.43,0,0,1-2.82,3.57,1.23,1.23,0,0,0-.31.14Z"/><path class="cls-1" d="M164.66,18.78a1.77,1.77,0,0,0-.31-.15,4.43,4.43,0,0,1-3.24-4.74A4.59,4.59,0,0,1,165,9.57,16.9,16.9,0,0,1,168,9.7c.46,0,.91.16,1.36.24v2.42a2.53,2.53,0,0,1-.33-.48c-.62-2.42-3.65-2.44-5.13-1.23-2,1.67-1.89,5.68.29,7.12A3.77,3.77,0,0,0,168,18c.12,0,.32-.17.32-.25a18.06,18.06,0,0,0-.14-2.32c0-.16-.49-.28-.76-.37a4.08,4.08,0,0,0-.71-.06v-.21h3.77a.68.68,0,0,1,0,.15c-.94.22-.94.93-.92,1.7,0,1.37,0,1.37-1.31,1.76-.47.14-1,.26-1.42.39Z"/><path class="cls-1" d="M86,18.78c-.2-.08-.38-.17-.58-.23a4.43,4.43,0,0,1-3.26-4.93,4.53,4.53,0,0,1,4-4,15.25,15.25,0,0,1,3.16.15,10.08,10.08,0,0,1,1.51.35v2.05a2.91,2.91,0,0,1-.33-.36,3.43,3.43,0,0,0-4-1.82,3.66,3.66,0,0,0-2.88,3.14,4.51,4.51,0,0,0,2.79,5.1,3.75,3.75,0,0,0,4.23-1.38c.14-.2.3-.39.51-.65a2.06,2.06,0,0,1-1.56,2.3c-.43.08-.85.21-1.28.32Z"/><path class="cls-1" d="M111.89,18.32c.21-.06.48-.06.62-.19s.6-.56.59-.84c-.08-2-.24-4-.39-6.2-.26.55-.46.93-.64,1.33l-2.64,5.65a3.35,3.35,0,0,1-.42.51,3.42,3.42,0,0,1-.42-.52c-1-2-2-4.09-2.94-6.14-.1-.2-.21-.39-.42-.78-.11,1.67-.21,3.12-.3,4.57,0,.24,0,.47,0,.71-.07,1.38-.07,1.38,1.21,2.07H103c0-.09,0-.18,0-.18,1,0,1.16-.68,1.2-1.49.08-1.7.21-3.4.3-5.1.06-1.27,0-1.27-.93-2,.8,0,1.47,0,2.13,0,.16,0,.32.3.42.49,1,2.14,2.06,4.29,3.15,6.57l1.7-3.52c.49-1,1-2,1.45-3.08a.7.7,0,0,1,.79-.5c.53,0,1.06,0,1.62,0,0,.16-.06.23-.08.24-.93.08-.91.67-.84,1.4.17,1.69.27,3.39.39,5.09.06.89-.19,1.95,1.32,2a19.54,19.54,0,0,1-3.72.17Z"/><path class="cls-1" d="M27.55,18.49H24.4l-.12-.18c1.43,0,1.28-1,1.33-1.92.09-1.68.2-3.35.3-5,0-.66.19-1.4-1-1.43l.16-.24a19.79,19.79,0,0,1,2,0c.17,0,.33.36.44.58,1,2.1,2,4.21,3.07,6.41A4.66,4.66,0,0,0,31,16.2c.95-2,1.9-4,2.83-5.95.19-.42.4-.63.89-.58s1,0,1.53,0a1.4,1.4,0,0,1,0,.21c-1,.1-.92.68-.84,1.45.19,1.95.29,3.91.42,5.87,0,.66.24,1.11,1,1,0,0,.11.06.16.1s0,0,0,.16H33.28c0-.11,0-.19,0-.19,1.24-.41,1.23-.41,1.13-1.79-.11-1.72-.21-3.45-.44-5.22-.1.2-.21.41-.31.62-1,2.05-1.91,4.11-2.88,6.16a2.55,2.55,0,0,1-.44.5A3.41,3.41,0,0,1,30,18.1c-1.1-2.27-2.19-4.55-3.37-7-.06.77-.12,1.36-.15,1.94-.07,1.14-.15,2.27-.19,3.41C26.24,17.82,26.26,17.82,27.55,18.49Z"/><path class="cls-1" d="M160.79,9.75c0,.08,0,.12,0,.12-1.25.47-1.25.47-1.25,1.85v7a4.52,4.52,0,0,1-.82-.52q-3.21-3.33-6.38-6.67c-.11-.11-.24-.21-.5-.44V16.9c0,1.12,0,1.16,1.17,1.33.08,0,.15.07.2.26h-3.35c.08-.14.09-.21.12-.22,1.08-.23,1.15-.31,1.15-1.47,0-1.87,0-3.74,0-5.61,0-.72-.17-1.13-.92-1.19a1.71,1.71,0,0,1-.35-.13,2.86,2.86,0,0,1,2.91.4q2.7,2.81,5.4,5.64a5.87,5.87,0,0,1,.44.63l.21-.14c0-1.88,0-3.77,0-5.65,0-.24-.39-.5-.65-.68s-.47-.11-.69-.32Z"/><path class="cls-1" d="M46.12,9.68c.72,0,1.44,0,2.15,0,.19,0,.39.24.55.4L55,16.58v-5.3C55,10.22,55,10.2,54,10a.41.41,0,0,1-.29-.23H57c0,.05,0,.12,0,.13-1.21.4-1.21.4-1.21,1.73v7.17a5.83,5.83,0,0,1-.86-.6q-3.27-3.39-6.53-6.82l-.27-.25c0,.29-.06.48-.06.68v4.62c0,1.51,0,1.51,1.36,1.92a5.56,5.56,0,0,1-3.27.06s0-.11.06-.11c1.12-.28,1.14-.31,1.14-1.48,0-1.87,0-3.74,0-5.61,0-.71-.14-1.14-.91-1.2a.88.88,0,0,1-.32-.16Z"/><path class="cls-1" d="M74,9.74H77.3c-.06.11-.07.17-.1.18C76,10.29,76,10.29,76,11.56v7.25a6.43,6.43,0,0,1-.77-.55c-2.1-2.18-4.19-4.38-6.28-6.56-.18-.19-.37-.36-.67-.65V17c0,1,.14,1.11,1.13,1.25.1,0,.2.06.27.26h-3.3c1.2-.68,1.2-.68,1.2-2.18,0-1.73,0-3.45,0-5.18,0-.72-.2-1.07-.89-1.13a.41.41,0,0,1-.27-.21c1,0,2-.46,2.94.56,1.73,1.94,3.58,3.78,5.38,5.65.12.13.26.24.53.48V13.37c0-.75,0-1.51,0-2.27S75,10,74.32,10a1.66,1.66,0,0,1-.38-.11Z"/><path class="cls-1" d="M40.27,13.67H42c1.18,0,1.18,0,1.7-1a4.17,4.17,0,0,1,0,2.67c-.23-.35-.39-.9-.7-1a6.91,6.91,0,0,0-1.83-.11h-.95c0,1.11,0,2.18,0,3.26,0,.17.37.45.58.46a14.33,14.33,0,0,0,2.62,0c.37-.05.72-.45,1-.75a2.86,2.86,0,0,0,.37-.81l.22,0c-.07.67-.12,1.35-.23,2,0,.07-.26.16-.41.17-2.27,0-4.54,0-6.82,0-.12,0-.24-.08-.36-.29.19,0,.37-.07.55-.08C38.74,18.18,39,18,39,17c0-1.92,0-3.84,0-5.76,0-1.06-.08-1.15-1.13-1.31a.37.37,0,0,1-.27-.21h6.84v2a3,3,0,0,1-.26-.45c-.35-1-.39-1.07-1.44-1.07H40.27Z"/><path class="cls-1" d="M116.12,9.68a17.39,17.39,0,0,1,5.34.08,2.34,2.34,0,0,1,1.91,2.54,2.81,2.81,0,0,1-2.83,2.48c-.57,0-1.14,0-1.79,0a26.09,26.09,0,0,0,0,2.8c0,.23.5.46.81.61a1.83,1.83,0,0,0,.71.07l0,.22h-4c0-.1,0-.18,0-.19,1.08-.3,1.08-.3,1.08-1.45V11.09c0-1,0-1.06-1-1.14a1.09,1.09,0,0,1-.3-.07Zm2.61,4.65a2.44,2.44,0,0,0,2.82-.87,2.76,2.76,0,0,0,0-2.89,2.72,2.72,0,0,0-2.82-.53Z"/><path class="cls-1" d="M139.27,10.24a21.85,21.85,0,0,0-2.44,0c-.28,0-.57.41-.76.69a3.36,3.36,0,0,0-.3.86l-.23-.05.21-2.12c2.79,0,5.47,0,8.32,0l.24,2.11-.23.06c-.08-.24-.16-.48-.23-.72a1,1,0,0,0-1.17-.88c-.68,0-1.37,0-2.16,0V11c0,1.89,0,3.78,0,5.68,0,1.12.1,1.64,1.42,1.52.07,0,.15.05.26.08-.39.37-4,.4-4.68,0l.92-.07c.46,0,.82-.22.83-.71C139.28,15.11,139.27,12.7,139.27,10.24Z"/><path class="cls-1" d="M17.59.33c1.32-.36,1.5-.28,2,.71.61,1.25,1.21,2.5,1.85,3.84L23.25,1c.48-1,.61-1,2-.73-.84.09-.71.56-.67,1,.1,1.17.15,2.36.24,3.54,0,.5,0,1.11.77,1.16H23.22c.79-.19.75-.76.69-1.37-.09-1.08-.13-2.15-.33-3.27l-2.35,5L18.85,1.45l-.17,0c-.07,1.31-.16,2.61-.17,3.91,0,.21.38.43.62.67H17.26C18,5.89,18,5.34,18,4.8c.07-1.16.14-2.31.19-3.47C18.23.9,18.38.39,17.59.33Z"/><path class="cls-1" d="M69.85,4.5c0-1.18,0-2.36,0-3.53,0-.27-.45-.5-.67-.73h2c-1.05.11-.77.89-.78,1.52,0,1.44,0,2.88-.1,4.4-1.79-1.47-3.24-3.28-5-5,0,1.5,0,2.86,0,4.21,0,.23.49.42.77.64H64c1-.25.72-1.06.73-1.73,0-.93,0-1.85,0-2.77,0-.54.21-1.21-.78-1.25a2,2,0,0,1,2.21.52c1.12,1.3,2.36,2.5,3.55,3.75Z"/><path class="cls-1" d="M61.86,9.75h3.37c0,.05,0,.13,0,.13-1.11.46-1.12.46-1.12,1.68v5.19c0,1.23,0,1.23,1.14,1.57-.29.35-2.81.41-3.38.1.31-.24.76-.42.91-.73a3.28,3.28,0,0,0,.08-1.26c0-1.56,0-3.13,0-4.69,0-.81.26-1.76-1.19-1.82Z"/><path class="cls-1" d="M99.29.27c1-.26,1.37-.19,2,.5l3.78,3.94c0-1.4,0-2.65,0-3.9,0-.2-.49-.37-.78-.57h2.29c-.94.35-.94.35-.94,1.34V6.1l-.21.14-4.91-5.09c0,1.52,0,2.85,0,4.19,0,.25.48.47.74.72H99.24c1-.23.72-1,.73-1.67,0-.95,0-1.9,0-2.84S100,.64,99.29.27Z"/><path class="cls-1" d="M148.84,9.86a1.66,1.66,0,0,1-.35.13.83.83,0,0,0-.82.89q0,3.24,0,6.46c0,.79.65.83,1.17,1.15h-3.47l-.16-.17c1.44-.1,1.21-1.08,1.22-1.93V11.78c0-.84.23-1.81-1.24-1.86l.18-.17h3.46Z"/><path class="cls-1" d="M38.75,3.45,40.9,6.32a4.67,4.67,0,0,1-1.27-.5,5.25,5.25,0,0,1-1.14-1.43,1.26,1.26,0,0,0-1.69-.65c-.25,1.49-.08,1.91,1.08,2.31h-2.8c1.17-.23.75-1.16.78-1.87,0-.9,0-1.8,0-2.7,0-.66-.09-1.12-.92-1.11L35,.2l.62-.05c.75,0,1.51,0,2.27,0a2,2,0,0,1,2,1.25C40.13,2.17,39.85,2.71,38.75,3.45Zm-2,0c.77,0,1.54.12,2-.63a1.58,1.58,0,0,0,0-1.86c-.48-.66-1.2-.61-2-.55Z"/><path class="cls-1" d="M125.94,3.43l2,2.72a1.19,1.19,0,0,1-1.27-.42,6.1,6.1,0,0,1-1-1.29,1.23,1.23,0,0,0-1.66-.7c-.29,1.5-.16,1.85,1,2.33h-2.78c1-.15.86-.9.86-1.57V1.66c0-1,0-1-1-1.41,1.34,0,2.57-.08,3.79,0a1.39,1.39,0,0,1,1.25,1.35C127.22,2.37,126.94,2.8,125.94,3.43Zm-2,0c.8,0,1.58.08,2-.74A1.63,1.63,0,0,0,125.93,1C125.46.29,124.75.3,124,.38Z"/><path class="cls-1" d="M72.86,6.1c.83-.18.83-.75.82-1.39,0-1,0-2.08,0-3.12,0-.61.12-1.3-.89-1.31,1.72-.15,3.4-.52,5,.19a2.45,2.45,0,0,1,1.55,2.27,3,3,0,0,1-1.69,3,3.17,3.17,0,0,1-1.27.38C75.21,6.13,74,6.1,72.86,6.1ZM74.51.34c0,1.73,0,3.37,0,5a.64.64,0,0,0,.29.48,2.86,2.86,0,0,0,3.24-1.3,2.9,2.9,0,0,0-.18-3.16C77.05.24,75.82.27,74.51.34Z"/><path class="cls-1" d="M151,3.37c.35.54.64,1,1,1.48s.7.87,1.23,1.5a4.43,4.43,0,0,1-1.32-.51,4.92,4.92,0,0,1-1.16-1.41,1.27,1.27,0,0,0-1.67-.71c-.28,1.54-.17,1.83,1,2.35h-2.84c.13-.09.21-.19.29-.19.55,0,.65-.38.65-.82,0-1.14,0-2.27,0-3.41s0-1-1-1.4c1.33,0,2.56-.07,3.78,0a1.38,1.38,0,0,1,1.25,1.35A1.66,1.66,0,0,1,151,3.37Zm-2,0c.81,0,1.56.08,2-.69A1.67,1.67,0,0,0,150.9.86a2.07,2.07,0,0,0-1.9-.5Z"/><path class="cls-1" d="M145.85,3.06a3.4,3.4,0,0,1-2.22,3,3.87,3.87,0,0,1-4-.88,3,3,0,0,1-.38-3.38,3.64,3.64,0,0,1,6.16-.13A6.34,6.34,0,0,1,145.85,3.06Zm-1.06.1a3.63,3.63,0,0,0,0-.5A2.59,2.59,0,0,0,141.4.45a2.77,2.77,0,0,0-1.49,3.07A2.76,2.76,0,0,0,142.65,6C143.94,5.92,144.79,4.85,144.79,3.16Z"/><path class="cls-1" d="M92.35,6.08c1.08-.43,1.08-.43,1.08-1.69,0-.95,0-1.9,0-2.84,0-.72-.09-1.23-1-1.31h4.57v1.3c-.3-.44-.33-1.1-1.09-1a13.07,13.07,0,0,1-1.66,0V2.87c.79-.2,1.77.49,2.32-.87V4.14c-.49-1.42-1.5-.7-2.36-1,0,.75,0,1.41,0,2.06a.67.67,0,0,0,.47.45,4.4,4.4,0,0,0,1.62,0c.4-.13.71-.57,1.1-.91l-.12,1.32Z"/><path class="cls-1" d="M119.72,2.21V3.93c-.53-1.25-1.55-.49-2.41-.73a18.41,18.41,0,0,0,0,2c0,.19.31.38.52.5s.32,0,.49,0c1.35,0,1.35,0,2.22-1.12l-.15,1.48h-5c0-.05,0-.12,0-.13,1-.27,1-.27,1-1.34V1.68c0-1,0-1-1-1.46h4.67l.06,1.24c-.57-1.64-1.87-.61-2.84-.94V2.89C118.13,2.62,119.15,3.43,119.72,2.21Z"/><path class="cls-1" d="M33.32,6.07h-2.4V6c1-.33,1-.33.6-1.32A5.35,5.35,0,0,1,31.28,4a.55.55,0,0,0-.67-.45c-.47,0-1.16-.14-1.36.1a5.55,5.55,0,0,0-.76,1.81c0,.09.14.32.26.39s.37.08.54.25H27.36a8.51,8.51,0,0,0,.86-1.39c.6-1.5,1.13-3,1.7-4.61.5-.18.78,0,1,.56q.78,2.24,1.68,4.43A4.49,4.49,0,0,0,33.32,6.07ZM30.12,1,29.4,3h1.48Z"/><path class="cls-1" d="M62.17,6.07h-2.4c0-.05,0-.14.08-.15.9-.24.9-.24.58-1.12a.19.19,0,0,1,0-.07c-.46-1.24-.83-1.46-2.12-1.19a.68.68,0,0,0-.38.33c-.14.29-.23.62-.35.93-.33.91-.33.91.55,1.24h-2c.73-.19.84-.85,1-1.42Q58,2.34,58.78.06c.55-.16.8.06,1,.58.51,1.47,1.07,2.93,1.66,4.37A5.15,5.15,0,0,0,62.17,6.07ZM58.25,3h1.49L59,1Z"/><path class="cls-1" d="M46.3,6.08H43.81c.29-.25.78-.47.79-.71a4.53,4.53,0,0,0-.27-1.9,9.84,9.84,0,0,0-1.25-2A14.5,14.5,0,0,0,41.88.23h2.43L43.52.6l1.7,2.66c.49-.83,1-1.54,1.32-2.3.08-.16-.18-.49-.29-.75h2c-1.58.78-2,2.34-2.71,3.59a2.56,2.56,0,0,0,0,1.6C45.59,5.65,46,5.83,46.3,6.08Z"/><path class="cls-1" d="M90.87,4.53c-.12,1.1-.33,1.4-1.23,1.54a7.76,7.76,0,0,1-2.25.11,2.91,2.91,0,0,1-2.52-3.3A3.08,3.08,0,0,1,88,0,19.3,19.3,0,0,1,90.6.35l.11,1.32-.15.12A2.33,2.33,0,0,0,88.19.33a3.26,3.26,0,0,0-1.73.83,3,3,0,0,0,.32,4.15C88,6.41,89.32,6.17,90.87,4.53Z"/><path class="cls-1" d="M132.92,6c.61-.15.64-.59.64-1.07,0-1.18,0-2.36,0-3.54a4.33,4.33,0,0,0-.41-1.21h4v1A1,1,0,0,0,136,.55c-.48,0-1,0-1.55,0V2.75c.9-.21,1.85.42,2.56-.66V4c-.6-1.42-1.65-.62-2.55-.91a21.12,21.12,0,0,0,0,2.27c0,.24.42.45.66.69Z"/><path class="cls-1" d="M110.58.62c-1.89-.18-1.89-.18-2.51.91L108.22.1h5.55l.15,1.38c-.33-.32-.6-.74-1-.88a5,5,0,0,0-1.51,0V4.48c0,1.16,0,1.16,1.13,1.58h-3l0-.09a1.23,1.23,0,0,0,.41-.12c.23-.18.61-.39.61-.59C110.6,3.72,110.58,2.19,110.58.62Z"/><path class="cls-1" d="M54.68,4.67c-.27,1.3-.45,1.45-1.62,1.45H49.87l0-.11c.1,0,.21-.14.31-.14.45,0,.57-.27.57-.64,0-1.38,0-2.75,0-4.12,0-.32-.44-.61-.65-.88h2.77c-1.24.41-1.24.41-1.24,1.69,0,1,0,2,0,3.06,0,.52.1.73.7.75C53.26,5.77,54.14,5.69,54.68,4.67Z"/></g></g></g></g></svg>