<svg xmlns="http://www.w3.org/2000/svg" viewBox="0 0 337.66 87.18"><defs><style>.cls-1{fill:#d9272f;}.cls-2{fill:#db3734;}.cls-3{fill:#d9262f;}.cls-4{fill:#db3835;}.cls-5{fill:#da3132;}.cls-6{fill:#db3935;}.cls-7{fill:#db3a36;}.cls-8{fill:#db3534;}.cls-9{fill:#da3433;}.cls-10{fill:#db3634;}.cls-11{fill:#da3333;}.cls-12{fill:#db3735;}.cls-13{fill:#dc453c;}.cls-14{fill:#dc3f39;}.cls-15{fill:#dd4a3f;}.cls-16{fill:#de5546;}</style></defs><title>microstrategy</title><g id="Layer_2" data-name="Layer 2"><g id="logos"><g id="_10K" data-name="10K"><g id="microstrategy"><path class="cls-1" d="M.15,42.54c.4-2.14.84-4.27,1.19-6.41,1.46-9,2.89-18,4.38-26.95a1.22,1.22,0,0,1,.84-.81c4.12-.06,8.23,0,12.48,0L23.9,26.74,29,8.4H42.13l5.55,33.76h.2V18.84h12v7.75l.18.06c.12-.24.26-.47.37-.72a12.35,12.35,0,0,1,12.74-7.65,53.81,53.81,0,0,1,5.88,1,1.17,1.17,0,0,1,.75.8c0,3.11,0,6.21,0,9.23a26.39,26.39,0,0,0-3.67-1.65,3.53,3.53,0,0,0-4,1.47,3.79,3.79,0,0,0,.09,4.08,3.6,3.6,0,0,0,4.17,1.29,29.79,29.79,0,0,0,3.37-1.54c-.11,2.38-.23,4.74-.34,7.1,0,.2,0,.4-.07.6-.14,2.57-.14,2.58-2.72,3.1-5,1-9.61.43-13.48-3.05A27.75,27.75,0,0,1,60,36.45v7.11H35.47Q34.61,34,33.75,24.5,31.35,32,29,39.59c-.35,1.1-.66,2.22-1.08,3.29a1.27,1.27,0,0,1-.87.72c-2.27.06-4.55,0-6.94,0l-5.63-19L12.59,43.57c-.46,0-.88.06-1.3.06-3.28,0-6.56,0-9.84,0-.43,0-.87.07-1.3.11Z" transform="translate(-0.15 -0.72)"/><path class="cls-2" d="M289.11,87.9c1-2.06,2-4.14,3.08-6.18a1.93,1.93,0,0,0,0-1.89c-1.71-3.67-3.38-7.36-5.08-11.11a1.19,1.19,0,0,1,1.8.75c1.4,3.21,2.89,6.39,4.43,9.77.26-.43.46-.73.63-1,1.5-2.9,3-5.8,4.47-8.72a1.3,1.3,0,0,1,1.84-.79l-1.53,3L290.88,87a9.32,9.32,0,0,0-.33.88Z" transform="translate(-0.15 -0.72)"/><path class="cls-2" d="M67.35,87.9c.78-1.82,1.48-3.68,2.37-5.44a3.27,3.27,0,0,0,0-3.31c-1.69-3.42-3.24-6.91-4.86-10.42,1-.38,1.42-.11,1.8.77,1.41,3.16,2.91,6.29,4.46,9.62a11.15,11.15,0,0,0,.55-1c1.34-2.85,2.7-5.69,4-8.57.38-.85.81-1.23,1.81-.85-.22.51-.43,1-.66,1.5Q73,78.45,69.17,86.69a10,10,0,0,0-.38,1.21Z" transform="translate(-0.15 -0.72)"/><path class="cls-3" d="M208.9,40.57a35.59,35.59,0,0,1-3.61,2.54c-4.94,2.66-10.39.66-12.23-4.56a26.63,26.63,0,0,1-.88-5.16,3.49,3.49,0,0,1,.13-1.54c.39-1.21-.22-1.73-1.22-2.14a5.18,5.18,0,0,0-7.08,4c-.57,3-1,6-1.47,9,0,.31-.11.62-.19,1H170.28c.79-5,1.57-10,2.39-15.18l-4-.23c-.82,5.15-1.63,10.22-2.45,15.34H154.08c.79-5.08,1.59-10.13,2.38-15.2h-1.88c.76,8.12-5,13.82-12.47,15.51a26,26,0,0,1-16.7-2.06,2,2,0,0,0-2.06.08c-6.14,3.56-15.09,2.75-20.1-1.78a11.45,11.45,0,0,1-3.74-9.58c0-.36,0-.72.06-1.06a4.23,4.23,0,0,0-6.08,3.86c-.07,2.92,0,5.84,0,8.76v1.38H81.38V18.88h12l-.14,3c2.14-3,5.08-3.86,8.61-3.6v5a33.11,33.11,0,0,1,4.93-3.37,18,18,0,0,1,16.81.62c3.72,2.07,5.59,5.44,6,9.67a2.58,2.58,0,0,0,.69,1.53A10.61,10.61,0,0,0,137.15,35a7.09,7.09,0,0,0,3.18-.73,2.12,2.12,0,0,0,.88-1.75c0-.44-.81-1-1.36-1.19-1.57-.44-3.22-.61-4.8-1-3.13-.85-5.71-2.45-6.43-5.88a10.79,10.79,0,0,1,1.5-7.71c2.65-4.67,6.88-7.16,12-8.15a19,19,0,0,1,14.53,2.7l-4.9,9.08a11.49,11.49,0,0,0-6.12-2.6,7.33,7.33,0,0,0-3,.53,1.89,1.89,0,0,0-.84,1.52c0,.4.68.94,1.16,1.11a29.09,29.09,0,0,0,3.25.8c3,.69,5.75,1.68,7.65,4.64.42-2.56.79-4.85,1.17-7.22h2.92c.44-2.74.88-5.45,1.32-8.18h12.19c-.42,2.72-.84,5.39-1.26,8.14h16l-.61,3a10.15,10.15,0,0,1,9.18-3.55c-.45,2.73-.89,5.42-1.32,8.11l.12.13a9.13,9.13,0,0,0,.62-.91A14.9,14.9,0,0,1,200,19.6c4.27-2.39,8.32-1.71,12.11,2.06l.19-2.75H226.6c.43-2.64.86-5.31,1.3-8h12.18L238.83,19h4L242,24.19l.25.2a7.46,7.46,0,0,1,.6-.84,17.38,17.38,0,0,1,19.5-3.93,10.49,10.49,0,0,1,6.2,8.36c.26-.56.43-.94.6-1.32,1.64-3.66,4-6.65,7.83-8.18,3.34-1.33,8.2-1.18,10.34,3.25,0,0,.12.05.27.11.1-1.16.19-2.29.3-3.48H312q.72,6.65,1.45,13.24c.82-2.08,1.62-4.21,2.51-6.32s1.8-4.17,2.77-6.23a1.43,1.43,0,0,1,1-.72c3.92,0,7.84,0,12,0-.25.44-.42.76-.61,1.07Q321,36,310.82,52.57a1.61,1.61,0,0,1-1,.78c-4,0-8,0-12.21,0,.32-.51.53-.87.76-1.22,2.36-3.56,4.73-7.11,7.07-10.7a2,2,0,0,0,.34-1.38c-2-6.44-4-12.86-6.08-19.28a6.66,6.66,0,0,0-.34-.64c-.48,3-.91,5.77-1.35,8.51-.76,4.73-1.33,9.5-2.33,14.18-1.47,6.86-6.32,10.4-12.84,11.86A27.33,27.33,0,0,1,266,53.06a1.84,1.84,0,0,1-.34-.27c1.29-2.72,2.59-5.44,3.94-8.26a12.74,12.74,0,0,0,7,3,6.36,6.36,0,0,0,7-3.89,15.52,15.52,0,0,0,1-3.51c-3.17,3.21-6.86,4.66-11.12,3s-5.39-5.64-5.73-9.86c-.36,0-.64,0-.91,0h-16a13.21,13.21,0,0,0-.17,1.45c0,1.06.1,2.11,1.28,2.59a2.6,2.6,0,0,0,3.18-1,1.83,1.83,0,0,1,1.85-.9c3.43,0,6.85,0,10.46,0a11.32,11.32,0,0,1-4,5.11,18.75,18.75,0,0,1-18.21,2.41c-5.21-2-7.33-6.77-5.87-12.58.16-.62.35-1.22.55-1.92l-2.49-.21c-.82,5.14-1.63,10.24-2.45,15.37H222.72l2.4-15.31-2.48.15q-1.21,7.59-2.42,15.17H208.4c.23-1,.45-1.92.67-2.84a2.74,2.74,0,0,0,.05-.28ZM115.27,27.84a3.38,3.38,0,0,0-3.51,3.42,3.42,3.42,0,0,0,3.16,3.55,3.49,3.49,0,0,0,.35-7ZM280,31.26a2.56,2.56,0,0,0,2.7,2.92,3.86,3.86,0,0,0,3.78-4.09,2.69,2.69,0,0,0-2.58-2.87A4.06,4.06,0,0,0,280,31.26Zm-75.6.59c0,1.49.61,2.53,1.77,2.76a3.36,3.36,0,0,0,3.53-1.18,4.08,4.08,0,0,0,.83-4.23A2.81,2.81,0,0,0,209,27.92C206.76,27.07,204.39,29.11,204.35,31.85Zm47.13-3.77h5.77c.31-1.8-.58-3.19-2.13-3.4C253.27,24.43,251.71,25.87,251.48,28.08Zm33.2,11.63-.13.08s.05.07.07.07l.14-.07Z" transform="translate(-0.15 -0.72)"/><path class="cls-4" d="M192.11,81.5l-1.46.07c.47-6.43.94-12.77,1.4-19.1,1.13-.37,1.71-.13,2.12,1,1.9,5.24,3.89,10.43,5.87,15.69.89-2.37,1.77-4.75,2.68-7.12,1.09-2.82,2.26-5.62,3.29-8.47.4-1.13,1-1.54,2.22-1.12.44,6.26.88,12.58,1.32,19h-1.44c-.34-5.5-.69-11-1.05-16.79a9.52,9.52,0,0,0-.45.87c-2,5.06-3.88,10.13-5.85,15.18-.13.33-.54.56-.82.84-.27-.28-.67-.51-.8-.85-1.9-5.12-3.77-10.25-5.65-15.38-.07-.2-.18-.4-.31-.69C192.82,70.32,192.47,75.88,192.11,81.5Z" transform="translate(-0.15 -0.72)"/><path class="cls-5" d="M56.78,15.56l-2.17-2.34-.94,4.49-.14,0-.81-4.61-2.56,3-.32-.28,1-3.24H48.33l1.6-1.9-4.25-1,4.19-.91-2.41-2.7,2.89.46-.94-3.25,3.16,2.39,1-5,.2,0L54.9,5l2.57-1.6-.63,3.62,3.68-.91L58.46,8.7l3.63.84,0,.17-4.43.91,2.24,3-3.14-1Zm-1-6.29a2,2,0,1,0-3.95,0,2,2,0,1,0,3.95,0Z" transform="translate(-0.15 -0.72)"/><path class="cls-6" d="M176.62,70.24V62.39l1.44-.08V81.49h-1.18l-.13-2.12a6.08,6.08,0,0,1-3.85,2.41A5.87,5.87,0,0,1,166.78,79c-2.41-4.11-.29-9.63,4.08-10.62C172.85,67.9,174.7,68.46,176.62,70.24Zm.1,4.69h-.08c0-.4,0-.8,0-1.2a4.33,4.33,0,0,0-3.47-4.28A4.57,4.57,0,0,0,168,72.11a7.09,7.09,0,0,0,0,5.91,4.56,4.56,0,0,0,8.53-.6A17.09,17.09,0,0,0,176.72,74.93Z" transform="translate(-0.15 -0.72)"/><path class="cls-7" d="M6.27,81.42c.7-1.91,1.38-3.81,2.08-5.71,1.51-4.12,3-8.24,4.56-12.34a2,2,0,0,1,1-1c.75-.27.88.43,1.07.95l6.32,17.3.29.83c-.95.29-1.51.19-1.83-.85-.51-1.68-1.15-3.32-1.82-4.94a1.49,1.49,0,0,0-1.08-.76c-2-.08-4-.08-6,0a1.49,1.49,0,0,0-1.06.79c-.65,1.58-1.24,3.2-1.73,4.84C7.82,81.49,7.32,81.79,6.27,81.42Zm4.4-7.92h6.51l-3.24-9.12Z" transform="translate(-0.15 -0.72)"/><path class="cls-8" d="M234.3,79.41l-.16,2.09H233V62.39l1.33-.08v8.12a16.14,16.14,0,0,1,3.08-1.9c3.71-1.25,7,.76,7.86,4.62.94,4.27-1.28,8-5.21,8.63A5.78,5.78,0,0,1,234.3,79.41Zm-.2-4.33.3.1c0,.28,0,.56,0,.84a4.48,4.48,0,0,0,3.73,4.59,4.63,4.63,0,0,0,5.28-2.77,6.86,6.86,0,0,0-.13-5.92,4.57,4.57,0,0,0-8-.48A15.9,15.9,0,0,0,234.1,75.08Z" transform="translate(-0.15 -0.72)"/><path class="cls-9" d="M227.48,75c0,4.09-2.72,6.9-6.65,6.9-3.73,0-6.37-2.81-6.37-6.75s2.75-6.89,6.68-6.87S227.49,71,227.48,75Zm-1.46.16a5.51,5.51,0,0,0-3.33-5.46,4.85,4.85,0,0,0-6.34,3.09c-1.17,3.24.22,6.7,3.07,7.68C222.71,81.56,226,78.94,226,75.13Z" transform="translate(-0.15 -0.72)"/><path class="cls-10" d="M52.72,81.49c-1,.07-1,.07-1.39-1.58a5.73,5.73,0,0,1-5.18,1.88A3.68,3.68,0,0,1,44.66,75a21.86,21.86,0,0,1,4.5-1.43,10.53,10.53,0,0,1,2.06-.12c.18-1.39,0-2.67-1.2-3.43-1.86-1.2-3.74-.62-5.66.26l-.47-.93a7.42,7.42,0,0,1,5.47-1c2.09.4,3.31,2,3.35,4.36C52.75,75.58,52.72,78.49,52.72,81.49Zm-1.43-6.87c-2,0-3.83,0-5.47,1a2.77,2.77,0,0,0-.36,4.61c2,1.41,5.6-.23,5.82-2.72C51.36,76.57,51.29,75.65,51.29,74.62Z" transform="translate(-0.15 -0.72)"/><path class="cls-11" d="M143.36,73.25c.31-3.55-2.35-4.78-6.86-3-.59-.57-.53-1.09.27-1.27a15.64,15.64,0,0,1,4.08-.65c2.5.13,3.84,1.7,4,4.37.08,1.64,0,3.28,0,4.91,0,1.27,0,2.54,0,3.88h-1.1l-.16-1.27a20.26,20.26,0,0,1-3.82,1.55c-2.87.57-5.1-1.45-4.74-4.12a4,4,0,0,1,3-3.37C139.78,73.79,141.57,73.59,143.36,73.25Zm.06,1.46a9.49,9.49,0,0,0-5.36.84,2.75,2.75,0,0,0-.55,4.6,3.58,3.58,0,0,0,3.76.1,3.38,3.38,0,0,0,2.14-2.81C143.49,76.57,143.42,75.7,143.42,74.71Z" transform="translate(-0.15 -0.72)"/><path class="cls-12" d="M161.61,81.49l-1.39.08c0-1.93,0-3.79,0-5.65a19.7,19.7,0,0,0-.14-3c-.36-2.17-1.39-3.18-3.26-3.39a4.2,4.2,0,0,0-4.33,2.74,6.7,6.7,0,0,0-.36,2.09c0,2.35,0,4.7,0,7.11h-1.43V68.63l1.16-.08.25,2.21a5.47,5.47,0,0,1,5.52-2.43c2.32.38,3.78,2,3.95,4.73S161.61,78.63,161.61,81.49Z" transform="translate(-0.15 -0.72)"/><path class="cls-12" d="M36.14,81.57c0-2.37,0-4.56,0-6.75a11.63,11.63,0,0,0-.06-1.56c-.34-2.48-1.73-3.83-3.84-3.75a4.46,4.46,0,0,0-4.19,4.3C28,76,28,78.2,28,80.4c0,.35,0,.7-.06,1.1H26.65V68.62l1.12-.06L28,70.62a14.78,14.78,0,0,1,1.69-1.47,5.05,5.05,0,0,1,5.24-.37,5,5,0,0,1,2.62,4.66c.08,2.63,0,5.27,0,8Z" transform="translate(-0.15 -0.72)"/><path class="cls-13" d="M89,69.72H85.18a4.37,4.37,0,0,0-.15.81c0,2.51,0,5,.07,7.54.07,2.11.73,2.61,2.88,2.41.19,0,.38,0,.66,0l.09,1c-3.31,1-4.91-.09-5.11-3.44-.13-2.31-.08-4.63-.1-6.94,0-.43,0-.86,0-1.37h-2.2V68.59l2.19-.1V65.68L85,65.47v3h3.85Z" transform="translate(-0.15 -0.72)"/><path class="cls-4" d="M111.81,69.12l-.4,1c-3-1-5.88-1.28-8,1.64a6,6,0,0,0,.11,6.76c2.13,2.68,4.89,2.38,7.81,1.41l.39.92c-3,1.69-7.28,1.1-9.2-1.22a7.21,7.21,0,0,1,0-9A7.74,7.74,0,0,1,111.81,69.12Z" transform="translate(-0.15 -0.72)"/><path class="cls-4" d="M116,80.91l.36-.74a42.8,42.8,0,0,0,4.47.3,2,2,0,0,0,1.94-1.82,2.25,2.25,0,0,0-1.22-2.51c-.85-.44-1.74-.79-2.61-1.19-1.94-.91-2.71-2.09-2.45-3.78a3.5,3.5,0,0,1,3.41-2.84,23.85,23.85,0,0,1,4.06.41l-.6,1.22a22.72,22.72,0,0,0-3.13-.5,2.11,2.11,0,0,0-2.29,1.7,2,2,0,0,0,1.3,2.41c.86.42,1.77.74,2.63,1.15,1.88.91,2.6,2.18,2.34,4-.22,1.55-1.52,2.68-3.44,3A7.22,7.22,0,0,1,116,80.91Z" transform="translate(-0.15 -0.72)"/><path class="cls-4" d="M283,80.44c.36.88.1,1.17-.7,1.3-2.65.41-4.18-.75-4.24-3.47s0-5.58,0-8.51h-2.31V68.59H278V65.67l1.45-.19v3.06h3.88v1.18h-3.79c0,3.08-.06,6.06,0,9,0,1.3.88,1.85,2.2,1.79C282.16,80.54,282.55,80.48,283,80.44Z" transform="translate(-0.15 -0.72)"/><path class="cls-14" d="M60.5,81.51H59.18V62.39l1.32.36Z" transform="translate(-0.15 -0.72)"/><path class="cls-9" d="M259.92,62.47c.94,0,1.35.32,1.34,1.35-.05,5.54,0,11.09,0,16.64v1l-1.32.09Z" transform="translate(-0.15 -0.72)"/><path class="cls-2" d="M251,68.61h1.34V81.48H251Z" transform="translate(-0.15 -0.72)"/><path class="cls-2" d="M270,81.5h-1.28V68.62H270Z" transform="translate(-0.15 -0.72)"/><path class="cls-2" d="M94.11,68.62h1.31V81.5H94.11Z" transform="translate(-0.15 -0.72)"/><path class="cls-15" d="M334.92,18.53a2.88,2.88,0,1,1,0,5.75,2.88,2.88,0,0,1,0-5.75Zm-1.29,4.75c.88.47,1.74.77,2.51-.19.2-.09.45-.12.58-.27a2.35,2.35,0,0,0-.07-2.94,2.28,2.28,0,0,0-3.08-.29C332.26,20.87,332.28,22,333.63,23.28Z" transform="translate(-0.15 -0.72)"/><path class="cls-4" d="M253.07,65.41c-.45.31-.92.88-1.36.86s-1.09-.72-1.05-1A1.76,1.76,0,0,1,251.71,64c.38-.07.9.55,1.36.87Z" transform="translate(-0.15 -0.72)"/><path class="cls-4" d="M96.12,65.37c-.45.33-.89.9-1.34.9s-1.11-.69-1.08-1a1.74,1.74,0,0,1,1-1.26c.38-.09.92.52,1.39.82Z" transform="translate(-0.15 -0.72)"/><path class="cls-4" d="M270.72,65.41c-.45.31-.91.87-1.35.86s-1.08-.73-1-1A1.74,1.74,0,0,1,269.39,64c.36-.08.88.56,1.33.88Z" transform="translate(-0.15 -0.72)"/><path class="cls-16" d="M336.16,23.11c-.19-.25-.35-.52-.55-.74s-.59-.57-.8-.78l-1,1.41,0-3.2a5.25,5.25,0,0,1,1.53,0,1.26,1.26,0,0,1,.81.81A19.26,19.26,0,0,1,336.16,23.11Z" transform="translate(-0.15 -0.72)"/></g></g></g></g></svg>