<svg xmlns="http://www.w3.org/2000/svg" viewBox="0 0 146.25 37.63"><defs><style>.cls-1{fill:#fff;}</style></defs><title>microstrategy</title><g id="Layer_2" data-name="Layer 2"><g id="logos"><g id="_10K" data-name="10K"><g id="microstrategy"><path class="cls-1" d="M0,18.09c.17-.92.36-1.82.51-2.74q1-5.86,1.89-11.74c.05-.32.18-.42.51-.42q2.41,0,4.83,0a.47.47,0,0,1,.56.43C8.91,6,9.54,8.38,10.17,10.75c0,.13.08.26.15.49a2.68,2.68,0,0,0,.16-.38l2-7.37c0-.11.18-.28.28-.28,1.8,0,3.6,0,5.44,0L20.6,18h.09V7.74h5.18v3.35l.09,0a2.75,2.75,0,0,0,.2-.38,5.28,5.28,0,0,1,5.16-3.25,27.18,27.18,0,0,1,2.81.41.38.38,0,0,1,.38.44c0,1.3,0,2.6,0,4-.24-.17-.43-.31-.63-.43a2.11,2.11,0,0,0-1.82-.35A1.52,1.52,0,0,0,31,13.25a1.42,1.42,0,0,0,1.48,1.31A11.5,11.5,0,0,0,34.38,14c0,.65,0,1.45,0,2.25a13.3,13.3,0,0,1-.09,1.55.55.55,0,0,1-.26.42c-2.42.75-4.74.66-6.73-1.09a11.48,11.48,0,0,1-1.4-1.88v3.12H15.32l-.74-8.21h-.11c-.07.26-.11.53-.19.79-.76,2.39-1.51,4.78-2.29,7.16a.61.61,0,0,1-.44.3c-.83,0-1.66,0-2.5,0a.44.44,0,0,1-.51-.38q-1.09-3.93-2.21-7.88s0,0-.11-.09a.69.69,0,0,0-.08.21c-.25,2.57-.5,5.14-.73,7.71,0,.29-.1.43-.42.43-1.66,0-3.33,0-5,0Z"/><path class="cls-1" d="M125.18,37.63c.44-.88.87-1.76,1.34-2.63a.92.92,0,0,0,0-.91c-.73-1.57-1.44-3.14-2.16-4.72.4-.18.58,0,.73.32.61,1.39,1.25,2.77,1.93,4.24l.31-.52c.64-1.25,1.28-2.49,1.91-3.74.16-.31.33-.48.73-.3l-1.53,3L126,37.11a4.65,4.65,0,0,0-.2.52Z"/><path class="cls-1" d="M29.11,37.63c.4-.9.81-1.79,1.18-2.7a1.08,1.08,0,0,0,0-.75c-.72-1.61-1.47-3.21-2.21-4.81.41-.18.58,0,.73.33.62,1.37,1.26,2.72,1.94,4.18.11-.2.19-.32.25-.45.58-1.26,1.18-2.5,1.74-3.77a.48.48,0,0,1,.72-.3l-3.83,8.27Z"/><path class="cls-1" d="M96.36,11.85l-1,6.53H90.24l.32-1.26L90.49,17l-.47.39a4.87,4.87,0,0,1-2.18,1.16,3.66,3.66,0,0,1-4.54-3.38,11.81,11.81,0,0,1,0-2.06.58.58,0,0,0-.32-.62,2.26,2.26,0,0,0-3.34,1.58c-.26,1.27-.42,2.56-.63,3.84,0,.17-.06.34-.1.52H73.72c.35-2.18.68-4.33,1-6.57L73,11.8l-1.07,6.63H66.71l1-6.56H67a16.77,16.77,0,0,1-.48,2.59,6.38,6.38,0,0,1-4.69,4,11,11,0,0,1-7.45-.73,1.21,1.21,0,0,0-1.18,0,7.82,7.82,0,0,1-7.34,0,5,5,0,0,1-2.84-5.07c0-.12,0-.24,0-.36l0,0a1.84,1.84,0,0,0-2.64,1.72c0,1.25,0,2.5,0,3.75v.59h-5.2V7.74h5.11V9A8.47,8.47,0,0,1,42,7.76a9.46,9.46,0,0,1,2.09-.4V9.78c.44-.4.79-.76,1.18-1a8,8,0,0,1,8.59-.06,5.25,5.25,0,0,1,2.23,3.94,1.28,1.28,0,0,0,.35.74,4.5,4.5,0,0,0,2.9,1.37,3.31,3.31,0,0,0,1.47-.35.9.9,0,0,0,.35-.77c0-.18-.33-.43-.56-.5-.68-.18-1.39-.27-2.08-.44-2.1-.53-3.12-1.88-2.82-3.87a6.73,6.73,0,0,1,.72-2.09,6.62,6.62,0,0,1,3.8-3.06,8.48,8.48,0,0,1,7,.45c.18.09.35.21.56.34l-2,3.74a25.83,25.83,0,0,0-2.61-.94,2.44,2.44,0,0,0-1.35.18.92.92,0,0,0-.44.72c0,.15.32.4.55.49a7,7,0,0,0,1.2.31A5,5,0,0,1,66.6,11l.51-3.14a4.93,4.93,0,0,1,.86,0c.33,0,.42-.07.47-.38.15-1,.33-2.11.51-3.18h5.23l-.54,3.54h7l-.27,1.29a4.36,4.36,0,0,1,4-1.52l-.57,3.69.07,0,.24-.44a6.14,6.14,0,0,1,3-3.06c1.79-.76,3.22-.42,4.79,1.17l.07-1.24h6.18l.57-3.48h5.23l-.53,3.53h1.72L104.77,10l.16.12a3,3,0,0,1,.27-.42,7.52,7.52,0,0,1,8.09-1.79,4.61,4.61,0,0,1,3,3.78c.13-.27.21-.43.28-.6A6.8,6.8,0,0,1,119,8.05a4.46,4.46,0,0,1,3-.76,2.78,2.78,0,0,1,2.16,1.27c.11.15.21.31.39.59l.16-1.62h10.4c.21,1.91.42,3.83.63,5.8a3.57,3.57,0,0,0,.17-.34c.72-1.72,1.42-3.45,2.15-5.17a.53.53,0,0,1,.38-.31c1.71,0,3.42,0,5.22,0L142.1,10l-7.48,12.23a.67.67,0,0,1-.68.41c-1.65,0-3.29,0-5,0,.13-.21.22-.37.32-.52,1-1.55,2.05-3.09,3.05-4.64a.86.86,0,0,0,.12-.66c-.84-2.72-1.71-5.44-2.57-8.16a.5.5,0,0,0-.24-.3l-.45,2.78c-.35,2.24-.65,4.49-1.07,6.71-.55,2.92-2.48,4.56-5.24,5.28a11.76,11.76,0,0,1-7.58-.61l-.18-.12,1.69-3.54a5.51,5.51,0,0,0,2.84,1.24A2.89,2.89,0,0,0,123,18a9.22,9.22,0,0,0,.27-1.23,4.19,4.19,0,0,1-4.77,1.51c-2-.69-2.41-2.45-2.58-4.3h-7.38c0,.21-.07.4-.07.58,0,.48,0,1,.57,1.17a1.12,1.12,0,0,0,1.38-.42.88.88,0,0,1,.87-.4c1.3,0,2.6,0,3.89,0l.67,0a11.44,11.44,0,0,1-1.33,1.7,8,8,0,0,1-8.4,1.48c-2.34-.87-3.21-3.07-2.44-5.71,0-.17.1-.33.17-.56l-1.12-.1c-.23,1.39-.44,2.74-.66,4.09-.11.73-.21,1.47-.35,2.2,0,.15-.23.37-.36.37-1.57,0-3.15,0-4.72,0,0,0-.1,0-.2-.08l1-6.57Zm-45.1,1.29a1.49,1.49,0,0,0-1.47-1.55,1.51,1.51,0,0,0-1.46,1.57,1.47,1.47,0,1,0,2.93,0Zm71.17,1.24a1.69,1.69,0,0,0,1.6-1.76,1.18,1.18,0,0,0-1.18-1.29,1.78,1.78,0,0,0-1.66,1.79A1.13,1.13,0,0,0,122.43,14.38Zm-34-1a1.09,1.09,0,0,0,1.32,1.19,1.81,1.81,0,0,0,1.38-2.38,1.32,1.32,0,0,0-.67-.58A1.65,1.65,0,0,0,88.44,13.4Zm20.42-1.68h2.53a1.16,1.16,0,0,0-.92-1.49A1.48,1.48,0,0,0,108.86,11.72Z"/><path class="cls-1" d="M83.58,27.56l-.09,1.68c-.11,1.74-.23,3.49-.33,5.23,0,.44-.26.4-.61.33l.61-8.13c.46-.17.7-.08.87.4.83,2.27,1.69,4.53,2.56,6.84a3.47,3.47,0,0,0,.15-.36c.85-2.19,1.7-4.38,2.52-6.59.18-.48.49-.36.86-.35l.56,8.14c-.55.13-.57.12-.6-.43-.14-2.27-.28-4.53-.42-6.88a2.1,2.1,0,0,0-.17.33c-.86,2.22-1.71,4.45-2.58,6.68-.06.15-.22.26-.33.39-.13-.13-.32-.24-.38-.4Q85,31.16,83.79,27.87c0-.11-.09-.21-.14-.32Z"/><path class="cls-1" d="M20,3.74l1.58-.34-1-1.13,1.2.15-.4-1.35,1.34,1L23.14,0h.1l.47,1.77,1.08-.68-.25,1.54,1.54-.37-.84,1.07,1.45.36v.08l-1.82.37.95,1.28L24.47,5l.06,1.24-.8-1-.16.06L23.2,7h-.08l-.33-1.82L21.74,6.47l-.15-.13L22,5H21l.64-.79L20,3.81Zm3.28.72a.89.89,0,0,0,0-1.77.93.93,0,0,0-.88.92A.94.94,0,0,0,23.27,4.46Z"/><path class="cls-1" d="M101.34,34.81l-.23,0-.21,0V26.63l.54,0V30a9.13,9.13,0,0,1,1.66-.82,2.44,2.44,0,0,1,3.05,2c.42,1.94-.55,3.55-2.31,3.78a2.48,2.48,0,0,1-2.42-1.08Zm4.3-2.77c0-.12,0-.24,0-.36a2.09,2.09,0,1,0-4.18.18v.72a2,2,0,0,0,1.85,1.94C104.7,34.62,105.64,33.62,105.64,32Z"/><path class="cls-1" d="M2.69,34.79,4.74,29.2c.28-.76.55-1.53.85-2.28A.58.58,0,0,1,6,26.61a.54.54,0,0,1,.4.27c1,2.58,1.9,5.16,2.84,7.74a.88.88,0,0,1,0,.16c-.37.16-.57,0-.69-.33C8.3,33.73,8,33,7.77,32.3a.48.48,0,0,0-.53-.37q-1.28,0-2.55,0a.48.48,0,0,0-.52.38c-.24.71-.5,1.41-.75,2.11C3.26,34.86,3.26,34.86,2.69,34.79Zm1.89-3.37H7.42c-.26-.73-.51-1.39-.75-2.05s-.45-1.31-.69-2C5.5,28.69,5,30,4.58,31.25,4.56,31.29,4.58,31.35,4.58,31.42Z"/><path class="cls-1" d="M76.5,29.92c0-1,0-1.93,0-2.89,0-.44,0-.44.54-.38v8.16l-.44,0-.09-1a2.53,2.53,0,0,1-2.7,1,2.26,2.26,0,0,1-.63-.23A3.06,3.06,0,0,1,72,30.86a2.57,2.57,0,0,1,3.19-1.62A6.68,6.68,0,0,1,76.5,29.92Zm.11,2.15-.12,0c0-.19,0-.38,0-.57a1.9,1.9,0,0,0-1.59-1.85,2,2,0,0,0-2.26,1.26,3,3,0,0,0,0,2.51,1.86,1.86,0,0,0,1.67,1.14,1.77,1.77,0,0,0,1.8-.9A8,8,0,0,0,76.61,32.07Z"/><path class="cls-1" d="M98.46,32.06A2.78,2.78,0,0,1,95.58,35a2.72,2.72,0,0,1-2.72-2.91,2.79,2.79,0,0,1,2.87-3A2.67,2.67,0,0,1,98.46,32.06Zm-.59,0a2.39,2.39,0,0,0-1.46-2.35,2.12,2.12,0,0,0-2.76,1.33,2.55,2.55,0,0,0,1.29,3.35A2.25,2.25,0,0,0,97.87,32.07Z"/><path class="cls-1" d="M62.68,34.8c-.63.2-.44-.32-.55-.65-.12.09-.22.16-.31.24a2.35,2.35,0,0,1-2.28.5,1.41,1.41,0,0,1-1.07-1.16,1.59,1.59,0,0,1,.7-1.67,4.51,4.51,0,0,1,2.32-.65c.17,0,.34,0,.55,0a1.41,1.41,0,0,0-.44-1.47,2.41,2.41,0,0,0-2.52,0c-.22-.21-.2-.38.09-.5a3.33,3.33,0,0,1,2.28-.2,1.52,1.52,0,0,1,1.12,1.3,17.51,17.51,0,0,1,.11,1.92C62.69,33.24,62.68,34,62.68,34.8Zm-.6-2.88a4.16,4.16,0,0,0-2.34.33,1.22,1.22,0,0,0-.24,2,1.54,1.54,0,0,0,1.63.05,1.45,1.45,0,0,0,.94-1.2C62.11,32.75,62.08,32.35,62.08,31.92Z"/><path class="cls-1" d="M22.76,34.81c-.6.19-.44-.34-.5-.56a9.07,9.07,0,0,1-1.58.68,1.64,1.64,0,0,1-2.08-1.06,1.66,1.66,0,0,1,1.11-2.07,10.78,10.78,0,0,1,1.81-.39,3.2,3.2,0,0,1,.62,0,1.55,1.55,0,0,0-.51-1.55c-.52-.41-1.37-.37-2.44.08-.2-.18-.26-.35,0-.49a3,3,0,0,1,2.42-.16,1.8,1.8,0,0,1,1.09,1.89C22.77,32.36,22.76,33.55,22.76,34.81Zm-.58-3a4.09,4.09,0,0,0-2.46.45,1.2,1.2,0,0,0,0,2,1.75,1.75,0,0,0,2.49-1.28C22.2,32.7,22.18,32.31,22.18,31.86Z"/><path class="cls-1" d="M16.12,34.82h-.51c0-1,0-1.91,0-2.85a6.38,6.38,0,0,0-.09-1,1.47,1.47,0,0,0-1.08-1.27,1.73,1.73,0,0,0-1.8.5,1.9,1.9,0,0,0-.58,1.45v3.14h-.57V29.36c.34-.05.34-.05.57.74a7.08,7.08,0,0,1,1.22-.79A2,2,0,0,1,16.1,31C16.21,32.23,16.12,33.51,16.12,34.82Z"/><path class="cls-1" d="M69.92,34.82h-.56c0-1,0-2,0-2.92a5.62,5.62,0,0,0-.09-.92,1.46,1.46,0,0,0-1.08-1.26,1.76,1.76,0,0,0-1.77.47,2,2,0,0,0-.61,1.49c0,1,0,2.07,0,3.13h-.57V29.33c.82-.15.3.64.64.84a2.32,2.32,0,0,1,2.28-1,2,2,0,0,1,1.75,2.06C70,32.4,69.92,33.58,69.92,34.82Z"/><path class="cls-1" d="M50.24,34.59l.17-.35a11.31,11.31,0,0,0,1.44.27,1.2,1.2,0,0,0,1.3-.81c.12-.58-.14-1-.81-1.34-.39-.19-.8-.33-1.18-.54a1.28,1.28,0,0,1-.72-1.42,1.4,1.4,0,0,1,1.07-1.14,2.5,2.5,0,0,1,2,.22l-.18.37a9.9,9.9,0,0,0-1.19-.23,1,1,0,0,0-1.16.74c-.13.49.09.86.72,1.16.33.16.67.27,1,.43a1.51,1.51,0,0,1,1,1.74,1.61,1.61,0,0,1-1.53,1.24A3,3,0,0,1,50.24,34.59Z"/><path class="cls-1" d="M48.17,34.24l.14.35a3.32,3.32,0,0,1-4-.6,3.14,3.14,0,0,1,.09-3.84,3.33,3.33,0,0,1,3.92-.64l-.13.33c-2.61-.53-4.29.08-3.72,3.12C44.75,34.38,46.11,34.76,48.17,34.24Z"/><path class="cls-1" d="M122.67,29.74H121v2.42c0,.43,0,.87,0,1.3,0,.81.42,1.1,1.22,1l.28,0c.17.32.08.46-.28.51-1.17.16-1.79-.34-1.81-1.53s0-2.39,0-3.64l-.94-.06c-.06-.27-.06-.27.94-.51V28L121,28v1.25l1.69.22A1.13,1.13,0,0,1,122.67,29.74Z"/><path class="cls-1" d="M36.81,29.72c0,1.41,0,2.75,0,4.09,0,.47.41.7.89.68.19,0,.37,0,.56-.06l.11.13c-.11.12-.2.32-.33.35-1.16.26-1.83-.25-1.87-1.43,0-1,0-2,0-3.06v-.66l-.94-.05c-.13-.26-.09-.46.24-.41.67.11.76-.25.7-.78,0-.34,0-.64.54-.51,0,.17,0,.35,0,.54,0,.74,0,.74.78.74a3.75,3.75,0,0,1,.67,0c.12,0,.23.17.34.25l-.08.17Z"/><path class="cls-1" d="M112.54,34.79V26.65c.43,0,.56.17.55.59,0,2.37,0,4.74,0,7.11C113.09,34.76,113,35,112.54,34.79Z"/><path class="cls-1" d="M25.6,34.79V26.65c.35,0,.53.09.53.49,0,2.42,0,4.84,0,7.26C26.13,34.75,26,34.94,25.6,34.79Z"/><path class="cls-1" d="M40.73,29.32h.51v5.49l-.51,0Z"/><path class="cls-1" d="M108.69,29.32h.55v5.49c-.28,0-.56.15-.56-.29C108.69,32.81,108.69,31.1,108.69,29.32Z"/><path class="cls-1" d="M116.39,29.32h.51v5.5l-.51,0Z"/><path class="cls-1" d="M145.05,10a1.21,1.21,0,0,1-1.24-1.2,1.22,1.22,0,1,1,2.44,0A1.2,1.2,0,0,1,145.05,10Zm1-1.2a1,1,0,0,0-1-1,1,1,0,1,0,1,1Z"/><path class="cls-1" d="M108.29,27.8c.33-.26.53-.53.69-.51a.67.67,0,0,1,.45.47c0,.17-.26.44-.44.48S108.63,28,108.29,27.8Z"/><path class="cls-1" d="M40.45,27.69c.17-.14.36-.41.52-.4a.67.67,0,0,1,.46.46.65.65,0,0,1-.42.49c-.16,0-.37-.2-.56-.32Z"/><path class="cls-1" d="M117.17,27.91c-.18.12-.39.36-.54.33s-.44-.32-.42-.48a.67.67,0,0,1,.45-.47c.15,0,.34.25.52.39Z"/><path class="cls-1" d="M144.64,8.13a2,2,0,0,1,.55,0c.14,0,.33.19.34.31a8.41,8.41,0,0,1,0,1.09c-.19-.28-.14-.8-.69-.58l-.09.46h-.07Z"/></g></g></g></g></svg>