<svg xmlns="http://www.w3.org/2000/svg" viewBox="0 0 105.75 22.58"><defs><style>.cls-1{fill:#fff;}</style></defs><title>microsoft</title><g id="Layer_2" data-name="Layer 2"><g id="logos"><g id="_2K" data-name="2K"><g id="microsoft"><path class="cls-1" d="M0,0H10.74V10.74H0V0Z"/><path class="cls-1" d="M11.84,0H22.58V10.74H11.84V0Z"/><path class="cls-1" d="M47.13,4.23a1.44,1.44,0,0,1,1.29.45,1.33,1.33,0,0,1,.16,1.51A1.45,1.45,0,0,1,47,6.84,1.33,1.33,0,0,1,46,5.55a1.35,1.35,0,0,1,1.18-1.32Z"/><path class="cls-1" d="M29.32,4.52H32.7q1.57,4,3.17,8c.27.66.52,1.34.8,2,1.35-3.34,2.73-6.66,4.07-10H44V18.07H41.64c0-3.33,0-6.66,0-10,0-.15,0-.3,0-.45l-.12.22c-1.34,3.41-2.71,6.81-4,10.23-.55,0-1.11,0-1.66,0C34.41,14.66,33,11.24,31.66,7.82a1.28,1.28,0,0,0-.11-.2c0,1.46,0,2.92,0,4.38,0,2,0,4,0,6.07H29.32V4.52Z"/><path class="cls-1" d="M53.52,8.35a6.45,6.45,0,0,1,3.46,0,3.19,3.19,0,0,1,.66.28c0,.74,0,1.48,0,2.22A3.7,3.7,0,0,0,55,10a2.72,2.72,0,0,0-1.93,1.07,3.76,3.76,0,0,0-.62,2.69,2.75,2.75,0,0,0,3.12,2.58,4.45,4.45,0,0,0,2.08-.86c0,.7,0,1.41,0,2.11a5.65,5.65,0,0,1-3.18.65,4.7,4.7,0,0,1-3-1.26A4.86,4.86,0,0,1,50,13.77a5.85,5.85,0,0,1,.92-3.6,4.57,4.57,0,0,1,2.57-1.82Z"/><path class="cls-1" d="M78.9,8.2a6.2,6.2,0,0,1,3.22.33v2.14A4.09,4.09,0,0,0,79.68,10a1.25,1.25,0,0,0-1.11.61,1,1,0,0,0,.34,1.19c.65.44,1.44.63,2.12,1A3,3,0,0,1,82.36,14a2.82,2.82,0,0,1-.6,3.27,4.46,4.46,0,0,1-3.23,1,6.82,6.82,0,0,1-2.36-.54c0-.75,0-1.5,0-2.25a5,5,0,0,0,2.11.91,2.65,2.65,0,0,0,1.6-.15.93.93,0,0,0,.28-1.32,2.89,2.89,0,0,0-1-.66,10,10,0,0,1-2-1,2.44,2.44,0,0,1-.87-1.31,3,3,0,0,1,.32-2.32A3.45,3.45,0,0,1,78.9,8.2Z"/><path class="cls-1" d="M62.83,8.5A2.67,2.67,0,0,1,65,8.32v2.33a2.42,2.42,0,0,0-1.57-.37A1.94,1.94,0,0,0,62,11.44a4.31,4.31,0,0,0-.33,2v4.65H59.34c0-3.24,0-6.48,0-9.71h2.29V10a3,3,0,0,1,1.2-1.52Z"/><path class="cls-1" d="M46.16,8.36h2.31v9.71H46.16c0-3.24,0-6.48,0-9.71Z"/><path class="cls-1" d="M74.62,10.62a4.13,4.13,0,0,0-2-2,6.17,6.17,0,0,0-3.32-.39,4.64,4.64,0,0,0-3.06,1.63,5.15,5.15,0,0,0-1.07,3A5.49,5.49,0,0,0,66,16.4a4.33,4.33,0,0,0,2.68,1.75,6.74,6.74,0,0,0,2.72,0,4.49,4.49,0,0,0,2.67-1.65,5.13,5.13,0,0,0,1-2.83A6.42,6.42,0,0,0,74.62,10.62Zm-2.24,4.46a2.1,2.1,0,0,1-1.15,1.12,3.13,3.13,0,0,1-1.89.08,2.33,2.33,0,0,1-1.46-1.2,4.48,4.48,0,0,1-.35-2.43,3.07,3.07,0,0,1,.9-2A2.39,2.39,0,0,1,70,10a2.55,2.55,0,0,1,1.94.66,3.08,3.08,0,0,1,.8,2A5.16,5.16,0,0,1,72.38,15.08Z"/><path class="cls-1" d="M93.23,10.9a4.22,4.22,0,0,0-2-2.26,6,6,0,0,0-3.45-.46,4.76,4.76,0,0,0-2.56,1.1,4.71,4.71,0,0,0-1.54,3,6.44,6.44,0,0,0,.37,3.37,4.27,4.27,0,0,0,2.36,2.29,6.17,6.17,0,0,0,3.27.28,4.54,4.54,0,0,0,2.86-1.67,5.36,5.36,0,0,0,1-3.31A6.13,6.13,0,0,0,93.23,10.9Zm-2.1,3.29a3,3,0,0,1-.6,1.43,2.14,2.14,0,0,1-1.36.73,3.14,3.14,0,0,1-1.66-.18,2.35,2.35,0,0,1-1.22-1.28A4.65,4.65,0,0,1,86,12.77a3.34,3.34,0,0,1,.7-1.93,2.42,2.42,0,0,1,1.7-.82,2.57,2.57,0,0,1,1.86.55,2.68,2.68,0,0,1,.84,1.55A5.76,5.76,0,0,1,91.13,14.19Z"/><path class="cls-1" d="M105.75,10.24V8.35h-2.3c0-1,0-1.94,0-2.91-.77.23-1.53.48-2.3.7,0,.73,0,1.47,0,2.2h-3.4a14.45,14.45,0,0,1,0-1.74,1.37,1.37,0,0,1,.77-1.08,2.2,2.2,0,0,1,1.72.16c0-.67,0-1.33,0-2a4.23,4.23,0,0,0-3.39.39,3.24,3.24,0,0,0-1.31,1.79,10.25,10.25,0,0,0-.16,2.48H93.79q0,.93,0,1.86h1.62v7.84h2.32V10.23h3.41c0,1.66,0,3.33,0,5a3.48,3.48,0,0,0,.65,2.22,2.6,2.6,0,0,0,1.84.84,4.55,4.55,0,0,0,2.12-.33v-1.9a1.74,1.74,0,0,1-1.77.16,1.15,1.15,0,0,1-.5-.92c-.07-.6,0-1.2,0-1.81,0-1.08,0-2.17,0-3.25C104.21,10.23,105,10.21,105.75,10.24Z"/><path class="cls-1" d="M0,11.84H10.74V22.58H0V11.84Z"/><path class="cls-1" d="M11.84,11.84H22.58V22.58H11.84V11.84Z"/></g></g></g></g></svg>