<svg xmlns="http://www.w3.org/2000/svg" viewBox="0 0 72.07 30.86"><defs><style>.cls-1{fill:#fff;}</style></defs><title>mlh</title><g id="Layer_2" data-name="Layer 2"><g id="logos"><g id="SUPPORT"><g id="mlh"><path class="cls-1" d="M0,24.13a.6.6,0,0,0,.68.68H5.58a.6.6,0,0,0,.67-.68V6H0Zm10.21,0a.65.65,0,0,0,.19.48.66.66,0,0,0,.48.2h4.47a.6.6,0,0,0,.46-.2.67.67,0,0,0,.17-.48V6H10.22ZM20,6v18.1a.68.68,0,0,0,.18.48.6.6,0,0,0,.46.2h4.93a.66.66,0,0,0,.48-.2.69.69,0,0,0,.19-.48V6H20"/><path class="cls-1" d="M36.94.67V24.8H31.38a.6.6,0,0,1-.68-.67V.67A.6.6,0,0,1,31.38,0h4.89a.59.59,0,0,1,.67.67"/><path class="cls-1" d="M57.47.67V24.8H51.91a.59.59,0,0,1-.67-.67V.67A.59.59,0,0,1,51.91,0H56.8a.59.59,0,0,1,.67.67"/><path class="cls-1" d="M72.07.67V24.8H66.51a.6.6,0,0,1-.68-.67V.67A.6.6,0,0,1,66.51,0H71.4a.59.59,0,0,1,.67.67"/><path class="cls-1" d="M26.2,4.14V6H0V.67A.6.6,0,0,1,.69,0H22.05a3.89,3.89,0,0,1,1.62.34A4.31,4.31,0,0,1,25,1.22a4.31,4.31,0,0,1,.88,1.31,3.85,3.85,0,0,1,.34,1.61"/><path class="cls-1" d="M47.32,19.46v4.67a.72.72,0,0,1-.17.48.61.61,0,0,1-.47.19H36.94v-6h9.74a.65.65,0,0,1,.47.19.77.77,0,0,1,.17.49"/><rect class="cls-1" x="57.47" y="9.28" width="8.36" height="6.02"/><path class="cls-1" d="M4,27.58s0,.06,0,.09a.44.44,0,0,1,0,.1v3a.1.1,0,0,1-.1.1H3.18a.11.11,0,0,1-.08,0,.14.14,0,0,1,0-.07V28H2.47v2.8a.09.09,0,0,1,0,.07.11.11,0,0,1-.07,0H1.68a.11.11,0,0,1-.08,0,.09.09,0,0,1,0-.07V28H1v2.8c0,.07,0,.1-.1.1H.1c-.07,0-.1,0-.1-.1V27.14a.09.09,0,0,1,0-.07A.08.08,0,0,1,.1,27H3.3l.1,0,.09,0Zm4.05,0,0,.09s0,.07,0,.1v3a.09.09,0,0,1,0,.07.08.08,0,0,1-.07,0H7.23a.11.11,0,0,1-.08,0,.14.14,0,0,1,0-.07v-1a.11.11,0,0,0,0-.07.11.11,0,0,0-.08,0H5.94a.09.09,0,0,0-.07,0,.11.11,0,0,0,0,.07v1a.09.09,0,0,1,0,.07.08.08,0,0,1-.07,0H5a.12.12,0,0,1-.08,0,.08.08,0,0,1,0-.07v-3a.28.28,0,0,1,0-.09.46.46,0,0,1,0-.09l.5-.51.09,0H7.45l.09,0Zm-.92.31H5.84v1H7.13ZM11.44,27a.08.08,0,0,1,.07,0,.09.09,0,0,1,0,.07v3a.45.45,0,0,1,0,.11l0,.09-.51.5-.09,0H9.26l-.1,0-.5-.5a.32.32,0,0,1,0-.09.45.45,0,0,1,0-.11V29.05a.1.1,0,0,1,.1-.1h.75a.11.11,0,0,1,.08,0,.09.09,0,0,1,0,.07v.78a.11.11,0,0,0,0,.08.09.09,0,0,0,.07,0h.79a.1.1,0,0,0,.11-.11V27.14a.14.14,0,0,1,0-.07.09.09,0,0,1,.08,0Zm4.11.55,0,.09a.38.38,0,0,1,0,.1v2.35a.45.45,0,0,1,0,.11l0,.09-.5.5-.1,0H13l-.09,0-.51-.5,0-.09a.45.45,0,0,1,0-.11V27.77a.38.38,0,0,1,0-.1l0-.09.51-.5.09,0,.1,0h1.73l.1,0,.1,0Zm-.92.38H13.34v2h1.29Zm5.08,2.81a.06.06,0,0,1,0,.07l-.07,0h-.86l-.09,0a.23.23,0,0,1-.07-.07l-.61-1,0,0h-.61a0,0,0,0,0,0,0v1c0,.07,0,.1-.11.1h-.75c-.07,0-.11,0-.11-.1V27.14a.09.09,0,0,1,0-.07.1.1,0,0,1,.08,0h2.37l.1,0,.1,0,.5.5,0,.09s0,.07,0,.1V29a.25.25,0,0,1,0,.07.36.36,0,0,1,0,.09l-.5.51Zm-1.09-2.85H17.3v.93h1.32Zm6.22,2a.09.09,0,0,1,.07,0,.11.11,0,0,1,0,.08v.72a.1.1,0,0,1-.1.1H22.48c-.07,0-.11,0-.11-.1V27.14a.1.1,0,0,1,.11-.11h.75a.1.1,0,0,1,.11.11v2.69a.1.1,0,0,0,.1.1Zm1.59-2a0,0,0,0,0,0,0v.6s0,0,0,0H28a.1.1,0,0,1,.1.1v.55c0,.07,0,.1-.1.1H26.43a0,0,0,0,0,0,0v.59a0,0,0,0,0,0,0h1.83a.11.11,0,0,1,.08,0,.09.09,0,0,1,0,.07v.69a.09.09,0,0,1,0,.07.11.11,0,0,1-.08,0H26.08l-.09,0-.5-.5a.36.36,0,0,1,0-.09s0-.08,0-.11V27.77s0-.06,0-.1a.36.36,0,0,1,0-.09l.5-.5.09,0,.1,0h2.08a.12.12,0,0,1,.11.11v.69a.09.09,0,0,1,0,.07.11.11,0,0,1-.08,0Zm6-.34,0,.09a.38.38,0,0,1,0,.1v3a.09.09,0,0,1,0,.07.08.08,0,0,1-.07,0h-.76a.08.08,0,0,1-.07,0,.09.09,0,0,1,0-.07v-1a.11.11,0,0,0,0-.07.09.09,0,0,0-.07,0H30.28a.09.09,0,0,0-.07,0,.11.11,0,0,0,0,.07v1a.09.09,0,0,1,0,.07.08.08,0,0,1-.07,0h-.76a.08.08,0,0,1-.07,0,.09.09,0,0,1,0-.07v-3s0-.06,0-.09a.46.46,0,0,1,0-.09l.5-.51.1,0h1.93l.09,0Zm-.92.31H30.18v1h1.29Zm4.9.88a.09.09,0,0,1,.08,0,.08.08,0,0,1,0,.07v1.24a.52.52,0,0,1,0,.11l0,.09-.5.5-.1,0H33.9l-.09,0-.5-.5a.36.36,0,0,1,0-.09s0-.08,0-.11V27.77s0-.06,0-.1a.36.36,0,0,1,0-.09l.5-.5.09,0,.1,0h2.16a.08.08,0,0,1,.07,0,.09.09,0,0,1,0,.07v.72a.1.1,0,0,1-.1.1H34.33a.1.1,0,0,0-.07,0,.07.07,0,0,0,0,.06v1.77a.11.11,0,0,0,0,.08.09.09,0,0,0,.07,0h1.08a.09.09,0,0,0,.07,0,.11.11,0,0,0,0-.08v-.95a.08.08,0,0,1,0-.07.08.08,0,0,1,.07,0Zm4-1.74a.08.08,0,0,1,.07,0,.09.09,0,0,1,0,.07v3h0s0,.06,0,.1l0,.08-.51.5-.09,0H37.92l-.1,0-.5-.5,0-.09a.45.45,0,0,1,0-.11v-3a.09.09,0,0,1,0-.07.08.08,0,0,1,.07,0h.76a.08.08,0,0,1,.07,0,.09.09,0,0,1,0,.07v2.69a.1.1,0,0,0,.11.11h1.08a.09.09,0,0,0,.07,0,.19.19,0,0,0,0-.08V27.14a.12.12,0,0,1,.11-.11Zm1.93.89a0,0,0,0,0,0,0v.6s0,0,0,0h1.56a.1.1,0,0,1,.1.1v.55c0,.07,0,.1-.1.1H42.32a0,0,0,0,0,0,0v.59a0,0,0,0,0,0,0h1.83a.1.1,0,0,1,.1.1v.69a.1.1,0,0,1-.1.1H42l-.09,0-.51-.5,0-.09a.45.45,0,0,1,0-.11V27.77a.38.38,0,0,1,0-.1l0-.09.51-.5.09,0,.1,0h2.08a.08.08,0,0,1,.07,0,.09.09,0,0,1,0,.07v.69a.09.09,0,0,1,0,.07.08.08,0,0,1-.07,0ZM50.07,27a.08.08,0,0,1,.07,0,.1.1,0,0,1,0,.07v3.62a.1.1,0,0,1,0,.07.09.09,0,0,1-.07,0h-.76a.1.1,0,0,1-.1-.1V29.5a.11.11,0,0,0,0-.08.09.09,0,0,0-.07,0H48a.1.1,0,0,0-.11.11v1.26c0,.07,0,.1-.1.1h-.76c-.07,0-.1,0-.1-.1V27.14c0-.07,0-.11.1-.11h.76c.07,0,.1,0,.1.11v1.22a.1.1,0,0,0,.11.11h1.08a.09.09,0,0,0,.07,0,.11.11,0,0,0,0-.08V27.14a.09.09,0,0,1,0-.07.08.08,0,0,1,.07,0Zm4.12.55a.94.94,0,0,1,0,.09.38.38,0,0,1,0,.1v3a.09.09,0,0,1,0,.07.08.08,0,0,1-.07,0h-.76a.11.11,0,0,1-.08,0,.14.14,0,0,1,0-.07v-1a.11.11,0,0,0,0-.07.11.11,0,0,0-.08,0H52.09a.11.11,0,0,0-.08,0,.11.11,0,0,0,0,.07v1a.09.09,0,0,1,0,.07s0,0-.07,0h-.76a.12.12,0,0,1-.08,0,.14.14,0,0,1,0-.07v-3s0-.06,0-.09a.46.46,0,0,1,0-.09l.51-.51.09,0h1.93l.09,0Zm-.92.31H52v1h1.29Zm2.85.07a.1.1,0,0,0-.07,0,.07.07,0,0,0,0,.06v1.77a.11.11,0,0,0,0,.08.09.09,0,0,0,.07,0h1.76L58,30A.11.11,0,0,1,58,30v.72a.1.1,0,0,1-.1.1H55.7l-.09,0-.51-.5,0-.09a.45.45,0,0,1,0-.11V27.77a.38.38,0,0,1,0-.1l0-.09.51-.5.07,0,.07,0h2.13a.08.08,0,0,1,.07,0,.09.09,0,0,1,0,.07v.72a.1.1,0,0,1-.1.1Zm4.89.69s0,0,0,0l1.28,2.08s0,.05,0,.07l-.07,0h-.9l-.09,0a.23.23,0,0,1-.07-.07l-.82-1.49s0,0,0,0l-.45.5a.22.22,0,0,0,0,.08.44.44,0,0,0,0,.1v.81c0,.07,0,.1-.1.1h-.76c-.07,0-.1,0-.1-.1V27.14c0-.07,0-.11.1-.11h.76c.07,0,.1,0,.1.11v1.62l1.41-1.65.08-.05a.16.16,0,0,1,.09,0h.91a0,0,0,0,1,.05,0,.06.06,0,0,1,0,.05ZM64,30.76c0,.07,0,.1-.11.1h-.75c-.07,0-.1,0-.1-.1V27.14c0-.07,0-.11.1-.11h.75a.1.1,0,0,1,.11.11Zm4-3.18a.32.32,0,0,1,0,.09.44.44,0,0,1,0,.1v3a.09.09,0,0,1,0,.07.11.11,0,0,1-.08,0h-.75a.11.11,0,0,1-.08,0,.09.09,0,0,1,0-.07v-2.7A.07.07,0,0,0,67,28,.1.1,0,0,0,67,28H65.87a.1.1,0,0,0-.07,0,.07.07,0,0,0,0,.06v2.7c0,.07,0,.1-.11.1h-.75c-.07,0-.11,0-.11-.1V27.14a.15.15,0,0,1,0-.07.09.09,0,0,1,.08,0h2.36l.11,0,.09,0Zm4,1.19a.08.08,0,0,1,.07,0,.08.08,0,0,1,0,.07v1.24s0,.07,0,.11l0,.09-.51.5-.09,0H69.49l-.09,0-.5-.5a.32.32,0,0,1,0-.09.45.45,0,0,1,0-.11V27.77a.38.38,0,0,1,0-.1.32.32,0,0,1,0-.09l.5-.5.09,0,.1,0h2.16a.12.12,0,0,1,.11.11v.72a.09.09,0,0,1,0,.07.11.11,0,0,1-.08,0H69.92a.1.1,0,0,0-.07,0,.07.07,0,0,0,0,.06v1.77a.11.11,0,0,0,0,.08.09.09,0,0,0,.07,0H71a.11.11,0,0,0,.08,0,.19.19,0,0,0,0-.08v-.95a.08.08,0,0,1,0-.07.09.09,0,0,1,.08,0Z"/></g></g></g></g></svg>