<?xml version="1.0" encoding="utf-8"?>
<!-- Generator: Adobe Illustrator 22.0.1, SVG Export Plug-In . SVG Version: 6.00 Build 0)  -->
<svg version="1.1" id="OUTLINES" xmlns="http://www.w3.org/2000/svg" xmlns:xlink="http://www.w3.org/1999/xlink" x="0px" y="0px"
	 width="250.1px" height="45.45px" viewBox="0 0 250.1 45.45" enable-background="new 0 0 250.1 45.45" xml:space="preserve">
<path fill="#027856" d="M154.2,21.65c5.03-1.15,8.28-4.78,8.28-10.32c0-6.75-4.39-11.27-13.5-11.27h-14.71v44.58h15.22
	c9.49,0,14.58-4.46,14.58-12.04C164.07,26.55,160.44,22.66,154.2,21.65z M137.07,2.35h11.85c7.2,0,10.64,3.5,10.64,9.17
	c0,5.67-3.44,9.11-10.64,9.11h-11.85V2.35z M149.36,42.35h-12.29V22.92h12.29c7.96,0,11.78,3.63,11.78,9.68
	C161.14,38.71,157.32,42.35,149.36,42.35z M180.06,12.92c-5.86,0-10.06,3.25-11.59,7.96l2.42,0.77c1.59-4.39,4.9-6.56,9.17-6.56
	c5.35,0,8.41,2.55,8.41,9.24v1.78l-4.08,0.19c-13.69,0.45-17.58,4.71-17.58,10.13c0,5.54,4.46,8.98,10.38,8.98
	c5.22,0,9.23-2.48,11.27-6.94v6.18h2.68V24.96C191.14,16.62,187.06,12.92,180.06,12.92z M188.46,32.6c0,5.92-4.2,10.64-10.95,10.64
	c-4.71,0-7.96-2.74-7.96-6.81c0-4.33,2.99-7.77,14.96-8.15l3.95-0.13C188.46,28.14,188.46,32.6,188.46,32.6z M210.56,12.92
	c-5.67,0-9.87,3.63-11.78,8.66v-7.9h-2.74v30.95h2.74V29.1c0-8.22,4.59-13.88,11.27-13.88c5.22,0,7.9,3.12,7.9,9.23v20.19h2.74
	V23.88C220.69,17.25,217.12,12.92,210.56,12.92z M237.12,25.85l11.14-12.17h-3.31l-16.62,18.34V0.06h-2.74v44.58h2.74v-9.3
	l7.01-7.58l11.59,16.87h3.12L237.12,25.85z M86.96,12.07h2.73c0,0-0.02-9.74,8.88-9.74c0,0,2.25,0,2.71,0c0,0.46,0,40.03,0,40.03
	h-4.26c-2.72-0.27-4.99-2.02-7.18-4.1l-3.2-3.09c0.7-0.94,1.63-2.38,2.28-3.88c0.74-1.7,1.28-4.89,1.61-5.67
	c0.11-0.26,0.23-0.5,0.38-0.74c0.42-0.67,1.13-1.23,1.85-1.54c0.55-0.24,1.22-0.4,1.83-0.4h0.41v-2.31H81.65v2.31h0.9
	c2.43,0.01,4.41,1.98,4.41,4.45c0,3.18-2.38,5.79-2.38,5.79l-12.2-11.85c5.45-1.98,10.03-4.7,10.03-9.82
	c0-5.39-4.11-9.18-11.53-9.18c-7.53,0-12.54,4.16-12.54,10.89c0,4.43,2.03,7.31,4,9.29c-6.19,2.4-9.87,5.55-9.87,11.32
	c0,8.11,7.31,11.37,15.43,11.37c5.34,0,9.82-1.6,13.29-4.16c0.05-0.04,2.31,3.63,8.97,3.63c0.48,0,25.33-0.02,25.33-0.02v-2.29
	h-4.88c0,0,0-39.62,0-40.03c0.46,0,2.71,0,2.71,0c8.87,0,8.88,9.74,8.88,9.74h2.73V0.06H86.96V12.07z M70.62,4.6
	c2.94,0,4.75,2.36,4.75,5.72c0,3.74-1.66,6.95-5.23,8.87c-2.3-2.24-4.27-5.3-4.27-8.98C65.86,6.91,67.68,4.6,70.62,4.6z
	 M70.35,41.31c-5.28,0-9.23-3.91-9.23-9.14c0-3.68,0.85-5.92,3.31-7.52l14.73,14.46C76.75,40.76,73.66,41.31,70.35,41.31z
	 M47.95,2.33h5.28V0.05H39c0,0-11.77,29.4-12.15,30.35C26.47,29.44,14.64,0.05,14.64,0.05H0.05v2.29h5.28L5.32,42.35H0.95v2.28
	h12.88v-2.28H8.12c0,0,0-33.39,0-34.92c0.67,1.69,14.35,36.18,14.35,36.18h2.31c0,0,13.49-34.48,14.16-36.18
	c0,1.87-0.02,34.93-0.02,34.93h-4.49v2.27h18.03v-2.27h-4.51L47.95,2.33L47.95,2.33z"/>
</svg>
