<?xml version="1.0" encoding="utf-8"?>
<!-- Generator: Adobe Illustrator 23.0.6, SVG Export Plug-In . SVG Version: 6.00 Build 0)  -->
<svg version="1.1" id="Layer_1" xmlns="http://www.w3.org/2000/svg" xmlns:xlink="http://www.w3.org/1999/xlink" x="0px" y="0px"
	 viewBox="0 0 1008 612" style="enable-background:new 0 0 1008 612;" xml:space="preserve">
<style type="text/css">
	.st0{fill:#FFFFFF;}
</style>
<g>
	<g>
		<rect x="19.24" y="356.68" class="st0" width="952.05" height="7.23"/>
		<g>
			<g>
				<path class="st0" d="M292.06,24.05c21.04,14.99,39.73,32.74,54.26,53.5C357.57,58.89,364.93,37.18,367.5,15h-69.7L292.06,24.05z
					"/>
				<path class="st0" d="M279.15,44.42l-62.77,99.12L135.97,15H20.33v236.11c16.42,0.5,32.88-0.24,49.19-2.26
					c20.17-2.5,40.08-6.79,59.5-12.63V189.7c0,0,10.94,16.6,25.05,38.02c25.65-9.69,50.29-22.08,73.43-36.79
					c38.97-24.78,77.62-56.18,105.66-93.94C318.56,76.78,299.94,59.25,279.15,44.42z"/>
				<path class="st0" d="M379.55,15c-5.58,18.05-13.62,35.52-22.87,52.17c-2.58,4.67-5.28,9.25-8.04,13.82
					c6.89,10.32,12.77,21.36,17.41,33.17c28.11,71.71-6,148.86-59.9,198.76c-0.95,0.89-1.95,1.75-2.9,2.6v6.69h110.68V15H379.55z"/>
				<path class="st0" d="M341.81,265.26c21.1-29,27.48-68.73,20.33-103.57c-4.59-22.39-13.8-42.64-26.23-60.79
					c-42.41,62.52-100.63,114.13-168.69,146.73c23.51,35.66,49.16,74.59,49.18,74.59l86.86-132.52v115.32
					C317.76,293.39,330.93,280.21,341.81,265.26z"/>
				<path class="st0" d="M20.33,284.06v38.16h108.69v-58.7c-7.58,2.7-15.25,5.18-23.03,7.41C78.12,278.9,49.26,283.27,20.33,284.06z
					"/>
			</g>
			<g>
				<path class="st0" d="M501.98,113.33v37.22h34.84v27.4h-34.84v64.02c0,17.87,4.76,26.8,18.76,26.8c6.55,0,10.12-0.3,14.29-1.49
					l0.6,27.69c-5.36,2.08-15.19,3.87-26.5,3.87c-13.7,0-24.72-4.47-31.57-11.91c-8.04-8.34-11.61-21.74-11.61-40.8v-68.19H445.4
					v-27.4h20.55v-27.1L501.98,113.33z"/>
				<path class="st0" d="M584.21,233.34c0.89,26.21,21.14,37.52,44.67,37.52c16.97,0,28.89-2.68,40.2-6.55l5.36,25.01
					c-12.51,5.36-29.78,9.23-50.62,9.23c-47.05,0-74.75-28.89-74.75-73.26c0-40.2,24.42-78.02,70.87-78.02
					c47.05,0,62.54,38.71,62.54,70.58c0,6.85-0.6,12.21-1.19,15.49H584.21z M647.91,207.73c0.3-13.4-5.66-35.44-30.08-35.44
					c-22.63,0-32.16,20.55-33.65,35.44H647.91z"/>
				<path class="st0" d="M817.06,291.11c-7.74,3.57-22.93,7.44-41.1,7.44c-45.26,0-74.75-29.18-74.75-74.15
					c0-43.48,29.78-77.13,80.7-77.13c13.4,0,27.1,2.98,35.44,6.55l-6.55,27.69c-5.96-2.98-14.59-5.66-27.69-5.66
					c-27.99,0-44.67,20.55-44.37,47.05c0,29.78,19.36,46.75,44.37,46.75c12.51,0,21.74-2.68,28.89-5.66L817.06,291.11z"/>
				<path class="st0" d="M839.79,84.15h36.63v86.06h0.6c4.47-6.85,10.72-12.51,18.17-16.38c7.44-4.17,16.08-6.55,25.31-6.55
					c24.72,0,50.62,16.38,50.62,62.83v85.47h-36.63v-81.59c0-20.85-7.74-36.93-27.99-36.93c-14.29,0-24.42,9.53-28.59,20.55
					c-1.19,3.28-1.49,7.15-1.49,11.02v86.95h-36.63L839.79,84.15L839.79,84.15z"/>
			</g>
		</g>
	</g>
	<g>
		<path class="st0" d="M28.77,403.06c3.77-0.89,9.83-1.49,15.78-1.49c8.64,0,14.19,1.49,18.26,4.86c3.47,2.58,5.66,6.55,5.66,11.81
			c0,6.55-4.37,12.21-11.32,14.69v0.3c6.35,1.49,13.8,6.75,13.8,16.68c0,5.76-2.28,10.22-5.76,13.4
			c-4.57,4.27-12.11,6.25-23.03,6.25c-5.96,0-10.52-0.4-13.4-0.79V403.06z M37.41,430.46h7.84c9.03,0,14.39-4.86,14.39-11.32
			c0-7.74-5.86-10.92-14.59-10.92c-3.97,0-6.25,0.3-7.64,0.6C37.41,408.82,37.41,430.46,37.41,430.46z M37.41,462.44
			c1.79,0.3,4.17,0.4,7.25,0.4c8.93,0,17.17-3.28,17.17-13c0-9.03-7.84-12.9-17.27-12.9h-7.15
			C37.41,436.93,37.41,462.44,37.41,462.44z"/>
		<path class="st0" d="M91.13,407.43c0,2.98-2.08,5.36-5.56,5.36c-3.18,0-5.26-2.38-5.26-5.36s2.18-5.46,5.46-5.46
			C88.94,401.97,91.13,404.35,91.13,407.43z M81.4,468.99v-48.04h8.74v48.04H81.4z"/>
		<path class="st0" d="M147.25,444.57c0,17.77-12.41,25.51-23.92,25.51c-12.9,0-23.03-9.53-23.03-24.72
			c0-15.98,10.62-25.41,23.82-25.41C137.92,419.93,147.25,429.96,147.25,444.57z M109.21,445.07c0,10.52,5.96,18.46,14.49,18.46
			c8.34,0,14.59-7.84,14.59-18.66c0-8.14-4.07-18.36-14.39-18.36C113.68,426.49,109.21,436.02,109.21,445.07z"/>
		<path class="st0" d="M167.52,409.41v11.51h12.51v6.65h-12.51v25.91c0,5.96,1.69,9.33,6.55,9.33c2.38,0,3.77-0.2,5.06-0.6l0.4,6.65
			c-1.69,0.6-4.37,1.19-7.74,1.19c-4.07,0-7.35-1.39-9.43-3.67c-2.38-2.68-3.37-6.95-3.37-12.61v-26.21h-7.44v-6.65h7.44v-8.93
			L167.52,409.41z"/>
		<path class="st0" d="M192.85,446.56c0.2,11.81,7.64,16.68,16.48,16.68c6.25,0,10.12-1.09,13.3-2.48l1.59,6.25
			c-3.08,1.39-8.44,3.08-16.08,3.08c-14.79,0-23.62-9.83-23.62-24.32s8.54-25.81,22.53-25.81c15.78,0,19.85,13.7,19.85,22.53
			c0,1.79-0.1,3.08-0.3,4.07L192.85,446.56L192.85,446.56z M218.46,440.3c0.1-5.46-2.28-14.1-12.11-14.1
			c-8.93,0-12.71,8.04-13.4,14.1H218.46z"/>
		<path class="st0" d="M271.98,467.3c-2.28,1.09-7.35,2.78-13.8,2.78c-14.49,0-23.92-9.83-23.92-24.52
			c0-14.79,10.12-25.61,25.81-25.61c5.16,0,9.73,1.29,12.11,2.58l-1.99,6.65c-2.08-1.09-5.36-2.28-10.12-2.28
			c-11.02,0-16.97,8.24-16.97,18.17c0,11.12,7.15,17.97,16.68,17.97c4.96,0,8.24-1.19,10.72-2.28L271.98,467.3z"/>
		<path class="st0" d="M280.74,398.49h8.74v30.08h0.2c1.39-2.48,3.57-4.76,6.25-6.25c2.58-1.49,5.66-2.38,8.93-2.38
			c6.45,0,16.78,3.97,16.78,20.45v28.59h-8.74v-27.6c0-7.74-2.88-14.19-11.12-14.19c-5.66,0-10.03,3.97-11.71,8.64
			c-0.5,1.29-0.6,2.58-0.6,4.17v28.98h-8.74V398.49z"/>
		<path class="st0" d="M334.54,433.95c0-5.06-0.1-9.03-0.4-13h7.74l0.5,7.94h0.2c2.38-4.47,7.94-8.93,15.88-8.93
			c6.65,0,16.97,3.97,16.97,20.45v28.59h-8.74V441.3c0-7.74-2.88-14.19-11.12-14.19c-5.66,0-10.12,4.07-11.71,8.93
			c-0.4,1.09-0.6,2.58-0.6,4.07v28.89h-8.74L334.54,433.95L334.54,433.95z"/>
		<path class="st0" d="M432.37,444.57c0,17.77-12.41,25.51-23.92,25.51c-12.9,0-23.03-9.53-23.03-24.72
			c0-15.98,10.62-25.41,23.82-25.41C423.04,419.93,432.37,429.96,432.37,444.57z M394.36,445.07c0,10.52,5.96,18.46,14.49,18.46
			c8.34,0,14.59-7.84,14.59-18.66c0-8.14-4.07-18.36-14.39-18.36C398.82,426.49,394.36,436.02,394.36,445.07z"/>
		<path class="st0" d="M442.92,398.49h8.74v70.48h-8.74V398.49z"/>
		<path class="st0" d="M509.14,444.57c0,17.77-12.41,25.51-23.92,25.51c-12.9,0-23.03-9.53-23.03-24.72
			c0-15.98,10.62-25.41,23.82-25.41C499.81,419.93,509.14,429.96,509.14,444.57z M471.13,445.07c0,10.52,5.96,18.46,14.49,18.46
			c8.34,0,14.59-7.84,14.59-18.66c0-8.14-4.07-18.36-14.39-18.36C475.59,426.49,471.13,436.02,471.13,445.07z"/>
		<path class="st0" d="M561.16,461.94c0,11.12-2.28,17.77-6.85,22.04c-4.76,4.27-11.51,5.76-17.57,5.76
			c-5.76,0-12.11-1.39-15.98-3.97l2.18-6.75c3.18,2.08,8.14,3.87,14.1,3.87c8.93,0,15.49-4.67,15.49-16.87v-5.26h-0.2
			c-2.58,4.47-7.84,8.04-15.29,8.04c-11.91,0-20.45-10.12-20.45-23.43c0-16.28,10.62-25.41,21.74-25.41c8.34,0,12.8,4.27,14.99,8.24
			h0.2l0.3-7.25h7.74c-0.3,3.37-0.4,7.35-0.4,13.1L561.16,461.94L561.16,461.94z M552.42,439.91c0-1.49-0.1-2.78-0.5-3.87
			c-1.59-5.16-5.76-9.33-12.21-9.33c-8.34,0-14.29,7.05-14.29,18.17c0,9.43,4.86,17.27,14.19,17.27c5.46,0,10.32-3.37,12.11-8.93
			c0.5-1.49,0.69-3.18,0.69-4.67V439.91z"/>
		<path class="st0" d="M578.59,420.93l10.42,28.39c1.19,3.18,2.38,6.95,3.18,9.83h0.2c0.89-2.88,1.89-6.55,3.08-10.03l9.53-28.19
			h9.23l-13.1,34.25c-6.25,16.48-10.52,24.82-16.48,30.08c-4.37,3.67-8.54,5.16-10.72,5.56l-2.18-7.25
			c2.18-0.69,5.06-2.08,7.64-4.27c2.38-1.89,5.26-5.26,7.35-9.73c0.4-0.89,0.69-1.59,0.69-2.08s-0.2-1.19-0.69-2.28l-17.67-44.27
			L578.59,420.93L578.59,420.93z"/>
		<path class="st0" d="M645.49,402.96c4.37-0.79,10.72-1.39,16.58-1.39c9.23,0,15.29,1.79,19.36,5.46c3.28,2.98,5.26,7.54,5.26,12.8
			c0,8.74-5.56,14.59-12.51,16.97v0.3c5.06,1.79,8.14,6.55,9.73,13.5c2.18,9.33,3.77,15.78,5.16,18.36h-8.93
			c-1.09-1.99-2.58-7.64-4.37-15.98c-1.99-9.23-5.66-12.71-13.5-13h-8.14v28.98h-8.64V402.96z M654.13,433.45h8.83
			c9.23,0,15.09-5.06,15.09-12.71c0-8.64-6.25-12.41-15.39-12.41c-4.17,0-7.05,0.3-8.54,0.69L654.13,433.45L654.13,433.45z"/>
		<path class="st0" d="M703.01,446.56c0.2,11.81,7.64,16.68,16.48,16.68c6.25,0,10.12-1.09,13.3-2.48l1.59,6.25
			c-3.08,1.39-8.44,3.08-16.08,3.08c-14.79,0-23.62-9.83-23.62-24.32s8.54-25.81,22.53-25.81c15.78,0,19.85,13.7,19.85,22.53
			c0,1.79-0.1,3.08-0.3,4.07L703.01,446.56L703.01,446.56z M728.62,440.3c0.1-5.46-2.28-14.1-12.11-14.1
			c-8.93,0-12.71,8.04-13.4,14.1H728.62z"/>
		<path class="st0" d="M745.63,460.16c2.68,1.59,7.25,3.37,11.61,3.37c6.25,0,9.23-3.08,9.23-7.15c0-4.17-2.48-6.35-8.83-8.74
			c-8.74-3.18-12.8-7.84-12.8-13.6c0-7.74,6.35-14.1,16.58-14.1c4.86,0,9.13,1.29,11.71,2.98l-2.08,6.35
			c-1.89-1.19-5.36-2.88-9.83-2.88c-5.16,0-7.94,2.98-7.94,6.55c0,3.97,2.78,5.76,9.03,8.24c8.24,3.08,12.61,7.25,12.61,14.39
			c0,8.54-6.65,14.49-17.87,14.49c-5.26,0-10.12-1.39-13.5-3.37L745.63,460.16z"/>
		<path class="st0" d="M790.44,446.56c0.2,11.81,7.64,16.68,16.48,16.68c6.25,0,10.12-1.09,13.3-2.48l1.59,6.25
			c-3.08,1.39-8.44,3.08-16.08,3.08c-14.79,0-23.62-9.83-23.62-24.32s8.54-25.81,22.53-25.81c15.78,0,19.85,13.7,19.85,22.53
			c0,1.79-0.1,3.08-0.3,4.07L790.44,446.56L790.44,446.56z M816.05,440.3c0.1-5.46-2.28-14.1-12.11-14.1
			c-8.93,0-12.71,8.04-13.4,14.1H816.05z"/>
		<path class="st0" d="M867.96,457.48c0,4.17,0.2,8.24,0.69,11.51h-7.84l-0.69-6.06h-0.3c-2.68,3.77-7.84,7.15-14.69,7.15
			c-9.73,0-14.69-6.85-14.69-13.8c0-11.61,10.32-17.97,28.89-17.87v-0.99c0-3.87-1.09-11.12-10.92-11.02
			c-4.57,0-9.23,1.29-12.61,3.57l-1.99-5.86c3.97-2.48,9.83-4.17,15.88-4.17c14.69,0,18.26,10.03,18.26,19.55V457.48z
			 M859.52,444.45c-9.53-0.2-20.35,1.49-20.35,10.82c0,5.76,3.77,8.34,8.14,8.34c6.35,0,10.42-3.97,11.81-8.04
			c0.3-0.99,0.4-1.99,0.4-2.78L859.52,444.45L859.52,444.45z"/>
		<path class="st0" d="M880.79,435.94c0-5.66-0.1-10.52-0.4-14.99h7.64l0.4,9.53h0.3c2.18-6.45,7.54-10.52,13.4-10.52
			c0.89,0,1.59,0.1,2.38,0.2v8.24c-0.89-0.2-1.79-0.2-2.98-0.2c-6.15,0-10.52,4.57-11.71,11.12c-0.2,1.19-0.3,2.68-0.3,4.07v25.61
			h-8.74L880.79,435.94L880.79,435.94z"/>
		<path class="st0" d="M945.94,467.3c-2.28,1.09-7.35,2.78-13.8,2.78c-14.49,0-23.92-9.83-23.92-24.52
			c0-14.79,10.12-25.61,25.81-25.61c5.16,0,9.73,1.29,12.11,2.58l-1.99,6.65c-2.08-1.09-5.36-2.28-10.12-2.28
			c-11.02,0-16.97,8.24-16.97,18.17c0,11.12,7.15,17.97,16.68,17.97c4.96,0,8.24-1.19,10.72-2.28L945.94,467.3z"/>
		<path class="st0" d="M954.7,398.49h8.74v30.08h0.2c1.39-2.48,3.57-4.76,6.25-6.25c2.58-1.49,5.66-2.38,8.93-2.38
			c6.45,0,16.78,3.97,16.78,20.45v28.59h-8.74v-27.6c0-7.74-2.88-14.19-11.12-14.19c-5.66,0-10.03,3.97-11.71,8.64
			c-0.5,1.29-0.6,2.58-0.6,4.17v28.98h-8.74L954.7,398.49L954.7,398.49z"/>
		<path class="st0" d="M62.22,556.74c0,4.17,0.2,8.24,0.69,11.51h-7.84l-0.69-6.06h-0.3c-2.68,3.77-7.84,7.15-14.69,7.15
			c-9.73,0-14.69-6.85-14.69-13.8c0-11.61,10.32-17.97,28.89-17.87v-0.99c0-3.87-1.09-11.12-10.92-11.02
			c-4.57,0-9.23,1.29-12.61,3.57l-1.99-5.86c3.97-2.48,9.83-4.17,15.88-4.17c14.69,0,18.26,10.03,18.26,19.55V556.74z M53.78,543.72
			c-9.53-0.2-20.35,1.49-20.35,10.82c0,5.76,3.77,8.34,8.14,8.34c6.35,0,10.42-3.97,11.81-8.04c0.3-0.99,0.4-1.99,0.4-2.78V543.72z"
			/>
		<path class="st0" d="M75.05,533.21c0-5.06-0.1-9.03-0.4-13h7.74l0.5,7.94h0.2c2.38-4.47,7.94-8.93,15.88-8.93
			c6.65,0,16.97,3.97,16.97,20.45v28.59h-8.74v-27.69c0-7.74-2.88-14.19-11.12-14.19c-5.66,0-10.12,4.07-11.71,8.93
			c-0.4,1.09-0.6,2.58-0.6,4.07v28.89h-8.74C75.05,568.25,75.05,533.21,75.05,533.21z"/>
		<path class="st0" d="M170.85,497.76v58.07c0,4.27,0.2,9.13,0.4,12.41h-7.74l-0.4-8.34h-0.3c-2.58,5.36-8.34,9.43-16.18,9.43
			c-11.61,0-20.65-9.83-20.65-24.42c-0.1-15.98,9.93-25.71,21.54-25.71c7.44,0,12.31,3.47,14.49,7.25h0.2v-28.69L170.85,497.76
			L170.85,497.76z M162.22,539.75c0-1.09-0.1-2.58-0.4-3.67c-1.29-5.46-6.06-10.03-12.61-10.03c-9.03,0-14.39,7.94-14.39,18.46
			c0,9.73,4.86,17.77,14.19,17.77c5.86,0,11.22-3.97,12.8-10.42c0.3-1.19,0.4-2.38,0.4-3.77V539.75z"/>
		<path class="st0" d="M243.3,536.89h-25.91v24.12h28.98v7.25h-37.72v-66.9h36.23v7.25h-27.5v21.14h25.91V536.89z"/>
		<path class="st0" d="M296.66,497.76v58.07c0,4.27,0.2,9.13,0.4,12.41h-7.74l-0.4-8.34h-0.3c-2.58,5.36-8.34,9.43-16.18,9.43
			c-11.61,0-20.65-9.83-20.65-24.42c-0.1-15.98,9.93-25.71,21.54-25.71c7.44,0,12.31,3.47,14.49,7.25h0.2v-28.69L296.66,497.76
			L296.66,497.76z M288.03,539.75c0-1.09-0.1-2.58-0.4-3.67c-1.29-5.46-6.06-10.03-12.61-10.03c-9.03,0-14.39,7.94-14.39,18.46
			c0,9.73,4.86,17.77,14.19,17.77c5.86,0,11.22-3.97,12.8-10.42c0.3-1.19,0.4-2.38,0.4-3.77L288.03,539.75L288.03,539.75z"/>
		<path class="st0" d="M350.03,555.05c0,5.06,0.1,9.43,0.4,13.2h-7.74l-0.5-7.84h-0.2c-2.18,3.87-7.35,8.93-15.88,8.93
			c-7.54,0-16.58-4.27-16.58-21.04v-28.09h8.74v26.5c0,9.13,2.88,15.39,10.72,15.39c5.86,0,9.93-4.07,11.51-8.04
			c0.5-1.19,0.79-2.78,0.79-4.47v-29.38h8.74L350.03,555.05L350.03,555.05z"/>
		<path class="st0" d="M398.07,566.57c-2.28,1.09-7.35,2.78-13.8,2.78c-14.49,0-23.92-9.83-23.92-24.52
			c0-14.79,10.12-25.61,25.81-25.61c5.16,0,9.73,1.29,12.11,2.58l-1.99,6.65c-2.08-1.09-5.36-2.28-10.12-2.28
			c-11.02,0-16.97,8.24-16.97,18.17c0,11.12,7.15,17.97,16.68,17.97c4.96,0,8.24-1.19,10.72-2.28L398.07,566.57z"/>
		<path class="st0" d="M441.59,556.74c0,4.17,0.2,8.24,0.69,11.51h-7.84l-0.69-6.06h-0.3c-2.68,3.77-7.84,7.15-14.69,7.15
			c-9.73,0-14.69-6.85-14.69-13.8c0-11.61,10.32-17.97,28.89-17.87v-0.99c0-3.87-1.09-11.12-10.92-11.02
			c-4.57,0-9.23,1.29-12.61,3.57l-1.99-5.86c3.97-2.48,9.83-4.17,15.88-4.17c14.69,0,18.26,10.03,18.26,19.55L441.59,556.74
			L441.59,556.74z M433.15,543.72c-9.53-0.2-20.35,1.49-20.35,10.82c0,5.76,3.77,8.34,8.14,8.34c6.35,0,10.42-3.97,11.81-8.04
			c0.3-0.99,0.4-1.99,0.4-2.78V543.72z"/>
		<path class="st0" d="M464.57,508.68v11.51h12.51v6.65h-12.51v25.91c0,5.96,1.69,9.33,6.55,9.33c2.38,0,3.77-0.2,5.06-0.6l0.4,6.65
			c-1.69,0.6-4.37,1.19-7.74,1.19c-4.07,0-7.35-1.39-9.43-3.67c-2.38-2.68-3.37-6.95-3.37-12.61v-26.21h-7.44v-6.65h7.44v-8.93
			L464.57,508.68z"/>
		<path class="st0" d="M495.29,506.69c0,2.98-2.08,5.36-5.56,5.36c-3.18,0-5.26-2.38-5.26-5.36s2.18-5.46,5.46-5.46
			C493.1,501.23,495.29,503.61,495.29,506.69z M485.56,568.25v-48.04h8.74v48.04H485.56z"/>
		<path class="st0" d="M551.39,543.84c0,17.77-12.41,25.51-23.92,25.51c-12.9,0-23.03-9.53-23.03-24.72
			c0-15.98,10.62-25.41,23.82-25.41C542.06,519.2,551.39,529.22,551.39,543.84z M513.37,544.33c0,10.52,5.96,18.46,14.49,18.46
			c8.34,0,14.59-7.84,14.59-18.66c0-8.14-4.07-18.36-14.39-18.36C517.84,525.75,513.37,535.28,513.37,544.33z"/>
		<path class="st0" d="M561.71,533.21c0-5.06-0.1-9.03-0.4-13h7.74l0.5,7.94h0.2c2.38-4.47,7.94-8.93,15.88-8.93
			c6.65,0,16.97,3.97,16.97,20.45v28.59h-8.74v-27.69c0-7.74-2.88-14.19-11.12-14.19c-5.66,0-10.12,4.07-11.71,8.93
			c-0.4,1.09-0.6,2.58-0.6,4.07v28.89h-8.74V533.21z"/>
		<path class="st0" d="M640.13,502.12c4.17-0.69,9.63-1.29,16.58-1.29c8.54,0,14.79,1.99,18.76,5.56c3.57,3.18,5.86,8.04,5.86,14
			c0,6.06-1.79,10.82-5.16,14.29c-4.67,4.86-12.01,7.35-20.45,7.35c-2.58,0-4.96-0.1-6.95-0.6v26.8h-8.64L640.13,502.12
			L640.13,502.12z M648.77,534.39c1.89,0.5,4.27,0.69,7.15,0.69c10.42,0,16.78-5.16,16.78-14.19c0-8.93-6.35-13.2-15.78-13.2
			c-3.77,0-6.65,0.3-8.14,0.69V534.39z"/>
		<path class="st0" d="M690.68,535.2c0-5.66-0.1-10.52-0.4-14.99h7.64l0.4,9.53h0.3c2.18-6.45,7.54-10.52,13.4-10.52
			c0.89,0,1.59,0.1,2.38,0.2v8.24c-0.89-0.2-1.79-0.2-2.98-0.2c-6.15,0-10.52,4.57-11.71,11.12c-0.2,1.19-0.3,2.68-0.3,4.07v25.61
			h-8.74L690.68,535.2L690.68,535.2z"/>
		<path class="st0" d="M765.24,543.84c0,17.77-12.41,25.51-23.92,25.51c-12.9,0-23.03-9.53-23.03-24.72
			c0-15.98,10.62-25.41,23.82-25.41C755.91,519.2,765.24,529.22,765.24,543.84z M727.23,544.33c0,10.52,5.96,18.46,14.49,18.46
			c8.34,0,14.59-7.84,14.59-18.66c0-8.14-4.07-18.36-14.39-18.36C731.69,525.75,727.23,535.28,727.23,544.33z"/>
		<path class="st0" d="M817.28,561.21c0,11.12-2.28,17.77-6.85,22.04c-4.76,4.27-11.51,5.76-17.57,5.76
			c-5.76,0-12.11-1.39-15.98-3.97l2.18-6.75c3.18,2.08,8.14,3.87,14.1,3.87c8.93,0,15.49-4.67,15.49-16.87v-5.26h-0.2
			c-2.58,4.47-7.84,8.04-15.29,8.04c-11.91,0-20.45-10.12-20.45-23.43c0-16.28,10.62-25.41,21.74-25.41c8.34,0,12.8,4.27,14.99,8.24
			h0.2l0.3-7.25h7.74c-0.3,3.37-0.4,7.35-0.4,13.1L817.28,561.21L817.28,561.21z M808.54,539.17c0-1.49-0.1-2.78-0.5-3.87
			c-1.59-5.16-5.76-9.33-12.21-9.33c-8.34,0-14.29,7.05-14.29,18.17c0,9.43,4.86,17.27,14.19,17.27c5.46,0,10.32-3.37,12.11-8.93
			c0.5-1.49,0.69-3.18,0.69-4.67V539.17z"/>
		<path class="st0" d="M830.58,535.2c0-5.66-0.1-10.52-0.4-14.99h7.64l0.4,9.53h0.3c2.18-6.45,7.54-10.52,13.4-10.52
			c0.89,0,1.59,0.1,2.38,0.2v8.24c-0.89-0.2-1.79-0.2-2.98-0.2c-6.15,0-10.52,4.57-11.71,11.12c-0.2,1.19-0.3,2.68-0.3,4.07v25.61
			h-8.74L830.58,535.2L830.58,535.2z"/>
		<path class="st0" d="M896.21,556.74c0,4.17,0.2,8.24,0.69,11.51h-7.84l-0.69-6.06h-0.3c-2.68,3.77-7.84,7.15-14.69,7.15
			c-9.73,0-14.69-6.85-14.69-13.8c0-11.61,10.32-17.97,28.89-17.87v-0.99c0-3.87-1.09-11.12-10.92-11.02
			c-4.57,0-9.23,1.29-12.61,3.57l-1.99-5.86c3.97-2.48,9.83-4.17,15.88-4.17c14.69,0,18.26,10.03,18.26,19.55V556.74z
			 M887.77,543.72c-9.53-0.2-20.35,1.49-20.35,10.82c0,5.76,3.77,8.34,8.14,8.34c6.35,0,10.42-3.97,11.81-8.04
			c0.3-0.99,0.4-1.99,0.4-2.78L887.77,543.72L887.77,543.72z"/>
		<path class="st0" d="M909.06,533.21c0-5.06-0.2-9.03-0.4-13h7.64l0.4,7.84h0.3c2.68-4.57,7.15-8.83,15.19-8.83
			c6.45,0,11.42,3.97,13.5,9.63h0.2c1.49-2.78,3.47-4.76,5.46-6.25c2.88-2.18,5.96-3.38,10.52-3.38c6.45,0,15.88,4.17,15.88,20.85
			v28.19h-8.54v-27.1c0-9.33-3.47-14.79-10.42-14.79c-5.06,0-8.83,3.67-10.42,7.84c-0.4,1.29-0.69,2.78-0.69,4.37v29.68h-8.54
			v-28.79c0-7.64-3.38-13.1-10.03-13.1c-5.36,0-9.43,4.37-10.82,8.74c-0.5,1.19-0.69,2.78-0.69,4.27v28.89h-8.54V533.21z"/>
	</g>
</g>
</svg>
