<?xml version="1.0" encoding="utf-8"?>
<!-- Generator: Adobe Illustrator 23.0.6, SVG Export Plug-In . SVG Version: 6.00 Build 0)  -->
<svg version="1.1" id="Layer_1" xmlns="http://www.w3.org/2000/svg" xmlns:xlink="http://www.w3.org/1999/xlink" x="0px" y="0px"
	 viewBox="0 0 155 44" style="enable-background:new 0 0 155 44;" xml:space="preserve">
<style type="text/css">
	.st0{fill:#FFFFFF;}
	.st1{filter:url(#Adobe_OpacityMaskFilter);}
	.st2{fill-rule:evenodd;clip-rule:evenodd;fill:#FFFFFF;}
	.st3{mask:url(#b_1_);fill:#FFFFFF;}
	.st4{filter:url(#Adobe_OpacityMaskFilter_1_);}
	.st5{mask:url(#d_1_);fill:#FFFFFF;}
	.st6{filter:url(#Adobe_OpacityMaskFilter_2_);}
	.st7{mask:url(#f_1_);fill:#FFFFFF;}
</style>
<g>
	<path class="st0" d="M114.3,33.3c-5.3,0-8.6-3.1-8.6-8c0-5.1,3-8.3,7.9-8.3h0.4c0.6,0,1.5,0,2.6,0.2V11h3.5v21.8
		C120.1,32.8,116.8,33.3,114.3,33.3 M114.3,19.7c-3.3,0-5,1.8-5,5.5c0,3.3,2,5.4,5.1,5.4c0.6,0,1.3,0,2.2-0.1V19.9
		C115.7,19.8,114.9,19.7,114.3,19.7 M67,32.8l-9.3-16.3l0,16.3h-3.2V12.2H59l9.3,16.1l0-16.1h3.3v20.6H67z M96.7,33.1
		c-1.6,0-3.2-0.2-5.2-0.6l-0.2,0v-2.9l0.3,0.1c1.7,0.4,3.2,0.7,4.7,0.7c1.2,0,4-0.2,4-2c0-1.5-1.9-1.9-3.5-2.1l-0.1,0
		c-0.3-0.1-0.6-0.1-0.8-0.2c-2.3-0.6-4.7-1.5-4.7-4.5c0-3,2.4-4.7,6.5-4.7c2,0,3.4,0.2,4.5,0.4l0.6,0.1v2.8l-0.3-0.1
		c-1.3-0.2-2.8-0.5-4.3-0.5c-1.6,0-3.6,0.3-3.6,1.8c0,1.2,1.6,1.5,3.4,1.9c2.6,0.6,5.7,1.2,5.7,4.7C103.8,31.3,101.2,33.1,96.7,33.1
		 M129.8,33.1c-3.6,0-6.9-0.6-6.9-5.2c0-5,5.1-5,8.2-5c0.3,0,1.7,0.1,2.2,0.1c0-2.8,0-3.4-4.1-3.4c-1.6,0-3.4,0.3-4.9,0.6l-0.3,0.1
		v-2.8l0.2,0c1.8-0.4,3.6-0.5,5.4-0.5c3.9,0,7.2,0.4,7.2,5.2v10.6l-0.2,0C133.8,33.1,131.6,33.1,129.8,33.1 M131,25.4
		c-2.9,0-4.8,0.4-4.8,2.6c0,2.5,2.3,2.7,4.5,2.7c0.8,0,2.3-0.1,2.7-0.1v-5.1C132.9,25.5,131.2,25.4,131,25.4 M81.4,33.1
		c-3.6,0-6.9-0.6-6.9-5.2c0-5,5.1-5,8.2-5c0.3,0,1.7,0.1,2.2,0.1c0-2.8,0-3.4-4.1-3.4c-1.6,0-3.4,0.3-4.9,0.6l-0.3,0.1v-2.8l0.2,0
		c1.8-0.4,3.6-0.5,5.4-0.5c3.9,0,7.2,0.4,7.2,5.2v10.6l-0.2,0C85.4,33.1,83.2,33.1,81.4,33.1 M82.6,25.4c-2.9,0-4.8,0.4-4.8,2.6
		c0,2.5,2.3,2.7,4.5,2.7c0.8,0,2.3-0.1,2.7-0.1v-5.1C84.4,25.5,82.8,25.4,82.6,25.4"/>
	<g transform="translate(139 16)">
		<defs>
			<filter id="Adobe_OpacityMaskFilter" filterUnits="userSpaceOnUse" x="0.6" y="1" width="14.4" height="22.8">
				<feColorMatrix  type="matrix" values="1 0 0 0 0  0 1 0 0 0  0 0 1 0 0  0 0 0 1 0"/>
			</filter>
		</defs>
		<mask maskUnits="userSpaceOnUse" x="0.6" y="1" width="14.4" height="22.8" id="b_1_">
			<g class="st1">
				<path id="a_1_" class="st2" d="M0,0h15v24H0V0z"/>
			</g>
		</mask>
		<path class="st3" d="M11.5,23.8v-6.8c-1.3,0.2-2.1,0.2-2.6,0.2c-1.4,0-2.9-0.3-4.1-0.8C2.2,15.4,0.6,12.6,0.6,9
			c0-1.8,0.4-5,3.3-6.8C5.4,1.4,7.1,1,9.7,1c0.9,0,2.2,0.1,3.4,0.1l2,0.1v21C15,22.3,11.5,23.8,11.5,23.8z M9.4,3.7
			C5.9,3.7,4.1,5.5,4.1,9c0,4.5,2.7,5.5,4.9,5.5c0.5,0,1.2,0,2.5-0.2V3.8C10.5,3.7,10,3.7,9.4,3.7L9.4,3.7z"/>
	</g>
	<g transform="translate(25)">
		<defs>
			<filter id="Adobe_OpacityMaskFilter_1_" filterUnits="userSpaceOnUse" x="0.8" y="0" width="25.5" height="32.8">
				<feColorMatrix  type="matrix" values="1 0 0 0 0  0 1 0 0 0  0 0 1 0 0  0 0 0 1 0"/>
			</filter>
		</defs>
		<mask maskUnits="userSpaceOnUse" x="0.8" y="0" width="25.5" height="32.8" id="d_1_">
			<g class="st4">
				<path id="c_1_" class="st2" d="M0,0h27v33H0V0z"/>
			</g>
		</mask>
		<path class="st5" d="M14,0L2.6,31.4c-0.3,0.8-1,1.3-1.8,1.4v0h12.1c0.9,0,1.8-0.6,2.1-1.4L26.3,0H14z"/>
	</g>
	<path class="st0" d="M24.8,32.4c0.7,0,1.3-0.3,1.7-0.9c0-0.1,0.2-0.2,0.3-0.5l4.2-11.5l-2.5-6.7c-0.4-1.1-1.7-1.6-2.7-1.1
		c-0.4,0.1-0.7,0.4-0.9,0.7c0,0.1-0.2,0.3-0.3,0.5l-4.2,11.5l2.5,6.8C23.2,31.9,23.9,32.4,24.8,32.4"/>
	<g transform="translate(-1 10)">
		<defs>
			<filter id="Adobe_OpacityMaskFilter_2_" filterUnits="userSpaceOnUse" x="1" y="1" width="25.7" height="32.8">
				<feColorMatrix  type="matrix" values="1 0 0 0 0  0 1 0 0 0  0 0 1 0 0  0 0 0 1 0"/>
			</filter>
		</defs>
		<mask maskUnits="userSpaceOnUse" x="1" y="1" width="25.7" height="32.8" id="f_1_">
			<g class="st6">
				<path id="e_1_" class="st2" d="M0,0h27v33.8H0V0z"/>
			</g>
		</mask>
		<path class="st7" d="M26.7,1H14.5c-0.9,0-1.8,0.6-2.1,1.4L1,33.8h12.3L24.7,2.4C25,1.6,25.8,1,26.7,1L26.7,1z"/>
	</g>
</g>
</svg>
