<svg xmlns="http://www.w3.org/2000/svg" viewBox="0 0 175.96 24.13"><defs><style>.cls-1{fill:#fff;}</style></defs><title>nextdoor_1</title><g id="Layer_2" data-name="Layer 2"><g id="logos"><g id="_5K" data-name="5K"><g id="nextdoor"><polygon class="cls-1" points="52.28 16.59 42.67 0 37.6 0 37.6 23.69 41.87 23.69 41.87 7.53 51.38 23.65 51.41 23.69 56.59 23.69 56.59 0 52.28 0 52.28 16.59 52.28 16.59"/><path class="cls-1" d="M71.56,12.77H63.68c.25-2.56,1.67-4,4-4s3.65,1.37,3.87,4ZM67.72,5.38c-5.34,0-8.65,3.6-8.65,9.39s3.5,9.36,8.92,9.36A9,9,0,0,0,76,20l0-.08L72.42,18l0,.08a4.48,4.48,0,0,1-4.19,2.41c-2.8,0-4.36-1.61-4.51-4.63H76.17v-1c0-5.78-3.31-9.52-8.45-9.52Z"/><path class="cls-1" d="M103.21,20.43c-1.48,0-2-.57-2-2.1V9.15h4.4V5.82h-4.4V1.34H96.71V5.82H94.29V9.15h2.42V19c0,3.47,1.78,5.16,5.46,5.16a11.74,11.74,0,0,0,3.72-.57l.06,0V20l-.11,0a10.24,10.24,0,0,1-2.63.4Z"/><path class="cls-1" d="M115.69,9c2.55,0,4.14,2.19,4.14,5.7s-1.51,5.72-4.14,5.72-4.25-2-4.25-5.72S113,9,115.69,9Zm3.94-1.69a6.18,6.18,0,0,0-4.85-2c-4.7,0-8,3.86-8,9.39s3.15,9.36,7.84,9.36a6.46,6.46,0,0,0,5.06-2.25v1.81h4.41V0h-4.48V7.35Z"/><path class="cls-1" d="M139.49,14.7c0,3.66-1.61,5.76-4.41,5.76s-4.42-2.1-4.42-5.76S132.27,9,135.08,9s4.41,2.07,4.41,5.66Zm-4.41-9.32c-5.44,0-9.09,3.77-9.09,9.39a9.55,9.55,0,0,0,2.41,6.7,8.87,8.87,0,0,0,6.68,2.66c5.52,0,9.09-3.67,9.09-9.36,0-5.53-3.74-9.39-9.09-9.39Z"/><path class="cls-1" d="M159,14.7c0,3.66-1.61,5.76-4.42,5.76s-4.41-2.1-4.41-5.76S151.76,9,154.56,9,159,11.11,159,14.7Zm-4.42-9.32c-5.43,0-9.09,3.77-9.09,9.39s3.66,9.36,9.09,9.36,9.1-3.67,9.1-9.36c0-5.53-3.74-9.39-9.1-9.39Z"/><path class="cls-1" d="M175.88,5.44c-.33,0-.9-.06-1.28-.06a5.41,5.41,0,0,0-4.72,3.07V5.81H165.5V23.69H170V15.91c0-5.43,2.77-6.06,4.85-6.06.23,0,.44,0,1,0H176V5.45Z"/><polygon class="cls-1" points="93.4 5.81 88.72 5.81 85.31 11.3 81.94 5.81 77.02 5.81 82.42 14.1 76.28 23.69 81.07 23.69 85.18 16.79 89.33 23.65 89.36 23.69 94.24 23.69 88.04 13.93 93.4 5.81 93.4 5.81"/><polygon class="cls-1" points="29.83 9.14 14.91 0 9.79 3.14 9.79 0 5.12 0 5.12 6 0 9.14 2.44 13.12 5.12 11.48 5.12 23.69 24.71 23.69 24.71 11.48 27.39 13.12 29.83 9.14 29.83 9.14"/></g></g></g></g></svg>