<svg xmlns="http://www.w3.org/2000/svg" viewBox="0 0 503.43 69.04"><defs><style>.cls-1{fill:#0db14b;}</style></defs><title>nextdoor</title><g id="Layer_2" data-name="Layer 2"><g id="logos"><g id="_5K" data-name="5K"><g id="nextdoor"><polygon class="cls-1" points="149.57 47.48 122.09 0 107.57 0 107.57 67.79 119.79 67.79 119.79 21.55 147.01 67.67 147.09 67.79 161.9 67.79 161.9 0 149.57 0 149.57 47.48 149.57 47.48"/><path class="cls-1" d="M204.73,36.53H182.2c.72-7.31,4.78-11.32,11.46-11.32s10.45,3.91,11.07,11.32Zm-11-21.15c-15.27,0-24.76,10.3-24.76,26.88C169,58.53,179,69,194.52,69c10.14,0,18.09-4.13,23-11.94l.14-.23-10.45-5.33-.12.21a12.85,12.85,0,0,1-12,6.89c-8,0-12.46-4.58-12.91-13.25h35.75V42.64c0-16.56-9.5-27.26-24.19-27.26Z"/><path class="cls-1" d="M295.3,58.45c-4.23,0-5.81-1.63-5.81-6V26.18h12.6V16.65h-12.6V3.85h-12.8v12.8h-6.92v9.53h6.92v28.1c0,9.93,5.11,14.76,15.63,14.76A33.38,33.38,0,0,0,303,67.39l.17,0V57.22l-.31.08a29.69,29.69,0,0,1-7.53,1.15Z"/><path class="cls-1" d="M331,25.88c7.31,0,11.86,6.24,11.86,16.28,0,10.41-4.32,16.38-11.86,16.38-7.84,0-12.15-5.81-12.15-16.38,0-10.35,4.43-16.28,12.15-16.28ZM342.27,21c-3.46-3.79-8-5.64-13.88-5.64-13.45,0-22.84,11-22.84,26.88,0,16,9,26.78,22.46,26.78a18.39,18.39,0,0,0,14.45-6.45v5.2h12.62V0H342.27V21Z"/><path class="cls-1" d="M399.1,42.07c0,10.47-4.6,16.47-12.63,16.47s-12.63-6-12.63-16.47c0-10.29,4.6-16.19,12.63-16.19s12.63,5.9,12.63,16.19ZM386.47,15.38c-15.56,0-26,10.8-26,26.88,0,7.72,2.38,14.35,6.89,19.17,4.66,5,11.28,7.61,19.12,7.61,15.8,0,26-10.51,26-26.78,0-15.83-10.69-26.88-26-26.88Z"/><path class="cls-1" d="M454.85,42.07c0,10.47-4.6,16.47-12.63,16.47s-12.63-6-12.63-16.47c0-10.29,4.61-16.19,12.63-16.19s12.63,5.9,12.63,16.19ZM442.22,15.38c-15.56,0-26,10.8-26,26.88S426.66,69,442.22,69c15.8,0,26-10.51,26-26.78,0-15.83-10.69-26.88-26-26.88Z"/><path class="cls-1" d="M503.21,15.57c-1-.09-2.59-.19-3.68-.19-5.49,0-10.25,3.11-13.49,8.79V16.63H473.52V67.79h12.8V45.53c0-15.55,7.93-17.34,13.88-17.34.67,0,1.25,0,3,.09l.26,0V15.6l-.22,0Z"/><polygon class="cls-1" points="267.22 16.63 253.84 16.63 244.09 32.32 234.45 16.63 220.37 16.63 235.81 40.34 218.26 67.79 231.95 67.79 243.71 48.03 255.59 67.67 255.66 67.79 269.64 67.79 251.89 39.86 267.22 16.63 267.22 16.63"/><polygon class="cls-1" points="85.35 26.15 42.67 0 28.01 8.99 28.01 0 14.64 0 14.64 17.18 0 26.15 6.98 37.55 14.64 32.85 14.64 67.79 70.7 67.79 70.7 32.85 78.36 37.55 85.35 26.15 85.35 26.15"/></g></g></g></g></svg>