<?xml version="1.0" encoding="utf-8"?>
<!-- Generator: Adobe Illustrator 19.1.0, SVG Export Plug-In . SVG Version: 6.00 Build 0)  -->
<svg version="1.1" id="Layer_1" xmlns="http://www.w3.org/2000/svg" xmlns:xlink="http://www.w3.org/1999/xlink" x="0px" y="0px"
	 viewBox="0 0 979.2 633.6" style="enable-background:new 0 0 979.2 633.6;" xml:space="preserve">
<style type="text/css">
	.st0{fill:#65666A;}
	.st1{fill:#326297;}
</style>
<path class="st0" d="M673.2,187.3h-45.4v103.4H509.4V187.3H464v259.8h45.4V330h118.3v117.2h45.4V187.3z M418.4,447.1V187.3H373
	v259.8H418.4z M328.1,447.1V187.3h-43.3v191.4H284L165.4,187.3h-48v259.8h43.4V256h1.1l118.3,191.1H328.1z M833.5,316.3L672.2,607.1
	H80.8c-29.5,0-53.5-23.9-53.5-53.5V79.4c0-29.5,23.9-53.5,53.5-53.5h592L833.5,316.3z"/>
<path class="st1" d="M712.6,607.3l161-291L713.1,25.8h40.2c22,0,48.8,15.8,59.4,35L954,316.2L812.2,572.2
	c-10.6,19.2-37.4,35-59.4,35L712.6,607.3z"/>
</svg>
