<svg xmlns="http://www.w3.org/2000/svg" viewBox="0 0 67.5 45.94"><defs><style>.cls-1{fill:#fff;}</style></defs><title>nih</title><g id="Layer_2" data-name="Layer 2"><g id="logos"><g id="_5K" data-name="5K"><g id="nih"><path class="cls-1" d="M47,45.94H3.89A4,4,0,0,1,.07,42.5,5.37,5.37,0,0,1,0,41.6V4.27a4.45,4.45,0,0,1,.42-2A3.92,3.92,0,0,1,3.25.05a3.44,3.44,0,0,1,.64,0H46.77c.33,0,.25,0,.42.27l8.64,16.94,2.83,5.55a.38.38,0,0,1,0,.4q-3.22,6.27-6.42,12.54L47.1,45.76ZM18.74,12.77V27.83h0l-.1-.15L12.8,17.52l-2.63-4.6c-.06-.11-.12-.19-.26-.19H6.73l-.16,0c0,.27,0,20.39,0,20.55H9.72c0-.11,0-.21,0-.32V18.47a2.18,2.18,0,0,1,0-.25h0l.11.17c1.13,2,2.27,4,3.41,6l5,8.77a.28.28,0,0,0,.29.18h3.31V12.77C21.75,12.72,18.93,12.72,18.74,12.77ZM47.08,33.32c0-.3,0-20.42,0-20.57l-.18,0H44l-.2,0v7.33c0,.27,0,.54,0,.8-.31,0-8.43,0-8.58,0V14.79c0-.67,0-1.35,0-2a31.18,31.18,0,0,0-3.35,0V33.15l0,.15h3.33v-9a1.93,1.93,0,0,1,0-.24h8.58v9.14c0,.08,0,.12.11.12H44c1,0,1.93,0,2.9,0ZM25.19,12.74V33.28c.21,0,3.19,0,3.34,0V13c0-.22,0-.22-.21-.23H25.19Z"/><path class="cls-1" d="M50,45.94l.11-.24q2.41-4.71,4.81-9.42l5.2-10.18,1.51-3a.33.33,0,0,0,0-.36L57.14,14q-2.34-4.62-4.7-9.24L50.15.23,50.06,0l.13,0c1,0,1.93,0,2.89,0A3.76,3.76,0,0,1,54.62.4a5.57,5.57,0,0,1,2.3,1.85,3,3,0,0,1,.33.54Q60.15,8.45,63,14.12l4.42,8.66a.36.36,0,0,1,0,.36l-4.82,9.42L57.2,43.19a4.73,4.73,0,0,1-1.41,1.63,5.23,5.23,0,0,1-2.25,1,3.55,3.55,0,0,1-.56.06H50Z"/></g></g></g></g></svg>