<svg xmlns="http://www.w3.org/2000/svg" viewBox="0 0 96.26 23.02"><defs><style>.cls-1{fill:#fff;}</style></defs><title>palantir</title><g id="Layer_2" data-name="Layer 2"><g id="logos"><g id="_2K" data-name="2K"><g id="palatinr"><path class="cls-1" d="M17.84,8.75A8.74,8.74,0,1,1,9.2,0,8.72,8.72,0,0,1,17.84,8.75Zm-2.71,0a6,6,0,1,0-6.06,6A6,6,0,0,0,15.13,8.76Z"/><path class="cls-1" d="M26,20.28H23.51V2.38H24c2,0,4,0,6,0a14,14,0,0,1,1.93.16,4.15,4.15,0,0,1,3.49,3,4.94,4.94,0,0,1-1.16,5.28,4.77,4.77,0,0,1-2.59,1.29,14,14,0,0,1-2.49.21H26Zm0-10.07a1.62,1.62,0,0,0,.19,0c1.31,0,2.63,0,3.94-.07a4.64,4.64,0,0,0,1.4-.35A2.28,2.28,0,0,0,32.9,8.31,4.3,4.3,0,0,0,33,6.79a2.25,2.25,0,0,0-1.85-2.21,7.69,7.69,0,0,0-1.52-.16c-1.09,0-2.19,0-3.29,0l-.35,0Z"/><path class="cls-1" d="M36,11.16a3.25,3.25,0,0,1,2.24-3.25,7.58,7.58,0,0,1,5.37,0,3,3,0,0,1,2.1,3.12c0,1.26-.05,2.52-.07,3.77,0,1.1,0,2.2,0,3.3,0,.7.09,1.39.13,2.12H43.72a5.87,5.87,0,0,1-.25-1.68,3.45,3.45,0,0,0-.24.3A3.86,3.86,0,0,1,40,20.68a6.46,6.46,0,0,1-2-.18A3.68,3.68,0,0,1,36,14.68a4.67,4.67,0,0,1,2.89-1.84,14.11,14.11,0,0,1,3.49-.28h1a1.42,1.42,0,0,0,0-.31c0-.55,0-1.11-.11-1.66a1.51,1.51,0,0,0-.91-1.16,3.52,3.52,0,0,0-2.81-.14,1.83,1.83,0,0,0-1.19,1.46c0,.11,0,.23-.06.41C37.58,11.19,36.82,11.18,36,11.16Zm7.38,3.1a10.54,10.54,0,0,0-3.37.1,3.84,3.84,0,0,0-1.46.57A2.1,2.1,0,0,0,39,18.65a3.67,3.67,0,0,0,1.47.17,2.88,2.88,0,0,0,2.68-2.05A8.67,8.67,0,0,0,43.41,14.26Z"/><path class="cls-1" d="M62.21,20.27H60.08l-.23-1.62a1.16,1.16,0,0,0-.18.2,3.94,3.94,0,0,1-3.49,1.84,6.37,6.37,0,0,1-1.74-.2,3.64,3.64,0,0,1-2.21-5.57,4.45,4.45,0,0,1,2.73-2,13,13,0,0,1,3.83-.36h1a7.83,7.83,0,0,0-.1-2,1.6,1.6,0,0,0-.93-1.15,3.5,3.5,0,0,0-2.73-.15,1.8,1.8,0,0,0-1.25,1.51c0,.11,0,.22-.07.36H52.43a3.39,3.39,0,0,1,1.39-2.8,5,5,0,0,1,1.91-.73,8.06,8.06,0,0,1,4,.23,5.42,5.42,0,0,1,1,.43,2.71,2.71,0,0,1,1.43,2.28c0,.89,0,1.79,0,2.68s-.06,2,0,3c0,1.17.08,2.34.12,3.51C62.19,19.89,62.2,20.07,62.21,20.27Zm-2.38-6a10.55,10.55,0,0,0-3.6.15,3.65,3.65,0,0,0-1.39.63,2,2,0,0,0-.78,1.89,2,2,0,0,0,1.34,1.71,3.65,3.65,0,0,0,1.47.18,2.87,2.87,0,0,0,2.73-2.09A9.21,9.21,0,0,0,59.83,14.26Z"/><path class="cls-1" d="M66.57,20.28H64.23V7.86h2.28l.07,1.84a2.94,2.94,0,0,0,.18-.25,3.91,3.91,0,0,1,2.71-1.77A5.54,5.54,0,0,1,72.66,8,3.64,3.64,0,0,1,75,11.27a6.08,6.08,0,0,1,0,.61v8.39H72.67c0-.17,0-.34,0-.51q0-3.6,0-7.2a8.47,8.47,0,0,0-.08-1.13,2.07,2.07,0,0,0-1-1.49A3.17,3.17,0,0,0,66.69,12a5.14,5.14,0,0,0-.11,1.18c0,2.19,0,4.39,0,6.58Z"/><path class="cls-1" d="M16.92,16.7l1.29,2.47a3.53,3.53,0,0,1-.33.17l-8.43,3.6a.79.79,0,0,1-.67,0L.31,19.33A2.1,2.1,0,0,1,0,19.18l1.29-2.47.51.2c2.29,1,4.59,2,6.88,3a1,1,0,0,0,.87,0l6.88-3Z"/><path class="cls-1" d="M83,18.54v1.75a1.55,1.55,0,0,1-.23.08,10.63,10.63,0,0,1-2.76,0l-.47-.1A2,2,0,0,1,78,18.51a7.89,7.89,0,0,1-.06-1V9.6H75.87a4.46,4.46,0,0,1,0-1.76H78V5.2l2.33-.75V7.81H83c0,.6,0,1.16,0,1.76H80.31c0,.17,0,.3,0,.43v7c0,1.1.47,1.58,1.58,1.6C82.24,18.62,82.62,18.57,83,18.54Z"/><path class="cls-1" d="M47.82,2.4H50c.1.31.13,17.33,0,17.87H47.85C47.75,20,47.72,3,47.82,2.4Z"/><path class="cls-1" d="M89.29,7.86h2.35l.08,2a3.61,3.61,0,0,1,1.9-1.77,5.91,5.91,0,0,1,2.64-.32V10c-.44,0-.87-.05-1.31,0A5,5,0,0,0,94,10a2.6,2.6,0,0,0-2.09,2.27,7.17,7.17,0,0,0-.11,1.31q0,3.06,0,6.14v.54H89.44c0-.19,0-.36,0-.53,0-3,0-6,0-8.95,0-.93-.08-1.85-.11-2.77A1,1,0,0,1,89.29,7.86Z"/><path class="cls-1" d="M85,20.27V7.83h2.23c.11.33.15,11.84,0,12.44Z"/><path class="cls-1" d="M84.71,5V2.46a14,14,0,0,1,2.76,0V5Z"/></g></g></g></g></svg>