<svg xmlns="http://www.w3.org/2000/svg" viewBox="0 0 196.44 24.75"><defs><style>.cls-1{fill:#fff;}</style></defs><title>perfectsense</title><g id="Layer_2" data-name="Layer 2"><g id="logos"><g id="_20-22K" data-name="20-22K"><g id="perfectsense"><path class="cls-1" d="M13.72,12.06a5.77,5.77,0,0,1,3.47,5.58c0,2.46-.8,4.64-3.13,5.85a8.23,8.23,0,0,1-3.35,1c-3.43.12-6.88,0-10.32,0a3,3,0,0,1-.39,0V.28C.2.26.39.22.58.22,3.7.22,6.82.15,9.93.25A9.61,9.61,0,0,1,13.26,1,5.67,5.67,0,0,1,16.78,6.2,5.56,5.56,0,0,1,14,11.85,2.26,2.26,0,0,0,13.72,12.06Zm-10,9c2.32,0,4.53.12,6.72,0a3.3,3.3,0,0,0,3-3.54,3.32,3.32,0,0,0-3.08-3.54c-2.07-.15-4.16-.09-6.24-.09a.57.57,0,0,0-.38.4C3.72,16.53,3.73,18.81,3.73,21.06Zm0-10.71c2.23,0,4.34.13,6.43,0a3.05,3.05,0,0,0,2.89-3.4,3.1,3.1,0,0,0-3-3.24c-2-.15-3.91-.09-5.87-.09A.63.63,0,0,0,3.75,4C3.72,6.13,3.73,8.26,3.73,10.35Z"/><path class="cls-1" d="M21.44.24c3.52,0,7-.24,10.45,0,6,.49,7.52,6,6,9.85a6,6,0,0,1-3.4,3.34l-.84.35,5.54,10.66c-1.46,0-2.82,0-4.18,0-.17,0-.37-.35-.49-.57-1.5-3-3-6-4.46-9A1,1,0,0,0,29,14.27q-1.54.06-3.09,0c-.57,0-.73.16-.73.73,0,2.91,0,5.82,0,8.74,0,.22,0,.44,0,.71H21.44ZM25.15,11a5,5,0,0,0,.58.06c1.88,0,3.78.1,5.65-.06a3.42,3.42,0,0,0,3.27-3.71A3.39,3.39,0,0,0,31.4,3.68c-1.92-.16-3.86-.09-5.79-.08-.16,0-.43.31-.44.49-.05.75,0,1.5,0,2.26Z"/><path class="cls-1" d="M162.24.17a12.17,12.17,0,1,1-12.13,12.2A12.13,12.13,0,0,1,162.24.17Zm.09,3.51a8.72,8.72,0,0,0-8.72,8.63,8.66,8.66,0,1,0,17.31,0A8.7,8.7,0,0,0,162.33,3.68Z"/><path class="cls-1" d="M64.54,14.54H59.36V11.42h8.87c0,2.42.22,4.81-.39,7.15a7.84,7.84,0,0,1-6.64,6,8.8,8.8,0,0,1-8.86-3.06,7.32,7.32,0,0,1-1.67-4.74c-.06-3.11-.07-6.23.09-9.33C51,2.92,55,.24,58.54,0,63.33-.26,66.88,2.23,68,6.74c.06.24.09.49.15.85-1.2,0-2.35,0-3.49,0-.16,0-.37-.41-.45-.66a4.76,4.76,0,0,0-3.67-3.4c-2.92-.62-5.48.91-5.93,3.84a32.38,32.38,0,0,0,.06,10.35c.4,2.39,2.32,3.71,5,3.66a4.84,4.84,0,0,0,4.68-3.94C64.46,16.5,64.46,15.57,64.54,14.54Z"/><path class="cls-1" d="M76.15,24.47H72.49V.26h3.6c0,.26,0,.52,0,.78V9.86c0,.4,0,.74.55.73,3,0,5.94,0,8.9,0a1.37,1.37,0,0,0,.3-.06V.27H89.6V24.45H85.94V14H76.15Z"/><path class="cls-1" d="M135.2,15v9.47h-3.69V.26a3.27,3.27,0,0,1,.44,0c3.09,0,6.18,0,9.27,0a7.12,7.12,0,0,1,7.15,5.89,7.28,7.28,0,0,1-7.2,8.86C139.22,15,137.26,15,135.2,15Zm.05-3.46c2.09,0,4.12.11,6.14,0A3.6,3.6,0,0,0,144.73,8c.09-2.32-1-4.06-3-4.27a63.73,63.73,0,0,0-6.49,0Z"/><path class="cls-1" d="M127.19,2.73l-2.37,2.36a7.53,7.53,0,0,0-6.42-1.71,3.59,3.59,0,0,0-3.09,4.55c.47,1.65,1.88,2.11,3.34,2.39s3,.43,4.45.77a6,6,0,0,1,5,5.66,6.7,6.7,0,0,1-3.58,6.83,11.14,11.14,0,0,1-5.31,1.17,11.48,11.48,0,0,1-7.41-2.27l-.57-.49-.41-.39,2.5-2.47a7.4,7.4,0,0,0,4.49,2.14,8.31,8.31,0,0,0,4.72-.54,3.35,3.35,0,0,0,1.85-3.63,3,3,0,0,0-2.6-2.73c-1.53-.3-3.08-.45-4.6-.75-2.63-.53-4.73-1.76-5.42-4.57a7,7,0,0,1,6.37-9c2.86-.28,5.63,0,8,1.77.26.19.51.4.76.61A3.2,3.2,0,0,1,127.19,2.73Z"/><path class="cls-1" d="M99.35,3.58H92.7V.27h17V3.56H103v20.9H99.35Z"/><path class="cls-1" d="M184.88,24.47h-3.7V23.6c0-6.39,0-12.78,0-19.16,0-.69-.17-.91-.87-.88-1.66,0-3.32,0-5,0h-.85V.28h17V3.57h-1.86c-1.34,0-2.67,0-4,0-.62,0-.81.17-.8.8,0,6.38,0,12.77,0,19.15Z"/><path class="cls-1" d="M46.27,24.46H42.65V.28h3.62Z"/><path class="cls-1" d="M194.59,0a1.86,1.86,0,0,1,1.85,1.8,1.89,1.89,0,0,1-1.82,1.84,1.82,1.82,0,0,1-1.81-1.81A1.78,1.78,0,0,1,194.59,0Zm-1.5,1.82a1.49,1.49,0,0,0,1.5,1.53,1.57,1.57,0,0,0,1.56-1.58A1.54,1.54,0,0,0,194.58.32,1.46,1.46,0,0,0,193.09,1.85Z"/><path class="cls-1" d="M195.31,2.77l-.94-.95-.24,1-.16,0V.84a3.62,3.62,0,0,1,.93,0c.19.05.46.28.47.46A10,10,0,0,1,195.31,2.77Z"/></g></g></g></g></svg>