<svg xmlns="http://www.w3.org/2000/svg" viewBox="0 0 71.05 53.93"><defs><style>.cls-1{fill:#fff;}</style></defs><title>pwc</title><g id="Layer_2" data-name="Layer 2"><g id="logos"><g id="_3K_IN_KIND" data-name="3K + IN KIND"><g id="pwc"><g id="g2925"><path id="path2850" class="cls-1" d="M48.09,35.61c-2.26.4-3.46,2.11-3.46,5.06s1.6,5,4,5c1.15,0,2.15-.4,4.25-1.45v2.45a12.63,12.63,0,0,1-6.06,1.5,6.4,6.4,0,0,1-5.1-1.9,6.83,6.83,0,0,1-2-5c0-4.25,3.2-7.21,7.85-7.21,3.06,0,5.21,1.45,5.21,3.51a2.27,2.27,0,0,1-2.45,2.3,4.51,4.51,0,0,1-2.2-.7"/><path id="path2852" class="cls-1" d="M36.83,41.32c2.05-2.55,2.8-3.6,2.8-4.85a2.36,2.36,0,0,0-2.4-2.36,2.71,2.71,0,0,0-1.9.85v5.26L32,44.72V34.51h-3.2l-5.3,8.76V34.51h-1.8l-4.86,1.1v1.26l2.65.25V48h3.36l5.1-8.4V48h3.75"/><path id="path2862" class="cls-1" d="M6.65,46.27h.76c2.7,0,4.2-1.65,4.2-5,0-2.75-1.2-4.25-3.45-4.25a8.3,8.3,0,0,0-1.51.2v9Zm0,5.91,2.21.5v1.25H.2V52.68l2-.5V37.07H0V35.81l5.25-1.6h1.4V36c2.46-1.5,3.31-1.75,4.61-1.75,2.9,0,5.1,2.71,5.1,6.46C16.36,45,13.41,48,8.91,48c-.5,0-1.35,0-2.26-.1"/><path id="path4625" class="cls-1" d="M45.2,16.55v6.6h8.27v-6.6Z"/><path id="path4703" class="cls-1" d="M45.2,16.55v6.6H58.4v-6.6Z"/><path id="path4708" class="cls-1" d="M45.2,16.55v6.6H61v-6.6Z"/><path id="path4119" class="cls-1" d="M32,23.16H45.21v3.3H32v-3.3Z"/><path id="path4698" class="cls-1" d="M45.2,6.61V23.15H61V6.61Z"/><path id="path4693" class="cls-1" d="M45.2,6.61V23.15H58.4V6.61Z"/><path id="path4117" class="cls-1" d="M53.46,23.16H45.21V13.23h8.25v9.93Z"/><path id="path4713" class="cls-1" d="M45.2,16.55v6.6H67.7v-6.6Z"/><path id="path4061" class="cls-1" d="M71.05,23.16H45.21V16.54H71.05Z"/><path id="path4103" class="cls-1" d="M67.7,23.16H45.21V6.61H67.7V23.16Z"/><path id="path4089" class="cls-1" d="M58.4,23.16H45.21V0H58.4Z"/><path id="path4075" class="cls-1" d="M61,23.16H45.21V2.58H61Z"/><path id="path4688" class="cls-1" d="M45.2,2.59V23.15H58.4V2.59Z"/></g></g></g></g></g></svg>