<svg xmlns="http://www.w3.org/2000/svg" viewBox="0 0 113.84 38.25"><defs><style>.cls-1{fill:#fff;}</style></defs><title>qualtrics</title><g id="Layer_2" data-name="Layer 2"><g id="logos"><g id="_5K" data-name="5K"><g id="qualtrics"><path class="cls-1" d="M12.37,9.18V38.25H9.72V27c-.36.33-.65.57-.93.83a4.39,4.39,0,0,1-6.25-.11A8.93,8.93,0,0,1,.3,22.54a18.78,18.78,0,0,1,.56-9.12,9.09,9.09,0,0,1,1.8-3.06,4.55,4.55,0,0,1,7.42.84c0-.49,0-1,0-1.48s.15-.56.56-.55S11.73,9.18,12.37,9.18ZM9.7,19c0-1.64,0-3.29,0-4.93a3.25,3.25,0,0,0-2.12-2.75,2.61,2.61,0,0,0-3,.81,6.62,6.62,0,0,0-1,1.89,17.9,17.9,0,0,0-.55,7.35,8.34,8.34,0,0,0,1.21,4.15,2.77,2.77,0,0,0,3.24,1.1A3.35,3.35,0,0,0,9.7,23.77C9.71,22.18,9.7,20.58,9.7,19Z"/><path class="cls-1" d="M46.14,26.52c0,.66,0,1.28,0,1.9a.73.73,0,0,1-.46.48,3.19,3.19,0,0,1-4.24-2.1c-.31.3-.6.57-.9.84A5.37,5.37,0,0,1,35.88,29,4.66,4.66,0,0,1,32,24.62a5.51,5.51,0,0,1,2.88-5.71c1.88-1.06,3.83-2,5.78-2.92.49-.24.67-.5.6-1a14.7,14.7,0,0,0-.18-1.78,2.38,2.38,0,0,0-1.86-2,2.61,2.61,0,0,0-2.86,1,19.54,19.54,0,0,0-1.24,2.7H33a5.42,5.42,0,0,1,4.79-6,8.66,8.66,0,0,1,2.92.26c2.15.63,3.31,2.55,3.33,5.28,0,3.42,0,6.84,0,10.26v.63c0,1.19.56,1.57,1.72,1.26A3.57,3.57,0,0,1,46.14,26.52ZM41.26,18.1c-1.15.54-2.16,1-3.16,1.49a12.18,12.18,0,0,0-1.46.9,4.44,4.44,0,0,0-1.75,2.33,3,3,0,0,0,1.76,3.89,4.44,4.44,0,0,0,4.53-2.08.8.8,0,0,0,.08-.37Z"/><path class="cls-1" d="M26,28.68V26.6c-.48.46-.82.8-1.18,1.12A5.19,5.19,0,0,1,20.45,29a3.34,3.34,0,0,1-2.77-2.15,6.55,6.55,0,0,1-.54-2.34c-.05-5,0-9.92,0-14.88a3.73,3.73,0,0,1,0-.43h2.67v.93c0,4.34,0,8.67,0,13a7.16,7.16,0,0,0,.26,2A2.08,2.08,0,0,0,23,26.63a5.33,5.33,0,0,0,2.74-2.34,1.6,1.6,0,0,0,.12-.83q0-6.62,0-13.24v-1H28.5V28.68Z"/><path class="cls-1" d="M100,22.79h2.36c.2.67.33,1.33.58,1.95a3.06,3.06,0,0,0,3,2,3,3,0,0,0,2.76-2,3.11,3.11,0,0,0-.91-3.55,26.66,26.66,0,0,0-2.6-1.73,27.9,27.9,0,0,1-2.56-1.64,5.09,5.09,0,0,1-1.52-6.25,5.33,5.33,0,0,1,5.89-2.7,5,5,0,0,1,4.22,4.76c0,.39,0,.77,0,1.21h-2.4a12.91,12.91,0,0,0-.26-1.72,2.55,2.55,0,0,0-2.4-2,2.49,2.49,0,0,0-2.67,1.48,2.57,2.57,0,0,0,.79,3.11c.83.65,1.81,1.12,2.71,1.69a23.18,23.18,0,0,1,2.66,1.77,5.75,5.75,0,0,1,1.54,6.44,5.3,5.3,0,0,1-5,3.44A5.71,5.71,0,0,1,100,22.79Z"/><path class="cls-1" d="M97.54,15.71H95c-.1-.73-.14-1.46-.3-2.16-.38-1.69-1.53-2.58-3-2.35a2.7,2.7,0,0,0-2.18,1.93,17.71,17.71,0,0,0-.87,3.78,17.7,17.7,0,0,0,.4,6.68,6.92,6.92,0,0,0,1.07,2.22,2.4,2.4,0,0,0,4.11-.32A11,11,0,0,0,95,22.83a4.35,4.35,0,0,0,0-1H97.8A27.37,27.37,0,0,1,96.74,26a5.22,5.22,0,0,1-9.07.89A10.31,10.31,0,0,1,86,22.08a20.38,20.38,0,0,1,.44-8.3c.65-2.25,1.8-4.11,4.26-4.77a5.06,5.06,0,0,1,6.64,4.24C97.45,14,97.47,14.84,97.54,15.71Z"/><path class="cls-1" d="M58.19,3.46h2.68V9.15h4V11.5h-4V24.24c0,.11,0,.21,0,.32,0,1.92,1.24,2.66,3,1.82.25-.12.49-.28.87-.5,0,.79,0,1.47,0,2.15,0,.17-.25.37-.43.47A5.14,5.14,0,0,1,61,29a3.36,3.36,0,0,1-2.83-3.2,21.07,21.07,0,0,1-.06-2.11V11.54h-3V9.2h3.07Z"/><path class="cls-1" d="M48.93,0h2.6V28.7h-2.6Z"/><path class="cls-1" d="M70.91,28.73H68.23V9.23h2.52L71,11.8c1.31-2.08,2.9-3.27,5.32-2.89v2.44a7.75,7.75,0,0,1-.94.11,4.47,4.47,0,0,0-4,2.51,2.9,2.9,0,0,0-.37,1.31c0,4.15,0,8.3,0,12.45Z"/><path class="cls-1" d="M82.12,28.71H79.5V9.24h2.62Z"/><path class="cls-1" d="M79.55,1.33h2.59V4.67H79.55Z"/><path class="cls-1" d="M112.05,29l.46-.21-.69-.33c.19-.2.27-.35.32-.34.39.05.78.13,1.17.2v.24l.44-.55.1.88-1.71.21Z"/></g></g></g></g></svg>