<svg xmlns="http://www.w3.org/2000/svg" viewBox="0 0 162 29.67"><defs><style>.cls-1{fill:#fff;}</style></defs><title>qualcomm</title><g id="Layer_2" data-name="Layer 2"><g id="logos"><g id="_10K" data-name="10K"><g id="qualcomm"><path class="cls-1" d="M115.63,13.11c-.12.27-.21.45-.28.65l-4,10.82c-.26.7-.44.82-1.17.82q-.87,0-1.74,0c-.78,0-1-.28-.68-1l1.35-3.53q2.18-5.7,4.36-11.4a3.56,3.56,0,0,1,.17-.41.77.77,0,0,1,.75-.47H117a.82.82,0,0,1,.81.61c.29.76.57,1.52.85,2.28,1,2.82,2.09,5.64,3.13,8.47.06.15.13.29.2.44.26-.07.27-.28.33-.44.37-1,.72-1.92,1.08-2.88,1-2.59,1.93-5.17,2.89-7.76a.9.9,0,0,1,1-.72c.75,0,1.49,0,2.24,0a1,1,0,0,1,1,.72c.47,1.31,1,2.61,1.45,3.91l2.46,6.66c.06.17.15.35.24.55a.78.78,0,0,0,.34-.53c.94-2.53,1.87-5.06,2.81-7.58.37-1,.73-2,1.1-3,.24-.63.41-.73,1.07-.74h2.24c.61,0,.79.13,1,.69l3.86,10.26c.11.29.24.57.36.85h.11c.06-.12.14-.23.19-.36l2.58-7c.45-1.23.9-2.46,1.36-3.68.23-.61.39-.72,1-.73h2.29c.62,0,.8.13,1,.72.67,1.72,1.32,3.43,2,5.15l3.8,10c.29.75.12,1-.69,1q-.94,0-1.89,0a.93.93,0,0,1-1.07-.75l-4.05-10.88c-.06-.17-.14-.33-.21-.5-.28.08-.29.31-.35.48-.5,1.29-1,2.59-1.48,3.89l-2.61,6.92c-.27.7-.47.84-1.22.84-.53,0-1.05,0-1.58,0-.7,0-.92-.14-1.16-.78-.62-1.6-1.22-3.21-1.83-4.82l-2.32-6.12c-.06-.17-.14-.33-.21-.49-.25.06-.26.25-.31.4l-2.1,5.62c-.66,1.78-1.32,3.57-2,5.35-.25.68-.49.84-1.22.84s-1.16,0-1.74,0a1,1,0,0,1-1.12-.78c-.47-1.29-.94-2.58-1.42-3.86l-2.65-7.17c-.05-.13-.12-.26-.19-.41-.24.09-.25.29-.31.45q-.95,2.44-1.88,4.91c-.78,2-1.55,4.05-2.32,6.07-.26.66-.45.79-1.15.79s-1.13,0-1.69,0-.87-.15-1.1-.77q-1.94-5.16-3.85-10.32c-.1-.28-.2-.56-.32-.84A2.24,2.24,0,0,0,115.63,13.11Z"/><path class="cls-1" d="M25.69,13a12.62,12.62,0,0,1-4.28,9.72c-.39.35-.83.65-1.26,1s-.4.29-.22.77c.51,1.34,1,2.68,1.54,4,.35.9.13,1.22-.85,1.22H18.94a1,1,0,0,1-1.16-.79c-.39-1-.77-2-1.16-3-.19-.48-.2-.49-.68-.37a13,13,0,0,1-4.44.28,12.45,12.45,0,0,1-8.26-4.16,12.36,12.36,0,0,1-3.11-6.8A13,13,0,0,1,2.62,5,12.23,12.23,0,0,1,10.3.26,12.85,12.85,0,0,1,19,1.52a12.44,12.44,0,0,1,6.34,8.24A11.47,11.47,0,0,1,25.69,13Zm-7.22,7.56c.21-.17.39-.28.54-.42a9.07,9.07,0,0,0,2.26-3.52A10.85,10.85,0,0,0,21.74,11a9.13,9.13,0,0,0-2.47-5,8.62,8.62,0,0,0-8-2.51A8.49,8.49,0,0,0,4.44,9.3,10.45,10.45,0,0,0,4,15.16a9,9,0,0,0,2.75,5,8.84,8.84,0,0,0,8,2.14,2.68,2.68,0,0,0,.33-.14,5.14,5.14,0,0,0-.15-.54l-1.11-2.87c-.26-.7-.53-1.39-.8-2.09-.19-.51-.1-1.06.72-1,.64,0,1.29,0,1.93,0a1,1,0,0,1,1.12.77L18.23,20C18.29,20.14,18.37,20.29,18.47,20.52Z"/><path class="cls-1" d="M61.05,23.26a1.43,1.43,0,0,0-.3.23,6.58,6.58,0,0,1-5.41,2.34A8.06,8.06,0,0,1,47.86,21a9.17,9.17,0,0,1-.8-5.22,8.78,8.78,0,0,1,1.63-4.26,8.08,8.08,0,0,1,5.63-3.37,7,7,0,0,1,4.91.95,15.1,15.1,0,0,1,1.43,1.22,4.48,4.48,0,0,1,.35.37,1.64,1.64,0,0,0,.09-.38c0-.31,0-.63,0-.94a.75.75,0,0,1,.79-.78c.68,0,1.35,0,2,0a.61.61,0,0,1,.7.56,2.42,2.42,0,0,1,.06.54V24.33a2.05,2.05,0,0,1-.06.49.7.7,0,0,1-.71.58c-.68,0-1.36,0-2,0a.77.77,0,0,1-.78-.8c0-.31,0-.63,0-.94C61.1,23.54,61.07,23.43,61.05,23.26Zm-5-11.88a4.93,4.93,0,0,0-4.35,2.06,5.88,5.88,0,0,0-.54,6.17,5.15,5.15,0,0,0,8.78,1,5.84,5.84,0,0,0,1.15-4.39A5.18,5.18,0,0,0,56.07,11.38Z"/><path class="cls-1" d="M98.77,25.83A8.71,8.71,0,0,1,89.9,17a8.86,8.86,0,1,1,17.71,0A8.7,8.7,0,0,1,98.77,25.83Zm-5.26-8.91c0,.28,0,.56,0,.84a3.38,3.38,0,0,0,.09.54,5.21,5.21,0,0,0,5.92,4.21,5.05,5.05,0,0,0,4.07-3.25,5.83,5.83,0,0,0,.4-2.92,5.36,5.36,0,0,0-2.11-3.94,5.07,5.07,0,0,0-3.4-1,4.87,4.87,0,0,0-3.23,1.31A5.41,5.41,0,0,0,93.51,16.92Z"/><path class="cls-1" d="M40.72,23.4l-.33.35a6,6,0,0,1-4.31,2.06,8.88,8.88,0,0,1-2.86-.2,6.2,6.2,0,0,1-4.78-5,8.68,8.68,0,0,1-.21-2c0-3,0-6,0-9v-.4a.63.63,0,0,1,.61-.66c.76,0,1.53,0,2.29,0a.59.59,0,0,1,.6.6c0,.16,0,.33,0,.5V18a6.13,6.13,0,0,0,.41,2.28,3.91,3.91,0,0,0,3.49,2.48,5.3,5.3,0,0,0,2.49-.29,4.25,4.25,0,0,0,2.71-3.57,9.79,9.79,0,0,0,.07-1.43q0-3.81,0-7.6V9.45c0-.68.21-.87.9-.88H43.6c.57,0,.82.26.83.82s0,1,0,1.54V24.29c0,.9-.21,1.11-1.1,1.11-.53,0-1.06,0-1.59,0s-.81-.26-.83-.82c0-.25,0-.5,0-.75a3.05,3.05,0,0,0,0-.41Z"/><path class="cls-1" d="M83.37,25.83a8.56,8.56,0,0,1-5.11-1.42,8,8,0,0,1-3.36-4.82,9.69,9.69,0,0,1,1-7.65,7.79,7.79,0,0,1,5.5-3.72,9.42,9.42,0,0,1,5.64.59,10.31,10.31,0,0,1,1.55.88c.49.34.53.65.2,1.14s-.63.89-1,1.33a.68.68,0,0,1-1,.22c-.34-.17-.66-.38-1-.54a5.3,5.3,0,0,0-4.6-.13,5,5,0,0,0-2.87,3.59,6.11,6.11,0,0,0,1.15,5.61,4.79,4.79,0,0,0,3.41,1.71A5.67,5.67,0,0,0,86,22c.27-.13.52-.29.79-.42a.69.69,0,0,1,1,.2c.37.45.73.9,1.08,1.37s.28.71-.15,1.06a7.09,7.09,0,0,1-2.13,1.15A8.46,8.46,0,0,1,83.37,25.83Z"/><path class="cls-1" d="M72,12.93c0,3.77,0,7.54,0,11.32,0,.89-.21,1.2-1.15,1.16-.48,0-1,0-1.44,0s-.92-.31-.94-.95v-.3c0-7.48,0-15,0-22.44,0-.95.31-1.32,1.25-1.26.46,0,.92,0,1.39,0,.65,0,.89.24.89.91C72,3.24,72,5.13,72,7Z"/></g></g></g></g></svg>