<svg xmlns="http://www.w3.org/2000/svg" viewBox="0 0 108 25.37"><defs><style>.cls-1{fill:#fff;}</style></defs><title>rockwell</title><g id="Layer_2" data-name="Layer 2"><g id="logos"><g id="_1K" data-name="1K"><g id="rockwell_collins" data-name="rockwell collins"><path id="path3836" class="cls-1" d="M10.54,0,5.06,0,0,11.5H3.6L5.41,7.32l1.3,0a3,3,0,0,1,1,.1,1.11,1.11,0,0,1,.78,1.38,5,5,0,0,1-.19.56l-1,2.18h3.57l1.22-2.78c.64-1.58-.57-2.11-.57-2.11a4.39,4.39,0,0,0-1.11-.32l0,0a5.66,5.66,0,0,0,1-.1A4,4,0,0,0,14,4.62a3.25,3.25,0,0,0,.64-2.47A2.37,2.37,0,0,0,13.42.48,4.79,4.79,0,0,0,11.79.06C11.33,0,10.54,0,10.54,0ZM38.93,0l-5,11.5h3.53l1.74-4,1.25,4h3.66L42.71,8.28a11.61,11.61,0,0,0-.54-1.17A13.17,13.17,0,0,0,43.74,6l3.51-2.78L45.93,11.5h4l4.83-6a1.24,1.24,0,0,0,.11-.17l0,0a1.78,1.78,0,0,0-.13.44l-.92,5.67H58L65.21,3h-4L56.76,8.68l-.08.16,0,0c0-.13.08-.37.08-.37L57.62,3H54.1L49.63,8.63l-.15.21,0,0a2,2,0,0,0,.11-.33L50.47,3,43.74,3,39.39,6.75h0a12.18,12.18,0,0,0,.75-1.48L42.46,0Zm39.7,0-5,11.5h3.57l5-11.5Zm5.73,0-5,11.5h3.57l5-11.5ZM8.84,1.86a9,9,0,0,1,1.07.06,1.38,1.38,0,0,1,.86.48,1.48,1.48,0,0,1,.12,1.49A2.46,2.46,0,0,1,9.47,5.25a4.36,4.36,0,0,1-1.23.14l-2,0L7.8,1.9Zm61.53.84a7.36,7.36,0,0,0-.8,0,7.75,7.75,0,0,0-4.3,1.88,6,6,0,0,0-1.9,2.78A3.51,3.51,0,0,0,63.22,9c.29,2,2.55,2.49,2.55,2.49a10.82,10.82,0,0,0,1.84.23,17.63,17.63,0,0,0,3.6-.21l.43-.07.88-1.9c-.24.07-.51.14-.85.21A13.69,13.69,0,0,1,69,9.93a5.18,5.18,0,0,1-1.19-.17,2,2,0,0,1-.92-.52,1.31,1.31,0,0,1-.23-1.32l6.67-.1.06-.08a5.6,5.6,0,0,0,.82-1.47,2.47,2.47,0,0,0-.34-2.42,3.41,3.41,0,0,0-1.86-1A7.78,7.78,0,0,0,70.37,2.7Zm-49.8.06a7.53,7.53,0,0,0-4.1,1.34A6.41,6.41,0,0,0,14,7.19l0,.06a5,5,0,0,0-.19.76,3.13,3.13,0,0,0,0,.6,2.65,2.65,0,0,0,.58,1.76,4.71,4.71,0,0,0,3.6,1.32,7.73,7.73,0,0,0,4.76-1.34,6.41,6.41,0,0,0,2.49-3.1l0-.06a4.55,4.55,0,0,0,.17-.73,4.62,4.62,0,0,0,.06-.63,2.67,2.67,0,0,0-.6-1.75,4.73,4.73,0,0,0-3.6-1.32Zm12.73,0a1.41,1.41,0,0,0-.25,0,9,9,0,0,0-4.33,1.34A6.13,6.13,0,0,0,26,8a2.79,2.79,0,0,0,2.07,3.36,7.08,7.08,0,0,0,2.25.25,16.45,16.45,0,0,0,1.93-.14l.87-2a8.84,8.84,0,0,1-1.42.15,2.71,2.71,0,0,1-1.46-.36,1.5,1.5,0,0,1-.61-1.71,3.78,3.78,0,0,1,3.06-2.53A6.21,6.21,0,0,1,35,5.12l1-2.07A10.84,10.84,0,0,0,33.3,2.76ZM69.87,4.47l.25,0a1.77,1.77,0,0,1,.63.17,1.11,1.11,0,0,1,.52.63,2,2,0,0,1-.19,1.23l-3.53,0-.38,0h0l.06-.13a4.19,4.19,0,0,1,.88-1.21,3,3,0,0,1,1.53-.76ZM20.2,4.89h.14c1.61,0,1.57,1.32,1.57,1.32a2.65,2.65,0,0,1-.19,1l0,.06A4.14,4.14,0,0,1,20.38,9a2.87,2.87,0,0,1-1.61.58,1.34,1.34,0,0,1-1.56-1.33,2.64,2.64,0,0,1,.18-1l.05-.06a4.3,4.3,0,0,1,1.29-1.73A3,3,0,0,1,20.2,4.89Zm37.42,8.55a12.39,12.39,0,0,0-5.75,1.24,8.54,8.54,0,0,0-4,3.93,5.39,5.39,0,0,0-.48,3.45,3.61,3.61,0,0,0,1.78,2.32,7.2,7.2,0,0,0,2.3.71,10,10,0,0,0,1.67.08,16.32,16.32,0,0,0,1.8-.12l1-2.33a11.77,11.77,0,0,1-2.55.11,2.26,2.26,0,0,1-2-1.3,2.71,2.71,0,0,1-.13-1.65,4.93,4.93,0,0,1,1.57-2.42,7.11,7.11,0,0,1,4-1.47,9.9,9.9,0,0,1,1.9.13L60,13.65l-.17,0a14.67,14.67,0,0,0-1.52-.15Zm15,.25-5,11.48h3.57l5-11.48Zm5.75,0-5,11.48h3.57l5-11.48Zm-14.95,2.7a7.57,7.57,0,0,0-4.12,1.34,6.45,6.45,0,0,0-2.47,3.09l0,0a4.91,4.91,0,0,0-.17.76,4.49,4.49,0,0,0,0,.62A2.66,2.66,0,0,0,57.18,24a4.72,4.72,0,0,0,3.59,1.3A7.73,7.73,0,0,0,65.54,24,6.49,6.49,0,0,0,68,20.89l0-.07a4.79,4.79,0,0,0,.17-.75,4.34,4.34,0,0,0,.06-.61,2.63,2.63,0,0,0-.61-1.75,4.69,4.69,0,0,0-3.59-1.32C63.86,16.38,63.64,16.38,63.43,16.39Zm40.18.06c-3.26.09-4.12,1.93-4.16,2l0,.06a2,2,0,0,0-.17,1.09,1.64,1.64,0,0,0,.61,1.07,4.84,4.84,0,0,0,.94.56l.75.33a1.67,1.67,0,0,1,.73.49.63.63,0,0,1,.15.43.82.82,0,0,1-.21.55,1.28,1.28,0,0,1-.75.37,3.86,3.86,0,0,1-.94.07A15.66,15.66,0,0,1,98,23c-.16.39-.56,1.22-.88,1.92a20.06,20.06,0,0,0,4.53.46h.07c3.28,0,4.17-1.88,4.24-2l0-.06a2.06,2.06,0,0,0,.15-1.07,1.76,1.76,0,0,0-.61-1.08,4.67,4.67,0,0,0-.92-.55l-.75-.35a1.82,1.82,0,0,1-.75-.5.62.62,0,0,1-.15-.42.82.82,0,0,1,.21-.55,1.39,1.39,0,0,1,.77-.37,3.86,3.86,0,0,1,.94-.07,12.65,12.65,0,0,1,2.37.49c.13-.3.62-1.45.79-1.82a17.44,17.44,0,0,0-3.68-.55h-.71Zm-8.32,0a6.38,6.38,0,0,0-2.07.38,5.46,5.46,0,0,0-2.36,1.65l0,0,.9-1.86-3.27,0-3.72,8.51h3.49l1.84-4.1a7.46,7.46,0,0,1,.42-.79,2.88,2.88,0,0,1,1.21-1.05A3,3,0,0,1,93.22,19a.9.9,0,0,1,.81.55.77.77,0,0,1,0,.5,3.2,3.2,0,0,1-.23.61l-2,4.51h3.51l2-4.6c.24-.55.4-1,.4-1a3.29,3.29,0,0,0,.21-1,1.85,1.85,0,0,0-.57-1.38A3.49,3.49,0,0,0,95.29,16.49Zm-12.48.15-3.74,8.53h3.51l3.74-8.51ZM63.2,18.5a1.36,1.36,0,0,1,1.57,1.34,2.74,2.74,0,0,1-.19,1l0,.06a4.29,4.29,0,0,1-1.32,1.74,2.76,2.76,0,0,1-1.61.56,1.35,1.35,0,0,1-1.57-1.33,2.81,2.81,0,0,1,.19-1l0-.06a4.06,4.06,0,0,1,1.32-1.71A2.93,2.93,0,0,1,63.2,18.5Z"/><path id="path3892" class="cls-1" d="M85,11.46l-1,2.32h3.62l1-2.32Zm-5.68,0-1,2.21H82l.94-2.19Zm-5.75,0-1,2.19H76.2l1-2.19Z"/></g></g></g></g></svg>