<?xml version="1.0" encoding="utf-8"?>
<!-- Generator: Adobe Illustrator 19.1.0, SVG Export Plug-In . SVG Version: 6.00 Build 0)  -->
<svg version="1.1" id="Layer_1" xmlns="http://www.w3.org/2000/svg" xmlns:xlink="http://www.w3.org/1999/xlink" x="0px" y="0px"
	 viewBox="0 0 552 168" style="enable-background:new 0 0 552 168;" xml:space="preserve">
<style type="text/css">
	.st0{fill:#FFFFFF;enable-background:new    ;}
	.st1{fill:#FFFFFF;}
</style>
<g>
	<path class="st0" d="M359.5,74.9c-14.1,2.6-25.1,0.8-25.1,0.8s-6.6-0.9-10.7-4.6c0,0-3-2.5-3.8-5.9c0,0-0.8-2.6-0.2-6.6
		c0,0,0.3-1.8,0.9-3.6l0-0.1c0.5-1.5,1.3-3.3,2.5-5.1l0.1-0.2c2.2-3.8,10.5-13.8,25.6-15.6l0.1,0c0,0,5.7-0.8,11.3,0
		c0,0,5.4,0.6,8.9,3.6c0,0,5.6,4.2,3.2,11.7c0,0-1.1,3.6-4.3,7.9l-32.8,0.4c0,0-0.5,1.2-0.6,2.3c0,0-0.5,3.6,2.3,6.1
		c0,0,1.9,1.7,5.2,2.4c0,0,4.5,1.2,13.1,0.2c0,0,5.2-0.7,7.6-1.4L359.5,74.9z M336.8,53.2c2.5-0.5,5.5-0.5,5.5-0.5l15.5-0.3
		c1-2,1.3-3.7,1.3-3.7c0.8-3.7-1.6-5.7-1.6-5.7c-1.8-1.8-4.6-2-4.6-2c-2-0.3-4.4,0.3-4.4,0.3c-8.2,2.2-11.4,10.6-11.9,12L336.8,53.2
		z"/>
	<path class="st1" d="M256.6,35l-4.6,27.3c0,0-0.5,2.8-1.2,4.4l0.3,0.1c0.9-2.2,2.2-4,2.2-4l22-27.8l15.5,0l-4.3,26.8
		c0,0-0.4,3-1.2,4.9l0.3,0.1c0.8-1.9,2.5-4.1,2.5-4.1L309.5,35h17.5l-34.2,40.3l-18.7,0l4.6-27.9c0,0,0.4-2.1,1.3-4l-0.3-0.1
		c-0.8,1.7-2.3,3.6-2.3,3.6l-23,28.6l-18.4,0l6.3-39.6l-0.2,0.1l-18.8,14.7c0,0-3.4,2.6-5.9,3.6l-0.3,0.1c1.4,1.8,2.6,4.7,2.6,4.7
		l7,16.4h-16.2l-6.4-20.1l-8.8,20.1l-15.8,0L204,19.9l15.8,0l-13.1,29.9c0,0-1.5,3.3-2.3,4.3l0.2,0.2l22.4-19.2L256.6,35z"/>
	<path class="st0" d="M188.1,35.2c-8.8-2-17.8-0.5-17.8-0.5c-15.8,2.5-23.3,11.9-25.6,15.7l-0.1,0.2c-1.2,1.8-2,3.6-2.5,5.1l0,0.1
		c-0.6,1.8-0.9,3.6-0.9,3.6c-0.7,4,0.2,6.6,0.2,6.6c0.8,3.4,3.8,5.9,3.8,5.9c4.1,3.6,10.6,4.1,10.6,4.1c6,0.7,14.8-0.4,14.8-0.4
		l3.8-8.5c-5.7,0.8-9.2,0.4-9.2,0.4c-6.6-0.5-7.7-5.2-7.7-5.2c-1-2.8,0.2-6.3,0.2-6.3c3.8-10.8,16.8-12.2,16.8-12.2
		c4.8-0.7,9.9,0.4,9.9,0.4L188.1,35.2z"/>
	<path class="st0" d="M49.4,75.3l3.5-8c1.1-2.4,1.6-3.9,1.6-3.9c1.1-2.9,0-4.8,0-4.8c-1.3-3.2-5.2-3.7-5.2-3.7
		c-1.4-0.2-3.8-0.2-3.8-0.2l-7,0.1l-9,20.5H13.5l24.3-55.4l26.4,0c0,0,4.7,0,7.8,0.5c0,0,2,0.3,4,1.1c0,0,8.5,3,7.2,12.1
		c0,0-1.2,15.9-20.4,16.8l-0.2,0.5c0,0,3,0.2,5.5,1.2c0,0,4.2,1.6,4,6.1c0,0,0,1.3-0.5,2.7c0,0-0.3,1-0.9,2.2l-5.4,12.3H49.4z
		 M53.6,46.4c5.1,0,7.7-1.7,7.7-1.7c4.9-2.9,5.7-8.3,5.7-8.3c0.8-4.5-2.3-6.8-2.3-6.8c-1.4-1.2-3.6-1.6-3.6-1.6
		c-1.9-0.3-4.2-0.2-4.2-0.2L50,27.8l-8.1,18.5C41.9,46.3,53.3,46.4,53.6,46.4z"/>
	<polygon class="st0" points="414.8,75.3 398.9,75.3 423.2,19.9 439.1,19.9 	"/>
	<polygon class="st0" points="386.7,75.3 370.9,75.3 395.1,19.9 411,19.9 	"/>
	<path class="st0" d="M82.4,55.3c0.5-1.5,1.3-3.3,2.5-5.1l0.1-0.2c2.2-3.8,10.5-13.8,25.6-15.6l0.1,0c0,0,5.7-0.9,11.2,0.1
		c0,0,6.6,1,10.7,4.6c0,0,3,2.5,3.8,5.9c0,0,0.8,2.6,0.2,6.6c0,0-0.3,2-1.1,4l0,0.1c-0.5,1.4-1.3,3.1-2.3,4.7l-0.1,0.2
		c-2.2,3.8-10.5,13.8-25.6,15.6l-0.1,0c0,0-5.7,0.9-11.2-0.1c0,0-6.6-1-10.7-4.6c0,0-3-2.5-3.8-5.9c0,0-0.8-2.6-0.2-6.6
		C81.4,59,81.7,57.2,82.4,55.3L82.4,55.3z M97.5,55.4c-0.7,2-0.8,3.6-0.8,3.6c-0.3,3.8,2.1,5.9,2.1,5.9c1.8,1.8,4.6,2,4.6,2
		c2,0.3,4.4-0.3,4.4-0.3c7.1-1.8,10.5-8.1,11.6-10.6l0.1-0.1c1.2-2.6,1.3-4.8,1.3-4.8c0.3-3.8-2.1-5.9-2.1-5.9c-1.8-1.8-4.6-2-4.6-2
		c-2-0.3-4.4,0.3-4.4,0.3c-9,2.3-12.1,11.7-12.1,11.7L97.5,55.4z"/>
	<g>
		<g>
			<path class="st0" d="M453.3,112.1c0,0,3.2-3.5,6.5-5.7c0,0,4.7-3.5,11.5-4.7c0,0,6.1-1.3,11,0.7c0,0,7,2.4,5.8,9.8
				c0,0-0.2,2.1-2.4,7l-10.1,23.1l-15.6,0l9.3-21.1c0,0,1.2-2.6,1.3-4.2c0,0,0.5-3.1-3-4.4c0,0-2.4-1-5.9-0.4c0,0-4.4,0.5-8.1,4.1
				c0,0-1.9,1.7-4,6.3l-8.8,19.7l-15.5,0l17.6-40.3l14.5,0l-2.6,5.9c0,0-0.7,1.9-2.1,3.8L453.3,112.1z"/>
			<path class="st0" d="M535.2,110.9c-1.6-0.4-3.6-0.9-6.1-1.4c0,0-2.4-0.4-4.3-0.6c0,0-3.5-0.5-6.5,0.5c0,0-2.5,0.7-3.7,2.7
				c0,0-1.7,2.7,0.4,5.1c0,0,0.8,1.1,3.4,2.3l2.6,1.2c0,0,3.3,1.5,4.8,2.5c0,0,2.6,1.6,3.4,4.4c0,0,0.7,2,0.1,4.3
				c0,0-0.4,2.5-2.8,4.9c0,0-3.6,4-10.1,5.6c0,0-3.5,0.9-8.8,1h-1c0,0-9.3,0.2-19.6-2l3.7-8.1c0,0,3.6,1,7.2,1.7c0,0,2,0.4,4.2,0.6
				c0,0,3.5,0.4,6.6-0.5c0,0,2.6-0.8,3.6-2.8c0,0,1.7-2.7-0.5-5c0,0-0.8-1.1-3.4-2.3l-2.6-1.2c0,0-3.3-1.5-4.8-2.5
				c0,0-2.6-1.6-3.4-4.3c0,0-0.7-2.1-0.1-4.4c0,0,0.4-2.6,2.8-4.9c0,0,3.5-3.9,10-5.5c0,0,3.5-1,8.8-1.1h1c0,0,8.3-0.1,18.3,2.5
				L535.2,110.9z"/>
			<polygon class="st0" points="413.2,142.4 397.7,142.4 415.3,102.1 430.8,102.1 			"/>
			<polygon class="st0" points="385.4,142.4 369.6,142.4 393.9,86.9 409.7,86.9 			"/>
			<polygon class="st0" points="357.3,142.4 341.5,142.4 365.8,86.9 381.6,86.9 			"/>
			<path class="st0" d="M276.8,142c0,0-8,0.9-13.6,0.4c0,0-6-0.2-11.3-2.4c0,0-7.6-2.6-10.3-10.1c0,0-2-5.4-0.4-12.2
				c0,0,1.4-7.2,7-13.7c0,0,8.8-11.3,25.5-15.3c0,0,11.1-3,24.8-1.5l2.4,0.3L295.7,98c0,0-4.5-0.7-9.9-0.3c0,0-8.8,0.5-15.8,4.8
				c0,0-7.8,4.6-10.7,12.7c0,0-4.1,11.1,5.3,15.7c0,0,2.5,1.2,7.4,1.3c0,0,2.2,0,4.6-0.2c0,0,2.6-0.2,5-0.5L276.8,142z"/>
			<path class="st0" d="M287.9,122.2c0.5-1.5,1.3-3.3,2.5-5.1l0.1-0.2c2.2-3.8,10.5-13.8,25.6-15.6l0.1,0c0,0,5.7-0.9,11.2,0.1
				c0,0,6.6,1,10.7,4.6c0,0,3,2.5,3.8,5.9c0,0,0.8,2.6,0.2,6.6c0,0-0.3,2-1.1,4l0,0.1c-0.5,1.4-1.3,3.1-2.3,4.7l-0.1,0.2
				c-2.2,3.8-10.5,13.8-25.6,15.6l-0.1,0c0,0-5.7,0.9-11.2-0.1c0,0-6.6-1-10.7-4.6c0,0-3-2.5-3.8-5.9c0,0-0.8-2.6-0.2-6.6
				C286.9,125.9,287.2,124.1,287.9,122.2L287.9,122.2z M303.1,122.2c-0.7,2-0.8,3.6-0.8,3.6c-0.3,3.8,2.1,5.9,2.1,5.9
				c1.8,1.8,4.6,2,4.6,2c2,0.3,4.4-0.3,4.4-0.3c7.1-1.8,10.5-8.1,11.6-10.6l0.1-0.1c1.2-2.6,1.3-4.8,1.3-4.8
				c0.3-3.8-2.1-5.9-2.1-5.9c-1.8-1.8-4.6-2-4.6-2c-2-0.3-4.4,0.3-4.4,0.3c-9,2.3-12.1,11.7-12.1,11.7L303.1,122.2z"/>
		</g>
		<polygon class="st1" points="425.9,76.8 442,76.8 437.7,86.5 421.6,86.5 		"/>
	</g>
</g>
</svg>
