<svg xmlns="http://www.w3.org/2000/svg" viewBox="0 0 55.79 55.8"><defs><style>.cls-1{fill:#fff;}</style></defs><title>sga</title><g id="Layer_2" data-name="Layer 2"><g id="logos"><g id="SUPPORT"><g id="sga"><path class="cls-1" d="M0,28.47V27.33s0,0,0-.08c.06-.85.09-1.7.17-2.54a17.1,17.1,0,0,1,.29-2c.21-1,.46-2,.75-3a24.79,24.79,0,0,1,1.3-3.42,26.68,26.68,0,0,1,2.08-3.73c.42-.62.86-1.23,1.32-1.82s1-1.21,1.51-1.78S8.59,7.77,9.18,7.23a20,20,0,0,1,1.65-1.4c.79-.58,1.6-1.13,2.42-1.67a25.27,25.27,0,0,1,4-2.08A24.33,24.33,0,0,1,20.82.91C21.65.7,22.49.53,23.34.37,23.9.27,24.47.22,25,.16S26.42,0,27.12,0s1.29,0,1.94,0c.44,0,.88,0,1.32.08s1.15.11,1.72.21c.81.13,1.64.26,2.43.46,1,.25,1.92.56,2.86.87a21.7,21.7,0,0,1,3.75,1.68c.83.47,1.64,1,2.44,1.49a22.49,22.49,0,0,1,3.09,2.41c.53.48,1,1,1.53,1.53s.84.91,1.23,1.39c.55.69,1.08,1.38,1.58,2.1a24,24,0,0,1,2.27,4c.32.72.64,1.44.89,2.18.35,1,.64,2.1.93,3.15a16.45,16.45,0,0,1,.33,1.7c.09.55.15,1.1.2,1.66s.15,1.36.16,2c0,.95,0,1.9-.08,2.85q0,.64-.12,1.29a19.84,19.84,0,0,1-.29,2c-.23,1-.51,2.09-.8,3.12a20,20,0,0,1-1.39,3.54c-.52,1-1.08,2-1.69,3a20,20,0,0,1-2.23,3c-.63.69-1.26,1.37-1.92,2-.51.51-1.05,1-1.61,1.45s-1.29,1-2,1.49a24.29,24.29,0,0,1-4,2.27c-.58.26-1.16.54-1.75.75-1,.35-2,.7-3,1-.87.24-1.78.39-2.68.55-.74.12-1.48.2-2.23.28-.41,0-.83,0-1.25,0a.58.58,0,0,0-.18,0H27.17s0,0-.06,0c-.82-.06-1.65-.09-2.46-.17a16.89,16.89,0,0,1-1.89-.29c-1.11-.25-2.23-.51-3.32-.82a22,22,0,0,1-3.13-1.21,24.18,24.18,0,0,1-3.39-1.85c-.77-.52-1.52-1.05-2.25-1.61s-1.24-1-1.82-1.53a22.68,22.68,0,0,1-2.37-2.53c-.52-.67-1.05-1.33-1.54-2S4,42.3,3.61,41.59A20.82,20.82,0,0,1,2,38.37C1.63,37.3,1.29,36.2,1,35.1a18.41,18.41,0,0,1-.47-2C.39,32.55.32,32,.24,31.41S.12,30.44.09,30s0-.93,0-1.39C0,28.53,0,28.5,0,28.47Zm52.41.26A25,25,0,0,0,48.5,14.61a24.18,24.18,0,0,0-9.16-8.4,23.72,23.72,0,0,0-10.45-2.8,24,24,0,0,0-17.8,6.67A23.64,23.64,0,0,0,3.43,27.16a23.75,23.75,0,0,0,6.79,17.69A23.68,23.68,0,0,0,27.1,52.37a23.64,23.64,0,0,0,17.57-6.62A23.65,23.65,0,0,0,52.41,28.73Z"/><path class="cls-1" d="M48.12,29.35a19.23,19.23,0,0,1-6.5,13.4A19.52,19.52,0,0,1,27.4,48.1a19.53,19.53,0,0,1-14.19-6.33A19.55,19.55,0,0,1,7.69,27.52a19.59,19.59,0,0,1,6.47-14.45A19.58,19.58,0,0,1,28.62,7.69a19.62,19.62,0,0,1,13.73,6.05C46,17.41,48.14,22.4,48.12,29.35Zm-4,3.18-.08,0a1.55,1.55,0,0,1-1.19-.95c-.22-.55-.45-1.1-.67-1.66-.37-.92-.73-1.85-1.1-2.78-.48-1.23-.95-2.45-1.44-3.67a2.88,2.88,0,0,1-.25-1.23c0-1,.06-1.92.09-2.88a1.74,1.74,0,0,1,1.28-1.6,7.3,7.3,0,0,1,1.74-.24c.15,0,.19-.05.19-.19a3.25,3.25,0,0,1,0-.54c0-.18-.06-.22-.22-.22H35.6a.23.23,0,0,0-.26.17l-1.8,4.41c-.38.93-.75,1.86-1.15,2.78a2.74,2.74,0,0,0-.26,1.35c0,.21,0,.43,0,.64a.3.3,0,0,1-.09.18c-.14,0-.32.1-.41-.12l.39,0c0-.3-.05-.58-.06-.87,0-.5,0-1,0-1.51,0-.25,0-.51,0-.78-.26,0-.5-.07-.73.14a.9.9,0,0,1-.58.17A8.13,8.13,0,0,1,29.52,23c-.58-.08-1.17-.2-1.75-.24a4.43,4.43,0,0,0-1.94.31A4.71,4.71,0,0,0,24,24.36a.46.46,0,0,1-.07-.1c-.19-.45-.37-.89-.55-1.34l-1.26-3c-.43-1.05-.88-2.1-1.31-3.15a.29.29,0,0,0-.32-.22H13.24c-.16,0-.23,0-.22.2a3.62,3.62,0,0,1,0,.57c0,.15.06.18.19.18s.49,0,.73,0a4.08,4.08,0,0,1,2.67,1.28.52.52,0,0,1,.14.33c0,.77,0,1.54,0,2.31v1.08c0,.11,0,.19-.17.2a2.44,2.44,0,0,0-1.74.89,3,3,0,0,0-.7,2.48,2.53,2.53,0,0,0,2.07,2.18c.84.24,1.71.36,2.56.55a2.08,2.08,0,0,1,1.14.65,1.82,1.82,0,0,1,.43,1.32,1.91,1.91,0,0,1-1.2,1.7,2.22,2.22,0,0,1-1.17.17c-.27,0-.28,0-.28-.31V29c0-.3,0-.31-.29-.37l-.66-.11V32.2c-.05,0-.08,0-.1,0a9.56,9.56,0,0,1-.9-.9,5.8,5.8,0,0,1-.95-1.85c0-.05-.09-.1-.14-.11h-.42V33c.23,0,.45.05.62-.17a.88.88,0,0,1,.75-.26,2.93,2.93,0,0,1,.75.18,6.13,6.13,0,0,0,1.95.42,3.22,3.22,0,0,0,3.08-4c0-.18-.12-.36-.17-.54a1.35,1.35,0,0,1,.24.46c.07.25.09.52.18.76.49,1.21,1,2.41,1.48,3.62s1.11,2.66,1.65,4L25.82,40a.34.34,0,0,0,.2.15,4.45,4.45,0,0,0,.73,0,.24.24,0,0,0,.18-.13c.14-.3.26-.61.38-.91.72-1.8,1.45-3.59,2.17-5.39.07-.17.13-.35.21-.54-.33,0-.61.1-.9.11a.28.28,0,0,0-.3.22c-.11.29-.24.58-.36.89l-.08-.13c-.1-.25-.2-.51-.31-.76,0-.1-.07-.21-.22-.22a5.21,5.21,0,0,1-1.83-.43c-.2-.09-.39-.2-.61-.31l.06,0,.14.07a5.65,5.65,0,0,0,2.61.6,9,9,0,0,0,4-.94A.24.24,0,0,0,32,32c0-.72,0-1.45,0-2.17a.61.61,0,0,1,.51-.63l.86-.16v-.43H31.54l3.57-8.86.06,0V31.12a.67.67,0,0,1,0,.32,2.05,2.05,0,0,1-1.39,1.09V33H37.1l0-.31h.05v.44a.5.5,0,0,1-.17,0c-.16,0-.21,0-.21.21,0,1.2,0,2.41,0,3.62a7.56,7.56,0,0,1-.17,1.34,1.17,1.17,0,0,1-.34.6,2.28,2.28,0,0,1-1.64.31c.23-.17.41-.29.58-.43a1.7,1.7,0,0,0,.53-1.38c0-1.37,0-2.73,0-4.1a.29.29,0,0,0,0-.14,1.3,1.3,0,0,0-.44,0s-.06.15-.06.23c0,1.32,0,2.65-.09,4a2.2,2.2,0,0,1-.24.84,1.71,1.71,0,0,1-1.26.83,15.43,15.43,0,0,1-1.54.17c-.14,0-.21,0-.2.19s0,.33,0,.49,0,.27.26.27H42.38s.09,0,.12,0,.13-.09.14-.14c0-.22,0-.43,0-.65s0-.14-.15-.15c-.54-.06-1.08-.12-1.62-.21a1.7,1.7,0,0,1-1-.54,2.27,2.27,0,0,1-.5-1.54c0-2.44,0-4.88,0-7.32,0-.18,0-.25-.23-.24-.7,0-1.41,0-2.11,0-.2,0-.24.07-.23.24v2.64a2.11,2.11,0,0,1,0,.25l-.06,0a3.32,3.32,0,0,1-.49-.41A1.25,1.25,0,0,1,36,30.84c.16-.52.35-1,.55-1.55,0,0,.1-.09.16-.09h3a.18.18,0,0,1,.21.14c.1.3.22.58.33.88.19.53.4,1.05.58,1.59a.43.43,0,0,1-.32.57c-.24.07-.49.11-.73.16V33h4.25ZM16.76,33c0,.41,0,.79,0,1.16a7.63,7.63,0,0,1-.21,2.13A3.83,3.83,0,0,1,15,38.56a4,4,0,0,1-1.78.62c-.12,0-.16.06-.16.17a3.62,3.62,0,0,1,0,.57c0,.17.06.21.22.21h8s.09,0,.12,0,.14-.09.14-.14q0-.33,0-.66s-.07-.12-.12-.14c-.29-.1-.58-.17-.87-.28a4.06,4.06,0,0,1-1.73-1.18,5.18,5.18,0,0,1-1-3c0-.45,0-.9-.05-1.35,0-.05,0-.13-.05-.14Zm9,14.16,0,0a1.1,1.1,0,0,0,.95-.36,1.51,1.51,0,0,0,.36-1.67.87.87,0,0,0-.76-.57.81.81,0,0,0-.78.51.8.8,0,0,0,.5,1.14,2.26,2.26,0,0,0,.52,0A1,1,0,0,1,26,47,.64.64,0,0,0,25.8,47.11Zm3.32,0,0,.09h.24a1.49,1.49,0,0,0,1-2.2.75.75,0,0,0-.69-.41A.78.78,0,0,0,29,45a.81.81,0,0,0,.49,1.19,2.24,2.24,0,0,0,.52,0,1.06,1.06,0,0,1-.6.73C29.28,47,29.2,47,29.12,47.08Zm-3.88.05.06-.06s-.07-.11-.12-.12-.19-.14-.19-.28v-2.1s-.07,0-.08,0l-.61.28a.12.12,0,0,0-.06.08.15.15,0,0,0,.07.1.28.28,0,0,1,.22.31c0,.44,0,.87,0,1.3,0,.21,0,.34-.31.35,0,.07.09.14.14.14Zm2.31-.05,0,.05h.9c.05,0,.09-.08.17-.16-.3,0-.35-.13-.35-.33,0-.47,0-.93,0-1.4v-.67c-.06,0-.1,0-.12,0l-.53.26a.87.87,0,0,0-.11.09l.11.11c.06.07.17.14.17.22,0,.49,0,1,0,1.47,0,.13-.07.19-.19.23S27.59,47,27.55,47.08Z"/><path class="cls-1" d="M27.86,6.74,27.2,5.32c0,.19-.06.33-.07.47s0,.43,0,.64a1,1,0,0,0,.1.27h-.48a.87.87,0,0,0,.17-.27c.07-.49.11-1,.17-1.46a1,1,0,0,1,.1-.33c.05.08.1.14.14.22L28,6.33l.82-1.67.07,0,.06.53c0,.32.07.65.08,1s0,.49.32.56h-.55l-.1-1.44-.73,1.43Z"/><path class="cls-1" d="M33.61,50,34,48.17c.06.07.12.11.14.16.16.43.33.87.48,1.31.08.23.13.45.47.35v.07l-.55.15L34,48.81c-.09.51-.18,1-.27,1.43a.48.48,0,0,1-.08.16.78.78,0,0,1-.15-.1l-.9-1.07c.06.4.1.75.17,1.09,0,.1.13.18.2.27l-.5.13,0,0c.3-.15.11-.39.09-.58,0-.49-.13-1-.2-1.45l.07,0Z"/><path class="cls-1" d="M8,16.33l-.17.16,0,0L8,15.92h.06c0,.21.09.27.24.34L9.62,17a1.78,1.78,0,0,1,.14.14l-2.15.57.23.13.75.39c.17.09.34.21.46-.12l0,.09-.32.6H8.72c.11-.28-.12-.32-.26-.4l-1.29-.71s-.06-.05-.14-.11L9.25,17Z"/><path class="cls-1" d="M44.91,40.8l-.16.14a.32.32,0,0,1,0-.13,8.55,8.55,0,0,1,.66-.89.92.92,0,0,1,1.3-.13,1,1,0,0,1,.23,1.5l-.52.7c-.07-.1-.11-.23-.19-.29-.39-.29-.79-.56-1.19-.83A.63.63,0,0,0,44.91,40.8Zm1.61.76a2.29,2.29,0,0,0,.22-.24.81.81,0,0,0,.18-.9,1.12,1.12,0,0,0-.89-.56,1.22,1.22,0,0,0-.87.61.19.19,0,0,0,0,.16Z"/><path class="cls-1" d="M43,42.71a2.53,2.53,0,0,1,.76-.05h1.54l-.54-.5c-.12-.1-.25-.18-.36-.28s-.25-.29-.45,0v-.09l.42-.49c0,.4.31.52.5.72s.58.53.92.84a2.24,2.24,0,0,1-.38.06H43.59V43c.3.25.59.51.89.75s.18.13.39.08l-.4.46-.05,0,.07-.18Z"/><path class="cls-1" d="M5.23,23c0-.16.07-.35.13-.53a5.54,5.54,0,0,1,.22-.69.9.9,0,0,1,1-.52,1,1,0,0,1,.93.78,1.4,1.4,0,0,1,0,.54c-.06.31-.16.6-.23.86a3.74,3.74,0,0,0-.44-.23c-.41-.12-.82-.22-1.24-.31C5.46,22.83,5.35,22.91,5.23,23Zm2.12-.63a.87.87,0,0,0-1-.82,1,1,0,0,0-.88.91c0,.12,0,.15.12.18.38.09.76.17,1.13.29s.43,0,.55-.33A.85.85,0,0,0,7.35,22.32Z"/><path class="cls-1" d="M10,42.59c.21.24.32,0,.42-.07.36-.31.69-.63,1-1l.24-.17-.2,2.28L12,43.2l.37-.33c.13-.11.24-.22.05-.38.13,0,.41.26.47.46-.17-.15-.26-.05-.38,0l-1.24,1.12-.07,0,.16-2.2c-.32.3-.64.6-.95.91-.06.06,0,.21,0,.33l-.42-.49Z"/><path class="cls-1" d="M34.09,5.54l.61.15v.06c-.21,0-.25.1-.29.25-.13.54-.27,1.08-.44,1.63a18,18,0,0,1-1.12-1.91c-.1.43-.21.84-.29,1.25,0,.08.08.18.13.29l-.58-.13,0,0c.25,0,.27-.17.31-.35.11-.47.24-1,.36-1.42a1.4,1.4,0,0,1,.09-.18l1.1,2c.1-.44.16-.85.28-1.24C34.31,5.71,34.19,5.66,34.09,5.54Z"/><path class="cls-1" d="M49,29.1l0-.62c.08.29.34.2.51.22.42.06.86.06,1.29.09l.32.05-1.81,1.43.77.06a3,3,0,0,0,.52,0c.1,0,.19-.11.26-.16v.55c-.09-.19-.24-.21-.41-.22-.54,0-1.08-.08-1.61-.12l0-.06L50.58,29l-.49-.05-.62,0A.37.37,0,0,0,49,29.1Z"/><path class="cls-1" d="M25.42,6.42c-.07-.44-.13-.85-.2-1.25A.28.28,0,0,0,25,4.89l.56-.08c-.21.17-.08.37-.06.54.05.47.12.94.18,1.41,0,0,0,0,0,.15L23.86,5.54c.06.37.13.74.19,1.12s.06.29.31.36l-.67.11c.36-.3.1-.63.09-.93s-.11-.77-.16-1.15l.06,0Z"/><path class="cls-1" d="M14.92,11a1.07,1.07,0,0,1-1-1.1,1.07,1.07,0,1,1,2.13,0A1.1,1.1,0,0,1,14.92,11Zm-.18-2a.69.69,0,0,0-.57,1,1.63,1.63,0,0,0,.43.51.73.73,0,0,0,1.18-.37.76.76,0,0,0-.17-.67A1,1,0,0,0,14.74,9Z"/><path class="cls-1" d="M46,13.72a1.06,1.06,0,0,1-1.09,1,1.08,1.08,0,0,1-1.09-1.06,1.12,1.12,0,0,1,1.1-1.07A1.1,1.1,0,0,1,46,13.72Zm-.24-.16a.7.7,0,0,0-1-.66,1.18,1.18,0,0,0-.65.79.75.75,0,0,0,.59.87C45.17,14.63,45.85,14,45.78,13.56Z"/><path class="cls-1" d="M26.85,50.13a1,1,0,0,1,1-1.07,1,1,0,0,1,1.06,1,1.07,1.07,0,0,1-1.11,1.09A1,1,0,0,1,26.85,50.13Zm.28-.12a1.06,1.06,0,0,0,.37.87.69.69,0,0,0,1-.2,1.15,1.15,0,0,0,0-1.12.77.77,0,0,0-.84-.34A.81.81,0,0,0,27.13,50Z"/><path class="cls-1" d="M50,25.55a1,1,0,0,1,1.06,1.09,1,1,0,0,1-1,1A1.07,1.07,0,0,1,49,26.55,1,1,0,0,1,50,25.55Zm.09.23a6.26,6.26,0,0,0-.61.21.74.74,0,0,0-.14,1.19,1.13,1.13,0,0,0,1.29-.05.71.71,0,0,0,.29-.68C50.86,26,50.61,25.83,50.13,25.78Z"/><path class="cls-1" d="M17.38,46.34l.23.09.47.26a.54.54,0,0,1,.33.55.6.6,0,0,1-.38.49l-.22.09c.12.42,0,.91.48,1.21a.6.6,0,0,1-.57-.36c0-.22-.1-.44-.12-.66a.36.36,0,0,0-.34-.37l-.19.36c-.07.15-.17.3.07.42l-.06,0-.56-.3a.9.9,0,0,0,.27-.23c.26-.46.49-.92.74-1.39l-.16-.18Zm0,1.16c.14.06.3.19.43.17a.5.5,0,0,0,.37-.51.68.68,0,0,0-.21-.4c-.08-.09-.19-.08-.25.08S17.47,47.25,17.34,47.5Z"/><path class="cls-1" d="M20.8,5.84s0-.07.07-.07a6,6,0,0,1,.81-.21.52.52,0,0,1,.56.72c-.08.34-.09.34.21.54l.13.09a.8.8,0,0,0,.78.21.73.73,0,0,1-.87.06c-.14-.12-.3-.21-.43-.33s-.31-.1-.48,0c.22.66.22.66.47.73l-.66.19a.37.37,0,0,0,.07-.41c-.13-.44-.25-.88-.37-1.32C21.05,5.89,21,5.77,20.8,5.84Zm.51,0c.06.24.12.48.19.71a.17.17,0,0,0,.09.11.39.39,0,0,0,.43-.2.71.71,0,0,0-.16-.62A.42.42,0,0,0,21.31,5.82Z"/><path class="cls-1" d="M39.45,48.07a.7.7,0,0,1-.87.13L38.2,48c-.18-.12-.33-.07-.5.08.18.2.14.6.62.59L37.7,49c.14-.23,0-.39-.11-.55-.17-.38-.37-.75-.57-1.11,0-.07-.16-.09-.26-.14.36-.14.65-.47,1.1-.39a.58.58,0,0,1,.37.7c0,.07,0,.14-.06.23C38.59,47.86,38.93,48.26,39.45,48.07Zm-2.21-.93c.1.21.2.43.31.64,0,0,.08.1.12.1A.41.41,0,0,0,38,47.6a.67.67,0,0,0-.29-.59A.41.41,0,0,0,37.24,47.14Z"/><path class="cls-1" d="M12.89,11.54l.45-.39c0,.36.34.51.51.75a1.31,1.31,0,0,1-1,.91,1.07,1.07,0,0,1-1.24-1,.89.89,0,0,1,.23-.68,9.8,9.8,0,0,1,.74-.65l.3.39,0,0a.37.37,0,0,0-.48,0,2.2,2.2,0,0,0-.41.33.7.7,0,0,0,0,.87,1,1,0,0,0,1.55.15c.08-.1.15-.2,0-.3s0-.08-.06-.1S13.19,11.44,12.89,11.54Z"/><path class="cls-1" d="M10.05,39.59l-.07-.2,0,0,.36.5a1,1,0,0,0-.31.08c-.32.22-.64.45-.94.7a.47.47,0,0,0-.09.66.51.51,0,0,0,.68.2c.39-.23.76-.5,1.14-.76l-.08-.2.05,0,.34.48,0,.05a.18.18,0,0,0-.28,0,7.77,7.77,0,0,1-1,.63.75.75,0,0,1-1.08-.48.78.78,0,0,1,.37-.94C9.47,40,9.76,39.8,10.05,39.59Z"/><path class="cls-1" d="M4.78,26.08l.06-.69c.14.31.4.24.62.28a6.48,6.48,0,0,0,.77.07.54.54,0,0,0,.09-1.08c-.37-.06-.75-.1-1.12-.14-.07,0-.15.09-.25.15l0-.56c.09.2.27.2.42.22s.61.07.91.12A.8.8,0,1,1,6,26c-.28-.05-.56-.06-.85-.09-.14,0-.27,0-.28.2Z"/><path class="cls-1" d="M43.08,45.51l-.47.43c.2-.53-.15-.88-.28-1.28s-.24-.64-.33-1l.5.24c.41.21.83.44,1.25.63a1.1,1.1,0,0,0,.44,0l-.42.36s-.07,0-.1,0a4.82,4.82,0,0,0-.5-.27.34.34,0,0,0-.24,0c-.07,0-.12.13-.19.18a.19.19,0,0,0,0,.27,1.19,1.19,0,0,1,.08.2c0,.13.1.25.29.21Zm-.8-1.43.28.64.36-.3Z"/><path class="cls-1" d="M40.2,8.13c-.09.43-.17.81-.24,1.2a6.71,6.71,0,0,0-.13.76c0,.12.09.24.16.4l-.49-.29c.06-.25.12-.48.15-.7a.24.24,0,0,0-.1-.18,4,4,0,0,0-.37-.24c-.1.23-.48.24-.44.63l-.52-.32,0-.07c.34.2.47-.11.66-.24.4-.28.77-.59,1.15-.89ZM39.31,9l.41.24.15-.69Z"/><path class="cls-1" d="M47.46,16.52c.38-.27.21-.56,0-.82-.35-.55-.76-.5-1.21-.16A.9.9,0,0,0,46.21,17a.35.35,0,0,0,.38.09l.12,0a.37.37,0,0,1-.58.12,1.47,1.47,0,0,1-.46-1,1,1,0,0,1,.81-1,1,1,0,0,1,1.21.58c.05.08.09.17.14.26C48,16.29,47.87,16.48,47.46,16.52Z"/><path class="cls-1" d="M47.54,20l-.23-.59,0,0c.12.3.36.23.58.23h1.67a.63.63,0,0,1-.07.12c-.35.33-.72.66-1.08,1l-.15.13a.47.47,0,0,0-.21.49h-.05l-.19-.49.63-.53-.21-.51h-.45c-.14,0-.26,0-.23.21Zm1.6-.25h-.7l.16.45Z"/><path class="cls-1" d="M15.9,8l.61-.33,0,0-.07.15,1.21,1c-.05-.37-.09-.71-.14-1,0-.12-.05-.25-.06-.37s0-.21-.21-.16V7.28l.5-.28,0,0c-.27.31-.08.65-.07,1s.08.86.12,1.29l-.05,0-.29-.2c-.38-.31-.77-.61-1.14-.94a.39.39,0,0,0-.46-.12Z"/><path class="cls-1" d="M13.54,46.23l.12-.43c.14-.49.28-1,.41-1.49A1.34,1.34,0,0,0,14,44l.56.43,0,0-.18,0c-.08.25-.15.5-.23.75s-.15.49-.25.78l1.37-.82-.07-.17,0,0,.48.35c-.38-.07-.61.22-.88.36-.42.19-.8.44-1.2.66Z"/><path class="cls-1" d="M35.54,47.63l.75.83c.18.19.34.4.53.57a1.59,1.59,0,0,0,.37.18.39.39,0,0,1-.6,0l-.36-.42c-.55.17-.56.17-.54.57,0,.14,0,.31.2.38l-.54.19,0,0c.22-.12.21-.32.2-.52,0-.5,0-1,0-1.51v-.2Zm.14.53h0l.06.66.41-.17Z"/><path class="cls-1" d="M16,47.39c-.08.3-.24.38-.44.24l-.6-.4a.21.21,0,0,1-.07-.08,1.09,1.09,0,0,0,.26-.21c.29-.43.57-.87.87-1.31l-.15-.18,0,0,1,.6-.22.29c0-.31-.22-.36-.4-.49l-.41.6.53.31-.26.32a.41.41,0,0,0-.29-.46.16.16,0,0,0-.11.05c-.11.16-.2.32-.31.48s0,.17.05.24S15.8,47.61,16,47.39Z"/><path class="cls-1" d="M8.08,19.49c.25,0,.36.1.28.32s-.2.5-.29.74l-.1.13c0-.31-.24-.32-.41-.39-.33-.15-.67-.26-1-.39s-.23-.09-.44.05l.41-1.07.31.17c-.19,0-.25.15-.33.29s0,.23.11.28l.51.19.17-.57.34.17c-.31,0-.29.26-.39.46l.71.28s.08,0,.1,0A.43.43,0,0,0,8.08,19.49Z"/><path class="cls-1" d="M19.41,8.5c.17-.21,0-.39-.05-.54-.14-.39-.3-.77-.47-1.14,0-.08-.16-.12-.26-.19l1-.42.1.34c-.23-.25-.43,0-.64,0l.28.7L19.92,7l.11.38c-.09,0-.18-.11-.25-.09-.38.11-.37,0-.23.41l.06.14c.07.13.05.34.29.31a.4.4,0,0,0,.39-.42c.18.21.15.38-.09.48Z"/><path class="cls-1" d="M31.2,6.16c-.09-.23-.16-.26-.52-.23,0,.21-.08.41-.1.62a.3.3,0,0,0,.13.21c.22.11.36.07.57-.14,0,.29-.07.4-.36.35l-.86-.15c.3-.08.26-.32.28-.52.05-.37.11-.75.15-1.12,0-.22,0-.22-.19-.35L31.46,5l-.11.37C31.28,5,31,5.1,30.79,5l-.1.75.62,0Z"/><path class="cls-1" d="M39.94,45.4a1.92,1.92,0,0,0,.36,2l.18-.08,0,.06-.55.34a1.9,1.9,0,0,0-.08-.34,1.35,1.35,0,0,0-.81-.74c-.12,0-.22-.12-.34-.16a3.52,3.52,0,0,0-.44-.11l.46-.29c.05.07.08.15.13.18.25.15.51.28.77.41,0-.19,0-.37,0-.54s.08-.38-.19-.49Z"/><path class="cls-1" d="M11,15.24l-.39.55c0-.3-.26-.37-.42-.5-.32-.25-.66-.48-1-.73-.12.21-.38.36-.29.7A2.18,2.18,0,0,1,8.63,15s0-.11,0-.15l.92-1.21.33.24c-.31,0-.31,0-.61.42l1.23.87C10.73,15.35,10.73,15.35,11,15.24Z"/><path class="cls-1" d="M23.73,48.72l.56.08c-.16.24.05.42.11.63a2.66,2.66,0,0,0,.16.41c.18-.3.5-.5.61-.89l.49,0a2.19,2.19,0,0,0-1,1,1.5,1.5,0,0,0-.13.68c0,.07.12.14.2.24L24,50.82c.34-.13.27-.41.31-.63a1.68,1.68,0,0,0-.27-.92A4,4,0,0,0,23.73,48.72Z"/><path class="cls-1" d="M30,50.07a5.05,5.05,0,0,0,.06.67c0,.09.14.17.23.27l-.69.08c.28-.22.16-.49.16-.72s-.08-.67-.12-1c0-.18,0-.18-.24-.29l1.2-.12,0,.38c-.15-.32-.41-.13-.65-.2l.06.77.63-.1v.39C30.41,49.91,30.2,50,30,50.07Z"/><path class="cls-1" d="M35.47,8.14c.08-.1.18-.16.21-.25.19-.42.35-.85.54-1.28.07-.16,0-.21-.14-.26s-.34-.16-.53,0l0,0L35.72,6l1.51.62-.1.32c-.08-.31-.35-.32-.58-.43l-.42,1c-.05.12-.08.26-.14.39s-.08.28.12.37l0,0Z"/><path class="cls-1" d="M48.43,22.77l-.14-.59a1.35,1.35,0,0,0,.33,0L50,21.85a.15.15,0,0,0,.06-.13c-.05-.21-.06-.45-.31-.57h.34l.41,1.58-.39.08c.28-.26.1-.48,0-.73-.53.15-1,.28-1.54.44C48.57,22.54,48.51,22.67,48.43,22.77Z"/><path class="cls-1" d="M22.58,48.59c-.25,0-.5-.22-.77,0l.14-.32,1.61.41-.1.34c-.07-.34-.4-.24-.62-.38-.06.23-.12.44-.17.66s-.13.49-.19.74-.16.38.21.43l-.08.06L22,50.38a1.63,1.63,0,0,0,.22-.37C22.34,49.54,22.45,49.07,22.58,48.59Z"/><path class="cls-1" d="M42.21,10.22c.18-.24.1-.4-.09-.51a.37.37,0,0,0-.27,0,.33.33,0,0,0-.16.25,3.55,3.55,0,0,0,.1.64.66.66,0,0,1-.28.69.58.58,0,0,1-.71-.09,1.31,1.31,0,0,1-.12-.11c-.19-.21-.12-.43.18-.52,0,.14-.16.26,0,.42s.3.26.42.21a.42.42,0,0,0,.26-.48,3.73,3.73,0,0,1-.09-.67.49.49,0,0,1,.77-.45.83.83,0,0,1,.18.13C42.6,9.9,42.57,10.06,42.21,10.22Z"/><path class="cls-1" d="M18.76,48.75s0,.07,0,.09a.23.23,0,0,0,.11.34.62.62,0,0,0,.39.07.36.36,0,0,0,.18-.3,1.68,1.68,0,0,0-.14-.47,2.09,2.09,0,0,1-.16-.54.47.47,0,0,1,.66-.48,3.29,3.29,0,0,1,.42.21l-.13.3a1.68,1.68,0,0,0-.3-.35.3.3,0,0,0-.3,0,.35.35,0,0,0-.09.31,6.14,6.14,0,0,0,.3.7.53.53,0,0,1-.16.62.47.47,0,0,1-.56.11c-.06,0-.13,0-.17,0s-.26-.15-.27-.24.1-.25.16-.37Z"/><path class="cls-1" d="M4.79,29.73h.39c-.09.08-.18.12-.23.2a.36.36,0,0,0,.13.47c.16.1.28,0,.37-.11s.31-.4.48-.59a.63.63,0,0,1,.65-.11.54.54,0,0,1,.31.51v.11c0,.38-.07.43-.5.33l.13-.06a.35.35,0,0,0,.25-.34.37.37,0,0,0-.26-.37.4.4,0,0,0-.42.18,6.57,6.57,0,0,1-.48.57.44.44,0,0,1-.56.06.51.51,0,0,1-.26-.48C4.78,30,4.79,29.86,4.79,29.73Z"/><path class="cls-1" d="M42.45,11.86s0,.05,0,.06a.33.33,0,0,0,0,.51.32.32,0,0,0,.42.05.55.55,0,0,0,.17-.51,2,2,0,0,1,0-.73.47.47,0,0,1,.82-.16,3.48,3.48,0,0,1,.26.3l-.28.28a.49.49,0,0,1,0-.13.27.27,0,0,0-.1-.36c-.1-.06-.21-.15-.34-.05a.4.4,0,0,0-.16.39,3.49,3.49,0,0,1,0,.79.56.56,0,0,1-.92.25l-.11-.11C42,12.17,42.08,12,42.45,11.86Z"/><path class="cls-1" d="M6.76,27.49l0,.7c-.11-.31-.36-.23-.53-.24-.43,0-.86,0-1.29,0a.64.64,0,0,0,.18.75l-.37-.07V27h.44c-.33.15-.28.41-.28.66a9.75,9.75,0,0,0,1.62.05C6.57,27.69,6.66,27.57,6.76,27.49Z"/><path class="cls-1" d="M40.39,45.2l-.22.09,0,0,.52-.39a.84.84,0,0,0,.07.32c.25.36.5.7.77,1,.07.07.13.25.28.15.34-.22.41-.22.34-.5,0,0,0,0,0-.06.21.07.3.29.15.4s-.57.43-.88.63c.14-.31-.12-.44-.25-.62Z"/><path class="cls-1" d="M13.73,43.68a1.41,1.41,0,0,0-.28.15c-.33.34-.63.69-1,1-.13.13-.12.24,0,.37l-.07,0-.51-.46,0,0c.2.11.29,0,.4-.14.28-.31.56-.63.85-.94.09-.1.21-.19,0-.34C13.5,43.37,13.6,43.58,13.73,43.68Z"/><path class="cls-1" d="M21.45,48.17c-.18,0-.24.08-.28.21-.14.42-.27.83-.41,1.24-.05.16-.1.31.16.36l-.06.07-.61-.2c.09-.09.18-.15.21-.22.17-.47.33-1,.48-1.43,0-.07,0-.16-.07-.29l.58.19Z"/><path class="cls-1" d="M47,18.82l-.28-.58c.14,0,.26,0,.35,0,.44-.2.87-.42,1.3-.65.07,0,.1-.14.17-.24l.24.5a1.32,1.32,0,0,0-.3,0c-.44.21-.88.44-1.32.64-.16.08-.13.2-.1.33Z"/><path class="cls-1" d="M50.73,23.77l.09.6c-.15-.27-.38-.09-.55-.07-.39,0-.78.12-1.17.2-.15,0-.25.1-.18.3l-.08,0-.11-.67,0,0c.09.27.28.16.43.14q.64-.07,1.29-.21C50.57,24,50.63,23.87,50.73,23.77Z"/><path class="cls-1" d="M28,45h0v1.83h0Z"/><path class="cls-1" d="M25,26.93a6.28,6.28,0,0,0,.6,4l-.06,0c-.11-.21-.23-.41-.32-.63a6.47,6.47,0,0,1-.42-1.89,7.15,7.15,0,0,1,.37-2.87,4,4,0,0,1,.88-1.45,2.79,2.79,0,0,1,2.37-.89,3,3,0,0,1,1.68.73,6.18,6.18,0,0,1,1.42,1.84.29.29,0,0,1,0,.24c-.31.79-.64,1.57-1,2.36,0,.14-.13.17-.27.17H28.84V29l.85.16a.75.75,0,0,1,.29.16.27.27,0,0,1,.07.35c-.36.87-.73,1.75-1.07,2.63a.47.47,0,0,1-.53.32,7.61,7.61,0,0,1-.95-.08.28.28,0,0,1-.24-.2l-.82-2-1.2-2.9Z"/><path class="cls-1" d="M15.83,17.55a2.69,2.69,0,0,1,2.58.89,8.83,8.83,0,0,1,1.12,2.07l1.59,3.87c.49,1.17,1,2.33,1.45,3.51a2.06,2.06,0,0,1,.12.6,5.12,5.12,0,0,0,.44,1.77,5.78,5.78,0,0,0,1,1.49,2,2,0,0,1,.28.58c.57,1.36,1.13,2.72,1.68,4.09a10,10,0,0,1,.46,1.37,2,2,0,0,1-.32,1.39c-.17-.4-.32-.74-.46-1.09l-1.17-2.78c-.63-1.49-1.25-3-1.88-4.48l-2-4.8a.21.21,0,0,0-.23-.15,1.22,1.22,0,0,1-.27,0v-.06l.46,0-.31-3-1,.08c-.05-.13-.14-.32-.22-.52-.34-.8-.67-1.62-1-2.41A5,5,0,0,0,17,18.3a3.18,3.18,0,0,0-1.1-.7Z"/><path class="cls-1" d="M16.76,26.48A3.79,3.79,0,0,1,15.52,26a1.54,1.54,0,0,1-.18-2.14,2.17,2.17,0,0,1,2.86-.39A4.55,4.55,0,0,1,20,25.67c.3.79.63,1.56.95,2.33a.25.25,0,0,1,0,.07l-.48-.45a3,3,0,0,0-1.48-.7c-.36-.08-.71-.15-1.07-.21-.15,0-.19-.08-.19-.22,0-1,0-1.92,0-2.88,0-.38,0-.27-.33-.36l-.29,0c-.23,0-.32.05-.32.28v3Z"/><path class="cls-1" d="M37,17.51c0,.24-.11.45-.14.68a9.63,9.63,0,0,0-.11,1.08q0,3.7,0,7.41A3,3,0,0,1,36.57,28c-.28.67-.52,1.35-.78,2l-.08.09v-.25c0-3.26,0-6.52,0-9.79a8.81,8.81,0,0,1,.17-1.69,1,1,0,0,1,1-.82Z"/><path class="cls-1" d="M17.72,28.32c0-.32,0-.31-.36-.37l-.29-.07-.29,0,0,.25a2.44,2.44,0,0,1-2.3-2.8,5.8,5.8,0,0,0,.25,1,2.22,2.22,0,0,0,1.51,1.3c.5.15,1,.22,1.55.33a7.82,7.82,0,0,1,2,.57,2,2,0,0,1,.82,2.9.07.07,0,0,1,0,0,6.11,6.11,0,0,0,.09-.86,2,2,0,0,0-1.06-1.71A5,5,0,0,0,18,28.37Z"/><path class="cls-1" d="M40.91,32.51c.47-.37.28-.79.14-1.17-.5-1.34-1-2.68-1.55-4l-1.21-3s0,0,0,0c.4.79.67,1.63,1,2.49V26h0c.11.27.23.54.33.82.55,1.39,1.1,2.78,1.64,4.17a5.48,5.48,0,0,1,.23.79A.6.6,0,0,1,40.91,32.51Z"/><path class="cls-1" d="M18.82,23l-1.1-.19v-2.4h0Z"/><path class="cls-1" d="M26.36,23.12a4.88,4.88,0,0,0-2.1,1.9l0-.05c-.06,0-.15.06-.18.11a5.88,5.88,0,0,0-.87,2.12,5.4,5.4,0,0,0,.45,3.22l.07.14a.59.59,0,0,1,0,.07,5.17,5.17,0,0,1-.46-4.18A4.79,4.79,0,0,1,26.36,23.12Z"/><path class="cls-1" d="M30.43,29.43c.18.22.18.23.21,1.37l.25-.61a2.53,2.53,0,0,1-.29,1.75,1.43,1.43,0,0,1-.74.5,7.06,7.06,0,0,0,.48-.73,1.48,1.48,0,0,0,.15-.61c0-.41,0-.83,0-1.24A4,4,0,0,0,30.43,29.43Z"/><path class="cls-1" d="M36.79,28.69,38.22,25h.06a.86.86,0,0,1,0,.32c-.41,1.06-.83,2.13-1.25,3.19C37,28.64,37,28.75,36.79,28.69Z"/><path class="cls-1" d="M14.53,30.92l.73,1.18a.83.83,0,0,0-.73.37Z"/><path class="cls-1" d="M31.09,23.51l.09,1-1-1Z"/><path class="cls-1" d="M35.43,31.65a.55.55,0,0,1-.14.47,2.25,2.25,0,0,0-.18.38h-.39Z"/><path class="cls-1" d="M39.7,28.69l-.32,0v-.78h0Z"/><path class="cls-1" d="M19.14,23.61v.17l-.3-.28.7-.05s.06,0,.09.06-.07.09-.1.1S19.27,23.61,19.14,23.61Z"/><path class="cls-1" d="M37.75,23.6l.64.17v.07l-.66-.13Z"/><path class="cls-1" d="M37.6,24l-.54-.14,0-.08.54.14Z"/><path class="cls-1" d="M18.31,39.17H15.15a4.74,4.74,0,0,0,1.8-2,3.3,3.3,0,0,0,1.39,2Z"/><path class="cls-1" d="M26.81,45.46a3.15,3.15,0,0,1-.22.49.23.23,0,0,1-.41,0,1,1,0,0,1,0-1c.09-.23.32-.24.45,0A4.6,4.6,0,0,1,26.81,45.46Z"/><path class="cls-1" d="M26.87,45.19a1.85,1.85,0,0,1-.19,1.34A2.94,2.94,0,0,0,26.87,45.19Z"/><path class="cls-1" d="M25.73,45.85l-.06-.67h0l.07.67Z"/><path class="cls-1" d="M29.33,45.38a3.5,3.5,0,0,1,.2-.54c.09-.16.24-.12.36,0A1,1,0,0,1,30,45.91c-.06.07-.2.15-.26.13a.64.64,0,0,1-.27-.27,1.36,1.36,0,0,1-.06-.37Z"/><path class="cls-1" d="M30.19,45.17A2,2,0,0,1,30,46.54,3,3,0,0,0,30.19,45.17Z"/><path class="cls-1" d="M29,45.16l0,.63h0l0-.63Z"/><path class="cls-1" d="M24.67,45.07v1.79h0V45.07Z"/><path class="cls-1" d="M28,45v1.83h0V45Z"/></g></g></g></g></svg>