<?xml version="1.0" encoding="utf-8"?>
<!-- Generator: Adobe Illustrator 22.1.0, SVG Export Plug-In . SVG Version: 6.00 Build 0)  -->
<svg version="1.1" id="Layer_1" xmlns="http://www.w3.org/2000/svg" xmlns:xlink="http://www.w3.org/1999/xlink" x="0px" y="0px"
	 viewBox="0 0 1117.8 636.1" style="enable-background:new 0 0 1117.8 636.1;" xml:space="preserve">
<style type="text/css">
	.st0{fill:none;stroke:#FFFFFF;stroke-width:10;stroke-miterlimit:10;}
</style>
<g>
	<g>
		<polyline class="st0" points="96.3,377.8 50.2,324 69.1,270.8 		"/>
		<polyline class="st0" points="196.2,407.9 112.9,325 303,361.4 		"/>
		<line class="st0" x1="262" y1="379.3" x2="293.4" y2="444.5"/>
		<polyline class="st0" points="556.4,304.3 403.7,419.5 308.2,311.5 112.9,325 		"/>
		<path class="st0" d="M281.2,551.4l168.7-59.2l0,0l100.1,68.3h0.2L547,423.7l0,0l98.5-56.1c0,0,0,0,0.2,0l87.9,192.5
			c0,0.2-0.2,0.4-0.2,0.2L547,423.7l0,0l-143.3-4.2l0,0L281.2,551.4c0.2-0.2,0-0.2,0-0.2L303,361.6c0,0,0-0.2-0.2,0L196,408.1
			l-126.7,55c0,0-0.2,0-0.2-0.2L112.7,325l0,0l-43.8-54.2l-57.7-71.2v-0.2l220-35.3l0,0l76.9,147.3l0,0l248-7.3c0,0,0,0,0-0.2
			l-58.2-169.1v-0.2h66.3l0,0l77.9-66.5l0,0l105.9,19.7l0,0l29.1,87.2l0,0l-50.9,130.6c0,0,0,0-0.2,0L564.1,134.6h-0.2l-8.3,169.1
			l-9.3,119.4l0,0l-97,68.5c0,0,0,0-0.2,0l-46.1-72.7l0,0l-100.7-58.2l0,0l5.2-49.9l0,0l189.8-176.3v-0.2l-158.5,40.9l0,0l-108-11.8
			l0,0l-118.4,161l0,0l-62.7-1"/>
		<path class="st0" d="M556.4,304.3l89.3,63.4l1.5-144.2c0-0.4-0.4-0.6-0.8-0.4L556.4,304.3z"/>
		<path class="st0" d="M645.7,367.6l81-61.3l7.2,252.3l1.1,0l123-229L778.8,178c-0.4-0.8,0.4-1.7,1.2-1.2l91.8,45.5l223.7,4.2
			L958.1,386.1c-0.4,0.4-1,0.2-1-0.4V255c0-0.2-0.2-0.4-0.4-0.2l-98.7,75l99.1,57.5l0,0l-222.9,173c-0.2,0.2-0.4,0.2-0.8,0.2H549.9"
			/>
		<polyline class="st0" points="726.7,306.3 858.2,329.6 872.1,222.2 957.2,254.4 1096,226.4 		"/>
	</g>
	<polyline class="st0" points="747.9,87.8 646.3,223.1 641.9,68.1 	"/>
	<line class="st0" x1="777" y1="175.1" x2="646.3" y2="223.1"/>
	<polyline class="st0" points="497.2,134.6 399.1,58.8 338.7,175.3 338.7,281.8 	"/>
	<line class="st0" x1="299.6" y1="295.3" x2="338.7" y2="175.3"/>
</g>
</svg>
