<svg xmlns="http://www.w3.org/2000/svg" viewBox="0 0 76.97 47.38"><defs><style>.cls-1{fill:#fff;}</style></defs><title>slice</title><g id="Layer_2" data-name="Layer 2"><g id="logos"><g id="_3K_IN_KIND" data-name="3K + IN KIND"><g id="slice"><path class="cls-1" d="M57.79,32.6c-1.67.18-3.3.34-4.92.56-.54.07-.57-.23-.65-.58a3.17,3.17,0,0,0-2.6-2.72,3.91,3.91,0,0,0-3.39,1,8.25,8.25,0,0,0-2.33,4.24,10.44,10.44,0,0,0-.35,5.34,3,3,0,0,0,4.33,2A5.24,5.24,0,0,0,50.37,40c.6-1.11.6-1.13,1.83-.95s2.54.39,3.81.6a2.48,2.48,0,0,1,.45.16,14.9,14.9,0,0,1-2,3.61,10.65,10.65,0,0,1-11.91,3.39,7.25,7.25,0,0,1-4.87-6.2,14.22,14.22,0,0,1,1.93-9.69,11,11,0,0,1,7.65-5.24,10.76,10.76,0,0,1,6,.36,7.05,7.05,0,0,1,4.58,5.36c0,.23.12.45.19.74.56-.86,1-1.7,1.63-2.46a10.5,10.5,0,0,1,8-4.19,9.34,9.34,0,0,1,5.43,1,7.68,7.68,0,0,1,3.78,5.94,17,17,0,0,1-.11,5c-.11.7-.5.82-1.07.82h-13a4,4,0,0,0,3.52,4.84,4.09,4.09,0,0,0,3.92-1.9A1.49,1.49,0,0,1,72,40.4a32,32,0,0,0,3.39.58c.43.06.52.22.31.6a10.32,10.32,0,0,1-9.32,5.76,9.09,9.09,0,0,1-7.22-2.86A8.81,8.81,0,0,1,57,39.56a12.54,12.54,0,0,1,.73-6.5A2.21,2.21,0,0,0,57.79,32.6Zm5.36,2c2.75,0,5.39,0,8,0a.48.48,0,0,0,.34-.32,4.11,4.11,0,0,0-2-4.22,4.19,4.19,0,0,0-5.45,1.78A5.4,5.4,0,0,0,63.15,34.63Z"/><path class="cls-1" d="M9.94,47.32a12.44,12.44,0,0,1-5.27-.82,8,8,0,0,1-4.6-4.85c-.2-.55.06-.82.53-.9,1.5-.26,3-.51,4.51-.7a.82.82,0,0,1,.69.38c1.31,3.11,4.81,3,6.85,2.23a1.68,1.68,0,0,0,1.27-1.53c0-.85-.57-1.26-1.26-1.52-1.47-.55-3-1-4.43-1.62a18.86,18.86,0,0,1-3-1.38,5.08,5.08,0,0,1-1.75-6.48A7.77,7.77,0,0,1,9.8,25.66,14.73,14.73,0,0,1,17,26a6.41,6.41,0,0,1,4.23,4.18c.2.59,0,.87-.5,1-1.45.28-2.91.52-4.37.75a.68.68,0,0,1-.56-.26c-1.18-2-3.12-2.2-5.16-2a3.43,3.43,0,0,0-1.37.46A1.29,1.29,0,0,0,9,32.24a3.71,3.71,0,0,0,1.09.59c2,.72,4.14,1.34,6.16,2.14a5.27,5.27,0,0,1,3.43,3.57,6,6,0,0,1-1.44,5.61C16.23,46.53,13.47,47.47,9.94,47.32Z"/><path class="cls-1" d="M20.08,46.88c.19-1,.36-1.87.55-2.75q2.64-12.64,5.29-25.28c.12-.58.36-.87,1-.85,1.6,0,3.19,0,4.92,0-.19.95-.34,1.83-.53,2.7-1.08,5.18-2.19,10.35-3.27,15.52-.7,3.32-1.35,6.65-2.06,10a1,1,0,0,1-.68.66C23.61,46.91,21.9,46.88,20.08,46.88Z"/><path class="cls-1" d="M38.56,25.9c-.29,1.48-.54,2.83-.82,4.17-.5,2.43-1,4.85-1.53,7.28-.62,2.93-1.22,5.86-1.87,8.78-.06.29-.44.71-.69.72-1.71.06-3.42,0-5.23,0,.23-1.15.44-2.22.67-3.29l3.48-16.73c.14-.65.39-1,1.17-1C35.31,25.94,36.88,25.9,38.56,25.9Z"/><path class="cls-1" d="M37,0A22.24,22.24,0,0,1,52.27,6.53,26.13,26.13,0,0,1,54.74,9.6a1.56,1.56,0,0,1-.38,2.53,1.76,1.76,0,0,1-2.57-.53A17.74,17.74,0,0,0,40,3.94,17.34,17.34,0,0,0,28.17,5.77a6.72,6.72,0,0,1-1.41.6,1.39,1.39,0,0,1-1.66-.6,1.57,1.57,0,0,1,.12-2,4.18,4.18,0,0,1,1-.8A21.08,21.08,0,0,1,34.12.36C35.07.23,36,.12,37,0Z"/><path class="cls-1" d="M48.15,15.75c-.59.06-.89-.34-1.16-.77a11.9,11.9,0,0,0-5.47-4.57,11.79,11.79,0,0,0-10.27.31c-.34.17-.66.36-1,.54a1.68,1.68,0,0,1-2.2-.42,1.61,1.61,0,0,1,.48-2.33,13.83,13.83,0,0,1,5.13-2.19A14.4,14.4,0,0,1,41,6.47c3.75,1.19,7,3.19,9.13,6.71a1.7,1.7,0,0,1-1.27,2.49A5.16,5.16,0,0,1,48.15,15.75Z"/><path class="cls-1" d="M36.82,11.79a9.75,9.75,0,0,1,8.44,4.65,1.54,1.54,0,0,1-.51,2.21,1.55,1.55,0,0,1-2.26-.08,15.88,15.88,0,0,0-1.71-1.85,6.2,6.2,0,0,0-7.28-.57c-1.08.62-2.05.5-2.5-.28a1.88,1.88,0,0,1,.89-2.67A10.87,10.87,0,0,1,36.82,11.79Z"/><path class="cls-1" d="M39.87,21.05a3.64,3.64,0,0,1-3.67,3.58,3.22,3.22,0,0,1-3.39-3.28,3.69,3.69,0,0,1,3.57-3.77A3.43,3.43,0,0,1,39.87,21.05Z"/></g></g></g></g></svg>