<svg xmlns="http://www.w3.org/2000/svg" viewBox="0 0 141.75 43.35"><defs><style>.cls-1{fill:#fff;}</style></defs><title>smithschool</title><g id="Layer_2" data-name="Layer 2"><g id="logos"><g id="_1K" data-name="1K"><g id="center"><path class="cls-1" d="M56.84,3.59c-.89,0-1.64,0-2.39,0A1.23,1.23,0,0,0,53,4.72c0,.25-.12.49-.18.73l-.28,0,.24-2.61h9.48l.25,2.62c-.67-.57-.35-1.85-1.63-1.84-.86,0-1.72,0-2.67,0v8.12c0,1.25.16,1.4,1.43,1.52a.56.56,0,0,1,.43.33c-.23,0-.45.06-.68.07-1.67.06-3.33.09-5,.18A5.14,5.14,0,0,1,50.1,12c-.55-.63-1.18-1.18-1.71-1.83a2.79,2.79,0,0,0-3.14-.92c0,1,0,1.93,0,2.9a1,1,0,0,0,1.11,1.07.59.59,0,0,1,.52.29H42.35c0-.1,0-.19,0-.19,1.46-.43,1.46-.43,1.46-2v-6c0-1.74,0-1.74-1.52-2.21a.75.75,0,0,1,0-.15c1.73,0,3.46-.2,5.17-.12C49,3,50.35,3.56,50.7,5.2a2.86,2.86,0,0,1-1.84,3.39c1.3,1.34,2.54,2.69,3.84,4a3.37,3.37,0,0,0,3.47.56c.26-.07.46-.5.63-.8a1.42,1.42,0,0,0,0-.59C56.84,9.05,56.84,6.37,56.84,3.59ZM45.23,8.81c.72,0,1.3,0,1.85-.11a2.38,2.38,0,0,0,2.11-2.45c.15-2.66-1.54-3.13-3.44-3.1a.72.72,0,0,0-.49.51C45.22,5.33,45.23,7,45.23,8.81Z"/><path class="cls-1" d="M82,13.59H76.11l0-.18a4.27,4.27,0,0,1,.68-.18c1.28-.12,1.55-.37,1.56-1.66s0-2.77,0-4.22H70.43c0,1.6,0,3.18,0,4.75a1,1,0,0,0,1,1.08,4.49,4.49,0,0,1,.59.19l0,.21h-5.1l-.06-.18a5.68,5.68,0,0,1,.7-.22,1.06,1.06,0,0,0,1-1.16q0-5,0-10A1.06,1.06,0,0,0,67.68.81a.72.72,0,0,1-.48-.4H72c0,.12,0,.21,0,.22-1.75.33-1.52.8-1.61,2.24-.08,1.14,0,2.29,0,3.52h7.93c0-1.56,0-3.11,0-4.66,0-.32-.51-.68-.87-.9S76.7.67,76.4.4h5.26c-.13.17-.17.26-.23.29C80.08,1.23,80,1.28,80,2.75v8.4c0,1.59.07,1.68,1.61,2.11C81.74,13.29,81.8,13.39,82,13.59Z"/><path class="cls-1" d="M3.67,8.22c0,1.25,0,2.46,0,3.67a1.25,1.25,0,0,0,1.24,1.38l.88.09c-.52.5-5.18.54-5.79.13,0-.05,0-.13.08-.14C1.85,13,1.91,13,1.91,11.1V2.71c0-1.59,0-1.63-1.61-2C.19.72.09.62,0,.38.6.33,1.21.23,1.81.24A37.42,37.42,0,0,1,7.32.39a3.55,3.55,0,0,1,3,4.88A3.92,3.92,0,0,1,7.91,7.5c2.77,2,4.22,5.51,7.93,6.32a2.48,2.48,0,0,1-.49.15A6.32,6.32,0,0,1,9.86,11.8C9.12,11,8.24,10.23,7.54,9.36,6.52,8.08,5.23,7.92,3.67,8.22Zm0-4.09V5.77c0,2.11,0,2.11,2.16,1.83A3.08,3.08,0,0,0,8.64,4.26C8.68,2.24,7.78,1,6,.7,5.46.61,4.91.63,4.36.58s-.72.17-.7.7C3.7,2.23,3.67,3.18,3.67,4.13Z"/><path class="cls-1" d="M99.25,2.94c.75,0,1.5,0,2.25,0,.18,0,.36.4.47.65,1.18,2.56,2.34,5.14,3.57,7.85.18-.37.32-.62.44-.89,1-2.28,2.09-4.55,3.08-6.86a1.09,1.09,0,0,1,1.28-.81,12.49,12.49,0,0,0,1.5,0l0,.21a1.54,1.54,0,0,0-.47.19c-.22.21-.56.48-.55.7.14,2.8.32,5.59.56,8.37,0,.3.51.57.81.81.13.1.34.1.5.32h-4.16c0-.11,0-.2.06-.21,1.43-.52,1.41-.52,1.3-2-.14-1.93-.25-3.86-.37-5.79,0-.18-.06-.37-.13-.82l-4,9-.32,0-4-8.78-.18,0c-.09,1.27-.18,2.54-.25,3.81-.05.8-.05,1.61-.13,2.42-.1,1-.29,2,1.37,2.13l-.21.22H98.41a1.31,1.31,0,0,1,0-.19c1.13-.11,1.29-.89,1.33-1.84.09-2.16.24-4.31.36-6.47,0-.79.27-1.67-1.05-1.85Z"/><ellipse class="cls-1" cx="71.09" cy="30.78" rx="98.45" ry="0.1"/><path class="cls-1" d="M133,13.54h-3.87l0-.16a3.2,3.2,0,0,1,.52-.18.89.89,0,0,0,.84-1c0-2.63,0-5.25-.05-7.88,0-.44-.6-.86-.94-1.3h3.69c-1.67.36-1.28,1.67-1.31,2.76,0,.66,0,1.31,0,2h6.34c0-1.22.06-2.43,0-3.63,0-.3-.5-.6-.81-.83s-.45-.09-.65-.33h4.08l0,.12c-.15.08-.34.12-.44.24-.27.31-.73.66-.73,1-.07,2.57,0,5.13,0,7.7a1,1,0,0,0,1,1.16.5.5,0,0,1,.39.31h-4.53l0-.21c.27,0,.54-.09.81-.11a.91.91,0,0,0,.93-.94c0-1.23,0-2.46,0-3.74h-6.32a27.62,27.62,0,0,0,.05,3.65C132,12.68,132.6,13.1,133,13.54Z"/><path class="cls-1" d="M29.89,7.51c1.18.54,2.11,1.22,2.18,2.6a3.08,3.08,0,0,1-3.14,3.47c-2,.13-4,0-6.05,0-.07,0-.14-.08-.47-.26.48-.07.73-.12,1-.14A1.11,1.11,0,0,0,24.57,12V4.51c0-.79-.37-1.24-1.21-1.24a4.08,4.08,0,0,1-.61-.09V3c.84,0,1.67-.14,2.51-.13,1.29,0,2.59,0,3.88.12A2.51,2.51,0,0,1,31.3,4.34C31.89,5.52,31.41,6.63,29.89,7.51ZM26,7.78c0,1.41-.05,2.73,0,4a1.48,1.48,0,0,0,.69,1.07,2.86,2.86,0,0,0,3-.4,2.79,2.79,0,0,0,.69-2.94,2.54,2.54,0,0,0-2.33-1.76C27.41,7.73,26.75,7.78,26,7.78Zm0-.33c.93-.07,1.82-.06,2.69-.21A1.52,1.52,0,0,0,30,5.65a2,2,0,0,0-1.91-2.41,14.35,14.35,0,0,0-2.08,0Z"/><path class="cls-1" d="M89.81,13.42l-.37-3,.29-.09c.12.26.24.51.34.77a3.41,3.41,0,0,0,4,2.19,2.35,2.35,0,0,0,1.42-3.91A15.31,15.31,0,0,0,93.12,7.5c-.77-.6-1.62-1.12-2.34-1.77a3.17,3.17,0,0,1-1.06-3.66A3.3,3.3,0,0,1,92.94,0a11.13,11.13,0,0,1,2,.23l1.77.29L97,3l-.23.1c-.16-.24-.32-.46-.47-.7A3.32,3.32,0,0,0,92.69.62a1.93,1.93,0,0,0-1.14,3.17,8.81,8.81,0,0,0,1.72,1.55c.8.61,1.68,1.12,2.47,1.73,1.82,1.4,2.37,3.16,1.56,4.82a4.34,4.34,0,0,1-4.9,2C91.62,13.75,90.82,13.61,89.81,13.42Z"/><path class="cls-1" d="M39.79,6.6V9.68l-.15,0a4.36,4.36,0,0,1-.17-.51.92.92,0,0,0-1-.81H35.8c0,1.36,0,2.67,0,4,0,.21.5.54.79.57.86.07,1.72,0,2.59,0a1.48,1.48,0,0,0,1.45-1l.33-.86.25,0L41,13.55H32.43l0-.25.83-.08c.71-.06,1.1-.38,1.1-1.15q0-3.81,0-7.61a1,1,0,0,0-1-1.16A.74.74,0,0,1,32.76,3H40.5l.15,2.26-.19.08a6.26,6.26,0,0,1-.27-.67,1.23,1.23,0,0,0-1.39-1.1c-1,0-1.95,0-3,0V7.73a17.7,17.7,0,0,0,2.92-.05C39.13,7.62,39.42,7,39.79,6.6Z"/><path class="cls-1" d="M120.94,13.31l.86-.09c.6-.05,1-.33,1-1V3.61a28.6,28.6,0,0,0-2.94,0c-.29,0-.57.49-.76.81a4.57,4.57,0,0,0-.31,1l-.26,0,.25-2.6h9.47l.26,2.6-.22.07a7.89,7.89,0,0,1-.29-.86,1.15,1.15,0,0,0-1.33-1c-.77,0-1.55,0-2.46,0v.87c0,2.39,0,4.79,0,7.18,0,1.34.12,1.47,1.43,1.59a.53.53,0,0,1,.41.3H121Z"/><path class="cls-1" d="M17.51,11.61A4.2,4.2,0,0,1,13,7.49,4.31,4.31,0,0,1,17.55,3,4.18,4.18,0,0,1,22,7.1,4.44,4.44,0,0,1,17.51,11.61Zm3.3-4.12.19-.1a13.36,13.36,0,0,0-1.27-2.85,3,3,0,0,0-5.13.68A4.54,4.54,0,0,0,15,9.76a3.1,3.1,0,0,0,3.29,1.43A2.88,2.88,0,0,0,20.6,8.77C20.71,8.35,20.74,7.92,20.81,7.49Z"/><path class="cls-1" d="M23.44,18H26c-.89.34-.68,1.11-.69,1.78,0,1.33,0,2.65,0,4,0,.64.14,1.14.9,1.29h-3c1.28-.47,1.39-.76,1.09-3.25H20c-.49,1.43-.22,2.79.67,3.33H17.9c.34-.25.72-.39.84-.65a2.65,2.65,0,0,0,.11-1.1c0-1.29,0-2.59,0-3.89,0-.95,0-.95-.78-1.48H20.7c-.92.55-1.09,1.27-.77,3.23h4.38a15.83,15.83,0,0,0,0-2.39C24.22,18.52,23.73,18.27,23.44,18Z"/><path class="cls-1" d="M86.14,21c1.3.8,1.68,1.48,1.39,2.5a2.23,2.23,0,0,1-2.45,1.61H81c1.27-.44,1.27-.44,1.27-1.85V19.55c0-1.21,0-1.24-1.22-1.58.22,0,.44-.07.66-.07,1.21,0,2.42,0,3.62,0a1.75,1.75,0,0,1,1.81,1.21C87.4,20,86.87,20.59,86.14,21Zm-2.86.17c0,1,0,1.88,0,2.73,0,.26.3.72.47.72a5,5,0,0,0,2-.26c.7-.33.73-1.13.57-1.84A1.57,1.57,0,0,0,85,21.28,15.14,15.14,0,0,0,83.28,21.18Zm0-.27c1,0,2,.34,2.57-.61a1.77,1.77,0,0,0-.09-1.58c-.59-.83-1.55-.69-2.48-.54Z"/><path class="cls-1" d="M15.53,36.34v6.82c-.52.22-.77,0-1-.47a43,43,0,0,0-2-4v4.55l-.91.05V36.35a.79.79,0,0,1,1.2.5,33.57,33.57,0,0,0,1.74,3.57c0-1.15,0-2.3,0-3.44C14.59,36.27,14.88,36.12,15.53,36.34Z"/><path class="cls-1" d="M140.86,40.42c0-1.13,0-2.27,0-3.4,0-.64.17-.94.9-.69v6.85c-.55.21-.78-.06-1-.53a36.27,36.27,0,0,0-2-4V43.2l-.87,0V36.34c.63-.26,1,0,1.21.55.5,1.21,1.07,2.39,1.61,3.58Z"/><path class="cls-1" d="M112.25,19c0,1.78,0,3.31,0,4.84a1.09,1.09,0,0,0,1.07,1.21h-2.45c.27-.22.63-.37.76-.64a2.43,2.43,0,0,0,.08-1V19.35c0-.89,0-.89-.79-1.3a2.43,2.43,0,0,1,2.47.64c1.39,1.61,2.92,3.1,4.58,4.84V20.71c0-.43,0-.86,0-1.29.06-.73-.09-1.27-1-1.39h2.37c-1,.09-.85.83-.85,1.49v4.85c0,.27,0,.55-.07,1.12Z"/><path class="cls-1" d="M113.79,3h3.89l0,.14a2.14,2.14,0,0,1-.42.16c-.71.1-1,.54-1,1.21,0,2.5,0,5,0,7.51,0,1,.6,1.2,1.44,1.27l-.1.21h-3.86c0-.06,0-.16,0-.16,1.05-.24,1.16-1,1.15-1.9,0-2,0-4,0-6,0-1,.29-2.12-1.4-2.28Z"/><path class="cls-1" d="M43.37,36.25c.78,0,1.47,0,2.15,0a1.64,1.64,0,0,1,1.59,1.13,2,2,0,0,1-.45,2.24.85.85,0,0,0-.28,1.16c.31.77.55,1.57.82,2.36-.7.26-1.07.05-1.25-.62s-.41-1.2-.59-1.81-.47-.67-1.06-.48v2.94h-.93Zm1,.72v2.56a6.94,6.94,0,0,0,1.76-.78,1.2,1.2,0,0,0,0-1.15A7,7,0,0,0,44.35,37Z"/><path class="cls-1" d="M30.06,43.16c-.77.25-1.1,0-1.27-.69s-.39-1.14-.56-1.72-.43-.73-1.08-.5v3h-.92v-7c.73,0,1.47,0,2.2,0A1.6,1.6,0,0,1,30,37.44a1.93,1.93,0,0,1-.44,2.16.9.9,0,0,0-.28,1.24C29.55,41.59,29.79,42.36,30.06,43.16ZM27.2,37v2.57A6.7,6.7,0,0,0,29,38.77a1.18,1.18,0,0,0,0-1.15A7,7,0,0,0,27.2,37Z"/><path class="cls-1" d="M64.28,17.78A3.84,3.84,0,0,1,68,19.9a3.51,3.51,0,0,1-.56,4A4.14,4.14,0,0,1,63,25.18a3.55,3.55,0,0,1-2.91-4.07C60.34,19.11,62,17.79,64.28,17.78Zm3,3.94a3.32,3.32,0,0,0-3-3.63c-1.6-.11-2.8,1.09-3,3A3.51,3.51,0,0,0,64.36,25C66.05,25.07,67.22,23.73,67.23,21.72Z"/><path class="cls-1" d="M115.08,43.16c-.77.25-1.1,0-1.26-.68s-.4-1.15-.57-1.73-.42-.73-1.07-.5v3h-.92V36.29c.78,0,1.58,0,2.36,0A1.51,1.51,0,0,1,115,37.52a1.92,1.92,0,0,1-.47,2.08.91.91,0,0,0-.28,1.24C114.58,41.59,114.81,42.36,115.08,43.16Zm-2.93-4,.25.29a6.19,6.19,0,0,0,1.59-.7,1.2,1.2,0,0,0,0-1.15,6.53,6.53,0,0,0-1.74-.64c0,.51-.06.76-.07,1S112.15,38.78,112.15,39.17Z"/><path class="cls-1" d="M38.42,21.59A3.82,3.82,0,0,1,42,17.8c2.46-.22,4.35.94,4.7,3a3.62,3.62,0,0,1-1.49,3.72,4.39,4.39,0,0,1-4.74.36A3.3,3.3,0,0,1,38.42,21.59Zm7.16.15a3.33,3.33,0,0,0-3-3.65c-1.59-.11-2.76,1-3,2.91a3.52,3.52,0,0,0,3.07,4C44.33,25.13,45.57,23.77,45.58,21.74Z"/><path class="cls-1" d="M32.21,17.81a3.69,3.69,0,0,1,3,6.31A4.55,4.55,0,0,1,30.4,25a3.53,3.53,0,0,1-2.34-4,3.85,3.85,0,0,1,3.46-3.23C31.75,17.79,32,17.81,32.21,17.81Zm3,3.9a3.33,3.33,0,0,0-3.06-3.62c-1.56-.09-2.74,1-3,2.85a3.51,3.51,0,0,0,3.09,4C34,25.11,35.19,23.75,35.19,21.71Z"/><path class="cls-1" d="M89.3,18H92c-.91.16-.91.82-.89,1.51,0,.9,0,1.79,0,2.68a2.37,2.37,0,0,0,2.57,2.52,2.3,2.3,0,0,0,2.63-2.33c.07-.95,0-1.9,0-2.86,0-.7-.12-1.33-1-1.49h2.45c-.86.2-.89.84-.87,1.55,0,.89,0,1.79,0,2.68,0,2-1.36,3.12-3.49,3.09s-3.3-1.11-3.32-3.13q0-1.47,0-2.94C90.15,18.68,90.05,18.18,89.3,18Z"/><path class="cls-1" d="M93.72,36.35c.73-.25,1,0,1,.65,0,1.38,0,2.76,0,4.14,0,.68.2,1.21,1,1.26s1-.42,1-1.3c0-1.58,0-3.16,0-4.75.65-.22,1-.12,1,.61,0,1.41,0,2.82,0,4.23a1.94,1.94,0,1,1-3.87.22C93.69,39.74,93.72,38.07,93.72,36.35Z"/><path class="cls-1" d="M136.6,39.71a21.26,21.26,0,0,1-.6,2.47,1.63,1.63,0,0,1-1.66,1.13,1.61,1.61,0,0,1-1.6-1.1,6.53,6.53,0,0,1,0-5,1.62,1.62,0,0,1,1.61-1.09,1.56,1.56,0,0,1,1.6,1.08C136.25,38,136.4,38.88,136.6,39.71Zm-.95,0a16.36,16.36,0,0,0-.48-2,1.13,1.13,0,0,0-.81-.62,1.09,1.09,0,0,0-.81.61,5.53,5.53,0,0,0,0,4,.84.84,0,0,0,1.62,0A14.17,14.17,0,0,0,135.65,39.73Z"/><path class="cls-1" d="M55.12,39.75a20.77,20.77,0,0,1,.53-2.38,1.75,1.75,0,0,1,3.33,0,6.43,6.43,0,0,1,0,4.8,1.68,1.68,0,0,1-1.65,1.17,1.61,1.61,0,0,1-1.65-1.14A24.27,24.27,0,0,1,55.12,39.75Zm3.46,0a14,14,0,0,0-.49-2,.83.83,0,0,0-1.61,0,5.52,5.52,0,0,0,0,4,1.18,1.18,0,0,0,.87.66,1.21,1.21,0,0,0,.82-.72A11.31,11.31,0,0,0,58.58,39.71Z"/><path class="cls-1" d="M42.05,39.69a24.36,24.36,0,0,1-.59,2.48,1.63,1.63,0,0,1-1.66,1.14,1.61,1.61,0,0,1-1.6-1.09,6.44,6.44,0,0,1,0-5,1.62,1.62,0,0,1,1.65-1,1.55,1.55,0,0,1,1.53,1.07C41.7,38,41.85,38.87,42.05,39.69Zm-3.49,0a15,15,0,0,0,.49,2.06,1.13,1.13,0,0,0,.83.58,1,1,0,0,0,.75-.58,5.21,5.21,0,0,0,0-4.1,1.13,1.13,0,0,0-.82-.6,1.18,1.18,0,0,0-.79.66A14.08,14.08,0,0,0,38.56,39.73Z"/><path class="cls-1" d="M123.51,18.36v2.83c1-.19,2.14.59,2.86-.94V22.7c-.65-1.73-1.88-.79-2.89-1.18,0,1,0,1.77,0,2.57a.86.86,0,0,0,.55.59,5.21,5.21,0,0,0,2,0c.5-.15.89-.68,1.34-1.05l-.1,1.44h-6.14c1.35-.42,1.35-.42,1.35-1.89,0-1.24,0-2.48,0-3.71,0-.75-.08-1.34-1-1.42h5.4v1.51c-.34-.57-.49-1.32-1.4-1.19A14.09,14.09,0,0,1,123.51,18.36Z"/><path class="cls-1" d="M125,43.2h-.91c-.49-.63.08-2.1-1.53-1.85-1.16.18-.49,1.25-1.1,1.82h-.81c.54-2.21,1.07-4.38,1.63-6.55a.7.7,0,0,1,.55-.35.71.71,0,0,1,.56.37C124,38.8,124.49,41,125,43.2Zm-2.1-5.12h-.17l-.52,2.37h1.16Z"/><path class="cls-1" d="M69,43.21h-.89c.07-.35.12-.64.19-.93.45-1.82.88-3.63,1.37-5.43a1,1,0,0,1,.64-.57c.15,0,.5.33.56.56.54,2.08,1,4.17,1.57,6.34h-.93c-.49-.61.11-2.06-1.46-1.83C69.44,41.44,69.44,41.39,69,43.21Zm1.82-2.75-.49-2.36H70.1l-.5,2.36Z"/><path class="cls-1" d="M84.13,43.19c.55-2.23,1.08-4.4,1.64-6.56a.69.69,0,0,1,.55-.36.8.8,0,0,1,.57.45C87.45,38.85,88,41,88.5,43.2h-.91c-.55-.56.14-2-1.44-1.86-1.32.12-.55,1.33-1.19,1.85Zm2.26-5.11-.17,0-.52,2.38h1.16Z"/><path class="cls-1" d="M118.73,40h-1.31v2.4h2.32l.07.85h-3.36V36.3h3.15l.05.83h-2.3c0,.4,0,.71,0,1-.07.67.1,1.06.88,1C118.81,39,118.9,39.36,118.73,40Z"/><path class="cls-1" d="M22.51,40v2.36h2.34l.07.85H21.56V36.3h3.15l.05.83H22.45c0,.4,0,.71,0,1-.08.68.1,1.06.87,1,.6-.08.69.26.52.82Z"/><path class="cls-1" d="M8.13,37.13v1.74c.35.54,1.6-.3,1.37,1L8.08,40a16.87,16.87,0,0,0,0,1.89.74.74,0,0,0,.53.47c.59.06,1.19,0,1.85,0v.83H7.2V36.29h3.14v.84Z"/><path class="cls-1" d="M101.62,39.92l-1.36.07v2.39c.59,0,1.16,0,1.72,0s.82.18.62.82H99.32V36.32h3.15v.78h-2.19v1.81C100.62,39.4,101.86,38.58,101.62,39.92Z"/><path class="cls-1" d="M15.87,18.13l.07,1.63-.17.14A2.68,2.68,0,0,0,13,18.12a4,4,0,0,0-2.13.93c-1.33,1.23-1.14,3.77.23,5.07s3.21,1.14,5-.73c.07,1-.32,1.56-1.22,1.67a13.2,13.2,0,0,1-2.65.2,3.58,3.58,0,0,1-3.35-3.71,3.72,3.72,0,0,1,3.58-3.73A28,28,0,0,1,15.87,18.13Z"/><path class="cls-1" d="M2.49,25l-.21-1.58.14-.06.31.53A1.88,1.88,0,0,0,4.64,25c.62-.05,1.21-.3,1.28-.94a2.1,2.1,0,0,0-.45-1.35,7.47,7.47,0,0,0-1.38-1,11.45,11.45,0,0,1-1.22-1,1.37,1.37,0,0,1-.39-1.79,2.67,2.67,0,0,1,1.53-1A9.22,9.22,0,0,1,6.37,18l.2,1.31-.13.07C6.3,19.21,6.2,19,6,18.9a3.91,3.91,0,0,0-1.47-.76,1.4,1.4,0,0,0-1.17.6A1.47,1.47,0,0,0,3.72,20a15.66,15.66,0,0,0,1.95,1.41c1.14.81,1.51,1.66,1.13,2.6a2.34,2.34,0,0,1-2.67,1.25C3.6,25.21,3.07,25.1,2.49,25Z"/><path class="cls-1" d="M103.67,18.09l.13,1.44a3.29,3.29,0,0,0-.53-.63,4,4,0,0,0-1.46-.76,1.38,1.38,0,0,0-1.16.6A1.47,1.47,0,0,0,101,20a9.21,9.21,0,0,0,1.67,1.2c1.41.93,1.86,1.86,1.4,2.9s-1.69,1.41-3.17,1.08c-.33-.08-.67-.11-1.1-.18l-.21-1.57.17,0c.12.21.23.43.36.64a1.78,1.78,0,0,0,2.08.84,1.65,1.65,0,0,0,1-.82,1.93,1.93,0,0,0-.33-1.32,3.22,3.22,0,0,0-.93-.76c-.3-.21-.63-.39-.94-.6-1.21-.82-1.63-1.69-1.24-2.56a2.35,2.35,0,0,1,2.79-1Z"/><path class="cls-1" d="M136.36,25.1l-.23-1.68.15-.05c.12.2.23.41.36.62a1.87,1.87,0,0,0,2.13.92,1.24,1.24,0,0,0,.67-2.16,11.76,11.76,0,0,0-1.31-1,17.07,17.07,0,0,1-1.43-1.11,1.5,1.5,0,0,1-.42-1.73,1.72,1.72,0,0,1,1.51-1.12,6.12,6.12,0,0,1,1.21,0c.39.05.77.15,1.24.25l.18,1.23-.16.06c-.15-.19-.26-.45-.45-.55a6.05,6.05,0,0,0-1.68-.68,1.14,1.14,0,0,0-.91.61,1.48,1.48,0,0,0,.24,1.16,4.91,4.91,0,0,0,1.14.91c.46.34,1,.63,1.4,1a1.8,1.8,0,0,1,.73,2A1.87,1.87,0,0,1,139,25.25,20.08,20.08,0,0,1,136.36,25.1Z"/><path class="cls-1" d="M84,36.39l-1.37,5.33a7.94,7.94,0,0,1-.29,1.09c-.07.17-.28.39-.43.4s-.4-.22-.44-.38c-.57-2.14-1.11-4.28-1.67-6.46.65-.26,1-.16,1.13.55A27.5,27.5,0,0,0,82,40.86c.31-1.31.61-2.62.92-3.93C83.14,36.19,83.14,36.19,84,36.39Z"/><path class="cls-1" d="M50.61,42.24l.59-.52c.16.15.3.28.45.4a1,1,0,0,0,1.4,0A1,1,0,0,0,53,40.69c-.39-.38-.91-.63-1.27-1a3.68,3.68,0,0,1-.92-1.38,1.6,1.6,0,0,1,.84-2,2,2,0,0,1,2.43.69l-.5.58c-.19-.13-.34-.31-.51-.32a7.79,7.79,0,0,0-1.18,0c0,.42-.1.92.09,1.23s.78.58,1.11.93a4.4,4.4,0,0,1,1.09,1.48,1.76,1.76,0,0,1-.94,2.25A2.06,2.06,0,0,1,50.61,42.24Z"/><path class="cls-1" d="M133.58,18.07l.17,1.47c-.34-.4-.5-.62-.69-.81a1.72,1.72,0,0,0-1.79-.58,1,1,0,0,0-.59,1.65,7.11,7.11,0,0,0,1.19,1c.51.38,1,.71,1.54,1.11a1.77,1.77,0,0,1,.61,2,1.82,1.82,0,0,1-1.65,1.33,23,23,0,0,1-2.67-.15l-.24-1.66.15-.06L130,24a1.76,1.76,0,0,0,2,.91,1.69,1.69,0,0,0,1.07-.85,1.56,1.56,0,0,0-.33-1.3,10.86,10.86,0,0,0-1.81-1.31c-1.26-.86-1.7-1.72-1.31-2.61s1.55-1.27,2.88-1C132.84,17.94,133.18,18,133.58,18.07Z"/><path class="cls-1" d="M72.05,21.38c0,1.06-.06,1.93,0,2.78,0,.32.44.61.65.89H70.62a7.47,7.47,0,0,0,.4-1.53c0-1.41,0-2.83,0-4.24A4.15,4.15,0,0,0,70.56,18h4.75v1.21c-.54-.95-1-1.07-3.21-.78v2.64c1-.2,2.18.48,3.05-.69v2C74.43,20.87,73.18,21.75,72.05,21.38Z"/><path class="cls-1" d="M64.42,37.81l-.83.14.09-.2c-.38-.23-.88-.73-1.11-.63a1.69,1.69,0,0,0-.87,1.13,10.43,10.43,0,0,0,0,2.9,1.76,1.76,0,0,0,.91,1.18c.23.1.75-.45,1.14-.71l-.09-.22.7.21c-.13,1-.56,1.55-1.34,1.67a1.62,1.62,0,0,1-2-1,6.44,6.44,0,0,1,.06-5.11,1.63,1.63,0,0,1,2-1C64,36.35,64.27,36.94,64.42,37.81Z"/><path class="cls-1" d="M5.72,37.8,4.89,38,5,37.75c-.38-.23-.87-.73-1.11-.63A1.67,1.67,0,0,0,3,38.24a10.43,10.43,0,0,0,0,2.9,1.83,1.83,0,0,0,.91,1.19c.23.1.75-.45,1.15-.7L5,41.4l.67.2c.2.45-.39,1.39-1,1.61a1.7,1.7,0,0,1-2.27-.87,6.38,6.38,0,0,1,0-5.19,1.64,1.64,0,0,1,1.91-1C5.21,36.3,5.56,36.9,5.72,37.8Z"/><path class="cls-1" d="M109.31,41.46l.45.17c-.2,1.11-.62,1.58-1.48,1.66a1.62,1.62,0,0,1-1.93-1.21,6.42,6.42,0,0,1,.19-5,1.66,1.66,0,0,1,2-.86c.83.16,1.11.79,1.29,1.58L109,38l.07-.18c-.4-.24-1-.78-1.17-.67a2.24,2.24,0,0,0-.88,1.33A10,10,0,0,0,107,41c0,.59.22,1.33,1,1.34C108.37,42.35,108.76,41.85,109.31,41.46Z"/><path class="cls-1" d="M33.85,43.25v-7H37v.85H34.81v2l1.35.08c.25,1.32-.91.55-1.38,1.11v2.9Z"/><path class="cls-1" d="M51.75,18c-1.35.36-1.35.36-1.35,1.76s0,2.76,0,4.15c0,.61.22.77.8.8,1.2.07,2.3,0,3-1.27-.37,1.58-.46,1.66-1.88,1.66H48.43c1-.07,1-.77.94-1.47,0-1.41,0-2.83,0-4.24,0-.7,0-1.28-.93-1.39Z"/><path class="cls-1" d="M76.55,43.22h-3V36.33c.6-.21.9-.08.89.64,0,1.46,0,2.93,0,4.39,0,.86.27,1.15,1.08,1a6,6,0,0,1,.6,0C76.65,42.35,76.74,42.66,76.55,43.22Z"/><path class="cls-1" d="M92.83,43.21h-3V36.35c.61-.25.91-.1.9.65,0,1.75,0,3.5,0,5.38.59,0,1.1,0,1.6,0S93,42.63,92.83,43.21Z"/><path class="cls-1" d="M19.07,37.19v6l-.89.09v-6l-1.3-.14v-.84c1,0,2,0,3,0,.17,0,.34.27.51.41-.16.16-.29.38-.47.45A3,3,0,0,1,19.07,37.19Z"/><path class="cls-1" d="M127.5,43.21h-.93v-6l-1.27-.1-.07-.73h3.45c-.1.26-.14.6-.32.75s-.5,0-.86.07Z"/><path class="cls-1" d="M108.7,18c-.8.14-.86.69-.85,1.35,0,1.44,0,2.88,0,4.31,0,.61,0,1.18.78,1.36h-2.5c.92-.28.7-1,.71-1.72,0-1.35,0-2.71,0-4.06A1.08,1.08,0,0,0,106.1,18Z"/><path class="cls-1" d="M66.76,43.2H66v-3c0-1.09,0-2.19,0-3.28,0-.56.16-.83.81-.6Z"/><path class="cls-1" d="M130.84,43.2H130V40c0-1,0-2.07,0-3.1,0-.66,0-.66.81-.61Z"/><path class="cls-1" d="M86.05,13.19c-.32.2-.65.59-.94.56A1.18,1.18,0,0,1,84.3,13c-.15-.54.29-.9.81-.82.33.05.63.4.94.61Z"/></g></g></g></g></svg>