<svg xmlns="http://www.w3.org/2000/svg" viewBox="0 0 121.5 35.89"><defs><style>.cls-1{fill:#fff;}</style></defs><title>splunk</title><g id="Layer_2" data-name="Layer 2"><g id="logos"><g id="_3K_IN_KIND" data-name="3K + IN KIND"><g id="splunk"><path class="cls-1" d="M91,0q0,6.8,0,13.59V16c.49-.44.78-.66,1-.92C93.72,13,95.52,11,97.25,8.89a1,1,0,0,1,1.46-.32c.9.44,1.83.81,2.89,1.27l-6.21,6.68,7.35,9.16c-1.48.53-2.83,1-4.2,1.46-.21.06-.63-.22-.8-.45-2.11-2.87-4.18-5.76-6.27-8.64l-.47-.6c0,.48-.07.78-.07,1.08,0,2.46,0,4.92,0,7.38,0,.89-.27,1.11-1.1,1.07-1.26-.07-2.51,0-3.92,0V0Z"/><path class="cls-1" d="M41.23,0V26.88H36.37V0Z"/><path class="cls-1" d="M121.5,19.24c-1.28.61-2.57,1.19-3.84,1.82l-10.87,5.4c0-1.12,0-2.11,0-3.08,0-.21.41-.45.67-.58,3.47-1.73,7-3.44,10.57-5.23l-5.7-2.8c-1.66-.8-3.33-1.58-5-2.43a1.36,1.36,0,0,1-.6-.93c-.08-.83,0-1.68,0-2.71l1.1.5,12.73,6.39c.29.14.59.23.89.35Z"/><path class="cls-1" d="M15.25,8.59h4.62l.16,2a21.25,21.25,0,0,1,3.75-2.15,8,8,0,0,1,10.43,7,11.28,11.28,0,0,1-2.52,9.23c-2.45,2.83-8,4.27-11.38.32a1.72,1.72,0,0,0-.36-.23V35.89h-4.7Zm4.45,9.33a30.28,30.28,0,0,0,.94,3.81,4,4,0,0,0,3.79,2.71,3.67,3.67,0,0,0,3.64-2.27,10,10,0,0,0,.27-8.61,3.8,3.8,0,0,0-3.51-2.49,4.08,4.08,0,0,0-3.9,2.23A11.91,11.91,0,0,0,19.7,17.92Z"/><path class="cls-1" d="M65.18,27V8.63h4.9l.09,1.73a27.57,27.57,0,0,1,4.26-2,8.12,8.12,0,0,1,3.64-.07,5.27,5.27,0,0,1,4.53,5.29c.13,4.2.11,8.41.17,12.62,0,.59-.19.8-.78.78-1.35,0-2.71,0-4.16,0,0-.43,0-.77,0-1.11,0-3.21,0-6.42,0-9.62,0-.33,0-.65,0-1-.08-2.4-1.28-3.74-3.39-3.8a3.76,3.76,0,0,0-4.2,3.74c-.1,3.53-.08,7.06,0,10.59,0,.93-.23,1.25-1.18,1.19C67.75,26.9,66.52,27,65.18,27Z"/><path class="cls-1" d="M57,8.54h4.84V26.91H57v-2.3c-.37.3-.57.47-.77.65a7.93,7.93,0,0,1-7.76,1.82,5.08,5.08,0,0,1-4-5.17c-.13-4.42,0-8.85,0-13.34h4.83c0,.68,0,1.32,0,2,0,3.36,0,6.73.11,10.09.08,2.11,1.22,3.22,3.06,3.33,2.3.13,3.89-.95,4.33-3a9.12,9.12,0,0,0,.21-2C57,15.49,57,12.07,57,8.54Z"/><path class="cls-1" d="M12.56,9.67l-1.33,2.15c-1-.31-1.81-.63-2.68-.82a3.12,3.12,0,0,0-1.42.1,1.64,1.64,0,0,0-.8,2.82,30.18,30.18,0,0,0,2.37,2c.93.76,1.91,1.46,2.76,2.29a5,5,0,0,1-.88,8A9.32,9.32,0,0,1,0,25.17l1.55-2.53a8.58,8.58,0,0,0,1.69,1.09A9.45,9.45,0,0,0,6,24.36,1.87,1.87,0,0,0,7.93,23a2.22,2.22,0,0,0-.63-2.49c-.88-.75-1.82-1.45-2.72-2.18a23.38,23.38,0,0,1-2.15-1.81A4.68,4.68,0,0,1,3.75,8.88,9.22,9.22,0,0,1,12.56,9.67Z"/><path class="cls-1" d="M110,5.67a1.74,1.74,0,0,1-1.75,1.69A1.71,1.71,0,0,1,108.33,4,1.77,1.77,0,0,1,110,5.67Zm-.8.84A1.33,1.33,0,0,0,109,4.57a1.13,1.13,0,0,0-1.7.24,1.26,1.26,0,0,0,.13,1.82,1,1,0,0,0,1.73-.14Z"/><path class="cls-1" d="M109.17,6.49,108.11,6l-.19.59-.17,0V4.73c.71-.06,1.36-.16,1.09.94-.06.24.21.56.32.84Z"/></g></g></g></g></svg>