<?xml version="1.0" encoding="utf-8"?>
<!-- Generator: Adobe Illustrator 22.1.0, SVG Export Plug-In . SVG Version: 6.00 Build 0)  -->
<svg version="1.1" id="Layer_1" xmlns="http://www.w3.org/2000/svg" xmlns:xlink="http://www.w3.org/1999/xlink" x="0px" y="0px"
	 viewBox="0 0 674 300" style="enable-background:new 0 0 674 300;" xml:space="preserve">
<style type="text/css">
	.st0{enable-background:new    ;}
	.st1{fill:#FFFFFF;}
	.st2{fill:none;stroke:#FFFFFF;stroke-width:13;}
</style>
<title>Text Vertical Center Transparent</title>
<desc>Created with Sketch.</desc>
<g id="Page-1">
	<g id="Text-Vertical-Center-Transparent">
		<g class="st0">
			<path class="st1" d="M290.5,128.6c-3.3-2-6.7-3.7-10.2-5.2c-3-1.3-6.3-2.5-9.9-3.7c-3.7-1.1-7.2-1.7-10.7-1.7
				c-2.8,0-5.1,0.4-6.8,1.3c-1.7,0.9-2.5,2.4-2.5,4.4c0,1.5,0.5,2.8,1.5,3.8c1,1,2.4,1.9,4.3,2.7c1.9,0.8,4.1,1.6,6.8,2.4
				c2.7,0.8,5.7,1.7,9.1,2.8c5.4,1.6,10.2,3.4,14.5,5.4c4.3,2,8,4.3,11.1,7c3.1,2.7,5.4,5.9,7.1,9.8c1.6,3.8,2.5,8.5,2.5,13.9
				c0,7-1.3,12.9-3.9,17.6c-2.6,4.8-6,8.6-10.2,11.4c-4.2,2.8-9,4.9-14.3,6.1c-5.3,1.3-10.6,1.9-16,1.9c-4.3,0-8.6-0.3-13.1-1
				c-4.5-0.7-8.9-1.6-13.4-2.8c-4.4-1.2-8.7-2.6-12.8-4.3c-4.1-1.6-7.9-3.5-11.4-5.6l13.8-28c3.8,2.4,7.8,4.5,12,6.4
				c3.5,1.6,7.5,3.1,11.9,4.4c4.4,1.3,8.9,2,13.5,2c3.5,0,5.9-0.5,7.3-1.4c1.4-0.9,2-2.2,2-3.7c0-1.6-0.7-3-2-4.2
				c-1.4-1.1-3.3-2.2-5.7-3c-2.4-0.9-5.2-1.7-8.3-2.6c-3.1-0.9-6.4-1.9-9.9-3.1c-5.1-1.7-9.6-3.6-13.3-5.7c-3.7-2-6.8-4.3-9.2-6.9
				c-2.4-2.6-4.2-5.5-5.3-8.8s-1.7-7.1-1.7-11.3c0-6.4,1.2-12.1,3.5-17.1c2.3-4.9,5.5-9,9.6-12.3c4-3.3,8.7-5.8,13.9-7.5
				c5.2-1.7,10.7-2.5,16.5-2.5c4.3,0,8.4,0.4,12.5,1.2c4,0.8,8,1.9,11.7,3.1c3.8,1.3,7.3,2.6,10.6,4.1c3.3,1.5,6.2,2.9,8.9,4.2
				L290.5,128.6z"/>
			<path class="st1" d="M411.9,118.4h-33.5V207h-32v-88.6h-33.6V90.6h99.1V118.4z"/>
			<path class="st1" d="M423.5,207V90.6h32V207H423.5z"/>
			<path class="st1" d="M469.1,147.8c0-7.1,1.3-14.1,4-21c2.7-6.9,6.6-13.1,11.7-18.5c5.1-5.5,11.4-9.9,18.7-13.3
				c7.3-3.4,15.7-5.1,25.1-5.1c11.3,0,21,2.3,29.3,7c8.3,4.6,14.4,10.8,18.5,18.5l-24.4,17.4c-1.1-2.8-2.5-5.2-4.3-7.1
				c-1.8-1.9-3.8-3.3-6-4.4c-2.2-1.1-4.5-1.9-6.8-2.3c-2.4-0.4-4.6-0.7-6.8-0.7c-4.6,0-8.6,0.9-11.9,2.7c-3.3,1.8-6.1,4.2-8.2,7.1
				c-2.1,2.9-3.7,6.2-4.8,9.8c-1,3.7-1.6,7.3-1.6,10.9c0,4,0.6,7.9,1.8,11.6c1.2,3.7,3,7,5.2,9.8c2.3,2.8,5.1,5.1,8.4,6.8
				c3.3,1.7,7.1,2.5,11.2,2.5c2.2,0,4.4-0.2,6.7-0.7s4.5-1.3,6.6-2.5c2.1-1.1,4-2.6,5.7-4.4c1.7-1.8,3-4,4-6.6l26.1,15.6
				c-1.8,4.3-4.4,8.1-8,11.5c-3.6,3.4-7.6,6.2-12.1,8.5c-4.5,2.3-9.4,4-14.6,5.2c-5.2,1.2-10.2,1.8-15.2,1.8
				c-8.6,0-16.5-1.7-23.7-5.2c-7.2-3.4-13.3-8-18.5-13.7c-5.2-5.7-9.2-12.1-12.1-19.4C470.5,162.6,469.1,155.2,469.1,147.8z"/>
			<path class="st1" d="M621.3,208.6c-7.5,0-14.9-1.2-22.1-3.7c-7.2-2.5-13.3-6-18.4-10.7l10.7-18.7c5.4,3.6,10.5,6.4,15.5,8.4
				c5,2,9.5,3,13.7,3c4.4,0,6.6-1.4,6.6-4.1c0-1.5-0.8-2.8-2.5-3.9c-1.7-1.1-5-2.3-9.9-3.8c-6.1-1.7-11.2-3.5-15.3-5.2
				c-4.1-1.7-7.4-3.5-10-5.5c-2.6-2-4.4-4.2-5.5-6.6c-1.1-2.4-1.6-5.2-1.6-8.5c0-4.4,0.9-8.4,2.6-12.1c1.7-3.7,4.2-6.9,7.3-9.7
				c3.1-2.7,6.8-4.8,11.2-6.3c4.3-1.5,9-2.2,14.2-2.2c6.3,0,12.4,0.8,18.1,2.5c5.7,1.6,11.5,5,17.3,10l-11.8,18.7
				c-5.4-3.5-9.8-6-13.4-7.5c-3.6-1.5-7-2.2-10.2-2.2c-1.9,0-3.4,0.4-4.6,1.1c-1.2,0.7-1.8,1.8-1.8,3.4c0,1.6,0.9,3,2.6,4
				c1.7,1,5.2,2.2,10.3,3.5c6.2,1.6,11.5,3.4,15.7,5.2c4.3,1.8,7.7,3.8,10.2,5.9c2.6,2.1,4.4,4.5,5.5,7.2c1.1,2.7,1.6,5.8,1.6,9.3
				c0,4.5-0.8,8.5-2.5,12c-1.6,3.5-4,6.5-7.1,9c-3.1,2.5-6.9,4.4-11.3,5.7C631.9,208,626.9,208.6,621.3,208.6z"/>
		</g>
		<g id="Apple-Copy" transform="translate(14.000000, 15.000000)">
			<g id="apple" transform="translate(0.000000, 55.000000)">
				<ellipse id="Oval" class="st2" cx="80.2" cy="79.9" rx="80.2" ry="79.9"/>
				<g id="seeds" transform="translate(47.000223, 50.660633)">
					<path id="Path-2" class="st1" d="M8.5,4.5c27,5.2,11.2,33.3,0.3,1.4L8.5,4.5z"/>
					<path id="Path-2_1_" class="st1" d="M8.5,52.2c27-5.2,11.2-33.3,0.3-1.4L8.5,52.2z"/>
					<path id="Path-2_2_" class="st1" d="M0,29.3C21.3,12,32.7,42.1,1.3,30L0,29.3z"/>
				</g>
				<path id="Combined-Shape" class="st1" d="M82,5c41.1,0.8,74.2,34.4,74.2,75.7s-33.1,74.9-74.2,75.7V5z"/>
			</g>
			<g id="leaf" transform="translate(93.000000, 0.000000)">
				
					<g id="Mask" transform="translate(20.206066, 19.500000) scale(-1, 1) translate(-20.206066, -19.500000) translate(0.706066, 0.000000)">
					<path id="path-1" class="st1" d="M0,0c0,0,25.1,0.3,31.8,6.9s6.9,31.7,6.9,31.7S13.4,35.4,6.9,29S0,0,0,0z"/>
				</g>
				<g id="Combined-Shape_1_" transform="translate(1.000000, 0.000000)">
					<path id="path-3" class="st1" d="M0,37.7c0.1-4.5,1-24.9,6.9-30.8C13.2,0.6,36.3,0,38.5,0L0.4,38.1L0,37.7z"/>
				</g>
			</g>
			<path id="stem" class="st1" d="M81,3L81,3c2.2,0,4,1.8,4,4v28c0,2.2-1.8,4-4,4l0,0c-2.2,0-4-1.8-4-4V7C77,4.8,78.8,3,81,3z"/>
		</g>
	</g>
</g>
</svg>
