<?xml version="1.0" encoding="utf-8"?>
<!-- Generator: Adobe Illustrator 22.1.0, SVG Export Plug-In . SVG Version: 6.00 Build 0)  -->
<svg version="1.1" id="Layer_1" xmlns="http://www.w3.org/2000/svg" xmlns:xlink="http://www.w3.org/1999/xlink" x="0px" y="0px"
	 viewBox="0 0 256 149" style="enable-background:new 0 0 256 149;" xml:space="preserve">
<style type="text/css">
	.st0{fill:#FFFFFF;}
</style>
<g>
	<path class="st0" d="M12,148.4c-4.3,0-8.2-0.5-11.7-3.9l4.5-4.5c2.3,2.3,5.2,2.6,7.3,2.6c2.4,0,4.8-0.8,4.8-2.8
		c0-1.4-0.7-2.3-2.9-2.5l-4.3-0.4c-4.9-0.5-8-2.6-8-7.7c0-5.7,5-8.7,10.6-8.7c4.3,0,7.8,0.7,10.5,3.2l-4.2,4.3
		c-1.6-1.4-4-1.8-6.4-1.8c-2.7,0-3.9,1.3-3.9,2.6c0,1,0.4,2.2,2.8,2.4l4.3,0.4c5.4,0.5,8.1,3.4,8.1,8
		C23.7,145.5,18.5,148.4,12,148.4z M35.6,148.1c-5.6,0-7.9-3.9-7.9-7.8v-13.6h-2.9v-5.2h2.9v-8.1h6.8v8.1h4.8v5.2h-4.8v13.1
		c0,1.6,0.7,2.5,2.4,2.5h2.5v5.8H35.6z M42.4,148.1h6.8v-27.4h-6.8V148.1z M42.3,116.1h7v-5.6h-7V116.1z M64.7,148.4
		c-5.5,0-12.2-2.9-12.2-14c0-11.1,6.8-14,12.2-14c3.8,0,6.6,1.2,9,3.7l-4.6,4.6c-1.4-1.5-2.6-2.2-4.4-2.2c-1.6,0-2.9,0.6-3.9,1.8
		c-1.1,1.3-1.5,3.2-1.5,6c0,2.9,0.5,4.8,1.5,6.1c1,1.2,2.3,1.8,3.9,1.8c1.8,0,3-0.6,4.4-2.2l4.6,4.6
		C71.3,147.2,68.5,148.4,64.7,148.4z M92.6,148.1l-6.7-11.4L83,140v8.1h-6.8v-37.4H83v21.2l9.1-11.2h8.2l-9.8,11l10.5,16.3H92.6z
		 M106.7,136.6c0,3.5,2.2,6.1,6,6.1c3,0,4.5-0.8,6.2-2.6l4.1,4c-2.8,2.8-5.5,4.3-10.4,4.3c-6.5,0-12.7-2.9-12.7-14
		c0-8.9,4.8-14,11.9-14c7.6,0,11.9,5.6,11.9,13.1v3H106.7z M116.5,128.9c-0.7-1.6-2.3-2.8-4.6-2.8c-2.3,0-3.8,1.2-4.6,2.8
		c-0.4,1-0.6,1.7-0.6,2.9h10.4C117.1,130.7,116.9,129.9,116.5,128.9z M142,128.2c-1.1-1.1-1.9-1.6-3.6-1.6c-2.1,0-4.4,1.6-4.4,5
		v16.5h-6.8v-27.4h6.7v2.6c1.3-1.6,3.9-2.9,6.9-2.9c2.7,0,4.6,0.7,6.5,2.6L142,128.2z"/>
	<path class="st0" d="M177.8,120.4c-3.4,0-5.9,1.1-8.2,3.5c-1.7-2.4-4.2-3.5-7.2-3.5c-2.5,0-5,1-6.8,2.8v-2.5h-6.7v27.4h6.8v-16.5
		c0-3.7,2.4-5,4.6-5c2.2,0,4.5,1.3,4.5,5v16.5h6.8v-16.7c0-3.6,2.5-4.8,4.6-4.8c2.2,0,4.5,1.3,4.5,5v16.5h6.8v-17.5
		c0-3-0.8-5.6-3-7.8C183,121.3,180.6,120.4,177.8,120.4z M207.5,137.3c0,3.7-2.4,5-4.6,5c-2.2,0-4.5-1.3-4.5-5v-16.5h-6.8v17.5
		c0,3,0.6,5.6,2.8,7.8c1.5,1.5,3.7,2.4,6.5,2.4c2.5,0,5-0.9,6.8-2.8v2.5h6.7v-27.4h-6.8V137.3z M225.5,139.9v-29.2h-6.8v29.6
		c0,3.9,2.4,7.8,8,7.8h3.9v-5.8h-2.6C226.2,142.3,225.5,141.5,225.5,139.9z M255.6,133.5c0-7.5-4.3-13.1-11.9-13.1
		c-7.1,0-11.9,5-11.9,14c0,11.1,6.2,14,12.7,14c4.9,0,7.6-1.5,10.4-4.3l-4.1-4c-1.7,1.7-3.2,2.6-6.2,2.6c-3.8,0-6-2.6-6-6.1h17.1
		V133.5z M238.5,131.9c0.1-1.2,0.2-1.9,0.6-2.9c0.7-1.6,2.3-2.8,4.6-2.8c2.3,0,3.8,1.2,4.6,2.8c0.4,1,0.6,1.7,0.6,2.9H238.5z"/>
	<path class="st0" d="M140.7,102.7c-1,0.5-2.3,0.4-3.6,0.4c-1.2,0-2.8,0.1-3.5-0.5c-0.4-0.3-0.5-1-0.5-1.4c0-0.5,0.1-1.1,0.2-1.6
		c0.1-0.7,0.3-1.5,0-1.8c-0.3-0.4-1.3-0.2-1.9-0.5c-0.6-0.3-0.8-1.1-0.9-2c-0.1-0.3-0.2-0.5-0.3-0.7c-0.2-1.3,0.3-3.2,0.6-4.5
		c0.3-1.5,0.8-2.8,1-4.2c0.4-2,0.5-4.4,0.3-6.5c-0.1-1.1-0.2-2,0-2.9c0.2-0.9,0.5-1.6,0.7-2.4c0.1-0.3,0-0.6,0.1-0.9
		c0-0.3,0.2-0.5,0.2-0.7c0-0.6-0.2-1.3-0.2-2c-0.1-1.9,0-4.6,0.2-6.3c0-0.6,0.3-1.2-0.1-1.5c-2,0-3.8,0.4-5.7,0.6
		c-5,0.6-11.3,0.7-16.1-0.2c-0.5-0.1-0.9-0.1-1.3-0.2c-3.4-0.8-6.6-2.3-9-4.2c-0.4-0.3-0.8-0.6-1.2-0.9c-0.4-0.3-0.9-0.8-1.2-0.9
		c-2-0.9-4.5,0.1-5.3,1.4c-0.3,0.5-0.5,1.1-0.8,1.7c-0.3,0.6-0.5,1.2-0.8,1.7c-1.3,2.9-2.7,5.8-4,8.7c-0.7,1.7-1.6,3.6-2.1,5.5
		c-1.2,4.1-0.1,9.5,0.8,13.4c0.1,0.4,0.3,0.7,0.4,1.1c0.3,0.9,0.9,2.2,1.6,2.8c0.4,0.3,1,0.5,1.4,0.9c0.5,0.5,0.9,1.4,1.3,2.1
		c0.2,0.3,0.4,0.7,0.6,1.1c0.5,0.9,0.7,1.6-0.3,2.1c-0.7,0.4-1.8,0.5-2.8,0.5c-0.5,0.1-0.3,0.7-0.6,1c-0.2,0.2-0.8,0.4-1.2,0.5
		c-1.3,0.4-3.6,0.4-4.6,0c-0.5-0.2-1.1-0.6-1.2-1c-0.3-0.8,0.4-1.8-0.2-2.5c-0.3-0.3-0.8-0.2-1.3-0.4c-0.7-0.3-1.4-1-1.7-1.8
		c-0.8-2-0.3-5.2-0.4-7.6c0-0.7-0.1-1.5-0.1-2.3c0-1.5-0.4-2.9-0.5-4.3c-0.1-0.7-0.3-1.3-0.4-1.9c-0.2-1-0.4-2.1-0.7-3.2
		c-0.3-1.1-0.3-2.3,0-3.2c0.1-0.3,0.4-0.5,0.5-0.9c0.2-0.6,0.3-1.2,0.3-1.7c-0.2-0.3-0.9-0.1-1-0.3c-0.4-3.2-0.9-6.3-1.1-9.6
		c-0.1-1.1-0.1-2.3-0.2-3.4c-0.2-2.3,0-4.5-0.2-6.7c-0.1-1.1-0.4-2.1-0.5-3.1c-0.4-2.9-1.2-6.6-0.6-9.6c0.4-1.9,1.1-3.5,2.2-4.9
		c0.8-1,1.6-2,2.5-2.8c0.9-0.8,1.9-1.7,2.9-2.4c0.7-0.5,1.4-1.1,2.1-1.4c1.7-0.8,3.8-1.4,6.1-1.5c2.3-0.1,4.9-0.1,7.2,0.3
		c2.2,0.4,4.3,0.8,6.5,1.2c2.1,0.4,4.1,1,6.1,1.5c0.3,0.1,0.5,0.2,0.7,0.3c0.6,0.2,1.3,0.2,2,0.4c1.8,0.5,4.3,0.7,6.5,0.7
		c2.4,0,4.7-0.1,6.7-0.5c0.3-0.1,0.5-0.2,0.8-0.3c0.3-0.1,0.7-0.1,1-0.2c0.2-0.1,0.4-0.3,0.6-0.4c1.2-0.6,2.2-1.1,3.2-1.8
		c0.8-0.6,1.5-1.1,2.6-1.5c0.5-0.2,1-0.4,1.4-0.6c1-0.3,2.2-0.6,2.9-1.1c1.2-0.8,2.2-1.9,3.2-2.8c1.1-0.9,2.2-1.8,3.3-2.7
		c2.3-1.8,4.6-3.5,6.8-5.2c1.1-0.9,2.3-1.7,3.6-2.4c2.5-1.4,5.1-3.1,8.7-3.4c1.4-0.1,2.9-0.1,4.3,0c0.4,0.1,0.9,0.3,1.3,0.2
		c0.4-0.1,0.7-0.7,0.9-1.1c0.5-1,0.9-1.6,1.4-2.7c0.3-0.7,0.2-1.4,0.9-1.4c0.7,0,0.6,1.9,0.6,2.6c0,0.9-0.1,2,0.1,2.6
		c0.1,0.4,0.7,1,1.2,1c0.4,0,0.7-0.3,1-0.5c0.4-0.2,0.8-0.4,1-0.5c0.6-0.4,1.3-1.2,1.9-1.8c0.5-0.5,1.3-1.7,2.1-1.6
		c1.4,0.2,0,2.3-0.3,2.9c-0.7,1.6-1.5,2.9-2.3,4.4c-0.3,0.6-1.1,1.5-1.1,2.1c0,0.5,0.4,0.8,0.6,1.2c0.1,0.2,0.2,0.5,0.3,0.7
		c0.5,1.1,0.9,2.7,1.2,4c0.3,1.1,0.6,2.3,1,3.4c0.4,1.1,1,2.1,1.4,3.1c0.1,0.3,0.1,0.6,0.2,0.9c0.9,2.3,1.8,5,2.9,7.2
		c0.4,0.9,1.1,2,1.1,3.4c0,1.5-0.8,2.2-1.4,3.3c-0.3,0.6-0.9,1.5-1.4,1.6c-0.4,0.1-0.8,0-1.2,0c-0.6,0.1-0.9,0.4-1.4,0.5
		c-1.4,0.2-2.6-0.9-2.9-1.9c-0.1-0.3-0.1-0.8-0.1-1.2c-0.3-1.6-1.1-2.4-2.2-3.4c-0.7-0.7-1.3-1.2-2.2-1.6c-1.3-0.7-2.7-1.1-4-1.8
		c-0.5-0.3-1.1-0.5-1.5-0.4c-0.7,0.1-1.4,1.3-2,2c-3.5,4.6-6.6,9.4-10.1,14c-2.3,3-4.7,6.1-6.5,9.5c-0.5,0.9-0.7,1.9-1.1,2.9
		c-0.4,1-0.5,2.1-0.9,3.1c-1.3,3.8-1.7,8.4-2.9,12.4c-0.1,0.4-0.2,0.9-0.3,1.3c-0.6,2-1.1,4.3-1.7,6.5c-0.5,1.6-0.6,3.8-0.7,5.9
		c-0.1,2-0.2,4.8,0.6,6c0.4,0.7,1.7,0.9,2.2,1.6c0.4,0.5,0.6,1.4,0.9,2c0.2,0.4,1,1.4,0.9,2c0,0.5-0.5,0.9-0.8,1
		c-0.4,0.2-1,0.1-1.4,0.3C140.9,101.9,141.2,102.4,140.7,102.7"/>
</g>
</svg>
