<?xml version="1.0" encoding="utf-8"?>
<!-- Generator: Adobe Illustrator 23.0.6, SVG Export Plug-In . SVG Version: 6.00 Build 0)  -->
<svg version="1.1" id="Layer_1" xmlns="http://www.w3.org/2000/svg" xmlns:xlink="http://www.w3.org/1999/xlink" x="0px" y="0px"
	 viewBox="0 0 325.9 72.5" style="enable-background:new 0 0 325.9 72.5;" xml:space="preserve">
<style type="text/css">
	.st0{fill:#FFFFFF;}
</style>
<title>Asset 1</title>
<g>
	<g id="Layer_1-2">
		<path class="st0" d="M85.3,50.1V30.3H79v-8.8h6.3V11.1h10v10.4h7.7v8.8h-7.7v17.1c0,2.4,1.3,4.2,3.5,4.2c1.3,0.1,2.5-0.4,3.5-1.2
			l2.1,7.7c-1.5,1.3-4.2,2.4-8.4,2.4C89.1,60.5,85.3,56.9,85.3,50.1z"/>
		<path class="st0" d="M105.4,40.5c0-11,8.2-20,19.7-20s19.1,8.5,19.1,20.9v2.4h-28.3c0.7,4.7,4.5,8.5,11,8.5
			c3.2,0,7.6-1.3,10.1-3.7l4.5,6.6c-3.8,3.5-9.8,5.3-15.7,5.3C114.1,60.5,105.4,52.7,105.4,40.5z M125.1,28.8
			c-6.2,0-8.9,4.3-9.3,8.1h18.8C134.2,33.3,131.7,28.8,125.1,28.8z"/>
		<path class="st0" d="M173.6,59.6v-23c0-5.3-2.8-7.1-7-7.1c-3.4,0.1-6.6,1.7-8.7,4.4v25.7h-10V21.5h10v4.9
			c3.4-3.8,8.3-5.9,13.3-5.8c8.4,0,12.5,4.7,12.5,12.1v26.9H173.6z"/>
		<path class="st0" d="M212.2,59.6v-4c-2.6,3.2-7.1,5-12.1,5c-6.1,0-13.2-4.1-13.2-12.6c0-9,7.1-12.3,13.2-12.3
			c5.1,0,9.5,1.7,12.1,4.7v-4.9c0-3.9-3.3-6.4-8.4-6.4c-4.1,0-8,1.6-11,4.5l-3.9-7c4.6-4,10.5-6.1,16.6-6c8.8,0,16.7,3.5,16.7,14.4
			v24.6H212.2z M212.2,50.5v-4.7c-1.6-2.2-4.8-3.4-8-3.4c-3.9,0-7.2,2.1-7.2,5.8s3.2,5.7,7.2,5.7C207.4,53.8,210.6,52.7,212.2,50.5z
			"/>
		<path class="st0" d="M226.6,59.6V7h10v19.4c2.8-3.7,7.1-5.9,11.8-5.8c9.7,0,16.9,7.6,16.9,20c0,12.8-7.2,20-16.9,20
			c-4.6,0-9-2.2-11.8-5.8v4.9L226.6,59.6z M245.3,51.6c5.8,0,9.6-4.5,9.6-11.1s-3.9-11-9.6-11c-3.4,0.1-6.6,1.7-8.7,4.4v13.5
			C238.7,50,241.9,51.6,245.3,51.6L245.3,51.6z"/>
		<path class="st0" d="M268.6,59.6V7h10v52.6H268.6z"/>
		<path class="st0" d="M282.4,40.5c0-11,8.2-20,19.7-20s19.1,8.5,19.1,20.9v2.4h-28.3c0.7,4.7,4.5,8.5,11,8.5
			c3.2,0,7.6-1.3,10.1-3.7l4.5,6.6c-3.8,3.5-9.8,5.3-15.7,5.3C291.1,60.5,282.4,52.7,282.4,40.5z M302.1,28.8
			c-6.2,0-8.9,4.3-9.3,8.1h18.8C311.2,33.3,308.7,28.8,302.1,28.8z"/>
		<path class="st0" d="M324.2,16.7c0.5,0.3,0.9,0.7,1.2,1.2c0.3,0.5,0.4,1.1,0.4,1.7c0,0.6-0.1,1.2-0.4,1.7
			c-0.3,0.5-0.7,0.9-1.2,1.2c-0.5,0.3-1.1,0.4-1.7,0.4c-1.2,0-2.3-0.6-2.8-1.6c-0.3-0.5-0.4-1.1-0.4-1.7c0-0.6,0.1-1.2,0.4-1.7
			c0.3-0.5,0.7-0.9,1.2-1.2c0.5-0.3,1.1-0.5,1.6-0.5C323.1,16.3,323.7,16.4,324.2,16.7z M323.9,21.9c0.4-0.2,0.7-0.6,0.9-1
			c0.4-0.9,0.4-1.9,0-2.8c-0.2-0.4-0.5-0.8-0.9-1c-0.4-0.2-0.9-0.4-1.3-0.4c-0.5,0-0.9,0.1-1.3,0.4c-0.4,0.2-0.7,0.6-0.9,1
			c-0.4,0.9-0.4,1.9,0,2.8c0.2,0.4,0.5,0.8,0.9,1c0.4,0.2,0.9,0.4,1.3,0.4C323,22.3,323.5,22.2,323.9,21.9z M323.7,19.5
			c-0.2,0.2-0.4,0.3-0.6,0.4l1,1.5h-0.9l-0.8-1.3h-0.3v1.4h-0.8v-3.6h1c1.1,0,1.6,0.4,1.6,1.1C324,19.1,323.9,19.3,323.7,19.5z
			 M322.1,19.4h0.4c0.5,0,0.7-0.2,0.7-0.5c0-0.2-0.1-0.3-0.2-0.4c-0.2-0.1-0.4-0.1-0.5-0.1h-0.4L322.1,19.4z"/>
		<path class="st0" d="M63.5,11.2c0.2,0.8,0.9,3.5,1.6,6.1l0,0l5.6,20.7c0.7,2.6,1.4,5.4,1.7,6.1l0,0c0.3,1.1-0.1,2.3-0.8,3.2l0,0
			L67,51.9l0,0L51.9,67c-1.9,2-3.9,4-4.5,4.5l0,0c-0.9,0.8-2,1.1-3.2,0.8l0,0l-6.1-1.6l0,0l-20.7-5.5l-6.1-1.7l0,0
			c-0.5-0.2-1-0.5-1.4-0.9l0,0c-0.4-0.4-0.7-0.9-0.9-1.5l0,0c-0.2-0.8-0.9-3.5-1.7-6.1l0,0L1.7,34.4l-1.6-6.1l0,0L0.9,28l0.8-0.2
			c0.2,0.8,0.9,3.5,1.6,6.1l0,0l5.5,20.7c0.7,2.6,1.4,5.4,1.6,6.1l0,0c0.1,0.3,0.2,0.5,0.4,0.7l0,0c0.2,0.2,0.4,0.4,0.7,0.5l0,0
			l6.1,1.6l0,0l20.7,5.6l6.1,1.6l0,0c0.6,0.1,1.1-0.1,1.6-0.4l0,0l4.5-4.5l0,0l15.2-15.2l4.5-4.5l0,0c0.4-0.4,0.5-1,0.4-1.6l0,0
			c-0.2-0.8-0.9-3.5-1.6-6.1l0,0l-5.6-20.7c-0.7-2.6-1.4-5.4-1.6-6.1l0,0c-0.1-0.3-0.2-0.5-0.4-0.7l0,0c-0.2-0.2-0.4-0.4-0.7-0.4
			l0,0l-6.1-1.7l0,0L34,3.3l-6.2-1.6l0,0c-0.6-0.1-1.1,0.1-1.6,0.4l0,0l-4.5,4.5l0,0L6.6,21.8l-4.5,4.5l0,0c-0.4,0.4-0.5,1-0.4,1.6
			l0,0L0.9,28l-0.8,0.2c-0.3-1.1,0.1-2.3,0.9-3.2l0,0l4.5-4.5l0,0L20.6,5.4l4.5-4.5l0,0c0.8-0.8,2-1.1,3.2-0.9l0,0l6.1,1.6l0,0
			l20.7,5.6l6.1,1.6l0,0c0.6,0.2,1.1,0.5,1.5,0.9l0,0C63.1,10.2,63.4,10.7,63.5,11.2z"/>
		<path class="st0" d="M37.6,5.8l4.5,2.6l0,0l15.3,8.8l4.6,2.6l0,0c0.8,0.5,1.3,1.4,1.3,2.3l0,0v5.2l0,0v22.9l0,0
			c0,1-0.5,1.8-1.3,2.3l0,0l-4.5,2.6l0,0l-15.4,8.8l-4.5,2.6l0,0c-0.4,0.2-0.9,0.3-1.4,0.3l0,0c-0.5,0-0.9-0.1-1.3-0.3l0,0l-4.5-2.6
			l0,0L15,55.3l-4.5-2.6l0,0l0.3-0.6l0.3-0.6l4.5,2.6l0,0L31,62.9l4.5,2.6l0,0c0.2,0.1,0.4,0.2,0.7,0.2l0,0c0.2,0,0.5,0,0.7-0.2l0,0
			l4.5-2.6l0,0l15.3-8.8l4.5-2.6l0,0c0.4-0.3,0.7-0.7,0.7-1.2l0,0v-5.2l0,0V22.2l0,0c-0.1-0.5-0.3-0.9-0.7-1.2l0,0l-4.5-2.6l0,0
			L41.4,9.5l-4.5-2.6l0,0c-0.2-0.1-0.4-0.2-0.7-0.2l0,0c-0.2,0-0.5,0-0.7,0.2l0,0L31,9.5l0,0l-15.3,8.8L11.2,21l0,0
			c-0.4,0.3-0.6,0.7-0.7,1.2l0,0v5.2l0,0v22.9l0,0c0,0.5,0.3,0.9,0.7,1.2l0,0l-0.3,0.6l-0.3,0.6c-0.8-0.5-1.3-1.4-1.3-2.3l0,0
			c0-0.7,0-3,0-5.2l0,0V22.2l0,0c0-1,0.5-1.8,1.4-2.3l0,0l4.5-2.6l0,0l15.4-8.8l4.5-2.6l0,0c0.4-0.2,0.9-0.3,1.3-0.3l0,0
			C36.7,5.4,37.2,5.5,37.6,5.8z"/>
		<path class="st0" d="M17.9,16l4.5-1.2l0,0l15.2-4.1l4.5-1.2l0,0c0.8-0.2,1.7,0,2.3,0.6l0,0l3.3,3.3l0,0l11.1,11.1l3.3,3.3l0,0
			c0.6,0.6,0.8,1.5,0.6,2.3l0,0c-0.1,0.5-0.7,2.6-1.2,4.5l0,0l-4.1,15.2c-0.5,1.9-1.1,4-1.2,4.5l0,0c-0.1,0.4-0.3,0.8-0.6,1.1l0,0
			c-0.3,0.3-0.7,0.5-1.1,0.6l0,0l-4.5,1.2l0,0l-15.2,4.1l-4.5,1.2l0,0L30.2,62l-0.2-0.6l4.5-1.2l0,0l15.2-4.1l4.5-1.2l0,0
			c0.2-0.1,0.4-0.2,0.5-0.3l0,0c0.1-0.1,0.3-0.3,0.3-0.5l0,0l1.2-4.5l0,0l4.1-15.2c0.5-1.9,1.1-3.9,1.2-4.5l0,0
			c0.1-0.4,0-0.8-0.3-1.2l0,0L58,25.4l0,0L46.9,14.3L43.6,11l0,0c-0.3-0.3-0.7-0.4-1.2-0.3l0,0l-4.5,1.2l0,0L22.7,16l-4.5,1.2l0,0
			c-0.2,0.1-0.4,0.2-0.5,0.3l0,0c-0.2,0.1-0.3,0.3-0.3,0.5l0,0c-0.1,0.5-0.7,2.6-1.2,4.5l0,0l-4.1,15.1c-0.5,1.9-1.1,4-1.2,4.5l0,0
			c-0.1,0.4,0,0.8,0.3,1.2l0,0l3.3,3.3l0,0l11.1,11.1l3.3,3.3l0,0c0.3,0.3,0.7,0.4,1.2,0.3l0,0l0.2,0.6l0.1,0.6
			c-0.8,0.2-1.7,0-2.3-0.6l0,0l-3.3-3.3l0,0L13.6,47.5l-3.3-3.3l0,0c-0.6-0.6-0.8-1.5-0.6-2.3l0,0c0.1-0.6,0.7-2.6,1.2-4.5l0,0
			L15,22.2l1.2-4.5l0,0c0.1-0.4,0.3-0.8,0.6-1.1l0,0C17.1,16.3,17.5,16.1,17.9,16z"/>
		<path class="st0" d="M13.9,58.6c-12.3-12.3-12.3-32.3,0-44.7s32.3-12.3,44.7,0s12.3,32.3,0,44.7c0,0,0,0,0,0
			C46.2,70.9,26.2,70.9,13.9,58.6C13.9,58.6,13.9,58.6,13.9,58.6z M57.5,57.6C69.2,45.8,69.2,26.7,57.4,15S26.6,3.4,14.9,15.2
			C3.2,26.9,3.2,45.9,14.9,57.6C26.7,69.4,45.8,69.4,57.5,57.6C57.5,57.6,57.5,57.6,57.5,57.6L57.5,57.6z"/>
		<path class="st0" d="M37.2,13.4l3.3,1.9l0,0l11.3,6.5l3.4,1.9l0,0c0.6,0.4,1,1,1,1.7l0,0v3.9l0,0v17l0,0c0,0.7-0.4,1.4-1,1.7l0,0
			L51.9,50l0,0l-11.3,6.6l-3.3,1.9l0,0c-0.3,0.2-0.7,0.3-1,0.2l0,0c-0.3,0-0.7-0.1-1-0.2l0,0l-3.4-1.9l0,0L20.5,50l-3.4-1.9l0,0
			l0.2-0.4l0.2-0.4l3.3,2l0,0l11.3,6.5l3.3,1.9l0,0c0.2,0.1,0.3,0.1,0.5,0.1l0,0c0.2,0,0.3,0,0.5-0.1l0,0l3.4-1.9l0,0l11.3-6.5
			l3.4-1.9l0,0c0.3-0.2,0.5-0.5,0.5-0.9l0,0v-3.9l0,0v-17l0,0c0-0.4-0.2-0.7-0.5-0.9l0,0l-3.4-1.9l0,0l-11.3-6.5l-3.4-1.9l0,0
			c-0.2-0.1-0.3-0.1-0.5-0.1l0,0c-0.2,0-0.3,0-0.5,0.1l0,0l-3.4,1.9l0,0L21,22.7l-3.4,1.9l0,0c-0.3,0.2-0.5,0.5-0.5,0.9l0,0v3.9l0,0
			v17l0,0c0,0.3,0.2,0.7,0.5,0.9l0,0l-0.2,0.4l-0.2,0.4c-0.6-0.4-1-1-1-1.7l0,0v-3.9l0,0v-17l0,0c0-0.7,0.4-1.4,1-1.7l0,0l3.4-1.9
			l0,0l11.4-6.5l3.4-1.9l0,0c0.3-0.2,0.7-0.3,1-0.2l0,0C36.6,13.1,36.9,13.2,37.2,13.4L37.2,13.4z"/>
		<path class="st0" d="M19.7,52.5c-9.1-9.1-9.1-23.9,0-33.1s23.9-9.1,33.1,0c9.1,9.1,9.1,23.9,0,33.1C43.6,61.6,28.8,61.6,19.7,52.5
			z M52,51.8c8.7-8.7,8.7-22.8-0.1-31.5s-22.8-8.7-31.5,0.1c-8.7,8.7-8.7,22.7,0,31.4C29.1,60.5,43.3,60.5,52,51.8
			C52,51.8,52,51.8,52,51.8z"/>
	</g>
</g>
</svg>
