<svg id="图层_1" data-name="图层 1" xmlns="http://www.w3.org/2000/svg" viewBox="0 0 679.22 174.51"><defs><style>.cls-1{fill:#445464;}.cls-2{fill:#1ea0ac;}</style></defs><title>tenable</title><path class="cls-1" d="M234,175.5V154.1c0-5.82-3-7.57-7.38-7.57a12.81,12.81,0,0,0-9.69,5.08V175.5h-5.07V142.8h5.07v4.73A16.11,16.11,0,0,1,228.62,142c6.77,0,10.38,3.43,10.38,10.57V175.5h-5" transform="translate(-15.45 -14.26)"/><path class="cls-1" d="M245.62,159.11c0-9.47,6.77-17.12,16.11-17.12,9.9,0,15.7,7.7,15.7,17.54v1.27H251c.4,6.16,4.67,11.31,11.73,11.31a14.32,14.32,0,0,0,10.13-4.18l2.44,3.28a18,18,0,0,1-13,5.12c-9.74,0-16.71-7-16.71-17.22m16.06-12.93c-7,0-10.43,5.88-10.71,10.84h21.46c-.06-4.82-3.32-10.84-10.75-10.84" transform="translate(-15.45 -14.26)"/><path class="cls-1" d="M285,168.67V147.28h-5.42v-4.47H285v-8.92h5.15v8.92h6.64v4.47h-6.64v20.31c0,2.44,1.09,4.21,3.25,4.21a4.89,4.89,0,0,0,3.45-1.42l1.48,3.83a8.17,8.17,0,0,1-6,2.14c-4.87,0-7.31-2.82-7.31-7.68" transform="translate(-15.45 -14.26)"/><polyline class="cls-1" points="315.01 161.24 306.45 134.99 297.94 161.24 292.84 161.24 282.43 128.54 287.7 128.54 295.71 154.6 304.3 128.54 308.7 128.54 317.24 154.6 325.24 128.54 330.56 128.54 320.13 161.24"/><path class="cls-1" d="M348.27,159.14c0-9.49,6.21-17.13,16.16-17.13s16.21,7.64,16.21,17.13-6.25,17.2-16.21,17.2-16.16-7.74-16.16-17.2m27,0c0-6.63-3.84-12.59-10.83-12.59s-10.82,6-10.82,12.59,3.86,12.66,10.82,12.66,10.83-6,10.83-12.66" transform="translate(-15.45 -14.26)"/><path class="cls-1" d="M387.2,175.5V142.8h5.07V148c2.65-3.39,6.43-6,10.91-6v5.25l-2-.15a12,12,0,0,0-9,5.2V175.5H387.2" transform="translate(-15.45 -14.26)"/><polyline class="cls-1" points="414.66 161.24 402.96 146.55 397.48 151.9 397.48 161.24 392.37 161.24 392.37 116.07 397.48 116.07 397.48 145.93 414.66 128.54 421.09 128.54 406.61 143.38 421.15 161.24"/><path class="cls-1" d="M454,171.19l2.59-3.66a14.87,14.87,0,0,0,10.76,4.68c5,0,7.79-2.4,7.79-5.61,0-7.94-20.25-3.07-20.25-15.2,0-5.11,4.33-9.39,12.13-9.39a16.34,16.34,0,0,1,12.11,4.72l-2.38,3.55a12.58,12.58,0,0,0-9.73-4.17c-4.46,0-7.25,2.26-7.25,5.18,0,7.09,20.23,2.42,20.23,15.13,0,5.54-4.4,9.92-12.79,9.92-5.4,0-9.87-1.72-13.21-5.15" transform="translate(-15.45 -14.26)"/><path class="cls-1" d="M484.68,159.11c0-9.47,6.78-17.12,16.13-17.12,9.89,0,15.71,7.7,15.71,17.54v1.27H490.11c.4,6.16,4.67,11.31,11.7,11.31A14.32,14.32,0,0,0,512,167.93l2.45,3.28a18,18,0,0,1-13,5.12c-9.78,0-16.75-7-16.75-17.22m16.07-12.93c-7,0-10.44,5.88-10.7,10.84h21.46c-.08-4.82-3.33-10.84-10.76-10.84" transform="translate(-15.45 -14.26)"/><path class="cls-1" d="M521.11,159.14c0-9.69,6.58-17.13,16.3-17.13,6,0,9.52,2.41,12,5.69l-3.38,3a9.66,9.66,0,0,0-8.35-4.19c-6.88,0-11.31,5.33-11.31,12.59s4.43,12.66,11.31,12.66a10,10,0,0,0,8.35-4.27l3.38,3.1c-2.5,3.26-6,5.71-12,5.71-9.72,0-16.3-7.52-16.3-17.2" transform="translate(-15.45 -14.26)"/><path class="cls-1" d="M577,175.5v-4.59a16,16,0,0,1-11.68,5.42c-6.8,0-10.39-3.41-10.39-10.45V142.8H560v21.54c0,5.72,2.92,7.44,7.39,7.44a12.46,12.46,0,0,0,9.62-5v-24h5.07v32.7H577" transform="translate(-15.45 -14.26)"/><path class="cls-1" d="M590.51,175.5V142.8h5.09V148c2.64-3.39,6.43-6,10.9-6v5.25l-2-.15a11.94,11.94,0,0,0-8.94,5.2V175.5h-5.09" transform="translate(-15.45 -14.26)"/><path class="cls-1" d="M610.28,134.77a3.45,3.45,0,0,1,3.47-3.46,3.41,3.41,0,0,1,3.37,3.46,3.35,3.35,0,0,1-3.37,3.37,3.39,3.39,0,0,1-3.47-3.37m6,40.73h-5.08V142.8h5.08Z" transform="translate(-15.45 -14.26)"/><path class="cls-1" d="M625.72,168.67V147.28h-5.43v-4.47h5.43v-8.92h5.14v8.92h6.64v4.47h-6.64v20.31c0,2.44,1.07,4.21,3.26,4.21a4.81,4.81,0,0,0,3.42-1.42l1.5,3.83a8.19,8.19,0,0,1-6,2.14c-4.86,0-7.28-2.82-7.28-7.68" transform="translate(-15.45 -14.26)"/><path class="cls-1" d="M641.89,183.72l2.79.55c2.21,0,3.72-.77,4.89-3.47l2.14-4.94L638,142.81h5.55l10.84,26.8,10.91-26.8h5.48l-16.39,39.34c-2,4.73-5.28,6.56-9.61,6.62l-3.67-.46.74-4.59" transform="translate(-15.45 -14.26)"/><path class="cls-1" d="M212.8,101.93V62.87H200.34V45.6H212.8V25.06h19.77V45.6h15.25V62.87H232.57V96.64c0,4.85,2.5,8.42,6.86,8.42,3,0,5.74-1.09,6.83-2.32l4.21,15.07c-3,2.65-8.25,4.86-16.5,4.86-13.86,0-21.17-7.17-21.17-20.74" transform="translate(-15.45 -14.26)"/><path class="cls-1" d="M252.34,83.14c0-21.81,16.2-39.4,38.9-39.4S328.9,60.55,328.9,85v4.67H273c1.39,9.18,8.86,16.84,21.64,16.84,6.38,0,15.1-2.67,19.93-7.34l8.86,13.09c-7.47,6.84-19.31,10.43-31,10.43-22.86,0-40.13-15.41-40.13-39.53m38.9-23.21c-12.31,0-17.58,8.56-18.35,16h37c-.62-7.13-5.59-16-18.68-16" transform="translate(-15.45 -14.26)"/><path class="cls-1" d="M387.07,120.81V75.33c0-10.41-5.46-14-13.85-14a21.93,21.93,0,0,0-17.11,8.75v50.75H336.32V45.61h19.79v9.64A35.15,35.15,0,0,1,382.4,43.74c16.65,0,24.6,9.35,24.6,24v53.09H387.07" transform="translate(-15.45 -14.26)"/><path class="cls-1" d="M463.31,120.79v-7.94c-5.14,6.21-14,9.82-23.81,9.82-12,0-26-8.11-26-24.91,0-17.74,14-24.27,26-24.27,10.12,0,18.82,3.23,23.81,9.16V73.17c0-7.64-6.53-12.61-16.49-12.61a31.65,31.65,0,0,0-21.65,8.86L417.4,55.56c9.19-8.25,21-11.82,32.82-11.82,17.28,0,33,6.86,33,28.48v48.57H463.31m0-18V93.41C460,89,453.79,86.7,447.45,86.7c-7.81,0-14.18,4.19-14.18,11.36s6.37,11.22,14.18,11.22c6.34,0,12.59-2.18,15.86-6.52" transform="translate(-15.45 -14.26)"/><path class="cls-1" d="M491.69,120.81V17h19.76v38.3a28.6,28.6,0,0,1,23.2-11.53c19.17,0,33.32,14.95,33.32,39.38,0,25.21-14.32,39.55-33.32,39.55a29.26,29.26,0,0,1-23.2-11.53v9.67H491.69m36.88-15.75c11.37,0,19-8.85,19-21.94,0-12.91-7.64-21.81-19-21.81-6.5,0-13.69,3.76-17.12,8.73V96.65c3.43,4.85,10.62,8.41,17.12,8.41" transform="translate(-15.45 -14.26)"/><rect class="cls-1" x="559.17" y="2.71" width="19.8" height="103.82"/><path class="cls-1" d="M601.82,83.14c0-21.81,16.2-39.4,38.93-39.4,22.57,0,37.67,16.81,37.67,41.24v4.67H622.53c1.41,9.18,8.86,16.84,21.63,16.84,6.37,0,15.12-2.67,19.93-7.34L673,112.24c-7.5,6.84-19.31,10.43-31,10.43-22.88,0-40.17-15.41-40.17-39.53m38.93-23.21c-12.32,0-17.59,8.56-18.36,16h37c-.63-7.13-5.6-16-18.67-16" transform="translate(-15.45 -14.26)"/><path class="cls-2" d="M160,39.89c.47,1.71,2.15,8,3.75,13.94l12.62,47.11c1.62,6,3.3,12.25,3.74,14a7.94,7.94,0,0,1-1.91,7.21c-1.27,1.3-5.85,5.87-10.21,10.24l-34.52,34.49c-4.35,4.38-8.94,9-10.22,10.21a8,8,0,0,1-7.2,1.93c-1.72-.43-8-2.14-14-3.73L55,162.64c-6-1.6-12.25-3.28-14-3.77a7.19,7.19,0,0,1-3.28-2,7.78,7.78,0,0,1-2-3.32c-.44-1.69-2.14-8-3.74-13.92L19.39,92.51l-3.74-14,1.82-.49,1.8-.48c.47,1.72,2.13,8,3.72,13.94l12.65,47.16c1.58,6,3.26,12.22,3.75,14l1,1.6,1.64,1c1.72.48,8,2.16,14,3.73l47.11,12.64,14,3.75,3.61-1c1.25-1.24,5.84-5.85,10.22-10.23l34.48-34.5c4.37-4.3,8.94-8.92,10.2-10.21l1-3.59c-.47-1.74-2.14-8-3.74-14L160.18,54.81c-1.57-6-3.28-12.24-3.75-14l-1-1.62-1.62-1-14-3.76L92.72,21.82l-14-3.73-3.62,1c-1.26,1.26-5.85,5.87-10.21,10.22L30.43,63.75c-4.35,4.37-9,9-10.2,10.24l-1,3.6-1.8.48-1.82.49a8,8,0,0,1,1.93-7.22c1.28-1.26,5.87-5.85,10.23-10.22L62.29,26.63c4.38-4.36,9-9,10.23-10.21a8,8,0,0,1,7.21-2c1.71.49,8,2.18,14,3.75l47.13,12.65,14,3.74a7.7,7.7,0,0,1,3.3,2,7.59,7.59,0,0,1,2,3.29" transform="translate(-15.45 -14.26)"/><path class="cls-2" d="M101,27.4l10.29,6,34.83,20.09c4.42,2.53,9,5.2,10.35,6a6.72,6.72,0,0,1,3.07,5.35v64a6.64,6.64,0,0,1-3.07,5.3l-10.33,6-34.85,20.11c-4.4,2.56-9,5.24-10.29,6l-3.1.75-3.08-.75-10.31-6L49.68,140c-4.39-2.53-9-5.21-10.31-6l.75-1.31.77-1.35c1.29.75,5.93,3.41,10.33,6L86.06,157.5c4.38,2.54,9,5.24,10.3,5.95l1.54.36,1.55-.36,10.31-5.95,34.81-20.11c4.42-2.56,9.07-5.22,10.34-6l1.56-2.64v-64L154.93,62c-1.29-.71-5.94-3.4-10.36-5.93L109.76,36c-4.4-2.58-9-5.24-10.31-6l-1.56-.34-1.53.34c-1.25.72-5.92,3.38-10.3,6L51.22,56.11c-4.4,2.53-9,5.22-10.33,5.93l-1.52,2.7v64l1.52,2.64-.77,1.35-.75,1.31a6.46,6.46,0,0,1-3.08-5.3c0-1.45,0-6.82,0-12V64.74a6.53,6.53,0,0,1,3.08-5.35c1.27-.75,5.92-3.42,10.31-6L84.51,33.35c4.4-2.55,9-5.24,10.31-6l3.07-.79,3.11.79" transform="translate(-15.45 -14.26)"/><path class="cls-2" d="M56.19,50.69c1.27-.32,5.87-1.56,10.24-2.73L101,38.69c4.38-1.16,9-2.41,10.24-2.75a6,6,0,0,1,5.3,1.42c.92.93,4.3,4.31,7.49,7.49l25.33,25.32c3.19,3.2,6.56,6.59,7.49,7.49a5.86,5.86,0,0,1,1.41,5.3c-.34,1.26-1.58,5.87-2.73,10.25l-9.28,34.57c-1.18,4.39-2.4,9-2.74,10.24L142,140.46l-2.4,1.46-10.24,2.74-34.58,9.27-10.25,2.74-.35-1.33L83.86,154c1.28-.36,5.88-1.58,10.25-2.73L128.69,142c4.37-1.21,9-2.44,10.24-2.75l1.2-.75.74-1.2c.35-1.28,1.56-5.87,2.74-10.25l9.26-34.59c1.19-4.36,2.41-9,2.75-10.24l-.69-2.65c-.93-.91-4.32-4.29-7.53-7.49L122.11,46.8c-3.21-3.2-6.59-6.56-7.49-7.48L112,38.6c-1.27.35-5.88,1.56-10.26,2.72L67.14,50.6c-4.36,1.17-9,2.41-10.23,2.73l-1.19.77L55,55.31c-.35,1.25-1.57,5.86-2.77,10.22l-9.27,34.58c-1.18,4.4-2.4,9-2.72,10.25l.69,2.64c.94.92,4.3,4.31,7.51,7.49l25.32,25.33,7.49,7.49,2.63.71.36,1.32.35,1.33a5.69,5.69,0,0,1-5.27-1.44c-.94-.9-4.31-4.27-7.52-7.49l-25.3-25.31c-3.2-3.19-6.59-6.57-7.51-7.47a5.93,5.93,0,0,1-1.43-5.32c.35-1.25,1.6-5.86,2.75-10.23l9.28-34.6c1.18-4.36,2.43-9,2.75-10.21l1.47-2.44,2.4-1.47" transform="translate(-15.45 -14.26)"/><path class="cls-2" d="M47.07,147.57a71.89,71.89,0,1,1,101.68,0,71.87,71.87,0,0,1-101.68,0m99.3-2.22a68.45,68.45,0,1,0-96.94.14,68.6,68.6,0,0,0,96.94-.14" transform="translate(-15.45 -14.26)"/><path class="cls-2" d="M100.18,44.69c1,.55,4.39,2.55,7.64,4.39L133.63,64c3.25,1.89,6.69,3.88,7.66,4.41a4.91,4.91,0,0,1,2.27,3.94v47.45a4.9,4.9,0,0,1-2.27,3.94l-7.66,4.41L107.82,143c-3.25,1.88-6.68,3.86-7.64,4.43L97.9,148l-2.28-.55c-.94-.57-4.35-2.55-7.63-4.43l-25.8-14.89c-3.23-1.88-6.69-3.86-7.63-4.41l.56-1,.59-1c.95.55,4.36,2.53,7.63,4.4l25.8,14.91,7.64,4.4,1.12.27,1.14-.27,7.64-4.4,25.8-14.91c3.27-1.87,6.7-3.85,7.65-4.4l1.16-2V72.34l-1.15-2c-1-.53-4.39-2.52-7.66-4.4l-25.8-14.87c-3.24-1.92-6.69-3.87-7.64-4.42l-1.14-.28-1.12.28c-.94.55-4.39,2.5-7.66,4.42L63.34,66c-3.27,1.88-6.68,3.87-7.63,4.4l-1.15,2v47.45l1.15,2-.59,1-.56,1a4.81,4.81,0,0,1-2.28-3.94V72.34a4.82,4.82,0,0,1,2.28-3.94c.94-.53,4.4-2.52,7.63-4.41L88,49.08c3.28-1.84,6.69-3.84,7.63-4.39l2.28-.56,2.28.56" transform="translate(-15.45 -14.26)"/><path class="cls-2" d="M60.27,133.74a53.25,53.25,0,1,1,75.29,0,53.26,53.26,0,0,1-75.29,0m73.52-1.67a50.68,50.68,0,1,0-71.8.12,50.77,50.77,0,0,0,71.8-.12" transform="translate(-15.45 -14.26)"/><path class="cls-1" d="M685.5,49.79a9.17,9.17,0,1,1,9.17-9.15,9.18,9.18,0,0,1-9.17,9.15m0-17.08a7.92,7.92,0,1,0,0,15.84,7.92,7.92,0,1,0,0-15.84M688,45.92l-2.73-4.18h-1.92v4.18H682V35.36h4.31a3.21,3.21,0,0,1,3.32,3.22,3.07,3.07,0,0,1-2.7,3.11l2.84,4.23Zm-1.73-9.32h-2.92v3.89h2.92l1.91-1.91-1.91-2" transform="translate(-15.45 -14.26)"/></svg>