<svg xmlns="http://www.w3.org/2000/svg" viewBox="0 0 64.4 46.73"><defs><style>.cls-1{fill:#fff;fill-rule:evenodd;}</style></defs><title>th</title><g id="Layer_2" data-name="Layer 2"><g id="unused_logos" data-name="unused logos"><g id="th"><path class="cls-1" d="M39.08,11.42V4.32H37.53v7.1Z"/><path class="cls-1" d="M26.88,11.4V4.32h-1.5V11.4Z"/><path class="cls-1" d="M27.88,0H24.37V3.52h3.51Z"/><path class="cls-1" d="M64.4,19.53H58.48v8.94H64.4Z"/><path class="cls-1" d="M40,0H36.59V3.52H40Z"/><path class="cls-1" d="M5.92,19.53H0v8.94H5.92Z"/><path class="cls-1" d="M56.5,12.47H8V46.73H56.5ZM30.69,29.16h3.06v3.08H30.69ZM17,18.21h6.09v6.11H17ZM42.86,41.86H21.7V36.21h3.05v3.43H39.87c0-1.07-.06-2.16,0-3.27h3Zm4.6-17.54H41.37V18.21h6.09Z"/></g></g></g></svg>