<svg xmlns="http://www.w3.org/2000/svg" viewBox="0 0 77.05 50.14"><defs><style>.cls-1{fill:#fff;}</style></defs><title>tripadvisor</title><g id="Layer_2" data-name="Layer 2"><g id="logos"><g id="_3K_IN_KIND" data-name="3K + IN KIND"><g id="tripadvisor"><path class="cls-1" d="M62.38,4.59a42.46,42.46,0,0,0-1.84,3.83,2.34,2.34,0,0,0,.18,1.81,12.2,12.2,0,0,1-8.47,18.53A11.62,11.62,0,0,1,42,25.6a12.25,12.25,0,0,1-1.1-1.4l-2.7,4L35.68,24.5a6.63,6.63,0,0,0-.6.47c-3.7,3.71-8.09,4.91-13,3.15S14.4,22.54,14,17.29a10.89,10.89,0,0,1,1.77-6.89,2,2,0,0,0,.16-2.18c-.58-1.13-1.15-2.28-1.8-3.57,2.19,0,4.29,0,6.39,0a4.49,4.49,0,0,0,1.86-.5C32.72-1.29,43.1-1.42,53.52,4a5,5,0,0,0,2.1.56C57.84,4.64,60.08,4.59,62.38,4.59ZM16.5,16.72A9.65,9.65,0,1,0,26,7.05,9.68,9.68,0,0,0,16.5,16.72Zm24.25,0a9.64,9.64,0,0,0,9.51,9.71A9.82,9.82,0,0,0,60,16.76a9.68,9.68,0,0,0-9.59-9.65A9.5,9.5,0,0,0,40.75,16.69ZM49.31,4.53c-5.59-3.09-17.52-2.8-22,0,5.9,1,9.54,4.33,11,10.27C39.67,8.88,43.26,5.45,49.31,4.53Z"/><path class="cls-1" d="M37.61,39.42V35.07h1.63V46.83l-1.31.06-.2-.69A10.61,10.61,0,0,1,35,47c-2.1,0-3.33-2-3.17-4.89.12-2.16,1.61-3.64,3.59-3.42A10.08,10.08,0,0,1,37.61,39.42Zm0,3.33a5,5,0,0,0-.08-.83c-.28-1-.76-1.86-2-1.86s-1.65.82-1.85,1.82a5.36,5.36,0,0,0-.07,1.6,2.21,2.21,0,0,0,1.87,2.16,2.25,2.25,0,0,0,2.08-2.11C37.61,43.28,37.6,43,37.62,42.75Z"/><path class="cls-1" d="M17.25,46.53v3.53l-1.61.08V38.7l1.92.72a3,3,0,0,1,3.89-.25c1.68,1.14,1.79,2.92,1.51,4.71-.24,1.52-1,2.85-2.66,3A13.13,13.13,0,0,1,17.25,46.53Zm0-3.92c.05.52.05.81.11,1.09.21,1.07.72,1.92,1.92,1.93a1.81,1.81,0,0,0,1.88-1.78A5,5,0,0,0,21,41.43a2.28,2.28,0,0,0-1.59-1.24,2.69,2.69,0,0,0-1.78,1C17.29,41.56,17.3,42.26,17.21,42.61Z"/><path class="cls-1" d="M66.88,42.88c0,2.66-1.47,4.23-4,4.23s-4-1.66-4-4.25,1.53-4.21,4-4.2S66.89,40.2,66.88,42.88Zm-1.76-.29a5.27,5.27,0,0,0-.18-1,2,2,0,0,0-2-1.54,2,2,0,0,0-2,1.57A4.3,4.3,0,0,0,60.76,43c0,1.61.89,2.69,2.14,2.71S65.1,44.62,65.12,42.59Z"/><path class="cls-1" d="M30.8,47.16l-1.89-.78A11.92,11.92,0,0,1,27,47a2.54,2.54,0,0,1-2.84-1.71,2.48,2.48,0,0,1,1.66-3.08,7.51,7.51,0,0,1,1.58-.32c.52-.07,1.06-.07,1.59-.1,0-1.83-1-2.13-3.83-1.25-.37-1,0-1.48,1.05-1.73,3-.72,4.59.44,4.59,3.54ZM29.05,43a10.62,10.62,0,0,0-2.45.49,1.54,1.54,0,0,0-.69,1.33,1.69,1.69,0,0,0,1.24.87C28.42,45.77,29.12,44.83,29.05,43Z"/><path class="cls-1" d="M57.51,38.91v1.4a21.43,21.43,0,0,0-2.33-.21,1.05,1.05,0,0,0-.82.55,1.12,1.12,0,0,0,.46.88c.57.4,1.24.67,1.85,1A2.21,2.21,0,0,1,57.85,45a2.16,2.16,0,0,1-1.8,1.84,9.49,9.49,0,0,1-2.33.12c-1.12,0-1.59-.53-1.19-1.62A13,13,0,0,0,55,45.6,1.45,1.45,0,0,0,56,44.78c.09-.25-.33-.8-.65-1-.56-.42-1.24-.68-1.83-1.06-.75-.49-1.29-1.27-.9-2.1A3,3,0,0,1,54.27,39,12.83,12.83,0,0,1,57.51,38.91Z"/><path class="cls-1" d="M1.41,40.28,0,40.09V38.93l1.52-.16.14-1.85,1.5-.51.16,2.35L5,38.91l.06,1.18-1.76.19a40.71,40.71,0,0,0,.07,4.56c.05.41.92.72,1.41,1.08l.45-.16c-.19.4-.28,1-.6,1.18a2.23,2.23,0,0,1-2.73-.84,6.06,6.06,0,0,1-.36-1.94c-.05-1.17,0-2.33,0-3.5A2.56,2.56,0,0,0,1.41,40.28Z"/><path class="cls-1" d="M48.18,39l-4,8-3.92-8c1.21-.34,2-.2,2.43,1,.36,1,.91,2,1.51,3.32.64-1.28,1.25-2.32,1.69-3.43S47,38.63,48.18,39Z"/><path class="cls-1" d="M70.07,46.85h-1.6V38.76l1.88.54,2.36-.84v1.75c-2.27.33-2.63.77-2.64,3.16Z"/><path class="cls-1" d="M6.71,38.65l1.77.69L11,38.47v1.75c-2.23.29-2.64.77-2.65,3.05,0,1.08,0,2.16,0,3.24a1.26,1.26,0,0,1-.09.3H6.71Z"/><path class="cls-1" d="M14,46.84H12.44v-7.9H14Z"/><path class="cls-1" d="M50.66,46.83H49v-7.9h1.62Z"/><path class="cls-1" d="M66.88,6.06A1.3,1.3,0,0,1,65.4,7.41,1.35,1.35,0,0,1,64,6a1.4,1.4,0,0,1,1.46-1.53C66.33,4.46,66.88,5,66.88,6.06Z"/><path class="cls-1" d="M75.39,38.09c1.11,0,1.65.51,1.66,1.43A1.38,1.38,0,0,1,75.56,41a1.36,1.36,0,0,1-1.44-1.4A1.32,1.32,0,0,1,75.39,38.09Z"/><path class="cls-1" d="M49.82,35.07c.47.69.94,1.08.94,1.46s-.59,1-.81.93a1.47,1.47,0,0,1-1-.88C48.87,36.23,49.36,35.79,49.82,35.07Z"/><path class="cls-1" d="M14.55,36.52c-.62.48-1,1-1.31.94s-.74-.6-1.1-.93c.36-.34.68-.85,1.09-1S13.92,36.05,14.55,36.52Z"/><path class="cls-1" d="M25.94,22.61a6.06,6.06,0,0,1-6-6.05,6.06,6.06,0,1,1,6,6.05Zm0-2.18a3.85,3.85,0,0,0,3.9-3.85A3.9,3.9,0,1,0,26,20.43Z"/><path class="cls-1" d="M56.32,16.63a5.94,5.94,0,0,1-6,6,6,6,0,0,1-6-6,6.08,6.08,0,0,1,6.11-6.08A6,6,0,0,1,56.32,16.63Zm-2.15-.06a3.85,3.85,0,0,0-3.86-3.88,4,4,0,0,0-3.89,3.89,3.91,3.91,0,0,0,3.92,3.85A3.77,3.77,0,0,0,54.17,16.57Z"/><path class="cls-1" d="M28.05,16.58A2.1,2.1,0,0,1,26,18.63a2,2,0,0,1-2-2.07A2.09,2.09,0,0,1,26,14.49,2.12,2.12,0,0,1,28.05,16.58Z"/><path class="cls-1" d="M50.32,18.63a2,2,0,0,1-2-2.06,2,2,0,1,1,4.06,0A2,2,0,0,1,50.32,18.63Z"/></g></g></g></g></svg>