<svg xmlns="http://www.w3.org/2000/svg" viewBox="0 0 172.84 29.61"><defs><style>.cls-1{fill:#fff;}</style></defs><title>trowprice</title><g id="Layer_2" data-name="Layer 2"><g id="logos"><g id="_10K" data-name="10K"><g id="t_row" data-name="t row"><path class="cls-1" d="M172.84,29.27l-.72-.08c-.07-.65-.09-1.28-.21-1.9a5.37,5.37,0,0,0-2.72-3.66c-1-.61-2.15-1.11-3.33-1.72.29,1.19.22,2.17-1.06,2.82.72-2.7-.55-4.42-2.64-5.89l.19,1.95a13.75,13.75,0,0,1-.18,4.34,1,1,0,0,1-.82.88,3.74,3.74,0,0,0-1.07.67l-.82.57c.48-1.24,1-2.35,1.35-3.52a12.3,12.3,0,0,0-.9-9.87,1.43,1.43,0,0,1-.09-.42c-.06-.57-.1-1.13-.17-1.82l.81-.43c.1.47.17.87.28,1.26a2.07,2.07,0,0,0,2.64,1.69,1.89,1.89,0,0,0,1.4-2.27c-.05-.19-.29-.34-.43-.5a4.42,4.42,0,0,0-.39.47c-.06.09,0,.25-.1.32s-.4.38-.59.37a.71.71,0,0,1-.52-.44,23.79,23.79,0,0,1-.05-2.67,5.31,5.31,0,0,0-.43-2.73A2.1,2.1,0,0,0,160,5.5c.27.18.5.3.7.46a7.28,7.28,0,0,1,.58.54c-.33.39-.62.34-1,.06-.85-.68-1.49-.77-2.05-.41l2,1.14c-.32.59-.6.58-1,.31a5.76,5.76,0,0,0-1.22-.66c-.2-.07-.49.07-.74.1a2.43,2.43,0,0,1-.6,0c-.25,0-.55-.22-.74-.13a13.69,13.69,0,0,0-1.84,1c-.4.26-.72.38-1.1-.07a4.38,4.38,0,0,1,2.66-1.61A1.68,1.68,0,0,0,154,6.11a6.29,6.29,0,0,0-1.23.85c-.37.28-.69.3-1.19-.08l2.07-1.49a2.25,2.25,0,0,0-2.29.73,1.05,1.05,0,0,1-1.37.31l1.18-1.11a5.83,5.83,0,0,0-4.77,7.85,2.86,2.86,0,0,0,3.29,2,2.27,2.27,0,0,0,1.59-3,.55.55,0,0,0-.45-.29.68.68,0,0,0-.41.43c-.08.35-.1.71-.55.8a.82.82,0,0,1-1-.68,2.24,2.24,0,0,1,2.31-2.75,2,2,0,0,0,1.3,1.33.73.73,0,0,1,.37.53,3.75,3.75,0,0,1-.5,2.55A11.07,11.07,0,0,0,150.85,19a9,9,0,0,0,1,5.42,1.18,1.18,0,0,1,.07.34l-1.34-.88a3.53,3.53,0,0,0-.11.65,4.14,4.14,0,0,0,1,2.69,3.61,3.61,0,0,1,.72,1.94l-.52,0c-2.47,0-4.94,0-7.4,0-.45,0-.57-.12-.57-.57q0-14.07,0-28.15c0-.14,0-.29,0-.52h29.21ZM170.94,3a1.1,1.1,0,0,0-1.18-1.14A1.13,1.13,0,0,0,168.58,3a1.2,1.2,0,0,0,1.22,1.2A1.19,1.19,0,0,0,170.94,3Z"/><path class="cls-1" d="M37.8,29.61a6,6,0,0,1-3.65-2.54c-.55-.79-1.1-1.59-1.59-2.43-1.42-2.46-2.8-4.94-4.2-7.42.66-.09,1.34-.13,2-.27a3.4,3.4,0,0,0,2.71-3.32A8.76,8.76,0,0,0,33,11.46a2.47,2.47,0,0,0-2.42-2.15c-.8-.05-1.61,0-2.41-.05-.5,0-.68.13-.67.66,0,4.64,0,9.27,0,13.91,0,.71,0,1.42,0,2.13a.73.73,0,0,0,.7.88,2.76,2.76,0,0,1,.27.08c.88.15.88.15,1.05,1.08H21.37c.09-.89.14-.95,1-1.08s1-.28,1-1.19V10.2c0-1,0-1.12-1-1.26a1,1,0,0,1-1-1.12c.14,0,.31,0,.49,0,3.42,0,6.84,0,10.26,0a8.64,8.64,0,0,1,2.08.3c2.53.66,3.34,2.7,3.11,4.92-.27,2.59-1.84,4-4.25,4.72.83,1.27,1.68,2.5,2.47,3.77q1.71,2.74,3.35,5.55a2.59,2.59,0,0,0,1.93,1.44c.56.07.27.51.38.8l-.91.32Z"/><path class="cls-1" d="M0,10.43c0-.55.1-1.1.12-1.65,0-1,0-1,1-1H16.47l.25,5.27-.64,0c-.31,0-.45-.07-.51-.42a16.25,16.25,0,0,0-.44-1.83,1.39,1.39,0,0,0-1.34-1.15c-1.12,0-2.23,0-3.4,0V25.78c0,.86.1,1,.94,1.14s.84.15,1.09,1.08H4.32c0-.77.17-1,.89-1.08,1-.14,1.08-.27,1.08-1.24V9.75c-1.28,0-2.52-.05-3.75,0a1.43,1.43,0,0,0-.86.77,6.25,6.25,0,0,0-.51,1.81c-.08.59-.32.82-.9.73a.86.86,0,0,0-.27,0Z"/><path class="cls-1" d="M92,17.21A18.69,18.69,0,0,0,93.91,17a3.54,3.54,0,0,0,2.88-3.57,10.48,10.48,0,0,0-.12-1.94,2.54,2.54,0,0,0-2.48-2.18c-.85-.05-1.71,0-2.57,0-.34,0-.49.13-.47.46,0,.13,0,.26,0,.39V25.76c0,.87.13,1,1,1.16s.86.14,1,1.09H85.05c.12-.91.16-1,1-1.09s1-.28,1-1.16V10.17c0-1,0-1.14-1-1.26-.71-.08-.87-.46-1-1.1l.53,0c3.4,0,6.8,0,10.2,0a8.6,8.6,0,0,1,2.36.36c2.31.7,3,2.61,2.87,4.7a19.19,19.19,0,0,1-.39,2l2.69-.72v2.3c.74-.55,1.43-1.13,2.18-1.61a4.93,4.93,0,0,1,2.68-.63c-.14.92-.26,1.78-.39,2.63-.09.53-.19,1.06-.29,1.59-.15.83-.15.83-1.07.74a13.15,13.15,0,0,0-.39-1.26,1.16,1.16,0,0,0-1.86-.57,1.66,1.66,0,0,0-.86,1.52c0,2.29,0,4.59,0,6.89,0,.86.15,1,1,1.2s.9.17,1.08,1.09H97.75c.12-.92.12-.92,1-1.09s1-.28,1-1.13V17.66a4.22,4.22,0,0,0,0-.62c-.09-.52-.36-.64-.79-.34a9,9,0,0,1-4.46,1.76,9.71,9.71,0,0,1-1.61-.08.44.44,0,0,1-.26-.17C92.39,17.89,92.19,17.56,92,17.21Z"/><path class="cls-1" d="M51.84,14.71h7.34c-.11.55-.24,1-.92,1.12-.45.07-.61.46-.52.91l.87,3.85A5.53,5.53,0,0,0,59.07,22c.38-1.24.77-2.48,1.16-3.71.32-1.05.65-2.09,1-3.14.09-.32.21-.46.57-.44.61,0,1.23,0,1.9,0,.74,2.46,1.48,4.91,2.26,7.54.29-1.15.54-2.13.78-3.12.19-.77.38-1.54.56-2.32s.09-.92-.6-1-.51-.62-.75-1h5.5c-.08.53-.18,1-.89,1.06s-1,.53-1.22,1.19c-.92,3.51-1.86,7-2.78,10.53-.1.39-.24.58-.66.52a5.93,5.93,0,0,0-.73,0C64,28,64.05,28,63.72,27c-.69-2.18-1.38-4.37-2.2-6.58q-1.16,3.8-2.34,7.63c-.65,0-1.29,0-1.92,0a.61.61,0,0,1-.39-.39q-1.53-5.44-3-10.88c-.16-.57-.43-.9-1-.94S51.89,15.4,51.84,14.71Z"/><path class="cls-1" d="M46,28.49c-3.88.11-6.32-2.56-6.6-6.18a9,9,0,0,1,.58-4.37,5.71,5.71,0,0,1,5.28-3.67,10,10,0,0,1,3.08.28,5.57,5.57,0,0,1,3.91,3.88,9.17,9.17,0,0,1,0,5.81A6.05,6.05,0,0,1,46,28.49Zm-2.81-7.07c.18,1.24.33,2.6.61,3.94A2.06,2.06,0,0,0,45.24,27a2.26,2.26,0,0,0,3-1.72,15.64,15.64,0,0,0,.4-5.7,13.24,13.24,0,0,0-.5-2.49,2,2,0,0,0-1.32-1.42,2.33,2.33,0,0,0-3.16,1.93C43.39,18.82,43.32,20.05,43.15,21.42Z"/><path class="cls-1" d="M81.5,25.87c.29.81.23,1-.41,1.43-2.37,1.75-6.86,1.7-8.85-.76a7.26,7.26,0,0,1-1.54-3.71,9.58,9.58,0,0,1,.71-5.46,5.37,5.37,0,0,1,4.73-3.13,6.58,6.58,0,0,1,3.43.47A5.83,5.83,0,0,1,82.76,19a3.57,3.57,0,0,1,.11.55A1.19,1.19,0,0,1,81.56,21c-2.19,0-4.37,0-6.56,0h-.62a7.77,7.77,0,0,0,.86,3.6,4.07,4.07,0,0,0,5.38,1.66C80.91,26.18,81.18,26,81.5,25.87Zm-7-6.24h4.85a5.5,5.5,0,0,0-.64-3,2,2,0,0,0-3.53,0A5.88,5.88,0,0,0,74.47,19.63Z"/><path class="cls-1" d="M131,21c.05,2,.39,3.75,2,4.92s3.4.85,5.08-.08c.24.91.22,1-.5,1.47a7.14,7.14,0,0,1-8-.08,6.12,6.12,0,0,1-2.25-4,10,10,0,0,1,.43-5.44,5.4,5.4,0,0,1,5-3.6,6.93,6.93,0,0,1,3,.3,5.69,5.69,0,0,1,3.56,4.4q.08.3.12.6c.11,1-.33,1.49-1.32,1.49H131Zm5-1.39a6.43,6.43,0,0,0-.79-3.15,2,2,0,0,0-3.09-.38c-.94,1-1,2.25-1.08,3.53Z"/><path class="cls-1" d="M126.44,25.85c.18,1,.18,1-.59,1.54a7.16,7.16,0,0,1-8.84-.85,6.89,6.89,0,0,1-1.79-3.84,8.53,8.53,0,0,1,.64-5.17A5.68,5.68,0,0,1,120,14.4a12.5,12.5,0,0,1,5.95.33c.08,0,.16.09.27.14-.23,1.41-.45,2.82-.68,4.26h-1c-.15-.6-.26-1.22-.46-1.81a2.37,2.37,0,0,0-4.46-.35,8.13,8.13,0,0,0,.19,7.55,4.3,4.3,0,0,0,5.87,1.66Z"/><path class="cls-1" d="M107.86,28c.18-.64.44-1.1,1.11-1.22.46-.09.63-.43.63-.92,0-3.51,0-7,0-10.53,0-.44.13-.61.57-.66,1-.11,1.95-.27,3-.42V25.84c0,.79.14,1,.93,1.08s.9.3,1,1.1Z"/><path class="cls-1" d="M155.73,9.78a1.74,1.74,0,0,1,1.38-1.69c-.72.94-.16,1.73.1,2.53a.94.94,0,0,1-.21,1.15,1.48,1.48,0,0,0-.36,1.92,11.63,11.63,0,0,0,1.3-.12c.15,0,.27-.25.4-.39a1.83,1.83,0,0,0-.45-.25c-.14,0-.29,0-.54.07a2,2,0,0,1,0-.78c0-.1.42,0,.65-.05h1.18c0,.3.33.7-.3.8a2.73,2.73,0,0,0,.08.61c0,.07.23.07.35.1.08.35,0,.51-.37.49-.63,0-1.26,0-1.9,0-.15,1.09.72.75,1.15,1-1.6.87-2.63.8-3.21-.68a1.36,1.36,0,0,1,.46-1.79,3.08,3.08,0,0,0,.33-.3c.28-.24.46-.49.21-.86s-.33-.76-.91-.53a1.35,1.35,0,0,1-.93,0c-.25-.09-.58-.39-.58-.6a.91.91,0,0,1,.53-.66,3.06,3.06,0,0,1,1,0A4.44,4.44,0,0,1,155.73,9.78Z"/><path class="cls-1" d="M111.46,9.42a1.89,1.89,0,0,1,1.93,1.94,1.93,1.93,0,0,1-1.93,1.91,1.93,1.93,0,1,1,0-3.85Z"/><path class="cls-1" d="M17,28.19a1.93,1.93,0,0,1-2-1.92A2,2,0,0,1,17,24.34,1.93,1.93,0,0,1,17,28.19Z"/><path class="cls-1" d="M158.46,9.18a3.23,3.23,0,0,0,.44.39,4.88,4.88,0,0,0,.64.23l.84.36c-.11.2-.18.47-.34.57a.77.77,0,0,1-1.07-.09,8.2,8.2,0,0,1-.65-1.37Z"/><path class="cls-1" d="M168.78,3.05a1,1,0,0,1,1-1,1,1,0,0,1,1,1,1,1,0,0,1-1,1A1,1,0,0,1,168.78,3.05Zm.78,0,.48.44a3.58,3.58,0,0,1,.17-.49c.15-.31.08-.52-.25-.59a2.71,2.71,0,0,0-.57,0V3.59h.06Z"/><path class="cls-1" d="M169.74,3c-.08-.09-.23-.19-.23-.28s.17-.27.23-.25a.53.53,0,0,1,.36.24c0,.1-.08.27-.13.4Z"/></g></g></g></g></svg>