<svg xmlns="http://www.w3.org/2000/svg" viewBox="0 0 68.93 53.6"><defs><style>.cls-1{fill:#fff;}</style></defs><title>twosix</title><g id="Layer_2" data-name="Layer 2"><g id="logos"><g id="_5K" data-name="5K"><g id="twosix"><path class="cls-1" d="M68.93,44.48H65.82a.25.25,0,0,1-.25-.15c-.76-1.4-1.53-2.79-2.3-4.19,0-.06-.07-.11-.11-.19l-.11.2q-1.15,2.09-2.29,4.17a.28.28,0,0,1-.28.16H57.39s0,0,0,0v0a0,0,0,0,0,0,0l0,0,0-.06,4-6.33,0,0v0l-4-6.36.16,0h3a.23.23,0,0,1,.24.15L63,35.76l.11.19.12-.19,2.17-4a.27.27,0,0,1,.29-.18h3.15l-4.06,6.38.12.19,3.9,6.1c0,.07.09.13.13.19Z"/><path class="cls-1" d="M0,32.42s.05-.05.06-.08a1.13,1.13,0,0,1,1.15-.8H2v-.21c0-.48,0-1,0-1.45a1.37,1.37,0,0,1,.88-1.35,1.43,1.43,0,0,1,2,1,1.61,1.61,0,0,1,0,.44v1.56H6.1a1.07,1.07,0,0,1,.22,2.13,1.63,1.63,0,0,1-.38,0h-1a2.09,2.09,0,0,0,0,.24v6.8a3,3,0,0,0,0,.43,1.46,1.46,0,0,0,.18.58,1.1,1.1,0,0,0,.84.55,3.65,3.65,0,0,1,.46.07,1.16,1.16,0,0,1-.11,2.25,4.85,4.85,0,0,1-1.47.07,2.92,2.92,0,0,1-2.6-2.12A6.49,6.49,0,0,1,2,40.71v-7H1.79a7.85,7.85,0,0,1-.84,0A1,1,0,0,1,.09,33L0,32.82Z"/><path class="cls-1" d="M56.87,53.6l-.26-.07a2.85,2.85,0,0,1-1.26-.61l-.1-.07.35-.69.16.12a2.45,2.45,0,0,0,1.09.52,1.67,1.67,0,0,0,.8,0,.57.57,0,0,0,.38-.3.49.49,0,0,0-.15-.61,2.06,2.06,0,0,0-.44-.23c-.27-.1-.54-.16-.81-.26a4.11,4.11,0,0,1-.57-.25A1.2,1.2,0,0,1,56,49.21a1.79,1.79,0,0,1,.9-.37,3.06,3.06,0,0,1,1.92.37l.13.09-.32.7-.2-.1A2.37,2.37,0,0,0,57,49.58a.83.83,0,0,0-.27.07.45.45,0,0,0-.14.77,1.25,1.25,0,0,0,.37.22c.23.09.47.15.71.24a5,5,0,0,1,.67.28,1.23,1.23,0,0,1,.1,2.08,1.91,1.91,0,0,1-.69.29l-.24.07Z"/><path class="cls-1" d="M21,40.63c.32-1.51.63-3,.95-4.53s.63-3,.94-4.55H25.8c-.29,1.09-.59,2.16-.88,3.24S24.33,36.94,24,38s-.58,2.14-.88,3.21-.59,2.16-.88,3.24H19.88q-1.36-4.26-2.74-8.55c-.1,0-.1.13-.12.19-.32,1-.65,2-1,3.08q-.81,2.55-1.61,5.11l-.06.17H12L8.47,31.59s0,0,0,0h2.88c.22,1,.43,2,.65,3s.43,2,.64,3,.43,2,.65,3h.06s0,0,0,0l0,0,2.67-8.85,0,0h2.1l2.75,9.08Z"/><path class="cls-1" d="M38.45,38a8.72,8.72,0,0,1-.4,2.69,5.85,5.85,0,0,1-2,3,5.18,5.18,0,0,1-2.31,1,7.22,7.22,0,0,1-2,.06,5.31,5.31,0,0,1-4.37-2.93,6.71,6.71,0,0,1-.73-2.39,10.73,10.73,0,0,1,0-2.47,6.63,6.63,0,0,1,1.52-3.74,5,5,0,0,1,3.07-1.74,7,7,0,0,1,3.11.12,5.13,5.13,0,0,1,3,2.21,6.59,6.59,0,0,1,1,2.85C38.4,37.07,38.42,37.55,38.45,38Zm-2.89,0c0-.45-.07-.9-.13-1.35a4.55,4.55,0,0,0-.72-1.9,2.4,2.4,0,0,0-1.05-.89A3.19,3.19,0,0,0,32,33.67a2.37,2.37,0,0,0-1.79,1.12,4.31,4.31,0,0,0-.63,1.59,8.66,8.66,0,0,0,0,3.17,4.47,4.47,0,0,0,.7,1.79,2.25,2.25,0,0,0,1.21.91,3.16,3.16,0,0,0,1.43.12,2.4,2.4,0,0,0,1.59-.82,3.82,3.82,0,0,0,.73-1.38A8.36,8.36,0,0,0,35.56,38Z"/><path class="cls-1" d="M45.69,44.73a7.43,7.43,0,0,1-2.58-.36,4.62,4.62,0,0,1-2.48-1.93,1.29,1.29,0,0,1-.21-.66,1.33,1.33,0,0,1,.89-1.31,1.31,1.31,0,0,1,1.51.49,1.35,1.35,0,0,1,.19.33,1.8,1.8,0,0,0,.76.83,3.25,3.25,0,0,0,1.43.42,4,4,0,0,0,1.5-.17,1.85,1.85,0,0,0,.77-.49,1.39,1.39,0,0,0,0-1.88,2.24,2.24,0,0,0-.66-.44,8.22,8.22,0,0,0-1.62-.5A12.18,12.18,0,0,1,43,38.41a5.43,5.43,0,0,1-1.57-.93,2.87,2.87,0,0,1-1-2.07,3.45,3.45,0,0,1,1.24-2.84,4.78,4.78,0,0,1,2.43-1.15,7.65,7.65,0,0,1,2.19-.07,5,5,0,0,1,3,1.29,3.42,3.42,0,0,1,.58.68,1.36,1.36,0,0,1-2.26,1.51,1.22,1.22,0,0,1-.12-.19,2.08,2.08,0,0,0-1.45-1.09,3.25,3.25,0,0,0-1.61.07,1.69,1.69,0,0,0-.92.65,1.44,1.44,0,0,0-.2,1.27,1.23,1.23,0,0,0,.69.79,5.29,5.29,0,0,0,1.18.4c.61.15,1.23.27,1.85.44a7.38,7.38,0,0,1,2,.86,4,4,0,0,1,.85.69,2.93,2.93,0,0,1,.72,1.69A3.41,3.41,0,0,1,50,42.94,4.4,4.4,0,0,1,48,44.3a6.26,6.26,0,0,1-1.92.4Z"/><path class="cls-1" d="M55.42,31.56V44.47H52.53V31.57C52.66,31.53,55.23,31.53,55.42,31.56Z"/><path class="cls-1" d="M33,9.88a2.46,2.46,0,1,1,2.47-2.46A2.45,2.45,0,0,1,33,9.88Z"/><path class="cls-1" d="M37.54,7.4a2.46,2.46,0,1,1,2.35,2.48A2.46,2.46,0,0,1,37.54,7.4Z"/><path class="cls-1" d="M49.41,7.43A2.47,2.47,0,1,1,47,5,2.47,2.47,0,0,1,49.41,7.43Z"/><path class="cls-1" d="M33,16.78a2.46,2.46,0,1,1,2.47-2.44A2.45,2.45,0,0,1,33,16.78Z"/><path class="cls-1" d="M22,16.78a2.46,2.46,0,1,1,2.46-2.47A2.47,2.47,0,0,1,22,16.78Z"/><path class="cls-1" d="M47,16.78a2.46,2.46,0,1,1,2.46-2.47A2.47,2.47,0,0,1,47,16.78Z"/><path class="cls-1" d="M24.49,7.42A2.46,2.46,0,1,1,22,5,2.46,2.46,0,0,1,24.49,7.42Z"/><path class="cls-1" d="M40,16.78a2.46,2.46,0,1,1,2.46-2.47A2.45,2.45,0,0,1,40,16.78Z"/><path class="cls-1" d="M40.19,48.85h2a2.41,2.41,0,0,1,.76.1,1.27,1.27,0,0,1,.32.13,1,1,0,0,1,.57,1,1,1,0,0,1-.67.91l-.09,0,.23.09a1.08,1.08,0,0,1,.71,1,1.21,1.21,0,0,1-1,1.35,2.82,2.82,0,0,1-.64.09H40.2C40.16,53.43,40.15,49.15,40.19,48.85Zm.79,4,.06,0H42.3a1.32,1.32,0,0,0,.55-.14.58.58,0,0,0,.31-.55.52.52,0,0,0-.32-.51,1.17,1.17,0,0,0-.44-.13c-.44,0-.88,0-1.31,0H41Zm0-2h1.29a.85.85,0,0,0,.35-.08.54.54,0,0,0,.36-.58.52.52,0,0,0-.4-.51,1.61,1.61,0,0,0-.44-.06c-.33,0-.67,0-1,0H41Z"/><path class="cls-1" d="M28.77,53.57H28c-.09,0-.11-.06-.14-.12-.11-.27-.23-.54-.33-.81a.21.21,0,0,0-.23-.15h-2.2l-.46,1.06h-.82a.75.75,0,0,1,.07-.18L25.4,50c.15-.33.3-.67.44-1a.17.17,0,0,1,.2-.13h.48a.23.23,0,0,1,.27.17c.29.69.6,1.38.9,2.07s.67,1.53,1,2.29Zm-3.36-1.8h1.75l-.88-2.06Z"/><path class="cls-1" d="M52.52,25.84h2.89v2.53H52.52Z"/><path class="cls-1" d="M27.41,0h.25c0,.13,0,21.54,0,21.75h-.24C27.38,21.62,27.38.2,27.41,0Z"/><path class="cls-1" d="M12.85,52.84v.72H10V48.85h.77c0,.23,0,.45,0,.67v3.33h2Z"/></g></g></g></g></svg>