<?xml version="1.0" encoding="utf-8"?>
<!-- Generator: Adobe Illustrator 23.0.6, SVG Export Plug-In . SVG Version: 6.00 Build 0)  -->
<svg version="1.1" id="Layer_1" xmlns="http://www.w3.org/2000/svg" xmlns:xlink="http://www.w3.org/1999/xlink" x="0px" y="0px"
	 viewBox="0 0 234.99 54.04" style="enable-background:new 0 0 234.99 54.04;" xml:space="preserve">
<style type="text/css">
	.st0{fill:#FFFFFF;}
	.st1{fill:url(#SVGID_1_);}
	.st2{fill:#D1D3D4;}
	.st3{fill:#FFD200;}
	.st4{fill:#231F20;}
	.st5{fill:#E31933;}
</style>
<title>UMD_CMNS_Math_S1_CMYK</title>
<g>
	<g>
		<path class="st0" d="M63.37,14.98c0-1-0.27-1.3-1.22-1.3h-0.32v-0.3l2.26-0.1c0.88,0,1.86,0,2.69,0c4.23,0,6.1,2.15,6.1,4.79
			c0,2.42-1.87,5.31-5.92,5.31h-5.12v-0.34h0.27c0.87,0,1.26-0.24,1.26-1.17V14.98z M64.7,22.15c0,0.66,0,0.88,1.31,0.88
			c2.14,0,3-0.3,4-1.3c0.88-0.94,1.35-2.18,1.33-3.46c0.04-1.27-0.42-2.51-1.28-3.44c-0.74-0.74-1.87-1.3-4.11-1.3
			c-0.66,0-1.09,0-1.28,0.06L64.7,22.15z"/>
		<path class="st0" d="M82.48,19.73h-0.29c-0.13-1.14-0.43-1.26-1.09-1.26h-2.72v3.41c0,0.74,0.27,0.88,0.86,0.88h2.46
			c1.12,0,1.46-0.43,1.86-1.81h0.29l-0.26,2.38h-8.5v-0.29h0.45c1.28,0,1.5-0.35,1.5-1.31v-6.77c0-0.9-0.21-1.28-1.28-1.28h-0.35
			v-0.3h7.68l0.1,2.22H82.9c-0.21-1.36-0.61-1.65-1.18-1.65h-3.34v3.94h2.87c0.58,0,0.85-0.27,0.93-1.2h0.3L82.48,19.73z"/>
		<path class="st0" d="M89.44,21.8c0,0.9,0.27,1.23,1.28,1.23h0.53v0.3h-4.44v-0.29h0.22c0.83,0,1.07-0.18,1.07-0.93v-7.58
			c0-0.59-0.19-0.85-0.75-0.85h-0.8v-0.3l2-0.1c0.78,0,1.55,0,2,0c3.35,0,4.11,1.6,4.11,2.83c0,1.87-1.5,3.06-3.87,3.06
			c-0.45,0-0.91-0.04-1.35-0.13V21.8z M89.44,18.69c0.28,0.07,0.57,0.12,0.86,0.13c1.49,0.11,2.78-1.01,2.88-2.5
			c0.01-0.09,0.01-0.19,0.01-0.28c0-1.25-0.5-2.48-2.63-2.48c-0.37-0.01-0.74,0.01-1.1,0.06L89.44,18.69z"/>
		<path class="st0" d="M99.24,18.92l-0.93,2.51c-0.15,0.32-0.25,0.66-0.32,1c0,0.43,0.42,0.59,1.3,0.59h0.26v0.3h-3.7v-0.28
			c1,0,1.22-0.19,1.73-1.58l2.91-8l-0.14-0.35h1.39l3.35,8.93c0.13,0.68,0.78,1.12,1.46,1v0.3h-4.36v-0.3h0.42
			c0.91,0,1.25-0.1,1.25-0.54c-0.02-0.23-0.08-0.45-0.18-0.66l-1.07-2.91L99.24,18.92z M100.87,14.49l-1.36,3.73h2.77L100.87,14.49z
			"/>
		<path class="st0" d="M119.09,23.54c-1.18,0-2.21-0.21-3.63-2.4c-0.21-0.32-1.1-1.74-1.33-2H112v2.15c0,1.39,0.11,1.76,1.71,1.76
			v0.29h-4.58v-0.3c1.54,0,1.54-0.42,1.54-1.79v-6.43c0-0.8-0.24-1.1-1.55-1.1v-0.29c1.34-0.11,2.71-0.18,4.07-0.18
			c0.92-0.06,1.83,0.11,2.67,0.48c0.95,0.41,1.58,1.33,1.6,2.37c-0.03,1.24-0.89,2.3-2.1,2.59l2,3c0.74,1.12,1.25,1.52,1.78,1.6
			L119.09,23.54z M112,18.85h0.64c0.6,0.03,1.2-0.03,1.78-0.18c1-0.42,1.61-1.43,1.52-2.51c0.05-0.94-0.45-1.83-1.28-2.27
			c-0.85-0.3-1.76-0.41-2.66-0.32L112,18.85z"/>
		<path class="st0" d="M126.52,21.86c0,0.86,0.29,1.17,1.26,1.17h0.59v0.3h-5v-0.29h0.59c1,0,1.26-0.3,1.26-1.17v-7.92h-2.79
			c-0.64,0-0.93,0.37-1.17,1.78h-0.29l0.22-2.59h0.3c0.02,0.09,0.09,0.17,0.18,0.19c0.11,0.02,0.21,0.02,0.32,0h7.7
			c0.22,0,0.46,0,0.5-0.24h0.3l0.26,2.59h-0.29c-0.24-1.41-0.53-1.78-1.17-1.78h-2.79L126.52,21.86z"/>
		<path class="st0" d="M139.63,23.33l-4.08-8.53l0,0l-0.43,7.2c0,0.82,0.56,1,1.28,1v0.3h-3.33v-0.26c1.17,0,1.31-0.26,1.39-1.71
			l0.38-6.23c0.06-1.06,0-1.34-1-1.41V13.4h2.42l3.86,8.07l3.84-8.07h2.35v0.29c-0.78,0.06-1.09,0.08-1.06,0.62l0.51,7.25
			c0.1,1.47,0.22,1.47,1.39,1.47v0.3h-4.11v-0.29c0.75,0,1.49-0.21,1.42-1.06L144,14.81l0,0l-4,8.53L139.63,23.33z"/>
		<path class="st0" d="M157.19,19.73h-0.3c-0.13-1.14-0.43-1.26-1.09-1.26h-2.71v3.41c0,0.74,0.27,0.88,0.86,0.88h2.47
			c1.12,0,1.46-0.43,1.86-1.81h0.29l-0.26,2.38h-8.5v-0.29h0.45c1.28,0,1.5-0.35,1.5-1.31v-6.77c0-0.9-0.21-1.28-1.28-1.28h-0.35
			v-0.3h7.68l0.13,2.22h-0.29c-0.21-1.36-0.61-1.65-1.18-1.65h-3.38v3.94h2.87c0.58,0,0.85-0.27,0.93-1.2h0.3L157.19,19.73z"/>
		<path class="st0" d="M171.84,23.45l-8.29-8.68v6.87c0,1.15,0.26,1.39,1.62,1.39v0.3h-3.71v-0.29h0.06c1,0,1.31-0.34,1.31-1.07
			v-7.93c-0.4-0.27-0.86-0.41-1.34-0.4v-0.3H164l7.54,7.86v-6.33c0-1-0.29-1.15-1.57-1.18v-0.3h3.75v0.3c-1.2,0-1.46,0.21-1.46,0.83
			v8.93H171.84z"/>
		<path class="st0" d="M182.01,21.86c0,0.86,0.29,1.17,1.26,1.17h0.59v0.3h-5v-0.29h0.59c1,0,1.26-0.3,1.26-1.17v-7.92h-2.79
			c-0.64,0-0.93,0.37-1.17,1.78h-0.29l0.26-2.59h0.3c0.02,0.09,0.09,0.17,0.18,0.19c0.11,0.02,0.21,0.02,0.32,0h7.67
			c0.22,0,0.46,0,0.5-0.24h0.3l0.26,2.59h-0.29c-0.24-1.41-0.53-1.78-1.17-1.78H182L182.01,21.86z"/>
		<path class="st0" d="M201.04,23.59c-3.14,0-5.78-2-5.78-5c0-3.19,2.45-5.44,5.86-5.44c3,0,5.62,2.06,5.62,4.95
			c-0.01,3.04-2.48,5.5-5.53,5.49C201.16,23.59,201.1,23.59,201.04,23.59z M200.7,13.54c-2.82,0-3.94,2.63-3.94,4.55
			c0,3,2,5.11,4.61,5.11s3.86-2.3,3.86-4.58C205.19,15.64,203.34,13.54,200.7,13.54L200.7,13.54z"/>
		<path class="st0" d="M216.52,19.51h-0.27c0-0.93-0.37-1.22-1.14-1.22h-3v3.5c0,0.9,0.19,1.23,1.39,1.23v0.3h-3.89v-0.28
			c1-0.06,1.17-0.27,1.17-1.57v-6.28c0-1-0.08-1.49-1.2-1.5v-0.3h7.17v1.89h-0.27c0-0.93-0.34-1.31-1.33-1.31h-3v3.76h3.17
			c0.59,0,0.88-0.34,0.93-1h0.27L216.52,19.51z"/>
		<path class="st0" d="M71.8,44.33l-6.12-12.79l0,0l-0.65,10.8c-0.07,1.22,0.84,1.49,1.92,1.54v0.46h-5v-0.46
			c1.75,0,2-0.38,2.09-2.57l0.58-9.34c0.1-1.58,0-2-1.44-2.11v-0.43h3.62l5.79,12.1l5.76-12.1h3.53v0.43
			c-1.18,0.1-1.63,0.12-1.58,0.94l0.77,10.87c0.14,2.21,0.34,2.21,2.09,2.21v0.46h-6.23v-0.46c1.13,0,2.23-0.31,2.14-1.58
			l-0.7-10.75l0,0l-6,12.79L71.8,44.33z"/>
		<path class="st0" d="M88.79,37.71l-1.39,3.77c-0.22,0.5-0.38,1.02-0.48,1.56c0,0.65,0.62,0.89,1.94,0.89h0.38v0.46H83.7v-0.46
			c1.56,0,1.82-0.29,2.59-2.38l4.37-11.93l-0.21-0.58h2.09l5,13.32c0.19,1.01,1.16,1.69,2.18,1.51v0.46h-6.6v-0.46h0.62
			c1.37,0,1.87-0.14,1.87-0.82c-0.02-0.35-0.11-0.69-0.26-1l-1.61-4.37L88.79,37.71z M91.19,31.04l-2,5.59h4.15L91.19,31.04z"/>
		<path class="st0" d="M107.19,42.13c0,1.3,0.43,1.75,1.9,1.75h0.89v0.46h-7.56v-0.46h0.89c1.46,0,1.9-0.46,1.9-1.75V30.27h-4.18
			c-1,0-1.39,0.55-1.75,2.66h-0.43l0.34-3.89h0.46c0.02,0.14,0.12,0.25,0.26,0.29c0.16,0.05,0.32,0.07,0.48,0.07h11.54
			c0.34,0,0.7-0.07,0.74-0.36h0.52l0.38,3.89h-0.43c-0.36-2.11-0.79-2.66-1.75-2.66h-4.2V42.13z"/>
		<path class="st0" d="M118.81,37.21v4.56c0,1.56,0.31,2.11,1.92,2.11h0.07v0.46h-6v-0.46h0.14c1.42,0,1.9-0.38,1.9-1.75V31.57
			c0-1.25-0.41-1.61-1.73-1.7v-0.46h5.71v0.46c-1.7,0-2,0.46-2,2.3v4.17h9.37v-4.73c0-1.27-0.41-1.75-1.9-1.75h-0.46V29.4H132v0.46
			c-1.44,0-1.82,0.48-1.82,2v10c0,1.7,0.48,2.09,1.92,2.09h0.24v0.46h-6.79v-0.46h0.74c1.56,0,1.9-0.55,1.9-1.8v-4.94H118.81z"/>
		<path class="st0" d="M144.19,38.93h-0.46c-0.19-1.7-0.65-1.9-1.63-1.9h-4.06v5.11c0,1.1,0.41,1.32,1.3,1.32h3.7
			c1.68,0,2.18-0.65,2.79-2.71h0.43l-0.38,3.58h-12.74v-0.46h0.67c1.92,0,2.26-0.53,2.26-2V31.78c0-1.34-0.31-1.92-1.92-1.92h-0.53
			V29.4h11.57l0.19,3.34h-0.43c-0.31-2-0.91-2.47-1.78-2.47h-5.06v5.9h4.3c0.86,0,1.27-0.41,1.39-1.8h0.39V38.93z"/>
		<path class="st0" d="M157.52,44.33l-6.12-12.79l0,0l-0.65,10.8c-0.07,1.22,0.84,1.49,1.92,1.54v0.46h-5v-0.46
			c1.75,0,2-0.38,2.09-2.57l0.58-9.34c0.1-1.58,0-2-1.44-2.11v-0.43h3.62l5.79,12.1l5.76-12.1h3.53v0.43
			c-1.18,0.1-1.63,0.12-1.58,0.94l0.77,10.87c0.14,2.21,0.34,2.21,2.09,2.21v0.46h-6.17v-0.46c1.13,0,2.23-0.31,2.14-1.58
			l-0.7-10.75l0,0l-6,12.79L157.52,44.33z"/>
		<path class="st0" d="M174.52,37.71l-1.39,3.77c-0.22,0.48-0.38,0.99-0.48,1.51c0,0.65,0.62,0.89,1.94,0.89h0.38v0.46h-5.54v-0.46
			c1.56,0,1.82-0.29,2.59-2.38l4.37-11.93l-0.2-0.53h2.09l5,13.32c0.19,1.01,1.16,1.69,2.18,1.51v0.46h-6.6v-0.46h0.62
			c1.37,0,1.87-0.14,1.87-0.82c-0.02-0.35-0.11-0.69-0.26-1l-1.61-4.37L174.52,37.71z M176.96,31.04l-2,5.59h4.15L176.96,31.04z"/>
		<path class="st0" d="M192.9,42.13c0,1.3,0.43,1.75,1.9,1.75h0.89v0.46h-7.56v-0.46h0.89c1.46,0,1.9-0.46,1.9-1.75V30.27h-4.18
			c-1,0-1.39,0.55-1.75,2.66h-0.43l0.38-3.89h0.46c0.02,0.14,0.12,0.25,0.26,0.29c0.16,0.05,0.32,0.07,0.48,0.07h11.54
			c0.34,0,0.7-0.07,0.74-0.36h0.46l0.38,3.89h-0.43c-0.36-2.11-0.79-2.66-1.75-2.66h-4.18L192.9,42.13z"/>
		<path class="st0" d="M206.94,44.33h-5.83v-0.46c1.49-0.07,1.8-0.46,1.8-2.06V31.59c0-1.3-0.46-1.66-1.8-1.73V29.4h5.83v0.46
			c-1.51,0-2,0.34-2,1.94v10.18c0,1.42,0.38,1.9,2,1.9V44.33z"/>
		<path class="st0" d="M222.3,33.34c-0.82-2.29-3.04-3.79-5.47-3.7c-4,0-6.5,2.9-6.5,6.94c0,4.34,3.12,7.54,6.77,7.54
			c2.48,0.06,4.77-1.33,5.86-3.55h0.46c-0.37,1.22-0.89,2.4-1.54,3.5c-1.54-0.22-2.59,0.65-5.42,0.65c-4.87,0-8.38-3.22-8.38-7.66
			c0-4.66,3.6-8,8.62-8c3,0,4.32,1,5.06,1c0.26,0,0.38-0.07,0.43-0.14h0.36l0.22,3.48L222.3,33.34z"/>
		<path class="st0" d="M225.83,40.69c0.38,1.94,2.08,3.34,4.05,3.35c1.61,0,3.31-0.94,3.31-2.83c0-3.46-7.71-4.51-7.71-8.71
			c0-2,1.82-3.48,4.27-3.48c2,0,2.42,0.6,3.26,0.6c0.18,0.01,0.35-0.08,0.43-0.24h0.38l0.41,3h-0.41c-0.58-1.65-2.12-2.78-3.87-2.83
			c-1.58,0-2.69,0.91-2.69,2.26c0,3.41,7.7,4.32,7.7,8.74c0,2.35-2.09,4.1-4.9,4.1c-1.13-0.12-2.25-0.34-3.34-0.65
			c-0.19,0-0.37,0.1-0.48,0.26h-0.41l-0.5-3.65L225.83,40.69z"/>
		
			<radialGradient id="SVGID_1_" cx="35.93" cy="22.45" r="18.95" gradientTransform="matrix(1 0 0 -1 -8.53 49.04)" gradientUnits="userSpaceOnUse">
			<stop  offset="0" style="stop-color:#FFFFFF"/>
			<stop  offset="0.53" style="stop-color:#FDFDFD"/>
			<stop  offset="0.71" style="stop-color:#F6F7F7"/>
			<stop  offset="0.85" style="stop-color:#EBEBEC"/>
			<stop  offset="0.96" style="stop-color:#DADBDC"/>
			<stop  offset="1" style="stop-color:#D1D3D4"/>
		</radialGradient>
		<path class="st1" d="M27.4,45.54c-10.47,0-18.95-8.48-18.95-18.95c0-10.47,8.48-18.95,18.95-18.95c10.47,0,18.95,8.48,18.95,18.95
			c0,0,0,0.01,0,0.01C46.32,37.05,37.85,45.51,27.4,45.54z"/>
		<path class="st2" d="M27.4,45.54c-10.47,0-18.95-8.48-18.95-18.95c0-10.47,8.48-18.95,18.95-18.95c10.47,0,18.95,8.48,18.95,18.95
			c0,0,0,0.01,0,0.01C46.32,37.05,37.85,45.51,27.4,45.54z M27.4,7.89c-10.33,0-18.7,8.37-18.7,18.7s8.37,18.7,18.7,18.7
			s18.7-8.37,18.7-18.7l0,0C46.08,16.27,37.72,7.91,27.4,7.9V7.89z"/>
		<path class="st3" d="M46.19,26.18c0,0.08-0.33,0.36-0.69,0.58l0,0c-0.64,0.32-1.31,0.57-2,0.74c-1.04,0.26-2.09,0.47-3.15,0.62
			c-1.19,0.18-2.52,0.32-4,0.45l0,0c-1.83,0.16-3,0.23-4.44,0.31c-1.44,0.08-3.16,0.1-4.8,0.1c0,0.21,0,0.42,0,0.62
			c0,1.47,0,2.87,0,4.19c0,7.23,0,7.22,0.26,11.62c10.39,0,18.81-8.42,18.82-18.81C46.19,26.6,46.19,26.32,46.19,26.18z"/>
		<path class="st4" d="M27.12,29.61c0,1.47,0,2.87,0,4.19c3,2.86,3,2.86,4.27,4.12c0.36-2.79,0.53-5.6,0.51-8.41
			c0-0.21,0-0.41,0-0.62c-1.91,0.08-3.16,0.1-4.8,0.1C27.12,29.19,27.12,29.4,27.12,29.61z"/>
		<path class="st4" d="M34.03,41.13c-0.75-1.17-1.62-2.24-2.62-3.2c-0.64,4.58-1.78,7.41-3.19,7.47h0.42h0.48
			C31.07,45.16,32.75,43.67,34.03,41.13z"/>
		<path class="st4" d="M36.19,33.45c0,0-1.08,5.65-2.11,7.68c0.5,0.67,0.64,1.54,0.38,2.34c1.98-1.59,3.49-3.69,4.37-6.07
			C38.13,35.97,37.25,34.64,36.19,33.45z"/>
		<path class="st4" d="M30.75,45.12c0.41-0.07,0.39-0.08,1.15-0.25l0.45-0.13c1.39-0.43,1.63-0.65,2.07-1.29
			c-1.17,0.9-2.54,1.5-4,1.74L30.75,45.12z"/>
		<path class="st4" d="M39.12,40.51c2.92-3.45,4.47-7.85,4.37-12.37c0-0.21,0-0.42,0-0.62c-1.04,0.26-2.09,0.47-3.15,0.62
			c0,0.21,0,0.42,0,0.63c0.04,2.95-0.48,5.87-1.54,8.62C39.3,38.35,39.41,39.47,39.12,40.51z"/>
		<path class="st4" d="M36.37,28.58c-1.83,0.16-3,0.23-4.44,0.31c2.58,2.68,3.13,3.31,4.22,4.56c0.16-1.4,0.24-2.81,0.23-4.22
			C36.37,29.04,36.37,28.79,36.37,28.58z"/>
		<path class="st4" d="M23.27,8.74c1.29-0.59,2.67-0.93,4.09-1l0,0C25.96,7.9,24.58,8.23,23.27,8.74"/>
		<g>
			<path class="st5" d="M40.01,28.13c-1-0.13-1.8-1.79-1.37-3.47c-1.38,1-2.93-1-2.7-2.82c0.12-1,0.75-1.81,1.85-1.42
				c-0.43-1.48-0.98-2.93-1.66-4.32c-1,0.12-2,0.23-3.17,0.31c1,1.52,0,2.93-1.38,2.71c-1.16-0.22-1.92-1.33-1.7-2.48
				c0-0.01,0-0.01,0-0.02c-0.79,0.53-1.87,0.32-2.4-0.48c-0.19-0.29-0.29-0.63-0.29-0.97c0,3.83-0.07,8.72-0.06,13.82
				c4.41,0.02,8.82-0.27,13.2-0.85l0,0C40.22,28.15,40.12,28.14,40.01,28.13z"/>
		</g>
		<g>
			<path class="st5" d="M15.24,31.91c1.4-0.54,3.16,1.88,2.54,3.5c-0.21,0.59-0.87,0.9-1.46,0.69c-0.12-0.04-0.23-0.11-0.33-0.19
				c0.39,1.34,0.92,2.63,1.6,3.85c1,0.14,2.1,0.25,3.32,0.35c-1-1.2-0.19-2.19,1.11-2.12c1.12,0.06,2.6,1,2.28,2.26
				c1-0.45,2.71-0.08,2.91,1.23c0-2.82-0.08-7-0.09-11.86c0-0.21,0-0.41,0-0.62c-1.59,0-3.2-0.06-4.8-0.12
				c-2.87-0.08-5.73-0.36-8.56-0.84l0,0C15.19,28.53,15.62,30.71,15.24,31.91z"/>
		</g>
		<path class="st5" d="M36.32,14.57L36.32,14.57l0.52-0.09c1.08-0.2,3.52-0.78,3.52-1.5c0.65,0.69,1.21,1.46,1.66,2.3
			c0.09,0.16,0.16,0.32,0.21,0.49c0.08,0.2,0.12,0.42,0.13,0.64c0,0.41-0.29,0.41-0.56,0.29h-0.09c-0.68-0.36-1.21-0.96-1.47-1.69
			c-0.65,0.25-1.32,0.47-2,0.64l-0.3,0.06c0.85,1.37,1.57,2.82,2.15,4.33c0.95-1,2.43,0.83,2.5,2.58c0,1-0.42,1.94-1.36,1.61
			c0.75,1.39,0.51,3.43-0.91,3.87c-0.08-4.8-1.46-9.49-4-13.56l0,0"/>
		<path class="st5" d="M36.3,14.58L36.3,14.58c-2.4-3.66-4.29-5-6.72-6c-0.48-0.19-2.13-0.84-2.22-0.86l0,0l0,0
			c0.38,0.48,0.89,0.85,1.47,1.06c-0.05,0.23,0,0.68,0.78,1.26c0.11,0.08,0.23,0.16,0.36,0.22c1.22,0.64,1.49,0.14,1.55-0.06l0,0
			c0.71,0.54,1.36,1.16,1.94,1.84c0.46,0.56,0.9,1,1.23,1.53c-0.76,0.1-1.76,0.18-2.75,0.26c-0.04-0.9-0.62-1.69-1.47-2
			c-1.19-0.44-1.58,1-1.07,1.95c-0.94-0.51-2.06-0.06-2.22,1.44c3.05,0.02,6.1-0.17,9.12-0.59l0,0"/>
		<path class="st5" d="M36.54,11.17c-0.01-0.04-0.01-0.09,0-0.13c0.01-0.03,0.03-0.06,0.05-0.09c0.02-0.04,0.05-0.07,0.09-0.09
			c0.19-0.11,0.76-0.17,2.34,0.92c-2.81-2.22-6.2-3.58-9.76-3.92c-0.42,0-1.2-0.08-1.2-0.08c0.6,0.05,1.19,0.18,1.75,0.39
			c0.1,0.04,0.2,0.09,0.28,0.16l0,0c0.23,0.03,0.45,0.07,0.67,0.14c0.41,0.13,0.82,0.28,1.21,0.47c0.43,0.2,1.08,0.66,1.08,0.92
			c-0.1,0.06-0.13,0.08-0.42,0c1.33,1,2.55,2.14,3.65,3.39c0.65-0.12,1.62-0.26,2.06-0.41C37.65,12.39,37.04,11.83,36.54,11.17z"/>
		<path class="st5" d="M17.4,40.8c-1.1-0.13-2.18-0.42-3.21-0.85c-0.05-0.03-0.1-0.05-0.16-0.06c-0.61-0.63-1.18-1.3-1.71-2
			c-0.4-0.54-0.78-1.1-1.12-1.68c0.07,0,0.14,0,0.21,0c0.85,0.28,2.17,2.59,2.18,2.61c0.65,0.23,1.32,0.41,2,0.54
			c-0.8-1.21-1.44-2.53-1.92-3.9c-1.17,0.59-2.67-2.51-2.2-3.82c0.1-0.27,0.41-0.82,1.2-0.22c-0.6-1.38-0.44-3.46,1-3.45
			c0,4.58,0.66,8.52,3.64,12.76"/>
		<path class="st5" d="M27.19,41.73c-0.16,0.65-1.08,1.28-2.37,0.75c0.6,0.8,0.08,1.49-1,1.29c-0.83-0.15-1.81-0.82-1.89-1.48
			c-1-0.08-2-0.18-2.79-0.29c0.74,0.88,1.63,1.63,2.62,2.22c0.11,0,0.29,0,0.85,0.16c0.72,0.25,1.41,0.59,2.13,0.85h-0.15
			c-0.55-0.08-0.68-0.11-1-0.17c-1.39-0.27-3.8-1.06-6.23-4.24l0,0c3.25,0.48,6.53,0.7,9.82,0.67c0,0.09,0,0.17,0,0.26"/>
		<path class="st3" d="M27.36,7.76C17.14,7.83,8.82,16.01,8.58,26.23l0,0c0,0,0.1,0.22,0.5,0.47l0,0c0.55,0.32,1.14,0.56,1.76,0.71
			c1,0.25,2,0.45,2.9,0.61l0,0c2.83,0.47,5.7,0.74,8.57,0.82c1.6,0.07,3.21,0.13,4.8,0.12c0-1,0-6.43,0-11.71c0-0.68,0-1.39,0-2.11
			c0-3.44,0.11-6.94,0.18-7.4L27.36,7.76z"/>
		<path class="st4" d="M36.38,43.14c-0.87,0.47-1.77,0.87-2.7,1.2c-0.39,0.15-0.78,0.28-1.18,0.38c2.54-0.68,6-3.53,6.62-4.22
			c-0.26,0.69-0.71,1.29-1.29,1.74C37.62,42.41,36.73,42.95,36.38,43.14z"/>
		<path class="st4" d="M10.84,27.43c-0.62-0.14-1.21-0.38-1.76-0.71c0.23-6.65,3.81-12.74,9.51-16.17
			c-1.14,0.89-2.01,2.07-2.54,3.41C12.81,17.72,10.97,22.47,10.84,27.43"/>
		<path class="st4" d="M18.61,10.54c1.25-1.09,2.75-1.86,4.36-2.25c1.44-0.36,2.92-0.53,4.4-0.53l0,0
			C24.26,7.94,21.25,8.9,18.61,10.54"/>
		<path class="st4" d="M17.6,28.56c-1.38-0.13-2.68-0.32-3.85-0.52c0.05-3.29,0.73-6.54,2-9.58c0.43,1.84,1.19,3.6,2.23,5.18
			c-0.25,1.63-0.38,3.27-0.41,4.92"/>
		<path class="st4" d="M27.19,15.17c0,2.07,0,4.2,0,5.85s0,2.81,0,3c-1.48-1.51-2.89-3.09-4.2-4.75c0.91-5.85,2.55-10.48,4.43-11.54
			l0,0C27.3,8.32,27.19,11.64,27.19,15.17z"/>
		<path class="st4" d="M20.58,14.94c-1.26,2.76-2.12,5.69-2.55,8.69c1.22,1.86,2.62,3.61,4.16,5.22c0.02-3.2,0.28-6.4,0.76-9.57
			C21.9,17.99,21.1,16.52,20.58,14.94z"/>
		<path class="st4" d="M45.5,26.77c0,0.21,0,0.42,0,0.62c0.15,6.2-3.02,12.02-8.31,15.26l-0.13,0.1c5.8-3.49,9.28-9.81,9.13-16.57
			C46,26.42,45.77,26.62,45.5,26.77z"/>
		<path class="st4" d="M23.27,8.74c-2.79,1.14-5.27,2.93-7.22,5.22c-0.5,1.45-0.6,3-0.27,4.5c1.12-2.71,2.81-5.15,4.94-7.17
			C21.25,10.17,22.15,9.27,23.27,8.74z"/>
		<path class="st4" d="M20.57,14.96c-0.38-1.2-0.33-2.5,0.15-3.66c1.82-1.8,4.13-3.03,6.64-3.53C24.72,8.48,22.36,11.25,20.57,14.96
			"/>
		<path class="st0" d="M6.46,14.3l-1.54-0.77c-0.35-0.17-0.41-0.36-0.24-0.71l0,0l-0.21-0.1l-0.72,1.44l0.21,0.1l0,0
			c0.16-0.28,0.25-0.37,0.4-0.37c0.17,0.02,0.33,0.07,0.48,0.16l1.33,0.66c0.63,0.24,0.95,0.95,0.71,1.59
			c-0.04,0.09-0.08,0.18-0.14,0.26c-0.18,0.48-0.63,0.81-1.14,0.84c-0.23-0.01-0.46-0.07-0.67-0.18l-1.59-0.79
			c-0.28-0.14-0.32-0.27-0.17-0.59v-0.1l-0.21-0.1l-0.78,1.57l0.21,0.1l0,0c0.13-0.26,0.21-0.34,0.33-0.34
			c0.1,0.01,0.19,0.04,0.27,0.09l1.67,0.83c0.24,0.12,0.5,0.19,0.76,0.19c0.7-0.04,1.32-0.49,1.57-1.15
			c0.61-0.7,0.54-1.77-0.16-2.38C6.72,14.45,6.59,14.37,6.46,14.3z"/>
		<path class="st0" d="M8.43,8.22c0-0.09,0.06-0.21,0.24-0.42l0,0L8.49,7.65l-1,1.23l0.17,0.15l0,0C7.87,8.8,7.97,8.72,8.07,8.72
			c0.1,0.02,0.2,0.06,0.27,0.14l1.85,1.47L5.97,10.6l-0.7,0.82l0.18,0.15l0,0c0.11-0.13,0.26-0.23,0.42-0.28l2.38,2
			c0.18,0.15,0.24,0.3,0,0.6L8.2,13.95l0.18,0.15l1-1.22L9.2,12.73l0,0c-0.2,0.23-0.31,0.32-0.42,0.32l0,0
			c-0.09,0-0.19-0.05-0.35-0.19l-2-1.68l4.76-0.28l0.16-0.19L8.58,8.38C8.51,8.35,8.45,8.29,8.43,8.22z"/>
		<path class="st0" d="M13.34,8.66c-0.09,0.1-0.22,0.16-0.35,0.18c-0.09,0-0.18-0.06-0.31-0.22l-1.73-2.08
			c-0.25-0.31-0.21-0.43,0.08-0.67l0,0l-0.15-0.18L9.6,6.75l0.15,0.18l0,0c0.09-0.08,0.19-0.13,0.31-0.14
			c0.09,0,0.17,0.06,0.28,0.18l1.85,2.07c0.26,0.31,0.26,0.41,0,0.65l0,0l0.15,0.18l1.28-1.06l-0.15-0.18L13.34,8.66z"/>
		<path class="st0" d="M15.81,2.81L15.81,2.81l-0.12-0.2l-1.37,0.8l0.11,0.2l0,0c0.13-0.09,0.28-0.15,0.43-0.17
			c0.06,0,0.12,0.03,0.14,0.09c0.05,0.12,0.09,0.25,0.1,0.38l0.44,2.65l-2.33-1.8c-0.09-0.07-0.13-0.13-0.13-0.18
			s0.14-0.24,0.42-0.41l0,0l-0.12-0.2l-1.61,0.94l0.12,0.2l0,0c0.09-0.06,0.2-0.1,0.31-0.11c0.12,0,0.23,0.07,0.42,0.23l3,2.3
			l0.34-0.2l-0.59-3.64C15.48,3.15,15.55,2.96,15.81,2.81z"/>
		<path class="st0" d="M21.01,3.86L21.01,3.86c0,0.58-0.05,0.74-0.43,0.87l-0.93,0.32h-0.17c-0.08,0-0.14,0-0.2-0.22L18.85,3.6
			l1-0.33c0.06-0.01,0.12-0.01,0.18,0c0.1,0,0.19,0.06,0.33,0.35l0,0l0.21-0.07L20.14,2.3l-0.21,0.07l0,0
			c0.09,0.35,0,0.45-0.16,0.51l-1,0.35l-0.48-1.38l1.22-0.42h0.13c0.1,0,0.25,0.05,0.47,0.47l0,0l0.21-0.07l-0.38-0.79l-3,1
			l0.08,0.22l0.17-0.04c0.08-0.03,0.17-0.05,0.26-0.05c0.15,0,0.23,0.08,0.32,0.34l0.89,2.53c0.06,0.19,0.07,0.29,0,0.37
			s-0.17,0.17-0.4,0.25l-0.22,0.08l0.08,0.22l3.31-1.14l-0.24-1L21.01,3.86z"/>
		<path class="st0" d="M27.19,3.81c-0.48,0.01-0.94-0.16-1.29-0.48l-0.56-0.44c-0.23-0.19-0.47-0.36-0.72-0.52
			c0.44-0.2,0.71-0.66,0.66-1.14c-0.09-0.74-0.8-1.1-1.9-1c-0.41,0-0.54,0.07-0.8,0.11h-0.26l-0.53,0.09h-0.05v0.23h0.2h0.13
			c0.2,0,0.3,0.06,0.34,0.41l0.32,2.67c0,0.4-0.06,0.48-0.4,0.53h-0.16V4.5l1.91-0.23V4.04h-0.2h-0.15c-0.2,0-0.32-0.06-0.35-0.38
			l-0.12-1h0.27l0.41-0.06l0,0c0.24,0.14,0.47,0.29,0.69,0.47l0.47,0.37c0.53,0.57,1.34,0.8,2.09,0.6l0,0V3.81L27.19,3.81z
			 M24.55,1.35c0.05,0.26-0.01,0.54-0.16,0.76c-0.22,0.23-0.51,0.37-0.83,0.38h-0.08h-0.25l-0.24-2h0.26
			C24.05,0.4,24.47,0.67,24.55,1.35z"/>
		<path class="st0" d="M29.54,1.78c-0.44-0.32-0.85-0.63-0.82-1s0.31-0.52,0.7-0.49c0.44,0.05,0.81,0.36,0.92,0.79l0,0h0.21
			L30.5,0.15h-0.18l0,0c0,0,0,0-0.06,0l0,0c-0.08-0.01-0.15-0.03-0.22-0.07c-0.22-0.06-0.44-0.07-0.66-0.04
			c-0.59-0.11-1.15,0.27-1.26,0.86c0,0.01,0,0.02-0.01,0.03c0,0.61,0.49,1,1,1.41s0.88,0.65,0.85,1.06
			c-0.06,0.41-0.44,0.69-0.85,0.64c-0.01,0-0.02,0-0.03-0.01c-0.51-0.06-0.89-0.48-0.89-0.99l0,0h-0.23l0.01,1h0.22l0,0
			c0.03-0.01,0.06-0.01,0.09,0l0,0l0.18,0.06c0.22,0.09,0.45,0.15,0.69,0.18h0.14c0.63,0.06,1.2-0.38,1.3-1
			C30.63,2.58,30.05,2.16,29.54,1.78z"/>
		<path class="st0" d="M32.19,0.68L32.19,0.68c0.33,0.09,0.4,0.19,0.33,0.49l-0.58,2.66c-0.08,0.35-0.15,0.41-0.33,0.41h-0.19h-0.05
			v0.23l1.62,0.35l0.05-0.23h-0.05c-0.2,0-0.32-0.1-0.37-0.18c-0.05-0.12-0.05-0.24,0-0.36l0.57-2.67C33.26,1.06,33.36,1,33.53,1
			h0.24h0.05V0.77l-1.53-0.31L32.19,0.68z"/>
		<path class="st0" d="M38.82,2.47L38.82,2.47h-0.11l-2.9-1.13l-0.1-0.06l0,0l0,0l-0.2-0.08l-0.53,1l0.21,0.08l0,0
			c0.21-0.36,0.35-0.49,0.5-0.49h0.13l1,0.39l-1.14,2.88c-0.09,0.23-0.19,0.28-0.29,0.28c-0.09-0.01-0.19-0.03-0.27-0.07l-0.27-0.1
			l-0.09,0.21l2,0.78l0.08-0.22l-0.27-0.11c-0.18-0.07-0.27-0.14-0.31-0.22c-0.04-0.11-0.04-0.22,0-0.33l1.16-2.94l1,0.39
			c0.19,0.08,0.26,0.21,0.14,0.77l0,0l0.21,0.08l0.32-1.11l-0.2-0.08L38.82,2.47z"/>
		<path class="st0" d="M42.63,5.04L42.63,5.04c0.17,0.11,0.25,0.2,0.25,0.27s-0.08,0.13-0.22,0.2L41.19,6.3V4.51
			c0-0.27,0.06-0.27,0.09-0.27c0.12,0.03,0.23,0.08,0.33,0.16l0,0l0.13-0.19l-1.5-1L40.11,3.4l0,0c0.31,0.22,0.39,0.35,0.37,0.93
			v2.09l-0.49,0.73c-0.18,0.27-0.32,0.28-0.6,0.08l-0.15-0.1l-0.12,0.19l1.55,1l0.13-0.19l-0.11-0.08c-0.15-0.1-0.23-0.19-0.25-0.28
			c-0.01-0.11,0.03-0.22,0.1-0.31l0.52-0.78l1.87-0.9c0.13-0.07,0.28-0.11,0.43-0.12c0.16,0.01,0.32,0.05,0.46,0.14l0,0l0.13-0.19
			l-1.29-0.86L42.63,5.04z"/>
		<path class="st0" d="M48.79,10.56c-0.44-0.61-1.14-0.98-1.89-1c-1.17,0-2.12,0.95-2.12,2.12c0,0.55,0.21,1.08,0.59,1.47
			c0.44,0.56,1.11,0.88,1.82,0.89l0,0c0.49,0,0.96-0.17,1.35-0.47C49.43,12.8,49.54,11.46,48.79,10.56z M48.79,11.83
			c-0.09,0.55-0.4,1.03-0.85,1.35c-0.34,0.28-0.77,0.44-1.21,0.45c-0.43-0.01-0.83-0.23-1.07-0.59c-0.57-0.85-0.35-2,0.5-2.57
			c0.01-0.01,0.02-0.01,0.03-0.02c0.34-0.27,0.76-0.42,1.2-0.43c0.44-0.01,0.86,0.2,1.12,0.56c0.26,0.36,0.37,0.81,0.3,1.25H48.79z"
			/>
		<path class="st0" d="M50.92,13.95l-0.21,0.1v0.05c0.17,0.36,0.06,0.44-0.31,0.62l-2.21,1.08c-0.13,0.07-0.27,0.12-0.41,0.14
			c-0.1,0-0.17-0.06-0.29-0.27l0,0l-0.21,0.1l0.71,1.5l0.21-0.1l-0.01-0.13c-0.08-0.12-0.12-0.27-0.1-0.42
			c0-0.08,0.1-0.14,0.27-0.22l1.21-0.58l0.49,1c0.11,0.23,0.11,0.38-0.22,0.55l0,0l0.09,0.2l1.11-0.53l-0.09-0.19l0,0
			c-0.23,0.09-0.37,0.05-0.46-0.13l-0.52-1.09l1.26-0.6l0.5,1c0.15,0.32,0.09,0.47-0.22,0.63l0,0l0.09,0.2l0.78-0.37L50.92,13.95z"
			/>
		<path class="st0" d="M5.19,42.56l2.3-4.24l0,0l-3.1,2c-0.35,0.22-0.24,0.53,0,0.84l-0.13,0.09l-1.07-1.41l0.13-0.09
			c0.35,0.48,0.5,0.46,1.12,0.06l2.69-1.7c0.46-0.29,0.56-0.39,0.29-0.82l0.12-0.09l0.72,1l-2.17,4l4.48-0.83l0.7,1l-0.12,0.09
			c-0.26-0.31-0.36-0.43-0.58-0.25l-2.84,2.38c-0.58,0.48-0.54,0.53-0.19,1l-0.13,0.09l-1.22-1.71l0.13-0.09
			c0.22,0.31,0.53,0.55,0.86,0.27L10,41.81l0,0l-4.72,0.91L5.19,42.56z"/>
		<path class="st0" d="M13.24,46.98l-1.14-0.84l1.69-1.1L13.24,46.98z M13.14,47.35l-0.44,1.52c-0.02,0.11-0.06,0.22-0.12,0.32
			c-0.14,0.19-0.3,0.12-0.68-0.15l-0.17-0.13l-0.09,0.12l1.81,1.33l0.09-0.13c-0.31-0.16-0.44-0.54-0.29-0.85l1.31-4.66l-0.57-0.42
			v0.19l-3.6,2.39c-0.63,0.42-0.76,0.44-1.19,0.13l-0.09,0.13l1.52,1.11l0.09-0.12l-0.16-0.09c-0.36-0.26-0.48-0.46-0.35-0.63
			c0.13-0.12,0.28-0.23,0.44-0.32l1.14-0.75L13.14,47.35z"/>
		<path class="st0" d="M18.38,47.23l0.39,0.12c1.18,0.42,1.31,1.09,1.06,1.81c-0.18,0.68-0.89,1.09-1.57,0.9
			c-0.11-0.03-0.21-0.07-0.3-0.12c-0.16-0.05-0.32-0.11-0.47-0.18L18.38,47.23z M17.43,49.9l0.39,0.15l0.53,0.17
			c0.21,0.32,0.4,0.65,0.55,1l0.33,0.69c0.31,0.92,1.09,1.6,2.05,1.76v-0.14c-0.56-0.26-1.01-0.73-1.24-1.31l-0.39-0.82
			c-0.17-0.38-0.37-0.75-0.59-1.11c0.63,0.07,1.23-0.29,1.46-0.88c0.28-0.79-0.15-1.6-1.58-2.1c-0.5-0.18-0.66-0.22-1-0.32
			s-0.8-0.23-1-0.3l-0.05,0.15l0.17,0.06c0.45,0.16,0.53,0.34,0.36,0.82l-1.15,3.24c-0.18,0.51-0.39,0.58-0.84,0.42H15.3l-0.05,0.15
			l2.18,0.77l0.05-0.15l-0.1-0.11c-0.43-0.15-0.57-0.33-0.41-0.8L17.43,49.9z"/>
		<path class="st0" d="M26.69,49.73c0.3-0.43,0.16-0.58-0.36-0.62v-0.15l1.84,0.16v0.15c-0.43-0.04-0.85,0.18-1.07,0.56l-1.55,2.21
			l-0.1,1.22c0,0.43,0.1,0.62,0.6,0.66h0.14v0.12l-2.24-0.19V53.7h0.15c0.51,0,0.67-0.13,0.7-0.53l0.1-1.15l-1.29-2.38
			c-0.34-0.66-0.52-0.79-1.05-0.85v-0.15l2.16,0.19v0.15c-0.63-0.06-0.69,0.1-0.47,0.49l1.13,2.12L26.69,49.73z"/>
		<path class="st0" d="M33.47,53.39L29.87,54v-0.15h0.26c0.37-0.06,0.49-0.21,0.42-0.62l-0.6-3.57c-0.07-0.43-0.23-0.58-0.74-0.5
			H29.1v-0.15l2.37-0.4v0.15l-0.3,0.05c-0.52,0.09-0.65,0.17-0.57,0.67l0.59,3.69c0,0.21,0.14,0.28,0.37,0.24l1.18-0.2
			c0.47-0.08,0.59-0.29,1-1.08h0.15L33.47,53.39z"/>
		<path class="st0" d="M37.37,49.32l-1.3,0.54l-0.09-2L37.37,49.32z M37.64,49.6l1.08,1.16c0.09,0.08,0.16,0.17,0.21,0.28
			c0.09,0.21-0.05,0.32-0.48,0.5l-0.2,0.08l0.06,0.14l2.07-0.86l-0.06-0.14c-0.3,0.19-0.69,0.1-0.88-0.19l-3.32-3.53l-0.66,0.27
			l0.14,0.14l0.19,4.31c0,0.76,0,0.87-0.5,1.09l0.06,0.14l1.74-0.73l-0.06-0.14l-0.12,0.05c-0.41,0.17-0.64,0.18-0.73,0
			c-0.02-0.18-0.02-0.36,0-0.54l-0.06-1.37L37.64,49.6z"/>
		<path class="st0" d="M46.47,46.43l-6.08-0.72l2.23,2.7c0.37,0.45,0.55,0.46,1.09,0l0.1,0.12l-1.46,1.21l-0.1-0.12l0,0
			c0.39-0.32,0.41-0.56,0.17-0.85l-2.53-3.09c-0.24,0.02-0.47,0.12-0.66,0.28l-0.1-0.12l1-0.82l5.52,0.64l-2.07-2.51
			c-0.32-0.38-0.49-0.36-1,0l-0.1-0.12l1.47-1.22l0.1,0.12c-0.47,0.39-0.5,0.56-0.3,0.8l2.9,3.51L46.47,46.43z"/>
		<path class="st0" d="M45.27,40.15c0-0.09,0.15-0.28,0.33-0.57c0.34-0.68,0.96-1.19,1.69-1.4c0.64-0.11,1.3,0.03,1.83,0.4
			c0.54,0.35,0.92,0.9,1.07,1.53c0.15,0.75-0.06,1.52-0.56,2.09c-0.35,0.54-0.46,0.5-0.74,0.32L45.27,40.15z M48.44,43.04
			c0.4,0.26,0.39,0.49,0.15,0.86l-0.08,0.12l0.13,0.08l1.42-2.19c0.94-1.22,0.71-2.97-0.52-3.91c-0.04-0.03-0.08-0.06-0.12-0.09
			c-1.13-0.73-2.57-0.52-3.74,1.29c-0.23,0.36-0.49,0.78-0.72,1.17l-0.58,1l0.13,0.08l0.09-0.14c0.26-0.4,0.45-0.45,0.89-0.16
			L48.44,43.04z"/>
		<path class="st0" d="M1.19,25.21v3.5c0,0.18,0,0.23,0.22,0.23h0.34v0.1h-1.5v-0.1h0.33c0.19,0,0.23-0.06,0.23-0.24v-3
			c-0.23,0.2-0.48,0.36-0.75,0.5v-0.08c0.37-0.25,0.71-0.55,1-0.89L1.19,25.21z"/>
		<path class="st0" d="M4.69,28.19c0.02,0.44-0.33,0.81-0.77,0.83c-0.01,0-0.02,0-0.03,0c-0.45-0.01-0.81-0.38-0.8-0.84
			c0-0.02,0-0.04,0-0.05c0-0.4,0.25-0.77,0.62-0.92C4.41,27.54,4.69,27.79,4.69,28.19z M4.96,26.04c-0.07-0.54-0.55-0.92-1.09-0.87
			c-0.58-0.02-1.06,0.42-1.09,1c0,0.41,0.26,0.72,0.82,1c-0.59,0.24-0.88,0.57-0.88,1c0.04,0.59,0.56,1.04,1.15,1
			c0.01,0,0.01,0,0.02,0c0.62,0.03,1.16-0.45,1.19-1.07c0-0.02,0-0.04,0-0.06c0-0.46-0.27-0.78-0.91-1.07
			C4.7,26.75,4.96,26.47,4.96,26.04z M4.6,26.04c-0.01,0.34-0.2,0.66-0.5,0.83c-0.78-0.33-1-0.57-1-0.9
			c0.01-0.39,0.33-0.69,0.72-0.68c0.01,0,0.01,0,0.02,0c0.4-0.02,0.73,0.29,0.75,0.69c0,0.02,0,0.04,0,0.06H4.6z"/>
		<path class="st0" d="M49.76,25.64h1.43c0.11,0,0.14,0,0.18-0.08h0.11l-0.07,0.47h-1.52v1.08c0.2-0.1,0.42-0.16,0.65-0.15
			c0.68,0.01,1.23,0.56,1.24,1.24c-0.02,0.73-0.63,1.31-1.37,1.29c-0.01,0-0.03,0-0.04,0c-0.48,0-0.88-0.17-0.88-0.38
			c0-0.1,0.08-0.19,0.19-0.19c0,0,0.01,0,0.01,0c0.33,0,0.44,0.42,0.82,0.42c0.49-0.08,0.84-0.51,0.83-1c0.05-0.5-0.32-0.95-0.82-1
			c-0.03,0-0.06,0-0.08,0c-0.23,0-0.46,0.09-0.64,0.24h-0.06L49.76,25.64z"/>
		<path class="st0" d="M54.35,28.33c0,0.68-0.29,1.06-0.71,1.06s-0.82-0.35-0.82-1.35c-0.01-0.12-0.01-0.25,0-0.37
			c0.22-0.21,0.5-0.33,0.8-0.36C54.05,27.31,54.35,27.68,54.35,28.33z M54.35,25.57c-1.14,0.22-1.97,1.2-2,2.36
			c0,0.93,0.52,1.57,1.26,1.57c0.66-0.02,1.18-0.56,1.17-1.22c0.01-0.6-0.47-1.1-1.07-1.11c0,0,0,0,0,0
			c-0.32,0.01-0.63,0.13-0.86,0.35c0.12-0.87,0.73-1.59,1.57-1.86L54.35,25.57z"/>
	</g>
</g>
</svg>
