<?xml version="1.0" encoding="utf-8"?>
<!-- Generator: Adobe Illustrator 23.0.6, SVG Export Plug-In . SVG Version: 6.00 Build 0)  -->
<svg version="1.1" id="Layer_1" xmlns="http://www.w3.org/2000/svg" xmlns:xlink="http://www.w3.org/1999/xlink" x="0px" y="0px"
	 viewBox="0 0 313.5 63.25" style="enable-background:new 0 0 313.5 63.25;" xml:space="preserve">
<style type="text/css">
	.st0{fill:#FFFFFF;}
	.st1{fill:url(#SVGID_1_);}
	.st2{fill:#CCCCCC;}
	.st3{fill:#FFD520;}
	.st4{fill:#E03A3E;}
</style>
<g>
	<g>
		<g>
			<g>
				<g>
					<path class="st0" d="M69.3,50.1c0.34,1.42,1.46,2.26,2.71,2.26c1.07,0,2.21-0.62,2.21-1.89c0-2.3-5.14-3.01-5.14-5.81
						c0-1.33,1.22-2.32,2.85-2.32c1.34,0,1.62,0.4,2.18,0.4c0.13,0,0.19-0.03,0.29-0.16h0.26l0.27,2.03h-0.27
						c-0.45-1.15-1.47-1.89-2.58-1.89c-1.06,0-1.79,0.61-1.79,1.5c0,2.27,5.14,2.88,5.14,5.83c0,1.57-1.39,2.74-3.27,2.74
						c-0.88,0-2-0.43-2.22-0.43c-0.14,0-0.26,0.08-0.32,0.18h-0.27L69,50.1H69.3z"/>
					<path class="st0" d="M68.08,36.05v0.29h7.91v-0.28h-0.38c-1.54,0-3.12-0.18-3.12-1.53c0-0.44,0.29-1.2,0.55-1.87l0.02-0.06
						c0.06-0.15,0.11-0.28,0.16-0.41l2.14-5.78h7.73l0.01,0.03l2.5,6.78c0.15,0.37,0.36,0.87,0.36,1.42c0,1.21-0.97,1.42-3.01,1.42
						h-0.74v0.28h9.5v-0.29c-1.64-0.03-2.51-0.39-3.26-2.4L80.98,13.8h-2.7l0.24,0.59l-0.03,0.07l-6.55,17.89
						C70.78,35.53,70.31,35.99,68.08,36.05z M75.93,24.95l3.25-8.89l0.05,0.13l3.41,9.03h-6.8L75.93,24.95z"/>
					<path class="st0" d="M96.45,35.7c0,0.72-0.55,1.13-1.22,1.13c-0.7,0-1.22-0.46-1.22-1.13c0-0.67,0.53-1.13,1.22-1.13
						C95.9,34.57,96.45,35,96.45,35.7z"/>
					<path class="st0" d="M115.24,14.64v-0.29h-8.71v0.28h0.2c2.75,0,3.12,0.82,3.12,4.09v11.22c0,3.7-1.03,5.49-3.15,5.49
						c-0.86,0-1.56-0.5-2.17-0.95c-0.52-0.38-1.02-0.74-1.54-0.74c-0.59,0-1.09,0.57-1.09,1.24c0,0.99,1.41,1.74,3.29,1.74
						c4.34,0,7.25-4.78,7.25-11.89v-7.37C112.43,15.41,113.09,14.74,115.24,14.64z"/>
					<path class="st0" d="M117.22,29.91l-1.39,3.77c-0.17,0.46-0.48,1.18-0.48,1.51c0,0.65,0.62,0.89,1.94,0.89h0.38v0.46h-5.54
						v-0.46c1.56-0.02,1.82-0.29,2.59-2.38l4.37-11.93l-0.21-0.53h2.09l5.02,13.32c0.48,1.27,0.98,1.51,2.18,1.51v0.46h-6.6v-0.46
						h0.62c1.37,0,1.87-0.14,1.87-0.82c0-0.38-0.17-0.74-0.26-0.98l-1.61-4.37h-4.97V29.91z M119.67,23.26l-2.04,5.59h4.15
						L119.67,23.26z"/>
					<path class="st0" d="M138.49,36.54l-6.12-12.79h-0.05l-0.65,10.8c-0.07,1.22,0.84,1.49,1.92,1.54v0.46h-4.99v-0.46
						c1.75,0,1.97-0.38,2.09-2.57l0.58-9.34c0.1-1.58,0.05-2.02-1.44-2.11v-0.43h3.62l5.79,12.1l5.76-12.1h3.53v0.43
						c-1.18,0.1-1.63,0.12-1.58,0.94l0.77,10.87c0.14,2.21,0.34,2.21,2.09,2.21v0.46h-6.17v-0.46c1.13,0,2.23-0.31,2.14-1.58
						l-0.7-10.75h-0.05l-5.98,12.79L138.49,36.54L138.49,36.54z"/>
					<path class="st0" d="M161.43,31.14h-0.46c-0.19-1.7-0.65-1.9-1.63-1.9h-4.06v5.11c0,1.1,0.41,1.32,1.3,1.32h3.7
						c1.68,0,2.18-0.65,2.79-2.71h0.43l-0.38,3.58h-12.74v-0.46h0.67c1.92,0,2.26-0.53,2.26-1.97V23.98c0-1.34-0.31-1.92-1.92-1.92
						h-0.53V21.6h11.52l0.19,3.34h-0.43c-0.31-2.04-0.91-2.47-1.78-2.47h-5.06v5.9h4.3c0.86,0,1.27-0.41,1.39-1.8h0.46v4.57H161.43z
						"/>
					<path class="st0" d="M166.06,32.89c0.5,2.14,2.18,3.38,4.06,3.38c1.61,0,3.31-0.94,3.31-2.83c0-3.46-7.71-4.51-7.71-8.71
						c0-1.99,1.82-3.48,4.27-3.48c2.02,0,2.42,0.6,3.26,0.6c0.19,0,0.29-0.05,0.43-0.24h0.38l0.41,3.05h-0.41
						c-0.67-1.73-2.21-2.83-3.87-2.83c-1.58,0-2.69,0.91-2.69,2.26c0,3.41,7.71,4.32,7.71,8.74c0,2.35-2.09,4.1-4.9,4.1
						c-1.32,0-3-0.65-3.34-0.65c-0.22,0-0.38,0.12-0.48,0.26h-0.41l-0.5-3.65C165.58,32.89,166.06,32.89,166.06,32.89z"/>
					<path class="st0" d="M205.45,35.92c0.79-1.31,1.66-3.29,2.14-4.84h-0.3c-2.02,3.54-5.02,5.33-8.9,5.33
						c-5.8,0-10.35-5.05-10.35-11.5c0-6.34,4-10.6,9.96-10.6c3.88,0,7.07,2.12,8.35,5.54h0.33l-0.3-4.82h-0.26
						c-0.15,0.14-0.4,0.22-0.74,0.22c-0.4,0-0.87-0.16-1.51-0.38c-1.23-0.42-3.09-1.06-6.08-1.06c-7.37,0-12.72,4.97-12.72,11.82
						c0,6.54,5.2,11.28,12.36,11.28c2.18,0,3.67-0.35,4.88-0.63c0.9-0.21,1.67-0.39,2.51-0.39
						C205.03,35.89,205.24,35.9,205.45,35.92z"/>
					<path class="st0" d="M220.43,36.54H209.7v-0.46h0.79c1.1,0,1.51-0.36,1.51-1.58V23.86c0-1.27-0.38-1.8-1.9-1.8h-0.34V21.6h7.08
						v0.46h-0.89c-1.56,0-1.97,0.17-1.97,1.66v11.07c0,0.65,0.26,0.89,0.96,0.89h3.53c1.42,0,1.85-0.55,3.36-2.64h0.43L220.43,36.54
						z"/>
					<path class="st0" d="M226.7,29.91l-1.39,3.77c-0.17,0.46-0.48,1.18-0.48,1.51c0,0.65,0.62,0.89,1.94,0.89h0.38v0.46h-5.54
						v-0.46c1.56-0.02,1.82-0.29,2.59-2.38l4.37-11.93l-0.21-0.53h2.09l5.02,13.32c0.48,1.27,0.98,1.51,2.18,1.51v0.46h-6.6v-0.46
						h0.62c1.37,0,1.87-0.14,1.87-0.82c0-0.38-0.17-0.74-0.26-0.98l-1.61-4.37h-4.97V29.91z M229.15,23.26l-2.04,5.59h4.15
						L229.15,23.26z"/>
					<path class="st0" d="M253.1,36.85c-1.78,0-3.31-0.31-5.45-3.6c-0.31-0.48-1.66-2.62-1.99-3h-3.19v3.22
						c0,2.09,0.17,2.64,2.57,2.64v0.43h-6.86V36.1c2.3,0,2.3-0.62,2.3-2.69v-9.65c0-1.2-0.36-1.66-2.33-1.66v-0.43
						c2.02-0.17,4.06-0.26,6.1-0.26c1.9,0,2.98,0.22,4.01,0.72c0.98,0.48,2.4,1.56,2.4,3.55c0,0.65-0.21,2.88-3.14,3.89l2.93,4.44
						c1.1,1.68,1.87,2.28,2.66,2.4L253.1,36.85L253.1,36.85z M242.47,29.82h0.96c1.06,0,1.82-0.02,2.66-0.26
						c1.66-0.48,2.28-2.33,2.28-3.77c0-0.96-0.31-2.64-1.92-3.41c-1.15-0.55-2.67-0.5-3.98-0.48L242.47,29.82L242.47,29.82z"/>
					<path class="st0" d="M263.01,36.54v-0.46c1.11-0.02,1.56-0.22,1.56-0.67c0-0.41-0.53-1.22-2.95-3.65
						c-1.92-1.92-2.5-2.28-3.55-2.16v4.49c0,1.51,0.43,1.99,1.92,1.99h0.31v0.46h-6.58v-0.46h0.43c1.54,0,1.92-0.53,1.92-1.75V23.79
						c0-1.44-0.65-1.73-1.92-1.73h-0.43V21.6h6.48v0.46h-0.22c-1.44,0-1.92,0.46-1.92,1.9v5.18c0.94-0.1,1.68-0.53,2.69-1.54
						c1.87-1.87,3.34-4.03,3.34-4.8c0-0.55-0.36-0.74-1.66-0.74V21.6h6.31v0.46c-1.7,0.02-2.45,0.26-3.17,0.98
						c-0.74,0.74-2.26,3.74-4.78,5.66c0.43,0.07,0.86,0.43,1.92,1.49c2.52,2.52,3.86,4.39,4.66,5.18c0.41,0.41,1.03,0.7,2.66,0.7
						v0.46L263.01,36.54L263.01,36.54z"/>
					<path class="st0" d="M87.95,45.2c-0.53-1.49-1.91-2.46-3.65-2.46c-2.67,0-4.34,1.94-4.34,4.63c0,2.9,2.08,5.03,4.51,5.03
						c1.26,0,2.82-0.43,3.91-2.37h0.3c-0.21,0.72-0.64,1.71-1.02,2.34c-1.02-0.14-1.73,0.43-3.62,0.43c-3.25,0-5.59-2.14-5.59-5.11
						c0-3.11,2.4-5.35,5.75-5.35c2.02,0,2.88,0.64,3.38,0.64c0.18,0,0.26-0.05,0.29-0.1h0.24l0.14,2.32
						C88.25,45.2,87.95,45.2,87.95,45.2z"/>
					<path class="st0" d="M93.97,47.78v3.04c0,1.04,0.21,1.41,1.28,1.41h0.05v0.3h-4.02v-0.3h0.1c0.94,0,1.26-0.26,1.26-1.17v-7.04
						c0-0.83-0.27-1.07-1.15-1.14v-0.3h3.81v0.3c-1.14,0-1.33,0.3-1.33,1.54v2.79h6.28v-3.15c0-0.85-0.27-1.17-1.27-1.17h-0.3v-0.3
						h4.11v0.3c-0.96,0.03-1.22,0.32-1.22,1.31v6.64c0,1.14,0.32,1.39,1.28,1.39h0.16v0.3h-4.53v-0.3h0.5c1.04,0,1.27-0.37,1.27-1.2
						v-3.25C100.25,47.78,93.97,47.78,93.97,47.78z"/>
					<path class="st0" d="M111.46,52.79c-3.14,0-5.78-2.02-5.78-5.01c0-3.19,2.45-5.44,5.86-5.44c3.03,0,5.62,2.07,5.62,4.95
						C117.16,50.52,114.57,52.79,111.46,52.79z M111.13,42.74c-2.82,0-3.94,2.62-3.94,4.55c0,2.99,2.03,5.11,4.61,5.11
						c2.61,0,3.86-2.31,3.86-4.58C115.66,44.84,113.77,42.74,111.13,42.74z"/>
					<path class="st0" d="M126.21,52.79c-3.14,0-5.78-2.02-5.78-5.01c0-3.19,2.45-5.44,5.86-5.44c3.03,0,5.62,2.07,5.62,4.95
						C131.91,50.52,129.31,52.79,126.21,52.79z M125.87,42.74c-2.82,0-3.94,2.62-3.94,4.55c0,2.99,2.03,5.11,4.61,5.11
						c2.61,0,3.86-2.31,3.86-4.58C130.4,44.84,128.51,42.74,125.87,42.74z"/>
					<path class="st0" d="M141.59,52.54h-7.15v-0.3h0.53c0.74,0,1.01-0.24,1.01-1.06v-7.09c0-0.85-0.26-1.2-1.26-1.2h-0.22v-0.3
						h4.72v0.3h-0.59c-1.04,0-1.31,0.11-1.31,1.1v7.38c0,0.43,0.18,0.59,0.64,0.59h2.35c0.95,0,1.23-0.37,2.24-1.76h0.29
						L141.59,52.54z"/>
					<path class="st0" d="M157.23,52.79c-3.14,0-5.78-2.02-5.78-5.01c0-3.19,2.45-5.44,5.86-5.44c3.03,0,5.62,2.07,5.62,4.95
						C162.92,50.52,160.33,52.79,157.23,52.79z M156.89,42.74c-2.82,0-3.94,2.62-3.94,4.55c0,2.99,2.03,5.11,4.61,5.11
						c2.61,0,3.86-2.31,3.86-4.58C161.42,44.84,159.53,42.74,156.89,42.74z"/>
					<path class="st0" d="M172.71,48.71h-0.27c-0.03-0.93-0.37-1.22-1.14-1.22h-2.96V51c0,0.9,0.19,1.23,1.39,1.23v0.3h-3.89v-0.3
						c0.99-0.06,1.17-0.27,1.17-1.57v-6.27c0-1.02-0.08-1.49-1.2-1.5v-0.3h7.17v1.89h-0.27c-0.02-0.93-0.34-1.31-1.33-1.31h-3.04
						v3.76h3.17c0.59,0,0.88-0.34,0.93-1.02h0.27L172.71,48.71L172.71,48.71z"/>
					<path class="st0" d="M188.7,48.93h-0.3c-0.13-1.14-0.43-1.26-1.09-1.26h-2.71v3.41c0,0.74,0.27,0.88,0.87,0.88h2.46
						c1.12,0,1.46-0.43,1.86-1.81h0.29l-0.26,2.38h-8.5v-0.3h0.45c1.28,0,1.5-0.35,1.5-1.31v-6.75c0-0.9-0.21-1.28-1.28-1.28h-0.35
						v-0.3h7.68l0.13,2.23h-0.29c-0.21-1.36-0.61-1.65-1.19-1.65h-3.38v3.94h2.87c0.58,0,0.85-0.27,0.93-1.2h0.3v3.02H188.7z"/>
					<path class="st0" d="M203.36,52.65l-8.29-8.68v6.87c0,1.15,0.26,1.39,1.62,1.39v0.3h-3.71v-0.3h0.06
						c0.99,0,1.31-0.34,1.31-1.07v-7.88c-0.37-0.26-0.78-0.38-1.34-0.4v-0.3h2.51l7.54,7.86v-6.37c0-0.98-0.29-1.15-1.57-1.18v-0.3
						h3.75v0.3c-1.2,0-1.46,0.21-1.46,0.83v8.93H203.36z"/>
					<path class="st0" d="M216.65,51.78c-1.59,0.82-3.62,1.01-4.29,1.01c-3.5,0-5.14-2.71-5.14-5.04c0-2.4,1.68-5.41,5.59-5.41
						c1.71,0,2.85,0.54,3.19,0.54c0.14,0,0.27-0.03,0.37-0.11h0.22v2.59h-0.32c-0.43-2-1.79-2.62-3.28-2.62
						c-2.82,0-4.26,2.34-4.26,4.91c0,3.28,2.3,4.74,4.15,4.74c0.74,0,1.55-0.16,2.45-0.61v-2.02c0-0.91-0.32-1.22-1.28-1.22h-0.59
						v-0.29h4.32v0.29c-0.8,0.05-1.12,0.32-1.12,1.01v2.23H216.65z"/>
					<path class="st0" d="M224.22,52.54h-3.89v-0.3c0.99-0.05,1.2-0.3,1.2-1.38v-6.82c0-0.86-0.3-1.1-1.2-1.15v-0.3h3.89v0.3
						c-1.01,0-1.36,0.22-1.36,1.3v6.79c0,0.94,0.26,1.26,1.36,1.26V52.54z"/>
					<path class="st0" d="M237.61,52.65l-8.29-8.68v6.87c0,1.15,0.26,1.39,1.62,1.39v0.3h-3.71v-0.3h0.06
						c0.99,0,1.31-0.34,1.31-1.07v-7.88c-0.37-0.26-0.79-0.38-1.34-0.4v-0.3h2.51l7.54,7.86v-6.37c0-0.98-0.29-1.15-1.57-1.18v-0.3
						h3.75v0.3c-1.2,0-1.46,0.21-1.46,0.83v8.93H237.61z"/>
					<path class="st0" d="M249.28,48.93h-0.3c-0.13-1.14-0.43-1.26-1.09-1.26h-2.71v3.41c0,0.74,0.27,0.88,0.86,0.88h2.46
						c1.12,0,1.46-0.43,1.86-1.81h0.29l-0.26,2.38h-8.5v-0.3h0.45c1.28,0,1.5-0.35,1.5-1.31v-6.75c0-0.9-0.21-1.28-1.28-1.28h-0.35
						v-0.3h7.68l0.13,2.23h-0.29c-0.21-1.36-0.61-1.65-1.18-1.65h-3.38v3.94h2.86c0.58,0,0.85-0.27,0.93-1.2h0.3v3.02H249.28z"/>
					<path class="st0" d="M260.73,48.93h-0.3c-0.13-1.14-0.43-1.26-1.09-1.26h-2.71v3.41c0,0.74,0.27,0.88,0.87,0.88h2.46
						c1.12,0,1.46-0.43,1.86-1.81h0.29l-0.26,2.38h-8.5v-0.3h0.45c1.28,0,1.5-0.35,1.5-1.31v-6.75c0-0.9-0.21-1.28-1.28-1.28h-0.35
						v-0.3h7.68l0.13,2.23h-0.29c-0.21-1.36-0.61-1.65-1.18-1.65h-3.38v3.94h2.87c0.58,0,0.85-0.27,0.93-1.2h0.3L260.73,48.93
						L260.73,48.93z"/>
					<path class="st0" d="M274.86,52.74c-1.19,0-2.21-0.21-3.63-2.4c-0.21-0.32-1.1-1.74-1.33-2h-2.13v2.15
						c0,1.39,0.11,1.76,1.71,1.76v0.29h-4.58v-0.29c1.54,0,1.54-0.42,1.54-1.79v-6.43c0-0.8-0.24-1.1-1.55-1.1v-0.29
						c1.34-0.11,2.71-0.18,4.07-0.18c1.26,0,1.98,0.14,2.67,0.48c0.66,0.32,1.6,1.04,1.6,2.37c0,0.43-0.14,1.92-2.1,2.59l1.95,2.96
						c0.74,1.12,1.25,1.52,1.78,1.6L274.86,52.74L274.86,52.74z M267.77,48.05h0.64c0.71,0,1.22-0.02,1.78-0.18
						c1.1-0.32,1.52-1.55,1.52-2.51c0-0.64-0.21-1.76-1.28-2.27c-0.77-0.37-1.78-0.34-2.66-0.32V48.05z"/>
					<path class="st0" d="M281.58,52.54h-3.89v-0.3c0.99-0.05,1.2-0.3,1.2-1.38v-6.82c0-0.86-0.3-1.1-1.2-1.15v-0.3h3.89v0.3
						c-1.01,0-1.36,0.22-1.36,1.3v6.79c0,0.94,0.26,1.26,1.36,1.26V52.54z"/>
					<path class="st0" d="M294.97,52.65l-8.29-8.68v6.87c0,1.15,0.26,1.39,1.62,1.39v0.3h-3.71v-0.3h0.06
						c0.99,0,1.31-0.34,1.31-1.07v-7.88c-0.37-0.26-0.78-0.38-1.34-0.4v-0.3h2.51l7.54,7.86v-6.37c0-0.98-0.29-1.15-1.57-1.18v-0.3
						h3.75v0.3c-1.2,0-1.46,0.21-1.46,0.83v8.93H294.97z"/>
					<path class="st0" d="M307.66,51.78c-1.58,0.82-3.62,1.01-4.29,1.01c-3.51,0-5.14-2.71-5.14-5.04c0-2.4,1.68-5.41,5.59-5.41
						c1.71,0,2.85,0.54,3.19,0.54c0.14,0,0.27-0.03,0.37-0.11h0.22v2.59h-0.32c-0.43-2-1.79-2.62-3.28-2.62
						c-2.82,0-4.26,2.34-4.26,4.91c0,3.28,2.3,4.74,4.14,4.74c0.74,0,1.55-0.16,2.45-0.61v-2.02c0-0.91-0.32-1.22-1.28-1.22h-0.59
						v-0.29h4.32v0.29c-0.8,0.05-1.12,0.32-1.12,1.01V51.78z"/>
				</g>
			</g>
		</g>
	</g>
	<g>
		<g>
			
				<radialGradient id="SVGID_1_" cx="802.4363" cy="-592.962" r="21.2659" gradientTransform="matrix(0.8911 0 0 -0.8911 -683.031 -497.3484)" gradientUnits="userSpaceOnUse">
				<stop  offset="0" style="stop-color:#FFFFFF"/>
				<stop  offset="0.5149" style="stop-color:#FDFDFD"/>
				<stop  offset="0.7003" style="stop-color:#F6F6F6"/>
				<stop  offset="0.8325" style="stop-color:#EBEBEB"/>
				<stop  offset="0.9387" style="stop-color:#DADADA"/>
				<stop  offset="1" style="stop-color:#CCCCCC"/>
			</radialGradient>
			<path class="st1" d="M32.02,49.99c-10.45,0-18.95-8.5-18.95-18.95s8.5-18.95,18.95-18.95s18.95,8.5,18.95,18.95
				S42.47,49.99,32.02,49.99z"/>
		</g>
		<g>
			<path class="st2" d="M32.02,49.99c-10.45,0-18.95-8.5-18.95-18.95s8.5-18.95,18.95-18.95s18.95,8.5,18.95,18.95
				S42.47,49.99,32.02,49.99z M32.02,12.34c-10.31,0-18.7,8.39-18.7,18.7s8.39,18.7,18.7,18.7s18.7-8.39,18.7-18.7
				S42.33,12.34,32.02,12.34z"/>
		</g>
		<path class="st3" d="M50.84,30.62c0,0.08-0.33,0.36-0.69,0.58c-0.01,0-0.02,0.01-0.03,0.01c-0.49,0.27-1.17,0.51-2.03,0.74
			c-0.88,0.23-1.96,0.44-3.15,0.62c-1.19,0.18-2.52,0.32-3.95,0.45l0,0c-1.83,0.16-2.99,0.23-4.44,0.31c-1.55,0.06-3.16,0.1-4.8,0.1
			c0,0.21,0,0.42,0,0.62c0,1.47,0.01,2.87,0.01,4.19c0.04,7.23,0.05,7.22,0.26,11.62c10.4,0,18.82-8.43,18.82-18.82
			C50.84,31.04,50.84,30.77,50.84,30.62z"/>
		<g>
			<path d="M31.74,34.06c0,1.47,0.01,2.87,0.01,4.19c3.02,2.86,3.02,2.86,4.27,4.12c0.33-2.39,0.52-5.24,0.51-8.41
				c0-0.21,0-0.42,0-0.62c-1.91,0.08-3.16,0.1-4.8,0.1C31.74,33.64,31.74,33.85,31.74,34.06z"/>
			<path d="M38.65,45.58c-0.66-1.07-1.26-1.77-2.62-3.2c-0.64,4.58-1.78,7.41-3.19,7.47c0.12-0.01,0.3-0.02,0.42-0.02
				c0.15-0.01,0.33-0.03,0.48-0.04C35.69,49.61,37.37,48.11,38.65,45.58z"/>
			<path d="M40.76,37.9c0-0.03-1.08,5.65-2.11,7.68c0.59,1.14,0.62,1.59,0.38,2.34c1.83-1.39,3.33-3.48,4.37-6.07
				C42.73,40.49,42.28,39.77,40.76,37.9z"/>
			<path d="M35.37,49.57c0.41-0.07,0.39-0.08,1.15-0.25l0.45-0.13c1.39-0.43,1.63-0.65,2.07-1.29c-1.24,0.93-2.57,1.51-4.05,1.74
				L35.37,49.57z"/>
			<path d="M43.73,44.95c2.71-3.07,4.37-7.42,4.37-12.37c0-0.21,0-0.42-0.01-0.62c-0.88,0.23-1.96,0.44-3.15,0.62
				c0.02,0.21,0.02,0.42,0.02,0.63c0.01,3.22-0.54,6.15-1.54,8.62C43.98,43.27,43.99,43.87,43.73,44.95z"/>
			<path d="M40.98,33.03c-1.83,0.16-2.99,0.23-4.44,0.31c2.58,2.68,3.13,3.31,4.22,4.56c0.15-1.33,0.23-2.74,0.23-4.22
				C40.99,33.46,40.99,33.24,40.98,33.03z"/>
		</g>
		<path d="M27.89,13.19c1.05-0.42,2.06-0.86,4.09-0.98l0,0C30.6,12.34,29.17,12.72,27.89,13.19"/>
		<g>
			<path class="st4" d="M44.62,32.58c-0.98-0.13-1.8-1.79-1.37-3.47c-1.38,0.95-2.93-1.01-2.7-2.82c0.12-0.96,0.75-1.81,1.85-1.42
				c-0.45-1.53-1-2.98-1.66-4.32c-0.97,0.12-2.04,0.23-3.17,0.31c1.01,1.52,0.02,2.93-1.38,2.71c-1.02-0.16-1.97-1.23-1.7-2.5
				c-0.82,0.57-2.52,0.35-2.68-1.46c-0.04,3.83-0.07,8.72-0.06,13.82c5,0.05,10.86-0.48,13.2-0.85c0,0,0,0.01,0,0
				C44.84,32.59,44.71,32.59,44.62,32.58z"/>
		</g>
		<g>
			<path class="st4" d="M19.86,36.36c1.4-0.54,3.16,1.88,2.54,3.5c-0.28,0.75-1.02,0.95-1.79,0.5c0.42,1.41,0.96,2.7,1.6,3.85
				c0.99,0.14,2.1,0.25,3.32,0.35c-0.98-1.2-0.19-2.19,1.11-2.12c1.12,0.06,2.6,0.99,2.28,2.26c1.01-0.45,2.71-0.08,2.91,1.23
				c-0.05-2.82-0.08-6.97-0.09-11.86c0-0.21,0-0.41,0-0.62c-1.59,0-3.2-0.06-4.8-0.12c-3.4-0.14-5.72-0.34-8.57-0.82
				c0,0.01,0-0.01,0,0C19.83,32.98,20.23,35.15,19.86,36.36z"/>
		</g>
		<path class="st4" d="M40.94,19.01L40.94,19.01L40.94,19.01C40.95,19.01,40.95,19.01,40.94,19.01L40.94,19.01c0.01,0,0.01,0,0.02,0
			c0.18-0.03,0.35-0.06,0.52-0.09c1.08-0.2,3.52-0.78,3.52-1.5c0,0,0.96,0.96,1.66,2.3c0.08,0.15,0.14,0.28,0.21,0.49
			c0.08,0.24,0.14,0.51,0.13,0.64c-0.03,0.41-0.29,0.41-0.56,0.29c-0.03-0.01-0.06-0.02-0.09-0.04c-0.97-0.44-1.28-1.32-1.47-1.69
			c-0.49,0.16-1.3,0.51-1.98,0.64c-0.08,0.02-0.22,0.05-0.3,0.06c0.8,1.31,1.56,2.88,2.1,4.39c0.95-0.97,2.43,0.83,2.5,2.58
			c0.04,1.03-0.42,1.94-1.36,1.61c0.75,1.39,0.51,3.43-0.91,3.87c-0.24-4.57-1.01-8.62-4.02-13.56l0,0l0,0"/>
		<path class="st4" d="M40.92,19.02L40.92,19.02L40.92,19.02L40.92,19.02L40.92,19.02c-2.4-3.66-4.29-4.99-6.72-5.95
			c-0.48-0.19-2.13-0.84-2.22-0.86l0.01,0.02l0,0c0.43,0.63,1.29,1,1.47,1.06c-0.05,0.23-0.01,0.68,0.78,1.26
			c0.12,0.09,0.24,0.16,0.36,0.22c1.22,0.64,1.49,0.14,1.55-0.06c0.01-0.01,0.01-0.01,0.02-0.02c0.37,0.27,1.1,0.86,1.9,1.77
			c0.46,0.56,0.9,1.04,1.23,1.53c-0.76,0.1-1.76,0.18-2.75,0.26c-0.06-1.2-0.92-1.8-1.47-2c-1.19-0.44-1.58,0.96-1.07,1.95
			c-0.94-0.51-2.06-0.06-2.22,1.44C35.53,19.59,38.08,19.42,40.92,19.02L40.92,19.02L40.92,19.02"/>
		<path class="st4" d="M41.15,15.61c-0.01-0.02-0.02-0.08-0.01-0.13c0.01-0.05,0.05-0.09,0.05-0.09s0.02-0.05,0.09-0.09
			c0.19-0.11,0.76-0.17,2.34,0.92c-3.26-2.57-6.78-3.62-9.76-3.92c-0.42-0.05-1.2-0.08-1.2-0.08c0.95,0.08,1.59,0.34,1.75,0.39
			c0.12,0.04,0.22,0.11,0.28,0.16c0.01,0,0.01,0,0.01,0c0.19,0.02,0.4,0.06,0.67,0.14c0.29,0.08,0.78,0.26,1.21,0.47
			c0.43,0.2,1.08,0.66,1.08,0.92c-0.1,0.06-0.13,0.08-0.42,0c1.11,0.79,2.71,2.29,3.65,3.39c0.65-0.12,1.61-0.26,2.06-0.41
			C42.91,17.31,41.47,16.22,41.15,15.61z"/>
		<path class="st4" d="M22.01,45.24c-1.61-0.29-2.54-0.54-3.16-0.85c-0.1-0.05-0.14-0.05-0.16-0.06c-0.01,0-0.92-0.93-1.71-1.96
			c-0.58-0.75-1.07-1.6-1.12-1.68c0.01,0.01,0.13,0,0.21,0.03c0.85,0.28,2.17,2.59,2.18,2.61c0.52,0.19,1.2,0.38,2.03,0.54
			c-0.77-1.16-1.42-2.47-1.92-3.9c-1.17,0.59-2.67-2.51-2.2-3.82c0.1-0.27,0.41-0.82,1.2-0.22c-0.6-1.38-0.44-3.46,1.01-3.45
			C18.41,37.06,19.03,41.01,22.01,45.24"/>
		<path class="st4" d="M31.8,46.18c-0.16,0.65-1.08,1.28-2.37,0.75c0.6,0.8,0.08,1.49-0.98,1.29c-0.83-0.15-1.81-0.82-1.89-1.48
			c-1.02-0.08-1.96-0.18-2.79-0.29c0.79,0.92,1.67,1.67,2.62,2.22c0.11-0.05,0.29-0.03,0.85,0.16c0.72,0.25,1.41,0.59,2.13,0.85
			l-0.15-0.02c-0.55-0.08-0.68-0.11-0.99-0.17c-1.39-0.27-3.8-1.06-6.23-4.24l0,0l0,0l0,0c2.92,0.45,5.77,0.65,9.82,0.67
			C31.83,46,31.82,46.1,31.8,46.18"/>
		<path class="st3" d="M31.98,12.21c-10.09,0-18.59,8.24-18.78,18.47l0.01,0.02c0.01,0.03,0.1,0.22,0.5,0.47l0,0l0,0
			c0.4,0.25,0.98,0.51,1.76,0.71c0.96,0.25,1.96,0.45,2.9,0.61h0.02c2.85,0.48,5.16,0.68,8.57,0.82c1.6,0.07,3.21,0.13,4.8,0.12
			c0-0.96-0.01-6.43,0.04-11.71c0.01-0.68,0.01-1.39,0.02-2.11C31.84,16.17,31.91,12.67,31.98,12.21L31.98,12.21z"/>
		<path d="M41,47.59c-1.06,0.6-1.27,0.61-2.7,1.2c-0.4,0.16-0.77,0.26-1.18,0.38c2.54-0.68,6.01-3.53,6.62-4.22
			c-0.31,0.68-0.54,1.14-1.29,1.74C42.24,46.86,41.34,47.4,41,47.59z"/>
		<path d="M15.46,31.88c-0.78-0.19-1.36-0.46-1.76-0.71c0.21-6.81,3.99-12.85,9.51-16.16c-1.3,1.16-1.88,1.85-2.54,3.41
			C17.57,21.96,15.6,26.74,15.46,31.88"/>
		<path d="M23.22,14.99c1.38-1,2.17-1.72,4.36-2.25c1.53-0.37,2.88-0.53,4.4-0.53l0,0C28.81,12.35,25.82,13.43,23.22,14.99"/>
		<path d="M22.22,33.01c-1.38-0.13-2.68-0.32-3.85-0.52c0.08-3.41,0.79-6.69,2.03-9.58c0.48,1.9,0.88,2.93,2.23,5.18
			C22.39,29.68,22.25,31.33,22.22,33.01"/>
		<path d="M31.8,19.61c-0.02,2.07-0.04,4.2-0.04,5.85c-0.01,1.63-0.02,2.81-0.02,3.04c-1.85-1.94-2.84-3.03-4.2-4.75
			c0.91-5.85,2.55-10.48,4.43-11.54l0,0l0,0C31.91,12.77,31.84,16.09,31.8,19.61z"/>
		<g>
			<path d="M25.19,19.39c-1.18,2.5-2.07,5.48-2.55,8.69c1.15,1.71,1.86,2.71,4.15,5.22c0.03-3.37,0.3-6.63,0.76-9.57
				C26.17,21.86,25.73,20.97,25.19,19.39z"/>
		</g>
		<path d="M50.12,31.22c0.01,0.21,0.01,0.42,0.01,0.62c0.01,6.66-3.24,12.19-8.32,15.26l-0.13,0.1c2.39-1.47,5.41-3.95,7.33-8.05
			c2.06-4.05,1.83-8.52,1.83-8.52C50.74,30.81,50.43,31.04,50.12,31.22z"/>
		<g>
			<path d="M27.89,13.19c-2.75,1.08-5.22,2.92-7.22,5.22c-0.55,1.71-0.55,2.67-0.27,4.5c1.22-2.85,2.93-5.33,4.94-7.17
				C25.97,14.65,26.35,14.01,27.89,13.19z"/>
		</g>
		<path d="M25.19,19.4c-0.34-1.54-0.37-2.32,0.15-3.66c1.96-1.81,4.23-3.15,6.64-3.53C29.34,12.92,26.94,15.69,25.19,19.4"/>
		<g>
			<path d="M11.08,18.74l-1.54-0.77c-0.35-0.17-0.41-0.36-0.24-0.71l0.02-0.05l-0.21-0.1l-0.72,1.44l0.21,0.1l0.03-0.05
				c0.16-0.28,0.25-0.37,0.4-0.37c0.1,0,0.24,0.05,0.48,0.16l1.33,0.66c0.98,0.49,0.85,1.27,0.57,1.85
				c-0.27,0.55-0.67,0.84-1.14,0.84c-0.21,0-0.44-0.06-0.67-0.18L8,20.8c-0.28-0.14-0.32-0.27-0.17-0.59l0.05-0.1l-0.21-0.1
				l-0.78,1.57l0.21,0.1l0.02-0.05c0.13-0.26,0.21-0.34,0.33-0.34c0.07,0,0.15,0.03,0.27,0.09l1.67,0.83
				c0.25,0.12,0.51,0.19,0.76,0.19c0.65,0,1.2-0.41,1.57-1.15C12.37,19.96,11.81,19.11,11.08,18.74z"/>
			<path d="M13.05,12.67c-0.01-0.09,0.06-0.21,0.24-0.42l0.04-0.04l-0.18-0.15l-1.03,1.23l0.17,0.15l0.04-0.04
				c0.21-0.23,0.31-0.31,0.41-0.31c0.07,0,0.15,0.04,0.27,0.14l1.84,1.55l-4.22,0.27l-0.7,0.82l0.18,0.15l0.04-0.04
				c0.14-0.15,0.26-0.24,0.42-0.28l2.38,2.01c0.18,0.15,0.24,0.3-0.02,0.6l-0.05,0.06l0.18,0.15l1.03-1.22l-0.18-0.15l-0.04,0.04
				c-0.2,0.23-0.31,0.32-0.42,0.32l0,0c-0.09,0-0.19-0.05-0.35-0.19l-1.99-1.68l4.66-0.29l0.16-0.19l-2.77-2.33
				C13.09,12.77,13.05,12.72,13.05,12.67z"/>
			<path d="M17.96,13.1c-0.15,0.13-0.26,0.18-0.35,0.18s-0.18-0.06-0.31-0.22l-1.73-2.08c-0.25-0.31-0.21-0.43,0.08-0.67l0.04-0.04
				l-0.15-0.18l-1.28,1.06l0.15,0.18l0.04-0.03c0.14-0.1,0.23-0.14,0.31-0.14c0.09,0,0.17,0.06,0.28,0.18l1.74,2.09
				c0.26,0.31,0.26,0.41-0.01,0.65l-0.04,0.04l0.15,0.18l1.28-1.06L18,13.07L17.96,13.1z"/>
			<path d="M20.43,7.25l0.05-0.03l-0.12-0.2l-1.37,0.8l0.11,0.2L19.15,8c0.2-0.12,0.34-0.17,0.43-0.17c0.06,0,0.1,0.03,0.14,0.09
				c0.04,0.06,0.07,0.18,0.1,0.38l0.44,2.65l-2.33-1.8c-0.09-0.07-0.13-0.13-0.13-0.18c0-0.1,0.14-0.24,0.42-0.41l0.05-0.03
				l-0.12-0.2l-1.61,0.94l0.12,0.2l0.05-0.03c0.14-0.08,0.23-0.11,0.31-0.11c0.12,0,0.23,0.07,0.42,0.23l2.97,2.3l0.34-0.2L20.16,8
				C20.1,7.6,20.16,7.41,20.43,7.25z"/>
			<path d="M25.62,8.31v0.04c0.03,0.58-0.05,0.74-0.43,0.87l-0.93,0.32c-0.07,0.02-0.12,0.04-0.17,0.04c-0.08,0-0.14-0.04-0.2-0.22
				l-0.43-1.23l0.97-0.33c0.08-0.03,0.14-0.04,0.18-0.04c0.1,0,0.19,0.06,0.33,0.35l0.02,0.04l0.21-0.07l-0.43-1.25L24.53,6.9
				l0.01,0.05c0.09,0.35,0.02,0.45-0.16,0.51L23.36,7.8l-0.48-1.38L24.11,6c0.05-0.02,0.09-0.02,0.13-0.02
				c0.1,0,0.25,0.05,0.47,0.47l0.02,0.04l0.21-0.07L24.56,5.5l-3,1.04l0.08,0.22l0.19-0.06c0.11-0.04,0.19-0.05,0.26-0.05
				c0.15,0,0.23,0.08,0.32,0.34l0.88,2.55c0.06,0.19,0.07,0.29,0.03,0.37c-0.05,0.09-0.17,0.17-0.4,0.25l-0.22,0.08l0.08,0.22
				l3.31-1.14l-0.24-1.04L25.62,8.31z"/>
			<path d="M31.77,8.26c-0.45,0.03-0.83-0.12-1.29-0.48l-0.56-0.44c-0.28-0.22-0.49-0.38-0.72-0.52c0.46-0.24,0.72-0.67,0.66-1.14
				c-0.09-0.74-0.8-1.1-1.9-0.97c-0.41,0.05-0.54,0.07-0.8,0.11C27.09,4.83,27,4.84,26.91,4.86c-0.21,0.04-0.43,0.07-0.53,0.09
				l-0.05,0.01l0.02,0.23l0.2-0.02c0.05-0.01,0.09-0.01,0.13-0.01c0.2,0,0.3,0.06,0.34,0.41l0.32,2.67c0.05,0.4-0.06,0.48-0.4,0.53
				l-0.16,0.02l0.03,0.23l1.91-0.23l-0.03-0.23l-0.2,0.02c-0.06,0.01-0.11,0.01-0.15,0.01c-0.2,0-0.32-0.06-0.35-0.38L27.86,7.2
				c0.08,0,0.16-0.01,0.27-0.02c0.17-0.02,0.26-0.04,0.41-0.06l0,0c0.12,0.06,0.35,0.2,0.69,0.47l0.47,0.37
				c0.64,0.5,0.96,0.72,2.09,0.53l0.05-0.01l-0.02-0.22L31.77,8.26z M29.16,5.8C29.2,6.12,29.15,6.37,29,6.55
				c-0.16,0.21-0.44,0.33-0.83,0.38l-0.08,0.01C28,6.96,27.93,6.97,27.83,6.97L27.6,4.99c0.09-0.02,0.16-0.03,0.26-0.04
				C28.67,4.85,29.08,5.12,29.16,5.8z"/>
			<path d="M34.15,6.23C33.72,5.9,33.3,5.6,33.33,5.21c0.02-0.32,0.31-0.52,0.7-0.49c0.42,0.03,0.78,0.34,0.92,0.79l0.01,0.04
				l0.21,0.02l-0.05-0.93l-0.18-0.02l-0.02,0.02c-0.03,0.04-0.04,0.04-0.06,0.04h-0.01c-0.08-0.01-0.14-0.03-0.22-0.07
				C34.5,4.55,34.33,4.47,34,4.45c-0.68-0.05-1.22,0.34-1.27,0.89c-0.05,0.61,0.49,1.02,1.02,1.41c0.45,0.34,0.88,0.65,0.85,1.06
				c-0.04,0.47-0.49,0.66-0.88,0.63c-0.5-0.04-0.87-0.41-0.96-0.93l-0.01-0.04l-0.23-0.02l0.06,1.09l0.18,0.01l0.02-0.02
				c0.01-0.02,0.04-0.04,0.09-0.04l0,0c0.02,0,0.1,0.03,0.18,0.06c0.18,0.07,0.45,0.16,0.69,0.18c0.05,0,0.1,0.01,0.14,0.01l0,0
				c0.72,0,1.25-0.43,1.3-1.04C35.25,7.03,34.67,6.6,34.15,6.23z"/>
			<path d="M36.86,5.13l0.05,0.01c0.33,0.09,0.4,0.19,0.33,0.49l-0.58,2.66C36.58,8.64,36.5,8.7,36.33,8.7
				c-0.05,0-0.11-0.01-0.19-0.02l-0.05-0.01L36.03,8.9l1.62,0.35l0.05-0.23l-0.05-0.01c-0.2-0.04-0.32-0.1-0.37-0.18
				c-0.05-0.07-0.05-0.18-0.01-0.36l0.58-2.65c0.07-0.32,0.17-0.38,0.33-0.38c0.06,0,0.14,0.01,0.24,0.03l0.05,0.01l0.05-0.23
				L36.9,4.91L36.86,5.13z"/>
			<path d="M43.44,6.92c0,0-0.01,0.02-0.04,0.02c-0.03,0-0.06-0.01-0.11-0.03l-2.86-1.13c-0.04-0.01-0.07-0.03-0.1-0.06
				c-0.02-0.02-0.02-0.03-0.02-0.04l0.01-0.05l-0.2-0.08l-0.53,1.02l0.21,0.08l0.02-0.04c0.21-0.36,0.35-0.49,0.5-0.49
				c0.04,0,0.08,0.01,0.13,0.03l0.98,0.39l-1.14,2.88C40.2,9.66,40.11,9.71,40,9.71c-0.07,0-0.16-0.02-0.27-0.07l-0.27-0.1
				l-0.09,0.21l1.97,0.78l0.08-0.22l-0.27-0.11c-0.18-0.07-0.27-0.14-0.31-0.22c-0.03-0.08-0.02-0.18,0.04-0.33l1.14-2.88L43,7.16
				c0.19,0.08,0.26,0.21,0.14,0.77l-0.01,0.05l0.21,0.08l0.32-1.11l-0.2-0.08L43.44,6.92z"/>
			<path d="M47.25,9.52l0.05,0.03c0.17,0.11,0.25,0.2,0.25,0.27c0,0.06-0.08,0.13-0.22,0.2l-1.52,0.74l0.03-1.79
				c0-0.27,0.06-0.27,0.09-0.27c0.07,0,0.17,0.05,0.33,0.16l0.05,0.03l0.13-0.19l-1.5-1.01l-0.13,0.19l0.04,0.03
				c0.31,0.22,0.39,0.35,0.37,0.93l-0.04,2.09l-0.49,0.73c-0.18,0.27-0.32,0.27-0.6,0.08l-0.15-0.1l-0.12,0.19l1.55,1.04l0.13-0.19
				l-0.11-0.08c-0.15-0.1-0.23-0.19-0.25-0.28c-0.02-0.08,0.02-0.18,0.1-0.31l0.52-0.78l1.87-0.9c0.17-0.08,0.3-0.12,0.43-0.12
				c0.14,0,0.29,0.05,0.46,0.14l0.04,0.03l0.13-0.19L47.4,9.33L47.25,9.52z"/>
			<path d="M53.4,15c-0.49-0.65-1.18-1.02-1.89-1.02c-0.47,0-0.93,0.16-1.33,0.47c-0.93,0.71-1.02,2.05-0.2,3.12
				c0.46,0.61,1.14,0.95,1.86,0.95l0,0c0.48,0,0.95-0.16,1.35-0.47C54.09,17.37,54.18,16.03,53.4,15z M53.43,16.28
				c-0.07,0.51-0.37,0.98-0.85,1.35c-0.38,0.29-0.81,0.45-1.21,0.45c-0.44,0-0.82-0.19-1.09-0.55c-0.62-0.81-0.4-1.93,0.49-2.62
				c0.35-0.27,0.8-0.43,1.2-0.43c0.45,0,0.84,0.2,1.12,0.56C53.37,15.41,53.49,15.84,53.43,16.28z"/>
			<path d="M55.54,18.4l-0.21,0.1l0.02,0.05c0.17,0.36,0.06,0.44-0.31,0.62l-2.26,1.08c-0.21,0.1-0.32,0.14-0.41,0.14
				c-0.1,0-0.17-0.06-0.29-0.27l-0.03-0.05l-0.21,0.1l0.71,1.5l0.21-0.1l-0.02-0.05c-0.1-0.2-0.13-0.33-0.1-0.42
				c0.03-0.08,0.1-0.14,0.27-0.22l1.21-0.58l0.49,1.02c0.11,0.23,0.11,0.38-0.22,0.55l-0.05,0.02l0.09,0.2l1.11-0.53l-0.09-0.19
				l-0.05,0.02c-0.23,0.09-0.37,0.05-0.46-0.13l-0.52-1.09l1.26-0.6l0.5,1.04c0.15,0.32,0.09,0.47-0.22,0.63l-0.05,0.02l0.09,0.2
				l0.78-0.37L55.54,18.4z"/>
		</g>
		<path d="M9.77,47.01l2.3-4.24l-0.01-0.01l-3.1,1.98c-0.35,0.22-0.24,0.53-0.04,0.84L8.8,45.66l-1-1.38l0.13-0.09
			c0.35,0.48,0.5,0.46,1.12,0.06l2.69-1.7c0.46-0.29,0.56-0.39,0.29-0.82l0.12-0.09l0.72,1l-2.17,4.01l4.48-0.83l0.7,0.97
			l-0.12,0.09c-0.26-0.31-0.36-0.43-0.58-0.25l-2.84,2.38c-0.58,0.48-0.54,0.53-0.19,1.02l-0.13,0.09l-1.23-1.7l0.13-0.09
			c0.22,0.31,0.53,0.55,0.86,0.27l2.82-2.34l-0.01-0.01l-4.72,0.91L9.77,47.01z"/>
		<path d="M17.86,51.42l-1.14-0.84l1.68-1.12L17.86,51.42z M17.76,51.79l-0.44,1.52c-0.02,0.08-0.05,0.22-0.12,0.32
			c-0.14,0.19-0.3,0.12-0.68-0.15l-0.17-0.13l-0.09,0.12l1.81,1.33l0.09-0.13c-0.33-0.24-0.42-0.41-0.29-0.85l1.31-4.66l-0.57-0.42
			l-0.05,0.19l-3.6,2.39c-0.63,0.42-0.76,0.44-1.19,0.13l-0.09,0.13l1.52,1.11l0.09-0.12l-0.11-0.08c-0.36-0.26-0.48-0.46-0.35-0.63
			c0.07-0.09,0.3-0.23,0.44-0.32l1.14-0.75L17.76,51.79z"/>
		<path d="M23,51.68c0.14,0.04,0.24,0.07,0.39,0.12c1.18,0.42,1.31,1.09,1.06,1.81c-0.33,0.92-1.02,1.08-1.87,0.78
			c-0.18-0.06-0.3-0.1-0.47-0.18L23,51.68z M22.05,54.35c0.12,0.05,0.22,0.09,0.39,0.15c0.21,0.07,0.33,0.11,0.53,0.17
			c0.14,0.19,0.33,0.51,0.55,0.97l0.33,0.69c0.44,0.92,0.68,1.34,2.05,1.76l0.05-0.14c-0.58-0.25-0.95-0.7-1.24-1.31l-0.39-0.82
			c-0.23-0.49-0.39-0.79-0.59-1.11c0.7,0.04,1.26-0.31,1.46-0.88c0.28-0.79-0.15-1.6-1.58-2.1c-0.5-0.18-0.66-0.22-0.98-0.32
			s-0.8-0.23-0.99-0.3l-0.05,0.15l0.17,0.06c0.45,0.16,0.53,0.34,0.36,0.82l-1.15,3.24c-0.18,0.51-0.39,0.58-0.84,0.42L20,55.73
			l-0.05,0.15l2.18,0.77l0.05-0.15L22,56.44c-0.43-0.15-0.57-0.33-0.41-0.8L22.05,54.35z"/>
		<path d="M31.31,54.18c0.3-0.43,0.16-0.58-0.36-0.62l0.01-0.15l1.84,0.16l-0.01,0.15c-0.56-0.01-0.81,0.19-1.07,0.56l-1.54,2.17
			l-0.1,1.22c-0.04,0.43,0.1,0.62,0.6,0.66l0.11,0.01l-0.01,0.15l-2.24-0.19l0.01-0.15l0.15,0.01c0.51,0.04,0.67-0.13,0.7-0.53
			l0.1-1.15l-1.25-2.38c-0.34-0.66-0.52-0.79-1.05-0.85l0.01-0.15l2.16,0.19l-0.01,0.15c-0.63-0.06-0.69,0.1-0.47,0.49l1.11,2.1
			L31.31,54.18z"/>
		<path d="M38.09,57.84l-3.6,0.61l-0.02-0.15l0.26-0.04c0.37-0.06,0.49-0.21,0.42-0.62l-0.6-3.57c-0.07-0.43-0.23-0.58-0.74-0.5
			l-0.11,0.02l-0.03-0.15l2.37-0.4l0.03,0.15l-0.3,0.05c-0.52,0.09-0.65,0.17-0.57,0.67l0.63,3.71c0.04,0.21,0.14,0.28,0.37,0.24
			l1.18-0.2c0.47-0.08,0.59-0.29,0.98-1.08l0.15-0.03L38.09,57.84z"/>
		<path d="M41.99,53.76l-1.3,0.54l-0.09-2.02L41.99,53.76z M42.25,54.04l1.08,1.16c0.06,0.06,0.16,0.15,0.21,0.28
			c0.09,0.21-0.05,0.32-0.48,0.5l-0.2,0.08l0.06,0.14L45,55.34l-0.06-0.14c-0.38,0.16-0.57,0.15-0.88-0.19l-3.32-3.52l-0.66,0.27
			l0.14,0.14l0.19,4.31c0.03,0.76-0.02,0.87-0.5,1.09l0.06,0.14l1.74-0.73l-0.06-0.14l-0.12,0.05c-0.41,0.17-0.64,0.18-0.73-0.02
			c-0.04-0.11-0.04-0.37-0.05-0.54l-0.06-1.37L42.25,54.04z"/>
		<path d="M51.08,50.88L45,50.16l2.23,2.7c0.37,0.45,0.55,0.46,1.09,0.02l0.1,0.12l-1.46,1.21l-0.1-0.12l0.02-0.02
			c0.39-0.32,0.41-0.56,0.17-0.85l-2.56-3.09c-0.23,0.02-0.43,0.1-0.66,0.28l-0.1-0.12l0.99-0.82l5.52,0.64l-2.07-2.51
			c-0.32-0.38-0.49-0.36-1,0.05l-0.1-0.12l1.47-1.22l0.1,0.12c-0.47,0.39-0.5,0.56-0.3,0.8l2.9,3.51L51.08,50.88z"/>
		<path d="M49.89,44.6c0.05-0.09,0.15-0.28,0.33-0.57c0.62-0.96,1.17-1.29,1.69-1.4c0.67-0.14,1.32,0.07,1.83,0.4
			c0.71,0.45,1.03,1.11,1.11,1.52c0.15,0.7,0.03,1.17-0.56,2.09c-0.35,0.54-0.46,0.5-0.74,0.32L49.89,44.6z M53.06,47.45
			c0.4,0.26,0.39,0.49,0.15,0.86l-0.08,0.12l0.13,0.08l1.42-2.19c1.12-1.73,0.4-3.34-0.64-4.01c-1.13-0.73-2.57-0.52-3.74,1.29
			c-0.23,0.36-0.49,0.78-0.72,1.17S49.15,45.5,49,45.76l0.13,0.08l0.09-0.14c0.26-0.4,0.45-0.45,0.89-0.16L53.06,47.45z"/>
		<path d="M5.82,29.66v3.5c0,0.18,0.04,0.23,0.22,0.23h0.34v0.11H4.87v-0.11H5.2c0.19,0,0.23-0.06,0.23-0.24v-3.01
			c-0.19,0.17-0.53,0.39-0.75,0.5l-0.05-0.08c0.35-0.24,0.85-0.69,0.99-0.89L5.82,29.66L5.82,29.66z"/>
		<path d="M9.31,32.64c0,0.47-0.35,0.83-0.8,0.83c-0.46,0-0.8-0.38-0.8-0.89c0-0.39,0.21-0.69,0.62-0.92
			C9.03,31.98,9.31,32.24,9.31,32.64z M9.57,30.53c0-0.48-0.48-0.87-1.09-0.87c-0.6,0-1.09,0.45-1.09,0.98
			c0,0.41,0.26,0.72,0.82,0.97c-0.59,0.24-0.88,0.57-0.88,0.99c0,0.55,0.52,0.99,1.17,0.99c0.67,0,1.19-0.48,1.19-1.11
			c0-0.46-0.27-0.78-0.91-1.07C9.32,31.19,9.57,30.91,9.57,30.53z M9.21,30.52c0,0.34-0.17,0.62-0.5,0.83
			c-0.78-0.33-0.96-0.57-0.96-0.9c0-0.38,0.32-0.68,0.74-0.68C8.9,29.77,9.21,30.09,9.21,30.52z"/>
		<path d="M54.38,30.09h1.43c0.11,0,0.14-0.02,0.18-0.08h0.11l-0.07,0.47H54.5l-0.05,1.08c0.19-0.1,0.4-0.15,0.65-0.15
			c0.68,0,1.24,0.56,1.24,1.24c0,0.73-0.61,1.29-1.41,1.29c-0.48,0-0.88-0.17-0.88-0.38c0-0.1,0.09-0.19,0.2-0.19
			c0.33,0,0.44,0.42,0.82,0.42c0.45,0,0.83-0.47,0.83-1.01c0-0.56-0.38-0.97-0.9-0.97c-0.22,0-0.46,0.09-0.64,0.24l-0.06-0.04
			L54.38,30.09z"/>
		<path d="M58.97,32.78c0,0.68-0.29,1.06-0.71,1.06c-0.38,0-0.82-0.33-0.82-1.35c0-0.2,0.01-0.29,0.03-0.37
			c0.37-0.3,0.64-0.36,0.8-0.36C58.67,31.75,58.97,32.13,58.97,32.78z M59,30.01c-1.26,0.36-2.02,1.24-2.02,2.36
			c0,0.93,0.52,1.57,1.26,1.57c0.64,0,1.17-0.55,1.17-1.22c0-0.62-0.48-1.11-1.07-1.11c-0.3,0-0.53,0.1-0.86,0.35
			c0.13-0.88,0.63-1.47,1.57-1.86L59,30.01z"/>
	</g>
</g>
</svg>
