<svg xmlns="http://www.w3.org/2000/svg" viewBox="0 0 791.57 144.49"><defs><style>.cls-1,.cls-2,.cls-3,.cls-4,.cls-5,.cls-6,.cls-7{fill:#fff;}.cls-1,.cls-2,.cls-4,.cls-5,.cls-6,.cls-7{stroke:#fff;}.cls-1,.cls-2,.cls-5,.cls-6,.cls-7{stroke-miterlimit:10;}.cls-1{stroke-width:1.18px;}.cls-4,.cls-6,.cls-7{stroke-linecap:round;}.cls-4{stroke-linejoin:round;}.cls-4,.cls-5,.cls-6{stroke-width:3.2px;}.cls-7{stroke-width:2.4px;}</style></defs><title>UMIACS_logo_horz_CMYK</title><g id="text"><path class="cls-1" d="M432.38,445.41v42.17c0,15.87,8.32,19.88,17.49,19.88,9.75,0,16.28-4.2,16.28-19.88V445.41h18.1v42.76c0,22.64-12.72,33.42-34.89,33.42-21.44,0-35.08-9.86-35.08-33V445.41Z" transform="translate(-122.08 -410.01)"/><path class="cls-1" d="M563,491.43c0-12.85.09-26.24.52-34.5h-.11c-3.7,13.78-10.72,35.66-19.5,63.07H528c-6.83-24-14.67-48.93-18.63-63.06h-.1c.55,8.67,1.23,23.17,1.23,35.88V520H494.18V445.41h26.16c7.49,23.1,14.37,43.36,16.6,53.57h.1c3.16-11.76,9.9-31.36,17.16-53.57h26.27V520H563Z" transform="translate(-122.08 -410.01)"/><path class="cls-2" d="M608.58,445.41V520h-18.1V445.41Z" transform="translate(-122.08 -410.01)"/><path class="cls-2" d="M639.22,503.07,632.71,520H614.09l30-74.59h23.22L698.93,520H679.35l-6.93-16.93Zm28.14-14.5c-6.94-17.1-10.32-25.81-12.11-31.51h-.11c-1.67,5.58-5.63,16.92-11.23,31.51Z" transform="translate(-122.08 -410.01)"/><path class="cls-2" d="M771.44,496.32c-3.46,13.09-13.85,25.27-37.26,25.27-26.65,0-39.51-18.43-39.51-38.81s14.17-39,40.48-39c22.85,0,34.24,12.71,36.42,25.18H753.24c-1.53-4.27-5.56-11.14-18.29-11.14-14,0-21.2,10.63-21.2,24.24s6.63,25.54,21.31,25.54c10.61,0,15.27-4.12,18.17-11.32Z" transform="translate(-122.08 -410.01)"/><path class="cls-2" d="M793.48,497.65c2.14,6.44,7.29,10.67,19.67,10.67,11.6,0,15-3.54,15-8.35,0-5.14-3.44-8-19.16-10.71-25.88-4.42-30.59-12.83-30.59-22.84,0-14.89,14.34-22.5,32-22.5,25.6,0,32.55,13.16,33.39,21.83H825.6c-1.06-3.7-3.54-8.64-15.85-8.64-8.62,0-13,2.74-13,7.56,0,4.31,3.07,6.48,17.08,9,28.34,5.09,32.77,13.64,32.77,24.46,0,12.93-10.14,23.38-35.16,23.38-23.34,0-33.85-10.41-36.11-23.85Z" transform="translate(-122.08 -410.01)"/><path class="cls-2" d="M418,538.17v6c0,2.66,1.53,3.39,3.07,3.39,1.82,0,2.94-.85,2.94-3.39v-6h1.76v6.05c0,3.4-1.81,4.82-4.76,4.82s-4.77-1.41-4.77-4.72v-6.15Z" transform="translate(-122.08 -410.01)"/><path class="cls-2" d="M428.14,543.1c0-.64,0-1.36,0-1.93h1.63c0,.26.05.85.06,1.31a2.79,2.79,0,0,1,2.71-1.52c1.81,0,3,1.12,3,3.19v4.66H433.8v-4.37c0-1.17-.44-2.11-1.78-2.11s-2.2,1.11-2.2,2.78v3.7h-1.68Z" transform="translate(-122.08 -410.01)"/><path class="cls-2" d="M438,537.55h1.67v1.77H438Zm0,3.62h1.67v7.64H438Z" transform="translate(-122.08 -410.01)"/><path class="cls-2" d="M443,541.17c.78,2.05,2.2,5.28,2.47,6.13h0c.22-.72.74-2.06,2.43-6.13h1.71l-3.29,7.64h-1.85l-3.31-7.64Z" transform="translate(-122.08 -410.01)"/><path class="cls-2" d="M452.14,545.39a2.34,2.34,0,0,0,2.44,2.32,2.15,2.15,0,0,0,2.1-1.11h1.68a3.71,3.71,0,0,1-3.85,2.42,3.79,3.79,0,0,1-4-4,3.84,3.84,0,0,1,4-4,3.74,3.74,0,0,1,4,4v.43Zm4.6-1.13a2.06,2.06,0,0,0-2.27-2,2.12,2.12,0,0,0-2.3,2Z" transform="translate(-122.08 -410.01)"/><path class="cls-2" d="M460.39,543.25c0-.69,0-1.39,0-2.08H462c0,.24.06,1.05.06,1.68a3.1,3.1,0,0,1,3.06-1.88v1.57c-1.75,0-3.06,1-3.06,3.18v3.09h-1.67Z" transform="translate(-122.08 -410.01)"/><path class="cls-2" d="M467.86,546.49c.26.82,1,1.3,2.26,1.3s1.83-.46,1.83-1.06-.37-1-2.21-1.2c-2.74-.35-3.22-1.32-3.22-2.27s.81-2.3,3.3-2.3c2.66,0,3.45,1.35,3.54,2.31h-1.67c-.12-.44-.42-1.1-1.95-1.1-1.29,0-1.56.54-1.56.94s.33.81,2,1c2.93.4,3.43,1.33,3.43,2.44,0,1.38-1.05,2.43-3.59,2.43-2.19,0-3.58-.92-3.83-2.53Z" transform="translate(-122.08 -410.01)"/><path class="cls-2" d="M475.52,537.55h1.67v1.77h-1.67Zm0,3.62h1.67v7.64h-1.67Z" transform="translate(-122.08 -410.01)"/><path class="cls-2" d="M478.89,541.17h1.48v-2.4h1.68v2.4H484v1.29h-1.94v3.94c0,.82.2,1.19,1,1.19a3.6,3.6,0,0,0,.73-.06v1.2a4.14,4.14,0,0,1-1.27.15c-1.65,0-2.15-.73-2.15-2.23v-4.19h-1.48Z" transform="translate(-122.08 -410.01)"/><path class="cls-2" d="M486.78,541.17c1.55,3.64,2.35,5.72,2.56,6.34h0c.25-.76,1-2.91,2.34-6.34h1.73l-2.89,7.09c-1.34,3.31-1.81,4.08-3.9,4.08a7,7,0,0,1-1-.08v-1.43a6.6,6.6,0,0,0,.82,0c1,0,1.39-.4,2-1.73l-3.51-8Z" transform="translate(-122.08 -410.01)"/><path class="cls-2" d="M507.19,545a4.15,4.15,0,0,1-8.29,0,4.15,4.15,0,0,1,8.29,0Zm-6.58,0a2.49,2.49,0,0,0,2.44,2.69,2.39,2.39,0,0,0,2.42-2.67A2.47,2.47,0,0,0,503,542.3,2.41,2.41,0,0,0,500.61,545Z" transform="translate(-122.08 -410.01)"/><path class="cls-2" d="M509.58,548.81v-6.35h-1.39v-1.29h1.39v-.93c0-1.77.81-2.81,2.64-2.81a3.79,3.79,0,0,1,.92.09v1.32a3.41,3.41,0,0,0-.63-.05c-1,0-1.24.4-1.24,1.51v.87H513v1.29h-1.73v6.35Z" transform="translate(-122.08 -410.01)"/><path class="cls-2" d="M529.24,544.35c0-2,0-3.87.07-5h0c-.52,1.69-2.17,5.73-3.62,9.45h-1.54c-1.1-3.09-2.91-7.68-3.49-9.44h0c.09,1.22.16,3.43.16,5.23v4.21h-1.62V538.17h2.53c1.37,3.44,3,7.45,3.3,8.54h0c.49-1.4,2.12-5.31,3.39-8.54H531v10.64h-1.72Z" transform="translate(-122.08 -410.01)"/><path class="cls-2" d="M540.51,546.86c0,.81,0,1.78.07,1.95H539a7.57,7.57,0,0,1-.09-1c-.4.76-1.27,1.26-2.84,1.26-2.15,0-2.95-1.3-2.95-2.46,0-2,1.77-2.51,4-2.51h1.79v-.37c0-.78-.33-1.49-1.84-1.49s-1.67.58-1.81,1.22h-1.68c.09-1,.76-2.45,3.48-2.45,2.91,0,3.49,1.41,3.49,2.68Zm-1.64-1.67h-1.76c-1.62,0-2.36.37-2.36,1.29,0,.7.52,1.28,1.69,1.28,1.86,0,2.43-1,2.43-2.28Z" transform="translate(-122.08 -410.01)"/><path class="cls-2" d="M543.05,543.25c0-.69,0-1.39,0-2.08h1.63c0,.24.06,1.05.06,1.68a3.09,3.09,0,0,1,3-1.88v1.57c-1.74,0-3,1-3,3.18v3.09h-1.67Z" transform="translate(-122.08 -410.01)"/><path class="cls-2" d="M550.77,541.17c1.54,3.64,2.35,5.72,2.56,6.34h0c.25-.76,1-2.91,2.34-6.34h1.72l-2.88,7.09c-1.35,3.31-1.82,4.08-3.9,4.08a7.1,7.1,0,0,1-1-.08v-1.43a6.74,6.74,0,0,0,.83,0c1,0,1.39-.4,2-1.73l-3.5-8Z" transform="translate(-122.08 -410.01)"/><path class="cls-2" d="M559,548.81V537.55h1.67v11.26Z" transform="translate(-122.08 -410.01)"/><path class="cls-2" d="M570.1,546.86c0,.81,0,1.78.06,1.95h-1.58a6.29,6.29,0,0,1-.09-1c-.41.76-1.28,1.26-2.85,1.26-2.14,0-2.95-1.3-2.95-2.46,0-2,1.77-2.51,4-2.51h1.8v-.37c0-.78-.34-1.49-1.84-1.49s-1.68.58-1.82,1.22h-1.67c.08-1,.76-2.45,3.48-2.45,2.91,0,3.49,1.41,3.49,2.68Zm-1.64-1.67H566.7c-1.63,0-2.37.37-2.37,1.29,0,.7.53,1.28,1.7,1.28,1.85,0,2.43-1,2.43-2.28Z" transform="translate(-122.08 -410.01)"/><path class="cls-2" d="M572.62,543.1c0-.64,0-1.36,0-1.93h1.63c0,.26,0,.85.06,1.31A2.79,2.79,0,0,1,577,541c1.81,0,3,1.12,3,3.19v4.66h-1.69v-4.37c0-1.17-.44-2.11-1.78-2.11s-2.2,1.11-2.2,2.78v3.7h-1.68Z" transform="translate(-122.08 -410.01)"/><path class="cls-2" d="M590,537.55v9.06c0,.73,0,1.47,0,2.2h-1.64c0-.3,0-.73-.06-1.09a2.78,2.78,0,0,1-2.74,1.3,3.66,3.66,0,0,1-3.7-4,4,4,0,0,1,3.89-4.1,2.69,2.69,0,0,1,2.55,1.09v-4.5Zm-6.4,7.47a2.41,2.41,0,0,0,2.38,2.63c1.68,0,2.4-1.08,2.4-2.68s-.57-2.65-2.36-2.65A2.46,2.46,0,0,0,583.61,545Z" transform="translate(-122.08 -410.01)"/><path class="cls-2" d="M599,538.17v10.64h-1.76V538.17Z" transform="translate(-122.08 -410.01)"/><path class="cls-2" d="M601.61,543.1c0-.64,0-1.36,0-1.93h1.63c0,.26,0,.85.06,1.31A2.81,2.81,0,0,1,606,541c1.81,0,3,1.12,3,3.19v4.66h-1.69v-4.37c0-1.17-.45-2.11-1.79-2.11s-2.19,1.11-2.19,2.78v3.7h-1.68Z" transform="translate(-122.08 -410.01)"/><path class="cls-2" d="M612.3,546.49c.25.82,1,1.3,2.26,1.3s1.82-.46,1.82-1.06-.37-1-2.21-1.2c-2.74-.35-3.22-1.32-3.22-2.27s.81-2.3,3.31-2.3,3.45,1.35,3.53,2.31h-1.67c-.11-.44-.41-1.1-2-1.1-1.29,0-1.55.54-1.55.94s.33.81,2,1c2.92.4,3.43,1.33,3.43,2.44,0,1.38-1,2.43-3.6,2.43-2.19,0-3.57-.92-3.83-2.53Z" transform="translate(-122.08 -410.01)"/><path class="cls-2" d="M618.91,541.17h1.48v-2.4h1.68v2.4H624v1.29h-1.94v3.94c0,.82.21,1.19,1,1.19a3.5,3.5,0,0,0,.72-.06v1.2a4.11,4.11,0,0,1-1.26.15c-1.66,0-2.16-.73-2.16-2.23v-4.19h-1.48Z" transform="translate(-122.08 -410.01)"/><path class="cls-2" d="M625.76,537.55h1.68v1.77h-1.68Zm0,3.62h1.68v7.64h-1.68Z" transform="translate(-122.08 -410.01)"/><path class="cls-2" d="M629.13,541.17h1.49v-2.4h1.68v2.4h1.93v1.29H632.3v3.94c0,.82.2,1.19,1,1.19a3.5,3.5,0,0,0,.72-.06v1.2a4.07,4.07,0,0,1-1.26.15c-1.66,0-2.15-.73-2.15-2.23v-4.19h-1.49Z" transform="translate(-122.08 -410.01)"/><path class="cls-2" d="M643,546.59c0,.74,0,1.48,0,2.22h-1.62c0-.21,0-.7-.05-1.19-.38.8-1,1.4-2.7,1.4s-2.86-.89-2.86-3.13v-4.72h1.67v4.43c0,1.12.44,2,1.72,2,1.53,0,2.16-.89,2.16-3v-3.48H643Z" transform="translate(-122.08 -410.01)"/><path class="cls-2" d="M644.7,541.17h1.48v-2.4h1.68v2.4h1.94v1.29h-1.94v3.94c0,.82.2,1.19,1,1.19a3.6,3.6,0,0,0,.73-.06v1.2a4.14,4.14,0,0,1-1.27.15c-1.65,0-2.15-.73-2.15-2.23v-4.19H644.7Z" transform="translate(-122.08 -410.01)"/><path class="cls-2" d="M652.5,545.39a2.34,2.34,0,0,0,2.44,2.32,2.18,2.18,0,0,0,2.11-1.11h1.67a3.71,3.71,0,0,1-3.84,2.42,3.8,3.8,0,0,1-4-4,3.84,3.84,0,0,1,4-4,3.75,3.75,0,0,1,4,4c0,.15,0,.26,0,.43Zm4.6-1.13a2.05,2.05,0,0,0-2.26-2,2.12,2.12,0,0,0-2.31,2Z" transform="translate(-122.08 -410.01)"/><path class="cls-2" d="M665.67,548.81v-6.35h-1.4v-1.29h1.4v-.93c0-1.77.81-2.81,2.63-2.81a3.74,3.74,0,0,1,.92.09v1.32a3.35,3.35,0,0,0-.63-.05c-1,0-1.24.4-1.24,1.51v.87h1.73v1.29h-1.73v6.35Z" transform="translate(-122.08 -410.01)"/><path class="cls-2" d="M678.2,545a4.15,4.15,0,0,1-8.3,0,4.15,4.15,0,0,1,8.3,0Zm-6.59,0a2.5,2.5,0,0,0,2.44,2.69,2.39,2.39,0,0,0,2.42-2.67A2.47,2.47,0,0,0,674,542.3,2.41,2.41,0,0,0,671.61,545Z" transform="translate(-122.08 -410.01)"/><path class="cls-2" d="M680.13,543.25c0-.69,0-1.39,0-2.08h1.63c0,.24.06,1.05.06,1.68a3.1,3.1,0,0,1,3.06-1.88v1.57c-1.75,0-3.06,1-3.06,3.18v3.09h-1.67Z" transform="translate(-122.08 -410.01)"/><path class="cls-2" d="M693,545.78l-1.27,3h-1.83l4.51-10.64h2.18l4.7,10.64h-1.91l-1.33-3Zm4.51-1.47c-1.23-2.82-1.81-4.18-2.06-4.92h0c-.23.72-.92,2.49-1.92,4.92Z" transform="translate(-122.08 -410.01)"/><path class="cls-2" d="M710.39,537.55v9.06c0,.73,0,1.47,0,2.2h-1.63c0-.3,0-.73-.06-1.09A2.79,2.79,0,0,1,706,549a3.67,3.67,0,0,1-3.71-4,4,4,0,0,1,3.9-4.1,2.71,2.71,0,0,1,2.55,1.09v-4.5ZM704,545a2.41,2.41,0,0,0,2.38,2.63c1.68,0,2.4-1.08,2.4-2.68s-.58-2.65-2.36-2.65A2.46,2.46,0,0,0,704,545Z" transform="translate(-122.08 -410.01)"/><path class="cls-2" d="M713.73,541.17c.78,2.05,2.2,5.28,2.48,6.13h0c.23-.72.74-2.06,2.44-6.13h1.71l-3.3,7.64h-1.84l-3.32-7.64Z" transform="translate(-122.08 -410.01)"/><path class="cls-2" d="M728.51,546.86c0,.81,0,1.78.06,1.95H727a7.57,7.57,0,0,1-.09-1c-.4.76-1.27,1.26-2.84,1.26-2.14,0-2.95-1.3-2.95-2.46,0-2,1.77-2.51,4-2.51h1.8v-.37c0-.78-.34-1.49-1.84-1.49s-1.68.58-1.82,1.22h-1.67c.08-1,.76-2.45,3.47-2.45,2.91,0,3.5,1.41,3.5,2.68Zm-1.64-1.67h-1.76c-1.63,0-2.37.37-2.37,1.29,0,.7.52,1.28,1.7,1.28,1.85,0,2.43-1,2.43-2.28Z" transform="translate(-122.08 -410.01)"/><path class="cls-2" d="M731,543.1c0-.64,0-1.36,0-1.93h1.63c0,.26.05.85.06,1.31a2.79,2.79,0,0,1,2.71-1.52c1.81,0,3,1.12,3,3.19v4.66h-1.69v-4.37c0-1.17-.44-2.11-1.78-2.11s-2.2,1.11-2.2,2.78v3.7H731Z" transform="translate(-122.08 -410.01)"/><path class="cls-2" d="M748.19,546.38a3.62,3.62,0,0,1-3.82,2.64,3.76,3.76,0,0,1-4.07-4,3.9,3.9,0,0,1,4.09-4c2.68,0,3.63,1.72,3.77,2.7h-1.67a2,2,0,0,0-2.11-1.38c-1.52,0-2.37,1.13-2.37,2.7s.81,2.72,2.37,2.72a2.12,2.12,0,0,0,2.14-1.32Z" transform="translate(-122.08 -410.01)"/><path class="cls-2" d="M751.22,545.39a2.34,2.34,0,0,0,2.44,2.32,2.16,2.16,0,0,0,2.1-1.11h1.68a3.72,3.72,0,0,1-3.85,2.42,3.8,3.8,0,0,1-4.05-4,3.85,3.85,0,0,1,4-4,3.74,3.74,0,0,1,4,4v.43Zm4.59-1.13a2.05,2.05,0,0,0-2.26-2,2.12,2.12,0,0,0-2.3,2Z" transform="translate(-122.08 -410.01)"/><path class="cls-2" d="M767.14,537.55v9.06c0,.73,0,1.47,0,2.2h-1.64c0-.3,0-.73-.06-1.09a2.79,2.79,0,0,1-2.74,1.3,3.66,3.66,0,0,1-3.7-4,3.94,3.94,0,0,1,3.89-4.1,2.71,2.71,0,0,1,2.55,1.09v-4.5Zm-6.4,7.47a2.41,2.41,0,0,0,2.38,2.63c1.68,0,2.4-1.08,2.4-2.68s-.58-2.65-2.36-2.65A2.46,2.46,0,0,0,760.74,545Z" transform="translate(-122.08 -410.01)"/><path class="cls-2" d="M784.29,545.63c-.58,1.84-1.95,3.41-5,3.41a5.2,5.2,0,0,1-5.5-5.53,5.37,5.37,0,0,1,5.59-5.57c3.12,0,4.6,1.69,5,3.45h-1.8a3.09,3.09,0,0,0-3.22-2c-2.34,0-3.71,1.74-3.71,4.07s1.34,4.17,3.72,4.17a3.05,3.05,0,0,0,3.2-2Z" transform="translate(-122.08 -410.01)"/><path class="cls-2" d="M794.14,545a4.15,4.15,0,0,1-8.29,0,4.15,4.15,0,0,1,8.29,0Zm-6.58,0a2.49,2.49,0,0,0,2.44,2.69,2.39,2.39,0,0,0,2.42-2.67A2.47,2.47,0,0,0,790,542.3,2.41,2.41,0,0,0,787.56,545Z" transform="translate(-122.08 -410.01)"/><path class="cls-2" d="M796.07,543.15c0-.66,0-1.32,0-2h1.61a7.53,7.53,0,0,1,.05,1.09,2.72,2.72,0,0,1,2.44-1.3,2.27,2.27,0,0,1,2.33,1.42,2.87,2.87,0,0,1,2.61-1.42c1.53,0,2.77.9,2.77,3.16v4.69H806.2v-4.64c0-.84-.27-1.86-1.54-1.86s-1.86.75-1.86,2.31v4.19h-1.66v-4.69c0-.87-.3-1.81-1.56-1.81s-1.85,1-1.85,2.39v4.11h-1.66Z" transform="translate(-122.08 -410.01)"/><path class="cls-2" d="M812.05,547.78v4.35h-1.67v-9.06c0-.63,0-1.27,0-1.9H812a11.54,11.54,0,0,1,0,1.24,3.09,3.09,0,0,1,2.87-1.45,3.66,3.66,0,0,1,3.57,3.9,3.9,3.9,0,0,1-3.82,4.16A2.86,2.86,0,0,1,812.05,547.78Zm4.71-2.85a2.37,2.37,0,0,0-2.35-2.6c-1.68,0-2.4,1.17-2.4,2.69s.79,2.62,2.37,2.62A2.41,2.41,0,0,0,816.76,544.93Z" transform="translate(-122.08 -410.01)"/><path class="cls-2" d="M827.62,546.59c0,.74,0,1.48,0,2.22H826c0-.21,0-.7-.06-1.19-.38.8-1,1.4-2.69,1.4s-2.87-.89-2.87-3.13v-4.72h1.68v4.43c0,1.12.43,2,1.71,2,1.53,0,2.17-.89,2.17-3v-3.48h1.67Z" transform="translate(-122.08 -410.01)"/><path class="cls-2" d="M829.34,541.17h1.48v-2.4h1.68v2.4h1.94v1.29H832.5v3.94c0,.82.21,1.19,1,1.19a3.5,3.5,0,0,0,.72-.06v1.2a4.11,4.11,0,0,1-1.26.15c-1.66,0-2.16-.73-2.16-2.23v-4.19h-1.48Z" transform="translate(-122.08 -410.01)"/><path class="cls-2" d="M837.15,545.39a2.34,2.34,0,0,0,2.44,2.32,2.16,2.16,0,0,0,2.1-1.11h1.68a3.72,3.72,0,0,1-3.85,2.42,3.8,3.8,0,0,1-4-4,3.85,3.85,0,0,1,4-4,3.74,3.74,0,0,1,4,4v.43Zm4.59-1.13a2.05,2.05,0,0,0-2.26-2,2.12,2.12,0,0,0-2.3,2Z" transform="translate(-122.08 -410.01)"/><path class="cls-2" d="M845.4,543.25c0-.69,0-1.39,0-2.08H847c0,.24.06,1.05.06,1.68a3.1,3.1,0,0,1,3.06-1.88v1.57c-1.75,0-3.06,1-3.06,3.18v3.09H845.4Z" transform="translate(-122.08 -410.01)"/><path class="cls-2" d="M857.37,545.69c.37,1.17,1.24,2,3.26,2s2.71-.74,2.71-1.65-.56-1.56-3.18-2c-3.32-.56-4.07-1.61-4.07-3.06,0-1.93,1.84-3,4.21-3,3.51,0,4.37,1.83,4.49,2.94H863c-.2-.68-.63-1.58-2.76-1.58-1.46,0-2.36.49-2.36,1.47,0,.81.44,1.3,2.75,1.7,3.89.67,4.52,1.87,4.52,3.36,0,1.73-1.38,3.19-4.67,3.19-3.06,0-4.56-1.39-4.9-3.34Z" transform="translate(-122.08 -410.01)"/><path class="cls-2" d="M866.4,541.17h1.48v-2.4h1.68v2.4h1.94v1.29h-1.94v3.94c0,.82.2,1.19,1,1.19a3.6,3.6,0,0,0,.73-.06v1.2a4.14,4.14,0,0,1-1.27.15c-1.65,0-2.15-.73-2.15-2.23v-4.19H866.4Z" transform="translate(-122.08 -410.01)"/><path class="cls-2" d="M880.24,546.59c0,.74,0,1.48,0,2.22h-1.62a11,11,0,0,1,0-1.19c-.38.8-1.05,1.4-2.7,1.4s-2.86-.89-2.86-3.13v-4.72h1.67v4.43c0,1.12.43,2,1.71,2,1.53,0,2.17-.89,2.17-3v-3.48h1.67Z" transform="translate(-122.08 -410.01)"/><path class="cls-2" d="M890.29,537.55v9.06c0,.73,0,1.47,0,2.2h-1.64c0-.3,0-.73-.06-1.09a2.78,2.78,0,0,1-2.74,1.3,3.66,3.66,0,0,1-3.7-4,4,4,0,0,1,3.89-4.1,2.71,2.71,0,0,1,2.55,1.09v-4.5Zm-6.4,7.47a2.41,2.41,0,0,0,2.38,2.63c1.68,0,2.4-1.08,2.4-2.68s-.57-2.65-2.36-2.65A2.46,2.46,0,0,0,883.89,545Z" transform="translate(-122.08 -410.01)"/><path class="cls-2" d="M892.8,537.55h1.67v1.77H892.8Zm0,3.62h1.67v7.64H892.8Z" transform="translate(-122.08 -410.01)"/><path class="cls-2" d="M898.07,545.39a2.34,2.34,0,0,0,2.44,2.32,2.15,2.15,0,0,0,2.1-1.11h1.68a3.72,3.72,0,0,1-3.85,2.42,3.79,3.79,0,0,1-4-4,3.84,3.84,0,0,1,4-4,3.74,3.74,0,0,1,4,4v.43Zm4.6-1.13a2.06,2.06,0,0,0-2.27-2,2.12,2.12,0,0,0-2.3,2Z" transform="translate(-122.08 -410.01)"/><path class="cls-2" d="M907.4,546.49c.25.82,1,1.3,2.26,1.3s1.83-.46,1.83-1.06-.38-1-2.22-1.2c-2.74-.35-3.22-1.32-3.22-2.27s.81-2.3,3.31-2.3,3.45,1.35,3.53,2.31h-1.67c-.11-.44-.41-1.1-2-1.1-1.29,0-1.55.54-1.55.94s.33.81,2,1c2.92.4,3.43,1.33,3.43,2.44,0,1.38-1,2.43-3.6,2.43-2.19,0-3.57-.92-3.83-2.53Z" transform="translate(-122.08 -410.01)"/></g><g id="Layer_1_copy_2" data-name="Layer 1 copy 2"><line class="cls-3" x1="4.63" y1="17.63" x2="4.63" y2="106.83"/><path class="cls-3" d="M127,427.64c.51,7.43.85,14.87,1.28,22.3l.53,11.15.43,11.15c.14,3.72.39,7.43.61,11.15a106.33,106.33,0,0,1,0,11.15c-.19,3.72-.48,7.43-.95,11.15A90.33,90.33,0,0,1,127,516.84a.33.33,0,0,1-.64,0,90.33,90.33,0,0,1-1.93-11.15c-.47-3.72-.76-7.43-.95-11.15a109.13,109.13,0,0,1,0-11.15c.22-3.72.47-7.43.61-11.15l.43-11.15.53-11.15c.43-7.43.77-14.87,1.28-22.3a.32.32,0,0,1,.64,0Z" transform="translate(-122.08 -410.01)"/><line class="cls-4" x1="235.61" y1="45.67" x2="235.61" y2="70.92"/><path class="cls-5" d="M273.59,506V496.9c11.75-1.12,22.69-2.07,32.71-2.89s19.12-1.49,27.17-2.05c18.42-1.28,32.59-2.08,42.62-1.43s15.9,3.45,17.72,8c.46,1.12.4,4.77.46,6.07" transform="translate(-122.08 -410.01)"/><line class="cls-4" x1="272.19" y1="92.81" x2="272.19" y2="141"/><line class="cls-6" x1="1.94" y1="18.19" x2="10.62" y2="19.32"/><line class="cls-6" x1="55.11" y1="1.6" x2="10.62" y2="19.32"/><line class="cls-6" x1="1.94" y1="18.19" x2="1.94" y2="110.58"/><line class="cls-6" x1="56.68" y1="135.63" x2="38.27" y2="106.99"/><line class="cls-6" x1="38.23" y1="133.04" x2="53.15" y2="100.9"/><line class="cls-5" x1="55.11" y1="1.6" x2="55.11" y2="99"/><line class="cls-5" x1="1.94" y1="110.58" x2="55.11" y2="99"/><line class="cls-6" x1="78.11" y1="52.51" x2="78.11" y2="64.57"/><line class="cls-6" x1="94.71" y1="76.26" x2="94.71" y2="85.31"/><line class="cls-6" x1="112.81" y1="62.31" x2="112.81" y2="70.98"/><line class="cls-6" x1="145.68" y1="47.96" x2="145.68" y2="56.25"/><line class="cls-6" x1="65.29" y1="19.57" x2="65.29" y2="32.39"/><line class="cls-6" x1="28.53" y1="32.2" x2="28.53" y2="45.02"/><line class="cls-6" x1="122.99" y1="81.16" x2="122.99" y2="88.71"/><line class="cls-6" x1="134.22" y1="60.24" x2="134.22" y2="68.53"/><line class="cls-6" x1="32.86" y1="134.35" x2="15.73" y2="107.68"/><line class="cls-4" x1="14.54" y1="133.22" x2="25.99" y2="108.54"/><path class="cls-5" d="M281.39,495.19c-.19-7.05,23.52-13.41,53-14.21s47.61,2.26,47.8,9.32" transform="translate(-122.08 -410.01)"/><path class="cls-5" d="M357.69,455.68c-96.48-5.07-159.38-16.07-180.5-44.07" transform="translate(-122.08 -410.01)"/><path class="cls-6" d="M352.29,448.62c-68-3.58-112.4-9.27-127.65-21.83" transform="translate(-122.08 -410.01)"/><line class="cls-5" x1="230.21" y1="38.61" x2="230.21" y2="46.11"/><line class="cls-5" x1="102.56" y1="16.76" x2="102.56" y2="29.63"/><line class="cls-6" x1="224.8" y1="99.31" x2="224.64" y2="136.65"/><line class="cls-5" x1="174.2" y1="97.36" x2="174.2" y2="133.04"/><line class="cls-6" x1="132.04" y1="97.36" x2="132.04" y2="131.64"/><line class="cls-5" x1="72.28" y1="103.91" x2="72.28" y2="135.63"/><path class="cls-6" d="M177.19,509c4.18-3,51.05-4.11,107.14-3.22,38.34.61,54.26,2.09,62.55,3.52" transform="translate(-122.08 -410.01)"/><path class="cls-6" d="M194.36,545.64c4.54-3.21,53.43-4.5,126.39-.23,49.87,2.91,70.52,5.45,81.23,7.49" transform="translate(-122.08 -410.01)"/><line class="cls-5" x1="100.46" y1="96.2" x2="100.46" y2="132.68"/><line class="cls-7" x1="249.22" y1="106.16" x2="249.22" y2="125.07"/><path class="cls-6" d="M123.68,520.17c34.64-3.36,60.36-6,70.64-6.61" transform="translate(-122.08 -410.01)"/><line class="cls-6" x1="16.59" y1="68.72" x2="16.59" y2="77.77"/><line class="cls-6" x1="40.26" y1="81.71" x2="40.26" y2="89.85"/></g></svg>