<svg xmlns="http://www.w3.org/2000/svg" viewBox="0 0 104.43 33.75"><defs><style>.cls-1{fill:#fff;}</style></defs><title>visionist</title><g id="Layer_2" data-name="Layer 2"><g id="logos"><g id="_3K_IN_KIND" data-name="3K + IN KIND"><g id="visionist"><path class="cls-1" d="M17.71,30.84c0-.79,0-1.58,0-2.37a.49.49,0,0,1,.46-.57,3.34,3.34,0,0,0,3-3.66c0-5.17.05-10.33,0-15.49A8.81,8.81,0,0,1,29,.05c1.44-.15,1.23,0,1.22,1.16s0,2.48,0,3.72c0,.34,0,.54-.47.57a2.87,2.87,0,0,0-2.92,2.73,7.71,7.71,0,0,0-.06,1.18c0,5.08.06,10.17,0,15.25-.07,4-3.22,8.77-8.43,9.09-.48,0-.69-.08-.66-.6,0-.77,0-1.54,0-2.31Z"/><path class="cls-1" d="M83.55,8.63c2.53,0,5.07,0,7.6,0,.53,0,.75.12.71.68a19.65,19.65,0,0,0,0,2c0,.42-.14.57-.56.56-.92,0-1.84,0-2.76,0-.5,0-.63.16-.63.65q0,5.52,0,11c0,1.2.14,1.07-1.1,1.07-.48,0-1,0-1.46,0s-.68-.13-.68-.66c0-3.77,0-7.55,0-11.32,0-.77,0-.77-.76-.77H75.65a1.32,1.32,0,1,0-.15,2.64,15.4,15.4,0,0,0,1.8.05,4.81,4.81,0,0,1,5,4.39,4.9,4.9,0,0,1-3.69,5.4,7.21,7.21,0,0,1-1.72.24c-1.73,0-3.46,0-5.18,0-.52,0-.65-.18-.62-.66a17,17,0,0,0,0-2c0-.46.16-.59.58-.58h5.07a3,3,0,0,0,1.91-.55,1.54,1.54,0,0,0,0-2.64,5.54,5.54,0,0,0-1.91-.54c-.6-.1-1.24,0-1.85-.08a4.41,4.41,0,0,1-.82-8.65,8.27,8.27,0,0,1,2.16-.29C78.67,8.61,81.11,8.63,83.55,8.63Z"/><path class="cls-1" d="M61.61,18.73V9.43c0-.8,0-.8.82-.8.6,0,1.2,0,1.8,0,.39,0,.54.15.53.53,0,.87,0,1.73,0,2.59V22.67a7,7,0,0,1,0,.79,1.31,1.31,0,0,1-2,1.15,4.35,4.35,0,0,1-1.36-1.13C59.22,20.74,57.13,18,55,15.2l-.56-.69c0,.32,0,.51,0,.69,0,2.91,0,5.82,0,8.73,0,.53-.13.75-.69.71a15.44,15.44,0,0,0-1.8,0c-.48,0-.65-.13-.65-.64,0-2,0-4.09,0-6.13V10.49c0-1,.3-1.53.93-1.75a2,2,0,0,1,2.22.69c1.36,1.77,2.71,3.55,4.07,5.33.86,1.13,1.72,2.27,2.59,3.4C61.25,18.32,61.38,18.46,61.61,18.73Z"/><path class="cls-1" d="M41.85,8.63c5.6,0,8.18,4,8.1,8a7.89,7.89,0,0,1-8.1,8,7.83,7.83,0,0,1-8.06-8.14C33.79,11.8,37,8.63,41.85,8.63Zm0,3.26A4.57,4.57,0,0,0,37,16.67a4.52,4.52,0,0,0,4.82,4.72,4.58,4.58,0,0,0,4.86-4.7A4.61,4.61,0,0,0,41.88,11.89Z"/><path class="cls-1" d="M0,8.63a15.14,15.14,0,0,0,2.15,0A2.33,2.33,0,0,1,4.77,10C6.32,12.67,8,15.22,9.66,17.8a.87.87,0,0,0,.38.35v-.57c0-2.74,0-5.48,0-8.22,0-.56.15-.79.73-.74a14.43,14.43,0,0,0,1.86,0c.53,0,.67.18.66.68,0,3.44,0,6.87,0,10.31,0,1.14,0,2.29,0,3.43a1.52,1.52,0,0,1-.81,1.55,1.77,1.77,0,0,1-1.9-.28,2.57,2.57,0,0,1-.6-.67Q5.15,16.44.35,9.22C.26,9.08.18,8.94,0,8.63Z"/><path class="cls-1" d="M29.18,16.57c0-2.4,0-4.8,0-7.2,0-.55.13-.79.72-.75a14.43,14.43,0,0,0,1.86,0c.51,0,.69.15.68.67,0,2,0,3.94,0,5.91v8.67c0,.76,0,.76-.79.77H29.94c-.75,0-.76,0-.76-.74Z"/><path class="cls-1" d="M66.45,8.64c1,0,1.88,0,2.82,0,.11,0,.25.22.33.36a1,1,0,0,1,0,.39V23.87c0,.76,0,.76-.74.76s-1.35,0-2,0c-.34,0-.45-.13-.45-.47q0-7.56,0-15.14A3.67,3.67,0,0,1,66.45,8.64Z"/><path class="cls-1" d="M15.38,16.63c0-2.47,0-4.95,0-7.42,0-.45.14-.61.58-.59.69,0,1.38,0,2.08,0,.39,0,.58.11.58.54q0,7.46,0,14.91c0,.41-.14.58-.56.57-.69,0-1.38,0-2.08,0-.48,0-.6-.19-.6-.63C15.39,21.55,15.38,19.09,15.38,16.63Z"/><path class="cls-1" d="M97.25,21.3V18c0-.79,0-.8.77-.8s.86,0,.86.87c0,1.82,0,3.64,0,5.46,0,.41,0,.88-.46,1.05a1,1,0,0,1-1.18-.45c-.87-1.11-1.72-2.23-2.57-3.34-.08-.11-.17-.2-.32-.4a3.13,3.13,0,0,0-.07.49c0,1.05,0,2.1,0,3.15,0,.41-.15.56-.56.57-1.09,0-1.09,0-1.09-1V18.62c0-.15,0-.3,0-.45,0-.39.11-.76.55-.89a1,1,0,0,1,1.09.39c.84,1.08,1.67,2.17,2.5,3.26l.34.41Z"/><path class="cls-1" d="M14.49,4.72A2.47,2.47,0,0,1,17,2.2a2.56,2.56,0,0,1,0,5.11A2.48,2.48,0,0,1,14.49,4.72Z"/><path class="cls-1" d="M33.37,28.67a2.47,2.47,0,0,1-2.52,2.53,2.52,2.52,0,0,1-2.56-2.51,2.55,2.55,0,0,1,2.51-2.58A2.5,2.5,0,0,1,33.37,28.67Z"/><path class="cls-1" d="M103.41,24.6a3.74,3.74,0,0,1-3.54-5.52,3.46,3.46,0,0,1,2.91-1.84c.23,0,.45,0,.68,0,1,0,.94,0,1,1,0,.53-.14.76-.7.71a3.76,3.76,0,0,0-1.11.08,1.89,1.89,0,0,0-1.49,2,1.79,1.79,0,0,0,1.51,1.89,6.66,6.66,0,0,0,1.34.08c.31,0,.45.13.44.44v.22C104.43,24.6,104.43,24.6,103.41,24.6Z"/><path class="cls-1" d="M91.9,20.89c0,1,0,2.06,0,3.09,0,.46-.14.63-.61.63-1.06,0-1.06,0-1.06-1,0-1.91,0-3.83,0-5.74,0-.49.14-.7.64-.65a1.7,1.7,0,0,0,.39,0c.5-.07.66.16.64.64C91.88,18.86,91.9,19.88,91.9,20.89Z"/></g></g></g></g></svg>