<?xml version="1.0" encoding="UTF-8" standalone="no"?>
<!-- Created with Inkscape (http://www.inkscape.org/) -->

<svg
   xmlns:dc="http://purl.org/dc/elements/1.1/"
   xmlns:cc="http://creativecommons.org/ns#"
   xmlns:rdf="http://www.w3.org/1999/02/22-rdf-syntax-ns#"
   xmlns:svg="http://www.w3.org/2000/svg"
   xmlns="http://www.w3.org/2000/svg"
   xmlns:sodipodi="http://sodipodi.sourceforge.net/DTD/sodipodi-0.dtd"
   xmlns:inkscape="http://www.inkscape.org/namespaces/inkscape"
   width="238.03387"
   height="48.304371"
   viewBox="0 0 238.03388 48.304372"
   id="svg25799"
   version="1.1"
   inkscape:version="0.91 r13725"
   sodipodi:docname="vistaprint.svg">
  <defs
     id="defs25801">
    <clipPath
       id="clipPath25544"
       clipPathUnits="userSpaceOnUse">
      <path
         inkscape:connector-curvature="0"
         id="path25546"
         d="m 0,0 575.433,0 0,360 L 0,360 0,0 Z" />
    </clipPath>
    <clipPath
       id="clipPath25530"
       clipPathUnits="userSpaceOnUse">
      <path
         inkscape:connector-curvature="0"
         id="path25532"
         d="m 0,0 575.433,0 0,360 L 0,360 0,0 Z" />
    </clipPath>
    <clipPath
       id="clipPath25492"
       clipPathUnits="userSpaceOnUse">
      <path
         inkscape:connector-curvature="0"
         id="path25494"
         d="m 0,0 575.433,0 0,360 L 0,360 0,0 Z" />
    </clipPath>
  </defs>
  <sodipodi:namedview
     id="base"
     pagecolor="#ffffff"
     bordercolor="#666666"
     borderopacity="1.0"
     inkscape:pageopacity="0.0"
     inkscape:pageshadow="2"
     inkscape:zoom="3.6871503"
     inkscape:cx="122.7235"
     inkscape:cy="23.902185"
     inkscape:document-units="px"
     inkscape:current-layer="layer1"
     showgrid="false"
     fit-margin-top="0"
     fit-margin-left="0"
     fit-margin-right="0"
     fit-margin-bottom="0"
     units="px"
     inkscape:window-width="1280"
     inkscape:window-height="744"
     inkscape:window-x="-4"
     inkscape:window-y="-4"
     inkscape:window-maximized="1" />
  <metadata
     id="metadata25804">
    <rdf:RDF>
      <cc:Work
         rdf:about="">
        <dc:format>image/svg+xml</dc:format>
        <dc:type
           rdf:resource="http://purl.org/dc/dcmitype/StillImage" />
        <dc:title></dc:title>
      </cc:Work>
    </rdf:RDF>
  </metadata>
  <g
     inkscape:label="Layer 1"
     inkscape:groupmode="layer"
     id="layer1"
     transform="translate(-274.41935,-619.38859)">
    <g
       id="g25484"
       transform="matrix(1.25,0,0,-1.25,350.2716,634.25721)">
      <path
         d="M 0,0 -5.082,-10.525 -10.162,0 -13.285,0 -5.082,-17.059 3.12,0 0,0 Z"
         style="fill:#2e3d4b;fill-opacity:1;fill-rule:nonzero;stroke:none"
         id="path25486"
         inkscape:connector-curvature="0" />
    </g>
    <g
       id="g25488"
       transform="matrix(1.25,0,0,-1.25,219.74823,804.71734)">
      <g
         id="g25490"
         clip-path="url(#clipPath25492)">
        <g
           id="g25496"
           transform="translate(118.5529,124.1067)">
          <path
             d="m 0,0 c 1.101,-1.351 2.311,-2.241 4.265,-2.241 1.743,0 3.662,0.748 3.662,2.559 0,1.779 -1.778,2.24 -3.554,2.631 -3.163,0.712 -5.865,1.385 -5.865,4.836 0,3.233 3.126,4.901 6.219,4.901 2.346,0 4.515,-0.887 5.652,-3.018 L 8.068,8.139 c -0.709,1.173 -1.884,1.99 -3.518,1.99 -1.529,0 -3.271,-0.745 -3.271,-2.309 0,-1.387 1.991,-1.991 4.195,-2.418 2.951,-0.568 5.438,-1.635 5.438,-4.976 0,-3.768 -3.342,-5.223 -6.647,-5.223 -2.808,0 -4.834,0.744 -6.469,3.09 L 0,0 Z"
             style="fill:#2e3d4b;fill-opacity:1;fill-rule:nonzero;stroke:none"
             id="path25498"
             inkscape:connector-curvature="0" />
        </g>
        <g
           id="g25500"
           transform="translate(142.2472,134.0216)">
          <path
             d="m 0,0 -4.903,0 0,-8.316 c 0,-2.133 0.035,-3.839 2.489,-3.839 0.817,0 1.706,0.179 2.451,0.569 l 0.106,-2.523 c -0.958,-0.426 -2.203,-0.603 -3.235,-0.603 -3.944,0 -4.584,2.131 -4.584,5.579 l 0,9.133 -3.624,0 0,2.347 3.624,0 0,4.727 2.773,0 0,-4.727 L 0,2.347 0,0 Z"
             style="fill:#2e3d4b;fill-opacity:1;fill-rule:nonzero;stroke:none"
             id="path25502"
             inkscape:connector-curvature="0" />
        </g>
        <g
           id="g25504"
           transform="translate(233.821,134.0216)">
          <path
             d="m 0,0 -4.903,0 0,-8.316 c 0,-2.133 0.033,-3.839 2.488,-3.839 0.817,0 1.706,0.179 2.451,0.569 l 0.107,-2.523 c -0.959,-0.426 -2.204,-0.603 -3.235,-0.603 -3.947,0 -4.584,2.131 -4.584,5.579 l 0,9.133 -3.626,0 0,2.347 3.626,0 0,4.727 2.773,0 0,-4.727 L 0,2.347 0,0 Z"
             style="fill:#2e3d4b;fill-opacity:1;fill-rule:nonzero;stroke:none"
             id="path25506"
             inkscape:connector-curvature="0" />
        </g>
        <g
           id="g25508"
           transform="translate(165.7251,136.3681)">
          <path
             d="m 0,0 2.772,0 0,-2.416 0.07,0 c 1.53,1.777 3.555,2.841 5.972,2.841 5.225,0 8.743,-3.694 8.743,-8.743 0,-4.974 -3.66,-8.742 -8.317,-8.742 -2.984,0 -5.367,1.492 -6.398,3.376 l -0.07,0 0,-9.314 -2.772,0 L 0,0 Z m 8.672,-14.501 c 3.589,0 5.901,2.702 5.901,6.183 0,3.484 -2.312,6.186 -5.901,6.186 -3.589,0 -5.9,-2.702 -5.9,-6.186 0,-3.481 2.311,-6.183 5.9,-6.183"
             style="fill:#2e3d4b;fill-opacity:1;fill-rule:nonzero;stroke:none"
             id="path25510"
             inkscape:connector-curvature="0" />
        </g>
        <g
           id="g25512"
           transform="translate(161.6959,136.3681)">
          <path
             d="m 0,0 -2.771,0 0,-2.416 -0.07,0 c -1.529,1.777 -3.556,2.841 -5.972,2.841 -5.225,0 -8.743,-3.694 -8.743,-8.743 0,-4.974 3.661,-8.742 8.317,-8.742 2.985,0 5.368,1.492 6.398,3.376 l 0.07,0 0,-2.95 2.771,0 L 0,0 Z m -8.669,-14.501 c -3.591,0 -5.901,2.702 -5.901,6.183 0,3.484 2.31,6.186 5.901,6.186 3.589,0 5.898,-2.702 5.898,-6.186 0,-3.481 -2.309,-6.183 -5.898,-6.183"
             style="fill:#2e3d4b;fill-opacity:1;fill-rule:nonzero;stroke:none"
             id="path25514"
             inkscape:connector-curvature="0" />
        </g>
        <g
           id="g25516"
           transform="translate(186.1055,132.4233)">
          <path
             d="m 0,0 c 0,1.529 -0.144,2.843 -0.144,3.945 l 2.631,0 c 0,-0.89 0.071,-1.813 0.071,-2.737 l 0.07,0 C 3.375,2.843 5.435,4.37 8.174,4.37 8.528,4.37 8.92,4.336 9.31,4.193 L 9.131,1.386 C 8.671,1.529 8.135,1.598 7.639,1.598 4.263,1.598 2.77,-0.781 2.77,-4.586 l 0,-8.101 -2.77,0 L 0,0 Z"
             style="fill:#2e3d4b;fill-opacity:1;fill-rule:nonzero;stroke:none"
             id="path25518"
             inkscape:connector-curvature="0" />
        </g>
        <g
           id="g25520"
           transform="translate(206.0062,132.4233)">
          <path
             d="m 0,0 c 0,1.529 -0.143,2.843 -0.143,3.945 l 2.63,0 c 0,-0.89 0.072,-1.813 0.072,-2.737 l 0.071,0 c 0.746,1.635 2.807,3.162 5.545,3.162 4.372,0 6.326,-2.772 6.326,-6.788 l 0,-10.269 -2.774,0 0,9.986 c 0,2.772 -1.207,4.513 -3.8,4.513 -3.591,0 -5.155,-2.593 -5.155,-6.398 l 0,-8.101 -2.772,0 L 0,0 Z"
             style="fill:#2e3d4b;fill-opacity:1;fill-rule:nonzero;stroke:none"
             id="path25522"
             inkscape:connector-curvature="0" />
        </g>
      </g>
    </g>
    <path
       d="m 358.10198,634.25734 3.465,0 0,20.79 -3.465,0 0,-20.79 z"
       style="fill:#2e3d4b;fill-opacity:1;fill-rule:nonzero;stroke:none"
       id="path25524"
       inkscape:connector-curvature="0" />
    <g
       id="g25526"
       transform="matrix(1.25,0,0,-1.25,219.74823,804.71734)">
      <g
         id="g25528"
         clip-path="url(#clipPath25530)">
        <g
           id="g25534"
           transform="translate(113.7059,139.6368)">
          <path
             d="m 0,0 c 0,-0.905 -0.733,-1.637 -1.637,-1.637 -0.904,0 -1.637,0.732 -1.637,1.637 0,0.904 0.733,1.637 1.637,1.637 C -0.733,1.637 0,0.904 0,0"
             style="fill:#2e3d4b;fill-opacity:1;fill-rule:nonzero;stroke:none"
             id="path25536"
             inkscape:connector-curvature="0" />
        </g>
      </g>
    </g>
    <path
       d="m 468.06448,634.25734 3.465,0 0,20.79 -3.465,0 0,-20.79 z"
       style="fill:#2e3d4b;fill-opacity:1;fill-rule:nonzero;stroke:none"
       id="path25538"
       inkscape:connector-curvature="0" />
    <g
       id="g25548"
       transform="matrix(1.25,0,0,-1.25,471.84373,630.17134)">
      <path
         d="m 0,0 c 0,-0.905 -0.734,-1.637 -1.637,-1.637 -0.904,0 -1.638,0.732 -1.638,1.637 0,0.904 0.734,1.637 1.638,1.637 C -0.734,1.637 0,0.904 0,0"
         style="fill:#2e3d4b;fill-opacity:1;fill-rule:nonzero;stroke:none"
         id="path25550"
         inkscape:connector-curvature="0" />
    </g>
    <g
       id="g25556"
       transform="matrix(1.25,0,0,-1.25,302.2706,667.44296)">
      <path
         d="m 0,0 9.714,16.825 -19.431,0 L 0,0 Z"
         style="fill:#295e9d;fill-opacity:1;fill-rule:nonzero;stroke:none"
         id="path25558"
         inkscape:connector-curvature="0" />
    </g>
    <g
       id="g25560"
       transform="matrix(1.25,0,0,-1.25,290.12485,646.41046)">
      <path
         d="M 0,0 19.431,0 9.717,16.827 0,0 Z"
         style="fill:#44a2dd;fill-opacity:1;fill-rule:nonzero;stroke:none"
         id="path25562"
         inkscape:connector-curvature="0" />
    </g>
    <g
       id="g25564"
       transform="matrix(1.25,0,0,-1.25,298.9581,619.63859)">
      <path
         d="M 0,0 -19.431,0 -7.066,-21.417 2.649,-4.59 0,0 Z"
         style="fill:#73d2f2;fill-opacity:1;fill-rule:nonzero;stroke:none"
         id="path25566"
         inkscape:connector-curvature="0" />
    </g>
    <g
       id="g25568"
       transform="matrix(1.25,0,0,-1.25,305.58185,619.63859)">
      <path
         d="M 0,0 -2.649,-4.59 7.065,-21.417 19.431,0 0,0 Z"
         style="fill:#295e9d;fill-opacity:1;fill-rule:nonzero;stroke:none"
         id="path25570"
         inkscape:connector-curvature="0" />
    </g>
  </g>
</svg>
