<svg id="Layer_1" data-name="Layer 1" xmlns="http://www.w3.org/2000/svg" viewBox="0 0 1381.66 588.54"><defs><style>.cls-1{fill:none;}.cls-10,.cls-11,.cls-2,.cls-9{fill:#fff;}.cls-3,.cls-9{opacity:0.32;}.cls-4{opacity:0.53;}.cls-5{opacity:0.64;}.cls-6{opacity:0.47;}.cls-7{opacity:0.74;}.cls-8{opacity:0.76;}.cls-10{opacity:0.61;}.cls-11{opacity:0.6;}</style></defs><title>technica_HeroStarsr</title><rect class="cls-1" x="285.32" y="178.04" width="8.79" height="8.79" transform="translate(-52.42 52.36) rotate(-10.53)"/><circle class="cls-2" cx="265.75" cy="178.8" r="4.39"/><rect class="cls-1" x="167.84" y="180.61" width="9.63" height="9.63" transform="translate(-89.33 94.96) rotate(-27)"/><circle class="cls-2" cx="148.69" cy="181.79" r="4.81"/><g class="cls-3"><rect class="cls-1" x="280.85" y="386.8" width="7.26" height="7.26" transform="translate(-205.28 258.73) rotate(-38.55)"/><circle class="cls-2" cx="260.51" cy="386.8" r="3.63"/><rect class="cls-1" x="246.76" y="340.33" width="6.55" height="6.55" transform="translate(-174.92 199.3) rotate(-34.63)"/><circle class="cls-2" cx="226.07" cy="339.97" r="3.27"/><rect class="cls-1" x="699.76" y="355.58" width="9.51" height="9.51" transform="translate(264.05 1029.54) rotate(-85.33)"/><circle class="cls-2" cx="680.55" cy="356.7" r="4.76"/><rect class="cls-1" x="776.99" y="359.6" width="8.69" height="8.69" transform="translate(329.1 1108.32) rotate(-85.18)"/><circle class="cls-2" cx="757.37" cy="360.31" r="4.35"/><rect class="cls-1" x="820.05" y="397.59" width="3.3" height="3.3" transform="matrix(0.09, -1, 1, 0.09, 328.97, 1179.74)"/><circle class="cls-2" cx="797.74" cy="395.61" r="1.65"/><rect class="cls-1" x="867.51" y="381.86" width="8.95" height="8.95" transform="translate(386.23 1217.18) rotate(-84.94)"/><circle class="cls-2" cx="848.02" cy="382.7" r="4.47"/><rect class="cls-1" x="907.72" y="280.23" width="7.36" height="7.36" transform="translate(40.86 721.37) rotate(-44.82)"/><circle class="cls-2" cx="887.43" cy="280.28" r="3.68"/><rect class="cls-1" x="851.67" y="267.61" width="7.35" height="7.35" transform="translate(19.98 650.86) rotate(-42.88)"/><circle class="cls-2" cx="831.38" cy="267.66" r="3.67"/><rect class="cls-1" x="826.61" y="241.12" width="4.04" height="4.04" transform="translate(-52.28 132.81) rotate(-9.26)"/><circle class="cls-2" cx="804.66" cy="239.51" r="2.02"/><rect class="cls-1" x="858.67" y="231.25" width="3.83" height="3.83" transform="translate(437.83 1026.98) rotate(-78.59)"/><circle class="cls-2" cx="836.61" cy="229.53" r="1.91"/><rect class="cls-1" x="897.97" y="263.8" width="10.16" height="10.16" transform="translate(397.83 1075.3) rotate(-75.87)"/><circle class="cls-2" cx="879.09" cy="265.25" r="5.08"/><rect class="cls-1" x="950.19" y="267.09" width="8.79" height="8.79" transform="translate(412.31 1114.2) rotate(-74.39)"/><circle class="cls-2" cx="930.62" cy="267.85" r="4.4"/><rect class="cls-1" x="997.47" y="309.19" width="10.15" height="10.15" transform="translate(393.61 1183.37) rotate(-73.57)"/><circle class="cls-2" cx="978.58" cy="310.63" r="5.08"/><rect class="cls-1" x="1072.67" y="332.92" width="7.06" height="7.06" transform="translate(417.91 1265.05) rotate(-73.13)"/><circle class="cls-2" cx="1052.24" cy="332.82" r="3.53"/><rect class="cls-1" x="1142.66" y="341.58" width="7.89" height="7.89" transform="translate(455.5 1336.39) rotate(-72.92)"/><circle class="cls-2" cx="1122.64" cy="341.9" r="3.95"/><rect class="cls-1" x="1185.15" y="307.27" width="4.09" height="4.09" transform="translate(502.57 1339.44) rotate(-72.02)"/><circle class="cls-2" cx="1163.23" cy="305.69" r="2.05"/><rect class="cls-1" x="1139.42" y="282.5" width="6.5" height="6.5" transform="translate(494.2 1280.79) rotate(-72.02)"/><circle class="cls-2" cx="1118.7" cy="282.12" r="3.25"/><rect class="cls-1" x="1102.89" y="259.27" width="4.79" height="4.79" transform="translate(491.04 1228.44) rotate(-72.01)"/><circle class="cls-2" cx="1081.32" cy="258.03" r="2.39"/><rect class="cls-1" x="1023.59" y="263.37" width="7.33" height="7.33" transform="translate(431.57 1157.66) rotate(-71.98)"/><circle class="cls-2" cx="1003.29" cy="263.4" r="3.67"/><rect class="cls-1" x="964.52" y="240.6" width="7.41" height="7.41" transform="translate(411.59 1085.3) rotate(-71.92)"/><circle class="cls-2" cx="944.26" cy="240.67" r="3.71"/><rect class="cls-1" x="924.11" y="234.32" width="4.38" height="4.38" transform="translate(391.6 1041.04) rotate(-72.03)"/><circle class="cls-2" cx="902.33" cy="232.88" r="2.19"/><rect class="cls-1" x="928.68" y="249.79" width="5.51" height="5.51" transform="matrix(0.3, -0.96, 0.96, 0.3, 391.08, 1064.21)"/><circle class="cls-2" cx="907.47" cy="248.92" r="2.75"/><rect class="cls-1" x="961.64" y="254.82" width="6.6" height="6.6" transform="translate(407.79 1099.16) rotate(-72.71)"/><circle class="cls-2" cx="940.98" cy="254.49" r="3.3"/><rect class="cls-1" x="1001.1" y="291.98" width="8.13" height="8.13" transform="translate(399.07 1163.69) rotate(-72.66)"/><circle class="cls-2" cx="981.2" cy="292.41" r="4.06"/><rect class="cls-1" x="1044.55" y="270.21" width="7.34" height="7.34" transform="translate(450.45 1189.23) rotate(-72.66)"/><circle class="cls-2" cx="1024.25" cy="270.25" r="3.67"/><rect class="cls-1" x="1079.09" y="281.96" width="5.05" height="5.05" transform="translate(463.33 1228.28) rotate(-72.64)"/><circle class="cls-2" cx="1057.65" cy="280.86" r="2.52"/><rect class="cls-1" x="1096.93" y="334.07" width="6.37" height="6.37" transform="translate(425.94 1282.96) rotate(-72.64)"/><circle class="cls-2" cx="1076.15" cy="333.63" r="3.19"/><rect class="cls-1" x="1136.95" y="328.67" width="7.29" height="7.29" transform="translate(458.85 1317.99) rotate(-72.62)"/><circle class="cls-2" cx="1116.64" cy="328.69" r="3.65"/><rect class="cls-1" x="1193.63" y="324.75" width="7.51" height="7.51" transform="translate(502.31 1369.51) rotate(-72.62)"/><circle class="cls-2" cx="1173.42" cy="324.87" r="3.76"/><rect class="cls-1" x="1174.43" y="264.6" width="5.85" height="5.85" transform="matrix(0.31, -0.95, 0.95, 0.31, 535.21, 1300.99)"/><circle class="cls-2" cx="1153.39" cy="263.89" r="2.92"/><rect class="cls-1" x="1100.33" y="275.84" width="7.15" height="7.15" transform="translate(468.32 1236.3) rotate(-71.72)"/><circle class="cls-2" cx="1079.94" cy="275.78" r="3.57"/><rect class="cls-1" x="1053.11" y="248.05" width="9.14" height="9.14" transform="translate(451.76 1167.59) rotate(-71.08)"/><circle class="cls-2" cx="1033.71" cy="248.99" r="4.57"/><rect class="cls-1" x="1025.08" y="222.77" width="7.91" height="7.91" transform="translate(456.9 1123) rotate(-71.08)"/><circle class="cls-2" cx="1005.07" cy="223.1" r="3.96"/><rect class="cls-1" x="977.92" y="236.11" width="9.6" height="9.6" transform="translate(392.44 1075.77) rotate(-69.74)"/><circle class="cls-2" cx="958.75" cy="237.28" r="4.8"/><rect class="cls-1" x="954.27" y="253.75" width="5.27" height="5.27" transform="translate(0.16 586.4) rotate(-34.68)"/><circle class="cls-2" cx="932.94" cy="252.75" r="2.64"/><rect class="cls-1" x="1005.67" y="224.29" width="6.32" height="6.32" transform="translate(667.32 1208.01) rotate(-84.82)"/><circle class="cls-2" cx="984.86" cy="223.82" r="3.16"/><rect class="cls-1" x="1053.31" y="245.39" width="9.74" height="9.74" transform="translate(663.53 1268.87) rotate(-83.37)"/><circle class="cls-2" cx="1034.21" cy="246.63" r="4.87"/><rect class="cls-1" x="1118.6" y="258.24" width="8.26" height="8.26" transform="translate(700.59 1340.79) rotate(-82.95)"/><circle class="cls-2" cx="1098.77" cy="258.74" r="4.13"/><rect class="cls-1" x="1164.43" y="248.08" width="6.44" height="6.44" transform="translate(750.98 1375.65) rotate(-82.95)"/><circle class="cls-2" cx="1143.68" cy="247.67" r="3.22"/><rect class="cls-1" x="1217.28" y="282.79" width="3.85" height="3.85" transform="matrix(0.13, -0.99, 0.99, 0.13, 758.26, 1454.36)"/><circle class="cls-2" cx="1195.24" cy="281.09" r="1.93"/><rect class="cls-1" x="1286.51" y="279.92" width="4.91" height="4.91" transform="translate(819.02 1520.63) rotate(-82.6)"/><circle class="cls-2" cx="1265" cy="278.75" r="2.46"/><rect class="cls-1" x="1356.13" y="303.85" width="3.28" height="3.28" transform="translate(856.05 1608.99) rotate(-82.6)"/><circle class="cls-2" cx="1333.8" cy="301.86" r="1.64"/><rect class="cls-1" x="1374.03" y="242.76" width="6.53" height="6.53" transform="translate(911.43 1569.88) rotate(-81.72)"/><circle class="cls-2" cx="1353.33" cy="242.4" r="3.27"/><rect class="cls-1" x="1338.86" y="243.18" width="3.27" height="3.27" transform="translate(881.14 1532.42) rotate(-81.72)"/><circle class="cls-2" cx="1316.53" cy="241.18" r="1.64"/><rect class="cls-1" x="1272.6" y="201.95" width="3.3" height="3.3" transform="translate(863.56 1431.06) rotate(-81.64)"/><circle class="cls-2" cx="1250.28" cy="199.96" r="1.65"/><rect class="cls-1" x="1236.41" y="197.98" width="5.21" height="5.21" transform="translate(836.43 1393.64) rotate(-81.64)"/><circle class="cls-2" cx="1215.05" cy="196.95" r="2.6"/><rect class="cls-1" x="1197.01" y="224.72" width="7.44" height="7.44" transform="translate(773.06 1378.49) rotate(-81.49)"/><circle class="cls-2" cx="1176.77" cy="224.81" r="3.72"/><rect class="cls-1" x="1119.21" y="181.91" width="5.49" height="5.49" transform="translate(743.95 1261.55) rotate(-81.2)"/><circle class="cls-2" cx="1097.99" cy="181.02" r="2.74"/><rect class="cls-1" x="1053.16" y="181.07" width="7.85" height="7.85" transform="translate(679.45 1194.56) rotate(-80.68)"/><circle class="cls-2" cx="1033.12" cy="181.36" r="3.92"/><rect class="cls-1" x="1015.52" y="193.06" width="7.09" height="7.09" transform="translate(618.23 1160) rotate(-79.63)"/><circle class="cls-2" cx="995.1" cy="192.98" r="3.55"/><rect class="cls-1" x="991.63" y="234.78" width="8.48" height="8.48" transform="translate(-25.2 1.59) rotate(-0.3)"/><circle class="cls-2" cx="971.9" cy="235.39" r="4.24"/><rect class="cls-1" x="1069.79" y="232.37" width="10.21" height="10.21" transform="matrix(0.05, -1, 1, 0.05, 760.25, 1295.59)"/><circle class="cls-2" cx="1050.93" cy="233.85" r="5.1"/><rect class="cls-1" x="1116.12" y="222.58" width="6.88" height="6.88" transform="translate(805.13 1326.98) rotate(-86.68)"/><circle class="cls-2" cx="1095.6" cy="222.38" r="3.44"/><rect class="cls-1" x="1186.59" y="227.4" width="8.55" height="8.55" transform="translate(861.42 1402.15) rotate(-86.42)"/><circle class="cls-2" cx="1166.9" cy="228.04" r="4.28"/><rect class="cls-1" x="1263.28" y="213.19" width="8.5" height="8.5" transform="translate(944.45 1464.58) rotate(-86.28)"/><circle class="cls-2" cx="1243.57" cy="213.8" r="4.25"/><rect class="cls-1" x="1335.33" y="228.85" width="8.82" height="8.82" transform="translate(994.55 1551.05) rotate(-86.21)"/><circle class="cls-2" cx="1315.77" cy="229.63" r="4.41"/><rect class="cls-1" x="1370.81" y="233.4" width="4.35" height="4.35" transform="translate(1023.29 1586.37) rotate(-86.21)"/><circle class="cls-2" cx="1349.01" cy="231.94" r="2.17"/><rect class="cls-1" x="1397.31" y="205.74" width="8.01" height="8.01" transform="translate(1056.03 1586.12) rotate(-85.41)"/><circle class="cls-2" cx="1377.34" cy="206.11" r="4"/><rect class="cls-1" x="1321.45" y="172.59" width="10.45" height="10.45" transform="translate(1019.2 1482.35) rotate(-85.41)"/><circle class="cls-2" cx="1302.71" cy="174.19" r="5.22"/><rect class="cls-1" x="1253.04" y="196.92" width="5.13" height="5.13" transform="matrix(0.08, -1, 1, 0.08, 929.82, 1430.86)"/><circle class="cls-2" cx="1231.64" cy="195.86" r="2.56"/><rect class="cls-1" x="1183.03" y="172.88" width="8.55" height="8.55" transform="translate(885.01 1341.26) rotate(-85.08)"/><circle class="cls-2" cx="1163.34" cy="173.52" r="4.28"/><rect class="cls-1" x="1130.32" y="179.5" width="6.3" height="6.3" transform="translate(822.88 1290.77) rotate(-84.7)"/><circle class="cls-2" cx="1109.51" cy="179.02" r="3.15"/><rect class="cls-1" x="1055.56" y="170.73" width="9.41" height="9.41" transform="translate(751.18 1207.97) rotate(-84.01)"/><circle class="cls-2" cx="1036.3" cy="171.8" r="4.7"/><rect class="cls-1" x="994.26" y="141.96" width="10.11" height="10.11" transform="translate(650.98 1099.96) rotate(-79.64)"/><circle class="cls-2" cx="975.35" cy="143.39" r="5.05"/><rect class="cls-1" x="976.03" y="184.82" width="6.8" height="6.8" transform="translate(-41.88 188.99) rotate(-11.13)"/><circle class="cls-2" cx="955.47" cy="184.59" r="3.4"/><rect class="cls-1" x="1006.91" y="173.77" width="3.7" height="3.7" transform="translate(-36.93 104.79) rotate(-6.11)"/><circle class="cls-2" cx="984.79" cy="171.99" r="1.85"/><rect class="cls-1" x="1050.32" y="166.41" width="6.41" height="6.41" transform="translate(-33.63 74.84) rotate(-4.25)"/><circle class="cls-2" cx="1029.56" cy="165.99" r="3.21"/><rect class="cls-1" x="1120.37" y="181.21" width="7.09" height="7.09" transform="translate(-31.77 52.55) rotate(-2.85)"/><circle class="cls-2" cx="1099.95" cy="181.13" r="3.54"/><rect class="cls-1" x="1188.99" y="193.46" width="4.42" height="4.42" transform="translate(-31.58 50.29) rotate(-2.59)"/><circle class="cls-2" cx="1167.24" cy="192.03" r="2.21"/><rect class="cls-1" x="1253.3" y="163.06" width="9.14" height="9.14" transform="translate(-30.25 53.27) rotate(-2.59)"/><circle class="cls-2" cx="1233.9" cy="164" r="4.57"/><rect class="cls-1" x="1323.69" y="165.71" width="4.74" height="4.74" transform="matrix(1, -0.04, 0.04, 1, -29.93, 53.12)"/><circle class="cls-2" cx="1302.09" cy="164.44" r="2.37"/><rect class="cls-1" x="1308.43" y="106.76" width="3.98" height="3.98" transform="translate(-26.04 25.24) rotate(-1.26)"/><circle class="cls-2" cx="1286.45" cy="105.12" r="1.99"/><rect class="cls-1" x="1266.29" y="116.28" width="8.35" height="8.35" transform="translate(-26.31 24.36) rotate(-1.26)"/><circle class="cls-2" cx="1246.5" cy="116.82" r="4.17"/><rect class="cls-1" x="1211.97" y="105.86" width="10.3" height="10.3" transform="translate(-25.89 20) rotate(-1.11)"/><circle class="cls-2" cx="1193.16" cy="107.38" r="5.15"/><rect class="cls-1" x="1146.7" y="123.12" width="3.95" height="3.95" transform="translate(-25.62 12.58) rotate(-0.81)"/><circle class="cls-2" cx="1124.71" cy="121.47" r="1.98"/><rect class="cls-1" x="1066.96" y="148.24" width="6.39" height="6.39" transform="translate(-24.69 1.58) rotate(-0.28)"/><circle class="cls-2" cx="1046.19" cy="147.8" r="3.2"/><rect class="cls-1" x="1025.72" y="112.07" width="5.5" height="5.5" transform="translate(-24.51 1.38) rotate(-0.28)"/><circle class="cls-2" cx="1004.51" cy="111.19" r="2.75"/><rect class="cls-1" x="986.78" y="124.63" width="10.16" height="10.16" transform="translate(828 1116.56) rotate(-89.41)"/><circle class="cls-2" cx="967.9" cy="126.08" r="5.08"/><rect class="cls-1" x="913.57" y="103.12" width="10.26" height="10.26" transform="translate(719.02 1012.83) rotate(-85.77)"/><circle class="cls-2" cx="894.74" cy="104.62" r="5.13"/><rect class="cls-1" x="879.78" y="134.88" width="6.17" height="6.17" transform="translate(600.24 989.66) rotate(-82.06)"/><circle class="cls-2" cx="858.9" cy="134.34" r="3.09"/><rect class="cls-1" x="857.15" y="105.68" width="3.95" height="3.95" transform="translate(-16.27 261.34) rotate(-17.61)"/><circle class="cls-2" cx="835.16" cy="104.02" r="1.97"/><rect class="cls-1" x="839.79" y="77.74" width="5.71" height="5.71" transform="translate(324.45 764.2) rotate(-59.74)"/><circle class="cls-2" cx="818.68" cy="76.96" r="2.86"/><rect class="cls-1" x="809.32" y="36.09" width="7.24" height="7.24" transform="translate(119.5 498.95) rotate(-37.46)"/><circle class="cls-2" cx="788.97" cy="36.08" r="3.62"/><rect class="cls-1" x="780.85" y="82.06" width="9.5" height="9.5" transform="translate(46.54 419.85) rotate(-31.52)"/><circle class="cls-2" cx="761.63" cy="83.18" r="4.75"/><rect class="cls-1" x="733.5" y="64.07" width="3.53" height="3.53" transform="translate(-4.68 241.99) rotate(-19.21)"/><circle class="cls-2" cx="711.3" cy="62.2" r="1.76"/><rect class="cls-1" x="699.52" y="99.09" width="10.41" height="10.41" transform="translate(-28.18 30.55) rotate(-2.77)"/><circle class="cls-2" cx="680.76" cy="100.67" r="5.2"/><rect class="cls-1" x="649.18" y="102.28" width="6.4" height="6.4" transform="translate(347.74 700.13) rotate(-74.05)"/><circle class="cls-2" cx="628.42" cy="101.85" r="3.2"/><rect class="cls-1" x="576.69" y="59.6" width="6.51" height="6.51" transform="translate(271.21 568.33) rotate(-66.97)"/><circle class="cls-2" cx="555.98" cy="59.23" r="3.26"/><rect class="cls-1" x="520.97" y="46.91" width="5.09" height="5.09" transform="translate(237.24 501.58) rotate(-65.47)"/><circle class="cls-2" cx="499.55" cy="45.83" r="2.55"/><rect class="cls-1" x="478.45" y="19.28" width="7.52" height="7.52" transform="translate(231.81 445.77) rotate(-64.76)"/><circle class="cls-2" cx="458.24" cy="19.4" r="3.76"/><rect class="cls-1" x="428.89" y="4.71" width="6.5" height="6.5" transform="translate(216.73 391.83) rotate(-64.76)"/><circle class="cls-2" cx="408.17" cy="4.33" r="3.25"/><rect class="cls-1" x="426.65" y="72.85" width="3.32" height="3.32" transform="translate(129.43 407.66) rotate(-60.64)"/><circle class="cls-2" cx="404.35" cy="70.87" r="1.66"/><rect class="cls-1" x="508.6" y="79.97" width="5.5" height="5.5" transform="translate(133.75 457.59) rotate(-56.13)"/><circle class="cls-2" cx="487.38" cy="79.09" r="2.75"/><rect class="cls-1" x="547.17" y="117.11" width="4.71" height="4.71" transform="translate(-4.87 302.63) rotate(-31.67)"/><circle class="cls-2" cx="525.56" cy="115.83" r="2.36"/><rect class="cls-1" x="521.31" y="99.02" width="5.87" height="5.87" transform="translate(-32.03 141.61) rotate(-15.65)"/><circle class="cls-2" cx="500.28" cy="98.33" r="2.94"/><rect class="cls-1" x="452.02" y="105.33" width="9.74" height="9.74" transform="translate(-32.49 41.12) rotate(-5.56)"/><circle class="cls-2" cx="432.93" cy="106.57" r="4.87"/><rect class="cls-1" x="376.97" y="129.87" width="8.14" height="8.14" transform="translate(-31.6 20.48) rotate(-3.59)"/><circle class="cls-2" cx="357.08" cy="130.31" r="4.07"/><rect class="cls-1" x="315.84" y="107.21" width="7.35" height="7.35" transform="translate(-28.37 9.99) rotate(-2.43)"/><circle class="cls-2" cx="295.55" cy="107.25" r="3.67"/><rect class="cls-1" x="270.72" y="137.75" width="9.49" height="9.49" transform="translate(-28.16 4.79) rotate(-1.74)"/><circle class="cls-2" cx="251.5" cy="138.86" r="4.74"/><rect class="cls-1" x="225.31" y="119.11" width="5.35" height="5.35" transform="translate(-27.55 3.34) rotate(-1.74)"/><circle class="cls-2" cx="204.02" cy="118.15" r="2.68"/><rect class="cls-1" x="173.78" y="128.7" width="6.66" height="6.66" transform="translate(-27.02 0.57) rotate(-1.35)"/><circle class="cls-2" cx="153.15" cy="128.4" r="3.33"/><rect class="cls-1" x="103.67" y="125.7" width="7.4" height="7.4" transform="translate(-26.55 -1.44) rotate(-1.16)"/><circle class="cls-2" cx="83.4" cy="125.77" r="3.7"/><rect class="cls-1" x="70.41" y="128.12" width="4.02" height="4.02" transform="translate(-26.58 -2.14) rotate(-1.16)"/><circle class="cls-2" cx="48.45" cy="126.5" r="2.01"/><rect class="cls-1" x="24.02" y="137.11" width="4.96" height="4.96" transform="translate(-26.78 -3.07) rotate(-1.16)"/><circle class="cls-2" cx="2.53" cy="135.96" r="2.48"/><rect class="cls-1" x="883.96" y="438.46" width="7.42" height="7.42" transform="translate(-67.78 98.23) rotate(-6.41)"/><circle class="cls-2" cx="863.7" cy="438.54" r="3.71"/><rect class="cls-1" x="851.51" y="432.14" width="4.96" height="4.96" transform="translate(-67.15 94.42) rotate(-6.41)"/><circle class="cls-2" cx="830.02" cy="430.98" r="2.48"/><rect class="cls-1" x="788.42" y="478.62" width="7.36" height="7.36" transform="translate(-73.87 90) rotate(-6.56)"/><circle class="cls-2" cx="768.13" cy="478.67" r="3.68"/><rect class="cls-1" x="721.45" y="481.32" width="4.9" height="4.9" transform="translate(-76.46 86.09) rotate(-6.84)"/><circle class="cls-2" cx="699.94" cy="480.14" r="2.45"/><rect class="cls-1" x="647.32" y="475.1" width="6.7" height="6.7" transform="translate(-79.46 82.88) rotate(-7.3)"/><circle class="cls-2" cx="626.7" cy="474.82" r="3.35"/><rect class="cls-1" x="585.53" y="506.94" width="4.28" height="4.28" transform="matrix(0.99, -0.15, 0.15, 0.99, -94.05, 90.87)"/><circle class="cls-2" cx="563.7" cy="505.45" r="2.14"/><rect class="cls-1" x="527.64" y="480.92" width="7.61" height="7.61" transform="translate(-96.6 90.6) rotate(-9.49)"/><circle class="cls-2" cx="507.48" cy="481.09" r="3.8"/><rect class="cls-1" x="460.89" y="495.06" width="5.41" height="5.41" transform="translate(-105.1 86.75) rotate(-10.24)"/><circle class="cls-2" cx="439.63" cy="494.13" r="2.71"/><rect class="cls-1" x="381.45" y="495.91" width="8.45" height="8.45" transform="translate(-114.58 81.74) rotate(-11.31)"/><circle class="cls-2" cx="361.71" cy="496.5" r="4.22"/><rect class="cls-1" x="343.75" y="534.93" width="6" height="6" transform="translate(-125.01 77.04) rotate(-11.6)"/><circle class="cls-2" cx="322.78" cy="534.3" r="3"/><rect class="cls-1" x="261.34" y="529.55" width="8.81" height="8.81" transform="translate(-127.08 61.63) rotate(-11.74)"/><circle class="cls-2" cx="241.78" cy="530.32" r="4.4"/><rect class="cls-1" x="210.02" y="546.48" width="8.11" height="8.11" transform="translate(-131.53 51.46) rotate(-11.74)"/><circle class="cls-2" cx="190.11" cy="546.9" r="4.05"/><rect class="cls-1" x="876.28" y="256.87" width="4.14" height="4.14" transform="translate(-49.06 105.84) rotate(-7.03)"/><circle class="cls-2" cx="854.38" cy="255.31" r="2.07"/><rect class="cls-1" x="837.87" y="299.87" width="6.17" height="6.17" transform="translate(-53.44 95.99) rotate(-6.66)"/><circle class="cls-2" cx="816.99" cy="299.32" r="3.08"/><rect class="cls-1" x="780.19" y="297.38" width="5.22" height="5.22" transform="translate(-50.87 79.21) rotate(-5.96)"/><circle class="cls-2" cx="758.84" cy="296.36" r="2.61"/><rect class="cls-1" x="696.24" y="283.79" width="10.5" height="10.5" transform="translate(-40.26 39.6) rotate(-3.49)"/><circle class="cls-2" cx="677.52" cy="285.41" r="5.25"/><rect class="cls-1" x="659.75" y="275.2" width="5.21" height="5.21" transform="translate(-39.65 37.2) rotate(-3.49)"/><circle class="cls-2" cx="638.39" cy="274.18" r="2.61"/><rect class="cls-1" x="608.38" y="319.03" width="3.22" height="3.22" transform="translate(-41.2 31.56) rotate(-3.26)"/><circle class="cls-2" cx="586.03" cy="317.01" r="1.61"/><rect class="cls-1" x="664.99" y="184.63" width="10.18" height="10.18" transform="translate(-48.66 138.18) rotate(-11.86)"/><circle class="cls-2" cx="646.11" cy="186.09" r="5.09"/><rect class="cls-1" x="588.37" y="187.04" width="4.62" height="4.62" transform="translate(-45.94 88.71) rotate(-8.78)"/><circle class="cls-2" cx="566.71" cy="185.71" r="2.31"/><rect class="cls-1" x="514.98" y="210.33" width="4.52" height="4.52" transform="translate(-30.36 12.66) rotate(-1.79)"/><circle class="cls-2" cx="493.28" cy="208.95" r="2.26"/><rect class="cls-1" x="470.08" y="215.95" width="9.97" height="9.97" transform="translate(-27.71 4.59) rotate(-0.99)"/><circle class="cls-2" cx="451.1" cy="217.3" r="4.99"/><rect class="cls-1" x="817.6" y="61.65" width="9.03" height="9.03" transform="translate(-16.14 193.65) rotate(-13.75)"/><circle class="cls-2" cx="798.15" cy="62.54" r="4.52"/><rect class="cls-1" x="775.18" y="92.99" width="4.1" height="4.1" transform="translate(-24.11 185.23) rotate(-13.85)"/><circle class="cls-2" cx="753.26" cy="91.41" r="2.05"/><rect class="cls-1" x="728.08" y="116.41" width="3.74" height="3.74" transform="translate(-30.49 181.17) rotate(-14.37)"/><circle class="cls-2" cx="705.99" cy="114.65" r="1.87"/><rect class="cls-1" x="674.06" y="99.28" width="4.28" height="4.28" transform="translate(-27.71 169.97) rotate(-14.59)"/><circle class="cls-2" cx="652.24" cy="97.79" r="2.14"/><rect class="cls-1" x="631.71" y="145.67" width="6.18" height="6.18" transform="translate(-40.94 162.25) rotate(-14.69)"/><circle class="cls-2" cx="610.84" cy="145.13" r="3.09"/><rect class="cls-1" x="722.33" y="497.93" width="8.68" height="8.68" transform="translate(-59.29 51.76) rotate(-4.26)"/><circle class="cls-2" cx="702.7" cy="498.64" r="4.34"/><rect class="cls-1" x="670.9" y="531.19" width="9.37" height="9.37" transform="translate(-61.73 47.77) rotate(-4.24)"/><circle class="cls-2" cx="651.61" cy="532.24" r="4.68"/><rect class="cls-1" x="599.71" y="539.1" width="3.23" height="3.23" transform="translate(-60.5 40) rotate(-4.03)"/><circle class="cls-2" cx="577.35" cy="537.08" r="1.61"/><rect class="cls-1" x="516.05" y="508.49" width="9.19" height="9.19" transform="translate(-33.79 6.54) rotate(-1.11)"/><circle class="cls-2" cx="496.68" cy="509.46" r="4.6"/><rect class="cls-1" x="446.35" y="533.64" width="10.31" height="10.31" transform="translate(-136.82 954.27) rotate(-86.64)"/><circle class="cls-2" cx="427.54" cy="535.16" r="5.16"/><rect class="cls-1" x="456.81" y="578.63" width="7.9" height="7.9" transform="matrix(0.27, -0.96, 0.96, 0.27, -249.06, 864.09)"/><circle class="cls-2" cx="436.79" cy="578.95" r="3.95"/><rect class="cls-1" x="423.54" y="556.15" width="4.38" height="4.38" transform="translate(-142.6 111.24) rotate(-13.51)"/><circle class="cls-2" cx="401.77" cy="554.71" r="2.19"/><rect class="cls-1" x="354.81" y="561.08" width="4.16" height="4.16" transform="translate(-137.8 87.36) rotate(-12.55)"/><circle class="cls-2" cx="332.92" cy="559.53" r="2.08"/><rect class="cls-1" x="295.68" y="586.32" width="5.35" height="5.35" transform="translate(-141.47 72.53) rotate(-12.17)"/><circle class="cls-2" cx="274.39" cy="585.36" r="2.68"/><rect class="cls-1" x="1034.53" y="377.22" width="6.54" height="6.54" transform="translate(546.03 1378.34) rotate(-85.1)"/><circle class="cls-2" cx="1013.83" cy="376.86" r="3.27"/><rect class="cls-1" x="977.87" y="345.6" width="7.51" height="7.51" transform="translate(462.66 1262.58) rotate(-81.23)"/><circle class="cls-2" cx="957.66" cy="345.73" r="3.75"/><rect class="cls-1" x="932.05" y="365.1" width="3.89" height="3.89" transform="translate(-58.75 101.64) rotate(-6.33)"/><circle class="cls-2" cx="910.03" cy="363.41" r="1.95"/><rect class="cls-1" x="886.4" y="354.72" width="3.6" height="3.6" transform="translate(-35.95 27.82) rotate(-2.01)"/><circle class="cls-2" cx="864.23" cy="352.88" r="1.8"/><rect class="cls-1" x="920.37" y="410.57" width="8.67" height="8.67" transform="translate(-25.16 -0.97) rotate(-0.16)"/><circle class="cls-2" cx="900.74" cy="411.27" r="4.34"/><rect class="cls-1" x="851.2" y="368.48" width="5.88" height="5.88" transform="translate(-63.69 106.03) rotate(-7.18)"/><circle class="cls-2" cx="830.17" cy="367.79" r="2.94"/><rect class="cls-1" x="837.76" y="562.2" width="4" height="4" transform="matrix(0.56, -0.83, 0.83, 0.56, -123.65, 936.03)"/><circle class="cls-2" cx="815.8" cy="560.57" r="2"/><rect class="cls-1" x="835.71" y="507.49" width="5.67" height="5.67" transform="translate(-88.83 890.67) rotate(-54.35)"/><circle class="cls-2" cx="814.58" cy="506.69" r="2.83"/><rect class="cls-1" x="869.45" y="482.26" width="10.25" height="10.25" transform="translate(-57.17 906.1) rotate(-54.08)"/><circle class="cls-2" cx="850.61" cy="483.76" r="5.13"/><rect class="cls-1" x="725.72" y="414.21" width="7.87" height="7.87" transform="translate(108.71 1006.84) rotate(-74.59)"/><circle class="cls-2" cx="705.69" cy="414.51" r="3.93"/><rect class="cls-1" x="645.52" y="416.68" width="9.9" height="9.9" transform="translate(40.09 924.96) rotate(-73.8)"/><circle class="cls-2" cx="626.5" cy="418" r="4.95"/><rect class="cls-1" x="949.92" y="508.4" width="8.82" height="8.82" transform="translate(-69.98 925.14) rotate(-50.83)"/><circle class="cls-2" cx="930.36" cy="509.17" r="4.41"/><rect class="cls-1" x="972.45" y="435.4" width="5.76" height="5.76" transform="translate(-16.33 889.54) rotate(-49.37)"/><circle class="cls-2" cx="951.37" cy="434.65" r="2.88"/><g class="cls-4"><rect class="cls-1" x="323.65" y="193.63" width="7.48" height="7.48" transform="translate(-54.42 328.21) rotate(-51.68)"/><circle class="cls-2" cx="303.43" cy="193.73" r="3.74"/><rect class="cls-1" x="292.16" y="168.2" width="3.59" height="3.59" transform="translate(-69.52 159.99) rotate(-28.97)"/><circle class="cls-2" cx="269.99" cy="166.36" r="1.79"/><rect class="cls-1" x="198.45" y="145.67" width="5.1" height="5.1" transform="matrix(0.04, -1, 1, 0.04, 21.85, 340.26)"/><circle class="cls-2" cx="177.03" cy="144.59" r="2.55"/></g><g class="cls-4"><rect class="cls-1" x="516.53" y="446.36" width="5.74" height="5.74" transform="translate(-81.97 73.86) rotate(-8.08)"/><circle class="cls-2" cx="495.43" cy="445.6" r="2.87"/><rect class="cls-1" x="494.16" y="463.93" width="10.17" height="10.17" transform="translate(-113.98 814.66) rotate(-73.87)"/><circle class="cls-2" cx="475.27" cy="465.38" r="5.08"/></g><g class="cls-4"><rect class="cls-1" x="562.05" y="140.42" width="7.6" height="7.6" transform="translate(-39.55 86.52) rotate(-8.99)"/><circle class="cls-2" cx="541.88" cy="140.59" r="3.8"/></g><g class="cls-4"><rect class="cls-1" x="370.88" y="167.69" width="5.75" height="5.75" transform="translate(-43.99 49.77) rotate(-7.96)"/><circle class="cls-2" cx="349.79" cy="166.94" r="2.88"/><rect class="cls-1" x="327.08" y="163.38" width="3.43" height="3.43" transform="translate(-62.67 144.04) rotate(-23.95)"/><circle class="cls-2" cx="304.82" cy="161.46" r="1.71"/></g></g><rect class="cls-1" x="1235.76" y="442.82" width="7.04" height="7.04"/><circle class="cls-2" cx="1239.28" cy="446.34" r="3.52"/><g class="cls-5"><rect class="cls-1" x="399.59" y="487.9" width="10.51" height="10.51" transform="translate(-139.59 858.6) rotate(-85.96)"/><circle class="cls-2" cx="380.88" cy="489.53" r="5.26"/><rect class="cls-1" x="346.73" y="549.81" width="4.35" height="4.35" transform="translate(-317.17 667.16) rotate(-68.19)"/><circle class="cls-2" cx="324.94" cy="548.35" r="2.18"/><rect class="cls-1" x="329.4" y="458.41" width="5.55" height="5.55" transform="translate(-186.83 736.77) rotate(-83.66)"/><circle class="cls-2" cx="308.21" cy="457.55" r="2.78"/><rect class="cls-1" x="290.58" y="493.19" width="3.93" height="3.93" transform="translate(-52.78 14.57) rotate(-3.4)"/><circle class="cls-2" cx="268.58" cy="491.53" r="1.97"/><rect class="cls-1" x="263.41" y="503.31" width="9.5" height="9.5" transform="translate(-100.81 45.07) rotate(-9.08)"/><circle class="cls-2" cx="244.19" cy="504.43" r="4.75"/><rect class="cls-1" x="256.29" y="478.46" width="10" height="10" transform="matrix(0.14, -0.99, 0.99, 0.14, -278.79, 668.61)"/><circle class="cls-2" cx="237.32" cy="479.83" r="5"/><rect class="cls-1" x="190.78" y="445.07" width="5.7" height="5.7" transform="translate(-299.91 577.04) rotate(-82.41)"/><circle class="cls-2" cx="169.66" cy="444.28" r="2.85"/></g><g class="cls-6"><rect class="cls-1" x="705.85" y="223.95" width="3.52" height="3.52" transform="translate(273.5 841.3) rotate(-74.17)"/><circle class="cls-2" cx="683.64" cy="222.08" r="1.76"/><rect class="cls-1" x="660.29" y="210.53" width="9.35" height="9.35" transform="translate(248.66 790) rotate(-73.78)"/><circle class="cls-2" cx="641" cy="211.58" r="4.68"/><rect class="cls-1" x="625.1" y="218.36" width="3.81" height="3.81" transform="translate(214.85 756.04) rotate(-73.62)"/><circle class="cls-2" cx="603.04" cy="216.63" r="1.9"/><rect class="cls-1" x="588.57" y="191.64" width="7.28" height="7.28" transform="translate(213.14 704.23) rotate(-73.54)"/><circle class="cls-2" cx="568.24" cy="191.65" r="3.64"/></g><rect class="cls-1" x="415.51" y="88.07" width="5.34" height="5.34"/><circle class="cls-2" cx="418.18" cy="90.74" r="2.67"/><g class="cls-3"><rect class="cls-1" x="470.98" y="97.41" width="3.66" height="3.66" transform="translate(-29.52 28.04) rotate(-3.81)"/><circle class="cls-2" cx="448.84" cy="95.61" r="1.83"/></g><g class="cls-7"><rect class="cls-1" x="628.48" y="391.01" width="7.33" height="7.33" transform="translate(66.07 902.41) rotate(-75.31)"/><circle class="cls-2" cx="608.18" cy="391.04" r="3.67"/><rect class="cls-1" x="550.8" y="356.5" width="4.54" height="4.54" transform="translate(47.17 804.97) rotate(-76)"/><circle class="cls-2" cx="529.11" cy="355.14" r="2.27"/><rect class="cls-1" x="547.1" y="325.11" width="9.46" height="9.46" transform="translate(48.46 754.56) rotate(-72.65)"/><circle class="cls-2" cx="527.86" cy="326.21" r="4.73"/></g><g class="cls-8"><rect class="cls-1" x="920.25" y="147.05" width="9.08" height="9.08" transform="translate(-33.73 78.56) rotate(-5.06)"/><circle class="cls-2" cx="900.82" cy="147.95" r="4.54"/><rect class="cls-1" x="841.33" y="154.57" width="10.26" height="10.26" transform="translate(-35.99 85.32) rotate(-5.97)"/><circle class="cls-2" cx="822.49" cy="156.07" r="5.13"/></g><g class="cls-6"><rect class="cls-1" x="759.48" y="150.05" width="4.03" height="4.03" transform="translate(-32.94 245.22) rotate(-18.45)"/><circle class="cls-2" cx="737.53" cy="148.43" r="2.02"/><rect class="cls-1" x="749.12" y="114.11" width="8.11" height="8.11" transform="translate(45.81 452.47) rotate(-35.23)"/><circle class="cls-2" cx="729.21" cy="114.53" r="4.06"/><rect class="cls-1" x="710.11" y="123.49" width="3.49" height="3.49" transform="translate(499.79 819.48) rotate(-84.89)"/><circle class="cls-2" cx="687.89" cy="121.6" r="1.75"/><rect class="cls-1" x="688.8" y="125.19" width="6.21" height="6.21" transform="translate(-35.15 153.86) rotate(-12.88)"/><circle class="cls-2" cx="667.94" cy="124.66" r="3.1"/><rect class="cls-1" x="697.77" y="213.42" width="4.42" height="4.42" transform="translate(-49.7 113) rotate(-9.35)"/><circle class="cls-2" cx="676.02" cy="212" r="2.21"/><rect class="cls-1" x="700.96" y="181.02" width="9.6" height="9.6" transform="translate(21.49 493.03) rotate(-39.96)"/><circle class="cls-2" cx="681.79" cy="182.19" r="4.8"/><rect class="cls-1" x="660.67" y="183.43" width="5.48" height="5.48" transform="matrix(0.82, -0.58, 0.58, 0.82, -9.52, 414.08)"/><circle class="cls-2" cx="639.44" cy="182.53" r="2.74"/></g><rect class="cls-1" x="726.6" y="577.69" width="9.12" height="9.12" transform="translate(-202.33 793.98) rotate(-51.85)"/><circle class="cls-2" cx="707.19" cy="578.62" r="4.56"/><rect class="cls-1" x="669.44" y="567.82" width="6.01" height="6.01" transform="translate(-205.81 786.75) rotate(-54.74)"/><circle class="cls-2" cx="648.48" cy="567.19" r="3.01"/><rect class="cls-1" x="621.7" y="555.83" width="7.38" height="7.38" transform="translate(-212.9 758.48) rotate(-55.79)"/><circle class="cls-2" cx="601.43" cy="555.88" r="3.69"/><rect class="cls-1" x="596.63" y="532.04" width="4.05" height="4.05" transform="translate(-201.85 731.94) rotate(-56.28)"/><circle class="cls-2" cx="574.69" cy="530.43" r="2.03"/><g class="cls-5"><rect class="cls-1" x="798.01" y="508.07" width="9.48" height="9.48" transform="translate(-131.46 228.42) rotate(-15.43)"/><circle class="cls-2" cx="778.78" cy="509.17" r="4.74"/><rect class="cls-1" x="742.93" y="507.48" width="7.53" height="7.53" transform="translate(-137.48 226.61) rotate(-16.31)"/><circle class="cls-2" cx="722.73" cy="507.61" r="3.76"/><rect class="cls-1" x="710.88" y="517.57" width="6.55" height="6.55" transform="translate(-142.38 220.37) rotate(-16.48)"/><circle class="cls-2" cx="690.19" cy="517.21" r="3.28"/></g><circle class="cls-9" cx="789.06" cy="198.84" r="13.11"/><circle class="cls-2" cx="789.06" cy="198.84" r="2.85"/><circle class="cls-9" cx="844.23" cy="409.12" r="7.98"/><circle class="cls-2" cx="844.23" cy="409.12" r="1.74"/><circle class="cls-9" cx="696.99" cy="537.7" r="7.98"/><circle class="cls-2" cx="696.99" cy="537.7" r="1.74"/><circle class="cls-9" cx="571.25" cy="409.25" r="7.98"/><circle class="cls-2" cx="571.25" cy="409.25" r="1.74"/><circle class="cls-9" cx="391.06" cy="151.51" r="7.98"/><circle class="cls-2" cx="391.06" cy="151.51" r="1.74"/><circle class="cls-10" cx="434.96" cy="490.23" r="3.55"/><circle class="cls-10" cx="739.02" cy="312.7" r="3.55"/><circle class="cls-10" cx="951.32" cy="278.28" r="3.55"/><circle class="cls-10" cx="574.8" cy="196.76" r="3.55"/><circle class="cls-10" cx="734.48" cy="129.73" r="3.55"/><circle class="cls-11" cx="836.25" cy="303.43" r="3.55"/><circle class="cls-11" cx="1006.58" cy="391.63" r="3.55"/></svg>