<?xml version="1.0" encoding="utf-8"?>
<!-- Generator: Adobe Illustrator 22.1.0, SVG Export Plug-In . SVG Version: 6.00 Build 0)  -->
<svg version="1.1" id="Layer_1" xmlns="http://www.w3.org/2000/svg" xmlns:xlink="http://www.w3.org/1999/xlink" x="0px" y="0px"
	 viewBox="0 0 168.9 55.3" style="enable-background:new 0 0 168.9 55.3;" xml:space="preserve">
<style type="text/css">
	.st0{fill:#FFFFFF;}
</style>
<g>
	<path class="st0" d="M73,11.8c-0.3,0-0.6,0.2-0.9,0.5c-0.2,0.3-0.4,0.7-0.4,1.2c0,0.5,0.1,0.9,0.4,1.2c0.3,0.3,0.6,0.5,0.9,0.5
		c0.3,0,0.6-0.2,0.9-0.5c0.2-0.3,0.4-0.7,0.4-1.2c0-0.5-0.1-0.9-0.4-1.2C73.7,11.9,73.4,11.8,73,11.8z"/>
	<path class="st0" d="M79.9,11.8c-0.1,0-0.2,0-0.4,0c0,0.5,0,1,0,1.5c0,0.6,0,1.1,0,1.7c0.2,0,0.3,0,0.5,0c0.5,0,0.9-0.2,1.1-0.5
		c0.2-0.3,0.4-0.7,0.4-1.2c0-0.5-0.1-0.8-0.4-1.1C80.9,11.9,80.4,11.8,79.9,11.8z"/>
	<path class="st0" d="M91.5,11.7c-0.2,0-0.3,0-0.5,0.1c0,0.4,0,1,0,1.5c0.1,0,0.1,0,0.2,0c0.9,0,1.3-0.3,1.3-0.8
		C92.5,12,92.2,11.7,91.5,11.7z"/>
	<path class="st0" d="M87,11.7c0,0.1-0.2,0.8-0.6,2h1.3C87.3,12.5,87.1,11.8,87,11.7L87,11.7z"/>
	<path class="st0" d="M53.5,11.7c0,0.1-0.2,0.8-0.6,2h1.3C53.8,12.5,53.5,11.8,53.5,11.7L53.5,11.7z"/>
	<path class="st0" d="M68,11.7c-0.2,0-0.4,0-0.6,0c0,0.4,0,0.8,0,1.4c0.1,0,0.2,0,0.3,0c0.8,0,1.1-0.3,1.1-0.8
		C68.9,12,68.6,11.7,68,11.7z"/>
	<path class="st0" d="M62.9,11.8c-0.1,0-0.2,0-0.4,0c0,0.5,0,1,0,1.5c0,0.6,0,1.1,0,1.7c0.2,0,0.3,0,0.5,0c0.5,0,0.9-0.2,1.1-0.5
		c0.2-0.3,0.4-0.7,0.4-1.2c0-0.5-0.1-0.8-0.4-1.1C63.9,11.9,63.5,11.8,62.9,11.8z"/>
	<path class="st0" d="M102.4,11.8c-0.3,0-0.6,0.2-0.9,0.5c-0.2,0.3-0.4,0.7-0.4,1.2c0,0.5,0.1,0.9,0.4,1.2c0.3,0.3,0.6,0.5,0.9,0.5
		c0.3,0,0.6-0.2,0.9-0.5c0.2-0.3,0.4-0.7,0.4-1.2c0-0.5-0.1-0.9-0.4-1.2C103,11.9,102.7,11.8,102.4,11.8z"/>
	<path class="st0" d="M95.8,11.7c-0.2,0-0.3,0-0.5,0.1c0,0.4,0,1,0,1.5c0.1,0,0.1,0,0.2,0c0.9,0,1.3-0.3,1.3-0.8
		C96.8,12,96.4,11.7,95.8,11.7z"/>
	<path class="st0" d="M86.5,28.4c-1,0-1.9,0.4-2.6,1.1c-0.7,0.7-1.1,1.7-1.1,2.9c0,1.2,0.4,2.2,1.1,2.9c0.7,0.7,1.6,1.1,2.6,1.1
		c1,0,1.9-0.4,2.6-1.1c0.7-0.7,1.1-1.7,1.1-2.9c0-1.2-0.4-2.2-1.1-2.9C88.4,28.7,87.5,28.4,86.5,28.4z"/>
	<path class="st0" d="M74.3,28.4c-1,0-1.9,0.4-2.6,1.1c-0.7,0.7-1.1,1.7-1.1,2.9c0,1.2,0.4,2.2,1.1,2.9c0.7,0.7,1.6,1.1,2.6,1.1
		c1,0,1.9-0.4,2.6-1.1c0.7-0.7,1.1-1.7,1.1-2.9c0-1.2-0.4-2.2-1.1-2.9C76.1,28.7,75.3,28.4,74.3,28.4z"/>
	<path class="st0" d="M132.5,23.7h-3.5v5.7h3.5c0.9,0,1.6-0.3,2.1-0.9c0.5-0.6,0.8-1.3,0.8-2c0-0.7-0.3-1.4-0.8-2
		C134.1,24,133.4,23.7,132.5,23.7z"/>
	<path class="st0" d="M145.3,33.1c-0.5,0.4-0.8,1-0.8,1.6c0,0.5,0.2,1,0.7,1.3c0.5,0.3,1,0.5,1.6,0.5c0.9,0,1.7-0.3,2.4-1
		c0.7-0.6,1.1-1.4,1.1-2.3c-0.6-0.5-1.5-0.7-2.7-0.7C146.5,32.5,145.8,32.7,145.3,33.1z"/>
	<path class="st0" d="M115.1,28.4c-0.8,0-1.5,0.2-2,0.7c-0.6,0.5-1,1.1-1.2,2h6.5c0-0.6-0.3-1.3-0.9-1.8
		C117,28.7,116.2,28.4,115.1,28.4z"/>
	<path class="st0" d="M98.7,28.4c-1,0-1.8,0.4-2.5,1.1c-0.7,0.7-1.1,1.7-1.1,2.9c0,1.2,0.4,2.2,1.1,2.9c0.7,0.7,1.5,1.1,2.5,1.1
		c1,0,1.8-0.4,2.5-1.1c0.7-0.7,1-1.7,1-3c0-1.2-0.3-2.2-1-3C100.5,28.7,99.7,28.4,98.7,28.4z"/>
	<path class="st0" d="M161.4,0H7.5C3.3,0,0,3.3,0,7.5v40.3c0,4.1,3.3,7.5,7.5,7.5h154c4.1,0,7.5-3.3,7.5-7.5V7.5
		C168.9,3.3,165.6,0,161.4,0z M94.3,11.1h0.6c0.1,0,0.3,0,0.5,0c0.2,0,0.5,0,0.6,0c0.4,0,0.8,0.1,1.1,0.3c0.3,0.2,0.5,0.5,0.5,0.9
		c0,0.6-0.2,1-0.6,1.3c-0.4,0.3-0.9,0.4-1.5,0.4c-0.1,0-0.2,0-0.2,0c0,0.4,0,1,0,1.8h-1c0-0.7,0-1.5,0-2.4
		C94.4,12.4,94.4,11.7,94.3,11.1z M85.6,13.4c0.6-1.4,0.8-2.2,0.8-2.3h1.3c0,0.1,0.3,0.9,0.8,2.3c0.5,1.4,0.8,2.2,0.8,2.3h-1.1
		c0-0.2-0.1-0.6-0.3-1.3h-1.6c-0.2,0.7-0.3,1.2-0.3,1.3h-1.1C84.8,15.6,85.1,14.9,85.6,13.4z M78.6,11.1h0.6c0.1,0,0.3,0,0.5,0
		c0.2,0,0.3,0,0.4,0c0.9,0,1.5,0.2,1.9,0.6c0.4,0.4,0.6,0.9,0.6,1.5c0,0.7-0.2,1.3-0.6,1.8c-0.4,0.5-1,0.8-1.8,0.8
		c-0.4,0-0.8,0-1.4,0c0-0.7,0-1.5,0-2.4C78.6,12.4,78.6,11.7,78.6,11.1z M76.3,11.1h1c0,0.6,0,1.3,0,2.2c0,0.9,0,1.7,0,2.4h-1
		c0-0.7,0-1.5,0-2.4C76.4,12.4,76.4,11.7,76.3,11.1z M71.5,11.7c0.4-0.5,1-0.7,1.6-0.7c0.6,0,1.1,0.2,1.6,0.7c0.4,0.4,0.6,1,0.6,1.7
		c0,0.7-0.2,1.3-0.7,1.8c-0.4,0.5-1,0.7-1.6,0.7c-0.6,0-1.1-0.2-1.6-0.7c-0.4-0.4-0.6-1-0.6-1.7C70.8,12.8,71,12.2,71.5,11.7z
		 M61.6,11.1h0.6c0.1,0,0.3,0,0.5,0c0.2,0,0.3,0,0.4,0c0.9,0,1.5,0.2,1.9,0.6c0.4,0.4,0.6,0.9,0.6,1.5c0,0.7-0.2,1.3-0.6,1.8
		c-0.4,0.5-1,0.8-1.8,0.8c-0.4,0-0.8,0-1.4,0c0-0.7,0-1.5,0-2.4C61.7,12.4,61.6,11.7,61.6,11.1z M56.6,11.1h1.1
		c0,0.1,0.3,0.6,0.9,1.5c0.6,0.9,1,1.6,1.1,1.9h0.1c-0.1-0.5-0.1-1-0.1-1.4c0-0.6,0-1.3,0-2h0.9c0,0.6,0,1.3,0,2.2
		c0,0.9,0,1.7,0,2.4h-0.9c0-0.1-0.3-0.6-1-1.5c-0.7-1-1.1-1.6-1.2-2h-0.1c0.1,0.5,0.1,1,0.1,1.4c0,0.6,0,1.3,0,2.1h-0.9
		c0-0.7,0.1-1.5,0.1-2.4C56.6,12.4,56.6,11.7,56.6,11.1z M52.1,13.4c0.6-1.4,0.8-2.2,0.8-2.3h1.3c0,0.1,0.3,0.9,0.8,2.3
		c0.5,1.4,0.8,2.2,0.8,2.3h-1.1c0-0.2-0.1-0.6-0.3-1.3h-1.6c-0.2,0.7-0.3,1.2-0.3,1.3h-1.1C51.3,15.6,51.6,14.9,52.1,13.4z
		 M14.7,11.8c7.2,4,14.4,8,21.5,12.1c0.3,0.2,0.3,0.3,0.1,0.5c-1.6,1.6-3.2,3.2-4.8,4.8c-0.2,0.2-0.3,0.3-0.5,0
		c-5.7-5.8-11.4-11.6-17.2-17.5c0,0-0.1-0.1-0.2-0.2C14.1,11.5,14.4,11.6,14.7,11.8z M12.5,47.3c-0.6-0.5-0.8-1.1-0.8-1.8
		c0-3.1,0-6.2,0-9.3c0-2.2,0-4.4,0-6.6c0,0,0,0,0,0c0-5.2,0-10.5,0-15.7c0-0.6,0.1-1.2,0.6-1.7c0.2-0.2,0.3-0.2,0.5,0
		c3.5,3.6,7.1,7.2,10.6,10.8c2.3,2.3,4.6,4.7,6.9,7c0.2,0.2,0.2,0.3,0,0.6C24.6,36,19,41.6,13.4,47.2C13.1,47.6,12.8,47.5,12.5,47.3
		z M35.6,35.9c-6.7,3.7-13.4,7.3-20.1,11c-0.1,0.1-0.2,0.2-0.3,0.2c5.2-5.3,10.4-10.5,15.6-15.8c0.3-0.3,0.5-0.3,0.8,0
		c1.3,1.4,2.7,2.7,4,4.1C35.9,35.6,36,35.7,35.6,35.9z M44.4,31c-0.3,0.2-0.7,0.4-1,0.6c-2,1.1-4.1,2.2-6.1,3.4
		c-0.3,0.2-0.4,0.1-0.7-0.1c-1.4-1.5-2.9-3-4.3-4.4c-0.2-0.2-0.2-0.3,0-0.5c1.7-1.7,3.4-3.4,5.1-5c0.2-0.2,0.3-0.2,0.6-0.1
		c2,1.1,4,2.2,6,3.4c0.6,0.3,1.1,0.8,1.1,1.5C45.1,30.3,44.8,30.7,44.4,31z M65.6,36c-1.5,1.6-3.6,2.4-6,2.4c-2.4,0-4.4-0.8-6-2.5
		c-1.7-1.6-2.5-3.7-2.5-6.1s0.8-4.5,2.5-6.1c1.7-1.6,3.7-2.5,6-2.5c1.2,0,2.3,0.2,3.4,0.7c1.1,0.5,1.9,1.1,2.6,1.8L64,25.2
		c-1.1-1.3-2.6-1.9-4.5-1.9c-1.7,0-3.2,0.6-4.5,1.8c-1.3,1.2-1.9,2.8-1.9,4.7c0,1.9,0.6,3.5,1.9,4.7c1.3,1.2,2.8,1.8,4.5,1.8
		c1.8,0,3.4-0.6,4.6-1.8c0.8-0.8,1.3-1.9,1.4-3.3h-6v-2h8c0.1,0.4,0.1,0.8,0.1,1.2C67.6,32.8,66.9,34.6,65.6,36z M67.5,13.9
		c0,0.6,0,1.2,0,1.8h-1c0-0.7,0-1.5,0-2.4c0-0.9,0-1.6,0-2.2h0.6c0.1,0,0.2,0,0.4,0c0.2,0,0.4,0,0.6,0c1.1,0,1.6,0.4,1.6,1.1
		c0,0.6-0.3,1-0.9,1.2v0.1c0.2,0.1,0.4,0.3,0.6,0.6c0.2,0.3,0.4,0.9,0.7,1.7h-1.1c-0.3-0.8-0.5-1.4-0.6-1.6
		c-0.1-0.2-0.4-0.3-0.7-0.3C67.7,13.9,67.6,13.9,67.5,13.9z M78.4,36.7c-1.1,1.1-2.5,1.7-4.1,1.7c-1.7,0-3.1-0.6-4.1-1.7
		c-1.1-1.1-1.6-2.6-1.6-4.3c0-1.7,0.5-3.1,1.6-4.3c1.1-1.1,2.5-1.7,4.1-1.7c1.7,0,3.1,0.6,4.1,1.7c1.1,1.1,1.6,2.6,1.6,4.3
		C80,34.1,79.5,35.6,78.4,36.7z M90.7,36.7c-1.1,1.1-2.5,1.7-4.1,1.7c-1.7,0-3.1-0.6-4.1-1.7c-1.1-1.1-1.6-2.6-1.6-4.3
		c0-1.7,0.5-3.1,1.6-4.3c1.1-1.1,2.5-1.7,4.1-1.7c1.7,0,3.1,0.6,4.1,1.7c1.1,1.1,1.6,2.6,1.6,4.3C92.3,34.1,91.8,35.6,90.7,36.7z
		 M91.3,14c-0.1,0-0.2,0-0.2,0c0,0.4,0,1,0,1.8h-1c0-0.7,0-1.5,0-2.4c0-0.9,0-1.6,0-2.2h0.6c0.1,0,0.3,0,0.5,0c0.2,0,0.5,0,0.6,0
		c0.4,0,0.8,0.1,1.1,0.3c0.3,0.2,0.5,0.5,0.5,0.9c0,0.6-0.2,1-0.6,1.3C92.4,13.8,91.9,14,91.3,14z M104.3,37.5
		c0,1.9-0.6,3.4-1.7,4.4c-1.1,1-2.5,1.5-4.1,1.5c-1.3,0-2.4-0.3-3.3-1c-0.8-0.7-1.4-1.4-1.8-2.3l1.9-0.8c0.2,0.6,0.6,1.1,1.2,1.5
		c0.6,0.4,1.2,0.6,2,0.6c1.2,0,2.1-0.3,2.7-1c0.7-0.7,1-1.6,1-2.8v-1.1h-0.1c-0.4,0.5-0.9,1-1.6,1.4c-0.7,0.4-1.4,0.6-2.3,0.6
		c-1.5,0-2.7-0.6-3.8-1.7c-1.1-1.1-1.6-2.6-1.6-4.3c0-1.7,0.5-3.1,1.6-4.3c1.1-1.1,2.3-1.7,3.8-1.7c0.8,0,1.6,0.2,2.3,0.5
		c0.7,0.4,1.2,0.8,1.6,1.4h0.1v-1.6h2V37.5z M104,15.1c-0.4,0.5-1,0.7-1.6,0.7c-0.6,0-1.1-0.2-1.6-0.7c-0.4-0.4-0.6-1-0.6-1.7
		c0-0.7,0.2-1.3,0.7-1.8c0.4-0.5,1-0.7,1.6-0.7c0.6,0,1.1,0.2,1.6,0.7c0.4,0.4,0.6,1,0.6,1.7C104.7,14,104.4,14.6,104,15.1z
		 M108.4,38.1h-2.1V21.6h2.1V38.1z M109.5,15.7h-0.9c0-0.1-0.3-0.6-1-1.5c-0.7-1-1.1-1.6-1.2-2h-0.1c0.1,0.5,0.1,1,0.1,1.4
		c0,0.6,0,1.3,0,2.1h-0.9c0-0.7,0.1-1.5,0.1-2.4c0-0.9,0-1.6-0.1-2.2h1.1c0,0.1,0.3,0.6,0.9,1.5c0.6,0.9,1,1.6,1.1,1.9h0.1
		c-0.1-0.5-0.1-1-0.1-1.4c0-0.6,0-1.3,0-2h0.9c0,0.6,0,1.3,0,2.2C109.4,14.2,109.4,15,109.5,15.7z M120.6,32.8h-8.9
		c0.1,1.1,0.4,2,1.1,2.7c0.7,0.7,1.5,1,2.4,1c1.5,0,2.5-0.6,3.1-1.9l1.9,0.8c-0.4,0.9-1,1.6-1.8,2.2c-0.8,0.6-1.9,0.9-3.1,0.9
		c-1.7,0-3.1-0.6-4.1-1.7c-1.1-1.1-1.6-2.6-1.6-4.3c0-1.6,0.5-3,1.5-4.2c1-1.2,2.3-1.8,4-1.8c1.7,0,3,0.5,4,1.6
		c1,1.1,1.5,2.5,1.5,4.4L120.6,32.8z M136,30c-1,0.9-2.2,1.4-3.6,1.4h-3.5v6.6h-2.1V21.6h5.6c1.4,0,2.6,0.5,3.6,1.4
		c1,0.9,1.5,2.1,1.5,3.5C137.6,27.9,137,29.1,136,30z M141,38.1h-2.1V21.6h2.1V38.1z M152.3,38.1h-2v-1.6h-0.1
		c-0.8,1.3-2.1,1.9-3.7,1.9c-1.2,0-2.2-0.3-3-1c-0.8-0.7-1.2-1.6-1.2-2.7c0-1.2,0.5-2.2,1.4-2.9c0.9-0.7,2.1-1,3.5-1
		c1.2,0,2.3,0.2,3,0.7v-0.3c0-0.8-0.3-1.5-0.8-2c-0.6-0.5-1.3-0.7-2.1-0.7c-0.6,0-1.2,0.1-1.7,0.4c-0.5,0.3-0.8,0.7-1,1.2l-1.9-0.8
		c0.3-0.7,0.8-1.3,1.5-1.9c0.8-0.6,1.8-0.9,3-0.9c1.4,0,2.6,0.4,3.6,1.3c0.9,0.8,1.4,2,1.4,3.6V38.1z M156.9,43h-2.2l2.6-5.7
		l-4.6-10.5h2.3l3.3,8.1h0l3.3-8.1h2.3L156.9,43z"/>
</g>
</svg>
