<svg id="Layer_1" data-name="Layer 1" xmlns="http://www.w3.org/2000/svg" viewBox="0 0 600 600"><defs><style>.cls-1{fill:#1cafd1;}.cls-2{fill:#78c9d6;}.cls-3{fill:#2b8daf;}</style></defs><title>blueplanet</title><path class="cls-1" d="M593.25,299.24a292.13,292.13,0,0,1-19.73,106,282.91,282.91,0,0,1-20.27,41.93A293.39,293.39,0,0,1,299.66,592.75c-136.34,0-250.89-93-283.92-218.89a292.17,292.17,0,0,1-9.59-74.62c0-3.73.07-7.38.21-11A289,289,0,0,1,11,246.27C35.87,109.38,155.67,5.66,299.66,5.66A293.6,293.6,0,0,1,593.25,299.24Z"/><path class="cls-2" d="M326.84,373.86H15.74a292.17,292.17,0,0,1-9.59-74.62c0-3.73.07-7.38.21-11H326.84c1.38.63,25,11.31,28.55,36C358.28,344.2,346.77,364.69,326.84,373.86Z"/><path class="cls-2" d="M225.87,288.2H6.36A289,289,0,0,1,11,246.27H225.87c.69.28,12.21,5.52,14,17.66C241.25,273.72,235.6,283.72,225.87,288.2Z"/><path class="cls-3" d="M428.62,270c-4.56,2.82-7.66,9.72-7.85,17.46-.21,8.3,3,16,7.85,19.06H552.83c5.25-3.91,8.28-12.64,7.52-21.17-.94-10.55-7.16-15.1-7.52-15.35Z"/><path class="cls-3" d="M148.36,460c-2.78,1.72-4.67,5.92-4.78,10.64-.13,5.06,1.8,9.76,4.78,11.61h75.69c3.2-2.38,5-7.7,4.58-12.9-.57-6.42-4.36-9.19-4.58-9.35Z"/><path class="cls-2" d="M573.52,405.24a282.91,282.91,0,0,1-20.27,41.93H369.53a22.33,22.33,0,0,1,0-41.93Z"/><path class="cls-2" d="M493.59,78.83H273a22.33,22.33,0,0,1,0-41.93H431.52A292.92,292.92,0,0,1,493.59,78.83Z"/><path class="cls-2" d="M162.48,119.33a10.09,10.09,0,0,0,0,18.94H266.8a10.64,10.64,0,0,0,6.31-11c-.79-5.47-6-7.83-6.31-8Z"/></svg>