<?xml version="1.0" encoding="UTF-8"?>
<svg width="1053px" height="507px" viewBox="0 0 1053 507" version="1.1" xmlns="http://www.w3.org/2000/svg" xmlns:xlink="http://www.w3.org/1999/xlink">
    <!-- Generator: Sketch 48.2 (47327) - http://www.bohemiancoding.com/sketch -->
    <title>cloud_and_rocket</title>
    <desc>Created with Sketch.</desc>
    <defs></defs>
    <g id="Artboard" stroke="none" stroke-width="1" fill="none" fill-rule="evenodd" transform="translate(-254.000000, -276.000000)">
        <g id="cloud_and_rocket" transform="translate(254.000000, 233.000000)" fill-rule="nonzero">
            <g transform="translate(-90.000000, 43.000000)">
                <g id="clouds">
                    <path d="M899.04,373.82 C879.82,384.25 862.8,398.44 844.92,411.05 C833.76,418.93 822.26,426.2 809.69,431.55 C803.441108,434.199361 797.003235,436.378744 790.43,438.07 C766.75,444.23 741.77,444.48 716.66,442.96 C700.18,441.96 683.66,440.22 667.38,438.89 C625.69,435.48 583.06,434.96 543.48,421.42 C504.17,407.97 469.66,382.21 429.6,371.18 C428.03,370.75 425.89,370.3 423.32,369.82 C401.21,365.64 346.85,358.82 343.18,338.88 C342.999013,337.843711 342.94862,336.788823 343.03,335.74 C343.4,331 349.19,327.99 351.79,324.58 C356.3,318.69 358.51,311.87 362.37,305.58 C371.21,291.18 384.8,280.08 397.87,269.7 L400.8,267.38 C403.8,265.04 406.71,262.7 409.7,260.38 C419.42,252.92 429.42,245.82 440.24,240.11 C467.67,225.65 499.24,220.72 530.24,220.68 C548.15,220.68 566.34,222.25 583.05,228.68 C593.069939,232.663204 602.476368,238.043116 610.99,244.66 C626.35,256.31 639.68,271.17 652.56,285.66 C681.56,264.71 717.06,251.9 752.63,250.56 C768.129996,249.921824 783.637626,251.624292 798.63,255.61 C800.49,256.11 802.35,256.61 804.19,257.23 C808.063333,258.443333 811.87,259.833333 815.61,261.4 C839.372967,271.408592 859.95769,287.706272 875.15,308.54 C875.49,308.99 875.81,309.44 876.15,309.9 C886.27376,323.987094 893.344639,340.032812 896.91,357.01 C898.042998,362.551585 898.755031,368.170961 899.04,373.82 Z" id="Shape" fill="#FFFFFF" opacity="0.69"></path>
                    <path d="M777.51,328.72 C785.81,289.72 813.59,256.32 848.41,236.91 C883.23,217.5 924.41,211.31 964.15,214.84 C967.84,215.17 971.77,215.54 975.04,213.84 C977.88,212.32 979.71,209.48 981.53,206.84 C1001.39,177.84 1033.59,158.84 1067.53,149.65 C1101.47,140.46 1137.25,140.46 1172.28,143.48 C1181.23,177.91 1191.11,212.63 1196.34,247.81 C1199.86,271.45 1202.34,296.41 1193.42,318.57 C1177.92,356.9 1134.2,374.35 1094.42,385.72 C1039.10725,401.532114 982.7518,413.4381 925.77,421.35 C911.88,423.28 897.77,424.97 883.86,423.35 C862.51,420.8 842.95,410.59 823.93,400.55 C809.59,392.98 794.93,385.17 784,373.19 C773.07,361.21 774.15,344.58 777.51,328.72 Z" id="Shape" fill="#EAEAEA"></path>
                    <path d="M859.33,282.57 C852.7,294.57 850.84,308.21 849.83,321.57 C848.448253,339.956194 848.501748,358.422121 849.99,376.8 C860.54,368.8 871.21,360.8 883.53,355.15 C895.85,349.5 910.18,346.39 923.77,348.93 C921.473274,329.568087 918.071052,310.353378 913.58,291.38 C912.04,284.9 910.36,278.38 907.08,272.38 C904.607287,267.727638 901.058772,263.733416 896.73,260.73 C891.73,257.4 887.73,258.73 882.37,261.13 C872.552592,265.565617 864.459529,273.096662 859.33,282.57 Z" id="Shape" fill="#9FDAE2"></path>
                    <path d="M1015.15,282.57 C1021.79,294.57 1023.65,308.21 1024.65,321.57 C1026.04176,339.955831 1025.98826,358.422541 1024.49,376.8 C1013.95,368.8 1003.28,360.8 990.95,355.15 C978.62,349.5 964.31,346.39 950.72,348.93 C953.016726,329.568087 956.418948,310.353378 960.91,291.38 C962.44,284.9 964.13,278.38 967.41,272.38 C969.882713,267.727638 973.431228,263.733416 977.76,260.73 C982.76,257.4 986.76,258.73 992.12,261.13 C1001.93452,265.566179 1010.02422,273.097365 1015.15,282.57 Z" id="Shape" fill="#9FDAE2"></path>
                    <path d="M993.36,150.13 C993.267102,176.325439 991.375989,202.483601 987.7,228.42 C987.7,228.42 987.7,228.49 987.7,228.53 C986.7,235.76 985.55,242.89 984.3,249.84 C982.04,263.77 979.37,279.42 976.47,294.39 C976.15,296.05 975.83,297.71 975.47,299.39 C974.98,301.9 974.47,304.39 973.95,306.84 C973.58,308.63 973.19,310.39 972.81,312.13 C968.95,329.77 964.81,344.74 960.7,352.25 L960.39,352.8 C960,353.47 959.61,354.08 959.23,354.61 L958.84,355.12 L958.53,355.5 L958.22,355.84 C957.938556,356.140382 957.630647,356.414822 957.3,356.66 L957,356.87 L956.69,357.04 C956.597424,357.094705 956.500417,357.141537 956.4,357.18 C956.303418,357.225391 956.203032,357.2622 956.1,357.29 L955.73,357.37 L955.37,357.37 L919.21,357.37 C913.41,357.37 906.99,337.45 901.21,311.99 L900.02,306.58 C899.52,304.21 899.02,301.8 898.51,299.37 C898.17,297.72 897.84,296.07 897.51,294.37 C892.92,271.1 889.04,246.12 886.69,228.37 C883.005738,202.434359 881.111259,176.275857 881.02,150.08 C881.06,53.6 925.43,0.66 937.15,0.23 L937.3,0.23 L937.72,0.23 C937.868135,0.247842348 938.015065,0.274557018 938.16,0.31 C938.326709,0.339430649 938.490627,0.382919213 938.65,0.44 C938.820968,0.50314041 938.987942,0.57660907 939.15,0.66 C939.719378,0.860963443 940.271242,1.10846623 940.8,1.4 C940.94,1.48 941.09,1.56 941.24,1.66 C941.556214,1.83051029 941.863299,2.01743194 942.16,2.22 L942.65,2.54 L943.52,3.17 L944.88,4.25 L945.1,4.44 C945.35,4.64 945.6,4.85 945.84,5.07 C946.38,5.54 946.93,6.07 947.49,6.59 C947.77,6.85 948.05,7.13 948.34,7.42 L949.2,8.3 C949.79,8.92 950.39,9.57 951.01,10.3 C951.29,10.64 951.58,10.97 951.88,11.3 C952.18,11.63 952.41,11.9 952.66,12.22 L952.87,12.46 C954.076667,13.92 955.306667,15.5 956.56,17.2 L956.66,17.34 C957.23,18.13 957.82,18.95 958.42,19.8 L958.53,19.97 C958.85,20.44 959.19,20.97 959.53,21.41 C960.18,22.41 960.84,23.41 961.53,24.41 C962.22,25.41 963.01,26.8 963.76,28.05 L964.5,29.32 C964.83,29.89 965.16,30.46 965.5,31.05 C966.74,33.25 967.98,35.56 969.2,37.99 L969.8,39.2 C970.01,39.62 970.22,40.03 970.42,40.45 C971.07,41.81 971.73,43.19 972.42,44.62 C972.71,45.28 973.01,45.94 973.31,46.62 C973.943333,48.0533333 974.566667,49.5133333 975.18,51 C975.793333,52.4866667 976.403333,54.0133333 977.01,55.58 L977.9,57.94 C978.72,60.15 979.53,62.43 980.3,64.76 C980.51,65.37 980.72,66 980.93,66.63 L981.53,68.51 C981.73,69.14 981.93,69.78 982.12,70.43 C982.31,71.08 982.53,71.8 982.74,72.49 C983.74,75.94 984.74,79.49 985.65,83.2 C986.73,87.64 987.74,92.2 988.65,97 C989.39,101 990.07,105.06 990.65,109.26 C992.503483,122.803653 993.409018,136.460197 993.36,150.13 Z" id="Shape" fill="#F4F4F5"></path>
                    <path d="M993.37,150.13 C993.37,163.13 992.85,176.29 991.89,189.44 C990.93,202.59 989.5,215.69 987.71,228.44 C987.705059,228.4765 987.705059,228.5135 987.71,228.55 C986.71,235.78 985.55,242.91 984.31,249.86 C982.04,263.79 979.38,279.44 976.48,294.41 C976.16,296.07 975.83,297.73 975.48,299.41 C974.98,301.92 974.48,304.41 973.96,306.83 C973.58,308.62 973.21,310.38 972.83,312.13 C968.95,329.78 964.83,344.78 960.69,352.28 L960.38,352.83 C960.03268,353.457664 959.645208,354.062254 959.22,354.64 C959.101266,354.818326 958.970987,354.988691 958.83,355.15 L958.52,355.53 L958.21,355.87 C957.928556,356.170382 957.620647,356.444822 957.29,356.69 L956.99,356.9 L956.68,357.07 C956.587424,357.124705 956.490417,357.171537 956.39,357.21 C956.293418,357.255391 956.193032,357.2922 956.09,357.32 L955.72,357.4 L955.36,357.4 L937.23,357.4 L937.23,294.4 L937.15,0.23 L937.28,0.23 L937.7,0.23 C937.848135,0.247842348 937.995065,0.274557018 938.14,0.31 C938.306709,0.339430649 938.470627,0.382919213 938.63,0.44 C938.807768,0.502376078 938.981443,0.575854009 939.15,0.66 C939.719378,0.860963443 940.271242,1.10846623 940.8,1.4 C940.94,1.48 941.09,1.56 941.24,1.66 C941.556214,1.83051029 941.863299,2.01743194 942.16,2.22 L942.65,2.54 L943.52,3.17 C943.96,3.5 944.42,3.86 944.88,4.25 L945.1,4.44 C945.35,4.64 945.6,4.85 945.84,5.07 C946.38,5.54 946.93,6.07 947.49,6.59 C947.77,6.85 948.05,7.13 948.34,7.42 L949.2,8.3 L949.94,9.09 C950.3,9.47 950.65,9.86 951.01,10.26 C951.37,10.66 951.58,10.93 951.88,11.26 C952.18,11.59 952.41,11.86 952.66,12.18 L952.87,12.42 C954.076667,13.88 955.306667,15.46 956.56,17.16 L956.66,17.3 C957.23,18.09 957.82,18.91 958.42,19.76 L958.53,19.93 C958.85,20.4 959.19,20.93 959.53,21.37 C960.19,22.37 960.84,23.37 961.53,24.37 C962.22,25.37 963.02,26.76 963.76,28.01 L964.5,29.28 C964.83,29.85 965.16,30.42 965.5,31.01 C966.44,32.66 967.36,34.37 968.28,36.15 C968.59,36.74 968.89,37.34 969.2,37.95 L969.8,39.16 C970.01,39.58 970.22,39.99 970.42,40.41 C971.086667,41.7433333 971.753333,43.1333333 972.42,44.58 C972.71,45.24 973.01,45.9 973.31,46.58 C973.94,48.01 974.57,49.46 975.18,50.96 C975.79,52.46 976.41,53.96 977.01,55.54 L977.9,57.9 C978.72,60.11 979.53,62.39 980.3,64.72 C980.51,65.33 980.72,65.96 980.93,66.59 L981.53,68.47 C981.73,69.1 981.93,69.74 982.12,70.39 C982.31,71.04 982.53,71.76 982.74,72.45 C983.06,73.5033333 983.37,74.5733333 983.67,75.66 L984.24,77.72 C984.49,78.61 984.72,79.51 984.96,80.42 L985.65,83.16 C986.45,86.42 987.203333,89.7533333 987.91,93.16 C987.91,93.23 987.91,93.31 987.91,93.39 C988.15,94.56 988.37,95.74 988.6,96.93 C989.35,100.93 990.03,104.99 990.6,109.19 C990.72,109.97 990.82,110.76 990.93,111.56 C992.590004,124.349081 993.405105,137.233684 993.37,150.13 Z" id="Shape" fill="#D8D8D8"></path>
                    <circle id="Oval" fill="#F178A8" cx="937.22" cy="146.97" r="27.54"></circle>
                    <circle id="Oval" fill="#B2A0C1" cx="937.22" cy="146.97" r="20.32"></circle>
                    <path d="M943.51,135.66 C942.121995,140.86728 938.721338,145.309433 934.056791,148.008381 C929.392244,150.707328 923.846274,151.441772 918.64,150.05 C918.1,149.91 917.57,149.74 917.06,149.56 C916.167097,142.832061 918.693807,136.102744 923.794144,131.625133 C928.894482,127.147523 935.894321,125.513439 942.45,127.27 C942.985774,127.406388 943.513303,127.573328 944.03,127.77 C944.378131,130.408575 944.201413,133.089937 943.51,135.66 Z" id="Shape" fill="#FFFFFF" opacity="0.21"></path>
                    <path d="M987.03,89.17 C974.24,31.37 946.19,0.3 937.23,-1.42108547e-14 L937.09,-1.42108547e-14 C928.09,0.3 900.09,31.37 887.29,89.17 C919.91667,80.0897284 954.40333,80.0897284 987.03,89.17 Z" id="Shape" fill="#9FDAE2"></path>
                    <path d="M987.03,89.17 C974.24,31.37 946.19,0.3 937.23,-1.42108547e-14 L937.09,-1.42108547e-14 L937.15,82.36 C954.002968,82.3911753 970.775692,84.6815754 987.02,89.17 L987.03,89.17 Z" id="Shape" fill="#90D0D5"></path>
                    <path d="M957.38,149.39 C957.258614,150.350914 957.074893,151.302921 956.83,152.24 C955.017841,159.040191 949.809802,164.414765 943.07,166.44 C945.052019,158.903575 950.301492,152.648962 957.38,149.39 Z" id="Shape" fill="#848484" opacity="0.28"></path>
                    <path d="M970.23,323.66 C965.6,342.87 960.67,357.07 955.97,358.4 C955.736439,358.470662 955.494005,358.5077 955.25,358.51 L919.38,358.51 C914.44,358.51 909.05,343.88 904.02,323.66 C925.797679,328.739974 948.452321,328.739974 970.23,323.66 Z" id="Shape" fill="#B2A0C1"></path>
                    <polygon id="Shape" fill="#AEADAE" points="958.3 357.14 942.26 357.14 932.28 357.14 916.24 357.14 909.25 375.46 932.28 375.46 942.26 375.46 965.29 375.46"></polygon>
                    <rect id="Rectangle-path" fill="#545554" x="915.31" y="356.69" width="43.92" height="1.38"></rect>
                    <rect id="Rectangle-path" fill="#545554" x="908.23" y="374.62" width="58.08" height="1.67"></rect>
                    <path d="M973.97,306.78 C973.59,308.57 973.22,310.33 972.84,312.08 C969.49,315.62 953.4,317.38 937.25,317.38 C920.88,317.38 904.46,315.57 901.25,311.96 L900.06,306.55 C902.51,310.11 919.9,311.92 937.23,311.92 C954.23,311.92 971.12,310.24 973.96,306.79 L973.97,306.78 Z" id="Shape" fill="#B2A0C1"></path>
                    <path d="M937.22,376.79 L931.84,265.44 C931.84,261.78 934.26,258.78 937.22,258.78 C940.17,258.78 942.59,261.78 942.59,265.44 L937.22,376.79 Z" id="Shape" fill="#9FDAE2"></path>
                    <path d="M698.64,406.31 C703.75,393.7 712.82,383.07 722.73,373.74 C758.67,339.91 806.73,321.1 855.34,312.74 C903.64,304.43 957.52,307.13 995.67,337.89 C1051.64561,266.764451 1148.67019,242.552533 1231.5,279.04 L1228.44,277.26 C1219.5,337.88 1209.57,398.82 1193.64,457.99 C1193.25592,460.008847 1192.41061,461.911662 1191.17,463.55 C1189.47,465.47 1186.84,466.23 1184.36,466.86 C1138.77,478.42 1090.9,473.76 1043.87,474.22 C969.78,474.96 896.34,488.6 822.27,490.68 C798.16,491.36 772.82,490.49 751.91,478.48 C741.78,472.66 733.2,464.48 725.54,455.68 C714.52,442.99 705.95,421.43 698.64,406.31 Z" id="Shape" fill="#E2E2E2"></path>
                    <path d="M434.21,308.55 C417.93,275.11 385.27,251.1 349.38,241.35 C313.49,231.6 274.78,235.24 239.62,247.35 C236.36,248.48 232.88,249.69 229.53,248.85 C226.61,248.12 224.31,245.95 222.07,243.96 C197.57,222.15 164.14,212.15 131.34,211.49 C98.54,210.83 66.15,218.84 35.15,229.44 C34.77,262.63 33.63,296.29 36.79,329.32 C38.92,351.52 42.25,374.69 55.34,392.74 C77.98,423.97 121.49,429.95 160.04,431.32 C213.663128,433.193473 267.351629,431.302162 320.71,425.66 C333.71,424.28 346.87,422.66 359.11,418.01 C377.87,410.91 393.29,397.27 408.25,383.91 C419.54,373.83 431.05,363.47 438.25,350.17 C445.45,336.87 440.83,322.16 434.21,308.55 Z" id="Shape" fill="#EEE8E7"></path>
                    <path d="M801.86,474.18 C796.27,430.06 762.09,392.34 720.4,376.86 C683.27,363.06 641.46,365.54 604.11,379.15 C583.88,347.15 552.23,321.78 516.11,309.87 C454.87,289.68 384.59,305.87 333.91,345.76 C321.61,355.44 310.26,366.5 301.51,379.48 C225.74,343.18 133.13,344.23 58.21,382.25 C32.21,395.47 6.49,415.4 0.01,443.87 C39.26,467.5 82.23,486.45 127.62,492.66 C155.54,496.5 183.82,496.85 212.01,496.98 C283.776667,497.3 355.54,496.22 427.3,493.74 C486.97,491.68 546.15,485.38 601.3,464.41 C603.54,465.86 605.89,467.16 608.24,468.41 C652.976628,491.532531 704.615724,497.527815 753.46,485.27 C761.29,483.27 769.04,480.8 777.07,479.85 C786.8,478.71 788.32,477.75 798.07,478.85 C799.91,480.89 802.15,476.87 801.86,474.18 Z" id="Shape" fill="#FFFFFF"></path>
                    <path d="M1207.65,449.18 C1204.31,422.77 1183.85,400.18 1158.91,390.93 C1136.69,382.68 1111.67,384.16 1089.32,392.31 C1077.0263,372.866633 1058.43502,358.228689 1036.65,350.84 C1000,338.77 957.94,348.47 927.65,372.33 C920.174446,378.008211 913.629276,384.816537 908.25,392.51 C862.91,370.78 807.49,371.41 762.66,394.16 C747.07,402.07 731.66,414 727.83,431.04 C751.32,445.18 777.03,456.52 804.2,460.26 C820.91,462.56 837.83,462.77 854.7,462.84 C897.653333,463.04 940.6,462.396667 983.54,460.91 C1019.24,459.67 1054.66,455.91 1087.68,443.35 C1089.01,444.22 1090.42,445 1091.83,445.74 C1118.60193,459.57261 1149.5025,463.156934 1178.73,455.82 C1183.42,454.63 1188.06,453.15 1192.86,452.58 C1198.68,451.9 1199.59,451.32 1205.42,452 C1206.49,453.19 1207.86,450.78 1207.65,449.18 Z" id="Shape" fill="#FFFFFF"></path>
                </g>
                <path d="M74.43,499.13 C77.69,511.66 97.22,521.57 110.15,514.06 C104.09,512.38 101.3,520.36 103.83,525.06 C112.93,542.06 146.58,545.5 160.75,530.93 C182.63,542.14 214.1,539.31 232.34,524.49 C246.18,536.33 271.79,537.6 287.34,527.21 C317.73,542.76 362.9,535.11 382.86,511.04 C398.56,529.56 432.15,536.58 457.15,526.6 C465.76,535.6 480.9,540.32 494.84,538.29 C495.25,548.29 508.4,556.6 520.61,554.61 C532.82,552.62 540.87,540.83 536.38,531.52 C558.04,547.99 597.61,545.16 615.28,525.87 C638.19,533.95 666.07,532.21 687.14,521.39 L723.26,542.01 C736.83,549.76 750.84,557.67 767.04,560.8 C783.24,563.93 802.37,561.15 812.57,550.59 C850.41,564.59 899.26,555.75 926.05,530.18 C968.22,552.09 1025.97,552.92 1069.05,532.24 C1084.39,544.33 1111.7,544.69 1127.53,533.01 C1157.31,539.61 1190.65,528.53 1209.66,509.01 C1228.67,489.49 1234.39,463.01 1229.53,438.56 C1228.08,431.27 1225.41,423.62 1218.47,418.78 C1209.66,412.63 1196.72,412.73 1185.06,413.15 C891.7,423.66 597.97,425.09 304.33,426.56 L158.33,427.29 C141.71,427.37 124.33,427.59 109.6,433.72 C93.69,440.33 90.94,451.05 85.44,463.36 C80.15,475.27 70.95,485.79 74.43,499.13 Z" id="Shape" fill="#FFFFFF"></path>
            </g>
        </g>
    </g>
</svg>