<svg id="Layer_1" data-name="Layer 1" xmlns="http://www.w3.org/2000/svg" viewBox="0 0 1231.51 562.01"><defs><style>.cls-1,.cls-15,.cls-8{fill:#fff;}.cls-1{opacity:0.69;}.cls-2{fill:#eaeaea;}.cls-3{fill:#9fdae2;}.cls-4{fill:#f4f4f5;}.cls-5{fill:#d8d8d8;}.cls-6{fill:#f178a8;}.cls-7{fill:#b2a0c1;}.cls-8{opacity:0.21;}.cls-9{fill:#90d0d5;}.cls-10{fill:#848484;opacity:0.28;}.cls-11{fill:#aeadae;}.cls-12{fill:#545554;}.cls-13{fill:#e2e2e2;}.cls-14{fill:#eee8e7;}</style></defs><title>Cloud and Rocket</title><g id="clouds"><path class="cls-1" d="M911.89,414.16c-19.22,10.43-36.24,24.62-54.12,37.23-11.16,7.88-22.66,15.15-35.23,20.5a136.44,136.44,0,0,1-19.26,6.52c-23.68,6.16-48.66,6.41-73.77,4.89-16.48-1-33-2.74-49.28-4.07-41.69-3.41-84.32-3.93-123.9-17.47-39.31-13.45-73.82-39.21-113.88-50.24-1.57-.43-3.71-.88-6.28-1.36-22.11-4.18-76.47-11-80.14-30.94a12.59,12.59,0,0,1-.15-3.14c.37-4.74,6.16-7.75,8.76-11.16,4.51-5.89,6.72-12.71,10.58-19,8.84-14.4,22.43-25.5,35.5-35.88l2.93-2.32c3-2.34,5.91-4.68,8.9-7,9.72-7.46,19.72-14.56,30.54-20.27,27.43-14.46,59-19.39,90-19.43,17.91,0,36.1,1.57,52.81,8A114.39,114.39,0,0,1,623.84,285c15.36,11.65,28.69,26.51,41.57,41,29-20.95,64.5-33.76,100.07-35.1a154.33,154.33,0,0,1,46,5.05c1.86.5,3.72,1,5.56,1.62q5.81,1.82,11.42,4.17A141.82,141.82,0,0,1,888,348.88c.34.45.66.9,1,1.36a124.61,124.61,0,0,1,20.76,47.11A112.12,112.12,0,0,1,911.89,414.16Z" transform="translate(-12.85 -40.34)"/><path class="cls-2" d="M790.36,369.06c8.3-39,36.08-72.4,70.9-91.81s76-25.6,115.74-22.07c3.69.33,7.62.7,10.89-1,2.84-1.52,4.67-4.36,6.49-7,19.86-29,52.06-48,86-57.19s69.72-9.19,104.75-6.17c8.95,34.43,18.83,69.15,24.06,104.33,3.52,23.64,6,48.6-2.92,70.76-15.5,38.33-59.22,55.78-99,67.15a1228.09,1228.09,0,0,1-168.65,35.63c-13.89,1.93-28,3.62-41.91,2-21.35-2.55-40.91-12.76-59.93-22.8-14.34-7.57-29-15.38-39.93-27.36S787,384.92,790.36,369.06Z" transform="translate(-12.85 -40.34)"/><path class="cls-3" d="M872.18,322.91c-6.63,12-8.49,25.64-9.5,39a354.82,354.82,0,0,0,.16,55.23c10.55-8,21.22-16,33.54-21.65s26.65-8.76,40.24-6.22a511.36,511.36,0,0,0-10.19-57.55c-1.54-6.48-3.22-13-6.5-19a33.07,33.07,0,0,0-10.35-11.65c-5-3.33-9-2-14.36.4A49.27,49.27,0,0,0,872.18,322.91Z" transform="translate(-12.85 -40.34)"/><path class="cls-3" d="M1028,322.91c6.64,12,8.5,25.64,9.5,39a352.37,352.37,0,0,1-.16,55.23c-10.54-8-21.21-16-33.54-21.65s-26.64-8.76-40.23-6.22a511.36,511.36,0,0,1,10.19-57.55c1.53-6.48,3.22-13,6.5-19a33.07,33.07,0,0,1,10.35-11.65c5-3.33,9-2,14.36.4A49.25,49.25,0,0,1,1028,322.91Z" transform="translate(-12.85 -40.34)"/><path class="cls-4" d="M1006.21,190.47a572.37,572.37,0,0,1-5.66,78.29s0,.07,0,.11c-1,7.23-2.15,14.36-3.4,21.31-2.26,13.93-4.93,29.58-7.83,44.55-.32,1.66-.64,3.32-1,5-.49,2.51-1,5-1.52,7.45-.37,1.79-.76,3.55-1.14,5.29h0c-3.86,17.64-8,32.61-12.11,40.12l-.31.55c-.39.67-.78,1.28-1.16,1.81l-.39.51-.31.38-.31.34a6.86,6.86,0,0,1-.92.82l-.3.21-.31.17a1.92,1.92,0,0,1-.29.14h0a1.82,1.82,0,0,1-.3.11l-.37.08-.36,0H932.06c-5.8,0-12.22-19.92-18-45.38h0l-1.19-5.41c-.5-2.37-1-4.78-1.51-7.21-.34-1.65-.67-3.3-1-5-4.59-23.27-8.47-48.25-10.82-66h0a570.8,570.8,0,0,1-5.67-78.29C893.91,93.94,938.28,41,950,40.57h.15l.42,0a3.73,3.73,0,0,1,.44.08,3,3,0,0,1,.49.13A4.5,4.5,0,0,1,952,41a11,11,0,0,1,1.65.74c.14.08.29.16.44.26a10.31,10.31,0,0,1,.92.56l.49.32.87.63h0l1.36,1.08.22.19c.25.2.5.41.74.63.54.47,1.09,1,1.65,1.52.28.26.56.54.85.83l.86.88c.59.62,1.19,1.27,1.81,2,.28.34.57.67.87,1s.53.6.78.92l.21.24q1.81,2.19,3.69,4.74l.1.14c.57.79,1.16,1.61,1.76,2.46l.11.17c.32.47.66,1,1,1.44.65,1,1.31,2,2,3s1.48,2.39,2.23,3.64l.74,1.27c.33.57.66,1.14,1,1.73,1.24,2.2,2.48,4.51,3.7,6.94l.6,1.21c.21.42.42.83.62,1.25.65,1.36,1.31,2.74,2,4.17.29.66.59,1.32.89,2a.08.08,0,0,1,0,0q.95,2.15,1.87,4.38t1.83,4.58l.89,2.36c.82,2.21,1.63,4.49,2.4,6.82.21.61.42,1.24.63,1.87l.6,1.88c.2.63.4,1.27.59,1.92s.41,1.37.62,2.06c1,3.45,2,7,2.91,10.71,1.08,4.44,2.09,9,3,13.8.74,4,1.42,8.06,2,12.26A293.66,293.66,0,0,1,1006.21,190.47Z" transform="translate(-12.85 -40.34)"/><path class="cls-5" d="M1006.22,190.47c0,13-.52,26.16-1.48,39.31s-2.39,26.25-4.18,39a.41.41,0,0,0,0,.11c-1,7.23-2.16,14.36-3.4,21.31-2.27,13.93-4.93,29.58-7.83,44.55-.32,1.66-.65,3.32-1,5-.5,2.51-1,5-1.52,7.42-.38,1.79-.75,3.55-1.13,5.3-3.88,17.65-8,32.65-12.14,40.15l-.31.55a16.67,16.67,0,0,1-1.16,1.81,4.91,4.91,0,0,1-.39.51l-.31.38-.31.34a6.86,6.86,0,0,1-.92.82l-.3.21-.31.17a1.92,1.92,0,0,1-.29.14h0a1.82,1.82,0,0,1-.3.11l-.37.08-.36,0H950.08v-63L950,40.57h.13l.42,0a3.73,3.73,0,0,1,.44.08,3,3,0,0,1,.49.13A4.5,4.5,0,0,1,952,41a11,11,0,0,1,1.65.74c.14.08.29.16.44.26a10.31,10.31,0,0,1,.92.56l.49.32.87.63h0c.44.33.9.69,1.36,1.08l.22.19c.25.2.5.41.74.63.54.47,1.09,1,1.65,1.52.28.26.56.54.85.83l.86.88.74.79c.36.38.71.77,1.07,1.17s.57.67.87,1,.53.6.78.92l.21.24q1.81,2.19,3.69,4.74l.1.14c.57.79,1.16,1.61,1.76,2.46l.11.17c.32.47.66,1,1,1.44.66,1,1.31,2,2,3s1.49,2.39,2.23,3.64l.74,1.27c.33.57.66,1.14,1,1.73.94,1.65,1.86,3.36,2.78,5.14.31.59.61,1.19.92,1.8l.6,1.21c.21.42.42.83.62,1.25q1,2,2,4.17c.29.66.59,1.32.89,2a.08.08,0,0,1,0,0c.63,1.43,1.26,2.88,1.87,4.38s1.23,3,1.83,4.58l.89,2.36c.82,2.21,1.63,4.49,2.4,6.82.21.61.42,1.24.63,1.87l.6,1.88c.2.63.4,1.27.59,1.92s.41,1.37.62,2.06q.48,1.58.93,3.21l.57,2.06c.25.89.48,1.79.72,2.7l.69,2.74q1.2,4.89,2.26,10c0,.07,0,.15,0,.23.24,1.17.46,2.35.69,3.54.75,4,1.43,8.06,2,12.26.12.78.22,1.57.33,2.37A293.44,293.44,0,0,1,1006.22,190.47Z" transform="translate(-12.85 -40.34)"/><circle class="cls-6" cx="937.22" cy="146.97" r="27.54"/><circle class="cls-7" cx="937.22" cy="146.97" r="20.32"/><path class="cls-8" d="M956.36,176a20.31,20.31,0,0,1-24.87,14.39c-.54-.14-1.07-.31-1.58-.49a20.31,20.31,0,0,1,25.39-22.29,14.49,14.49,0,0,1,1.58.5A20.2,20.2,0,0,1,956.36,176Z" transform="translate(-12.85 -40.34)"/><path class="cls-3" d="M999.88,129.51c-12.79-57.8-40.84-88.87-49.8-89.17h-.14c-9,.3-37,31.37-49.8,89.17a186,186,0,0,1,99.74,0Z" transform="translate(-12.85 -40.34)"/><path class="cls-9" d="M999.88,129.51c-12.79-57.8-40.84-88.87-49.8-89.17h-.14L950,122.7a188.56,188.56,0,0,1,49.87,6.81Z" transform="translate(-12.85 -40.34)"/><path class="cls-10" d="M970.23,189.73a22.35,22.35,0,0,1-.55,2.85,20.28,20.28,0,0,1-13.76,14.2A26.07,26.07,0,0,1,970.23,189.73Z" transform="translate(-12.85 -40.34)"/><path class="cls-7" d="M983.08,364c-4.63,19.21-9.56,33.41-14.26,34.74a2.57,2.57,0,0,1-.72.11H932.23c-4.94,0-10.33-14.63-15.36-34.85A145.73,145.73,0,0,0,983.08,364Z" transform="translate(-12.85 -40.34)"/><polygon class="cls-11" points="958.3 357.14 942.26 357.14 932.28 357.14 916.24 357.14 909.25 375.46 932.28 375.46 942.26 375.46 965.29 375.46 958.3 357.14"/><rect class="cls-12" x="915.31" y="356.69" width="43.92" height="1.38"/><rect class="cls-12" x="908.23" y="374.62" width="58.08" height="1.67"/><path class="cls-7" d="M986.82,347.12c-.38,1.79-.75,3.55-1.13,5.3l0,0h0c-3.35,3.54-19.44,5.3-35.59,5.3-16.37,0-32.79-1.81-36-5.42h0l-1.19-5.41c2.45,3.56,19.84,5.37,37.17,5.37,17,0,33.89-1.68,36.73-5.13Z" transform="translate(-12.85 -40.34)"/><path class="cls-3" d="M950.07,417.13h0l-5.38-111.35c0-3.66,2.42-6.66,5.38-6.66h0c2.95,0,5.37,3,5.37,6.66Z" transform="translate(-12.85 -40.34)"/><path class="cls-13" d="M711.49,446.65c5.11-12.61,14.18-23.24,24.09-32.57,35.94-33.83,84-52.64,132.61-61,48.3-8.31,102.18-5.61,140.33,25.15a198.35,198.35,0,0,1,235.83-58.85l-3.06-1.78c-8.94,60.62-18.87,121.56-34.8,180.73a13.34,13.34,0,0,1-2.47,5.56c-1.7,1.92-4.33,2.68-6.81,3.31-45.59,11.56-93.46,6.9-140.49,7.36-74.09.74-147.53,14.38-221.6,16.46-24.11.68-49.45-.19-70.36-12.2-10.13-5.82-18.71-14-26.37-22.8C727.37,483.33,718.8,461.77,711.49,446.65Z" transform="translate(-12.85 -40.34)"/><path class="cls-14" d="M447.06,348.89c-16.28-33.44-48.94-57.45-84.83-67.2s-74.6-6.11-109.76,6c-3.26,1.13-6.74,2.34-10.09,1.5-2.92-.73-5.22-2.9-7.46-4.89-24.5-21.81-57.93-31.81-90.73-32.47S79,259.18,48,269.78c-.38,33.19-1.52,66.85,1.64,99.88,2.13,22.2,5.46,45.37,18.55,63.42,22.64,31.23,66.15,37.21,104.7,38.58A1147.06,1147.06,0,0,0,333.56,466c13-1.38,26.16-3,38.4-7.65,18.76-7.1,34.18-20.74,49.14-34.1,11.29-10.08,22.8-20.44,30-33.74S453.68,362.5,447.06,348.89Z" transform="translate(-12.85 -40.34)"/><path class="cls-15" d="M814.71,514.52c-5.59-44.12-39.77-81.84-81.46-97.32-37.13-13.8-78.94-11.32-116.29,2.29-20.23-32-51.88-57.37-88-69.28-61.24-20.19-131.52-4-182.2,35.89-12.3,9.68-23.65,20.74-32.4,33.72-75.77-36.3-168.38-35.25-243.3,2.77-26,13.22-51.72,33.15-58.2,61.62C52.11,507.84,95.08,526.79,140.47,533c27.92,3.84,56.2,4.19,84.39,4.32q107.65.48,215.29-3.24c59.67-2.06,118.85-8.36,174-29.33,2.24,1.45,4.59,2.75,6.94,4a206.7,206.7,0,0,0,145.22,16.86c7.83-2,15.58-4.47,23.61-5.42,9.73-1.14,11.25-2.1,21-1C812.76,521.23,815,517.21,814.71,514.52Z" transform="translate(-12.85 -40.34)"/><path class="cls-15" d="M1220.5,489.52c-3.34-26.41-23.8-49-48.74-58.25-22.22-8.25-47.24-6.77-69.59,1.38a100.51,100.51,0,0,0-52.67-41.47c-36.65-12.07-78.71-2.37-109,21.49a90.37,90.37,0,0,0-19.4,20.18c-45.34-21.73-100.76-21.1-145.59,1.65-15.59,7.91-31,19.84-34.83,36.88,23.49,14.14,49.2,25.48,76.37,29.22,16.71,2.3,33.63,2.51,50.5,2.58q64.43.3,128.84-1.93c35.7-1.24,71.12-5,104.14-17.56,1.33.87,2.74,1.65,4.15,2.39a123.7,123.7,0,0,0,86.9,10.08c4.69-1.19,9.33-2.67,14.13-3.24,5.82-.68,6.73-1.26,12.56-.58C1219.34,493.53,1220.71,491.12,1220.5,489.52Z" transform="translate(-12.85 -40.34)"/></g><path class="cls-15" d="M87.28,539.47C90.54,552,110.07,561.91,123,554.4c-6.06-1.68-8.85,6.3-6.32,11,9.1,17,42.75,20.44,56.92,5.87,21.88,11.21,53.35,8.38,71.59-6.44,13.84,11.84,39.45,13.11,55,2.72,30.39,15.55,75.56,7.9,95.52-16.17C411.41,569.9,445,576.92,470,566.94c8.61,9,23.75,13.72,37.69,11.69.41,10,13.56,18.31,25.77,16.32s20.26-13.78,15.77-23.09c21.66,16.47,61.23,13.64,78.9-5.65,22.91,8.08,50.79,6.34,71.86-4.48l36.12,20.62c13.57,7.75,27.58,15.66,43.78,18.79s35.33.35,45.53-10.21c37.84,14,86.69,5.16,113.48-20.41,42.17,21.91,99.92,22.74,143,2.06,15.34,12.09,42.65,12.45,58.48.77,29.78,6.6,63.12-4.48,82.13-24s24.73-46,19.87-70.45c-1.45-7.29-4.12-14.94-11.06-19.78-8.81-6.15-21.75-6.05-33.41-5.63C904.55,464,610.82,465.43,317.18,466.9l-146,.73c-16.62.08-34,.3-48.73,6.43-15.91,6.61-18.66,17.33-24.16,29.64C93,515.61,83.8,526.13,87.28,539.47Z" transform="translate(-12.85 -40.34)"/></svg>