<svg id="Layer_1" data-name="Layer 1" xmlns="http://www.w3.org/2000/svg" viewBox="0 0 1231.51 420.37"><defs><style>.cls-1,.cls-5{fill:#fff;}.cls-1{opacity:0.69;}.cls-2{fill:#eaeaea;}.cls-3{fill:#e2e2e2;}.cls-4{fill:#eee8e7;}</style></defs><title>Clouds</title><g id="clouds"><path class="cls-1" d="M903.76,251.58c-19.22,10.43-36.24,24.62-54.12,37.23-11.16,7.88-22.66,15.15-35.23,20.5a136.44,136.44,0,0,1-19.26,6.52c-23.68,6.16-48.66,6.41-73.77,4.89-16.48-1-33-2.74-49.28-4.07-41.69-3.41-84.32-3.93-123.9-17.47-39.31-13.45-73.82-39.21-113.88-50.24-1.57-.43-3.71-.88-6.28-1.36-22.11-4.18-76.47-11-80.14-30.94a12.59,12.59,0,0,1-.15-3.14c.37-4.74,6.16-7.75,8.76-11.16,4.51-5.89,6.72-12.71,10.58-19,8.84-14.4,22.43-25.5,35.5-35.88l2.93-2.32c3-2.34,5.91-4.68,8.9-7,9.72-7.46,19.72-14.56,30.54-20.27,27.43-14.46,59-19.39,90-19.43,17.91,0,36.1,1.57,52.81,8a114.39,114.39,0,0,1,27.91,15.94c15.36,11.65,28.69,26.51,41.57,41,29-20.95,64.5-33.76,100.07-35.1a154.33,154.33,0,0,1,46,5c1.86.5,3.72,1,5.56,1.62q5.8,1.81,11.42,4.17A141.82,141.82,0,0,1,879.9,186.3c.34.45.66.9,1,1.36a124.61,124.61,0,0,1,20.76,47.11A112.12,112.12,0,0,1,903.76,251.58Z" transform="translate(-4.72 -19.39)"/><path class="cls-2" d="M782.23,206.48c8.31-39,36.08-72.41,70.91-91.81s76-25.6,115.73-22.07c3.69.33,7.62.7,10.89-1,2.84-1.52,4.67-4.36,6.49-7,19.86-29,52.06-48,86-57.19S1142,18.16,1177,21.18c9,34.43,18.83,69.15,24.06,104.33,3.52,23.64,6,48.6-2.92,70.76-15.5,38.33-59.22,55.78-99,67.15a1228.09,1228.09,0,0,1-168.65,35.63c-13.89,1.93-28,3.62-41.91,2-21.35-2.55-40.91-12.76-59.92-22.8-14.35-7.57-29-15.38-39.94-27.36S778.85,222.34,782.23,206.48Z" transform="translate(-4.72 -19.39)"/><path class="cls-3" d="M703.36,284.07c5.11-12.61,14.18-23.24,24.09-32.57,35.94-33.83,84-52.64,132.61-61,48.3-8.31,102.18-5.61,140.34,25.15a198.35,198.35,0,0,1,235.83-58.85l-3.06-1.78c-9,60.62-18.88,121.56-34.81,180.73a13.34,13.34,0,0,1-2.47,5.56c-1.7,1.92-4.33,2.68-6.81,3.31-45.59,11.56-93.46,6.9-140.49,7.36-74.09.74-147.53,14.38-221.59,16.46-24.12.68-49.46-.19-70.37-12.2-10.13-5.82-18.71-14-26.37-22.8C719.24,320.75,710.67,299.19,703.36,284.07Z" transform="translate(-4.72 -19.39)"/><path class="cls-4" d="M438.93,186.31c-16.28-33.44-48.94-57.45-84.83-67.2s-74.59-6.11-109.76,6c-3.26,1.13-6.74,2.34-10.09,1.5-2.92-.73-5.22-2.9-7.46-4.89-24.5-21.82-57.93-31.81-90.73-32.48s-65.2,7.35-96.24,18c-.38,33.19-1.52,66.84,1.64,99.88,2.13,22.2,5.46,45.37,18.55,63.42,22.64,31.23,66.15,37.21,104.7,38.57a1144,1144,0,0,0,160.72-5.62c13-1.37,26.16-3,38.4-7.64,18.76-7.1,34.18-20.74,49.14-34.1,11.29-10.08,22.8-20.44,30-33.75S445.55,199.92,438.93,186.31Z" transform="translate(-4.72 -19.39)"/><path class="cls-5" d="M806.58,351.94c-5.59-44.12-39.77-81.84-81.46-97.32-37.13-13.8-78.94-11.32-116.28,2.29-20.24-32-51.88-57.38-88-69.29-61.24-20.18-131.52-4-182.2,35.9-12.3,9.68-23.65,20.74-32.4,33.72C230.45,220.94,137.84,222,62.92,260c-26,13.22-51.72,33.15-58.2,61.62C44,345.26,87,364.21,132.34,370.46c27.93,3.84,56.2,4.19,84.39,4.32q107.66.48,215.29-3.24c59.67-2.06,118.86-8.36,174-29.33,2.24,1.45,4.59,2.75,6.94,4A206.7,206.7,0,0,0,758.2,363.05c7.83-2,15.58-4.47,23.61-5.42,9.73-1.14,11.25-2.1,21-1C804.63,358.65,806.92,354.63,806.58,351.94Z" transform="translate(-4.72 -19.39)"/><path class="cls-5" d="M1212.37,326.94c-3.34-26.41-23.79-49-48.74-58.25-22.22-8.25-47.24-6.77-69.59,1.38a100.51,100.51,0,0,0-52.67-41.47c-36.65-12.07-78.71-2.37-109,21.49a90.37,90.37,0,0,0-19.4,20.18c-45.34-21.73-100.76-21.1-145.59,1.65-15.59,7.91-31,19.84-34.83,36.88,23.49,14.14,49.2,25.48,76.37,29.22,16.71,2.3,33.63,2.51,50.5,2.58q64.43.3,128.84-1.93c35.71-1.24,71.12-5,104.14-17.56,1.34.87,2.74,1.65,4.15,2.38a123.65,123.65,0,0,0,86.9,10.09c4.69-1.19,9.33-2.67,14.13-3.24,5.82-.68,6.74-1.26,12.56-.58C1211.21,331,1212.58,328.54,1212.37,326.94Z" transform="translate(-4.72 -19.39)"/></g><path class="cls-5" d="M79.15,376.89c3.26,12.5,22.79,22.44,35.69,14.93-6.06-1.68-8.85,6.3-6.32,11,9.1,17,42.76,20.44,56.92,5.87,21.88,11.21,53.35,8.38,71.59-6.44,13.84,11.84,39.45,13.11,55,2.72,30.39,15.55,75.56,7.9,95.52-16.17,15.73,18.5,49.29,25.52,74.28,15.54,8.61,9,23.75,13.72,37.69,11.69.41,10,13.56,18.31,25.77,16.32s20.26-13.78,15.77-23.09c21.66,16.47,61.23,13.64,78.91-5.65,22.9,8.08,50.78,6.34,71.85-4.48l36.12,20.62c13.57,7.75,27.59,15.66,43.79,18.78s35.32.36,45.52-10.2c37.84,13.95,86.69,5.16,113.48-20.41,42.17,21.91,99.92,22.74,143,2.06,15.34,12.09,42.65,12.45,58.48.77,29.78,6.6,63.12-4.48,82.13-24s24.73-46,19.87-70.45c-1.45-7.29-4.12-14.94-11.06-19.78-8.81-6.15-21.75-6.05-33.41-5.63-293.36,10.47-587.09,11.94-880.73,13.41l-146,.73c-16.63.08-34,.3-48.74,6.43-15.91,6.61-18.65,17.33-24.15,29.64C84.88,353,75.67,363.55,79.15,376.89Z" transform="translate(-4.72 -19.39)"/></svg>