<svg id="Layer_1" data-name="Layer 1" xmlns="http://www.w3.org/2000/svg" viewBox="0 0 224.35 25.26"><defs><style>.cls-1{fill:#fff;}</style></defs><title>Go Beyond</title><path class="cls-1" d="M11.7,25.55c-.75-.25-1.46-.5-2.17-.78l1.55-4.09A42.11,42.11,0,0,0,23.2,23.47c1.92.1,4.22,0,4.25,0l2.26-.09v9.67l-1.27.59a13.79,13.79,0,0,1-6.05,1.3A10.8,10.8,0,0,1,11.7,25.55Zm.74-5.18a10.07,10.07,0,0,1,10-7.1,11,11,0,0,1,6.33,2l-2.45,3.66a6.39,6.39,0,0,0-3.88-1.28,5.65,5.65,0,0,0-5.76,4A27.49,27.49,0,0,1,12.44,20.37Zm12.9,7.51a35.49,35.49,0,0,1-8.74-1c1.45,3.1,5,4.41,8.74,3.26Zm12.8-3.79A10.84,10.84,0,1,1,49,34.94,10.84,10.84,0,0,1,38.14,24.09Zm17.3,0A6.47,6.47,0,1,0,49,30.54,6.46,6.46,0,0,0,55.44,24.09Zm46.41,4.47c0,4.49-2.51,6.38-8.28,6.38a26.11,26.11,0,0,1-10.39-2l1.71-4a22.5,22.5,0,0,0,10.63,1.58c1.62-.12,2-.43,2-1.92s-.41-1.89-1.4-2l-4.68,0v3.29a33.12,33.12,0,0,1-4.37-.74V13.27h6.82c4.19,0,7,2.61,7,6.57a8.09,8.09,0,0,1-.87,3.85A6.4,6.4,0,0,1,101.85,28.56Zm-5.37-8.72c0-.74,0-2.17-2.6-2.17H91.43v4.59l3.29,0C96,22.17,96.48,21.58,96.48,19.84ZM112.2,27a19.08,19.08,0,0,1-3.88-1.06l1.4-3.66c4.31,1.83,11.28,1.09,13.45.9l.35,3.91a47.56,47.56,0,0,1-6.92.28v3.22h9.77v4.4H112.2Zm0-4.56V12.87h13.52v4.34H116.6v5.58A16.21,16.21,0,0,1,112.2,22.39Zm21.14-9.12h5.09l3.84,6.61L140,24.53Zm7.54,11.78c3.06-6.45,6.6-12.09,9.45-15.28l3.32,2.85c-3.85,4.34-7.5,11.57-8.4,13.43v8.89h-4.37Zm51.17-11.78h4.5l7,12.78V13.27h4.37V34.79l-.31.15h-4.22l-6.94-12.8v12.8h-4.38Zm24.28,0h6.73a10.84,10.84,0,0,1,0,21.67h-6.73Zm6.73,17.27a6.44,6.44,0,1,0,0-12.87h-2.39V30.54Zm-44-4.72s-3.73-.64-5.62-1c-3.64-.8-8.86-3.37-12.72-5.57L158.57,23c.66.39,3.92,2,4.62,2.41l.28.2a46.89,46.89,0,0,0,4.52,2l-.17-.1c1,.39,1.94.74,2.92,1.05.43.14.86.25,1.27.37,1,.25,1.88.46,2.78.62,1.91.3,4.2.48,4.07.47l6.68.11.8-4.09Zm-6.26-12.47a10.84,10.84,0,0,0-9.71,6l.67.33c.91.43,2.4,1.11,3.31,1.52a6.47,6.47,0,0,1,12.18,3,6.77,6.77,0,0,1-.08,1,6.51,6.51,0,0,1-6.37,5.43A6.46,6.46,0,0,1,167,27a6.29,6.29,0,0,1-.67-2.84,6.43,6.43,0,0,1,.33-2c-.78-.34-1.56-.69-2.33-1.05l-.83-.39-.82-.4h0a10.76,10.76,0,0,0-.71,3.86c0,.2,0,.4,0,.59a10.84,10.84,0,0,0,21.61.45c0-.34,0-.69,0-1A10.86,10.86,0,0,0,172.81,13.35Z" transform="translate(-9.53 -9.77)"/></svg>