<svg id="Layer_1" data-name="Layer 1" xmlns="http://www.w3.org/2000/svg" viewBox="0 0 114.52 115.55"><defs><style>.cls-1{fill:none;stroke:#6fccdd;stroke-miterlimit:10;stroke-width:3px;}</style></defs><title>Rocket</title><path class="cls-1" d="M48.17,39.58c-.39-.19-.82-.37-1.29-.55a17.24,17.24,0,0,0-11-.4c-4.6,1.33-8.42,4.23-12,7.28A122.68,122.68,0,0,0,10.36,59.58,63.34,63.34,0,0,1,24,62.51a25,25,0,0,1,10.08,6.63" transform="translate(-2.39 -11.68)"/><path class="cls-1" d="M88.77,80.19a2.92,2.92,0,0,1,.14.31c.15.31.28.63.41,1a17.14,17.14,0,0,1,.4,11c-1.33,4.61-4.23,8.42-7.27,12A124.32,124.32,0,0,1,68.78,118a64.47,64.47,0,0,0-2.93-13.61,25.25,25.25,0,0,0-6.39-9.86l-.25-.22" transform="translate(-2.39 -11.68)"/><path class="cls-1" d="M94.41,75.12A71.07,71.07,0,0,1,78.7,87a70.53,70.53,0,0,1-20.86,7.58A1.91,1.91,0,0,1,56.13,94L34.31,72.22a1.91,1.91,0,0,1-.53-1.71,70.9,70.9,0,0,1,79.09-56.69,2,2,0,0,1,1.66,1.67A70.75,70.75,0,0,1,94.41,75.12Z" transform="translate(-2.39 -11.68)"/><path class="cls-1" d="M45.46,83.37,56.18,94.09l.19.19a1.91,1.91,0,0,0,1.71.53c.46-.09.92-.18,1.38-.29a70.06,70.06,0,0,0,19.48-7.3,70.52,70.52,0,0,0,10-6.72,69.3,69.3,0,0,0,5.74-5.15,70.58,70.58,0,0,0,16.07-24.71l.45-1.2c.14-.39.28-.79.41-1.18s.27-.8.4-1.2.35-1.09.51-1.64c.12-.39.23-.79.34-1.18s.17-.62.25-.93c.39-1.5.74-3,1-4.53.07-.35.14-.7.2-1.05a73.83,73.83,0,0,0,.92-7.39c0-.57.07-1.13.1-1.7a71.56,71.56,0,0,0-.56-12.92,2,2,0,0,0-.55-1.11l0,0h0" transform="translate(-2.39 -11.68)"/><path class="cls-1" d="M110.48,50.41,77.94,17.87a71.15,71.15,0,0,1,34.93-4.05,2,2,0,0,1,1.66,1.67A71.12,71.12,0,0,1,110.48,50.41Z" transform="translate(-2.39 -11.68)"/><path class="cls-1" d="M94.45,34.38l16,16h0l.24.23.45-1.2c.14-.39.28-.79.41-1.18s.27-.8.4-1.2.35-1.09.51-1.64c.12-.39.23-.79.34-1.18s.17-.62.25-.93c.39-1.5.74-3,1-4.53.07-.35.14-.7.2-1.05a73.83,73.83,0,0,0,.92-7.39c0-.57.07-1.13.1-1.7a71.56,71.56,0,0,0-.56-12.92,2,2,0,0,0-.55-1.11l0,0" transform="translate(-2.39 -11.68)"/><circle class="cls-1" cx="71.66" cy="42.62" r="11.84"/><path class="cls-1" d="M18.38,83.63a26.56,26.56,0,0,0-7.16,16,11.68,11.68,0,0,1,6.27-2.42c-3.37,3.36-6.47,7.41-6.94,12.15-.27,2.72.36,5.47,0,8.18a12,12,0,0,1-4.47,8A24.25,24.25,0,0,0,28.3,116.1c.73-1,1.66-2.15,2.87-1.95a10.74,10.74,0,0,0-1.1,4.11,1.89,1.89,0,0,0,.19,1.15c.5.79,1.69.57,2.57.25,5-1.87,9.88-4.31,13.59-8.13s6.11-9.19,5.35-14.45c-.24-1.67-1.23-3.62-2.91-3.54s-2.46,2.06-3.18,3.59a11.68,11.68,0,0,1-10.56,6.47,8.89,8.89,0,0,0,3.54-4.39c-5,.5-9.13,5.08-14.09,4.54L31,91.28a3,3,0,0,0,.48-2.16c-.22-.73-1.34-1.13-1.74-.48,1.21-2,1.5-4.78,2.74-6.89,1.4-2.4,1.92-4-1.51-3.84A19.21,19.21,0,0,0,18.38,83.63Z" transform="translate(-2.39 -11.68)"/></svg>