<svg id="Layer_1" data-name="Layer 1" xmlns="http://www.w3.org/2000/svg" viewBox="0 0 114.52 115.55"><defs><style>.cls-1{fill:none;stroke:#79cfdf;stroke-miterlimit:10;stroke-width:3px;}</style></defs><title>Hack-Rocket</title><path class="cls-1" d="M47.24,31.32c-.39-.19-.82-.37-1.29-.55a17.24,17.24,0,0,0-11-.4c-4.6,1.33-8.42,4.23-12,7.28A122.68,122.68,0,0,0,9.43,51.32a63.34,63.34,0,0,1,13.62,2.93,25,25,0,0,1,10.08,6.63" transform="translate(-1.46 -3.43)"/><path class="cls-1" d="M87.84,71.93a2.92,2.92,0,0,1,.14.31c.15.31.28.63.41,1a17.14,17.14,0,0,1,.4,11c-1.33,4.61-4.23,8.42-7.27,12a124.32,124.32,0,0,1-13.67,13.58,64.47,64.47,0,0,0-2.93-13.61,25.25,25.25,0,0,0-6.39-9.86L58.28,86" transform="translate(-1.46 -3.43)"/><path class="cls-1" d="M93.48,66.86A71,71,0,0,1,77.77,78.73a70.65,70.65,0,0,1-20.86,7.59,1.89,1.89,0,0,1-1.71-.53L33.37,64a1.94,1.94,0,0,1-.53-1.71A70.88,70.88,0,0,1,111.93,5.57a1.92,1.92,0,0,1,1.66,1.66A70.74,70.74,0,0,1,93.48,66.86Z" transform="translate(-1.46 -3.43)"/><path class="cls-1" d="M44.53,75.12,55.25,85.84l.19.19a1.91,1.91,0,0,0,1.71.53c.46-.09.92-.18,1.38-.29A70.06,70.06,0,0,0,78,79a70.52,70.52,0,0,0,10-6.72,69.3,69.3,0,0,0,5.74-5.15,70.58,70.58,0,0,0,16.07-24.71l.45-1.2c.14-.39.28-.79.41-1.18s.27-.8.4-1.2.35-1.09.51-1.64c.12-.39.23-.79.34-1.18s.17-.62.25-.93c.39-1.5.74-3,1-4.53.07-.35.14-.7.2-1.05a73.83,73.83,0,0,0,.92-7.39c0-.57.07-1.13.1-1.7a71.56,71.56,0,0,0-.56-12.92,2,2,0,0,0-.55-1.11l0,0h0" transform="translate(-1.46 -3.43)"/><path class="cls-1" d="M109.55,42.15,77,9.62a71.12,71.12,0,0,1,34.92-4,1.94,1.94,0,0,1,1.67,1.66A71.11,71.11,0,0,1,109.55,42.15Z" transform="translate(-1.46 -3.43)"/><path class="cls-1" d="M93.52,26.12l16,16h0l.24.23.45-1.2c.14-.39.28-.79.41-1.18s.27-.8.4-1.2.35-1.09.51-1.64c.12-.39.23-.79.34-1.18s.17-.62.25-.93c.39-1.5.74-3,1-4.53.07-.35.14-.7.2-1.05a73.83,73.83,0,0,0,.92-7.39c0-.57.07-1.13.1-1.7a71.56,71.56,0,0,0-.56-12.92,2,2,0,0,0-.55-1.11l0,0" transform="translate(-1.46 -3.43)"/><circle class="cls-1" cx="71.66" cy="42.62" r="11.84"/><path class="cls-1" d="M17.44,75.38a26.68,26.68,0,0,0-7.16,16A11.71,11.71,0,0,1,16.56,89c-3.37,3.36-6.47,7.41-6.94,12.14-.27,2.72.35,5.47,0,8.18a12.07,12.07,0,0,1-4.47,8,24.27,24.27,0,0,0,22.18-9.44c.72-1,1.66-2.16,2.87-1.95a10.52,10.52,0,0,0-1.1,4.11,1.85,1.85,0,0,0,.19,1.14c.49.79,1.69.58,2.56.25,5-1.86,9.88-4.31,13.6-8.12s6.11-9.19,5.34-14.46c-.23-1.66-1.23-3.61-2.9-3.53s-2.46,2.06-3.19,3.58a11.67,11.67,0,0,1-10.55,6.48A8.87,8.87,0,0,0,37.73,91c-5,.51-9.13,5.09-14.1,4.54L30,83a3,3,0,0,0,.49-2.17c-.22-.72-1.34-1.12-1.74-.48,1.21-2,1.5-4.77,2.73-6.89,1.4-2.39,1.93-4-1.51-3.83A19.16,19.16,0,0,0,17.44,75.38Z" transform="translate(-1.46 -3.43)"/></svg>