<?xml version="1.0" encoding="utf-8"?>
<!-- Generator: Adobe Illustrator 23.0.3, SVG Export Plug-In . SVG Version: 6.00 Build 0)  -->
<svg version="1.1" id="Layer_1" xmlns="http://www.w3.org/2000/svg" xmlns:xlink="http://www.w3.org/1999/xlink" x="0px" y="0px"
	 viewBox="0 0 114.5 115.6" style="enable-background:new 0 0 114.5 115.6;" xml:space="preserve">
<style type="text/css">
	.st0{fill:none;stroke:#00FFFF;stroke-width:3;stroke-miterlimit:10;}
</style>
<title>Rocket</title>
<path class="st0" d="M45.8,27.9c-0.4-0.2-0.8-0.4-1.3-0.5c-3.5-1.3-7.4-1.5-11-0.4c-4.6,1.3-8.4,4.2-12,7.3
	C16.6,38.4,12.1,43,8,47.9c4.6,0.5,9.2,1.5,13.6,2.9c3.9,1.4,7.3,3.6,10.1,6.6"/>
<path class="st0" d="M86.4,68.5c0.1,0.1,0.1,0.2,0.1,0.3c0.2,0.3,0.3,0.6,0.4,1c1.3,3.5,1.5,7.4,0.4,11c-1.3,4.6-4.2,8.4-7.3,12
	c-4.2,4.8-8.8,9.4-13.7,13.5c-0.5-4.6-1.5-9.2-2.9-13.6c-1.3-3.7-3.5-7.1-6.4-9.9l-0.3-0.2"/>
<path class="st0" d="M92,63.4c-4.7,4.7-9.9,8.7-15.7,11.9c-6.5,3.6-13.6,6.2-20.9,7.6c-0.6,0.1-1.3-0.1-1.7-0.6L31.9,60.5
	c-0.4-0.4-0.6-1.1-0.5-1.7C38.6,22,73.3-2.9,110.5,2.1c0.9,0.1,1.5,0.8,1.7,1.7C115.1,25.7,107.7,47.8,92,63.4z"/>
<path class="st0" d="M43.1,71.7l10.7,10.7l0.2,0.2c0.4,0.4,1.1,0.6,1.7,0.5c0.5-0.1,0.9-0.2,1.4-0.3c6.8-1.5,13.4-3.9,19.5-7.3
	c3.5-2,6.9-4.2,10-6.7c2-1.6,3.9-3.3,5.7-5.2c7-7,12.5-15.4,16.1-24.7l0.4-1.2c0.1-0.4,0.3-0.8,0.4-1.2s0.3-0.8,0.4-1.2
	s0.3-1.1,0.5-1.6c0.1-0.4,0.2-0.8,0.3-1.2s0.2-0.6,0.3-0.9c0.4-1.5,0.7-3,1-4.5c0.1-0.3,0.1-0.7,0.2-1c0.4-2.4,0.7-4.9,0.9-7.4
	c0-0.6,0.1-1.1,0.1-1.7c0.2-4.3,0-8.6-0.6-12.9c-0.1-0.4-0.3-0.8-0.6-1.1l0,0l0,0"/>
<path class="st0" d="M108.1,38.7L75.6,6.2c11.1-4.3,23.1-5.6,34.9-4.1c0.9,0.1,1.5,0.8,1.7,1.7C113.7,15.6,112.3,27.6,108.1,38.7z"
	/>
<path class="st0" d="M92.1,22.7l16,16l0,0l0.2,0.2l0.4-1.2c0.1-0.4,0.3-0.8,0.4-1.2s0.3-0.8,0.4-1.2s0.3-1.1,0.5-1.6
	c0.1-0.4,0.2-0.8,0.3-1.2s0.2-0.6,0.3-0.9c0.4-1.5,0.7-3,1-4.5c0.1-0.3,0.1-0.7,0.2-1c0.4-2.4,0.7-4.9,0.9-7.4
	c0-0.6,0.1-1.1,0.1-1.7c0.2-4.3,0-8.6-0.6-12.9c-0.1-0.4-0.3-0.8-0.6-1.1l0,0"/>
<circle class="st0" cx="71.7" cy="42.6" r="11.8"/>
<path class="st0" d="M16,71.9c-4.1,4.4-6.7,10-7.2,16c1.8-1.4,4-2.2,6.3-2.4c-3.4,3.4-6.5,7.4-6.9,12.2c-0.3,2.7,0.4,5.5,0,8.2
	c-0.4,3.2-2,6-4.5,8c8.6,1,17-2.6,22.2-9.4c0.7-1,1.7-2.2,2.9-1.9c-0.6,1.3-1,2.7-1.1,4.1c-0.1,0.4,0,0.8,0.2,1.2
	c0.5,0.8,1.7,0.6,2.6,0.3c5-1.9,9.9-4.3,13.6-8.1s6.1-9.2,5.3-14.4c-0.2-1.7-1.2-3.6-2.9-3.5s-2.5,2.1-3.2,3.6
	c-2,4-6.1,6.5-10.6,6.5c1.6-1,2.9-2.6,3.5-4.4c-5,0.5-9.1,5.1-14.1,4.5l6.4-12.5c0.4-0.6,0.6-1.4,0.5-2.2c-0.2-0.7-1.3-1.1-1.7-0.5
	c1.2-2,1.5-4.8,2.7-6.9c1.4-2.4,1.9-4-1.5-3.8C23.8,66.5,19.3,68.5,16,71.9z"/>
</svg>
