<?xml version="1.0" encoding="utf-8"?>
<!-- Generator: Adobe Illustrator 22.1.0, SVG Export Plug-In . SVG Version: 6.00 Build 0)  -->
<svg version="1.1" id="Layer_1" xmlns="http://www.w3.org/2000/svg" xmlns:xlink="http://www.w3.org/1999/xlink" x="0px" y="0px"
	 viewBox="0 0 168.9 55.2" style="enable-background:new 0 0 168.9 55.2;" xml:space="preserve">
<style type="text/css">
	.st0{fill:#FFFFFF;}
</style>
<g>
	<path class="st0" d="M22.3,13.9h3.2c0.2,0,0.4-0.2,0.4-0.4c0-0.2-0.2-0.4-0.4-0.4h-3.2c-0.2,0-0.4,0.2-0.4,0.4
		C21.9,13.7,22.1,13.9,22.3,13.9z M23.9,40.2c-0.9,0-1.7,0.7-1.7,1.6c0,0.9,0.7,1.6,1.7,1.6c0.9,0,1.7-0.7,1.7-1.6
		C25.5,40.9,24.8,40.2,23.9,40.2z M15.7,38.9H32V16.2H15.7V38.9z M68,31.4c-0.8,0-1.5,0.2-2.1,0.7c-0.6,0.5-1,1.1-1.2,1.9
		c-0.1,0.4-0.1,0.7-0.1,0.9v2.2c0,1,0.3,1.8,0.9,2.5c0.6,0.7,1.4,1,2.5,1c1.2,0,2.1-0.4,2.8-1.3c0.7-0.9,1-2,1-3.4
		c0-1.3-0.3-2.4-0.9-3.2C70.1,31.9,69.2,31.4,68,31.4z M125.3,31.2c-1.3,0-2.2,0.5-2.9,1.6c-0.6,0.9-0.8,1.9-0.8,3.2
		c0,1.2,0.3,2.3,0.8,3.1c0.7,1.1,1.6,1.6,2.8,1.6c1.2,0,2.1-0.5,2.8-1.6c0.6-0.9,0.9-1.9,0.9-3.2s-0.3-2.3-0.8-3.1
		C127.4,31.8,126.5,31.2,125.3,31.2z M83.5,31.4c-0.8,0-1.5,0.2-2.1,0.7c-0.6,0.5-1,1.1-1.2,1.9c-0.1,0.4-0.1,0.7-0.1,0.9v2.2
		c0,1,0.3,1.8,0.9,2.5c0.6,0.7,1.4,1,2.5,1c1.2,0,2.1-0.4,2.8-1.3c0.7-0.9,1-2,1-3.4c0-1.3-0.3-2.4-0.9-3.2
		C85.6,31.9,84.7,31.4,83.5,31.4z M51.1,26.7L51.1,26.7c-0.3,0.8-0.6,1.9-1,3.5L48.5,35h5.3l-1.6-4.8C51.9,29.7,51.6,28.5,51.1,26.7
		z M149.1,31.1c-1,0-1.9,0.4-2.5,1.2c-0.5,0.6-0.8,1.4-0.9,2.3h6.5c0-0.9-0.2-1.6-0.6-2.3C151,31.5,150.2,31.1,149.1,31.1z M65,18
		c0-0.1,0-0.3,0-0.4v-0.9c-1.3,0-2.5,0.2-2.5,1.3c0,0.7,0.5,1,1,1C64.3,18.9,64.8,18.5,65,18z M47.8,13.7c-0.2-0.6-0.4-1.2-0.5-1.8
		h0c-0.1,0.5-0.3,1.2-0.5,1.8L46,16h2.6L47.8,13.7z M161.8-0.1H7.1C3.2-0.1,0,2.9,0,6.6v41.8c0,3.7,3.2,6.7,7.1,6.7h154.6
		c3.9,0,7.1-3,7.1-6.7V6.6C168.9,2.9,165.7-0.1,161.8-0.1z M152,13c2.4,0,3.1,1.8,3.1,3.3c0,0.3,0,0.6-0.1,0.7h-4.9
		c0,1.2,1.1,1.8,2.2,1.8c0.9,0,1.4-0.1,2-0.3l0.3,1.2c-0.6,0.3-1.5,0.4-2.5,0.4c-2.4,0-3.7-1.4-3.7-3.5C148.4,14.8,149.6,13,152,13z
		 M122.8,13.2l0.1,1h0c0.3-0.5,1.1-1.2,2.3-1.2c1.3,0,2.6,0.8,2.6,2.9V20H126v-3.9c0-1-0.4-1.7-1.4-1.7c-0.7,0-1.2,0.5-1.4,1
		c-0.1,0.1-0.1,0.4-0.1,0.5v4h-1.8v-4.8c0-0.8,0-1.4-0.1-2H122.8z M103.5,13c2.4,0,3.1,1.8,3.1,3.3c0,0.3,0,0.6-0.1,0.7h-4.9
		c0,1.2,1.1,1.8,2.2,1.8c0.9,0,1.4-0.1,2-0.3l0.3,1.2c-0.6,0.3-1.5,0.4-2.5,0.4c-2.4,0-3.7-1.4-3.7-3.5C100,14.8,101.2,13,103.5,13z
		 M96,10h1.8v10H96V10z M81.4,14.2c-0.7,0-1.5,0.2-2,0.5l-0.4-1.1c0.5-0.3,1.5-0.6,2.6-0.6c2.3,0,3,1.4,3,2.9v2.5
		c0,0.6,0,1.2,0.1,1.6h-1.7l-0.1-0.8h0c-0.4,0.5-1.2,0.9-2.2,0.9c-1.5,0-2.3-1-2.3-2c0-1.7,1.6-2.6,4.3-2.6v-0.1
		C82.9,15,82.7,14.2,81.4,14.2z M70.6,10.3c0.6,0,1,0.4,1,0.9c0,0.5-0.4,0.9-1,0.9c-0.6,0-1-0.4-1-0.9
		C69.5,10.7,69.9,10.3,70.6,10.3z M71.5,13.2V20h-1.8v-6.8H71.5z M46.2,10.5h2.3l3.3,9.5h-2l-0.9-2.7h-3.2L44.9,20H43L46.2,10.5z
		 M34,42c0,1.7-1.4,3-3.2,3H17c-1.8,0-3.2-1.4-3.2-3V13.1c0-1.7,1.4-3,3.2-3h13.8c1.8,0,3.2,1.4,3.2,3V42z M56.1,42.6l-1.8-5.4H48
		l-1.7,5.4H43l6.3-18.4h3.9l6.3,18.4H56.1z M56.9,20h-1.8l-2.7-6.8h2l1.2,3.5c0.2,0.6,0.4,1.2,0.5,1.7h0c0.1-0.6,0.3-1.1,0.5-1.7
		l1.2-3.5h1.9L56.9,20z M60.6,18.1c0-1.7,1.6-2.6,4.3-2.6v-0.1c0-0.4-0.2-1.2-1.5-1.2c-0.7,0-1.5,0.2-2,0.5l-0.4-1.1
		c0.5-0.3,1.5-0.6,2.6-0.6c2.3,0,3,1.4,3,2.9v2.5c0,0.6,0,1.2,0.1,1.6h-1.7l-0.1-0.8h0c-0.4,0.5-1.2,0.9-2.2,0.9
		C61.5,20.2,60.6,19.2,60.6,18.1z M72.9,41.2c-1.2,1.2-2.6,1.7-4.4,1.7c-1.9,0-3.2-0.6-4-1.9v7h-3.1V33.7c0-1.4,0-2.9-0.1-4.4H64
		l0.2,2.1h0.1c1.1-1.6,2.6-2.4,4.8-2.4c1.7,0,3.1,0.6,4.2,1.9c1.1,1.2,1.7,2.9,1.7,4.9C74.9,38.1,74.2,39.9,72.9,41.2z M76.2,20
		h-1.8V10h1.8V20z M88.4,41.2c-1.2,1.2-2.6,1.7-4.4,1.7c-1.9,0-3.2-0.6-4-1.9v7h-3.1V33.7c0-1.4,0-2.9-0.1-4.4h2.8l0.2,2.1h0.1
		c1.1-1.6,2.6-2.4,4.8-2.4c1.7,0,3.1,0.6,4.2,1.9c1.1,1.2,1.7,2.9,1.7,4.9C90.4,38.1,89.8,39.9,88.4,41.2z M90.6,20.2
		c-0.9,0-1.8-0.3-2.3-1.2h0l-0.1,1h-1.6c0-0.5,0.1-1.2,0.1-1.9V10h1.8v4.1h0c0.4-0.7,1.2-1.1,2.3-1.1c1.8,0,3,1.4,3,3.5
		C93.9,18.9,92.2,20.2,90.6,20.2z M106.4,41.3c-1.3,1.1-3.1,1.6-5.3,1.6c-2.1,0-3.8-0.4-5.1-1.1l0.7-2.5c1.4,0.8,2.9,1.1,4.5,1.1
		c1.2,0,2.1-0.3,2.8-0.8c0.7-0.5,1-1.2,1-2c0-0.7-0.3-1.4-0.8-1.9c-0.5-0.5-1.4-1-2.7-1.4c-3.4-1.2-5.1-3-5.1-5.3
		c0-1.5,0.6-2.8,1.8-3.7c1.2-1,2.8-1.4,4.8-1.4c1.8,0,3.3,0.3,4.4,0.9l-0.8,2.4c-1.1-0.6-2.4-0.8-3.8-0.8c-1.1,0-2,0.3-2.6,0.8
		c-0.5,0.5-0.8,1-0.8,1.7c0,0.7,0.3,1.3,0.9,1.8c0.5,0.4,1.5,0.9,2.8,1.4c1.7,0.6,2.9,1.4,3.7,2.2c0.8,0.9,1.2,1.9,1.2,3.2
		C108.1,39,107.5,40.3,106.4,41.3z M117.5,31.6H114V38c0,1.6,0.6,2.5,1.8,2.5c0.6,0,1,0,1.4-0.1l0.1,2.2c-0.6,0.2-1.4,0.3-2.4,0.3
		c-1.2,0-2.2-0.4-2.9-1.1c-0.7-0.7-1.1-1.9-1.1-3.6v-6.7h-2.1v-2.2h2.1v-2.4L114,26v3.3h3.5V31.6z M115.7,20.2c-2,0-3.6-1.3-3.6-3.5
		c0-2.2,1.6-3.6,3.8-3.6c2.2,0,3.6,1.4,3.6,3.5C119.4,19,117.5,20.2,115.7,20.2z M130.3,40.9c-1.3,1.3-3,2-5.2,2
		c-2.1,0-3.7-0.6-5-1.9c-1.2-1.3-1.8-2.9-1.8-4.9c0-2.1,0.6-3.7,1.9-5.1c1.3-1.3,3-2,5.1-2c2.1,0,3.7,0.6,5,1.9
		c1.2,1.3,1.8,2.9,1.8,4.9C132.2,37.9,131.6,39.6,130.3,40.9z M133.6,13.2h1v-1.3l1.8-0.5v1.8h1.7v1.3h-1.7v3c0,0.8,0.2,1.3,0.9,1.3
		c0.3,0,0.5,0,0.7-0.1l0,1.3c-0.3,0.1-0.8,0.2-1.3,0.2c-0.7,0-1.2-0.2-1.6-0.6c-0.4-0.4-0.6-1-0.6-1.9v-3.2h-1V13.2z M141.6,31.9
		c-0.3-0.1-0.6-0.1-1-0.1c-1.1,0-2,0.4-2.6,1.2c-0.5,0.7-0.8,1.6-0.8,2.6v7h-3.1v-9.1c0-1.5,0-2.9-0.1-4.2h2.7l0.1,2.5h0.1
		c0.3-0.9,0.8-1.6,1.6-2.1c0.7-0.5,1.5-0.7,2.3-0.7c0.3,0,0.6,0,0.8,0V31.9z M142.1,15.9V20h-1.8V10h1.8v4.1h0
		c0.2-0.3,0.5-0.6,0.9-0.8c0.4-0.2,0.8-0.3,1.3-0.3c1.2,0,2.5,0.8,2.5,3v4H145v-3.9c0-1-0.4-1.7-1.4-1.7c-0.7,0-1.2,0.5-1.4,1
		C142.1,15.5,142.1,15.7,142.1,15.9z M155.1,36.7h-9.4c0,1.3,0.5,2.3,1.4,3c0.8,0.6,1.8,0.9,3.1,0.9c1.4,0,2.7-0.2,3.8-0.6l0.5,2.1
		c-1.3,0.6-2.9,0.8-4.7,0.8c-2.2,0-3.9-0.6-5.2-1.8c-1.2-1.2-1.9-2.8-1.9-4.9c0-2,0.6-3.7,1.7-5c1.2-1.4,2.9-2.1,4.9-2.1
		c2,0,3.6,0.7,4.6,2.1c0.8,1.1,1.2,2.5,1.2,4.2C155.2,35.9,155.1,36.3,155.1,36.7z M90.2,14.4c-0.7,0-1.4,0.5-1.6,1.3
		c0,0.1-0.1,0.3-0.1,0.4v1.1c0,0.1,0,0.3,0,0.4c0.2,0.7,0.8,1.2,1.6,1.2c1.2,0,1.9-0.9,1.9-2.2C92,15.3,91.4,14.4,90.2,14.4z
		 M103.4,14.2c-1.1,0-1.6,1-1.7,1.7h3.2C104.9,15.2,104.6,14.2,103.4,14.2z M115.8,14.3c-1.3,0-1.8,1.2-1.8,2.3
		c0,1.3,0.7,2.3,1.8,2.3c1,0,1.8-1,1.8-2.3C117.5,15.5,117,14.3,115.8,14.3z M80.4,17.9c0,0.7,0.5,1,1,1c0.7,0,1.3-0.5,1.4-0.9
		c0-0.1,0-0.3,0-0.4v-0.9C81.6,16.6,80.4,16.9,80.4,17.9z M151.9,14.2c-1.1,0-1.6,1-1.7,1.7h3.2C153.4,15.2,153.1,14.2,151.9,14.2z"
		/>
</g>
</svg>
