<?xml version="1.0" encoding="UTF-8"?>
<svg width="970px" height="243px" viewBox="0 0 970 243" version="1.1" xmlns="http://www.w3.org/2000/svg" xmlns:xlink="http://www.w3.org/1999/xlink">
    <!-- Generator: Sketch 48.2 (47327) - http://www.bohemiancoding.com/sketch -->
    <title>lightthewaysmolloop</title>
    <desc>Created with Sketch.</desc>
    <defs></defs>
    <g id="Page-1" stroke="none" stroke-width="1" fill="none" fill-rule="evenodd" stroke-linecap="round" stroke-linejoin="round">
        <g id="lightthewaysmolloop" transform="translate(5.000000, 5.000000)" stroke="#FFFFFF">
            <g id="bigger_the">
                <g id="Group" transform="translate(635.000000, 46.000000)" stroke-width="10">
                    <path d="M0.7,37.2 C0.7,37.2 15,40.3 11.4,53.7 C7.7,67.1 1.4,90.2 1.4,90.2 C-2.3,103.6 7.4,106.3 7.4,106.3 C32,113.1 51.1,46.3 51.1,46.3 C51.1,46.3 26.5,98 54,105.5 C54,105.5 71.2,112.6 90.7,41.9" id="Shape"></path>
                    <path d="M247.6,107.7 C269.5,88.9 314.6,72 324.1,0.1" id="Shape"></path>
                    <path d="M72.1,33 C72.1,33 73.2,59 93.3,59 C105.2,62.3 131.9,32 147.6,36.3 C147.6,36.3 126.8,30.6 114.5,75.2 C106.5,104.2 124.2,106.7 124.2,106.7 C136.1,110 149.4,84.8 157.4,55.8 C165.4,26.8 134.1,99.8 157.9,106.4 C186.9,114.4 203.7,67.8 211.3,40.2 C218.9,12.7 180.9,98.3 208.5,105.9 C236,113.5 261.3,33.4 261.3,33.4 L241,142.5 C241,142.6 241,142.6 241,142.7 C241,143.5 236.7,174.6 223.5,183 C208.5,192.5 189.7,178 191,165 C194.7,128.6 247.6,106.7 247.6,106.7" id="Shape"></path>
                </g>
                <path d="M32.6,12.7 C32.6,12.7 5.8,114.3 2.5,126.7 C0.2,135.5 -1.6,148.8 11.9,152.3 C41.4,160.1 55.7,103.2 55.7,103.2 C55.7,103.2 36.4,148.6 55.4,153.6 C74.4,158.6 97.3,113.1 97.3,113.1" id="Shape" stroke-width="10"></path>
                <ellipse id="Oval" stroke-width="9.99992685" transform="translate(116.933870, 122.331990) rotate(-56.522874) translate(-116.933870, -122.331990) " cx="116.93387" cy="122.33199" rx="33.2997564" ry="21.2998442"></ellipse>
                <path d="M148.4,94.5 L122.1,198.3 C117.1,217.3 108,228.9 97.9,226.3 C52.4,214.3 131.3,153.9 131.3,153.9" id="Shape" stroke-width="10"></path>
                <path d="M134.3,150.3 C134.3,150.3 255.9,29.6 219.9,20.1 C197,14 171.3,127.1 164.9,151.4 C164.9,151.4 186.7,88.8 212.8,94.7 C230.3,99 193.4,145.7 213.4,150.9 C241.6,158.3 273.4,53.9 278.9,32.9 L256.6,117.4 C251.1,138.4 256.8,148.3 266,150.7 C275.2,153.1 284.6,138.8 288.7,123.1" id="Shape" stroke-width="10"></path>
                <path d="M235.1,95.3 C235.1,95.3 238.5,80.7 252.4,80.9 C266.2,81.1 283.9,92.7 307.5,93 C316.4,93.1 319.8,87.5 319.8,87.5" id="Shape" stroke-width="10"></path>
                <path d="M58.5,85.8 C58.8,87.3 65,90.3 65,90.3" id="Shape" stroke-width="10"></path>
                <path d="M32.6,12.7 C32.6,12.7 5.8,114.3 2.5,126.7 C0.2,135.5 -1.6,148.8 11.9,152.3 C41.4,160.1 55.7,103.2 55.7,103.2 C55.7,103.2 36.4,148.6 55.4,153.6 C74.4,158.6 97.3,113.1 97.3,113.1" id="Shape" stroke-width="10"></path>
                <ellipse id="Oval" stroke-width="9.99992685" transform="translate(116.933870, 122.331990) rotate(-56.522874) translate(-116.933870, -122.331990) " cx="116.93387" cy="122.33199" rx="33.2997564" ry="21.2998442"></ellipse>
                <path d="M148.4,94.5 L122.1,198.3 C117.1,217.3 108,228.9 97.9,226.3 C52.4,214.3 131.3,153.9 131.3,153.9" id="Shape" stroke-width="10"></path>
                <path d="M134.3,150.3 C134.3,150.3 255.9,29.6 219.9,20.1 C197,14 171.3,127.1 164.9,151.4 C164.9,151.4 186.7,88.8 212.8,94.7 C230.3,99 193.4,145.7 213.4,150.9 C241.6,158.3 273.4,53.9 278.9,32.9 L256.6,117.4 C251.1,138.4 256.8,148.3 266,150.7 C275.2,153.1 284.6,138.8 288.7,123.1" id="Shape" stroke-width="10"></path>
                <path d="M235.1,95.3 C235.1,95.3 238.5,80.7 252.4,80.9 C266.2,81.1 283.9,92.7 307.5,93 C316.4,93.1 319.8,87.5 319.8,87.5" id="Shape" stroke-width="10"></path>
                <path d="M58.5,85.8 C58.8,87.3 65,90.3 65,90.3" id="Shape" stroke-width="10"></path>
                <g id="Layer_9" transform="translate(371.000000, 0.000000)" stroke-width="10">
                    <g id="Group">
                        <path d="M0.1,99.6 C0.1,99.6 3.4,86.3 16,86.6 C28.6,86.9 44.7,97.7 66.2,98.2 C74.4,98.4 77.4,93.3 77.4,93.3" id="Shape"></path>
                        <path d="M42.3,34 C42.3,34 17.8,125.8 15.3,135.1 C12.7,144.4 17.2,153.3 27.9,156.3 C52.2,163 146,9.5 113.8,0.6 C88.8,-6.3 60.8,159.9 60.8,159.9 C60.8,159.9 84.7,92.6 112.6,100.3 C135.5,106.6 92.4,148.6 121,156.5 C143.2,162.6 206.3,109.2 174.9,100.5 C152,94.2 127.6,146.7 163.3,156.6 C191.2,164.3 209.3,120.8 209.3,120.8" id="Shape"></path>
                    </g>
                </g>
            </g>
        </g>
    </g>
</svg>