<?xml version="1.0" encoding="utf-8"?>
<!-- Generator: Adobe Illustrator 23.0.6, SVG Export Plug-In . SVG Version: 6.00 Build 0)  -->
<svg version="1.1" id="Layer_1" xmlns="http://www.w3.org/2000/svg" xmlns:xlink="http://www.w3.org/1999/xlink" x="0px" y="0px"
	 viewBox="0 0 592.3 592.2" style="enable-background:new 0 0 592.3 592.2;" xml:space="preserve">
<style type="text/css">
	.st0{fill:#B6A1C4;}
	.st1{fill:#A68BC6;}
</style>
<title>Untitled-1</title>
<path class="st0" d="M583.5,293.3v1.7c0,159.4-129.2,288.6-288.6,288.6C135.7,583.5,6.5,454.4,6.4,295.1c0,0,0-0.1,0-0.1
	C6.4,135.6,135.6,6.4,295,6.4c126,0,233.1,80.7,272.5,193.3C577.9,229.8,583.4,261.4,583.5,293.3z"/>
<path class="st1" d="M583.5,293.3c-4.1,1.1-8.3,1.7-12.6,1.7c-26.3,0-47.7-21.3-47.7-47.6c0-25,19.3-45.7,44.2-47.6
	C577.9,229.8,583.4,261.4,583.5,293.3z"/>
<circle class="st1" cx="410.2" cy="113.6" r="15.4"/>
<path class="st1" d="M239.7,516.8c0,20.3-4.9,40.2-14.4,58.2c-82.9-20.6-152.4-76.9-189.8-153.7c52.7-44,131.2-37,175.2,15.8
	C229.4,459.4,239.7,487.6,239.7,516.8L239.7,516.8z"/>
<circle class="st1" cx="313.2" cy="401.3" r="59"/>
<circle class="st1" cx="132.2" cy="242.9" r="17"/>
<circle class="st1" cx="205.7" cy="170.1" r="56.6"/>
</svg>
