<svg id="Layer_1" data-name="Layer 1" xmlns="http://www.w3.org/2000/svg" viewBox="0 0 176.77 376.79"><defs><style>.cls-1{fill:#9fdae2;}.cls-2{fill:#f4f4f5;}.cls-3{fill:#d8d8d8;}.cls-4{fill:#f178a8;}.cls-5{fill:#b2a0c1;}.cls-6{fill:#fff;opacity:0.21;}.cls-7{fill:#90d0d5;}.cls-8{fill:#848484;opacity:0.28;}.cls-9{fill:#aeadae;}.cls-10{fill:#7f7f7f;}</style></defs><title>Rocket</title><path class="cls-1" d="M48.53,297.28c-6.64,12-8.5,25.64-9.5,39a352.5,352.5,0,0,0,.16,55.24c10.54-8,21.21-16,33.54-21.65s26.64-8.76,40.23-6.22a511,511,0,0,0-10.19-57.55c-1.53-6.48-3.22-13-6.5-19a32.9,32.9,0,0,0-10.35-11.65c-5-3.33-9-2-14.36.39A49.27,49.27,0,0,0,48.53,297.28Z" transform="translate(-38.03 -14.7)"/><path class="cls-1" d="M204.3,297.28c6.63,12,8.49,25.64,9.5,39a355,355,0,0,1-.16,55.24c-10.55-8-21.22-16-33.54-21.65s-26.65-8.76-40.24-6.22a511,511,0,0,1,10.19-57.55c1.54-6.48,3.22-13,6.5-19a32.9,32.9,0,0,1,10.35-11.65c5-3.33,9-2,14.36.39A49.29,49.29,0,0,1,204.3,297.28Z" transform="translate(-38.03 -14.7)"/><path class="cls-2" d="M182.55,164.83a570.82,570.82,0,0,1-5.66,78.3s0,.07,0,.11c-1,7.23-2.15,14.35-3.39,21.31-2.27,13.92-4.94,29.58-7.83,44.54-.33,1.67-.65,3.33-1,5-.5,2.52-1,5-1.53,7.46-.37,1.79-.76,3.55-1.13,5.29h0c-3.86,17.63-8,32.61-12.11,40.12-.1.19-.21.37-.31.55a20.37,20.37,0,0,1-1.16,1.81c-.13.17-.25.35-.38.51l-.32.37c-.09.12-.2.23-.3.34a7.57,7.57,0,0,1-.92.83,2.82,2.82,0,0,1-.31.21l-.31.17a1.75,1.75,0,0,1-.28.13h0a1.82,1.82,0,0,1-.3.11l-.37.08-.35,0H108.41c-5.8,0-12.22-19.92-18-45.38h0l-1.19-5.41c-.51-2.37-1-4.79-1.52-7.22-.34-1.64-.67-3.3-1-5-4.6-23.27-8.48-48.24-10.82-66h0a572.4,572.4,0,0,1-5.66-78.3c0-96.52,44.37-149.51,56.08-149.9h.15l.42,0a3.88,3.88,0,0,1,.45.08,3.59,3.59,0,0,1,.49.13,3.85,3.85,0,0,1,.48.16,10.38,10.38,0,0,1,1.64.74l.45.25.92.56.49.33.86.63h0l1.37,1.08a1.68,1.68,0,0,1,.21.18l.75.63c.53.48,1.08,1,1.64,1.53.28.26.56.54.85.83l.86.88c.59.61,1.2,1.27,1.81,2l.87,1c.27.29.53.6.78.92l.21.24c1.21,1.45,2.44,3,3.69,4.74l.1.13c.58.8,1.16,1.62,1.76,2.47a1,1,0,0,1,.11.17c.33.47.66,1,1,1.44.65,1,1.31,2,2,3s1.48,2.39,2.23,3.64c.25.42.49.84.75,1.27s.65,1.14,1,1.73q1.88,3.28,3.7,6.94c.21.4.41.8.61,1.21s.42.82.61,1.24c.66,1.37,1.31,2.75,2,4.18.3.65.59,1.32.89,2a.14.14,0,0,1,0,.06q.95,2.14,1.87,4.38c.61,1.49,1.23,3,1.83,4.57.3.78.59,1.57.89,2.37.82,2.21,1.63,4.48,2.41,6.82.21.61.41,1.23.62,1.86s.4,1.25.6,1.89.4,1.27.6,1.92.41,1.36.62,2q1.53,5.19,2.9,10.72c1.09,4.44,2.09,9,3,13.8q1.13,6,2,12.25A295.49,295.49,0,0,1,182.55,164.83Z" transform="translate(-38.03 -14.7)"/><path class="cls-3" d="M182.57,164.83c0,13-.53,26.17-1.49,39.32s-2.39,26.24-4.17,39a.43.43,0,0,0,0,.11c-1,7.23-2.15,14.35-3.4,21.31-2.26,13.92-4.93,29.58-7.83,44.54-.32,1.67-.64,3.33-1,5q-.74,3.76-1.52,7.43c-.37,1.78-.75,3.55-1.13,5.29-3.87,17.66-8,32.66-12.14,40.16-.1.19-.21.37-.31.55a16.67,16.67,0,0,1-1.16,1.81,6.13,6.13,0,0,1-.38.51l-.32.37c-.09.12-.2.23-.3.34a7.57,7.57,0,0,1-.92.83,2.82,2.82,0,0,1-.31.21l-.31.17a1.75,1.75,0,0,1-.28.13h0a1.82,1.82,0,0,1-.3.11l-.37.08-.35,0H126.42v-63l0-294.16h.13l.42,0a3.88,3.88,0,0,1,.45.08,3.59,3.59,0,0,1,.49.13,3.85,3.85,0,0,1,.48.16,10.38,10.38,0,0,1,1.64.74l.45.25.92.56.49.33.86.63h0c.45.33.9.69,1.37,1.08a1.68,1.68,0,0,1,.21.18l.75.63c.53.48,1.08,1,1.64,1.53.28.26.56.54.85.83l.86.88c.24.26.5.52.74.79s.71.77,1.07,1.17l.87,1c.27.29.53.6.78.92l.21.24c1.21,1.45,2.44,3,3.69,4.74l.1.13c.58.8,1.16,1.62,1.76,2.47a1,1,0,0,1,.11.17c.33.47.66,1,1,1.44.66,1,1.31,2,2,3s1.5,2.39,2.23,3.64c.25.42.49.84.75,1.27s.65,1.14,1,1.73q1.41,2.47,2.79,5.13c.3.6.61,1.2.91,1.81.21.4.41.8.61,1.21s.42.82.61,1.24c.67,1.36,1.32,2.75,2,4.18.3.65.59,1.32.89,2a.14.14,0,0,1,0,.06c.64,1.43,1.26,2.88,1.87,4.38s1.23,3,1.83,4.57c.3.78.59,1.57.89,2.37.82,2.21,1.63,4.48,2.41,6.82.21.61.41,1.23.62,1.86s.4,1.25.6,1.89.4,1.27.6,1.92.41,1.36.62,2l.93,3.21c.19.69.37,1.38.56,2.07.25.89.48,1.79.72,2.7s.46,1.82.69,2.74q1.22,4.88,2.26,10a1.43,1.43,0,0,1,0,.22c.24,1.18.47,2.36.69,3.55q1.14,6,2,12.25c.11.79.22,1.58.32,2.37A293.61,293.61,0,0,1,182.57,164.83Z" transform="translate(-38.03 -14.7)"/><circle class="cls-4" cx="88.39" cy="146.97" r="27.54"/><circle class="cls-5" cx="88.39" cy="146.97" r="20.32"/><path class="cls-6" d="M132.71,150.34a20.33,20.33,0,0,1-24.88,14.39c-.54-.14-1.06-.31-1.58-.49A20.33,20.33,0,0,1,131.64,142a16.11,16.11,0,0,1,1.58.49A20.42,20.42,0,0,1,132.71,150.34Z" transform="translate(-38.03 -14.7)"/><path class="cls-1" d="M176.23,103.88c-12.8-57.8-40.84-88.87-49.81-89.17h-.13c-9,.3-37,31.37-49.81,89.17a186,186,0,0,1,99.75,0Z" transform="translate(-38.03 -14.7)"/><path class="cls-7" d="M176.23,103.88c-12.8-57.8-40.84-88.87-49.81-89.17h-.13l.06,82.36a188.63,188.63,0,0,1,49.88,6.81Z" transform="translate(-38.03 -14.7)"/><path class="cls-8" d="M146.57,164.1A20.74,20.74,0,0,1,146,167a20.28,20.28,0,0,1-13.76,14.2A26,26,0,0,1,146.57,164.1Z" transform="translate(-38.03 -14.7)"/><path class="cls-5" d="M159.42,338.36c-4.63,19.21-9.56,33.41-14.25,34.74a2.66,2.66,0,0,1-.72.1H108.57c-4.93,0-10.33-14.62-15.36-34.84A145.73,145.73,0,0,0,159.42,338.36Z" transform="translate(-38.03 -14.7)"/><polygon class="cls-9" points="109.47 357.14 93.42 357.14 83.45 357.14 67.4 357.14 60.41 375.46 83.45 375.46 93.42 375.46 116.46 375.46 109.47 357.14"/><rect class="cls-10" x="66.48" y="356.69" width="43.92" height="1.38"/><rect class="cls-10" x="59.4" y="374.62" width="58.08" height="1.67"/><path class="cls-5" d="M163.16,321.49c-.37,1.78-.75,3.55-1.13,5.29l0,0h0c-3.34,3.54-19.44,5.3-35.59,5.3-16.37,0-32.79-1.81-36-5.42h0l-1.19-5.41c2.45,3.56,19.83,5.36,37.16,5.37,17,0,33.89-1.69,36.73-5.13Z" transform="translate(-38.03 -14.7)"/><path class="cls-1" d="M126.41,391.5h0L121,280.15c0-3.67,2.42-6.67,5.37-6.67h0c3,0,5.38,3,5.38,6.67Z" transform="translate(-38.03 -14.7)"/></svg>