<?xml version="1.0" encoding="utf-8"?>
<!-- Generator: Adobe Illustrator 23.0.3, SVG Export Plug-In . SVG Version: 6.00 Build 0)  -->
<svg version="1.1" xmlns="http://www.w3.org/2000/svg" xmlns:xlink="http://www.w3.org/1999/xlink" x="0px" y="0px"
	 viewBox="0 0 152.2 116.9" style="enable-background:new 0 0 152.2 116.9;" xml:space="preserve">
<style type="text/css">
	.st0{fill:none;stroke:#B2A0C1;stroke-width:3;stroke-miterlimit:10;}
	.st1{fill:#B2A0C1;}
	.st2{fill:#B2A0C1;stroke:#B2A0C1;stroke-width:3;stroke-miterlimit:10;}
</style>
<g id="Layer_4">
</g>
<g id="Layer_3">
	<polyline class="st0" points="43.2,94.3 43.4,91 40.2,91.2 	"/>
</g>
<g id="Layer_2">
	<path class="st0" d="M75.9,59.6"/>
	<polyline class="st0" points="109.8,23.9 109.5,27.1 112.8,26.9 	"/>
	<polyline class="st0" points="39.8,26.3 43,26.5 42.8,23.3 	"/>
	<g>
		<path class="st1" d="M76.4,59.4c1.8-2.2,3.7-4.1,5.7-5.9c2-1.8,4.1-3.6,6.3-5.2c2.2-1.7,4.4-3.2,6.7-4.7c2.3-1.5,4.6-2.9,7.2-4
			c-1.8,2.2-3.7,4.1-5.7,5.9c-2,1.8-4.1,3.6-6.3,5.2c-2.2,1.7-4.4,3.2-6.7,4.7C81.3,56.9,78.9,58.3,76.4,59.4z"/>
	</g>
	<g>
		<path class="st1" d="M76.2,28.1c0.6,2.6,0.9,5.2,1.1,7.8c0.2,2.6,0.3,5.2,0.3,7.8c0,2.6-0.1,5.2-0.4,7.8c-0.3,2.6-0.6,5.2-1.2,7.8
			c-0.6-2.6-0.9-5.2-1.1-7.8c-0.2-2.6-0.3-5.2-0.3-7.8c0-2.6,0.1-5.2,0.4-7.8C75.2,33.3,75.6,30.7,76.2,28.1z"/>
	</g>
</g>
<g id="Layer_1">
	<polyline class="st0" points="78.3,107 76.1,101 74,107 	"/>
	<polyline class="st0" points="124.7,57.3 118.7,59.4 124.7,61.6 	"/>
	<polyline class="st0" points="27,61.6 33,59.4 27,57.3 	"/>
	<polyline class="st0" points="74,9.9 76.1,15.9 78.3,9.9 	"/>
	<circle class="st2" cx="76.1" cy="60.1" r="3"/>
	<path class="st0" d="M75.7,57.5"/>
	<polyline class="st0" points="111.5,91.3 108.2,91.1 108.5,94.4 	"/>
	<circle class="st0" cx="76.1" cy="58.5" r="48.6"/>
</g>
</svg>