<svg id="Layer_1" data-name="Layer 1" xmlns="http://www.w3.org/2000/svg" viewBox="0 0 1422.14 1304.89"><defs><style>.cls-1{fill:#fff;}.cls-2{opacity:0.4;}.cls-3{fill:none;}</style></defs><title>site_stars_short</title><g id="faq"><path class="cls-1" d="M110.44,1173.07c-26.6.79-27.12,1.49-27.76,34.46-.63-33-1.2-33.67-27.75-34.46,26.6-.79,27.12-1.49,27.75-34.46C83.32,1171.64,83.85,1172.28,110.44,1173.07Z" transform="translate(17.53 -0.48)"/><g class="cls-2"><polygon class="cls-3" points="690.37 331.12 690.47 324.62 695.71 324.75 695.6 331.25 690.37 331.12"/><path class="cls-1" d="M681.22,330.82c-2.25.2-2.41.39-2.68,3.17-.16-2.8-.32-3-2.55-3.33,2.25-.2,2.4-.39,2.68-3.17C678.83,330.28,679,330.51,681.22,330.82Z" transform="translate(17.53 -0.48)"/><polygon class="cls-3" points="642.6 276.81 646.03 262.22 657.79 266.48 654.35 281.08 642.6 276.81"/><path class="cls-1" d="M638.51,274.23c-5.17-1.25-5.65-.92-7.59,5.17,1-6.42.74-7-4.16-9.42,5.17,1.25,5.65.92,7.59-5.17C633.35,271.23,633.61,271.83,638.51,274.23Z" transform="translate(17.53 -0.48)"/><polygon class="cls-3" points="561.65 285.55 564.57 280.04 569.01 283.67 566.09 289.19 561.65 285.55"/><path class="cls-1" d="M550,286.92c-2-1.35-2.25-1.29-3.68.94,1.08-2.51,1-2.8-.76-4.57,2,1.34,2.25,1.28,3.68-1C548.19,284.91,548.24,285.14,550,286.92Z" transform="translate(17.53 -0.48)"/><polygon class="cls-3" points="526.85 218.18 528.53 210.48 534.73 212.56 533.05 220.26 526.85 218.18"/><path class="cls-1" d="M516.39,216.93c-2.71-.58-3-.41-3.93,2.81.47-3.38.32-3.69-2.26-4.89,2.72.58,3,.4,3.93-2.81C513.66,215.42,513.81,215.73,516.39,216.93Z" transform="translate(17.53 -0.48)"/><polygon class="cls-3" points="453.45 228.32 459.36 227.14 460.31 234.47 454.4 235.66 453.45 228.32"/><path class="cls-1" d="M440.79,231.13c-2.49.8-2.65,1.07-2.48,4.25-.64-3.09-.85-3.29-3.41-3.08,2.49-.79,2.64-1.06,2.47-4.24C438,231.22,438.23,231.42,440.79,231.13Z" transform="translate(17.53 -0.48)"/><polygon class="cls-3" points="360.78 227.1 367.33 225.16 368.9 233.29 362.34 235.24 360.78 227.1"/><path class="cls-1" d="M350.59,229.64c-2.74,1.15-2.9,1.49-2.49,5-.92-3.41-1.2-3.6-4.05-3.1,2.74-1.15,2.9-1.49,2.49-5C347.46,230,347.73,230.21,350.59,229.64Z" transform="translate(17.53 -0.48)"/><polygon class="cls-3" points="299.65 297.81 308.93 295.71 310.62 307.23 301.34 309.33 299.65 297.81"/><path class="cls-1" d="M292.24,302c-3.91,1.36-4.15,1.79-3.79,6.81-1.09-4.85-1.44-5.15-5.48-4.7,3.91-1.36,4.15-1.8,3.79-6.82C287.85,302.12,288.21,302.42,292.24,302Z" transform="translate(17.53 -0.48)"/><polygon class="cls-3" points="244.31 314.9 252.36 314.29 252.85 324.3 244.79 324.9 244.31 314.9"/><path class="cls-1" d="M235.08,319.78c-3.43.66-3.67,1-3.78,5.3-.52-4.25-.79-4.55-4.27-4.69,3.43-.65,3.67-1,3.78-5.3C231.33,319.27,231.67,319.65,235.08,319.78Z" transform="translate(17.53 -0.48)"/><polygon class="cls-3" points="170.01 316.15 170.62 307.11 177.9 307.88 177.28 316.91 170.01 316.15"/><path class="cls-1" d="M160.07,312.88c-3.14,0-3.39.3-3.95,4.14,0-3.9-.24-4.21-3.33-4.9,3.14,0,3.39-.3,4-4.14C156.76,311.88,157,312.19,160.07,312.88Z" transform="translate(17.53 -0.48)"/><polygon class="cls-3" points="102.85 250.68 108.89 247.05 111.82 254.55 105.78 258.18 102.85 250.68"/><path class="cls-1" d="M91.27,256.83c-1.49-3.08-1.78-3.2-4.47-1.94,2.48-1.85,2.57-2.21,1.56-5.56,1.49,3.08,1.78,3.2,4.48,1.94C90.36,253.12,90.26,253.54,91.27,256.83Z" transform="translate(17.53 -0.48)"/></g><g class="cls-2"><polygon class="cls-3" points="866.05 233.36 866.62 222.32 875.5 223.03 874.93 234.06 866.05 233.36"/><path class="cls-1" d="M857.62,229c-3.82.14-4.13.47-4.73,5.16-.11-4.75-.37-5.13-4.15-5.87,3.83-.14,4.13-.47,4.73-5.16C853.57,227.89,853.83,228.27,857.62,229Z" transform="translate(17.53 -0.48)"/><polygon class="cls-3" points="802.48 231.05 810.05 225.83 814.26 235.23 806.69 240.46 802.48 231.05"/><path class="cls-1" d="M793,238.34c-2.1-3.83-2.47-4-5.88-2.1,3.08-2.61,3.19-3.07,1.68-7.3,2.11,3.82,2.48,4,5.89,2.09C791.56,233.64,791.45,234.12,793,238.34Z" transform="translate(17.53 -0.48)"/><polygon class="cls-3" points="786.47 187.42 788.5 171.99 800.93 174.51 798.9 189.95 786.47 187.42"/><path class="cls-1" d="M775.16,189.16c.38-6.73,0-7.29-5.2-9,5.42.48,5.87,0,7.22-6.45-.38,6.72,0,7.29,5.2,9C777,182.23,776.52,182.63,775.16,189.16Z" transform="translate(17.53 -0.48)"/></g><g class="cls-2"><polygon class="cls-3" points="1206.42 354.87 1214.91 349.14 1219.52 359.68 1211.03 365.41 1206.42 354.87"/><path class="cls-1" d="M1197.76,363.09c-2.31-4.29-2.73-4.48-6.55-2.41,3.45-2.86,3.61-3.39,1.93-8.14,2.31,4.29,2.74,4.48,6.56,2.41C1196.25,357.83,1196.12,358.34,1197.76,363.09Z" transform="translate(17.53 -0.48)"/><polygon class="cls-3" points="1140.12 296.96 1144.06 288.11 1151.19 293 1147.25 301.85 1140.12 296.96"/><path class="cls-1" d="M1131.71,297.93c-3.21-1.75-3.61-1.63-5.53,2,1.41-4,1.31-4.48-1.59-6.87,3.21,1.74,3.61,1.62,5.54-2C1128.72,295,1128.81,295.49,1131.71,297.93Z" transform="translate(17.53 -0.48)"/><polygon class="cls-3" points="1072.64 288.57 1076.23 277.68 1085 282.14 1081.41 293.03 1072.64 288.57"/><path class="cls-1" d="M1065.71,288.11c-3.9-1.49-4.29-1.27-6.18,3.21,1.2-4.84,1-5.33-2.59-7.68,3.9,1.5,4.3,1.27,6.18-3.21C1061.93,285.27,1062.1,285.77,1065.71,288.11Z" transform="translate(17.53 -0.48)"/></g><g class="cls-2"><polygon class="cls-3" points="1313.09 1049.65 1321.99 1047.62 1323.62 1058.67 1314.72 1060.7 1313.09 1049.65"/><path class="cls-1" d="M1301.62,1060.24c-1-4.65-1.39-5-5.26-4.48,3.74-1.3,4-1.72,3.61-6.53,1,4.64,1.38,4.94,5.26,4.48C1301.5,1055,1301.23,1055.46,1301.62,1060.24Z" transform="translate(17.53 -0.48)"/><polygon class="cls-3" points="1298.66 988.82 1304.23 986.87 1305.8 993.78 1300.23 995.73 1298.66 988.82"/><path class="cls-1" d="M1288.09,1002.07c-.89-2.9-1.11-3-3.6-2.51,2.33-1.11,2.4-1.39,2-4.49.89,2.9,1.12,3,3.61,2.51C1287.77,998.73,1287.65,999,1288.09,1002.07Z" transform="translate(17.53 -0.48)"/><polygon class="cls-3" points="1326.71 898.53 1327.67 893.23 1331.94 894.41 1330.99 899.72 1326.71 898.53"/><path class="cls-1" d="M1311.27,899.53c.24-2.32.13-2.53-1.66-3.25,1.86.3,2,.17,2.61-2.06-.24,2.32-.14,2.53,1.66,3.24C1312.06,897.18,1311.84,897.31,1311.27,899.53Z" transform="translate(17.53 -0.48)"/><polygon class="cls-3" points="1326.3 798.01 1333.3 796.97 1334.13 805.66 1327.13 806.7 1326.3 798.01"/><path class="cls-1" d="M1313.14,806.56c-.63-3.69-.89-3.93-3.92-3.82,3-.79,3.17-1.11,3.08-4.87.64,3.69.89,3.93,3.92,3.82C1313.26,802.48,1313.06,802.8,1313.14,806.56Z" transform="translate(17.53 -0.48)"/><polygon class="cls-3" points="1310 724.14 1318.79 720.16 1321.99 731.07 1313.2 735.04 1310 724.14"/><path class="cls-1" d="M1300,733.5c-1.72-4.49-2.11-4.74-6-3.47,3.61-2.14,3.82-2.61,2.8-7.47,1.72,4.48,2.1,4.74,6,3.47C1299.22,728.19,1299,728.6,1300,733.5Z" transform="translate(17.53 -0.48)"/><polygon class="cls-3" points="1286.28 697.63 1286.74 689.74 1293.1 690.31 1292.64 698.2 1286.28 697.63"/><path class="cls-1" d="M1271.9,698.38c0-3.41-.24-3.68-3-4.23,2.75,0,3-.3,3.41-3.66,0,3.4.24,3.67,3,4.23C1272.57,694.77,1272.36,695,1271.9,698.38Z" transform="translate(17.53 -0.48)"/><polygon class="cls-3" points="1293.21 647.65 1295.38 636.03 1304.74 638.73 1302.57 650.36 1293.21 647.65"/><path class="cls-1" d="M1280.43,649.54c.57-5.09.34-5.54-3.61-7.17,4.1.7,4.46.42,5.78-4.48-.57,5.09-.34,5.54,3.61,7.17C1282.09,644.39,1281.73,644.67,1280.43,649.54Z" transform="translate(17.53 -0.48)"/><polygon class="cls-3" points="1273.11 527.31 1281.92 518.77 1288.8 529.71 1279.99 538.25 1273.11 527.31"/><path class="cls-1" d="M1266.9,534.59c-3.3-4.35-3.81-4.49-7.85-1.2,3.5-4.09,3.61-4.72,1-9.74,3.3,4.35,3.81,4.48,7.85,1.2C1264.36,528.94,1264.3,529.55,1266.9,534.59Z" transform="translate(17.53 -0.48)"/></g><g class="cls-2"><polygon class="cls-3" points="105.23 765.25 111.35 757.59 117.52 765.19 111.4 772.84 105.23 765.25"/><path class="cls-1" d="M96.92,769.44c-2.89-3-3.28-3-6.14,0,2.41-3.59,2.41-4.06,0-7.62,2.89,3,3.27,3,6.14,0C94.51,765.39,94.51,765.94,96.92,769.44Z" transform="translate(17.53 -0.48)"/><polygon class="cls-3" points="90.71 685.73 99.04 685.57 99.16 695.91 90.84 696.06 90.71 685.73"/><path class="cls-1" d="M77.47,696.48c-.38-4.48-.65-4.75-4.22-5.1,3.61-.47,3.83-.8,4.1-5.24.39,4.48.65,4.75,4.23,5.09C78,691.7,77.75,692,77.47,696.48Z" transform="translate(17.53 -0.48)"/><polygon class="cls-3" points="97.08 647.58 98 634.84 108.26 635.99 107.34 648.73 97.08 647.58"/><path class="cls-1" d="M82.27,650.38c0-5.49-.3-6-4.64-6.93,4.42,0,4.81-.38,5.58-5.77,0,5.48.3,6,4.65,6.93C83.44,644.61,83.08,644.94,82.27,650.38Z" transform="translate(17.53 -0.48)"/><polygon class="cls-3" points="69.81 586.13 79.12 585.29 79.8 596.86 70.49 597.7 69.81 586.13"/><path class="cls-1" d="M57.61,597.76c-.66-4.93-1-5.27-5-5.36,4-.82,4.25-1.21,4.32-6.2.66,4.93,1,5.27,5,5.36C58,592.38,57.7,592.77,57.61,597.76Z" transform="translate(17.53 -0.48)"/><polygon class="cls-3" points="8.24 478.08 17.32 468.03 25.41 479.3 16.34 489.35 8.24 478.08"/><path class="cls-1" d="M3.84,474.16c-3.61,4.75-3.61,5.44-.49,10.67-3.83-4.49-4.38-4.49-8.59-.62,3.61-4.75,3.61-5.43.49-10.66C-.92,478-.37,478,3.84,474.16Z" transform="translate(17.53 -0.48)"/></g><g class="cls-2"><polygon class="cls-3" points="85.86 1006.5 86.67 999.35 92.42 1000.36 91.61 1007.51 85.86 1006.5"/><path class="cls-1" d="M72.47,994.84c-.11,3.1,0,3.36,2.49,4.06-2.5-.14-2.71,0-3.27,3.09.11-3.11,0-3.36-2.49-4.06C71.65,998.06,71.9,997.87,72.47,994.84Z" transform="translate(17.53 -0.48)"/><polygon class="cls-3" points="88.17 1072.69 92.6 1071.43 93.62 1076.93 89.18 1078.2 88.17 1072.69"/><path class="cls-1" d="M73.87,1078.06c-.62-2.3-.79-2.45-2.72-2.12,1.85-.76,2-1,1.7-3.38.62,2.3.79,2.45,2.72,2.12C73.71,1075.43,73.6,1075.64,73.87,1078.06Z" transform="translate(17.53 -0.48)"/></g><g class="cls-2"><polygon class="cls-3" points="77.98 478 80.45 465.01 90.91 468.07 88.44 481.05 77.98 478"/><path class="cls-1" d="M65.64,480c.63-5.67.38-6.19-4-8,4.57.79,5,.48,6.46-5-.64,5.68-.38,6.2,4,8C67.56,474.28,67.15,474.64,65.64,480Z" transform="translate(17.53 -0.48)"/><polygon class="cls-3" points="127.88 374.19 133.11 374.02 133.25 380.51 128.02 380.69 127.88 374.19"/><path class="cls-1" d="M113.12,381.09c-.26-2.78-.43-3-2.68-3.15,2.24-.33,2.41-.54,2.54-3.33.26,2.78.43,3,2.68,3.15C113.44,378.09,113.27,378.3,113.12,381.09Z" transform="translate(17.53 -0.48)"/><polygon class="cls-3" points="83.3 310.33 87.65 308.75 88.93 314.15 84.58 315.74 83.3 310.33"/><path class="cls-1" d="M69.25,315.43c-.73-2.25-.91-2.37-2.82-1.91,1.82-.89,1.91-1.12,1.54-3.49.72,2.25.9,2.37,2.82,1.91C68.93,312.84,68.84,313.06,69.25,315.43Z" transform="translate(17.53 -0.48)"/></g><g class="cls-2"><polygon class="cls-3" points="104.52 1304.6 104.76 1289.56 116.87 1289.85 116.64 1304.89 104.52 1304.6"/><path class="cls-1" d="M93.05,1305.32c-.37-6.45-.75-6.94-5.94-7.66,5.2-.46,5.6-.94,6.17-7.38.38,6.45.76,7,6,7.66C94,1298.42,93.63,1298.88,93.05,1305.32Z" transform="translate(17.53 -0.48)"/><polygon class="cls-3" points="126.67 1212.68 127.01 1205.73 132.61 1206.15 132.27 1213.1 126.67 1212.68"/><path class="cls-1" d="M111.94,1213.45c-.07-3-.24-3.23-2.62-3.69,2.41-.09,2.6-.3,3-3.26.07,3,.24,3.23,2.63,3.69C112.56,1210.28,112.3,1210.49,111.94,1213.45Z" transform="translate(17.53 -0.48)"/></g><g class="cls-2"><polygon class="cls-3" points="489.16 248.71 492.97 242.3 498.13 247.02 494.32 253.43 489.16 248.71"/><path class="cls-1" d="M478.69,250.66c-2.41-1.78-2.65-1.72-4.49.84,1.43-3,1.38-3.29-.67-5.58,2.4,1.78,2.64,1.72,4.48-.83C476.58,248,476.63,248.39,478.69,250.66Z" transform="translate(17.53 -0.48)"/></g><g class="cls-2"><polygon class="cls-3" points="704.24 338.5 709.27 337.94 709.72 344.19 704.69 344.75 704.24 338.5"/><path class="cls-1" d="M692,341.47c-2.14.48-2.29.7-2.29,3.41-.38-2.66-.56-2.84-2.74-2.84,2.14-.48,2.29-.7,2.29-3.41C689.65,341.29,689.82,341.47,692,341.47Z" transform="translate(17.53 -0.48)"/><polygon class="cls-3" points="661.19 379.27 661.7 367.99 670.78 368.63 670.27 379.9 661.19 379.27"/><path class="cls-1" d="M653,374.76c-3.91.18-4.23.5-4.81,5.31-.15-4.85-.41-5.24-4.29-6,3.91-.18,4.22-.51,4.81-5.32C648.87,373.67,649.15,374,653,374.76Z" transform="translate(17.53 -0.48)"/><polygon class="cls-3" points="622.19 345.86 623.87 335.64 632.1 337.73 630.41 347.95 622.19 345.86"/><path class="cls-1" d="M613.7,343.3c-3.61-.5-3.91-.23-5,4.06.4-4.48.19-4.86-3.27-6.16,3.61.5,3.91.23,5-4.06C610,341.59,610.25,342,613.7,343.3Z" transform="translate(17.53 -0.48)"/></g><g class="cls-2"><polygon class="cls-3" points="919.96 246.06 921.99 234.19 931.56 236.71 929.52 248.59 919.96 246.06"/><path class="cls-1" d="M913.05,243.09c-4.19-.62-4.55-.32-5.8,4.67.49-5.2.25-5.65-3.77-7.2,4.19.61,4.55.31,5.8-4.67C908.78,241.13,909,241.59,913.05,243.09Z" transform="translate(17.53 -0.48)"/><polygon class="cls-3" points="804.47 277.86 811.78 275.82 813.42 284.9 806.11 286.94 804.47 277.86"/><path class="cls-1" d="M795.07,280.93c-3.07,1.24-3.25,1.58-2.83,5.55-1-3.81-1.27-4-4.47-3.51,3.07-1.24,3.25-1.58,2.83-5.55C791.59,281.21,791.88,281.43,795.07,280.93Z" transform="translate(17.53 -0.48)"/></g><g class="cls-2"><polygon class="cls-3" points="989.14 76.04 992.05 67.45 998.97 71.06 996.06 79.66 989.14 76.04"/><path class="cls-1" d="M980,75.86c-3.08-1.21-3.39-1-4.91,2.5,1-3.83.84-4.22-2-6.1,3.08,1.21,3.4,1,4.91-2.49C977,73.58,977.15,74,980,75.86Z" transform="translate(17.53 -0.48)"/><polygon class="cls-3" points="943.05 32.89 944.24 23.78 951.57 25.25 950.39 34.36 943.05 32.89"/><path class="cls-1" d="M936.69,34.9c-3.19-.28-3.45,0-4.26,3.78.23-4,0-4.29-3-5.29,3.18.28,3.45,0,4.26-3.78C933.47,33.55,933.66,33.94,936.69,34.9Z" transform="translate(17.53 -0.48)"/></g><g class="cls-2"><polygon class="cls-3" points="1010.58 288.6 1012.3 284.28 1015.77 286.42 1014.05 290.73 1010.58 288.6"/><path class="cls-1" d="M997.41,289.1c-1.55-.75-1.72-.67-2.6,1.09.6-1.93.54-2.14-.88-3.23,1.56.75,1.72.67,2.6-1.09C995.93,287.81,996,288,997.41,289.1Z" transform="translate(17.53 -0.48)"/><polygon class="cls-3" points="976.73 249.01 980.57 239.37 988.33 244.14 984.49 253.78 976.73 249.01"/><path class="cls-1" d="M968.91,249.48c-3.48-1.66-3.85-1.49-5.81,2.43,1.33-4.31,1.2-4.78-2-7.21,3.47,1.66,3.85,1.49,5.81-2.44C965.56,246.6,965.73,247.06,968.91,249.48Z" transform="translate(17.53 -0.48)"/></g><g class="cls-2"><polygon class="cls-3" points="824.9 55.69 829.59 51.7 832.8 57.51 828.11 61.5 824.9 55.69"/><path class="cls-1" d="M809.72,54.18c1.57,2.34,1.82,2.4,3.95.92-1.88,1.94-1.92,2.25-.73,4.9-1.57-2.33-1.82-2.39-4-.92C810.87,57.14,810.92,56.83,809.72,54.18Z" transform="translate(17.53 -0.48)"/><polygon class="cls-3" points="861.78 94.3 866.42 90.35 869.61 96.11 864.96 100.07 861.78 94.3"/><path class="cls-1" d="M846.58,92.82c1.55,2.31,1.79,2.37,3.91.91-1.87,1.92-1.92,2.22-.74,4.85-1.55-2.31-1.79-2.37-3.91-.91C847.66,95.74,847.76,95.45,846.58,92.82Z" transform="translate(17.53 -0.48)"/><polygon class="cls-3" points="924.9 100.87 935.74 98.2 937.88 111.66 927.05 114.33 924.9 100.87"/><path class="cls-1" d="M914.94,113.49c-1.35-5.66-1.77-6-6.5-5.39,4.56-1.67,4.81-2.2,4.34-8.07,1.35,5.66,1.77,6,6.5,5.39C914.72,107.14,914.44,107.62,914.94,113.49Z" transform="translate(17.53 -0.48)"/></g><g class="cls-2"><polygon class="cls-3" points="608.42 80.72 609.33 66.87 620.48 67.99 619.57 81.84 608.42 80.72"/><path class="cls-1" d="M591.4,74.28c4.81,0,5.19-.48,6-6.37,0,6,.39,6.46,5.13,7.47-4.82,0-5.2.48-6,6.37C596.43,75.77,596.09,75.32,591.4,74.28Z" transform="translate(17.53 -0.48)"/><polygon class="cls-3" points="681.18 74.33 682.09 69.08 686.32 70.2 685.41 75.46 681.18 74.33"/><path class="cls-1" d="M665.1,74.79c1.84.28,2,.14,2.56-2.05-.23,2.28-.12,2.49,1.65,3.18-1.84-.28-2-.15-2.56,2C667,75.68,666.87,75.49,665.1,74.79Z" transform="translate(17.53 -0.48)"/><polygon class="cls-3" points="742.9 170.31 744.98 162.79 751.04 165.37 748.96 172.89 742.9 170.31"/><path class="cls-1" d="M726.41,167c2.68.81,2.93.66,4.07-2.46-.65,3.33-.53,3.64,2,5.05-2.68-.81-2.93-.66-4.07,2.46C729.06,168.77,728.92,168.39,726.41,167Z" transform="translate(17.53 -0.48)"/></g><g class="cls-2"><polygon class="cls-3" points="230.2 86.2 234.49 73.64 244.61 78.97 240.32 91.53 230.2 86.2"/><path class="cls-1" d="M215.42,81.15c4.5,1.81,5,1.57,7.22-3.59-1.45,5.59-1.26,6.17,2.89,9-4.5-1.81-5-1.57-7.22,3.58C219.77,84.51,219.63,83.94,215.42,81.15Z" transform="translate(17.53 -0.48)"/><polygon class="cls-3" points="312.7 181.17 314.51 171.88 321.99 174.13 320.18 183.42 312.7 181.17"/><path class="cls-1" d="M296.07,177c3.28.6,3.61.38,4.64-3.52-.48,4.07-.3,4.48,2.84,5.76-3.28-.59-3.61-.37-4.64,3.53C299.39,178.68,299.21,178.31,296.07,177Z" transform="translate(17.53 -0.48)"/></g><g class="cls-2"><polygon class="cls-3" points="0 35.37 7.03 26.97 13.8 35.7 6.76 44.1 0 35.37"/><path class="cls-1" d="M-7.09,31.81c-2.75,3.94-2.76,4.48-.13,8.57-3.18-3.4-3.61-3.42-6.91-.16,2.74-3.95,2.75-4.48.13-8.58C-10.82,35.06-10.38,35.06-7.09,31.81Z" transform="translate(17.53 -0.48)"/><polygon class="cls-3" points="61.52 183.3 66.23 170.07 76.88 175.93 72.17 189.15 61.52 183.3"/><path class="cls-1" d="M46.39,177.18c4.75,2,5.24,1.74,7.67-3.69-1.6,5.9-1.41,6.51,3,9.53-4.75-2-5.24-1.75-7.67,3.69C50.92,180.82,50.73,180.21,46.39,177.18Z" transform="translate(17.53 -0.48)"/></g><g class="cls-2"><polygon class="cls-3" points="457.63 3.24 463.2 1.83 464.33 8.74 458.77 10.15 457.63 3.24"/><path class="cls-1" d="M446.13,3.21c-2.33.9-2.48,1.15-2.2,4.17-.72-2.9-.93-3.08-3.36-2.73,2.34-.9,2.48-1.15,2.21-4.17C443.5,3.39,443.7,3.56,446.13,3.21Z" transform="translate(17.53 -0.48)"/><polygon class="cls-3" points="421.73 37.2 429.72 35.27 431.27 45.2 423.28 47.13 421.73 37.2"/><path class="cls-1" d="M413,40.75c-3.36,1.21-3.6,1.6-3.22,6-1-4.18-1.29-4.48-4.81-4,3.37-1.21,3.61-1.6,3.22-6C409.17,40.93,409.49,41.19,413,40.75Z" transform="translate(17.53 -0.48)"/></g><g class="cls-2"><polygon class="cls-3" points="1279.3 1114.97 1280.97 1107.27 1287.17 1109.34 1285.51 1117.04 1279.3 1114.97"/><path class="cls-1" d="M1266.52,1108.76c-.47,3.37-.32,3.69,2.26,4.88-2.71-.58-3-.4-3.93,2.81.47-3.37.33-3.69-2.26-4.88C1265.32,1112.16,1265.57,1112,1266.52,1108.76Z" transform="translate(17.53 -0.48)"/><polygon class="cls-3" points="1247.29 1187.45 1251.78 1173.77 1262.8 1179.34 1258.31 1193.02 1247.29 1187.45"/><path class="cls-1" d="M1239.71,1176.89c-1.5,6.08-1.28,6.71,3.27,9.64-4.9-1.85-5.4-1.58-7.76,4.06,1.49-6.08,1.27-6.7-3.27-9.63C1236.85,1182.74,1237.35,1182.53,1239.71,1176.89Z" transform="translate(17.53 -0.48)"/><polygon class="cls-3" points="1209.22 1269.2 1211.55 1262.1 1217.27 1264.99 1214.94 1272.09 1209.22 1269.2"/><path class="cls-1" d="M1196.83,1263.88c-.77,3.15-.67,3.48,1.69,5-2.54-.95-2.8-.82-4,2.11.77-3.15.67-3.48-1.69-5C1195.36,1267,1195.61,1266.81,1196.83,1263.88Z" transform="translate(17.53 -0.48)"/></g><g class="cls-2"><polygon class="cls-3" points="1235.63 860.19 1239.83 850.49 1247.64 855.7 1243.44 865.4 1235.63 860.19"/><path class="cls-1" d="M1226.17,853.44c-1.49,4.36-1.37,4.84,1.81,7.47-3.52-1.85-3.9-1.7-6,2.24,1.49-4.36,1.37-4.84-1.81-7.47C1223.67,857.53,1224.05,857.4,1226.17,853.44Z" transform="translate(17.53 -0.48)"/><polygon class="cls-3" points="1249.96 984.56 1255.24 982.68 1256.75 989.23 1251.47 991.1 1249.96 984.56"/><path class="cls-1" d="M1235.06,984.05c.86,2.73,1.07,2.88,3.39,2.33-2.2,1.06-2.32,1.33-1.87,4.21-.86-2.73-1.07-2.88-3.4-2.33C1235.42,987.19,1235.54,986.92,1235.06,984.05Z" transform="translate(17.53 -0.48)"/></g><g class="cls-2"><polygon class="cls-3" points="1313.42 858.96 1322.69 850.52 1329.48 862.03 1320.22 870.46 1313.42 858.96"/><path class="cls-1" d="M1307.33,866.78c-3.27-4.6-3.79-4.69-8-1.49,3.7-4.07,3.78-4.71,1.2-10,3.27,4.6,3.79,4.69,8,1.5C1304.84,860.88,1304.84,861.55,1307.33,866.78Z" transform="translate(17.53 -0.48)"/><polygon class="cls-3" points="1279.49 748.11 1283.64 744.33 1286.68 749.48 1282.53 753.26 1279.49 748.11"/><path class="cls-1" d="M1267.09,751.92c-1.47-2.07-1.7-2.11-3.61-.69,1.66-1.82,1.7-2.11.55-4.48,1.47,2.06,1.7,2.1,3.61.68C1266,749.27,1266,749.51,1267.09,751.92Z" transform="translate(17.53 -0.48)"/></g><g class="cls-2"><rect class="cls-3" x="1310.65" y="962.46" width="11.31" height="14.04"/><path class="cls-1" d="M1304.44,970c-4.81.55-5.2,1-5.65,7-.44-6-.81-6.47-5.65-7,4.81-.56,5.21-1,5.65-7C1299.24,969,1299.6,969.42,1304.44,970Z" transform="translate(17.53 -0.48)"/></g><g class="cls-2"><polygon class="cls-3" points="1311.51 1178.97 1315.27 1170.89 1321.78 1175.57 1318.01 1183.65 1311.51 1178.97"/><path class="cls-1" d="M1297.2,1181.67c1.36-3.64,1.28-4-1.37-6.37,2.94,1.68,3.26,1.58,5.14-1.71-1.36,3.65-1.28,4.05,1.37,6.38C1299.39,1178.25,1299.07,1178.4,1297.2,1181.67Z" transform="translate(17.53 -0.48)"/><polygon class="cls-3" points="1314.75 1064.86 1317.01 1058.62 1322.03 1061.43 1319.77 1067.67 1314.75 1064.86"/><path class="cls-1" d="M1299.73,1066.74c.77-2.78.68-3.08-1.38-4.49,2.23,1,2.47.86,3.6-1.71-.77,2.77-.68,3.07,1.39,4.48C1301.12,1064.06,1300.9,1064.18,1299.73,1066.74Z" transform="translate(17.53 -0.48)"/><polygon class="cls-3" points="1329.03 1015.67 1332.78 1005.3 1341.13 1009.97 1337.38 1020.34 1329.03 1015.67"/><path class="cls-1" d="M1315.67,1018.5c1.28-4.63,1.13-5.11-2.3-7.47,3.73,1.58,4.12,1.4,6-2.85-1.28,4.63-1.13,5.1,2.3,7.47C1318,1014.06,1317.62,1014.24,1315.67,1018.5Z" transform="translate(17.53 -0.48)"/></g><g class="cls-2"><polygon class="cls-3" points="1377 1201.32 1384.29 1197.6 1387.28 1206.65 1379.99 1210.37 1377 1201.32"/><path class="cls-1" d="M1366.13,1208.91c-1.58-3.74-1.9-3.9-5.15-2.66,3-2,3.14-2.36,2.14-6.39,1.58,3.73,1.9,3.89,5.15,2.65C1365.26,1204.47,1365.13,1204.89,1366.13,1208.91Z" transform="translate(17.53 -0.48)"/><polygon class="cls-3" points="1387.95 1128.18 1400.45 1127.61 1400.91 1143.14 1388.41 1143.71 1387.95 1128.18"/><path class="cls-1" d="M1377.21,1143.79c-.7-6.63-1.11-7.11-6.49-7.47,5.35-.87,5.73-1.37,6-8,.7,6.63,1.11,7.11,6.48,7.47C1377.89,1136.6,1377.51,1137.11,1377.21,1143.79Z" transform="translate(17.53 -0.48)"/><polygon class="cls-3" points="1412 1063.8 1421.78 1063.35 1422.14 1075.49 1412.36 1075.94 1412 1063.8"/><path class="cls-1" d="M1399.79,1076.07c-.54-5.18-.86-5.55-5.06-5.84,4.17-.67,4.47-1.07,4.7-6.29.54,5.19.87,5.56,5.07,5.84C1400.32,1070.44,1400,1070.84,1399.79,1076.07Z" transform="translate(17.53 -0.48)"/></g><g class="cls-2"><polygon class="cls-3" points="1234.61 771.87 1239.85 766.22 1244.4 772.73 1239.16 778.38 1234.61 771.87"/><path class="cls-1" d="M1219.69,769.42c2.15,2.57,2.46,2.59,4.89.42-2.07,2.68-2.08,3.06-.33,6.08-2.16-2.57-2.47-2.58-4.9-.42C1221.41,772.83,1221.43,772.44,1219.69,769.42Z" transform="translate(17.53 -0.48)"/><polygon class="cls-3" points="1281.54 851.89 1288.74 844.12 1295 853.06 1287.8 860.83 1281.54 851.89"/><path class="cls-1" d="M1267.61,848.39c3,3.53,3.39,3.57,6.72.58-2.84,3.69-2.87,4.22-.47,8.35-3-3.52-3.39-3.57-6.72-.58C1270,853.07,1270,852.59,1267.61,848.39Z" transform="translate(17.53 -0.48)"/></g><g class="cls-2"><polygon class="cls-3" points="1322.76 413.98 1323.45 400.77 1334.09 401.64 1333.39 414.84 1322.76 413.98"/><path class="cls-1" d="M1311.18,401.66c.12,5.69.45,6.14,5,7-4.58.15-4.94.55-5.67,6.17-.12-5.69-.44-6.14-5-7C1310.1,407.68,1310.47,407.28,1311.18,401.66Z" transform="translate(17.53 -0.48)"/><polygon class="cls-3" points="1303.9 469.83 1304.48 459.46 1312.83 460.19 1312.25 470.55 1303.9 469.83"/><path class="cls-1" d="M1283.82,460.83c.1,4.49.35,4.81,3.9,5.52-3.61.12-3.87.43-4.44,4.84-.09-4.49-.35-4.81-3.9-5.52C1283,465.55,1283.26,465.24,1283.82,460.83Z" transform="translate(17.53 -0.48)"/><polygon class="cls-3" points="1310.43 565.89 1320.17 565.67 1320.35 577.77 1310.61 577.99 1310.43 565.89"/><path class="cls-1" d="M1297.78,566.27c.46,5.17.78,5.56,5,6-4.17.56-4.48,1-4.82,6.15-.45-5.17-.78-5.56-5-6C1297.17,571.86,1297.47,571.47,1297.78,566.27Z" transform="translate(17.53 -0.48)"/><polygon class="cls-3" points="1297.5 630.71 1304.56 630.55 1304.68 639.32 1297.62 639.48 1297.5 630.71"/><path class="cls-1" d="M1283.5,631.12c.34,3.75.56,4,3.61,4.3-3,.42-3.24.71-3.47,4.48-.33-3.74-.56-4-3.61-4.3C1283.05,635.17,1283.28,634.89,1283.5,631.12Z" transform="translate(17.53 -0.48)"/><polygon class="cls-3" points="1301.14 731.84 1310.22 731.63 1310.38 742.91 1301.3 743.11 1301.14 731.84"/><path class="cls-1" d="M1288.14,732.23c.44,4.82.72,5.18,4.62,5.52-3.88.54-4.17.9-4.45,5.74-.43-4.82-.72-5.18-4.62-5.53C1287.58,737.44,1287.85,737.07,1288.14,732.23Z" transform="translate(17.53 -0.48)"/></g><g class="cls-2"><polygon class="cls-3" points="1273.89 161.87 1280.45 155.7 1285.42 163.84 1278.86 170.01 1273.89 161.87"/><path class="cls-1" d="M1265.45,160.37c-2.61,3-2.67,3.42-.79,7.16-2.41-3.25-2.76-3.32-5.77-1,2.62-3,2.68-3.42.8-7.16C1262.08,162.63,1262.44,162.69,1265.45,160.37Z" transform="translate(17.53 -0.48)"/><polygon class="cls-3" points="1241.86 279.78 1244.24 267.26 1254.33 270.23 1251.94 282.74 1241.86 279.78"/><path class="cls-1" d="M1231.76,269.24c-.62,5.49-.38,6,3.84,7.74-4.41-.77-4.81-.48-6.23,4.77.63-5.49.39-6-3.84-7.74C1230,274.8,1230.35,274.46,1231.76,269.24Z" transform="translate(17.53 -0.48)"/><polygon class="cls-3" points="1223.42 366.31 1229.89 365.43 1230.6 373.46 1224.13 374.34 1223.42 366.31"/><path class="cls-1" d="M1209.15,366.36c.55,3.41.78,3.63,3.61,3.57-2.75.69-2.93,1-2.88,4.48-.55-3.4-.78-3.63-3.61-3.57C1209,370.07,1209.18,369.84,1209.15,366.36Z" transform="translate(17.53 -0.48)"/></g><g class="cls-2"><polygon class="cls-3" points="1294.63 272.43 1300.04 266.62 1304.72 273.33 1299.31 279.14 1294.63 272.43"/><path class="cls-1" d="M1284.87,270.51c-2.13,2.75-2.15,3.16-.36,6.26-2.21-2.64-2.54-2.67-5-.45,2.13-2.74,2.15-3.15.36-6.25C1282,272.71,1282.37,272.74,1284.87,270.51Z" transform="translate(17.53 -0.48)"/><polygon class="cls-3" points="1259.1 320.94 1263.1 314.36 1268.4 319.33 1264.39 325.91 1259.1 320.94"/><path class="cls-1" d="M1248.3,317.38c-1.51,3-1.47,3.39.65,5.78-2.41-1.87-2.74-1.82-4.66.8,1.5-3,1.47-3.39-.65-5.78C1246,320.05,1246.33,320,1248.3,317.38Z" transform="translate(17.53 -0.48)"/></g><g class="cls-2"><polygon class="cls-3" points="69.76 441.35 81.14 437.9 83.93 452.03 72.54 455.49 69.76 441.35"/><path class="cls-1" d="M53.6,448.91c4.82-2,5-2.6,4.31-8.8,1.64,6,2.1,6.26,7.09,5.35-4.81,2-5,2.6-4.31,8.8C59.05,448.33,58.6,448,53.6,448.91Z" transform="translate(17.53 -0.48)"/></g><g class="cls-2"><polygon class="cls-3" points="644.53 443.21 653.13 439.24 656.34 449.92 647.73 453.9 644.53 443.21"/><path class="cls-1" d="M627.28,444.13c3.54-2.13,3.72-2.61,2.66-7.32,1.72,4.39,2.11,4.62,5.9,3.3-3.54,2.14-3.72,2.62-2.66,7.32C631.46,443,631.1,442.82,627.28,444.13Z" transform="translate(17.53 -0.48)"/></g><g class="cls-2"><polygon class="cls-3" points="1148.46 1195.84 1157.31 1191.38 1160.9 1202.37 1152.05 1206.83 1148.46 1195.84"/><path class="cls-1" d="M1138.92,1205.14c-1.89-4.48-2.29-4.73-6.22-3.25,3.61-2.35,3.81-2.84,2.62-7.73,1.89,4.49,2.29,4.74,6.22,3.26C1137.9,1199.83,1137.73,1200.32,1138.92,1205.14Z" transform="translate(17.53 -0.48)"/><polygon class="cls-3" points="1135.82 1104.7 1143.14 1103.21 1144.34 1112.31 1137.01 1113.79 1135.82 1104.7"/><path class="cls-1" d="M1123.09,1113.67c-.81-3.84-1.07-4.07-4.26-3.81,3.09-1,3.28-1.33,3.07-5.28.8,3.84,1.07,4.07,4.26,3.81C1123.06,1109.37,1122.86,1109.71,1123.09,1113.67Z" transform="translate(17.53 -0.48)"/><polygon class="cls-3" points="1032.78 1033.86 1034.32 1020.75 1044.88 1022.67 1043.34 1035.78 1032.78 1033.86"/><path class="cls-1" d="M1026.63,1029.78c-4.58-.3-5,0-6,5.58.24-5.69,0-6.17-4.5-7.47,4.58.3,5,0,6-5.58C1021.89,1028,1022.18,1028.45,1026.63,1029.78Z" transform="translate(17.53 -0.48)"/><polygon class="cls-3" points="933.88 1037.56 936.09 1026.84 944.72 1029.57 942.52 1040.3 933.88 1037.56"/><path class="cls-1" d="M926.13,1035.48c-3.79-.74-4.14-.49-5.43,4,.6-4.7.4-5.14-3.21-6.74,3.79.75,4.14.5,5.42-4C922.25,1033.47,922.52,1033.89,926.13,1035.48Z" transform="translate(17.53 -0.48)"/><polygon class="cls-3" points="924.32 966.42 931.59 959.47 937.19 968.5 929.92 975.45 924.32 966.42"/><path class="cls-1" d="M916,972.5c-2.68-3.6-3.1-3.66-6.43-1,2.89-3.33,2.94-3.85.83-8,2.68,3.6,3.1,3.66,6.43,1C914,967.84,913.91,968.36,916,972.5Z" transform="translate(17.53 -0.48)"/><polygon class="cls-3" points="901.42 911.13 902.53 899.17 912.16 900.54 911.06 912.5 901.42 911.13"/><path class="cls-1" d="M888.75,912.34c.09-5.18-.19-5.6-4.26-6.66,4.17.12,4.51-.22,5.36-5.29-.09,5.19.18,5.6,4.26,6.67C890,906.92,889.6,907.26,888.75,912.34Z" transform="translate(17.53 -0.48)"/><polygon class="cls-3" points="856.93 772.56 860.33 768.75 863.39 772.96 860 776.77 856.93 772.56"/><path class="cls-1" d="M844.18,775.4c-1.44-1.66-1.66-1.67-3.23-.19,1.33-1.8,1.34-2.07.15-4,1.45,1.66,1.66,1.67,3.24.19C843,773.19,843,773.41,844.18,775.4Z" transform="translate(17.53 -0.48)"/><polygon class="cls-3" points="771.95 723.74 776.62 723.41 776.88 729.21 772.21 729.54 771.95 723.74"/><path class="cls-1" d="M759.27,726.71c-2,.38-2.13.57-2.21,3-.3-2.46-.45-2.64-2.4-2.73,2-.38,2.13-.57,2.2-3C757.1,726.46,757.26,726.64,759.27,726.71Z" transform="translate(17.53 -0.48)"/><polygon class="cls-3" points="688.26 705.47 697.71 703.71 699.13 715.44 689.68 717.2 688.26 705.47"/><path class="cls-1" d="M680.91,710c-4,1.21-4.25,1.65-4,6.74-1-5-1.32-5.27-5.43-5,4-1.21,4.25-1.64,4-6.74C676.46,710,676.82,710.34,680.91,710Z" transform="translate(17.53 -0.48)"/><polygon class="cls-3" points="654.27 768.4 664.14 766.54 665.64 778.8 655.76 780.66 654.27 768.4"/><path class="cls-1" d="M645.43,773.67c-4.16,1.27-4.44,1.71-4.19,7-1-5.17-1.38-5.51-5.67-5.2,4.17-1.27,4.44-1.71,4.19-7C640.72,773.64,641.14,774,645.43,773.67Z" transform="translate(17.53 -0.48)"/><polygon class="cls-3" points="602.13 752.58 611.82 752.29 612.05 764.33 602.36 764.62 602.13 752.58"/><path class="cls-1" d="M594.46,758.74c-4.13.6-4.45,1-4.72,6.16-.49-5.14-.8-5.53-5-5.87,4.14-.6,4.45-1,4.73-6.16C590,758,590.3,758.4,594.46,758.74Z" transform="translate(17.53 -0.48)"/><polygon class="cls-3" points="527.43 733.89 533.07 726.27 539.21 733.27 533.57 740.89 527.43 733.89"/><path class="cls-1" d="M518.86,737.56c-2.85-2.7-3.22-2.67-5.88.31,2.17-3.54,2.15-4-.26-7.3,2.86,2.7,3.23,2.67,5.89-.32C516.44,733.85,516.45,734.32,518.86,737.56Z" transform="translate(17.53 -0.48)"/><polygon class="cls-3" points="524.57 654.45 532.95 650.46 536.16 660.87 527.78 664.86 524.57 654.45"/><path class="cls-1" d="M514.4,663.34c-1.71-4.3-2.08-4.48-5.8-3.21,3.46-2.12,3.61-2.58,2.58-7.2,1.71,4.3,2.09,4.48,5.8,3.21C513.57,658.28,513.4,658.73,514.4,663.34Z" transform="translate(17.53 -0.48)"/><polygon class="cls-3" points="512.69 544.49 524.34 542.88 525.63 557.35 513.99 558.95 512.69 544.49"/><path class="cls-1" d="M503.67,562c-1-6.17-1.44-6.57-6.5-6.47,5-1.25,5.29-1.78,5.21-8.07,1,6.17,1.43,6.58,6.49,6.47C503.91,555.22,503.57,555.74,503.67,562Z" transform="translate(17.53 -0.48)"/><polygon class="cls-3" points="452.35 412.98 456.93 406.58 462.08 412.27 457.5 418.67 452.35 412.98"/><path class="cls-1" d="M442.28,415.93c-2.4-2.18-2.69-2.17-4.81.36,1.76-3,1.74-3.35-.29-6,2.41,2.18,2.7,2.17,4.81-.36C440.24,412.85,440.25,413.24,442.28,415.93Z" transform="translate(17.53 -0.48)"/><polygon class="cls-3" points="382.23 399.29 384.03 390.32 391.26 392.55 389.46 401.53 382.23 399.29"/><path class="cls-1" d="M372.83,397.51c-3.17-.6-3.46-.39-4.52,3.37.49-3.92.32-4.28-2.71-5.6,3.16.6,3.45.39,4.51-3.37C369.63,395.83,369.81,396.19,372.83,397.51Z" transform="translate(17.53 -0.48)"/><polygon class="cls-3" points="318.47 378.31 318.86 373.52 322.71 374 322.33 378.79 318.47 378.31"/><path class="cls-1" d="M305.06,376.91c-1.67,0-1.81.12-2.12,2.15,0-2.06-.1-2.24-1.73-2.63,1.66,0,1.8-.12,2.11-2.15C303.26,376.34,303.37,376.5,305.06,376.91Z" transform="translate(17.53 -0.48)"/><polygon class="cls-3" points="253.16 364.68 261.26 364 261.81 374.06 253.71 374.74 253.16 364.68"/><path class="cls-1" d="M244,369.5c-3.45.69-3.69,1-3.77,5.36-.56-4.29-.83-4.59-4.32-4.69,3.45-.69,3.69-1,3.77-5.36C240.27,369.09,240.54,369.39,244,369.5Z" transform="translate(17.53 -0.48)"/><polygon class="cls-3" points="191.99 349.86 201.65 349.05 202.3 361.05 192.64 361.86 191.99 349.86"/><path class="cls-1" d="M184.48,355.53c-4.12.82-4.4,1.23-4.51,6.41-.66-5.11-1-5.47-5.16-5.6,4.11-.82,4.4-1.23,4.51-6.41C179.93,355.05,180.32,355.41,184.48,355.53Z" transform="translate(17.53 -0.48)"/></g><g class="cls-2"><polygon class="cls-3" points="1083.34 598.92 1095.47 596.97 1097.05 612.03 1084.91 613.99 1083.34 598.92"/><path class="cls-1" d="M1073.48,613.4c-1.2-6.38-1.58-6.79-6.85-6.55,5.13-1.5,5.47-2,5.28-8.52,1.2,6.38,1.59,6.8,6.86,6.56C1073.63,606.32,1073.29,606.88,1073.48,613.4Z" transform="translate(17.53 -0.48)"/><polygon class="cls-3" points="1079.95 521.12 1084.02 518.73 1085.94 523.78 1081.88 526.17 1079.95 521.12"/><path class="cls-1" d="M1066.38,525.34c-1-2.06-1.2-2.15-3-1.33,1.66-1.23,1.73-1.49,1.07-3.72,1,2.06,1.2,2.15,3,1.33C1065.8,522.84,1065.72,523.08,1066.38,525.34Z" transform="translate(17.53 -0.48)"/><polygon class="cls-3" points="1046.94 464.99 1048.6 456.61 1055.35 458.67 1053.69 467.05 1046.94 464.99"/><path class="cls-1" d="M1037,463.37c-3-.55-3.22-.34-4.21,3.17.45-3.67.28-4-2.55-5.23,3,.55,3.22.35,4.21-3.17C1034.05,461.82,1034.21,462.16,1037,463.37Z" transform="translate(17.53 -0.48)"/><polygon class="cls-3" points="948.11 491.44 960.43 488.6 962.72 503.9 950.4 506.74 948.11 491.44"/><path class="cls-1" d="M944.09,496.63c-5.2,1.82-5.51,2.4-5,9.08-1.47-6.45-1.94-6.84-7.31-6.23,5.19-1.82,5.51-2.4,5-9.08C938.24,496.84,938.71,497.24,944.09,496.63Z" transform="translate(17.53 -0.48)"/><polygon class="cls-3" points="855.22 460.77 859.03 459.55 860.02 464.27 856.21 465.5 855.22 460.77"/><path class="cls-1" d="M842,462.49c-1.59.72-1.68.9-1.41,3-.57-2-.72-2.09-2.4-1.75,1.59-.72,1.68-.89,1.41-3C840.16,462.69,840.32,462.84,842,462.49Z" transform="translate(17.53 -0.48)"/><polygon class="cls-3" points="775.62 481.23 786.18 479.94 787.22 493.06 776.66 494.34 775.62 481.23"/><path class="cls-1" d="M769.18,487c-4.49,1.07-4.81,1.49-4.81,7.2-.87-5.58-1.21-6-5.8-6,4.49-1.07,4.81-1.49,4.81-7.2C764.25,486.66,764.64,487.05,769.18,487Z" transform="translate(17.53 -0.48)"/><polygon class="cls-3" points="697.54 466.92 699.3 459.5 705.28 461.68 703.52 469.1 697.54 466.92"/><path class="cls-1" d="M686.84,465.81c-2.64-.64-2.89-.48-3.87,2.63.51-3.27.38-3.59-2.12-4.81,2.63.64,2.89.48,3.87-2.63C684.2,464.27,684.34,464.58,686.84,465.81Z" transform="translate(17.53 -0.48)"/><polygon class="cls-3" points="650.72 452.95 653.51 441.14 663.02 444.61 660.23 456.42 650.72 452.95"/><path class="cls-1" d="M644.06,450.93c-4.19-1-4.59-.76-6.15,4.17.82-5.2.61-5.69-3.36-7.64,4.19,1,4.59.77,6.15-4.16C639.88,448.48,640.1,449,644.06,450.93Z" transform="translate(17.53 -0.48)"/></g><g class="cls-2"><polygon class="cls-3" points="676.17 1144.61 680 1142.69 681.55 1147.44 677.72 1149.36 676.17 1144.61"/><path class="cls-1" d="M662.13,1148.87c-.82-2-1-2-2.69-1.42,1.58-1,1.65-1.23,1.15-3.33.82,2,1,2.05,2.68,1.42C661.68,1146.54,661.61,1146.75,662.13,1148.87Z" transform="translate(17.53 -0.48)"/><polygon class="cls-3" points="649.06 1094.92 658.69 1091.35 661.56 1103.3 651.94 1106.88 649.06 1094.92"/><path class="cls-1" d="M639.28,1105.49c-1.61-5-2-5.25-6.24-4.19,4-2,4.22-2.49,3.36-7.75,1.62,5,2,5.24,6.25,4.18C638.64,1099.72,638.43,1100.23,639.28,1105.49Z" transform="translate(17.53 -0.48)"/><polygon class="cls-3" points="585.65 970.23 587.56 965.87 591.07 968.25 589.16 972.6 585.65 970.23"/><path class="cls-1" d="M572.6,971c-1.57-.85-1.75-.78-2.7,1,.68-1.95.62-2.18-.8-3.36,1.58.85,1.76.78,2.71-1C571.12,969.54,571.17,969.75,572.6,971Z" transform="translate(17.53 -0.48)"/><polygon class="cls-3" points="496.29 1015.6 497.17 1003.43 506.97 1004.52 506.09 1016.69 496.29 1015.6"/><path class="cls-1" d="M489,1011.09c-4.24,0-4.57.37-5.34,5.54,0-5.26-.3-5.68-4.47-6.63,4.24,0,4.58-.38,5.35-5.54C484.55,1009.71,484.84,1010.13,489,1011.09Z" transform="translate(17.53 -0.48)"/><polygon class="cls-3" points="410.14 934.82 421.89 934.48 422.16 949.07 410.41 949.41 410.14 934.82"/><path class="cls-1" d="M404.44,942.22c-5,.72-5.39,1.2-5.73,7.47-.58-6.24-1-6.69-6-7.13,5-.71,5.39-1.19,5.74-7.46C399,941.4,399.4,941.86,404.44,942.22Z" transform="translate(17.53 -0.48)"/><polygon class="cls-3" points="365.53 1009.9 368.07 996 379.27 999.16 376.72 1013.06 365.53 1009.9"/><path class="cls-1" d="M360.47,1006.61c-4.9-.81-5.34-.47-6.87,5.36.65-6.08.37-6.63-4.32-8.53,4.9.81,5.34.46,6.87-5.36C355.5,1004.16,355.78,1004.69,360.47,1006.61Z" transform="translate(17.53 -0.48)"/><polygon class="cls-3" points="326.19 974.61 330.71 964.36 338.96 969.99 334.43 980.23 326.19 974.61"/><path class="cls-1" d="M319.18,975.52c-3.72-2-4.13-1.85-6.39,2.31,1.61-4.61,1.49-5.12-1.86-7.93,3.71,2,4.12,1.85,6.38-2.31C315.71,972.2,315.88,972.71,319.18,975.52Z" transform="translate(17.53 -0.48)"/><polygon class="cls-3" points="267.36 925.19 273.25 917.9 279.12 925.22 273.23 932.5 267.36 925.19"/><path class="cls-1" d="M258.68,929.28c-2.75-2.85-3.13-2.85-5.89,0,2.3-3.4,2.3-3.88,0-7.3,2.75,2.85,3.13,2.85,5.89,0C256.39,925.4,256.39,925.79,258.68,929.28Z" transform="translate(17.53 -0.48)"/><polygon class="cls-3" points="274.08 865.52 274.51 859.86 279.07 860.39 278.64 866.05 274.08 865.52"/><path class="cls-1" d="M258.83,866.23c0-2.45-.13-2.65-2.07-3.11,2,0,2.13-.16,2.5-2.57,0,2.45.14,2.64,2.07,3.11C259.34,863.66,259.19,863.82,258.83,866.23Z" transform="translate(17.53 -0.48)"/></g><g class="cls-2"><polygon class="cls-3" points="414.26 651.64 422.89 644.4 428.73 655.12 420.09 662.36 414.26 651.64"/><path class="cls-1" d="M401.08,648.43c2.84,4.31,3.3,4.49,7.21,1.74-3.46,3.52-3.6,4.11-1.39,9-2.84-4.3-3.31-4.48-7.22-1.73C403.15,653.9,403.23,653.32,401.08,648.43Z" transform="translate(17.53 -0.48)"/><polygon class="cls-3" points="444.78 755.67 451.22 748.13 457.29 756.14 450.85 763.68 444.78 755.67"/><path class="cls-1" d="M430.48,752.35c2.85,3.14,3.26,3.15,6.26.22-2.53,3.54-2.54,4-.18,7.77-2.86-3.14-3.26-3.15-6.26-.22C432.83,756.58,432.84,756.08,430.48,752.35Z" transform="translate(17.53 -0.48)"/><polygon class="cls-3" points="540.09 810.58 546 797.85 556.25 805.19 550.34 817.91 540.09 810.58"/><path class="cls-1" d="M525.53,804.78c4.62,2.65,5.13,2.47,8.07-2.68-2.13,5.73-2,6.37,2.16,10-4.62-2.65-5.13-2.47-8.07,2.69C529.82,809,529.69,808.37,525.53,804.78Z" transform="translate(17.53 -0.48)"/><polygon class="cls-3" points="580.44 829.76 584.08 822.04 590.3 826.56 586.66 834.28 580.44 829.76"/><path class="cls-1" d="M564.75,826.45c2.8,1.62,3.13,1.49,4.93-1.6-1.31,3.48-1.2,3.88,1.29,6.12-2.81-1.63-3.13-1.49-4.94,1.6C567.33,829.09,567.26,828.69,564.75,826.45Z" transform="translate(17.53 -0.48)"/><polygon class="cls-3" points="615.01 910.6 623.66 904.88 628.27 915.63 619.61 921.35 615.01 910.6"/><path class="cls-1" d="M601.78,908.32c2.32,4.38,2.74,4.49,6.63,2.51-3.53,2.89-3.61,3.41-2,8.24-2.33-4.38-2.75-4.49-6.63-2.51C603.28,913.69,603.43,913.15,601.78,908.32Z" transform="translate(17.53 -0.48)"/><polygon class="cls-3" points="611.3 950.31 620.3 948.74 621.57 959.92 612.56 961.49 611.3 950.31"/><path class="cls-1" d="M598.31,950c.91,4.74,1.21,5,5.14,4.81-3.81,1.12-4.05,1.5-3.87,6.38-.91-4.73-1.21-5-5.14-4.81C598.25,955.23,598.51,954.83,598.31,950Z" transform="translate(17.53 -0.48)"/><polygon class="cls-3" points="641.54 1011.98 648.79 1009.52 650.78 1018.52 643.53 1020.99 641.54 1011.98"/><path class="cls-1" d="M627.69,1011.16c1.15,3.77,1.44,4,4.62,3.28-3,1.41-3.2,1.77-2.63,5.73-1.14-3.76-1.43-4-4.62-3.27C628.09,1015.5,628.26,1015.12,627.69,1011.16Z" transform="translate(17.53 -0.48)"/></g><g class="cls-2"><polygon class="cls-3" points="247.67 685.93 254.44 677.45 261.27 685.85 254.51 694.33 247.67 685.93"/><path class="cls-1" d="M233.51,682.29c3.18,3.25,3.61,3.25,6.79,0-2.62,4-2.62,4.48,0,8.44-3.18-3.26-3.61-3.26-6.79,0C236.18,686.77,236.18,686.17,233.51,682.29Z" transform="translate(17.53 -0.48)"/></g><g class="cls-2"><polygon class="cls-3" points="1140.72 458.64 1152.27 457.43 1153.24 471.76 1141.7 472.98 1140.72 458.64"/><path class="cls-1" d="M1129,458.56c.88,6.1,1.27,6.52,6.27,6.56-4.91,1.09-5.25,1.58-5.28,7.78-.88-6.09-1.28-6.51-6.27-6.55C1128.59,465.26,1128.92,464.75,1129,458.56Z" transform="translate(17.53 -0.48)"/><polygon class="cls-3" points="1103.13 590.31 1104.16 576 1115.69 577.27 1114.66 591.59 1103.13 590.31"/><path class="cls-1" d="M1092.35,577.09c0,6.18.35,6.67,5.24,7.8-5,0-5.37.43-6.28,6.51,0-6.19-.35-6.68-5.24-7.8C1091.05,583.59,1091.45,583.17,1092.35,577.09Z" transform="translate(17.53 -0.48)"/><polygon class="cls-3" points="1128.9 682.23 1129.98 677.27 1133.97 678.6 1132.9 683.57 1128.9 682.23"/><path class="cls-1" d="M1114.49,678.48c-.31,2.18-.21,2.37,1.45,3.13-1.76-.37-1.91-.25-2.53,1.81.31-2.18.21-2.37-1.45-3.14C1113.7,680.66,1113.86,680.54,1114.49,678.48Z" transform="translate(17.53 -0.48)"/><polygon class="cls-3" points="1067.5 727.72 1073.89 716.5 1082.93 724.44 1076.54 735.66 1067.5 727.72"/><path class="cls-1" d="M1056.12,724.32c-2.4,5.1-2.28,5.71,1.31,9.55-4.1-3-4.59-2.84-7.68,1.63,2.4-5.1,2.28-5.71-1.32-9.55C1052.54,728.9,1053,728.79,1056.12,724.32Z" transform="translate(17.53 -0.48)"/><polygon class="cls-3" points="1056.09 761.76 1067.84 761.17 1068.32 775.77 1056.56 776.36 1056.09 761.76"/><path class="cls-1" d="M1050.59,768.93c-5,.84-5.38,1.32-5.64,7.6-.68-6.22-1.06-6.67-6.13-7,5-.84,5.38-1.32,5.64-7.61C1045.14,768.15,1045.52,768.6,1050.59,768.93Z" transform="translate(17.53 -0.48)"/></g><g class="cls-2"><polygon class="cls-3" points="1003.95 445.29 1006.65 430.21 1018.8 433.56 1016.1 448.64 1003.95 445.29"/><path class="cls-1" d="M987.76,438.22c5.31.83,5.79.46,7.42-5.86-.67,6.59-.37,7.19,4.72,9.22-5.3-.84-5.79-.47-7.42,5.85C993.16,440.85,992.86,440.28,987.76,438.22Z" transform="translate(17.53 -0.48)"/><polygon class="cls-3" points="1060.07 444.31 1062.05 433.3 1070.91 435.75 1068.94 446.76 1060.07 444.31"/><path class="cls-1" d="M1043.53,439.28c3.88.61,4.22.34,5.42-4.29-.49,4.82-.27,5.24,3.45,6.74-3.88-.62-4.22-.35-5.42,4.28C1047.47,441.2,1047.24,440.77,1043.53,439.28Z" transform="translate(17.53 -0.48)"/><polygon class="cls-3" points="1120.35 456.1 1122.55 443.77 1132.48 446.51 1130.27 458.84 1120.35 456.1"/><path class="cls-1" d="M1103.92,450.42c4.35.69,4.73.39,6-4.79-.56,5.39-.32,5.87,3.86,7.47-4.34-.69-4.73-.39-6,4.79C1108.31,452.56,1108.07,452.08,1103.92,450.42Z" transform="translate(17.53 -0.48)"/><polygon class="cls-3" points="1198.26 443.48 1199.93 437.52 1204.74 439.6 1203.06 445.57 1198.26 443.48"/><path class="cls-1" d="M1181.52,440.92c2.13.66,2.34.54,3.24-1.94-.53,2.64-.43,2.9,1.56,4-2.13-.66-2.33-.54-3.23,1.94C1183.62,442.31,1183.51,442.06,1181.52,440.92Z" transform="translate(17.53 -0.48)"/><polygon class="cls-3" points="1192.78 516.13 1198.89 513.78 1200.78 521.38 1194.66 523.72 1192.78 516.13"/><path class="cls-1" d="M1178.32,515.35c1,3.16,1.3,3.33,4,2.62-2.55,1.3-2.69,1.62-2.12,5-1-3.16-1.3-3.33-4-2.63C1178.76,519,1178.89,518.69,1178.32,515.35Z" transform="translate(17.53 -0.48)"/></g><g class="cls-2"><polygon class="cls-3" points="523.94 1158.68 532.09 1158.36 532.34 1168.48 524.19 1168.8 523.94 1158.68"/><path class="cls-1" d="M514.66,1163.93c-3.49.54-3.74.86-4,5.23-.43-4.34-.69-4.65-4.21-4.92,3.49-.54,3.74-.87,4-5.23C510.88,1163.31,511.16,1163.67,514.66,1163.93Z" transform="translate(17.53 -0.48)"/><polygon class="cls-3" points="463.9 1165.14 464.02 1154.65 472.47 1154.8 472.35 1165.28 463.9 1165.14"/><path class="cls-1" d="M454.88,1160.49c-3.61.35-3.9.69-4.28,5.17-.28-4.48-.56-4.84-4.17-5.32,3.61-.34,3.9-.69,4.29-5.17C451,1159.67,451.26,1160,454.88,1160.49Z" transform="translate(17.53 -0.48)"/><polygon class="cls-3" points="388.94 1152.99 389.79 1146.4 395.11 1147.46 394.25 1154.06 388.94 1152.99"/><path class="cls-1" d="M374.16,1152c-2.31-.19-2.5,0-3.08,2.77.16-2.87,0-3.11-2.22-3.83,2.31.2,2.5,0,3.08-2.76C371.78,1151,371.92,1151.24,374.16,1152Z" transform="translate(17.53 -0.48)"/><polygon class="cls-3" points="293.17 1153.36 296.99 1142.79 305.51 1147.54 301.69 1158.11 293.17 1153.36"/><path class="cls-1" d="M286.09,1153.23c-3.8-1.61-4.19-1.49-6.17,3,1.3-4.72,1.21-5.21-2.4-7.66,3.8,1.61,4.19,1.49,6.17-3C282.44,1150.29,282.59,1150.78,286.09,1153.23Z" transform="translate(17.53 -0.48)"/><polygon class="cls-3" points="256.81 1117.87 266.85 1114.77 269.35 1127.24 259.31 1130.34 256.81 1117.87"/><path class="cls-1" d="M246.86,1129.22c-1.47-5.21-1.86-5.51-6.27-4.69,4.2-1.82,4.44-2.31,3.78-7.78,1.47,5.21,1.87,5.51,6.27,4.69C246.43,1123.26,246.19,1123.76,246.86,1129.22Z" transform="translate(17.53 -0.48)"/><polygon class="cls-3" points="264.39 1062.4 272.94 1060.37 274.58 1071 266.02 1073.02 264.39 1062.4"/><path class="cls-1" d="M252.84,1072.46c-1-4.48-1.36-4.75-5.09-4.31,3.61-1.28,3.83-1.68,3.47-6.31,1,4.48,1.36,4.75,5.09,4.3C252.7,1067.42,252.48,1067.83,252.84,1072.46Z" transform="translate(17.53 -0.48)"/><polygon class="cls-3" points="274.31 1042.48 277.44 1035.04 283.43 1038.93 280.3 1046.37 274.31 1042.48"/><path class="cls-1" d="M259.79,1044.91c1.11-3.35,1-3.7-1.43-5.66,2.7,1.37,3,1.25,4.56-1.78-1.1,3.35-1,3.71,1.43,5.66C261.66,1041.76,261.37,1041.88,259.79,1044.91Z" transform="translate(17.53 -0.48)"/></g><g class="cls-2"><polygon class="cls-3" points="800.38 1148.81 800.77 1138.08 809.41 1138.56 809.02 1149.29 800.38 1148.81"/><path class="cls-1" d="M791.69,1144.37c-3.72.21-4,.54-4.51,5.13-.17-4.62-.43-5-4.13-5.61,3.72-.2,4-.53,4.51-5.12C787.73,1143.39,788,1143.75,791.69,1144.37Z" transform="translate(17.53 -0.48)"/><polygon class="cls-3" points="749.44 1108.28 750.53 1096.99 759.62 1098.34 758.53 1109.63 749.44 1108.28"/><path class="cls-1" d="M741.6,1104.58c-3.93-.14-4.25.17-5.08,5,.1-4.88-.15-5.29-4-6.32,3.93.14,4.26-.18,5.09-5C737.5,1103.14,737.75,1103.56,741.6,1104.58Z" transform="translate(17.53 -0.48)"/><polygon class="cls-3" points="683.43 1086.11 685.93 1074.06 695.64 1077.16 693.14 1089.22 683.43 1086.11"/><path class="cls-1" d="M675.81,1087.28c-4.25-.87-4.65-.59-6.1,4.48.69-5.28.47-5.77-3.61-7.58,4.24.87,4.64.59,6.1-4.48C671.52,1085,671.75,1085.45,675.81,1087.28Z" transform="translate(17.53 -0.48)"/><polygon class="cls-3" points="636.54 1078.36 640.93 1067.25 649.87 1072.69 645.49 1083.8 636.54 1078.36"/><path class="cls-1" d="M630.16,1078.78c-4-1.9-4.43-1.72-6.66,2.82,1.52-5,1.38-5.5-2.28-8.28,4,1.9,4.43,1.72,6.67-2.82C626.35,1075.47,626.49,1076,630.16,1078.78Z" transform="translate(17.53 -0.48)"/><polygon class="cls-3" points="608.19 1056.55 611.9 1050.42 616.83 1055.03 613.12 1061.15 608.19 1056.55"/><path class="cls-1" d="M597.41,1058.74c-2.26-1.73-2.54-1.68-4.32.77,1.4-2.81,1.36-3.16-.61-5.37,2.26,1.74,2.54,1.69,4.32-.76C595.44,1056.13,595.47,1056.47,597.41,1058.74Z" transform="translate(17.53 -0.48)"/><polygon class="cls-3" points="536.87 1004.05 543.53 992.83 552.57 1001.09 545.92 1012.31 536.87 1004.05"/><path class="cls-1" d="M531.72,1007.14c-4.14-3.09-4.64-3-7.84,1.5,2.49-5.14,2.4-5.77-1.21-9.74,4.14,3.09,4.65,3,7.85-1.5C528,1002.53,528.11,1003.16,531.72,1007.14Z" transform="translate(17.53 -0.48)"/><polygon class="cls-3" points="476.18 965.91 477.51 958.22 483.7 959.87 482.37 967.56 476.18 965.91"/><path class="cls-1" d="M462.46,960.57c-2.7-.39-2.94-.2-3.74,3,.31-3.34.15-3.64-2.41-4.64,2.7.39,2.94.19,3.74-3C459.7,959.28,459.86,959.58,462.46,960.57Z" transform="translate(17.53 -0.48)"/><polygon class="cls-3" points="407.49 950.45 417.33 948.72 418.72 960.94 408.88 962.67 407.49 950.45"/><path class="cls-1" d="M400.55,955.28c-4.17,1.22-4.43,1.67-4.23,7-1-5.17-1.34-5.49-5.62-5.24,4.17-1.22,4.43-1.67,4.23-7C395.91,955.2,396.28,955.55,400.55,955.28Z" transform="translate(17.53 -0.48)"/></g><g class="cls-2"><polygon class="cls-3" points="1127.28 875.39 1131.98 866.34 1139.28 872.18 1134.57 881.23 1127.28 875.39"/><path class="cls-1" d="M1119.43,877.31c-3.31-2.15-3.69-2-6,1.6,1.74-4.11,1.65-4.59-1.28-7.47,3.31,2.15,3.69,2,6-1.6C1116.41,874,1116.49,874.46,1119.43,877.31Z" transform="translate(17.53 -0.48)"/><polygon class="cls-3" points="1046.06 901.89 1053.13 895.44 1058.33 904.21 1051.26 910.66 1046.06 901.89"/><path class="cls-1" d="M1038.21,900.21c-2.83,3.11-2.88,3.6-.93,7.62-2.5-3.51-2.9-3.57-6.13-1.15,2.82-3.11,2.87-3.6.92-7.62C1034.59,902.57,1035,902.65,1038.21,900.21Z" transform="translate(17.53 -0.48)"/><polygon class="cls-3" points="961.05 928.03 965.43 923.32 969.23 928.76 964.84 933.47 961.05 928.03"/><path class="cls-1" d="M949.8,926.61c-1.73,2.24-1.74,2.55-.29,5.08-1.8-2.15-2-2.17-4.09-.36,1.74-2.24,1.75-2.55.29-5.08C947.52,928.39,947.77,928.42,949.8,926.61Z" transform="translate(17.53 -0.48)"/><polygon class="cls-3" points="931.74 967.72 935.21 963.77 938.38 968.08 934.92 972.02 931.74 967.72"/><path class="cls-1" d="M919.28,966.42c-1.36,1.87-1.37,2.12-.14,4.12-1.51-1.68-1.71-1.7-3.32-.17,1.35-1.87,1.37-2.13.14-4.13C917.44,967.93,917.67,968,919.28,966.42Z" transform="translate(17.53 -0.48)"/><polygon class="cls-3" points="914.94 1064.56 917.84 1056.06 924.69 1059.66 921.79 1068.16 914.94 1064.56"/><path class="cls-1" d="M903.74,1058.33c-1,3.77-.85,4.16,2,6-3-1.21-3.36-1-4.81,2.45,1-3.78.84-4.17-2-6C901.91,1062,902.22,1061.82,903.74,1058.33Z" transform="translate(17.53 -0.48)"/></g><g class="cls-2"><polygon class="cls-3" points="1159.16 701.56 1161.83 697.38 1165.2 700.69 1162.53 704.87 1159.16 701.56"/><path class="cls-1" d="M1146,699.57c-1,1.93-1,2.17.35,3.73-1.55-1.25-1.74-1.22-3,.44,1-1.93,1-2.17-.35-3.74C1144.53,701.26,1144.72,701.23,1146,699.57Z" transform="translate(17.53 -0.48)"/><polygon class="cls-3" points="1140.22 778.46 1142.24 766.7 1151.71 769.22 1149.69 780.98 1140.22 778.46"/><path class="cls-1" d="M1129.44,768.42c-.49,5.14-.25,5.59,3.72,7.14-4.14-.61-4.5-.31-5.75,4.62.49-5.14.25-5.59-3.72-7.14C1127.83,773.67,1128.2,773.41,1129.44,768.42Z" transform="translate(17.53 -0.48)"/><polygon class="cls-3" points="1091.01 860.06 1092.19 851.95 1098.73 853.42 1097.54 861.54 1091.01 860.06"/><path class="cls-1" d="M1078,853.19c-.26,3.54-.09,3.84,2.67,4.79-2.85-.31-3.09-.1-3.86,3.32.25-3.54.08-3.84-2.68-4.8C1076.94,856.82,1077.18,856.59,1078,853.19Z" transform="translate(17.53 -0.48)"/><polygon class="cls-3" points="1094.91 935.1 1103.26 933.89 1104.23 944.25 1095.89 945.46 1094.91 935.1"/><path class="cls-1" d="M1081.57,935c.74,4.39,1,4.68,4.65,4.57-3.53.93-3.76,1.3-3.68,5.78-.74-4.39-1-4.67-4.65-4.57C1081.41,939.82,1081.65,939.44,1081.57,935Z" transform="translate(17.53 -0.48)"/></g><g class="cls-2"><polygon class="cls-3" points="938.2 1271.88 939.26 1258.87 949.74 1260.2 948.67 1273.2 938.2 1271.88"/><path class="cls-1" d="M931.65,1267.09c-4.54,0-4.9.32-5.78,5.85,0-5.64-.25-6.08-4.7-7.17,4.54,0,4.9-.32,5.77-5.85C926.91,1265.56,927.21,1266,931.65,1267.09Z" transform="translate(17.53 -0.48)"/><polygon class="cls-3" points="879.26 1228.23 879.58 1220.56 885.76 1220.96 885.43 1228.63 879.26 1228.23"/><path class="cls-1" d="M868,1225.21c-2.66.13-2.87.35-3.25,3.63-.11-3.31-.29-3.56-2.92-4,2.65-.13,2.86-.36,3.24-3.63C865.21,1224.47,865.39,1224.74,868,1225.21Z" transform="translate(17.53 -0.48)"/><polygon class="cls-3" points="844.94 1216.44 847.84 1207.13 855.34 1210.73 852.44 1220.04 844.94 1216.44"/><path class="cls-1" d="M836.4,1216c-3.32-1.18-3.61-1-5.2,2.85.95-4.12.79-4.48-2.3-6.45,3.32,1.18,3.61,1,5.2-2.85C833.15,1213.67,833.31,1214.11,836.4,1216Z" transform="translate(17.53 -0.48)"/><polygon class="cls-3" points="800.53 1233.96 805.25 1226.44 811.31 1232.3 806.59 1239.82 800.53 1233.96"/><path class="cls-1" d="M791.43,1236.62c-2.78-2.21-3.13-2.17-5.39.82,1.78-3.45,1.74-3.88-.67-6.69,2.78,2.21,3.13,2.16,5.39-.82C789,1233.39,789,1233.83,791.43,1236.62Z" transform="translate(17.53 -0.48)"/><polygon class="cls-3" points="777.33 1154.05 786.57 1152.05 788.19 1163.52 778.94 1165.53 777.33 1154.05"/><path class="cls-1" d="M766,1165c-1.06-4.84-1.41-5.14-5.43-4.74,3.9-1.31,4.14-1.75,3.82-6.73,1.05,4.84,1.4,5.13,5.42,4.73C765.94,1159.6,765.7,1160,766,1165Z" transform="translate(17.53 -0.48)"/><polygon class="cls-3" points="761.65 1037.98 767.62 1036.69 768.66 1044.11 762.69 1045.4 761.65 1037.98"/><path class="cls-1" d="M748.16,1045.3c-.68-3.12-.9-3.33-3.51-3.06,2.51-.86,2.68-1.12,2.46-4.37.69,3.13.91,3.34,3.52,3.07C748.1,1041.73,748,1042,748.16,1045.3Z" transform="translate(17.53 -0.48)"/></g><g class="cls-2"><polygon class="cls-3" points="659.97 1268.28 663.56 1254.61 674.56 1259.07 670.97 1272.73 659.97 1268.28"/><path class="cls-1" d="M655.25,1266.39c-4.82-1.37-5.32-1.07-7.31,4.6,1.11-6,.87-6.6-3.7-9.06,4.81,1.37,5.31,1.07,7.3-4.61C650.44,1263.4,650.67,1264,655.25,1266.39Z" transform="translate(17.53 -0.48)"/><polygon class="cls-3" points="611.22 1200.56 611.84 1193.34 617.65 1194.11 617.03 1201.33 611.22 1200.56"/><path class="cls-1" d="M599.82,1198.11c-2.52,0-2.72.16-3.21,3.22,0-3.12-.14-3.37-2.6-4,2.51,0,2.72-.17,3.21-3.23C597.16,1197.24,597.33,1197.49,599.82,1198.11Z" transform="translate(17.53 -0.48)"/><polygon class="cls-3" points="509.8 1264.21 513.54 1262.7 514.76 1267.35 511.01 1268.86 509.8 1264.21"/><path class="cls-1" d="M496.69,1265.45c-1.55.84-1.64,1-1.21,3.08-.67-1.93-.83-2-2.47-1.5,1.55-.83,1.63-1,1.2-3.07C494.87,1265.81,495,1265.91,496.69,1265.45Z" transform="translate(17.53 -0.48)"/><polygon class="cls-3" points="422.21 1240.9 432.08 1235.97 436.05 1248.22 426.19 1253.15 422.21 1240.9"/><path class="cls-1" d="M416.48,1242.65c-4.07,2.6-4.26,3.16-3,8.59-2.1-5-2.54-5.28-6.92-3.66,4.07-2.59,4.26-3.15,2.95-8.59C411.65,1244,412.13,1244.28,416.48,1242.65Z" transform="translate(17.53 -0.48)"/><polygon class="cls-3" points="382.11 1295.3 387.57 1294.24 388.42 1301.01 382.97 1302.08 382.11 1295.3"/><path class="cls-1" d="M370.54,1298.08c-2.31.71-2.41,1-2.3,3.91-.57-2.87-.78-3-3.15-2.85,2.31-.72,2.41-1,2.3-3.92C368,1298.08,368.17,1298.27,370.54,1298.08Z" transform="translate(17.53 -0.48)"/><polygon class="cls-3" points="329.11 1264.9 329.61 1256.75 336.17 1257.37 335.67 1265.52 329.11 1264.9"/><path class="cls-1" d="M318.4,1262c-2.83,0-3.06.29-3.53,3.76,0-3.51-.24-3.79-3-4.38,2.83,0,3.06-.3,3.53-3.76C315.41,1261.15,315.61,1261.43,318.4,1262Z" transform="translate(17.53 -0.48)"/><polygon class="cls-3" points="297.53 1269.08 300.64 1263.8 304.89 1267.67 301.77 1272.95 297.53 1269.08"/><path class="cls-1" d="M285.81,1270.87c-1.94-1.49-2.18-1.4-3.69.71,1.21-2.41,1.13-2.71-.56-4.57,1.94,1.49,2.18,1.4,3.68-.71C284.05,1268.68,284.09,1269,285.81,1270.87Z" transform="translate(17.53 -0.48)"/><polygon class="cls-3" points="253.9 1228.48 259.02 1226.73 260.43 1233.1 255.31 1234.85 253.9 1228.48"/><path class="cls-1" d="M240.41,1234.44c-.8-2.66-1-2.81-3.27-2.32,2.14-1,2.26-1.25,1.86-4.06.81,2.66,1,2.81,3.28,2.32C240.09,1231.38,240,1231.63,240.41,1234.44Z" transform="translate(17.53 -0.48)"/></g><path class="cls-1" d="M1211.31,215.46c-29.75,3.78-32.21,6.83-35.25,43.77-3-36.94-5.5-40-35.25-43.77,29.75-3.78,32.21-6.82,35.25-43.77C1179.09,208.64,1181.56,211.71,1211.31,215.46Z" transform="translate(17.53 -0.48)"/></g></svg>
