<svg id="Layer_1" data-name="Layer 1" xmlns="http://www.w3.org/2000/svg" viewBox="0 0 141.02 135.6"><defs><style>.cls-1,.cls-2,.cls-3,.cls-4{fill:none;stroke:#6fccdd;stroke-miterlimit:10;}.cls-1{stroke-width:2.89px;}.cls-2{stroke-width:3px;}.cls-3{stroke-width:3.02px;}.cls-4{stroke-width:2.65px;}</style></defs><title>telescope_icon</title><path class="cls-1" d="M105.8,10.07h22a0,0,0,0,1,0,0V54.57a0,0,0,0,1,0,0h-22a8,8,0,0,1-8-8V18.07a8,8,0,0,1,8-8Z" transform="translate(-5.14 34.46) rotate(-19.24)"/><polyline class="cls-2" points="73.92 55.99 96.93 47.86 87.82 21.48 42.26 37.55 43.7 41.71 9.52 53.78 15.77 71.84 49.94 59.79 51.38 63.94 59.3 61.15"/><rect class="cls-3" x="4.14" y="64.51" width="5.49" height="9.57" transform="translate(-23.25 1.61) rotate(-19.24)"/><path class="cls-3" d="M134.76,39.93a16,16,0,0,0-9.8-28" transform="translate(-0.79 -4.53)"/><path class="cls-3" d="M76.15,63.61a7.86,7.86,0,1,1-.64-3.09A7.84,7.84,0,0,1,76.15,63.61Z" transform="translate(-0.79 -4.53)"/><path class="cls-4" d="M71.75,102.7h0v0a.86.86,0,0,0,0-.28V70.64" transform="translate(-0.79 -4.53)"/><path class="cls-4" d="M64.81,70.64v31.74a.86.86,0,0,0,0,.28v0h0" transform="translate(-0.79 -4.53)"/><path class="cls-4" d="M64.85,102.66v0h0" transform="translate(-0.79 -4.53)"/><path class="cls-4" d="M71.75,102.66v0h0" transform="translate(-0.79 -4.53)"/><path class="cls-4" d="M71.79,113.6v22.5c0,1.49-1.57,2.7-3.49,2.7s-3.49-1.21-3.49-2.7V113.6" transform="translate(-0.79 -4.53)"/><path class="cls-4" d="M71.75,102.66v0h0" transform="translate(-0.79 -4.53)"/><path class="cls-4" d="M64.81,113.6,48.15,137.11a4.06,4.06,0,0,1-4.73,1.07c-1.68-.71-2.3-2.36-1.38-3.67l22.77-32.13" transform="translate(-0.79 -4.53)"/><path class="cls-4" d="M64.85,102.66v0h0" transform="translate(-0.79 -4.53)"/><path class="cls-4" d="M71.79,102.38l22.77,32.13c.91,1.31.3,3-1.39,3.67a4,4,0,0,1-4.72-1.07L71.79,113.6" transform="translate(-0.79 -4.53)"/></svg>