<svg id="Layer_1" data-name="Layer 1" xmlns="http://www.w3.org/2000/svg" viewBox="0 0 134.8 135.17"><defs><style>.cls-1{fill:none;}.cls-1,.cls-2{stroke:#f178a8;stroke-miterlimit:10;stroke-width:3px;}.cls-2{fill:#f178a8;}</style></defs><title>Volunteer-Satellite</title><path class="cls-1" d="M89.8,5.24h0c-.11.11-.22.22-.32.34a30.59,30.59,0,0,0-2.33,2.66,32.46,32.46,0,0,0,1.65,41.84l-3.15,3.15-8.87-8.87a6.09,6.09,0,0,0-8.57,0L55.32,57.24,53.26,59.3,41.7,70.86A6.09,6.09,0,0,0,40.64,78h0A15.74,15.74,0,0,0,62.9,100.26h0a6.1,6.1,0,0,0,7.15-1L81.62,87.65l2.06-2.05L96.56,72.71a6.06,6.06,0,0,0,0-8.56l-8.87-8.87,3.16-3.16a32.44,32.44,0,0,0,44.83-1h0" transform="translate(-3.23 -2.89)"/><line class="cls-1" x1="114.93" y1="20.11" x2="110.02" y2="25.02"/><line class="cls-1" x1="78.39" y1="84.77" x2="84.31" y2="90.68"/><line class="cls-1" x1="80.45" y1="82.71" x2="86.36" y2="88.63"/><line class="cls-1" x1="46.41" y1="48.67" x2="52.09" y2="54.35"/><line class="cls-1" x1="44.35" y1="50.73" x2="50.03" y2="56.41"/><circle class="cls-2" cx="116.61" cy="18.19" r="2.93"/><path class="cls-1" d="M90,5l45.89,45.88A42.9,42.9,0,0,1,132.48,54L86.94,8.44A43,43,0,0,1,90,5Z" transform="translate(-3.23 -2.89)"/><rect class="cls-1" x="81.58" y="92.68" width="47.66" height="33.42" rx="3.62" transform="translate(99.37 258.4) rotate(-135)"/><line class="cls-1" x1="122.92" y1="119.48" x2="89.22" y2="85.77"/><line class="cls-1" x1="114.84" y1="127.56" x2="81.13" y2="93.86"/><line class="cls-1" x1="99.37" y1="127.32" x2="123" y2="103.69"/><line class="cls-1" x1="90.21" y1="118.16" x2="113.84" y2="94.53"/><line class="cls-1" x1="81.05" y1="109" x2="104.68" y2="85.36"/><rect class="cls-1" x="7.93" y="19.02" width="47.66" height="33.42" rx="3.94" transform="translate(25.72 80.57) rotate(-135)"/><line class="cls-1" x1="49.26" y1="45.82" x2="15.56" y2="12.12"/><line class="cls-1" x1="41.18" y1="53.9" x2="7.48" y2="20.2"/><line class="cls-1" x1="25.71" y1="53.66" x2="49.35" y2="30.03"/><line class="cls-1" x1="16.55" y1="44.5" x2="40.18" y2="20.87"/><line class="cls-1" x1="7.39" y1="35.34" x2="31.02" y2="11.71"/></svg>